<?xml version="1.0" encoding="utf-8"?>
<svg xmlns="http://www.w3.org/2000/svg" xmlns:xlink="http://www.w3.org/1999/xlink" width="600" height="400" viewBox="0 0 2400 1600">
<defs>
  <clipPath id="clip950">
    <rect x="0" y="0" width="2400" height="1600"/>
  </clipPath>
</defs>
<path clip-path="url(#clip950)" d="M0 1600 L2400 1600 L2400 0 L0 0  Z" fill="#ffffff" fill-rule="evenodd" fill-opacity="1"/>
<defs>
  <clipPath id="clip951">
    <rect x="480" y="0" width="1681" height="1600"/>
  </clipPath>
</defs>
<path clip-path="url(#clip950)" d="M257.204 1423.18 L2352.76 1423.18 L2352.76 123.472 L257.204 123.472  Z" fill="#ffffff" fill-rule="evenodd" fill-opacity="1"/>
<defs>
  <clipPath id="clip952">
    <rect x="257" y="123" width="2097" height="1301"/>
  </clipPath>
</defs>
<polyline clip-path="url(#clip952)" style="stroke:#000000; stroke-linecap:round; stroke-linejoin:round; stroke-width:2; stroke-opacity:0.1; fill:none" points="316.005,1423.18 316.005,123.472 "/>
<polyline clip-path="url(#clip952)" style="stroke:#000000; stroke-linecap:round; stroke-linejoin:round; stroke-width:2; stroke-opacity:0.1; fill:none" points="822.912,1423.18 822.912,123.472 "/>
<polyline clip-path="url(#clip952)" style="stroke:#000000; stroke-linecap:round; stroke-linejoin:round; stroke-width:2; stroke-opacity:0.1; fill:none" points="1329.82,1423.18 1329.82,123.472 "/>
<polyline clip-path="url(#clip952)" style="stroke:#000000; stroke-linecap:round; stroke-linejoin:round; stroke-width:2; stroke-opacity:0.1; fill:none" points="1836.72,1423.18 1836.72,123.472 "/>
<polyline clip-path="url(#clip952)" style="stroke:#000000; stroke-linecap:round; stroke-linejoin:round; stroke-width:2; stroke-opacity:0.1; fill:none" points="2343.63,1423.18 2343.63,123.472 "/>
<polyline clip-path="url(#clip952)" style="stroke:#000000; stroke-linecap:round; stroke-linejoin:round; stroke-width:2; stroke-opacity:0.1; fill:none" points="257.204,1386.4 2352.76,1386.4 "/>
<polyline clip-path="url(#clip952)" style="stroke:#000000; stroke-linecap:round; stroke-linejoin:round; stroke-width:2; stroke-opacity:0.1; fill:none" points="257.204,1055.76 2352.76,1055.76 "/>
<polyline clip-path="url(#clip952)" style="stroke:#000000; stroke-linecap:round; stroke-linejoin:round; stroke-width:2; stroke-opacity:0.1; fill:none" points="257.204,725.115 2352.76,725.115 "/>
<polyline clip-path="url(#clip952)" style="stroke:#000000; stroke-linecap:round; stroke-linejoin:round; stroke-width:2; stroke-opacity:0.1; fill:none" points="257.204,394.475 2352.76,394.475 "/>
<polyline clip-path="url(#clip950)" style="stroke:#000000; stroke-linecap:round; stroke-linejoin:round; stroke-width:4; stroke-opacity:1; fill:none" points="257.204,1423.18 2352.76,1423.18 "/>
<polyline clip-path="url(#clip950)" style="stroke:#000000; stroke-linecap:round; stroke-linejoin:round; stroke-width:4; stroke-opacity:1; fill:none" points="316.005,1423.18 316.005,1404.28 "/>
<polyline clip-path="url(#clip950)" style="stroke:#000000; stroke-linecap:round; stroke-linejoin:round; stroke-width:4; stroke-opacity:1; fill:none" points="822.912,1423.18 822.912,1404.28 "/>
<polyline clip-path="url(#clip950)" style="stroke:#000000; stroke-linecap:round; stroke-linejoin:round; stroke-width:4; stroke-opacity:1; fill:none" points="1329.82,1423.18 1329.82,1404.28 "/>
<polyline clip-path="url(#clip950)" style="stroke:#000000; stroke-linecap:round; stroke-linejoin:round; stroke-width:4; stroke-opacity:1; fill:none" points="1836.72,1423.18 1836.72,1404.28 "/>
<polyline clip-path="url(#clip950)" style="stroke:#000000; stroke-linecap:round; stroke-linejoin:round; stroke-width:4; stroke-opacity:1; fill:none" points="2343.63,1423.18 2343.63,1404.28 "/>
<path clip-path="url(#clip950)" d="M316.005 1454.1 Q312.394 1454.1 310.565 1457.66 Q308.76 1461.2 308.76 1468.33 Q308.76 1475.44 310.565 1479.01 Q312.394 1482.55 316.005 1482.55 Q319.639 1482.55 321.445 1479.01 Q323.274 1475.44 323.274 1468.33 Q323.274 1461.2 321.445 1457.66 Q319.639 1454.1 316.005 1454.1 M316.005 1450.39 Q321.815 1450.39 324.871 1455 Q327.95 1459.58 327.95 1468.33 Q327.95 1477.06 324.871 1481.67 Q321.815 1486.25 316.005 1486.25 Q310.195 1486.25 307.116 1481.67 Q304.061 1477.06 304.061 1468.33 Q304.061 1459.58 307.116 1455 Q310.195 1450.39 316.005 1450.39 Z" fill="#000000" fill-rule="nonzero" fill-opacity="1" /><path clip-path="url(#clip950)" d="M813.294 1481.64 L820.933 1481.64 L820.933 1455.28 L812.622 1456.95 L812.622 1452.69 L820.886 1451.02 L825.562 1451.02 L825.562 1481.64 L833.201 1481.64 L833.201 1485.58 L813.294 1485.58 L813.294 1481.64 Z" fill="#000000" fill-rule="nonzero" fill-opacity="1" /><path clip-path="url(#clip950)" d="M1324.47 1481.64 L1340.79 1481.64 L1340.79 1485.58 L1318.85 1485.58 L1318.85 1481.64 Q1321.51 1478.89 1326.09 1474.26 Q1330.7 1469.61 1331.88 1468.27 Q1334.12 1465.74 1335 1464.01 Q1335.91 1462.25 1335.91 1460.56 Q1335.91 1457.8 1333.96 1456.07 Q1332.04 1454.33 1328.94 1454.33 Q1326.74 1454.33 1324.29 1455.09 Q1321.86 1455.86 1319.08 1457.41 L1319.08 1452.69 Q1321.9 1451.55 1324.36 1450.97 Q1326.81 1450.39 1328.85 1450.39 Q1334.22 1450.39 1337.41 1453.08 Q1340.61 1455.77 1340.61 1460.26 Q1340.61 1462.39 1339.8 1464.31 Q1339.01 1466.2 1336.9 1468.8 Q1336.32 1469.47 1333.22 1472.69 Q1330.12 1475.88 1324.47 1481.64 Z" fill="#000000" fill-rule="nonzero" fill-opacity="1" /><path clip-path="url(#clip950)" d="M1840.97 1466.95 Q1844.33 1467.66 1846.2 1469.93 Q1848.1 1472.2 1848.1 1475.53 Q1848.1 1480.65 1844.58 1483.45 Q1841.07 1486.25 1834.58 1486.25 Q1832.41 1486.25 1830.09 1485.81 Q1827.8 1485.39 1825.35 1484.54 L1825.35 1480.02 Q1827.29 1481.16 1829.61 1481.74 Q1831.92 1482.32 1834.44 1482.32 Q1838.84 1482.32 1841.13 1480.58 Q1843.45 1478.84 1843.45 1475.53 Q1843.45 1472.48 1841.3 1470.77 Q1839.17 1469.03 1835.35 1469.03 L1831.32 1469.03 L1831.32 1465.19 L1835.53 1465.19 Q1838.98 1465.19 1840.81 1463.82 Q1842.64 1462.43 1842.64 1459.84 Q1842.64 1457.18 1840.74 1455.77 Q1838.87 1454.33 1835.35 1454.33 Q1833.43 1454.33 1831.23 1454.75 Q1829.03 1455.16 1826.39 1456.04 L1826.39 1451.88 Q1829.05 1451.14 1831.37 1450.77 Q1833.7 1450.39 1835.76 1450.39 Q1841.09 1450.39 1844.19 1452.83 Q1847.29 1455.23 1847.29 1459.35 Q1847.29 1462.22 1845.65 1464.21 Q1844.01 1466.18 1840.97 1466.95 Z" fill="#000000" fill-rule="nonzero" fill-opacity="1" /><path clip-path="url(#clip950)" d="M2346.64 1455.09 L2334.84 1473.54 L2346.64 1473.54 L2346.64 1455.09 M2345.41 1451.02 L2351.29 1451.02 L2351.29 1473.54 L2356.22 1473.54 L2356.22 1477.43 L2351.29 1477.43 L2351.29 1485.58 L2346.64 1485.58 L2346.64 1477.43 L2331.04 1477.43 L2331.04 1472.92 L2345.41 1451.02 Z" fill="#000000" fill-rule="nonzero" fill-opacity="1" /><path clip-path="url(#clip950)" d="M1173.86 1520.52 L1214.06 1520.52 L1214.06 1525.93 L1197.19 1525.93 L1197.19 1568.04 L1190.73 1568.04 L1190.73 1525.93 L1173.86 1525.93 L1173.86 1520.52 Z" fill="#000000" fill-rule="nonzero" fill-opacity="1" /><path clip-path="url(#clip950)" d="M1254.8 1518.58 Q1250.54 1525.9 1248.47 1533.06 Q1246.4 1540.23 1246.4 1547.58 Q1246.4 1554.93 1248.47 1562.16 Q1250.57 1569.35 1254.8 1576.64 L1249.71 1576.64 Q1244.94 1569.16 1242.55 1561.93 Q1240.19 1554.71 1240.19 1547.58 Q1240.19 1540.48 1242.55 1533.29 Q1244.9 1526.09 1249.71 1518.58 L1254.8 1518.58 Z" fill="#000000" fill-rule="nonzero" fill-opacity="1" /><path clip-path="url(#clip950)" d="M1266.42 1520.52 L1272.85 1520.52 L1272.85 1564.73 Q1272.85 1573.33 1269.57 1577.21 Q1266.32 1581.09 1259.1 1581.09 L1256.65 1581.09 L1256.65 1575.68 L1258.65 1575.68 Q1262.92 1575.68 1264.67 1573.3 Q1266.42 1570.91 1266.42 1564.73 L1266.42 1520.52 Z" fill="#000000" fill-rule="nonzero" fill-opacity="1" /><path clip-path="url(#clip950)" d="M1295.8 1520.52 L1301.21 1520.52 L1284.66 1574.09 L1279.25 1574.09 L1295.8 1520.52 Z" fill="#000000" fill-rule="nonzero" fill-opacity="1" /><path clip-path="url(#clip950)" d="M1307.13 1518.52 L1313.02 1518.52 L1313.02 1547.77 L1330.49 1532.4 L1337.97 1532.4 L1319.06 1549.07 L1338.77 1568.04 L1331.13 1568.04 L1313.02 1550.63 L1313.02 1568.04 L1307.13 1568.04 L1307.13 1518.52 Z" fill="#000000" fill-rule="nonzero" fill-opacity="1" /><path clip-path="url(#clip950)" d="M1372.19 1578.87 L1372.19 1583.42 L1338.32 1583.42 L1338.32 1578.87 L1372.19 1578.87 Z" fill="#000000" fill-rule="nonzero" fill-opacity="1" /><path clip-path="url(#clip950)" d="M1384.38 1545.35 L1384.38 1562.76 L1394.69 1562.76 Q1399.88 1562.76 1402.36 1560.63 Q1404.87 1558.46 1404.87 1554.04 Q1404.87 1549.58 1402.36 1547.48 Q1399.88 1545.35 1394.69 1545.35 L1384.38 1545.35 M1384.38 1525.81 L1384.38 1540.13 L1393.89 1540.13 Q1398.6 1540.13 1400.9 1538.38 Q1403.22 1536.6 1403.22 1532.97 Q1403.22 1529.37 1400.9 1527.59 Q1398.6 1525.81 1393.89 1525.81 L1384.38 1525.81 M1377.95 1520.52 L1394.37 1520.52 Q1401.72 1520.52 1405.7 1523.58 Q1409.68 1526.63 1409.68 1532.27 Q1409.68 1536.63 1407.64 1539.21 Q1405.61 1541.79 1401.66 1542.42 Q1406.4 1543.44 1409.01 1546.69 Q1411.65 1549.9 1411.65 1554.74 Q1411.65 1561.11 1407.32 1564.57 Q1403 1568.04 1395.01 1568.04 L1377.95 1568.04 L1377.95 1520.52 Z" fill="#000000" fill-rule="nonzero" fill-opacity="1" /><path clip-path="url(#clip950)" d="M1421.49 1518.58 L1426.58 1518.58 Q1431.36 1526.09 1433.71 1533.29 Q1436.1 1540.48 1436.1 1547.58 Q1436.1 1554.71 1433.71 1561.93 Q1431.36 1569.16 1426.58 1576.64 L1421.49 1576.64 Q1425.72 1569.35 1427.79 1562.16 Q1429.89 1554.93 1429.89 1547.58 Q1429.89 1540.23 1427.79 1533.06 Q1425.72 1525.9 1421.49 1518.58 Z" fill="#000000" fill-rule="nonzero" fill-opacity="1" /><polyline clip-path="url(#clip950)" style="stroke:#000000; stroke-linecap:round; stroke-linejoin:round; stroke-width:4; stroke-opacity:1; fill:none" points="257.204,1423.18 257.204,123.472 "/>
<polyline clip-path="url(#clip950)" style="stroke:#000000; stroke-linecap:round; stroke-linejoin:round; stroke-width:4; stroke-opacity:1; fill:none" points="257.204,1386.4 276.102,1386.4 "/>
<polyline clip-path="url(#clip950)" style="stroke:#000000; stroke-linecap:round; stroke-linejoin:round; stroke-width:4; stroke-opacity:1; fill:none" points="257.204,1055.76 276.102,1055.76 "/>
<polyline clip-path="url(#clip950)" style="stroke:#000000; stroke-linecap:round; stroke-linejoin:round; stroke-width:4; stroke-opacity:1; fill:none" points="257.204,725.115 276.102,725.115 "/>
<polyline clip-path="url(#clip950)" style="stroke:#000000; stroke-linecap:round; stroke-linejoin:round; stroke-width:4; stroke-opacity:1; fill:none" points="257.204,394.475 276.102,394.475 "/>
<path clip-path="url(#clip950)" d="M114.26 1386.85 L143.936 1386.85 L143.936 1390.78 L114.26 1390.78 L114.26 1386.85 Z" fill="#000000" fill-rule="nonzero" fill-opacity="1" /><path clip-path="url(#clip950)" d="M158.056 1399.74 L174.376 1399.74 L174.376 1403.68 L152.431 1403.68 L152.431 1399.74 Q155.093 1396.99 159.677 1392.36 Q164.283 1387.7 165.464 1386.36 Q167.709 1383.84 168.589 1382.1 Q169.491 1380.34 169.491 1378.65 Q169.491 1375.9 167.547 1374.16 Q165.626 1372.43 162.524 1372.43 Q160.325 1372.43 157.871 1373.19 Q155.44 1373.95 152.663 1375.5 L152.663 1370.78 Q155.487 1369.65 157.94 1369.07 Q160.394 1368.49 162.431 1368.49 Q167.802 1368.49 170.996 1371.18 Q174.19 1373.86 174.19 1378.35 Q174.19 1380.48 173.38 1382.4 Q172.593 1384.3 170.487 1386.89 Q169.908 1387.56 166.806 1390.78 Q163.704 1393.98 158.056 1399.74 Z" fill="#000000" fill-rule="nonzero" fill-opacity="1" /><path clip-path="url(#clip950)" d="M184.19 1397.8 L189.075 1397.8 L189.075 1403.68 L184.19 1403.68 L184.19 1397.8 Z" fill="#000000" fill-rule="nonzero" fill-opacity="1" /><path clip-path="url(#clip950)" d="M209.26 1372.19 Q205.649 1372.19 203.82 1375.76 Q202.014 1379.3 202.014 1386.43 Q202.014 1393.54 203.82 1397.1 Q205.649 1400.64 209.26 1400.64 Q212.894 1400.64 214.699 1397.1 Q216.528 1393.54 216.528 1386.43 Q216.528 1379.3 214.699 1375.76 Q212.894 1372.19 209.26 1372.19 M209.26 1368.49 Q215.07 1368.49 218.125 1373.1 Q221.204 1377.68 221.204 1386.43 Q221.204 1395.16 218.125 1399.76 Q215.07 1404.35 209.26 1404.35 Q203.449 1404.35 200.371 1399.76 Q197.315 1395.16 197.315 1386.43 Q197.315 1377.68 200.371 1373.1 Q203.449 1368.49 209.26 1368.49 Z" fill="#000000" fill-rule="nonzero" fill-opacity="1" /><path clip-path="url(#clip950)" d="M115.256 1056.21 L144.931 1056.21 L144.931 1060.14 L115.256 1060.14 L115.256 1056.21 Z" fill="#000000" fill-rule="nonzero" fill-opacity="1" /><path clip-path="url(#clip950)" d="M155.834 1069.1 L163.473 1069.1 L163.473 1042.73 L155.163 1044.4 L155.163 1040.14 L163.427 1038.48 L168.102 1038.48 L168.102 1069.1 L175.741 1069.1 L175.741 1073.04 L155.834 1073.04 L155.834 1069.1 Z" fill="#000000" fill-rule="nonzero" fill-opacity="1" /><path clip-path="url(#clip950)" d="M185.186 1067.16 L190.07 1067.16 L190.07 1073.04 L185.186 1073.04 L185.186 1067.16 Z" fill="#000000" fill-rule="nonzero" fill-opacity="1" /><path clip-path="url(#clip950)" d="M200.301 1038.48 L218.658 1038.48 L218.658 1042.41 L204.584 1042.41 L204.584 1050.88 Q205.602 1050.54 206.621 1050.37 Q207.639 1050.19 208.658 1050.19 Q214.445 1050.19 217.824 1053.36 Q221.204 1056.53 221.204 1061.95 Q221.204 1067.53 217.732 1070.63 Q214.26 1073.71 207.94 1073.71 Q205.764 1073.71 203.496 1073.34 Q201.25 1072.97 198.843 1072.23 L198.843 1067.53 Q200.926 1068.66 203.149 1069.22 Q205.371 1069.77 207.848 1069.77 Q211.852 1069.77 214.19 1067.67 Q216.528 1065.56 216.528 1061.95 Q216.528 1058.34 214.19 1056.23 Q211.852 1054.12 207.848 1054.12 Q205.973 1054.12 204.098 1054.54 Q202.246 1054.96 200.301 1055.84 L200.301 1038.48 Z" fill="#000000" fill-rule="nonzero" fill-opacity="1" /><path clip-path="url(#clip950)" d="M114.26 725.567 L143.936 725.567 L143.936 729.502 L114.26 729.502 L114.26 725.567 Z" fill="#000000" fill-rule="nonzero" fill-opacity="1" /><path clip-path="url(#clip950)" d="M154.839 738.46 L162.477 738.46 L162.477 712.095 L154.167 713.761 L154.167 709.502 L162.431 707.835 L167.107 707.835 L167.107 738.46 L174.746 738.46 L174.746 742.395 L154.839 742.395 L154.839 738.46 Z" fill="#000000" fill-rule="nonzero" fill-opacity="1" /><path clip-path="url(#clip950)" d="M184.19 736.516 L189.075 736.516 L189.075 742.395 L184.19 742.395 L184.19 736.516 Z" fill="#000000" fill-rule="nonzero" fill-opacity="1" /><path clip-path="url(#clip950)" d="M209.26 710.914 Q205.649 710.914 203.82 714.479 Q202.014 718.021 202.014 725.15 Q202.014 732.257 203.82 735.821 Q205.649 739.363 209.26 739.363 Q212.894 739.363 214.699 735.821 Q216.528 732.257 216.528 725.15 Q216.528 718.021 214.699 714.479 Q212.894 710.914 209.26 710.914 M209.26 707.21 Q215.07 707.21 218.125 711.817 Q221.204 716.4 221.204 725.15 Q221.204 733.877 218.125 738.483 Q215.07 743.067 209.26 743.067 Q203.449 743.067 200.371 738.483 Q197.315 733.877 197.315 725.15 Q197.315 716.4 200.371 711.817 Q203.449 707.21 209.26 707.21 Z" fill="#000000" fill-rule="nonzero" fill-opacity="1" /><path clip-path="url(#clip950)" d="M115.256 394.927 L144.931 394.927 L144.931 398.862 L115.256 398.862 L115.256 394.927 Z" fill="#000000" fill-rule="nonzero" fill-opacity="1" /><path clip-path="url(#clip950)" d="M165.024 380.274 Q161.413 380.274 159.584 383.839 Q157.778 387.38 157.778 394.51 Q157.778 401.616 159.584 405.181 Q161.413 408.723 165.024 408.723 Q168.658 408.723 170.464 405.181 Q172.292 401.616 172.292 394.51 Q172.292 387.38 170.464 383.839 Q168.658 380.274 165.024 380.274 M165.024 376.57 Q170.834 376.57 173.889 381.177 Q176.968 385.76 176.968 394.51 Q176.968 403.237 173.889 407.843 Q170.834 412.427 165.024 412.427 Q159.214 412.427 156.135 407.843 Q153.079 403.237 153.079 394.51 Q153.079 385.76 156.135 381.177 Q159.214 376.57 165.024 376.57 Z" fill="#000000" fill-rule="nonzero" fill-opacity="1" /><path clip-path="url(#clip950)" d="M185.186 405.876 L190.07 405.876 L190.07 411.755 L185.186 411.755 L185.186 405.876 Z" fill="#000000" fill-rule="nonzero" fill-opacity="1" /><path clip-path="url(#clip950)" d="M200.301 377.195 L218.658 377.195 L218.658 381.13 L204.584 381.13 L204.584 389.603 Q205.602 389.255 206.621 389.093 Q207.639 388.908 208.658 388.908 Q214.445 388.908 217.824 392.079 Q221.204 395.251 221.204 400.667 Q221.204 406.246 217.732 409.348 Q214.26 412.427 207.94 412.427 Q205.764 412.427 203.496 412.056 Q201.25 411.686 198.843 410.945 L198.843 406.246 Q200.926 407.38 203.149 407.936 Q205.371 408.491 207.848 408.491 Q211.852 408.491 214.19 406.385 Q216.528 404.279 216.528 400.667 Q216.528 397.056 214.19 394.95 Q211.852 392.843 207.848 392.843 Q205.973 392.843 204.098 393.26 Q202.246 393.677 200.301 394.556 L200.301 377.195 Z" fill="#000000" fill-rule="nonzero" fill-opacity="1" /><path clip-path="url(#clip950)" d="M16.4842 822.963 L16.4842 792.916 L21.895 792.916 L21.895 816.533 L35.9632 816.533 L35.9632 793.903 L41.3741 793.903 L41.3741 816.533 L58.5933 816.533 L58.5933 792.344 L64.0042 792.344 L64.0042 822.963 L16.4842 822.963 Z" fill="#000000" fill-rule="nonzero" fill-opacity="1" /><path clip-path="url(#clip950)" d="M14.5426 767.963 Q21.8632 772.228 29.0246 774.297 Q36.186 776.366 43.5384 776.366 Q50.8908 776.366 58.1159 774.297 Q65.3091 772.196 72.5979 767.963 L72.5979 773.055 Q65.1182 777.83 57.8931 780.217 Q50.668 782.572 43.5384 782.572 Q36.4406 782.572 29.2474 780.217 Q22.0542 777.862 14.5426 773.055 L14.5426 767.963 Z" fill="#000000" fill-rule="nonzero" fill-opacity="1" /><path clip-path="url(#clip950)" d="M16.4842 756.345 L16.4842 749.916 L60.694 749.916 Q69.2877 749.916 73.1708 753.194 Q77.0539 756.441 77.0539 763.666 L77.0539 766.117 L71.643 766.117 L71.643 764.112 Q71.643 759.847 69.2559 758.096 Q66.8687 756.345 60.694 756.345 L16.4842 756.345 Z" fill="#000000" fill-rule="nonzero" fill-opacity="1" /><path clip-path="url(#clip950)" d="M14.5426 738.299 L14.5426 733.206 Q22.0542 728.432 29.2474 726.077 Q36.4406 723.689 43.5384 723.689 Q50.668 723.689 57.8931 726.077 Q65.1182 728.432 72.5979 733.206 L72.5979 738.299 Q65.3091 734.065 58.1159 731.997 Q50.8908 729.896 43.5384 729.896 Q36.186 729.896 29.0246 731.997 Q21.8632 734.065 14.5426 738.299 Z" fill="#000000" fill-rule="nonzero" fill-opacity="1" /><path clip-path="url(#clip950)" d="M383.804 12.096 L422.045 12.096 L422.045 18.9825 L391.987 18.9825 L391.987 36.8875 L420.789 36.8875 L420.789 43.7741 L391.987 43.7741 L391.987 65.6895 L422.774 65.6895 L422.774 72.576 L383.804 72.576 L383.804 12.096 Z" fill="#000000" fill-rule="nonzero" fill-opacity="1" /><path clip-path="url(#clip950)" d="M473.613 45.1919 L473.613 72.576 L466.159 72.576 L466.159 45.4349 Q466.159 38.994 463.648 35.7938 Q461.136 32.5936 456.113 32.5936 Q450.077 32.5936 446.593 36.4419 Q443.11 40.2903 443.11 46.9338 L443.11 72.576 L435.615 72.576 L435.615 27.2059 L443.11 27.2059 L443.11 34.2544 Q445.783 30.163 449.388 28.1376 Q453.034 26.1121 457.774 26.1121 Q465.592 26.1121 469.602 30.9732 Q473.613 35.7938 473.613 45.1919 Z" fill="#000000" fill-rule="nonzero" fill-opacity="1" /><path clip-path="url(#clip950)" d="M527.287 48.0275 L527.287 51.6733 L493.017 51.6733 Q493.503 59.3701 497.635 63.421 Q501.807 67.4314 509.22 67.4314 Q513.514 67.4314 517.525 66.3781 Q521.576 65.3249 525.545 63.2184 L525.545 70.267 Q521.535 71.9684 517.322 72.8596 Q513.109 73.7508 508.775 73.7508 Q497.918 73.7508 491.558 67.4314 Q485.239 61.1119 485.239 50.3365 Q485.239 39.1965 491.234 32.6746 Q497.27 26.1121 507.478 26.1121 Q516.633 26.1121 521.94 32.0264 Q527.287 37.9003 527.287 48.0275 M519.834 45.84 Q519.753 39.7232 516.39 36.0774 Q513.069 32.4315 507.559 32.4315 Q501.321 32.4315 497.554 35.9558 Q493.827 39.4801 493.26 45.8805 L519.834 45.84 Z" fill="#000000" fill-rule="nonzero" fill-opacity="1" /><path clip-path="url(#clip950)" d="M565.811 34.1734 Q564.556 33.4443 563.057 33.1202 Q561.599 32.7556 559.816 32.7556 Q553.497 32.7556 550.094 36.8875 Q546.732 40.9789 546.732 48.6757 L546.732 72.576 L539.238 72.576 L539.238 27.2059 L546.732 27.2059 L546.732 34.2544 Q549.081 30.1225 552.849 28.1376 Q556.616 26.1121 562.004 26.1121 Q562.773 26.1121 563.705 26.2337 Q564.637 26.3147 565.771 26.5172 L565.811 34.1734 Z" fill="#000000" fill-rule="nonzero" fill-opacity="1" /><path clip-path="url(#clip950)" d="M602.027 49.3643 Q602.027 41.2625 598.664 36.8065 Q595.343 32.3505 589.307 32.3505 Q583.311 32.3505 579.949 36.8065 Q576.627 41.2625 576.627 49.3643 Q576.627 57.4256 579.949 61.8816 Q583.311 66.3376 589.307 66.3376 Q595.343 66.3376 598.664 61.8816 Q602.027 57.4256 602.027 49.3643 M609.48 66.9452 Q609.48 78.5308 604.336 84.1616 Q599.191 89.8329 588.578 89.8329 Q584.648 89.8329 581.164 89.2252 Q577.681 88.6581 574.399 87.4428 L574.399 80.1917 Q577.681 81.9741 580.881 82.8248 Q584.081 83.6755 587.403 83.6755 Q594.735 83.6755 598.381 79.8271 Q602.027 76.0193 602.027 68.282 L602.027 64.5957 Q599.718 68.6061 596.112 70.5911 Q592.507 72.576 587.484 72.576 Q579.139 72.576 574.035 66.2161 Q568.931 59.8562 568.931 49.3643 Q568.931 38.832 574.035 32.472 Q579.139 26.1121 587.484 26.1121 Q592.507 26.1121 596.112 28.0971 Q599.718 30.082 602.027 34.0924 L602.027 27.2059 L609.48 27.2059 L609.48 66.9452 Z" fill="#000000" fill-rule="nonzero" fill-opacity="1" /><path clip-path="url(#clip950)" d="M643.71 76.7889 Q640.551 84.8907 637.553 87.3618 Q634.555 89.8329 629.532 89.8329 L623.577 89.8329 L623.577 83.5945 L627.952 83.5945 Q631.031 83.5945 632.732 82.1361 Q634.434 80.6778 636.5 75.2496 L637.837 71.8468 L619.486 27.2059 L627.385 27.2059 L641.563 62.6918 L655.742 27.2059 L663.641 27.2059 L643.71 76.7889 Z" fill="#000000" fill-rule="nonzero" fill-opacity="1" /><path clip-path="url(#clip950)" d="M694.954 27.2059 L702.854 27.2059 L717.032 65.2844 L731.21 27.2059 L739.109 27.2059 L722.095 72.576 L711.968 72.576 L694.954 27.2059 Z" fill="#000000" fill-rule="nonzero" fill-opacity="1" /><path clip-path="url(#clip950)" d="M778.322 28.5427 L778.322 35.5912 Q775.162 33.9709 771.759 33.1607 Q768.357 32.3505 764.711 32.3505 Q759.161 32.3505 756.366 34.0519 Q753.611 35.7533 753.611 39.156 Q753.611 41.7486 755.596 43.2475 Q757.581 44.7058 763.577 46.0426 L766.129 46.6097 Q774.068 48.3111 777.39 51.4303 Q780.752 54.509 780.752 60.0587 Q780.752 66.3781 775.729 70.0644 Q770.747 73.7508 761.997 73.7508 Q758.351 73.7508 754.381 73.0216 Q750.452 72.3329 746.077 70.9151 L746.077 63.2184 Q750.209 65.3654 754.219 66.4591 Q758.229 67.5124 762.159 67.5124 Q767.425 67.5124 770.261 65.73 Q773.096 63.9071 773.096 60.6258 Q773.096 57.5877 771.03 55.9673 Q769.005 54.3469 762.078 52.8481 L759.485 52.2405 Q752.558 50.7821 749.479 47.7845 Q746.401 44.7463 746.401 39.4801 Q746.401 33.0797 750.938 29.5959 Q755.475 26.1121 763.82 26.1121 Q767.952 26.1121 771.597 26.7198 Q775.243 27.3274 778.322 28.5427 Z" fill="#000000" fill-rule="nonzero" fill-opacity="1" /><path clip-path="url(#clip950)" d="M810.932 12.096 L862.095 12.096 L862.095 18.9825 L840.625 18.9825 L840.625 72.576 L832.401 72.576 L832.401 18.9825 L810.932 18.9825 L810.932 12.096 Z" fill="#000000" fill-rule="nonzero" fill-opacity="1" /><path clip-path="url(#clip950)" d="M894.38 48.0275 L894.38 51.6733 L860.11 51.6733 Q860.596 59.3701 864.728 63.421 Q868.9 67.4314 876.313 67.4314 Q880.607 67.4314 884.618 66.3781 Q888.669 65.3249 892.638 63.2184 L892.638 70.267 Q888.628 71.9684 884.415 72.8596 Q880.202 73.7508 875.868 73.7508 Q865.011 73.7508 858.651 67.4314 Q852.332 61.1119 852.332 50.3365 Q852.332 39.1965 858.327 32.6746 Q864.363 26.1121 874.571 26.1121 Q883.726 26.1121 889.033 32.0264 Q894.38 37.9003 894.38 48.0275 M886.927 45.84 Q886.846 39.7232 883.483 36.0774 Q880.162 32.4315 874.652 32.4315 Q868.414 32.4315 864.647 35.9558 Q860.92 39.4801 860.353 45.8805 L886.927 45.84 Z" fill="#000000" fill-rule="nonzero" fill-opacity="1" /><path clip-path="url(#clip950)" d="M941.938 35.9153 Q944.733 30.8922 948.622 28.5022 Q952.511 26.1121 957.777 26.1121 Q964.866 26.1121 968.714 31.0947 Q972.563 36.0368 972.563 45.1919 L972.563 72.576 L965.069 72.576 L965.069 45.4349 Q965.069 38.913 962.76 35.7533 Q960.451 32.5936 955.711 32.5936 Q949.918 32.5936 946.556 36.4419 Q943.194 40.2903 943.194 46.9338 L943.194 72.576 L935.7 72.576 L935.7 45.4349 Q935.7 38.8725 933.391 35.7533 Q931.082 32.5936 926.261 32.5936 Q920.549 32.5936 917.187 36.4824 Q913.825 40.3308 913.825 46.9338 L913.825 72.576 L906.33 72.576 L906.33 27.2059 L913.825 27.2059 L913.825 34.2544 Q916.377 30.082 919.942 28.0971 Q923.506 26.1121 928.408 26.1121 Q933.35 26.1121 936.793 28.6237 Q940.277 31.1352 941.938 35.9153 Z" fill="#000000" fill-rule="nonzero" fill-opacity="1" /><path clip-path="url(#clip950)" d="M994.64 65.7705 L994.64 89.8329 L987.146 89.8329 L987.146 27.2059 L994.64 27.2059 L994.64 34.0924 Q996.99 30.0415 1000.55 28.0971 Q1004.16 26.1121 1009.14 26.1121 Q1017.41 26.1121 1022.55 32.6746 Q1027.74 39.2371 1027.74 49.9314 Q1027.74 60.6258 1022.55 67.1883 Q1017.41 73.7508 1009.14 73.7508 Q1004.16 73.7508 1000.55 71.8063 Q996.99 69.8214 994.64 65.7705 M1020 49.9314 Q1020 41.7081 1016.6 37.0496 Q1013.23 32.3505 1007.32 32.3505 Q1001.41 32.3505 998.002 37.0496 Q994.64 41.7081 994.64 49.9314 Q994.64 58.1548 998.002 62.8538 Q1001.41 67.5124 1007.32 67.5124 Q1013.23 67.5124 1016.6 62.8538 Q1020 58.1548 1020 49.9314 Z" fill="#000000" fill-rule="nonzero" fill-opacity="1" /><path clip-path="url(#clip950)" d="M1041.14 62.2867 L1049.69 62.2867 L1049.69 72.576 L1041.14 72.576 L1041.14 62.2867 Z" fill="#000000" fill-rule="nonzero" fill-opacity="1" /><path clip-path="url(#clip950)" d="M1113.45 49.7694 Q1104.42 49.7694 1100.94 51.8354 Q1097.45 53.9013 1097.45 58.8839 Q1097.45 62.8538 1100.04 65.2034 Q1102.68 67.5124 1107.17 67.5124 Q1113.37 67.5124 1117.1 63.1374 Q1120.87 58.7219 1120.87 51.4303 L1120.87 49.7694 L1113.45 49.7694 M1128.32 46.6907 L1128.32 72.576 L1120.87 72.576 L1120.87 65.6895 Q1118.31 69.8214 1114.51 71.8063 Q1110.7 73.7508 1105.19 73.7508 Q1098.22 73.7508 1094.09 69.8619 Q1090 65.9325 1090 59.3701 Q1090 51.7138 1095.1 47.825 Q1100.25 43.9361 1110.42 43.9361 L1120.87 43.9361 L1120.87 43.2069 Q1120.87 38.0623 1117.46 35.2672 Q1114.1 32.4315 1107.98 32.4315 Q1104.1 32.4315 1100.41 33.3632 Q1096.72 34.295 1093.32 36.1584 L1093.32 29.2718 Q1097.41 27.692 1101.26 26.9223 Q1105.11 26.1121 1108.75 26.1121 Q1118.6 26.1121 1123.46 31.2163 Q1128.32 36.3204 1128.32 46.6907 Z" fill="#000000" fill-rule="nonzero" fill-opacity="1" /><path clip-path="url(#clip950)" d="M1181.39 45.1919 L1181.39 72.576 L1173.93 72.576 L1173.93 45.4349 Q1173.93 38.994 1171.42 35.7938 Q1168.91 32.5936 1163.89 32.5936 Q1157.85 32.5936 1154.37 36.4419 Q1150.88 40.2903 1150.88 46.9338 L1150.88 72.576 L1143.39 72.576 L1143.39 27.2059 L1150.88 27.2059 L1150.88 34.2544 Q1153.56 30.163 1157.16 28.1376 Q1160.81 26.1121 1165.55 26.1121 Q1173.37 26.1121 1177.38 30.9732 Q1181.39 35.7938 1181.39 45.1919 Z" fill="#000000" fill-rule="nonzero" fill-opacity="1" /><path clip-path="url(#clip950)" d="M1226.11 34.0924 L1226.11 9.54393 L1233.56 9.54393 L1233.56 72.576 L1226.11 72.576 L1226.11 65.7705 Q1223.76 69.8214 1220.15 71.8063 Q1216.59 73.7508 1211.57 73.7508 Q1203.34 73.7508 1198.16 67.1883 Q1193.01 60.6258 1193.01 49.9314 Q1193.01 39.2371 1198.16 32.6746 Q1203.34 26.1121 1211.57 26.1121 Q1216.59 26.1121 1220.15 28.0971 Q1223.76 30.0415 1226.11 34.0924 M1200.71 49.9314 Q1200.71 58.1548 1204.07 62.8538 Q1207.47 67.5124 1213.39 67.5124 Q1219.3 67.5124 1222.71 62.8538 Q1226.11 58.1548 1226.11 49.9314 Q1226.11 41.7081 1222.71 37.0496 Q1219.3 32.3505 1213.39 32.3505 Q1207.47 32.3505 1204.07 37.0496 Q1200.71 41.7081 1200.71 49.9314 Z" fill="#000000" fill-rule="nonzero" fill-opacity="1" /><path clip-path="url(#clip950)" d="M1283.79 18.8205 L1283.79 65.8515 L1293.68 65.8515 Q1306.2 65.8515 1311.99 60.1802 Q1317.82 54.509 1317.82 42.2752 Q1317.82 30.1225 1311.99 24.4918 Q1306.2 18.8205 1293.68 18.8205 L1283.79 18.8205 M1275.61 12.096 L1292.42 12.096 Q1310 12.096 1318.23 19.4281 Q1326.45 26.7198 1326.45 42.2752 Q1326.45 57.9117 1318.19 65.2439 Q1309.92 72.576 1292.42 72.576 L1275.61 72.576 L1275.61 12.096 Z" fill="#000000" fill-rule="nonzero" fill-opacity="1" /><path clip-path="url(#clip950)" d="M1339.17 27.2059 L1346.62 27.2059 L1346.62 72.576 L1339.17 72.576 L1339.17 27.2059 M1339.17 9.54393 L1346.62 9.54393 L1346.62 18.9825 L1339.17 18.9825 L1339.17 9.54393 Z" fill="#000000" fill-rule="nonzero" fill-opacity="1" /><path clip-path="url(#clip950)" d="M1397.54 35.9153 Q1400.34 30.8922 1404.23 28.5022 Q1408.12 26.1121 1413.38 26.1121 Q1420.47 26.1121 1424.32 31.0947 Q1428.17 36.0368 1428.17 45.1919 L1428.17 72.576 L1420.67 72.576 L1420.67 45.4349 Q1420.67 38.913 1418.36 35.7533 Q1416.06 32.5936 1411.32 32.5936 Q1405.52 32.5936 1402.16 36.4419 Q1398.8 40.2903 1398.8 46.9338 L1398.8 72.576 L1391.3 72.576 L1391.3 45.4349 Q1391.3 38.8725 1389 35.7533 Q1386.69 32.5936 1381.87 32.5936 Q1376.15 32.5936 1372.79 36.4824 Q1369.43 40.3308 1369.43 46.9338 L1369.43 72.576 L1361.94 72.576 L1361.94 27.2059 L1369.43 27.2059 L1369.43 34.2544 Q1371.98 30.082 1375.55 28.0971 Q1379.11 26.1121 1384.01 26.1121 Q1388.96 26.1121 1392.4 28.6237 Q1395.88 31.1352 1397.54 35.9153 Z" fill="#000000" fill-rule="nonzero" fill-opacity="1" /><path clip-path="url(#clip950)" d="M1444.09 62.2867 L1452.64 62.2867 L1452.64 72.576 L1444.09 72.576 L1444.09 62.2867 Z" fill="#000000" fill-rule="nonzero" fill-opacity="1" /><path clip-path="url(#clip950)" d="M1513.36 32.4315 Q1507.36 32.4315 1503.88 37.1306 Q1500.4 41.7891 1500.4 49.9314 Q1500.4 58.0738 1503.84 62.7728 Q1507.32 67.4314 1513.36 67.4314 Q1519.31 67.4314 1522.8 62.7323 Q1526.28 58.0333 1526.28 49.9314 Q1526.28 41.8701 1522.8 37.1711 Q1519.31 32.4315 1513.36 32.4315 M1513.36 26.1121 Q1523.08 26.1121 1528.63 32.4315 Q1534.18 38.7509 1534.18 49.9314 Q1534.18 61.0714 1528.63 67.4314 Q1523.08 73.7508 1513.36 73.7508 Q1503.6 73.7508 1498.05 67.4314 Q1492.54 61.0714 1492.54 49.9314 Q1492.54 38.7509 1498.05 32.4315 Q1503.6 26.1121 1513.36 26.1121 Z" fill="#000000" fill-rule="nonzero" fill-opacity="1" /><path clip-path="url(#clip950)" d="M1569.5 9.54393 L1569.5 15.7418 L1562.37 15.7418 Q1558.36 15.7418 1556.78 17.3622 Q1555.24 18.9825 1555.24 23.1955 L1555.24 27.2059 L1567.52 27.2059 L1567.52 32.9987 L1555.24 32.9987 L1555.24 72.576 L1547.75 72.576 L1547.75 32.9987 L1540.62 32.9987 L1540.62 27.2059 L1547.75 27.2059 L1547.75 24.0462 Q1547.75 16.471 1551.27 13.0277 Q1554.8 9.54393 1562.46 9.54393 L1569.5 9.54393 Z" fill="#000000" fill-rule="nonzero" fill-opacity="1" /><path clip-path="url(#clip950)" d="M1638.69 14.0809 L1638.69 22.0612 Q1634.03 19.8332 1629.9 18.7395 Q1625.77 17.6457 1621.92 17.6457 Q1615.24 17.6457 1611.59 20.2383 Q1607.99 22.8309 1607.99 27.611 Q1607.99 31.6214 1610.38 33.6873 Q1612.81 35.7128 1619.53 36.9686 L1624.47 37.9813 Q1633.63 39.7232 1637.96 44.1387 Q1642.34 48.5136 1642.34 55.8863 Q1642.34 64.6767 1636.42 69.2137 Q1630.55 73.7508 1619.17 73.7508 Q1614.87 73.7508 1610.01 72.7785 Q1605.19 71.8063 1600.01 69.9024 L1600.01 61.4765 Q1604.99 64.2716 1609.77 65.6895 Q1614.55 67.1073 1619.17 67.1073 Q1626.18 67.1073 1629.98 64.3527 Q1633.79 61.598 1633.79 56.4939 Q1633.79 52.0379 1631.04 49.5264 Q1628.32 47.0148 1622.08 45.759 L1617.1 44.7868 Q1607.95 42.9639 1603.86 39.075 Q1599.76 35.1862 1599.76 28.2591 Q1599.76 20.2383 1605.4 15.6203 Q1611.07 11.0023 1620.99 11.0023 Q1625.24 11.0023 1629.66 11.7719 Q1634.08 12.5416 1638.69 14.0809 Z" fill="#000000" fill-rule="nonzero" fill-opacity="1" /><path clip-path="url(#clip950)" d="M1661.99 65.7705 L1661.99 89.8329 L1654.49 89.8329 L1654.49 27.2059 L1661.99 27.2059 L1661.99 34.0924 Q1664.34 30.0415 1667.9 28.0971 Q1671.51 26.1121 1676.49 26.1121 Q1684.75 26.1121 1689.9 32.6746 Q1695.08 39.2371 1695.08 49.9314 Q1695.08 60.6258 1689.9 67.1883 Q1684.75 73.7508 1676.49 73.7508 Q1671.51 73.7508 1667.9 71.8063 Q1664.34 69.8214 1661.99 65.7705 M1687.34 49.9314 Q1687.34 41.7081 1683.94 37.0496 Q1680.58 32.3505 1674.67 32.3505 Q1668.75 32.3505 1665.35 37.0496 Q1661.99 41.7081 1661.99 49.9314 Q1661.99 58.1548 1665.35 62.8538 Q1668.75 67.5124 1674.67 67.5124 Q1680.58 67.5124 1683.94 62.8538 Q1687.34 58.1548 1687.34 49.9314 Z" fill="#000000" fill-rule="nonzero" fill-opacity="1" /><path clip-path="url(#clip950)" d="M1707.44 27.2059 L1714.89 27.2059 L1714.89 72.576 L1707.44 72.576 L1707.44 27.2059 M1707.44 9.54393 L1714.89 9.54393 L1714.89 18.9825 L1707.44 18.9825 L1707.44 9.54393 Z" fill="#000000" fill-rule="nonzero" fill-opacity="1" /><path clip-path="url(#clip950)" d="M1768.2 45.1919 L1768.2 72.576 L1760.75 72.576 L1760.75 45.4349 Q1760.75 38.994 1758.24 35.7938 Q1755.72 32.5936 1750.7 32.5936 Q1744.67 32.5936 1741.18 36.4419 Q1737.7 40.2903 1737.7 46.9338 L1737.7 72.576 L1730.2 72.576 L1730.2 27.2059 L1737.7 27.2059 L1737.7 34.2544 Q1740.37 30.163 1743.98 28.1376 Q1747.62 26.1121 1752.36 26.1121 Q1760.18 26.1121 1764.19 30.9732 Q1768.2 35.7938 1768.2 45.1919 Z" fill="#000000" fill-rule="nonzero" fill-opacity="1" /><path clip-path="url(#clip950)" d="M1811.99 28.5427 L1811.99 35.5912 Q1808.83 33.9709 1805.43 33.1607 Q1802.03 32.3505 1798.38 32.3505 Q1792.83 32.3505 1790.04 34.0519 Q1787.28 35.7533 1787.28 39.156 Q1787.28 41.7486 1789.27 43.2475 Q1791.25 44.7058 1797.25 46.0426 L1799.8 46.6097 Q1807.74 48.3111 1811.06 51.4303 Q1814.42 54.509 1814.42 60.0587 Q1814.42 66.3781 1809.4 70.0644 Q1804.42 73.7508 1795.67 73.7508 Q1792.02 73.7508 1788.05 73.0216 Q1784.12 72.3329 1779.75 70.9151 L1779.75 63.2184 Q1783.88 65.3654 1787.89 66.4591 Q1791.9 67.5124 1795.83 67.5124 Q1801.09 67.5124 1803.93 65.73 Q1806.77 63.9071 1806.77 60.6258 Q1806.77 57.5877 1804.7 55.9673 Q1802.67 54.3469 1795.75 52.8481 L1793.15 52.2405 Q1786.23 50.7821 1783.15 47.7845 Q1780.07 44.7463 1780.07 39.4801 Q1780.07 33.0797 1784.61 29.5959 Q1789.14 26.1121 1797.49 26.1121 Q1801.62 26.1121 1805.27 26.7198 Q1808.91 27.3274 1811.99 28.5427 Z" fill="#000000" fill-rule="nonzero" fill-opacity="1" /><path clip-path="url(#clip950)" d="M1870.57 9.62495 Q1865.14 18.942 1862.51 28.0566 Q1859.87 37.1711 1859.87 46.5287 Q1859.87 55.8863 1862.51 65.0818 Q1865.18 74.2369 1870.57 83.5134 L1864.09 83.5134 Q1858.01 73.9938 1854.97 64.7983 Q1851.97 55.6027 1851.97 46.5287 Q1851.97 37.4952 1854.97 28.3401 Q1857.97 19.1851 1864.09 9.62495 L1870.57 9.62495 Z" fill="#000000" fill-rule="nonzero" fill-opacity="1" /><path clip-path="url(#clip950)" d="M1893.13 65.6895 L1921.69 65.6895 L1921.69 72.576 L1883.29 72.576 L1883.29 65.6895 Q1887.95 60.8689 1895.97 52.7671 Q1904.03 44.6248 1906.09 42.2752 Q1910.02 37.8598 1911.56 34.8216 Q1913.14 31.7429 1913.14 28.7857 Q1913.14 23.9651 1909.74 20.927 Q1906.38 17.8888 1900.95 17.8888 Q1897.1 17.8888 1892.81 19.2256 Q1888.55 20.5624 1883.69 23.2765 L1883.69 15.0127 Q1888.63 13.0277 1892.93 12.015 Q1897.22 11.0023 1900.79 11.0023 Q1910.19 11.0023 1915.78 15.7013 Q1921.37 20.4004 1921.37 28.2591 Q1921.37 31.9859 1919.95 35.3482 Q1918.57 38.6699 1914.88 43.2069 Q1913.87 44.3817 1908.44 50.0125 Q1903.01 55.6027 1893.13 65.6895 Z" fill="#000000" fill-rule="nonzero" fill-opacity="1" /><path clip-path="url(#clip950)" d="M1976.62 48.0275 L1976.62 51.6733 L1942.35 51.6733 Q1942.84 59.3701 1946.97 63.421 Q1951.14 67.4314 1958.55 67.4314 Q1962.85 67.4314 1966.86 66.3781 Q1970.91 65.3249 1974.88 63.2184 L1974.88 70.267 Q1970.87 71.9684 1966.65 72.8596 Q1962.44 73.7508 1958.11 73.7508 Q1947.25 73.7508 1940.89 67.4314 Q1934.57 61.1119 1934.57 50.3365 Q1934.57 39.1965 1940.57 32.6746 Q1946.6 26.1121 1956.81 26.1121 Q1965.97 26.1121 1971.27 32.0264 Q1976.62 37.9003 1976.62 48.0275 M1969.17 45.84 Q1969.09 39.7232 1965.72 36.0774 Q1962.4 32.4315 1956.89 32.4315 Q1950.65 32.4315 1946.89 35.9558 Q1943.16 39.4801 1942.59 45.8805 L1969.17 45.84 Z" fill="#000000" fill-rule="nonzero" fill-opacity="1" /><path clip-path="url(#clip950)" d="M1987.84 12.096 L2026.73 12.096 L2026.73 15.5798 L2004.77 72.576 L1996.23 72.576 L2016.89 18.9825 L1987.84 18.9825 L1987.84 12.096 Z" fill="#000000" fill-rule="nonzero" fill-opacity="1" /><path clip-path="url(#clip950)" d="M2068.01 27.2059 L2075.46 27.2059 L2075.46 72.576 L2068.01 72.576 L2068.01 27.2059 M2068.01 9.54393 L2075.46 9.54393 L2075.46 18.9825 L2068.01 18.9825 L2068.01 9.54393 Z" fill="#000000" fill-rule="nonzero" fill-opacity="1" /><path clip-path="url(#clip950)" d="M2098.43 14.324 L2098.43 27.2059 L2113.78 27.2059 L2113.78 32.9987 L2098.43 32.9987 L2098.43 57.6282 Q2098.43 63.1779 2099.93 64.7578 Q2101.47 66.3376 2106.13 66.3376 L2113.78 66.3376 L2113.78 72.576 L2106.13 72.576 Q2097.5 72.576 2094.22 69.3758 Q2090.94 66.1351 2090.94 57.6282 L2090.94 32.9987 L2085.47 32.9987 L2085.47 27.2059 L2090.94 27.2059 L2090.94 14.324 L2098.43 14.324 Z" fill="#000000" fill-rule="nonzero" fill-opacity="1" /><path clip-path="url(#clip950)" d="M2162.39 48.0275 L2162.39 51.6733 L2128.12 51.6733 Q2128.61 59.3701 2132.74 63.421 Q2136.91 67.4314 2144.33 67.4314 Q2148.62 67.4314 2152.63 66.3781 Q2156.68 65.3249 2160.65 63.2184 L2160.65 70.267 Q2156.64 71.9684 2152.43 72.8596 Q2148.22 73.7508 2143.88 73.7508 Q2133.03 73.7508 2126.67 67.4314 Q2120.35 61.1119 2120.35 50.3365 Q2120.35 39.1965 2126.34 32.6746 Q2132.38 26.1121 2142.59 26.1121 Q2151.74 26.1121 2157.05 32.0264 Q2162.39 37.9003 2162.39 48.0275 M2154.94 45.84 Q2154.86 39.7232 2151.5 36.0774 Q2148.18 32.4315 2142.67 32.4315 Q2136.43 32.4315 2132.66 35.9558 Q2128.93 39.4801 2128.37 45.8805 L2154.94 45.84 Z" fill="#000000" fill-rule="nonzero" fill-opacity="1" /><path clip-path="url(#clip950)" d="M2200.92 34.1734 Q2199.66 33.4443 2198.16 33.1202 Q2196.71 32.7556 2194.92 32.7556 Q2188.6 32.7556 2185.2 36.8875 Q2181.84 40.9789 2181.84 48.6757 L2181.84 72.576 L2174.34 72.576 L2174.34 27.2059 L2181.84 27.2059 L2181.84 34.2544 Q2184.19 30.1225 2187.96 28.1376 Q2191.72 26.1121 2197.11 26.1121 Q2197.88 26.1121 2198.81 26.2337 Q2199.74 26.3147 2200.88 26.5172 L2200.92 34.1734 Z" fill="#000000" fill-rule="nonzero" fill-opacity="1" /><path clip-path="url(#clip950)" d="M2207.56 9.62495 L2214.04 9.62495 Q2220.12 19.1851 2223.12 28.3401 Q2226.16 37.4952 2226.16 46.5287 Q2226.16 55.6027 2223.12 64.7983 Q2220.12 73.9938 2214.04 83.5134 L2207.56 83.5134 Q2212.95 74.2369 2215.58 65.0818 Q2218.26 55.8863 2218.26 46.5287 Q2218.26 37.1711 2215.58 28.0566 Q2212.95 18.942 2207.56 9.62495 Z" fill="#000000" fill-rule="nonzero" fill-opacity="1" /><circle clip-path="url(#clip952)" cx="316.512" cy="1386.4" r="14.4" fill="#009af9" fill-rule="evenodd" fill-opacity="1" stroke="#000000" stroke-opacity="1" stroke-width="3.2"/>
<circle clip-path="url(#clip952)" cx="367.203" cy="1386.4" r="14.4" fill="#009af9" fill-rule="evenodd" fill-opacity="1" stroke="#000000" stroke-opacity="1" stroke-width="3.2"/>
<circle clip-path="url(#clip952)" cx="417.893" cy="1386.4" r="14.4" fill="#009af9" fill-rule="evenodd" fill-opacity="1" stroke="#000000" stroke-opacity="1" stroke-width="3.2"/>
<circle clip-path="url(#clip952)" cx="468.584" cy="1386.4" r="14.4" fill="#009af9" fill-rule="evenodd" fill-opacity="1" stroke="#000000" stroke-opacity="1" stroke-width="3.2"/>
<circle clip-path="url(#clip952)" cx="519.275" cy="1386.4" r="14.4" fill="#009af9" fill-rule="evenodd" fill-opacity="1" stroke="#000000" stroke-opacity="1" stroke-width="3.2"/>
<circle clip-path="url(#clip952)" cx="569.965" cy="1386.4" r="14.4" fill="#009af9" fill-rule="evenodd" fill-opacity="1" stroke="#000000" stroke-opacity="1" stroke-width="3.2"/>
<circle clip-path="url(#clip952)" cx="620.656" cy="1386.4" r="14.4" fill="#009af9" fill-rule="evenodd" fill-opacity="1" stroke="#000000" stroke-opacity="1" stroke-width="3.2"/>
<circle clip-path="url(#clip952)" cx="671.347" cy="1386.4" r="14.4" fill="#009af9" fill-rule="evenodd" fill-opacity="1" stroke="#000000" stroke-opacity="1" stroke-width="3.2"/>
<circle clip-path="url(#clip952)" cx="722.037" cy="1386.4" r="14.4" fill="#009af9" fill-rule="evenodd" fill-opacity="1" stroke="#000000" stroke-opacity="1" stroke-width="3.2"/>
<circle clip-path="url(#clip952)" cx="772.728" cy="1385.34" r="14.4" fill="#009af9" fill-rule="evenodd" fill-opacity="1" stroke="#000000" stroke-opacity="1" stroke-width="3.2"/>
<circle clip-path="url(#clip952)" cx="823.419" cy="1384.28" r="14.4" fill="#009af9" fill-rule="evenodd" fill-opacity="1" stroke="#000000" stroke-opacity="1" stroke-width="3.2"/>
<circle clip-path="url(#clip952)" cx="874.109" cy="1383.75" r="14.4" fill="#009af9" fill-rule="evenodd" fill-opacity="1" stroke="#000000" stroke-opacity="1" stroke-width="3.2"/>
<circle clip-path="url(#clip952)" cx="924.8" cy="1380.58" r="14.4" fill="#009af9" fill-rule="evenodd" fill-opacity="1" stroke="#000000" stroke-opacity="1" stroke-width="3.2"/>
<circle clip-path="url(#clip952)" cx="975.491" cy="1377.14" r="14.4" fill="#009af9" fill-rule="evenodd" fill-opacity="1" stroke="#000000" stroke-opacity="1" stroke-width="3.2"/>
<circle clip-path="url(#clip952)" cx="1026.18" cy="1362.33" r="14.4" fill="#009af9" fill-rule="evenodd" fill-opacity="1" stroke="#000000" stroke-opacity="1" stroke-width="3.2"/>
<circle clip-path="url(#clip952)" cx="1076.87" cy="1356.24" r="14.4" fill="#009af9" fill-rule="evenodd" fill-opacity="1" stroke="#000000" stroke-opacity="1" stroke-width="3.2"/>
<circle clip-path="url(#clip952)" cx="1127.56" cy="1343.28" r="14.4" fill="#009af9" fill-rule="evenodd" fill-opacity="1" stroke="#000000" stroke-opacity="1" stroke-width="3.2"/>
<circle clip-path="url(#clip952)" cx="1178.25" cy="1323.44" r="14.4" fill="#009af9" fill-rule="evenodd" fill-opacity="1" stroke="#000000" stroke-opacity="1" stroke-width="3.2"/>
<circle clip-path="url(#clip952)" cx="1228.94" cy="1301.22" r="14.4" fill="#009af9" fill-rule="evenodd" fill-opacity="1" stroke="#000000" stroke-opacity="1" stroke-width="3.2"/>
<circle clip-path="url(#clip952)" cx="1279.63" cy="1255.2" r="14.4" fill="#009af9" fill-rule="evenodd" fill-opacity="1" stroke="#000000" stroke-opacity="1" stroke-width="3.2"/>
<circle clip-path="url(#clip952)" cx="1330.33" cy="1223.46" r="14.4" fill="#009af9" fill-rule="evenodd" fill-opacity="1" stroke="#000000" stroke-opacity="1" stroke-width="3.2"/>
<circle clip-path="url(#clip952)" cx="1381.02" cy="1148.86" r="14.4" fill="#009af9" fill-rule="evenodd" fill-opacity="1" stroke="#000000" stroke-opacity="1" stroke-width="3.2"/>
<circle clip-path="url(#clip952)" cx="1431.71" cy="757.915" r="14.4" fill="#009af9" fill-rule="evenodd" fill-opacity="1" stroke="#000000" stroke-opacity="1" stroke-width="3.2"/>
<circle clip-path="url(#clip952)" cx="1482.4" cy="642.323" r="14.4" fill="#009af9" fill-rule="evenodd" fill-opacity="1" stroke="#000000" stroke-opacity="1" stroke-width="3.2"/>
<circle clip-path="url(#clip952)" cx="1533.09" cy="696.813" r="14.4" fill="#009af9" fill-rule="evenodd" fill-opacity="1" stroke="#000000" stroke-opacity="1" stroke-width="3.2"/>
<circle clip-path="url(#clip952)" cx="1583.78" cy="454.255" r="14.4" fill="#009af9" fill-rule="evenodd" fill-opacity="1" stroke="#000000" stroke-opacity="1" stroke-width="3.2"/>
<circle clip-path="url(#clip952)" cx="1634.47" cy="720.883" r="14.4" fill="#009af9" fill-rule="evenodd" fill-opacity="1" stroke="#000000" stroke-opacity="1" stroke-width="3.2"/>
<circle clip-path="url(#clip952)" cx="1685.16" cy="536.518" r="14.4" fill="#009af9" fill-rule="evenodd" fill-opacity="1" stroke="#000000" stroke-opacity="1" stroke-width="3.2"/>
<circle clip-path="url(#clip952)" cx="1735.85" cy="651.846" r="14.4" fill="#009af9" fill-rule="evenodd" fill-opacity="1" stroke="#000000" stroke-opacity="1" stroke-width="3.2"/>
<circle clip-path="url(#clip952)" cx="1786.54" cy="631.743" r="14.4" fill="#009af9" fill-rule="evenodd" fill-opacity="1" stroke="#000000" stroke-opacity="1" stroke-width="3.2"/>
<circle clip-path="url(#clip952)" cx="1837.23" cy="588.627" r="14.4" fill="#009af9" fill-rule="evenodd" fill-opacity="1" stroke="#000000" stroke-opacity="1" stroke-width="3.2"/>
<circle clip-path="url(#clip952)" cx="1887.92" cy="594.182" r="14.4" fill="#009af9" fill-rule="evenodd" fill-opacity="1" stroke="#000000" stroke-opacity="1" stroke-width="3.2"/>
<circle clip-path="url(#clip952)" cx="1938.61" cy="547.628" r="14.4" fill="#009af9" fill-rule="evenodd" fill-opacity="1" stroke="#000000" stroke-opacity="1" stroke-width="3.2"/>
<circle clip-path="url(#clip952)" cx="1989.3" cy="459.81" r="14.4" fill="#009af9" fill-rule="evenodd" fill-opacity="1" stroke="#000000" stroke-opacity="1" stroke-width="3.2"/>
<circle clip-path="url(#clip952)" cx="2039.99" cy="450.287" r="14.4" fill="#009af9" fill-rule="evenodd" fill-opacity="1" stroke="#000000" stroke-opacity="1" stroke-width="3.2"/>
<circle clip-path="url(#clip952)" cx="2090.69" cy="479.119" r="14.4" fill="#009af9" fill-rule="evenodd" fill-opacity="1" stroke="#000000" stroke-opacity="1" stroke-width="3.2"/>
<circle clip-path="url(#clip952)" cx="2141.38" cy="462.984" r="14.4" fill="#009af9" fill-rule="evenodd" fill-opacity="1" stroke="#000000" stroke-opacity="1" stroke-width="3.2"/>
<circle clip-path="url(#clip952)" cx="2192.07" cy="424.365" r="14.4" fill="#009af9" fill-rule="evenodd" fill-opacity="1" stroke="#000000" stroke-opacity="1" stroke-width="3.2"/>
<circle clip-path="url(#clip952)" cx="2242.76" cy="418.546" r="14.4" fill="#009af9" fill-rule="evenodd" fill-opacity="1" stroke="#000000" stroke-opacity="1" stroke-width="3.2"/>
<circle clip-path="url(#clip952)" cx="2293.45" cy="446.584" r="14.4" fill="#009af9" fill-rule="evenodd" fill-opacity="1" stroke="#000000" stroke-opacity="1" stroke-width="3.2"/>
<circle clip-path="url(#clip952)" cx="316.512" cy="1386.02" r="14.4" fill="#e26f46" fill-rule="evenodd" fill-opacity="1" stroke="#000000" stroke-opacity="1" stroke-width="3.2"/>
<circle clip-path="url(#clip952)" cx="367.203" cy="1356.91" r="14.4" fill="#e26f46" fill-rule="evenodd" fill-opacity="1" stroke="#000000" stroke-opacity="1" stroke-width="3.2"/>
<circle clip-path="url(#clip952)" cx="417.893" cy="1330.63" r="14.4" fill="#e26f46" fill-rule="evenodd" fill-opacity="1" stroke="#000000" stroke-opacity="1" stroke-width="3.2"/>
<circle clip-path="url(#clip952)" cx="468.584" cy="1303.59" r="14.4" fill="#e26f46" fill-rule="evenodd" fill-opacity="1" stroke="#000000" stroke-opacity="1" stroke-width="3.2"/>
<circle clip-path="url(#clip952)" cx="519.275" cy="1275.4" r="14.4" fill="#e26f46" fill-rule="evenodd" fill-opacity="1" stroke="#000000" stroke-opacity="1" stroke-width="3.2"/>
<circle clip-path="url(#clip952)" cx="569.965" cy="1242.39" r="14.4" fill="#e26f46" fill-rule="evenodd" fill-opacity="1" stroke="#000000" stroke-opacity="1" stroke-width="3.2"/>
<circle clip-path="url(#clip952)" cx="620.656" cy="1172.19" r="14.4" fill="#e26f46" fill-rule="evenodd" fill-opacity="1" stroke="#000000" stroke-opacity="1" stroke-width="3.2"/>
<circle clip-path="url(#clip952)" cx="671.347" cy="1148.98" r="14.4" fill="#e26f46" fill-rule="evenodd" fill-opacity="1" stroke="#000000" stroke-opacity="1" stroke-width="3.2"/>
<circle clip-path="url(#clip952)" cx="722.037" cy="1060.8" r="14.4" fill="#e26f46" fill-rule="evenodd" fill-opacity="1" stroke="#000000" stroke-opacity="1" stroke-width="3.2"/>
<circle clip-path="url(#clip952)" cx="772.728" cy="1025.99" r="14.4" fill="#e26f46" fill-rule="evenodd" fill-opacity="1" stroke="#000000" stroke-opacity="1" stroke-width="3.2"/>
<circle clip-path="url(#clip952)" cx="823.419" cy="736.076" r="14.4" fill="#e26f46" fill-rule="evenodd" fill-opacity="1" stroke="#000000" stroke-opacity="1" stroke-width="3.2"/>
<circle clip-path="url(#clip952)" cx="874.109" cy="832.806" r="14.4" fill="#e26f46" fill-rule="evenodd" fill-opacity="1" stroke="#000000" stroke-opacity="1" stroke-width="3.2"/>
<circle clip-path="url(#clip952)" cx="924.8" cy="402.328" r="14.4" fill="#e26f46" fill-rule="evenodd" fill-opacity="1" stroke="#000000" stroke-opacity="1" stroke-width="3.2"/>
<circle clip-path="url(#clip952)" cx="975.491" cy="667.401" r="14.4" fill="#e26f46" fill-rule="evenodd" fill-opacity="1" stroke="#000000" stroke-opacity="1" stroke-width="3.2"/>
<circle clip-path="url(#clip952)" cx="1026.18" cy="628.817" r="14.4" fill="#e26f46" fill-rule="evenodd" fill-opacity="1" stroke="#000000" stroke-opacity="1" stroke-width="3.2"/>
<circle clip-path="url(#clip952)" cx="1076.87" cy="589.603" r="14.4" fill="#e26f46" fill-rule="evenodd" fill-opacity="1" stroke="#000000" stroke-opacity="1" stroke-width="3.2"/>
<circle clip-path="url(#clip952)" cx="1127.56" cy="501.675" r="14.4" fill="#e26f46" fill-rule="evenodd" fill-opacity="1" stroke="#000000" stroke-opacity="1" stroke-width="3.2"/>
<circle clip-path="url(#clip952)" cx="1178.25" cy="489.775" r="14.4" fill="#e26f46" fill-rule="evenodd" fill-opacity="1" stroke="#000000" stroke-opacity="1" stroke-width="3.2"/>
<circle clip-path="url(#clip952)" cx="1228.94" cy="446.244" r="14.4" fill="#e26f46" fill-rule="evenodd" fill-opacity="1" stroke="#000000" stroke-opacity="1" stroke-width="3.2"/>
<circle clip-path="url(#clip952)" cx="1279.63" cy="445.034" r="14.4" fill="#e26f46" fill-rule="evenodd" fill-opacity="1" stroke="#000000" stroke-opacity="1" stroke-width="3.2"/>
<circle clip-path="url(#clip952)" cx="1330.33" cy="434.567" r="14.4" fill="#e26f46" fill-rule="evenodd" fill-opacity="1" stroke="#000000" stroke-opacity="1" stroke-width="3.2"/>
<circle clip-path="url(#clip952)" cx="1381.02" cy="405.111" r="14.4" fill="#e26f46" fill-rule="evenodd" fill-opacity="1" stroke="#000000" stroke-opacity="1" stroke-width="3.2"/>
<circle clip-path="url(#clip952)" cx="1431.71" cy="393.37" r="14.4" fill="#e26f46" fill-rule="evenodd" fill-opacity="1" stroke="#000000" stroke-opacity="1" stroke-width="3.2"/>
<circle clip-path="url(#clip952)" cx="1482.4" cy="383.858" r="14.4" fill="#e26f46" fill-rule="evenodd" fill-opacity="1" stroke="#000000" stroke-opacity="1" stroke-width="3.2"/>
<circle clip-path="url(#clip952)" cx="1533.09" cy="362.705" r="14.4" fill="#e26f46" fill-rule="evenodd" fill-opacity="1" stroke="#000000" stroke-opacity="1" stroke-width="3.2"/>
<circle clip-path="url(#clip952)" cx="1583.78" cy="325.106" r="14.4" fill="#e26f46" fill-rule="evenodd" fill-opacity="1" stroke="#000000" stroke-opacity="1" stroke-width="3.2"/>
<circle clip-path="url(#clip952)" cx="1634.47" cy="317.161" r="14.4" fill="#e26f46" fill-rule="evenodd" fill-opacity="1" stroke="#000000" stroke-opacity="1" stroke-width="3.2"/>
<circle clip-path="url(#clip952)" cx="1685.16" cy="277.493" r="14.4" fill="#e26f46" fill-rule="evenodd" fill-opacity="1" stroke="#000000" stroke-opacity="1" stroke-width="3.2"/>
<circle clip-path="url(#clip952)" cx="1735.85" cy="310.727" r="14.4" fill="#e26f46" fill-rule="evenodd" fill-opacity="1" stroke="#000000" stroke-opacity="1" stroke-width="3.2"/>
<circle clip-path="url(#clip952)" cx="1786.54" cy="302.256" r="14.4" fill="#e26f46" fill-rule="evenodd" fill-opacity="1" stroke="#000000" stroke-opacity="1" stroke-width="3.2"/>
<circle clip-path="url(#clip952)" cx="1837.23" cy="295.065" r="14.4" fill="#e26f46" fill-rule="evenodd" fill-opacity="1" stroke="#000000" stroke-opacity="1" stroke-width="3.2"/>
<circle clip-path="url(#clip952)" cx="1887.92" cy="271.682" r="14.4" fill="#e26f46" fill-rule="evenodd" fill-opacity="1" stroke="#000000" stroke-opacity="1" stroke-width="3.2"/>
<circle clip-path="url(#clip952)" cx="1938.61" cy="270.94" r="14.4" fill="#e26f46" fill-rule="evenodd" fill-opacity="1" stroke="#000000" stroke-opacity="1" stroke-width="3.2"/>
<circle clip-path="url(#clip952)" cx="1989.3" cy="271.79" r="14.4" fill="#e26f46" fill-rule="evenodd" fill-opacity="1" stroke="#000000" stroke-opacity="1" stroke-width="3.2"/>
<circle clip-path="url(#clip952)" cx="2039.99" cy="257.164" r="14.4" fill="#e26f46" fill-rule="evenodd" fill-opacity="1" stroke="#000000" stroke-opacity="1" stroke-width="3.2"/>
<circle clip-path="url(#clip952)" cx="2090.69" cy="269.996" r="14.4" fill="#e26f46" fill-rule="evenodd" fill-opacity="1" stroke="#000000" stroke-opacity="1" stroke-width="3.2"/>
<circle clip-path="url(#clip952)" cx="2141.38" cy="257.175" r="14.4" fill="#e26f46" fill-rule="evenodd" fill-opacity="1" stroke="#000000" stroke-opacity="1" stroke-width="3.2"/>
<circle clip-path="url(#clip952)" cx="2192.07" cy="248.851" r="14.4" fill="#e26f46" fill-rule="evenodd" fill-opacity="1" stroke="#000000" stroke-opacity="1" stroke-width="3.2"/>
<circle clip-path="url(#clip952)" cx="2242.76" cy="231.693" r="14.4" fill="#e26f46" fill-rule="evenodd" fill-opacity="1" stroke="#000000" stroke-opacity="1" stroke-width="3.2"/>
<circle clip-path="url(#clip952)" cx="2293.45" cy="231.564" r="14.4" fill="#e26f46" fill-rule="evenodd" fill-opacity="1" stroke="#000000" stroke-opacity="1" stroke-width="3.2"/>
<circle clip-path="url(#clip952)" cx="316.512" cy="1383.95" r="14.4" fill="#3da44d" fill-rule="evenodd" fill-opacity="1" stroke="#000000" stroke-opacity="1" stroke-width="3.2"/>
<circle clip-path="url(#clip952)" cx="367.203" cy="1327.48" r="14.4" fill="#3da44d" fill-rule="evenodd" fill-opacity="1" stroke="#000000" stroke-opacity="1" stroke-width="3.2"/>
<circle clip-path="url(#clip952)" cx="417.893" cy="1260.37" r="14.4" fill="#3da44d" fill-rule="evenodd" fill-opacity="1" stroke="#000000" stroke-opacity="1" stroke-width="3.2"/>
<circle clip-path="url(#clip952)" cx="468.584" cy="1221.39" r="14.4" fill="#3da44d" fill-rule="evenodd" fill-opacity="1" stroke="#000000" stroke-opacity="1" stroke-width="3.2"/>
<circle clip-path="url(#clip952)" cx="519.275" cy="1150.56" r="14.4" fill="#3da44d" fill-rule="evenodd" fill-opacity="1" stroke="#000000" stroke-opacity="1" stroke-width="3.2"/>
<circle clip-path="url(#clip952)" cx="569.965" cy="450.892" r="14.4" fill="#3da44d" fill-rule="evenodd" fill-opacity="1" stroke="#000000" stroke-opacity="1" stroke-width="3.2"/>
<circle clip-path="url(#clip952)" cx="620.656" cy="893.676" r="14.4" fill="#3da44d" fill-rule="evenodd" fill-opacity="1" stroke="#000000" stroke-opacity="1" stroke-width="3.2"/>
<circle clip-path="url(#clip952)" cx="671.347" cy="807.193" r="14.4" fill="#3da44d" fill-rule="evenodd" fill-opacity="1" stroke="#000000" stroke-opacity="1" stroke-width="3.2"/>
<circle clip-path="url(#clip952)" cx="722.037" cy="730.416" r="14.4" fill="#3da44d" fill-rule="evenodd" fill-opacity="1" stroke="#000000" stroke-opacity="1" stroke-width="3.2"/>
<circle clip-path="url(#clip952)" cx="772.728" cy="557.009" r="14.4" fill="#3da44d" fill-rule="evenodd" fill-opacity="1" stroke="#000000" stroke-opacity="1" stroke-width="3.2"/>
<circle clip-path="url(#clip952)" cx="823.419" cy="492.027" r="14.4" fill="#3da44d" fill-rule="evenodd" fill-opacity="1" stroke="#000000" stroke-opacity="1" stroke-width="3.2"/>
<circle clip-path="url(#clip952)" cx="874.109" cy="511.535" r="14.4" fill="#3da44d" fill-rule="evenodd" fill-opacity="1" stroke="#000000" stroke-opacity="1" stroke-width="3.2"/>
<circle clip-path="url(#clip952)" cx="924.8" cy="472.614" r="14.4" fill="#3da44d" fill-rule="evenodd" fill-opacity="1" stroke="#000000" stroke-opacity="1" stroke-width="3.2"/>
<circle clip-path="url(#clip952)" cx="975.491" cy="339.46" r="14.4" fill="#3da44d" fill-rule="evenodd" fill-opacity="1" stroke="#000000" stroke-opacity="1" stroke-width="3.2"/>
<circle clip-path="url(#clip952)" cx="1026.18" cy="406.573" r="14.4" fill="#3da44d" fill-rule="evenodd" fill-opacity="1" stroke="#000000" stroke-opacity="1" stroke-width="3.2"/>
<circle clip-path="url(#clip952)" cx="1076.87" cy="378.416" r="14.4" fill="#3da44d" fill-rule="evenodd" fill-opacity="1" stroke="#000000" stroke-opacity="1" stroke-width="3.2"/>
<circle clip-path="url(#clip952)" cx="1127.56" cy="298.205" r="14.4" fill="#3da44d" fill-rule="evenodd" fill-opacity="1" stroke="#000000" stroke-opacity="1" stroke-width="3.2"/>
<circle clip-path="url(#clip952)" cx="1178.25" cy="335.671" r="14.4" fill="#3da44d" fill-rule="evenodd" fill-opacity="1" stroke="#000000" stroke-opacity="1" stroke-width="3.2"/>
<circle clip-path="url(#clip952)" cx="1228.94" cy="325.505" r="14.4" fill="#3da44d" fill-rule="evenodd" fill-opacity="1" stroke="#000000" stroke-opacity="1" stroke-width="3.2"/>
<circle clip-path="url(#clip952)" cx="1279.63" cy="306.413" r="14.4" fill="#3da44d" fill-rule="evenodd" fill-opacity="1" stroke="#000000" stroke-opacity="1" stroke-width="3.2"/>
<circle clip-path="url(#clip952)" cx="1330.33" cy="286.673" r="14.4" fill="#3da44d" fill-rule="evenodd" fill-opacity="1" stroke="#000000" stroke-opacity="1" stroke-width="3.2"/>
<circle clip-path="url(#clip952)" cx="1381.02" cy="278.677" r="14.4" fill="#3da44d" fill-rule="evenodd" fill-opacity="1" stroke="#000000" stroke-opacity="1" stroke-width="3.2"/>
<circle clip-path="url(#clip952)" cx="1431.71" cy="271.953" r="14.4" fill="#3da44d" fill-rule="evenodd" fill-opacity="1" stroke="#000000" stroke-opacity="1" stroke-width="3.2"/>
<circle clip-path="url(#clip952)" cx="1482.4" cy="259.771" r="14.4" fill="#3da44d" fill-rule="evenodd" fill-opacity="1" stroke="#000000" stroke-opacity="1" stroke-width="3.2"/>
<circle clip-path="url(#clip952)" cx="1533.09" cy="246.677" r="14.4" fill="#3da44d" fill-rule="evenodd" fill-opacity="1" stroke="#000000" stroke-opacity="1" stroke-width="3.2"/>
<circle clip-path="url(#clip952)" cx="1583.78" cy="239.992" r="14.4" fill="#3da44d" fill-rule="evenodd" fill-opacity="1" stroke="#000000" stroke-opacity="1" stroke-width="3.2"/>
<circle clip-path="url(#clip952)" cx="1634.47" cy="204.121" r="14.4" fill="#3da44d" fill-rule="evenodd" fill-opacity="1" stroke="#000000" stroke-opacity="1" stroke-width="3.2"/>
<circle clip-path="url(#clip952)" cx="1685.16" cy="229.365" r="14.4" fill="#3da44d" fill-rule="evenodd" fill-opacity="1" stroke="#000000" stroke-opacity="1" stroke-width="3.2"/>
<circle clip-path="url(#clip952)" cx="1735.85" cy="219.717" r="14.4" fill="#3da44d" fill-rule="evenodd" fill-opacity="1" stroke="#000000" stroke-opacity="1" stroke-width="3.2"/>
<circle clip-path="url(#clip952)" cx="1786.54" cy="219.311" r="14.4" fill="#3da44d" fill-rule="evenodd" fill-opacity="1" stroke="#000000" stroke-opacity="1" stroke-width="3.2"/>
<circle clip-path="url(#clip952)" cx="1837.23" cy="208.834" r="14.4" fill="#3da44d" fill-rule="evenodd" fill-opacity="1" stroke="#000000" stroke-opacity="1" stroke-width="3.2"/>
<circle clip-path="url(#clip952)" cx="1887.92" cy="194.652" r="14.4" fill="#3da44d" fill-rule="evenodd" fill-opacity="1" stroke="#000000" stroke-opacity="1" stroke-width="3.2"/>
<circle clip-path="url(#clip952)" cx="1938.61" cy="213.444" r="14.4" fill="#3da44d" fill-rule="evenodd" fill-opacity="1" stroke="#000000" stroke-opacity="1" stroke-width="3.2"/>
<circle clip-path="url(#clip952)" cx="1989.3" cy="191.141" r="14.4" fill="#3da44d" fill-rule="evenodd" fill-opacity="1" stroke="#000000" stroke-opacity="1" stroke-width="3.2"/>
<circle clip-path="url(#clip952)" cx="2039.99" cy="199.085" r="14.4" fill="#3da44d" fill-rule="evenodd" fill-opacity="1" stroke="#000000" stroke-opacity="1" stroke-width="3.2"/>
<circle clip-path="url(#clip952)" cx="2090.69" cy="191.205" r="14.4" fill="#3da44d" fill-rule="evenodd" fill-opacity="1" stroke="#000000" stroke-opacity="1" stroke-width="3.2"/>
<circle clip-path="url(#clip952)" cx="2141.38" cy="160.256" r="14.4" fill="#3da44d" fill-rule="evenodd" fill-opacity="1" stroke="#000000" stroke-opacity="1" stroke-width="3.2"/>
<circle clip-path="url(#clip952)" cx="2192.07" cy="188.861" r="14.4" fill="#3da44d" fill-rule="evenodd" fill-opacity="1" stroke="#000000" stroke-opacity="1" stroke-width="3.2"/>
<circle clip-path="url(#clip952)" cx="2242.76" cy="181.03" r="14.4" fill="#3da44d" fill-rule="evenodd" fill-opacity="1" stroke="#000000" stroke-opacity="1" stroke-width="3.2"/>
<circle clip-path="url(#clip952)" cx="2293.45" cy="170.415" r="14.4" fill="#3da44d" fill-rule="evenodd" fill-opacity="1" stroke="#000000" stroke-opacity="1" stroke-width="3.2"/>
<polyline clip-path="url(#clip952)" style="stroke:#c271d2; stroke-linecap:round; stroke-linejoin:round; stroke-width:4; stroke-opacity:1; fill:none" stroke-dasharray="16, 10" points="1481.89,2722.89 1481.89,-1176.24 "/>
<polyline clip-path="url(#clip952)" style="stroke:#c271d2; stroke-linecap:round; stroke-linejoin:round; stroke-width:4; stroke-opacity:1; fill:none" stroke-dasharray="16, 10" points="898.948,2722.89 898.948,-1176.24 "/>
<polyline clip-path="url(#clip952)" style="stroke:#c271d2; stroke-linecap:round; stroke-linejoin:round; stroke-width:4; stroke-opacity:1; fill:none" stroke-dasharray="16, 10" points="704.634,2722.89 704.634,-1176.24 "/>
<path clip-path="url(#clip950)" d="M1945.69 1379.86 L2282.9 1379.86 L2282.9 1120.66 L1945.69 1120.66  Z" fill="#ffffff" fill-rule="evenodd" fill-opacity="1"/>
<polyline clip-path="url(#clip950)" style="stroke:#000000; stroke-linecap:round; stroke-linejoin:round; stroke-width:4; stroke-opacity:1; fill:none" points="1945.69,1379.86 2282.9,1379.86 2282.9,1120.66 1945.69,1120.66 1945.69,1379.86 "/>
<circle clip-path="url(#clip950)" cx="2038.82" cy="1172.5" r="20.48" fill="#009af9" fill-rule="evenodd" fill-opacity="1" stroke="#000000" stroke-opacity="1" stroke-width="4.55111"/>
<path clip-path="url(#clip950)" d="M2150.87 1167.79 L2150.87 1153.76 L2155.13 1153.76 L2155.13 1189.78 L2150.87 1189.78 L2150.87 1185.89 Q2149.53 1188.2 2147.47 1189.34 Q2145.43 1190.45 2142.56 1190.45 Q2137.86 1190.45 2134.9 1186.7 Q2131.96 1182.95 2131.96 1176.84 Q2131.96 1170.73 2134.9 1166.98 Q2137.86 1163.23 2142.56 1163.23 Q2145.43 1163.23 2147.47 1164.36 Q2149.53 1165.47 2150.87 1167.79 M2136.36 1176.84 Q2136.36 1181.54 2138.28 1184.22 Q2140.22 1186.88 2143.6 1186.88 Q2146.98 1186.88 2148.93 1184.22 Q2150.87 1181.54 2150.87 1176.84 Q2150.87 1172.14 2148.93 1169.48 Q2146.98 1166.79 2143.6 1166.79 Q2140.22 1166.79 2138.28 1169.48 Q2136.36 1172.14 2136.36 1176.84 Z" fill="#000000" fill-rule="nonzero" fill-opacity="1" /><path clip-path="url(#clip950)" d="M2164.46 1168.25 L2194.13 1168.25 L2194.13 1172.14 L2164.46 1172.14 L2164.46 1168.25 M2164.46 1177.69 L2194.13 1177.69 L2194.13 1181.63 L2164.46 1181.63 L2164.46 1177.69 Z" fill="#000000" fill-rule="nonzero" fill-opacity="1" /><path clip-path="url(#clip950)" d="M2205.04 1185.84 L2212.68 1185.84 L2212.68 1159.48 L2204.37 1161.14 L2204.37 1156.88 L2212.63 1155.22 L2217.31 1155.22 L2217.31 1185.84 L2224.94 1185.84 L2224.94 1189.78 L2205.04 1189.78 L2205.04 1185.84 Z" fill="#000000" fill-rule="nonzero" fill-opacity="1" /><circle clip-path="url(#clip950)" cx="2038.82" cy="1224.34" r="20.48" fill="#e26f46" fill-rule="evenodd" fill-opacity="1" stroke="#000000" stroke-opacity="1" stroke-width="4.55111"/>
<path clip-path="url(#clip950)" d="M2150.87 1219.63 L2150.87 1205.6 L2155.13 1205.6 L2155.13 1241.62 L2150.87 1241.62 L2150.87 1237.73 Q2149.53 1240.04 2147.47 1241.18 Q2145.43 1242.29 2142.56 1242.29 Q2137.86 1242.29 2134.9 1238.54 Q2131.96 1234.79 2131.96 1228.68 Q2131.96 1222.57 2134.9 1218.82 Q2137.86 1215.07 2142.56 1215.07 Q2145.43 1215.07 2147.47 1216.2 Q2149.53 1217.31 2150.87 1219.63 M2136.36 1228.68 Q2136.36 1233.38 2138.28 1236.06 Q2140.22 1238.72 2143.6 1238.72 Q2146.98 1238.72 2148.93 1236.06 Q2150.87 1233.38 2150.87 1228.68 Q2150.87 1223.98 2148.93 1221.32 Q2146.98 1218.63 2143.6 1218.63 Q2140.22 1218.63 2138.28 1221.32 Q2136.36 1223.98 2136.36 1228.68 Z" fill="#000000" fill-rule="nonzero" fill-opacity="1" /><path clip-path="url(#clip950)" d="M2164.46 1220.09 L2194.13 1220.09 L2194.13 1223.98 L2164.46 1223.98 L2164.46 1220.09 M2164.46 1229.53 L2194.13 1229.53 L2194.13 1233.47 L2164.46 1233.47 L2164.46 1229.53 Z" fill="#000000" fill-rule="nonzero" fill-opacity="1" /><path clip-path="url(#clip950)" d="M2208.25 1237.68 L2224.57 1237.68 L2224.57 1241.62 L2202.63 1241.62 L2202.63 1237.68 Q2205.29 1234.93 2209.88 1230.3 Q2214.48 1225.64 2215.66 1224.3 Q2217.91 1221.78 2218.79 1220.04 Q2219.69 1218.28 2219.69 1216.59 Q2219.69 1213.84 2217.75 1212.1 Q2215.82 1210.37 2212.72 1210.37 Q2210.52 1210.37 2208.07 1211.13 Q2205.64 1211.89 2202.86 1213.45 L2202.86 1208.72 Q2205.69 1207.59 2208.14 1207.01 Q2210.59 1206.43 2212.63 1206.43 Q2218 1206.43 2221.19 1209.12 Q2224.39 1211.8 2224.39 1216.29 Q2224.39 1218.42 2223.58 1220.34 Q2222.79 1222.24 2220.69 1224.83 Q2220.11 1225.51 2217 1228.72 Q2213.9 1231.92 2208.25 1237.68 Z" fill="#000000" fill-rule="nonzero" fill-opacity="1" /><circle clip-path="url(#clip950)" cx="2038.82" cy="1276.18" r="20.48" fill="#3da44d" fill-rule="evenodd" fill-opacity="1" stroke="#000000" stroke-opacity="1" stroke-width="4.55111"/>
<path clip-path="url(#clip950)" d="M2150.87 1271.47 L2150.87 1257.44 L2155.13 1257.44 L2155.13 1293.46 L2150.87 1293.46 L2150.87 1289.57 Q2149.53 1291.88 2147.47 1293.02 Q2145.43 1294.13 2142.56 1294.13 Q2137.86 1294.13 2134.9 1290.38 Q2131.96 1286.63 2131.96 1280.52 Q2131.96 1274.41 2134.9 1270.66 Q2137.86 1266.91 2142.56 1266.91 Q2145.43 1266.91 2147.47 1268.04 Q2149.53 1269.15 2150.87 1271.47 M2136.36 1280.52 Q2136.36 1285.22 2138.28 1287.9 Q2140.22 1290.56 2143.6 1290.56 Q2146.98 1290.56 2148.93 1287.9 Q2150.87 1285.22 2150.87 1280.52 Q2150.87 1275.82 2148.93 1273.16 Q2146.98 1270.47 2143.6 1270.47 Q2140.22 1270.47 2138.28 1273.16 Q2136.36 1275.82 2136.36 1280.52 Z" fill="#000000" fill-rule="nonzero" fill-opacity="1" /><path clip-path="url(#clip950)" d="M2164.46 1271.93 L2194.13 1271.93 L2194.13 1275.82 L2164.46 1275.82 L2164.46 1271.93 M2164.46 1281.37 L2194.13 1281.37 L2194.13 1285.31 L2164.46 1285.31 L2164.46 1281.37 Z" fill="#000000" fill-rule="nonzero" fill-opacity="1" /><path clip-path="url(#clip950)" d="M2218.39 1274.82 Q2221.75 1275.54 2223.63 1277.81 Q2225.52 1280.08 2225.52 1283.41 Q2225.52 1288.53 2222 1291.33 Q2218.49 1294.13 2212 1294.13 Q2209.83 1294.13 2207.51 1293.69 Q2205.22 1293.27 2202.77 1292.41 L2202.77 1287.9 Q2204.71 1289.03 2207.03 1289.61 Q2209.34 1290.19 2211.87 1290.19 Q2216.26 1290.19 2218.56 1288.46 Q2220.87 1286.72 2220.87 1283.41 Q2220.87 1280.35 2218.72 1278.64 Q2216.59 1276.91 2212.77 1276.91 L2208.74 1276.91 L2208.74 1273.06 L2212.95 1273.06 Q2216.4 1273.06 2218.23 1271.7 Q2220.06 1270.31 2220.06 1267.72 Q2220.06 1265.05 2218.16 1263.64 Q2216.29 1262.21 2212.77 1262.21 Q2210.85 1262.21 2208.65 1262.62 Q2206.45 1263.04 2203.81 1263.92 L2203.81 1259.75 Q2206.47 1259.01 2208.79 1258.64 Q2211.13 1258.27 2213.19 1258.27 Q2218.51 1258.27 2221.61 1260.7 Q2224.71 1263.11 2224.71 1267.23 Q2224.71 1270.1 2223.07 1272.09 Q2221.43 1274.06 2218.39 1274.82 Z" fill="#000000" fill-rule="nonzero" fill-opacity="1" /><polyline clip-path="url(#clip950)" style="stroke:#c271d2; stroke-linecap:round; stroke-linejoin:round; stroke-width:4; stroke-opacity:1; fill:none" stroke-dasharray="16, 10" points="1968.97,1328.02 2108.68,1328.02 "/>
<path clip-path="url(#clip950)" d="M2131.96 1310.74 L2161.19 1310.74 L2161.19 1314.67 L2148.93 1314.67 L2148.93 1345.3 L2144.23 1345.3 L2144.23 1314.67 L2131.96 1314.67 L2131.96 1310.74 Z" fill="#000000" fill-rule="nonzero" fill-opacity="1" /><path clip-path="url(#clip950)" d="M2185.22 1353.17 L2185.22 1356.48 L2160.59 1356.48 L2160.59 1353.17 L2185.22 1353.17 Z" fill="#000000" fill-rule="nonzero" fill-opacity="1" /><path clip-path="url(#clip950)" d="M2215.29 1313.4 L2215.29 1318.33 Q2212.93 1316.13 2210.25 1315.04 Q2207.58 1313.95 2204.57 1313.95 Q2198.65 1313.95 2195.5 1317.59 Q2192.35 1321.2 2192.35 1328.05 Q2192.35 1334.88 2195.5 1338.51 Q2198.65 1342.12 2204.57 1342.12 Q2207.58 1342.12 2210.25 1341.04 Q2212.93 1339.95 2215.29 1337.75 L2215.29 1342.63 Q2212.84 1344.3 2210.08 1345.13 Q2207.35 1345.97 2204.3 1345.97 Q2196.45 1345.97 2191.94 1341.18 Q2187.42 1336.36 2187.42 1328.05 Q2187.42 1319.72 2191.94 1314.93 Q2196.45 1310.11 2204.3 1310.11 Q2207.4 1310.11 2210.13 1310.94 Q2212.88 1311.75 2215.29 1313.4 Z" fill="#000000" fill-rule="nonzero" fill-opacity="1" /><path clip-path="url(#clip950)" d="M2229.9 1310.74 L2233.83 1310.74 L2221.8 1349.69 L2217.86 1349.69 L2229.9 1310.74 Z" fill="#000000" fill-rule="nonzero" fill-opacity="1" /><path clip-path="url(#clip950)" d="M2255.36 1323.31 L2255.36 1309.28 L2259.62 1309.28 L2259.62 1345.3 L2255.36 1345.3 L2255.36 1341.41 Q2254.02 1343.72 2251.96 1344.86 Q2249.92 1345.97 2247.05 1345.97 Q2242.35 1345.97 2239.39 1342.22 Q2236.45 1338.47 2236.45 1332.36 Q2236.45 1326.25 2239.39 1322.5 Q2242.35 1318.75 2247.05 1318.75 Q2249.92 1318.75 2251.96 1319.88 Q2254.02 1320.99 2255.36 1323.31 M2240.85 1332.36 Q2240.85 1337.06 2242.77 1339.74 Q2244.71 1342.4 2248.09 1342.4 Q2251.47 1342.4 2253.42 1339.74 Q2255.36 1337.06 2255.36 1332.36 Q2255.36 1327.66 2253.42 1325 Q2251.47 1322.31 2248.09 1322.31 Q2244.71 1322.31 2242.77 1325 Q2240.85 1327.66 2240.85 1332.36 Z" fill="#000000" fill-rule="nonzero" fill-opacity="1" /></svg>
