<?xml version="1.0" encoding="utf-8"?>
<svg xmlns="http://www.w3.org/2000/svg" xmlns:xlink="http://www.w3.org/1999/xlink" width="600" height="400" viewBox="0 0 2400 1600">
<defs>
  <clipPath id="clip550">
    <rect x="0" y="0" width="2400" height="1600"/>
  </clipPath>
</defs>
<path clip-path="url(#clip550)" d="M0 1600 L2400 1600 L2400 0 L0 0  Z" fill="#ffffff" fill-rule="evenodd" fill-opacity="1"/>
<defs>
  <clipPath id="clip551">
    <rect x="480" y="0" width="1681" height="1600"/>
  </clipPath>
</defs>
<path clip-path="url(#clip550)" d="M249.542 1423.18 L2352.76 1423.18 L2352.76 123.472 L249.542 123.472  Z" fill="#ffffff" fill-rule="evenodd" fill-opacity="1"/>
<defs>
  <clipPath id="clip552">
    <rect x="249" y="123" width="2104" height="1301"/>
  </clipPath>
</defs>
<polyline clip-path="url(#clip552)" style="stroke:#000000; stroke-linecap:round; stroke-linejoin:round; stroke-width:2; stroke-opacity:0.1; fill:none" points="726.786,1423.18 726.786,123.472 "/>
<polyline clip-path="url(#clip552)" style="stroke:#000000; stroke-linecap:round; stroke-linejoin:round; stroke-width:2; stroke-opacity:0.1; fill:none" points="1248.93,1423.18 1248.93,123.472 "/>
<polyline clip-path="url(#clip552)" style="stroke:#000000; stroke-linecap:round; stroke-linejoin:round; stroke-width:2; stroke-opacity:0.1; fill:none" points="1771.08,1423.18 1771.08,123.472 "/>
<polyline clip-path="url(#clip552)" style="stroke:#000000; stroke-linecap:round; stroke-linejoin:round; stroke-width:2; stroke-opacity:0.1; fill:none" points="2293.23,1423.18 2293.23,123.472 "/>
<polyline clip-path="url(#clip552)" style="stroke:#000000; stroke-linecap:round; stroke-linejoin:round; stroke-width:2; stroke-opacity:0.1; fill:none" points="249.542,1408.81 2352.76,1408.81 "/>
<polyline clip-path="url(#clip552)" style="stroke:#000000; stroke-linecap:round; stroke-linejoin:round; stroke-width:2; stroke-opacity:0.1; fill:none" points="249.542,1096.67 2352.76,1096.67 "/>
<polyline clip-path="url(#clip552)" style="stroke:#000000; stroke-linecap:round; stroke-linejoin:round; stroke-width:2; stroke-opacity:0.1; fill:none" points="249.542,784.535 2352.76,784.535 "/>
<polyline clip-path="url(#clip552)" style="stroke:#000000; stroke-linecap:round; stroke-linejoin:round; stroke-width:2; stroke-opacity:0.1; fill:none" points="249.542,472.396 2352.76,472.396 "/>
<polyline clip-path="url(#clip552)" style="stroke:#000000; stroke-linecap:round; stroke-linejoin:round; stroke-width:2; stroke-opacity:0.1; fill:none" points="249.542,160.256 2352.76,160.256 "/>
<polyline clip-path="url(#clip550)" style="stroke:#000000; stroke-linecap:round; stroke-linejoin:round; stroke-width:4; stroke-opacity:1; fill:none" points="249.542,1423.18 2352.76,1423.18 "/>
<polyline clip-path="url(#clip550)" style="stroke:#000000; stroke-linecap:round; stroke-linejoin:round; stroke-width:4; stroke-opacity:1; fill:none" points="726.786,1423.18 726.786,1404.28 "/>
<polyline clip-path="url(#clip550)" style="stroke:#000000; stroke-linecap:round; stroke-linejoin:round; stroke-width:4; stroke-opacity:1; fill:none" points="1248.93,1423.18 1248.93,1404.28 "/>
<polyline clip-path="url(#clip550)" style="stroke:#000000; stroke-linecap:round; stroke-linejoin:round; stroke-width:4; stroke-opacity:1; fill:none" points="1771.08,1423.18 1771.08,1404.28 "/>
<polyline clip-path="url(#clip550)" style="stroke:#000000; stroke-linecap:round; stroke-linejoin:round; stroke-width:4; stroke-opacity:1; fill:none" points="2293.23,1423.18 2293.23,1404.28 "/>
<path clip-path="url(#clip550)" d="M717.064 1451.02 L735.42 1451.02 L735.42 1454.96 L721.346 1454.96 L721.346 1463.43 Q722.364 1463.08 723.383 1462.92 Q724.401 1462.73 725.42 1462.73 Q731.207 1462.73 734.587 1465.9 Q737.966 1469.08 737.966 1474.49 Q737.966 1480.07 734.494 1483.17 Q731.022 1486.25 724.702 1486.25 Q722.526 1486.25 720.258 1485.88 Q718.013 1485.51 715.605 1484.77 L715.605 1480.07 Q717.689 1481.2 719.911 1481.76 Q722.133 1482.32 724.61 1482.32 Q728.614 1482.32 730.952 1480.21 Q733.29 1478.1 733.29 1474.49 Q733.29 1470.88 730.952 1468.77 Q728.614 1466.67 724.61 1466.67 Q722.735 1466.67 720.86 1467.08 Q719.008 1467.5 717.064 1468.38 L717.064 1451.02 Z" fill="#000000" fill-rule="nonzero" fill-opacity="1" /><path clip-path="url(#clip550)" d="M1223.62 1481.64 L1231.26 1481.64 L1231.26 1455.28 L1222.95 1456.95 L1222.95 1452.69 L1231.21 1451.02 L1235.89 1451.02 L1235.89 1481.64 L1243.53 1481.64 L1243.53 1485.58 L1223.62 1485.58 L1223.62 1481.64 Z" fill="#000000" fill-rule="nonzero" fill-opacity="1" /><path clip-path="url(#clip550)" d="M1262.97 1454.1 Q1259.36 1454.1 1257.53 1457.66 Q1255.73 1461.2 1255.73 1468.33 Q1255.73 1475.44 1257.53 1479.01 Q1259.36 1482.55 1262.97 1482.55 Q1266.61 1482.55 1268.41 1479.01 Q1270.24 1475.44 1270.24 1468.33 Q1270.24 1461.2 1268.41 1457.66 Q1266.61 1454.1 1262.97 1454.1 M1262.97 1450.39 Q1268.78 1450.39 1271.84 1455 Q1274.92 1459.58 1274.92 1468.33 Q1274.92 1477.06 1271.84 1481.67 Q1268.78 1486.25 1262.97 1486.25 Q1257.16 1486.25 1254.08 1481.67 Q1251.03 1477.06 1251.03 1468.33 Q1251.03 1459.58 1254.08 1455 Q1257.16 1450.39 1262.97 1450.39 Z" fill="#000000" fill-rule="nonzero" fill-opacity="1" /><path clip-path="url(#clip550)" d="M1746.27 1481.64 L1753.91 1481.64 L1753.91 1455.28 L1745.6 1456.95 L1745.6 1452.69 L1753.86 1451.02 L1758.54 1451.02 L1758.54 1481.64 L1766.18 1481.64 L1766.18 1485.58 L1746.27 1485.58 L1746.27 1481.64 Z" fill="#000000" fill-rule="nonzero" fill-opacity="1" /><path clip-path="url(#clip550)" d="M1775.67 1451.02 L1794.02 1451.02 L1794.02 1454.96 L1779.95 1454.96 L1779.95 1463.43 Q1780.97 1463.08 1781.99 1462.92 Q1783 1462.73 1784.02 1462.73 Q1789.81 1462.73 1793.19 1465.9 Q1796.57 1469.08 1796.57 1474.49 Q1796.57 1480.07 1793.1 1483.17 Q1789.62 1486.25 1783.3 1486.25 Q1781.13 1486.25 1778.86 1485.88 Q1776.61 1485.51 1774.21 1484.77 L1774.21 1480.07 Q1776.29 1481.2 1778.51 1481.76 Q1780.74 1482.32 1783.21 1482.32 Q1787.22 1482.32 1789.55 1480.21 Q1791.89 1478.1 1791.89 1474.49 Q1791.89 1470.88 1789.55 1468.77 Q1787.22 1466.67 1783.21 1466.67 Q1781.34 1466.67 1779.46 1467.08 Q1777.61 1467.5 1775.67 1468.38 L1775.67 1451.02 Z" fill="#000000" fill-rule="nonzero" fill-opacity="1" /><path clip-path="url(#clip550)" d="M2272 1481.64 L2288.32 1481.64 L2288.32 1485.58 L2266.38 1485.58 L2266.38 1481.64 Q2269.04 1478.89 2273.62 1474.26 Q2278.23 1469.61 2279.41 1468.27 Q2281.66 1465.74 2282.54 1464.01 Q2283.44 1462.25 2283.44 1460.56 Q2283.44 1457.8 2281.49 1456.07 Q2279.57 1454.33 2276.47 1454.33 Q2274.27 1454.33 2271.82 1455.09 Q2269.39 1455.86 2266.61 1457.41 L2266.61 1452.69 Q2269.43 1451.55 2271.89 1450.97 Q2274.34 1450.39 2276.38 1450.39 Q2281.75 1450.39 2284.94 1453.08 Q2288.14 1455.77 2288.14 1460.26 Q2288.14 1462.39 2287.33 1464.31 Q2286.54 1466.2 2284.43 1468.8 Q2283.86 1469.47 2280.75 1472.69 Q2277.65 1475.88 2272 1481.64 Z" fill="#000000" fill-rule="nonzero" fill-opacity="1" /><path clip-path="url(#clip550)" d="M2308.14 1454.1 Q2304.53 1454.1 2302.7 1457.66 Q2300.89 1461.2 2300.89 1468.33 Q2300.89 1475.44 2302.7 1479.01 Q2304.53 1482.55 2308.14 1482.55 Q2311.77 1482.55 2313.58 1479.01 Q2315.41 1475.44 2315.41 1468.33 Q2315.41 1461.2 2313.58 1457.66 Q2311.77 1454.1 2308.14 1454.1 M2308.14 1450.39 Q2313.95 1450.39 2317 1455 Q2320.08 1459.58 2320.08 1468.33 Q2320.08 1477.06 2317 1481.67 Q2313.95 1486.25 2308.14 1486.25 Q2302.33 1486.25 2299.25 1481.67 Q2296.19 1477.06 2296.19 1468.33 Q2296.19 1459.58 2299.25 1455 Q2302.33 1450.39 2308.14 1450.39 Z" fill="#000000" fill-rule="nonzero" fill-opacity="1" /><path clip-path="url(#clip550)" d="M1122.15 1525.81 L1122.15 1562.76 L1129.91 1562.76 Q1139.75 1562.76 1144.3 1558.3 Q1148.88 1553.85 1148.88 1544.24 Q1148.88 1534.69 1144.3 1530.26 Q1139.75 1525.81 1129.91 1525.81 L1122.15 1525.81 M1115.72 1520.52 L1128.92 1520.52 Q1142.74 1520.52 1149.2 1526.28 Q1155.66 1532.01 1155.66 1544.24 Q1155.66 1556.52 1149.17 1562.28 Q1142.67 1568.04 1128.92 1568.04 L1115.72 1568.04 L1115.72 1520.52 Z" fill="#000000" fill-rule="nonzero" fill-opacity="1" /><path clip-path="url(#clip550)" d="M1165.65 1532.4 L1171.51 1532.4 L1171.51 1568.04 L1165.65 1568.04 L1165.65 1532.4 M1165.65 1518.52 L1171.51 1518.52 L1171.51 1525.93 L1165.65 1525.93 L1165.65 1518.52 Z" fill="#000000" fill-rule="nonzero" fill-opacity="1" /><path clip-path="url(#clip550)" d="M1211.52 1539.24 Q1213.72 1535.29 1216.77 1533.41 Q1219.83 1531.54 1223.96 1531.54 Q1229.53 1531.54 1232.56 1535.45 Q1235.58 1539.33 1235.58 1546.53 L1235.58 1568.04 L1229.69 1568.04 L1229.69 1546.72 Q1229.69 1541.59 1227.88 1539.11 Q1226.07 1536.63 1222.34 1536.63 Q1217.79 1536.63 1215.15 1539.65 Q1212.51 1542.68 1212.51 1547.9 L1212.51 1568.04 L1206.62 1568.04 L1206.62 1546.72 Q1206.62 1541.56 1204.8 1539.11 Q1202.99 1536.63 1199.2 1536.63 Q1194.71 1536.63 1192.07 1539.68 Q1189.43 1542.71 1189.43 1547.9 L1189.43 1568.04 L1183.54 1568.04 L1183.54 1532.4 L1189.43 1532.4 L1189.43 1537.93 Q1191.44 1534.66 1194.24 1533.1 Q1197.04 1531.54 1200.89 1531.54 Q1204.77 1531.54 1207.48 1533.51 Q1210.21 1535.48 1211.52 1539.24 Z" fill="#000000" fill-rule="nonzero" fill-opacity="1" /><path clip-path="url(#clip550)" d="M1277.75 1548.76 L1277.75 1551.62 L1250.83 1551.62 Q1251.21 1557.67 1254.46 1560.85 Q1257.73 1564 1263.56 1564 Q1266.93 1564 1270.08 1563.17 Q1273.27 1562.35 1276.39 1560.69 L1276.39 1566.23 Q1273.24 1567.57 1269.93 1568.27 Q1266.62 1568.97 1263.21 1568.97 Q1254.68 1568.97 1249.68 1564 Q1244.72 1559.04 1244.72 1550.57 Q1244.72 1541.82 1249.43 1536.69 Q1254.17 1531.54 1262.19 1531.54 Q1269.38 1531.54 1273.55 1536.18 Q1277.75 1540.8 1277.75 1548.76 M1271.9 1547.04 Q1271.83 1542.23 1269.19 1539.37 Q1266.58 1536.5 1262.25 1536.5 Q1257.35 1536.5 1254.39 1539.27 Q1251.46 1542.04 1251.02 1547.07 L1271.9 1547.04 Z" fill="#000000" fill-rule="nonzero" fill-opacity="1" /><path clip-path="url(#clip550)" d="M1317 1546.53 L1317 1568.04 L1311.14 1568.04 L1311.14 1546.72 Q1311.14 1541.66 1309.17 1539.14 Q1307.2 1536.63 1303.25 1536.63 Q1298.51 1536.63 1295.77 1539.65 Q1293.03 1542.68 1293.03 1547.9 L1293.03 1568.04 L1287.14 1568.04 L1287.14 1532.4 L1293.03 1532.4 L1293.03 1537.93 Q1295.13 1534.72 1297.97 1533.13 Q1300.83 1531.54 1304.55 1531.54 Q1310.7 1531.54 1313.85 1535.36 Q1317 1539.14 1317 1546.53 Z" fill="#000000" fill-rule="nonzero" fill-opacity="1" /><path clip-path="url(#clip550)" d="M1351.41 1533.45 L1351.41 1538.98 Q1348.92 1537.71 1346.25 1537.07 Q1343.58 1536.44 1340.71 1536.44 Q1336.35 1536.44 1334.16 1537.77 Q1331.99 1539.11 1331.99 1541.79 Q1331.99 1543.82 1333.55 1545 Q1335.11 1546.15 1339.82 1547.2 L1341.83 1547.64 Q1348.06 1548.98 1350.67 1551.43 Q1353.32 1553.85 1353.32 1558.21 Q1353.32 1563.17 1349.37 1566.07 Q1345.45 1568.97 1338.58 1568.97 Q1335.71 1568.97 1332.6 1568.39 Q1329.51 1567.85 1326.07 1566.74 L1326.07 1560.69 Q1329.32 1562.38 1332.47 1563.24 Q1335.62 1564.07 1338.71 1564.07 Q1342.84 1564.07 1345.07 1562.66 Q1347.3 1561.23 1347.3 1558.65 Q1347.3 1556.27 1345.68 1554.99 Q1344.09 1553.72 1338.64 1552.54 L1336.61 1552.07 Q1331.16 1550.92 1328.74 1548.56 Q1326.33 1546.18 1326.33 1542.04 Q1326.33 1537.01 1329.89 1534.27 Q1333.45 1531.54 1340.01 1531.54 Q1343.26 1531.54 1346.12 1532.01 Q1348.99 1532.49 1351.41 1533.45 Z" fill="#000000" fill-rule="nonzero" fill-opacity="1" /><path clip-path="url(#clip550)" d="M1362.64 1532.4 L1368.5 1532.4 L1368.5 1568.04 L1362.64 1568.04 L1362.64 1532.4 M1362.64 1518.52 L1368.5 1518.52 L1368.5 1525.93 L1362.64 1525.93 L1362.64 1518.52 Z" fill="#000000" fill-rule="nonzero" fill-opacity="1" /><path clip-path="url(#clip550)" d="M1394.57 1536.5 Q1389.86 1536.5 1387.12 1540.19 Q1384.38 1543.85 1384.38 1550.25 Q1384.38 1556.65 1387.09 1560.34 Q1389.82 1564 1394.57 1564 Q1399.24 1564 1401.98 1560.31 Q1404.72 1556.62 1404.72 1550.25 Q1404.72 1543.92 1401.98 1540.23 Q1399.24 1536.5 1394.57 1536.5 M1394.57 1531.54 Q1402.2 1531.54 1406.57 1536.5 Q1410.93 1541.47 1410.93 1550.25 Q1410.93 1559 1406.57 1564 Q1402.2 1568.97 1394.57 1568.97 Q1386.9 1568.97 1382.53 1564 Q1378.21 1559 1378.21 1550.25 Q1378.21 1541.47 1382.53 1536.5 Q1386.9 1531.54 1394.57 1531.54 Z" fill="#000000" fill-rule="nonzero" fill-opacity="1" /><path clip-path="url(#clip550)" d="M1450.27 1546.53 L1450.27 1568.04 L1444.41 1568.04 L1444.41 1546.72 Q1444.41 1541.66 1442.44 1539.14 Q1440.46 1536.63 1436.52 1536.63 Q1431.77 1536.63 1429.04 1539.65 Q1426.3 1542.68 1426.3 1547.9 L1426.3 1568.04 L1420.41 1568.04 L1420.41 1532.4 L1426.3 1532.4 L1426.3 1537.93 Q1428.4 1534.72 1431.23 1533.13 Q1434.1 1531.54 1437.82 1531.54 Q1443.96 1531.54 1447.11 1535.36 Q1450.27 1539.14 1450.27 1546.53 Z" fill="#000000" fill-rule="nonzero" fill-opacity="1" /><path clip-path="url(#clip550)" d="M1484.67 1533.45 L1484.67 1538.98 Q1482.19 1537.71 1479.52 1537.07 Q1476.84 1536.44 1473.98 1536.44 Q1469.62 1536.44 1467.42 1537.77 Q1465.26 1539.11 1465.26 1541.79 Q1465.26 1543.82 1466.82 1545 Q1468.38 1546.15 1473.09 1547.2 L1475.09 1547.64 Q1481.33 1548.98 1483.94 1551.43 Q1486.58 1553.85 1486.58 1558.21 Q1486.58 1563.17 1482.64 1566.07 Q1478.72 1568.97 1471.85 1568.97 Q1468.98 1568.97 1465.86 1568.39 Q1462.77 1567.85 1459.34 1566.74 L1459.34 1560.69 Q1462.58 1562.38 1465.73 1563.24 Q1468.89 1564.07 1471.97 1564.07 Q1476.11 1564.07 1478.34 1562.66 Q1480.57 1561.23 1480.57 1558.65 Q1480.57 1556.27 1478.94 1554.99 Q1477.35 1553.72 1471.91 1552.54 L1469.87 1552.07 Q1464.43 1550.92 1462.01 1548.56 Q1459.59 1546.18 1459.59 1542.04 Q1459.59 1537.01 1463.16 1534.27 Q1466.72 1531.54 1473.28 1531.54 Q1476.52 1531.54 1479.39 1532.01 Q1482.25 1532.49 1484.67 1533.45 Z" fill="#000000" fill-rule="nonzero" fill-opacity="1" /><polyline clip-path="url(#clip550)" style="stroke:#000000; stroke-linecap:round; stroke-linejoin:round; stroke-width:4; stroke-opacity:1; fill:none" points="249.542,1423.18 249.542,123.472 "/>
<polyline clip-path="url(#clip550)" style="stroke:#000000; stroke-linecap:round; stroke-linejoin:round; stroke-width:4; stroke-opacity:1; fill:none" points="249.542,1408.81 268.44,1408.81 "/>
<polyline clip-path="url(#clip550)" style="stroke:#000000; stroke-linecap:round; stroke-linejoin:round; stroke-width:4; stroke-opacity:1; fill:none" points="249.542,1096.67 268.44,1096.67 "/>
<polyline clip-path="url(#clip550)" style="stroke:#000000; stroke-linecap:round; stroke-linejoin:round; stroke-width:4; stroke-opacity:1; fill:none" points="249.542,784.535 268.44,784.535 "/>
<polyline clip-path="url(#clip550)" style="stroke:#000000; stroke-linecap:round; stroke-linejoin:round; stroke-width:4; stroke-opacity:1; fill:none" points="249.542,472.396 268.44,472.396 "/>
<polyline clip-path="url(#clip550)" style="stroke:#000000; stroke-linecap:round; stroke-linejoin:round; stroke-width:4; stroke-opacity:1; fill:none" points="249.542,160.256 268.44,160.256 "/>
<path clip-path="url(#clip550)" d="M126.205 1394.61 Q122.593 1394.61 120.765 1398.18 Q118.959 1401.72 118.959 1408.85 Q118.959 1415.95 120.765 1419.52 Q122.593 1423.06 126.205 1423.06 Q129.839 1423.06 131.644 1419.52 Q133.473 1415.95 133.473 1408.85 Q133.473 1401.72 131.644 1398.18 Q129.839 1394.61 126.205 1394.61 M126.205 1390.91 Q132.015 1390.91 135.07 1395.52 Q138.149 1400.1 138.149 1408.85 Q138.149 1417.58 135.07 1422.18 Q132.015 1426.77 126.205 1426.77 Q120.394 1426.77 117.316 1422.18 Q114.26 1417.58 114.26 1408.85 Q114.26 1400.1 117.316 1395.52 Q120.394 1390.91 126.205 1390.91 Z" fill="#000000" fill-rule="nonzero" fill-opacity="1" /><path clip-path="url(#clip550)" d="M146.366 1420.21 L151.251 1420.21 L151.251 1426.09 L146.366 1426.09 L146.366 1420.21 Z" fill="#000000" fill-rule="nonzero" fill-opacity="1" /><path clip-path="url(#clip550)" d="M171.436 1394.61 Q167.825 1394.61 165.996 1398.18 Q164.19 1401.72 164.19 1408.85 Q164.19 1415.95 165.996 1419.52 Q167.825 1423.06 171.436 1423.06 Q175.07 1423.06 176.876 1419.52 Q178.704 1415.95 178.704 1408.85 Q178.704 1401.72 176.876 1398.18 Q175.07 1394.61 171.436 1394.61 M171.436 1390.91 Q177.246 1390.91 180.301 1395.52 Q183.38 1400.1 183.38 1408.85 Q183.38 1417.58 180.301 1422.18 Q177.246 1426.77 171.436 1426.77 Q165.626 1426.77 162.547 1422.18 Q159.491 1417.58 159.491 1408.85 Q159.491 1400.1 162.547 1395.52 Q165.626 1390.91 171.436 1390.91 Z" fill="#000000" fill-rule="nonzero" fill-opacity="1" /><path clip-path="url(#clip550)" d="M201.598 1394.61 Q197.987 1394.61 196.158 1398.18 Q194.352 1401.72 194.352 1408.85 Q194.352 1415.95 196.158 1419.52 Q197.987 1423.06 201.598 1423.06 Q205.232 1423.06 207.037 1419.52 Q208.866 1415.95 208.866 1408.85 Q208.866 1401.72 207.037 1398.18 Q205.232 1394.61 201.598 1394.61 M201.598 1390.91 Q207.408 1390.91 210.463 1395.52 Q213.542 1400.1 213.542 1408.85 Q213.542 1417.58 210.463 1422.18 Q207.408 1426.77 201.598 1426.77 Q195.787 1426.77 192.709 1422.18 Q189.653 1417.58 189.653 1408.85 Q189.653 1400.1 192.709 1395.52 Q195.787 1390.91 201.598 1390.91 Z" fill="#000000" fill-rule="nonzero" fill-opacity="1" /><path clip-path="url(#clip550)" d="M127.2 1082.47 Q123.589 1082.47 121.76 1086.04 Q119.955 1089.58 119.955 1096.71 Q119.955 1103.82 121.76 1107.38 Q123.589 1110.92 127.2 1110.92 Q130.834 1110.92 132.64 1107.38 Q134.468 1103.82 134.468 1096.71 Q134.468 1089.58 132.64 1086.04 Q130.834 1082.47 127.2 1082.47 M127.2 1078.77 Q133.01 1078.77 136.066 1083.38 Q139.144 1087.96 139.144 1096.71 Q139.144 1105.44 136.066 1110.04 Q133.01 1114.63 127.2 1114.63 Q121.39 1114.63 118.311 1110.04 Q115.256 1105.44 115.256 1096.71 Q115.256 1087.96 118.311 1083.38 Q121.39 1078.77 127.2 1078.77 Z" fill="#000000" fill-rule="nonzero" fill-opacity="1" /><path clip-path="url(#clip550)" d="M147.362 1108.07 L152.246 1108.07 L152.246 1113.95 L147.362 1113.95 L147.362 1108.07 Z" fill="#000000" fill-rule="nonzero" fill-opacity="1" /><path clip-path="url(#clip550)" d="M166.459 1110.02 L182.778 1110.02 L182.778 1113.95 L160.834 1113.95 L160.834 1110.02 Q163.496 1107.26 168.079 1102.64 Q172.686 1097.98 173.866 1096.64 Q176.112 1094.12 176.991 1092.38 Q177.894 1090.62 177.894 1088.93 Q177.894 1086.18 175.95 1084.44 Q174.028 1082.7 170.927 1082.7 Q168.727 1082.7 166.274 1083.47 Q163.843 1084.23 161.065 1085.78 L161.065 1081.06 Q163.89 1079.93 166.343 1079.35 Q168.797 1078.77 170.834 1078.77 Q176.204 1078.77 179.399 1081.45 Q182.593 1084.14 182.593 1088.63 Q182.593 1090.76 181.783 1092.68 Q180.996 1094.58 178.889 1097.17 Q178.311 1097.84 175.209 1101.06 Q172.107 1104.26 166.459 1110.02 Z" fill="#000000" fill-rule="nonzero" fill-opacity="1" /><path clip-path="url(#clip550)" d="M192.639 1079.39 L210.996 1079.39 L210.996 1083.33 L196.922 1083.33 L196.922 1091.8 Q197.94 1091.45 198.959 1091.29 Q199.977 1091.11 200.996 1091.11 Q206.783 1091.11 210.162 1094.28 Q213.542 1097.45 213.542 1102.87 Q213.542 1108.45 210.07 1111.55 Q206.598 1114.63 200.278 1114.63 Q198.102 1114.63 195.834 1114.26 Q193.588 1113.88 191.181 1113.14 L191.181 1108.45 Q193.264 1109.58 195.487 1110.13 Q197.709 1110.69 200.186 1110.69 Q204.19 1110.69 206.528 1108.58 Q208.866 1106.48 208.866 1102.87 Q208.866 1099.26 206.528 1097.15 Q204.19 1095.04 200.186 1095.04 Q198.311 1095.04 196.436 1095.46 Q194.584 1095.88 192.639 1096.76 L192.639 1079.39 Z" fill="#000000" fill-rule="nonzero" fill-opacity="1" /><path clip-path="url(#clip550)" d="M126.205 770.334 Q122.593 770.334 120.765 773.899 Q118.959 777.44 118.959 784.57 Q118.959 791.676 120.765 795.241 Q122.593 798.783 126.205 798.783 Q129.839 798.783 131.644 795.241 Q133.473 791.676 133.473 784.57 Q133.473 777.44 131.644 773.899 Q129.839 770.334 126.205 770.334 M126.205 766.63 Q132.015 766.63 135.07 771.236 Q138.149 775.82 138.149 784.57 Q138.149 793.297 135.07 797.903 Q132.015 802.486 126.205 802.486 Q120.394 802.486 117.316 797.903 Q114.26 793.297 114.26 784.57 Q114.26 775.82 117.316 771.236 Q120.394 766.63 126.205 766.63 Z" fill="#000000" fill-rule="nonzero" fill-opacity="1" /><path clip-path="url(#clip550)" d="M146.366 795.935 L151.251 795.935 L151.251 801.815 L146.366 801.815 L146.366 795.935 Z" fill="#000000" fill-rule="nonzero" fill-opacity="1" /><path clip-path="url(#clip550)" d="M161.482 767.255 L179.839 767.255 L179.839 771.19 L165.765 771.19 L165.765 779.662 Q166.783 779.315 167.802 779.153 Q168.82 778.968 169.839 778.968 Q175.626 778.968 179.005 782.139 Q182.385 785.31 182.385 790.727 Q182.385 796.306 178.913 799.408 Q175.44 802.486 169.121 802.486 Q166.945 802.486 164.677 802.116 Q162.431 801.746 160.024 801.005 L160.024 796.306 Q162.107 797.44 164.329 797.996 Q166.552 798.551 169.028 798.551 Q173.033 798.551 175.371 796.445 Q177.709 794.338 177.709 790.727 Q177.709 787.116 175.371 785.01 Q173.033 782.903 169.028 782.903 Q167.153 782.903 165.278 783.32 Q163.427 783.736 161.482 784.616 L161.482 767.255 Z" fill="#000000" fill-rule="nonzero" fill-opacity="1" /><path clip-path="url(#clip550)" d="M201.598 770.334 Q197.987 770.334 196.158 773.899 Q194.352 777.44 194.352 784.57 Q194.352 791.676 196.158 795.241 Q197.987 798.783 201.598 798.783 Q205.232 798.783 207.037 795.241 Q208.866 791.676 208.866 784.57 Q208.866 777.44 207.037 773.899 Q205.232 770.334 201.598 770.334 M201.598 766.63 Q207.408 766.63 210.463 771.236 Q213.542 775.82 213.542 784.57 Q213.542 793.297 210.463 797.903 Q207.408 802.486 201.598 802.486 Q195.787 802.486 192.709 797.903 Q189.653 793.297 189.653 784.57 Q189.653 775.82 192.709 771.236 Q195.787 766.63 201.598 766.63 Z" fill="#000000" fill-rule="nonzero" fill-opacity="1" /><path clip-path="url(#clip550)" d="M127.2 458.194 Q123.589 458.194 121.76 461.759 Q119.955 465.301 119.955 472.43 Q119.955 479.537 121.76 483.102 Q123.589 486.643 127.2 486.643 Q130.834 486.643 132.64 483.102 Q134.468 479.537 134.468 472.43 Q134.468 465.301 132.64 461.759 Q130.834 458.194 127.2 458.194 M127.2 454.491 Q133.01 454.491 136.066 459.097 Q139.144 463.68 139.144 472.43 Q139.144 481.157 136.066 485.764 Q133.01 490.347 127.2 490.347 Q121.39 490.347 118.311 485.764 Q115.256 481.157 115.256 472.43 Q115.256 463.68 118.311 459.097 Q121.39 454.491 127.2 454.491 Z" fill="#000000" fill-rule="nonzero" fill-opacity="1" /><path clip-path="url(#clip550)" d="M147.362 483.796 L152.246 483.796 L152.246 489.676 L147.362 489.676 L147.362 483.796 Z" fill="#000000" fill-rule="nonzero" fill-opacity="1" /><path clip-path="url(#clip550)" d="M161.251 455.116 L183.473 455.116 L183.473 457.106 L170.927 489.676 L166.042 489.676 L177.848 459.051 L161.251 459.051 L161.251 455.116 Z" fill="#000000" fill-rule="nonzero" fill-opacity="1" /><path clip-path="url(#clip550)" d="M192.639 455.116 L210.996 455.116 L210.996 459.051 L196.922 459.051 L196.922 467.523 Q197.94 467.176 198.959 467.014 Q199.977 466.829 200.996 466.829 Q206.783 466.829 210.162 470 Q213.542 473.171 213.542 478.588 Q213.542 484.166 210.07 487.268 Q206.598 490.347 200.278 490.347 Q198.102 490.347 195.834 489.977 Q193.588 489.606 191.181 488.865 L191.181 484.166 Q193.264 485.301 195.487 485.856 Q197.709 486.412 200.186 486.412 Q204.19 486.412 206.528 484.305 Q208.866 482.199 208.866 478.588 Q208.866 474.977 206.528 472.87 Q204.19 470.764 200.186 470.764 Q198.311 470.764 196.436 471.18 Q194.584 471.597 192.639 472.477 L192.639 455.116 Z" fill="#000000" fill-rule="nonzero" fill-opacity="1" /><path clip-path="url(#clip550)" d="M117.015 173.601 L124.654 173.601 L124.654 147.236 L116.343 148.902 L116.343 144.643 L124.607 142.976 L129.283 142.976 L129.283 173.601 L136.922 173.601 L136.922 177.536 L117.015 177.536 L117.015 173.601 Z" fill="#000000" fill-rule="nonzero" fill-opacity="1" /><path clip-path="url(#clip550)" d="M146.366 171.657 L151.251 171.657 L151.251 177.536 L146.366 177.536 L146.366 171.657 Z" fill="#000000" fill-rule="nonzero" fill-opacity="1" /><path clip-path="url(#clip550)" d="M171.436 146.055 Q167.825 146.055 165.996 149.62 Q164.19 153.161 164.19 160.291 Q164.19 167.397 165.996 170.962 Q167.825 174.504 171.436 174.504 Q175.07 174.504 176.876 170.962 Q178.704 167.397 178.704 160.291 Q178.704 153.161 176.876 149.62 Q175.07 146.055 171.436 146.055 M171.436 142.351 Q177.246 142.351 180.301 146.958 Q183.38 151.541 183.38 160.291 Q183.38 169.018 180.301 173.624 Q177.246 178.208 171.436 178.208 Q165.626 178.208 162.547 173.624 Q159.491 169.018 159.491 160.291 Q159.491 151.541 162.547 146.958 Q165.626 142.351 171.436 142.351 Z" fill="#000000" fill-rule="nonzero" fill-opacity="1" /><path clip-path="url(#clip550)" d="M201.598 146.055 Q197.987 146.055 196.158 149.62 Q194.352 153.161 194.352 160.291 Q194.352 167.397 196.158 170.962 Q197.987 174.504 201.598 174.504 Q205.232 174.504 207.037 170.962 Q208.866 167.397 208.866 160.291 Q208.866 153.161 207.037 149.62 Q205.232 146.055 201.598 146.055 M201.598 142.351 Q207.408 142.351 210.463 146.958 Q213.542 151.541 213.542 160.291 Q213.542 169.018 210.463 173.624 Q207.408 178.208 201.598 178.208 Q195.787 178.208 192.709 173.624 Q189.653 169.018 189.653 160.291 Q189.653 151.541 192.709 146.958 Q195.787 142.351 201.598 142.351 Z" fill="#000000" fill-rule="nonzero" fill-opacity="1" /><path clip-path="url(#clip550)" d="M16.4842 885.904 L16.4842 876.323 L48.8219 864.196 L16.4842 852.006 L16.4842 842.426 L64.0042 842.426 L64.0042 848.696 L22.277 848.696 L54.8694 860.95 L54.8694 867.411 L22.277 879.665 L64.0042 879.665 L64.0042 885.904 L16.4842 885.904 Z" fill="#000000" fill-rule="nonzero" fill-opacity="1" /><path clip-path="url(#clip550)" d="M14.5426 815.849 Q21.8632 820.114 29.0246 822.183 Q36.186 824.252 43.5384 824.252 Q50.8908 824.252 58.1159 822.183 Q65.3091 820.082 72.5979 815.849 L72.5979 820.941 Q65.1182 825.716 57.8931 828.103 Q50.668 830.458 43.5384 830.458 Q36.4406 830.458 29.2474 828.103 Q22.0542 825.748 14.5426 820.941 L14.5426 815.849 Z" fill="#000000" fill-rule="nonzero" fill-opacity="1" /><path clip-path="url(#clip550)" d="M22.818 788.349 L46.4666 797.07 L46.4666 779.596 L22.818 788.349 M16.4842 791.978 L16.4842 784.689 L64.0042 766.578 L64.0042 773.262 L51.8138 777.591 L51.8138 799.012 L64.0042 803.34 L64.0042 810.12 L16.4842 791.978 Z" fill="#000000" fill-rule="nonzero" fill-opacity="1" /><path clip-path="url(#clip550)" d="M16.4842 749.486 L16.4842 744.076 L70.0516 760.626 L70.0516 766.037 L16.4842 749.486 Z" fill="#000000" fill-rule="nonzero" fill-opacity="1" /><path clip-path="url(#clip550)" d="M35.1993 710.178 Q31.2526 707.982 29.3747 704.926 Q27.4968 701.871 27.4968 697.733 Q27.4968 692.163 31.4117 689.14 Q35.2948 686.116 42.4881 686.116 L64.0042 686.116 L64.0042 692.004 L42.679 692.004 Q37.5546 692.004 35.072 693.818 Q32.5894 695.633 32.5894 699.356 Q32.5894 703.908 35.6131 706.55 Q38.6368 709.191 43.8567 709.191 L64.0042 709.191 L64.0042 715.08 L42.679 715.08 Q37.5228 715.08 35.072 716.894 Q32.5894 718.708 32.5894 722.496 Q32.5894 726.984 35.6449 729.625 Q38.6686 732.267 43.8567 732.267 L64.0042 732.267 L64.0042 738.155 L28.3562 738.155 L28.3562 732.267 L33.8944 732.267 Q30.616 730.262 29.0564 727.461 Q27.4968 724.66 27.4968 720.809 Q27.4968 716.926 29.4702 714.22 Q31.4436 711.483 35.1993 710.178 Z" fill="#000000" fill-rule="nonzero" fill-opacity="1" /><path clip-path="url(#clip550)" d="M14.5426 675.358 L14.5426 670.265 Q22.0542 665.491 29.2474 663.136 Q36.4406 660.748 43.5384 660.748 Q50.668 660.748 57.8931 663.136 Q65.1182 665.491 72.5979 670.265 L72.5979 675.358 Q65.3091 671.125 58.1159 669.056 Q50.8908 666.955 43.5384 666.955 Q36.186 666.955 29.0246 669.056 Q21.8632 671.125 14.5426 675.358 Z" fill="#000000" fill-rule="nonzero" fill-opacity="1" /><path clip-path="url(#clip550)" d="M619.078 12.096 L631.271 12.096 L646.705 53.2532 L662.22 12.096 L674.413 12.096 L674.413 72.576 L666.433 72.576 L666.433 19.4686 L650.837 60.9499 L642.614 60.9499 L627.018 19.4686 L627.018 72.576 L619.078 72.576 L619.078 12.096 Z" fill="#000000" fill-rule="nonzero" fill-opacity="1" /><path clip-path="url(#clip550)" d="M710.952 49.7694 Q701.919 49.7694 698.435 51.8354 Q694.951 53.9013 694.951 58.8839 Q694.951 62.8538 697.544 65.2034 Q700.177 67.5124 704.674 67.5124 Q710.871 67.5124 714.598 63.1374 Q718.366 58.7219 718.366 51.4303 L718.366 49.7694 L710.952 49.7694 M725.819 46.6907 L725.819 72.576 L718.366 72.576 L718.366 65.6895 Q715.814 69.8214 712.006 71.8063 Q708.198 73.7508 702.689 73.7508 Q695.721 73.7508 691.589 69.8619 Q687.498 65.9325 687.498 59.3701 Q687.498 51.7138 692.602 47.825 Q697.747 43.9361 707.914 43.9361 L718.366 43.9361 L718.366 43.2069 Q718.366 38.0623 714.963 35.2672 Q711.601 32.4315 705.484 32.4315 Q701.595 32.4315 697.909 33.3632 Q694.222 34.295 690.819 36.1584 L690.819 29.2718 Q694.911 27.692 698.759 26.9223 Q702.608 26.1121 706.253 26.1121 Q716.097 26.1121 720.958 31.2163 Q725.819 36.3204 725.819 46.6907 Z" fill="#000000" fill-rule="nonzero" fill-opacity="1" /><path clip-path="url(#clip550)" d="M771.027 49.3643 Q771.027 41.2625 767.665 36.8065 Q764.343 32.3505 758.308 32.3505 Q752.312 32.3505 748.95 36.8065 Q745.628 41.2625 745.628 49.3643 Q745.628 57.4256 748.95 61.8816 Q752.312 66.3376 758.308 66.3376 Q764.343 66.3376 767.665 61.8816 Q771.027 57.4256 771.027 49.3643 M778.481 66.9452 Q778.481 78.5308 773.336 84.1616 Q768.192 89.8329 757.578 89.8329 Q753.649 89.8329 750.165 89.2252 Q746.681 88.6581 743.4 87.4428 L743.4 80.1917 Q746.681 81.9741 749.882 82.8248 Q753.082 83.6755 756.404 83.6755 Q763.736 83.6755 767.382 79.8271 Q771.027 76.0193 771.027 68.282 L771.027 64.5957 Q768.718 68.6061 765.113 70.5911 Q761.508 72.576 756.485 72.576 Q748.14 72.576 743.036 66.2161 Q737.932 59.8562 737.932 49.3643 Q737.932 38.832 743.036 32.472 Q748.14 26.1121 756.485 26.1121 Q761.508 26.1121 765.113 28.0971 Q768.718 30.082 771.027 34.0924 L771.027 27.2059 L778.481 27.2059 L778.481 66.9452 Z" fill="#000000" fill-rule="nonzero" fill-opacity="1" /><path clip-path="url(#clip550)" d="M831.548 45.1919 L831.548 72.576 L824.094 72.576 L824.094 45.4349 Q824.094 38.994 821.583 35.7938 Q819.071 32.5936 814.048 32.5936 Q808.012 32.5936 804.528 36.4419 Q801.045 40.2903 801.045 46.9338 L801.045 72.576 L793.55 72.576 L793.55 27.2059 L801.045 27.2059 L801.045 34.2544 Q803.718 30.163 807.323 28.1376 Q810.969 26.1121 815.709 26.1121 Q823.527 26.1121 827.538 30.9732 Q831.548 35.7938 831.548 45.1919 Z" fill="#000000" fill-rule="nonzero" fill-opacity="1" /><path clip-path="url(#clip550)" d="M885.222 48.0275 L885.222 51.6733 L850.952 51.6733 Q851.438 59.3701 855.57 63.421 Q859.742 67.4314 867.155 67.4314 Q871.449 67.4314 875.46 66.3781 Q879.511 65.3249 883.48 63.2184 L883.48 70.267 Q879.47 71.9684 875.257 72.8596 Q871.044 73.7508 866.71 73.7508 Q855.853 73.7508 849.493 67.4314 Q843.174 61.1119 843.174 50.3365 Q843.174 39.1965 849.169 32.6746 Q855.205 26.1121 865.413 26.1121 Q874.569 26.1121 879.875 32.0264 Q885.222 37.9003 885.222 48.0275 M877.769 45.84 Q877.688 39.7232 874.325 36.0774 Q871.004 32.4315 865.494 32.4315 Q859.256 32.4315 855.489 35.9558 Q851.762 39.4801 851.195 45.8805 L877.769 45.84 Z" fill="#000000" fill-rule="nonzero" fill-opacity="1" /><path clip-path="url(#clip550)" d="M904.829 14.324 L904.829 27.2059 L920.182 27.2059 L920.182 32.9987 L904.829 32.9987 L904.829 57.6282 Q904.829 63.1779 906.328 64.7578 Q907.867 66.3376 912.525 66.3376 L920.182 66.3376 L920.182 72.576 L912.525 72.576 Q903.897 72.576 900.616 69.3758 Q897.335 66.1351 897.335 57.6282 L897.335 32.9987 L891.866 32.9987 L891.866 27.2059 L897.335 27.2059 L897.335 14.324 L904.829 14.324 Z" fill="#000000" fill-rule="nonzero" fill-opacity="1" /><path clip-path="url(#clip550)" d="M929.985 27.2059 L937.439 27.2059 L937.439 72.576 L929.985 72.576 L929.985 27.2059 M929.985 9.54393 L937.439 9.54393 L937.439 18.9825 L929.985 18.9825 L929.985 9.54393 Z" fill="#000000" fill-rule="nonzero" fill-opacity="1" /><path clip-path="url(#clip550)" d="M949.794 27.2059 L985.199 27.2059 L985.199 34.0114 L957.166 66.6212 L985.199 66.6212 L985.199 72.576 L948.781 72.576 L948.781 65.7705 L976.813 33.1607 L949.794 33.1607 L949.794 27.2059 Z" fill="#000000" fill-rule="nonzero" fill-opacity="1" /><path clip-path="url(#clip550)" d="M1017.2 49.7694 Q1008.17 49.7694 1004.68 51.8354 Q1001.2 53.9013 1001.2 58.8839 Q1001.2 62.8538 1003.79 65.2034 Q1006.43 67.5124 1010.92 67.5124 Q1017.12 67.5124 1020.85 63.1374 Q1024.61 58.7219 1024.61 51.4303 L1024.61 49.7694 L1017.2 49.7694 M1032.07 46.6907 L1032.07 72.576 L1024.61 72.576 L1024.61 65.6895 Q1022.06 69.8214 1018.25 71.8063 Q1014.45 73.7508 1008.94 73.7508 Q1001.97 73.7508 997.838 69.8619 Q993.746 65.9325 993.746 59.3701 Q993.746 51.7138 998.85 47.825 Q1003.99 43.9361 1014.16 43.9361 L1024.61 43.9361 L1024.61 43.2069 Q1024.61 38.0623 1021.21 35.2672 Q1017.85 32.4315 1011.73 32.4315 Q1007.84 32.4315 1004.16 33.3632 Q1000.47 34.295 997.068 36.1584 L997.068 29.2718 Q1001.16 27.692 1005.01 26.9223 Q1008.86 26.1121 1012.5 26.1121 Q1022.35 26.1121 1027.21 31.2163 Q1032.07 36.3204 1032.07 46.6907 Z" fill="#000000" fill-rule="nonzero" fill-opacity="1" /><path clip-path="url(#clip550)" d="M1054.79 14.324 L1054.79 27.2059 L1070.15 27.2059 L1070.15 32.9987 L1054.79 32.9987 L1054.79 57.6282 Q1054.79 63.1779 1056.29 64.7578 Q1057.83 66.3376 1062.49 66.3376 L1070.15 66.3376 L1070.15 72.576 L1062.49 72.576 Q1053.86 72.576 1050.58 69.3758 Q1047.3 66.1351 1047.3 57.6282 L1047.3 32.9987 L1041.83 32.9987 L1041.83 27.2059 L1047.3 27.2059 L1047.3 14.324 L1054.79 14.324 Z" fill="#000000" fill-rule="nonzero" fill-opacity="1" /><path clip-path="url(#clip550)" d="M1079.95 27.2059 L1087.4 27.2059 L1087.4 72.576 L1079.95 72.576 L1079.95 27.2059 M1079.95 9.54393 L1087.4 9.54393 L1087.4 18.9825 L1079.95 18.9825 L1079.95 9.54393 Z" fill="#000000" fill-rule="nonzero" fill-opacity="1" /><path clip-path="url(#clip550)" d="M1120.58 32.4315 Q1114.58 32.4315 1111.1 37.1306 Q1107.62 41.7891 1107.62 49.9314 Q1107.62 58.0738 1111.06 62.7728 Q1114.54 67.4314 1120.58 67.4314 Q1126.53 67.4314 1130.02 62.7323 Q1133.5 58.0333 1133.5 49.9314 Q1133.5 41.8701 1130.02 37.1711 Q1126.53 32.4315 1120.58 32.4315 M1120.58 26.1121 Q1130.3 26.1121 1135.85 32.4315 Q1141.4 38.7509 1141.4 49.9314 Q1141.4 61.0714 1135.85 67.4314 Q1130.3 73.7508 1120.58 73.7508 Q1110.82 73.7508 1105.27 67.4314 Q1099.76 61.0714 1099.76 49.9314 Q1099.76 38.7509 1105.27 32.4315 Q1110.82 26.1121 1120.58 26.1121 Z" fill="#000000" fill-rule="nonzero" fill-opacity="1" /><path clip-path="url(#clip550)" d="M1191.47 45.1919 L1191.47 72.576 L1184.02 72.576 L1184.02 45.4349 Q1184.02 38.994 1181.51 35.7938 Q1178.99 32.5936 1173.97 32.5936 Q1167.93 32.5936 1164.45 36.4419 Q1160.97 40.2903 1160.97 46.9338 L1160.97 72.576 L1153.47 72.576 L1153.47 27.2059 L1160.97 27.2059 L1160.97 34.2544 Q1163.64 30.163 1167.25 28.1376 Q1170.89 26.1121 1175.63 26.1121 Q1183.45 26.1121 1187.46 30.9732 Q1191.47 35.7938 1191.47 45.1919 Z" fill="#000000" fill-rule="nonzero" fill-opacity="1" /><path clip-path="url(#clip550)" d="M1250.29 32.4315 Q1244.29 32.4315 1240.81 37.1306 Q1237.33 41.7891 1237.33 49.9314 Q1237.33 58.0738 1240.77 62.7728 Q1244.25 67.4314 1250.29 67.4314 Q1256.24 67.4314 1259.73 62.7323 Q1263.21 58.0333 1263.21 49.9314 Q1263.21 41.8701 1259.73 37.1711 Q1256.24 32.4315 1250.29 32.4315 M1250.29 26.1121 Q1260.01 26.1121 1265.56 32.4315 Q1271.11 38.7509 1271.11 49.9314 Q1271.11 61.0714 1265.56 67.4314 Q1260.01 73.7508 1250.29 73.7508 Q1240.53 73.7508 1234.98 67.4314 Q1229.47 61.0714 1229.47 49.9314 Q1229.47 38.7509 1234.98 32.4315 Q1240.53 26.1121 1250.29 26.1121 Z" fill="#000000" fill-rule="nonzero" fill-opacity="1" /><path clip-path="url(#clip550)" d="M1278.12 27.2059 L1286.02 27.2059 L1300.2 65.2844 L1314.38 27.2059 L1322.27 27.2059 L1305.26 72.576 L1295.13 72.576 L1278.12 27.2059 Z" fill="#000000" fill-rule="nonzero" fill-opacity="1" /><path clip-path="url(#clip550)" d="M1371.37 48.0275 L1371.37 51.6733 L1337.1 51.6733 Q1337.59 59.3701 1341.72 63.421 Q1345.89 67.4314 1353.3 67.4314 Q1357.6 67.4314 1361.61 66.3781 Q1365.66 65.3249 1369.63 63.2184 L1369.63 70.267 Q1365.62 71.9684 1361.41 72.8596 Q1357.19 73.7508 1352.86 73.7508 Q1342 73.7508 1335.64 67.4314 Q1329.32 61.1119 1329.32 50.3365 Q1329.32 39.1965 1335.32 32.6746 Q1341.35 26.1121 1351.56 26.1121 Q1360.72 26.1121 1366.02 32.0264 Q1371.37 37.9003 1371.37 48.0275 M1363.92 45.84 Q1363.84 39.7232 1360.47 36.0774 Q1357.15 32.4315 1351.64 32.4315 Q1345.41 32.4315 1341.64 35.9558 Q1337.91 39.4801 1337.34 45.8805 L1363.92 45.84 Z" fill="#000000" fill-rule="nonzero" fill-opacity="1" /><path clip-path="url(#clip550)" d="M1409.9 34.1734 Q1408.64 33.4443 1407.14 33.1202 Q1405.68 32.7556 1403.9 32.7556 Q1397.58 32.7556 1394.18 36.8875 Q1390.82 40.9789 1390.82 48.6757 L1390.82 72.576 L1383.32 72.576 L1383.32 27.2059 L1390.82 27.2059 L1390.82 34.2544 Q1393.17 30.1225 1396.93 28.1376 Q1400.7 26.1121 1406.09 26.1121 Q1406.86 26.1121 1407.79 26.2337 Q1408.72 26.3147 1409.85 26.5172 L1409.9 34.1734 Z" fill="#000000" fill-rule="nonzero" fill-opacity="1" /><path clip-path="url(#clip550)" d="M1452.59 18.8205 L1452.59 65.8515 L1462.48 65.8515 Q1474.99 65.8515 1480.79 60.1802 Q1486.62 54.509 1486.62 42.2752 Q1486.62 30.1225 1480.79 24.4918 Q1474.99 18.8205 1462.48 18.8205 L1452.59 18.8205 M1444.41 12.096 L1461.22 12.096 Q1478.8 12.096 1487.02 19.4281 Q1495.25 26.7198 1495.25 42.2752 Q1495.25 57.9117 1486.98 65.2439 Q1478.72 72.576 1461.22 72.576 L1444.41 72.576 L1444.41 12.096 Z" fill="#000000" fill-rule="nonzero" fill-opacity="1" /><path clip-path="url(#clip550)" d="M1507.97 27.2059 L1515.42 27.2059 L1515.42 72.576 L1507.97 72.576 L1507.97 27.2059 M1507.97 9.54393 L1515.42 9.54393 L1515.42 18.9825 L1507.97 18.9825 L1507.97 9.54393 Z" fill="#000000" fill-rule="nonzero" fill-opacity="1" /><path clip-path="url(#clip550)" d="M1566.34 35.9153 Q1569.14 30.8922 1573.03 28.5022 Q1576.91 26.1121 1582.18 26.1121 Q1589.27 26.1121 1593.12 31.0947 Q1596.97 36.0368 1596.97 45.1919 L1596.97 72.576 L1589.47 72.576 L1589.47 45.4349 Q1589.47 38.913 1587.16 35.7533 Q1584.85 32.5936 1580.11 32.5936 Q1574.32 32.5936 1570.96 36.4419 Q1567.6 40.2903 1567.6 46.9338 L1567.6 72.576 L1560.1 72.576 L1560.1 45.4349 Q1560.1 38.8725 1557.79 35.7533 Q1555.48 32.5936 1550.66 32.5936 Q1544.95 32.5936 1541.59 36.4824 Q1538.23 40.3308 1538.23 46.9338 L1538.23 72.576 L1530.73 72.576 L1530.73 27.2059 L1538.23 27.2059 L1538.23 34.2544 Q1540.78 30.082 1544.35 28.0971 Q1547.91 26.1121 1552.81 26.1121 Q1557.75 26.1121 1561.2 28.6237 Q1564.68 31.1352 1566.34 35.9153 Z" fill="#000000" fill-rule="nonzero" fill-opacity="1" /><path clip-path="url(#clip550)" d="M1612.89 62.2867 L1621.43 62.2867 L1621.43 72.576 L1612.89 72.576 L1612.89 62.2867 Z" fill="#000000" fill-rule="nonzero" fill-opacity="1" /><path clip-path="url(#clip550)" d="M1682.16 32.4315 Q1676.16 32.4315 1672.68 37.1306 Q1669.19 41.7891 1669.19 49.9314 Q1669.19 58.0738 1672.64 62.7728 Q1676.12 67.4314 1682.16 67.4314 Q1688.11 67.4314 1691.6 62.7323 Q1695.08 58.0333 1695.08 49.9314 Q1695.08 41.8701 1691.6 37.1711 Q1688.11 32.4315 1682.16 32.4315 M1682.16 26.1121 Q1691.88 26.1121 1697.43 32.4315 Q1702.98 38.7509 1702.98 49.9314 Q1702.98 61.0714 1697.43 67.4314 Q1691.88 73.7508 1682.16 73.7508 Q1672.39 73.7508 1666.84 67.4314 Q1661.34 61.0714 1661.34 49.9314 Q1661.34 38.7509 1666.84 32.4315 Q1672.39 26.1121 1682.16 26.1121 Z" fill="#000000" fill-rule="nonzero" fill-opacity="1" /><path clip-path="url(#clip550)" d="M1738.3 9.54393 L1738.3 15.7418 L1731.17 15.7418 Q1727.16 15.7418 1725.58 17.3622 Q1724.04 18.9825 1724.04 23.1955 L1724.04 27.2059 L1736.32 27.2059 L1736.32 32.9987 L1724.04 32.9987 L1724.04 72.576 L1716.55 72.576 L1716.55 32.9987 L1709.42 32.9987 L1709.42 27.2059 L1716.55 27.2059 L1716.55 24.0462 Q1716.55 16.471 1720.07 13.0277 Q1723.6 9.54393 1731.25 9.54393 L1738.3 9.54393 Z" fill="#000000" fill-rule="nonzero" fill-opacity="1" /><path clip-path="url(#clip550)" d="M1807.49 14.0809 L1807.49 22.0612 Q1802.83 19.8332 1798.7 18.7395 Q1794.57 17.6457 1790.72 17.6457 Q1784.04 17.6457 1780.39 20.2383 Q1776.79 22.8309 1776.79 27.611 Q1776.79 31.6214 1779.18 33.6873 Q1781.61 35.7128 1788.33 36.9686 L1793.27 37.9813 Q1802.43 39.7232 1806.76 44.1387 Q1811.14 48.5136 1811.14 55.8863 Q1811.14 64.6767 1805.22 69.2137 Q1799.35 73.7508 1787.97 73.7508 Q1783.67 73.7508 1778.81 72.7785 Q1773.99 71.8063 1768.81 69.9024 L1768.81 61.4765 Q1773.79 64.2716 1778.57 65.6895 Q1783.35 67.1073 1787.97 67.1073 Q1794.97 67.1073 1798.78 64.3527 Q1802.59 61.598 1802.59 56.4939 Q1802.59 52.0379 1799.84 49.5264 Q1797.12 47.0148 1790.88 45.759 L1785.9 44.7868 Q1776.75 42.9639 1772.65 39.075 Q1768.56 35.1862 1768.56 28.2591 Q1768.56 20.2383 1774.19 15.6203 Q1779.86 11.0023 1789.79 11.0023 Q1794.04 11.0023 1798.46 11.7719 Q1802.87 12.5416 1807.49 14.0809 Z" fill="#000000" fill-rule="nonzero" fill-opacity="1" /><path clip-path="url(#clip550)" d="M1830.78 65.7705 L1830.78 89.8329 L1823.29 89.8329 L1823.29 27.2059 L1830.78 27.2059 L1830.78 34.0924 Q1833.13 30.0415 1836.7 28.0971 Q1840.3 26.1121 1845.29 26.1121 Q1853.55 26.1121 1858.7 32.6746 Q1863.88 39.2371 1863.88 49.9314 Q1863.88 60.6258 1858.7 67.1883 Q1853.55 73.7508 1845.29 73.7508 Q1840.3 73.7508 1836.7 71.8063 Q1833.13 69.8214 1830.78 65.7705 M1856.14 49.9314 Q1856.14 41.7081 1852.74 37.0496 Q1849.38 32.3505 1843.46 32.3505 Q1837.55 32.3505 1834.15 37.0496 Q1830.78 41.7081 1830.78 49.9314 Q1830.78 58.1548 1834.15 62.8538 Q1837.55 67.5124 1843.46 67.5124 Q1849.38 67.5124 1852.74 62.8538 Q1856.14 58.1548 1856.14 49.9314 Z" fill="#000000" fill-rule="nonzero" fill-opacity="1" /><path clip-path="url(#clip550)" d="M1876.24 27.2059 L1883.69 27.2059 L1883.69 72.576 L1876.24 72.576 L1876.24 27.2059 M1876.24 9.54393 L1883.69 9.54393 L1883.69 18.9825 L1876.24 18.9825 L1876.24 9.54393 Z" fill="#000000" fill-rule="nonzero" fill-opacity="1" /><path clip-path="url(#clip550)" d="M1937 45.1919 L1937 72.576 L1929.55 72.576 L1929.55 45.4349 Q1929.55 38.994 1927.03 35.7938 Q1924.52 32.5936 1919.5 32.5936 Q1913.46 32.5936 1909.98 36.4419 Q1906.5 40.2903 1906.5 46.9338 L1906.5 72.576 L1899 72.576 L1899 27.2059 L1906.5 27.2059 L1906.5 34.2544 Q1909.17 30.163 1912.77 28.1376 Q1916.42 26.1121 1921.16 26.1121 Q1928.98 26.1121 1932.99 30.9732 Q1937 35.7938 1937 45.1919 Z" fill="#000000" fill-rule="nonzero" fill-opacity="1" /><path clip-path="url(#clip550)" d="M1980.79 28.5427 L1980.79 35.5912 Q1977.63 33.9709 1974.23 33.1607 Q1970.82 32.3505 1967.18 32.3505 Q1961.63 32.3505 1958.83 34.0519 Q1956.08 35.7533 1956.08 39.156 Q1956.08 41.7486 1958.06 43.2475 Q1960.05 44.7058 1966.04 46.0426 L1968.6 46.6097 Q1976.54 48.3111 1979.86 51.4303 Q1983.22 54.509 1983.22 60.0587 Q1983.22 66.3781 1978.2 70.0644 Q1973.21 73.7508 1964.46 73.7508 Q1960.82 73.7508 1956.85 73.0216 Q1952.92 72.3329 1948.54 70.9151 L1948.54 63.2184 Q1952.68 65.3654 1956.69 66.4591 Q1960.7 67.5124 1964.63 67.5124 Q1969.89 67.5124 1972.73 65.73 Q1975.56 63.9071 1975.56 60.6258 Q1975.56 57.5877 1973.5 55.9673 Q1971.47 54.3469 1964.55 52.8481 L1961.95 52.2405 Q1955.03 50.7821 1951.95 47.7845 Q1948.87 44.7463 1948.87 39.4801 Q1948.87 33.0797 1953.41 29.5959 Q1957.94 26.1121 1966.29 26.1121 Q1970.42 26.1121 1974.06 26.7198 Q1977.71 27.3274 1980.79 28.5427 Z" fill="#000000" fill-rule="nonzero" fill-opacity="1" /><circle clip-path="url(#clip552)" cx="309.067" cy="160.256" r="14.4" fill="#009af9" fill-rule="evenodd" fill-opacity="1" stroke="#000000" stroke-opacity="1" stroke-width="3.2"/>
<circle clip-path="url(#clip552)" cx="413.497" cy="163.341" r="14.4" fill="#009af9" fill-rule="evenodd" fill-opacity="1" stroke="#000000" stroke-opacity="1" stroke-width="3.2"/>
<circle clip-path="url(#clip552)" cx="517.926" cy="165.499" r="14.4" fill="#009af9" fill-rule="evenodd" fill-opacity="1" stroke="#000000" stroke-opacity="1" stroke-width="3.2"/>
<circle clip-path="url(#clip552)" cx="622.356" cy="169.903" r="14.4" fill="#009af9" fill-rule="evenodd" fill-opacity="1" stroke="#000000" stroke-opacity="1" stroke-width="3.2"/>
<circle clip-path="url(#clip552)" cx="726.786" cy="205.241" r="14.4" fill="#009af9" fill-rule="evenodd" fill-opacity="1" stroke="#000000" stroke-opacity="1" stroke-width="3.2"/>
<circle clip-path="url(#clip552)" cx="831.215" cy="1218.57" r="14.4" fill="#009af9" fill-rule="evenodd" fill-opacity="1" stroke="#000000" stroke-opacity="1" stroke-width="3.2"/>
<circle clip-path="url(#clip552)" cx="935.645" cy="318.101" r="14.4" fill="#009af9" fill-rule="evenodd" fill-opacity="1" stroke="#000000" stroke-opacity="1" stroke-width="3.2"/>
<circle clip-path="url(#clip552)" cx="1040.07" cy="1351.77" r="14.4" fill="#009af9" fill-rule="evenodd" fill-opacity="1" stroke="#000000" stroke-opacity="1" stroke-width="3.2"/>
<circle clip-path="url(#clip552)" cx="1144.5" cy="1340.64" r="14.4" fill="#009af9" fill-rule="evenodd" fill-opacity="1" stroke="#000000" stroke-opacity="1" stroke-width="3.2"/>
<circle clip-path="url(#clip552)" cx="1248.93" cy="1355.73" r="14.4" fill="#009af9" fill-rule="evenodd" fill-opacity="1" stroke="#000000" stroke-opacity="1" stroke-width="3.2"/>
<circle clip-path="url(#clip552)" cx="1353.36" cy="1381.21" r="14.4" fill="#009af9" fill-rule="evenodd" fill-opacity="1" stroke="#000000" stroke-opacity="1" stroke-width="3.2"/>
<circle clip-path="url(#clip552)" cx="1457.79" cy="1373.92" r="14.4" fill="#009af9" fill-rule="evenodd" fill-opacity="1" stroke="#000000" stroke-opacity="1" stroke-width="3.2"/>
<circle clip-path="url(#clip552)" cx="1562.22" cy="1362.28" r="14.4" fill="#009af9" fill-rule="evenodd" fill-opacity="1" stroke="#000000" stroke-opacity="1" stroke-width="3.2"/>
<circle clip-path="url(#clip552)" cx="1666.65" cy="1374.04" r="14.4" fill="#009af9" fill-rule="evenodd" fill-opacity="1" stroke="#000000" stroke-opacity="1" stroke-width="3.2"/>
<circle clip-path="url(#clip552)" cx="1771.08" cy="1375.57" r="14.4" fill="#009af9" fill-rule="evenodd" fill-opacity="1" stroke="#000000" stroke-opacity="1" stroke-width="3.2"/>
<circle clip-path="url(#clip552)" cx="1875.51" cy="1373.87" r="14.4" fill="#009af9" fill-rule="evenodd" fill-opacity="1" stroke="#000000" stroke-opacity="1" stroke-width="3.2"/>
<circle clip-path="url(#clip552)" cx="1979.94" cy="1373.67" r="14.4" fill="#009af9" fill-rule="evenodd" fill-opacity="1" stroke="#000000" stroke-opacity="1" stroke-width="3.2"/>
<circle clip-path="url(#clip552)" cx="2084.37" cy="1386.4" r="14.4" fill="#009af9" fill-rule="evenodd" fill-opacity="1" stroke="#000000" stroke-opacity="1" stroke-width="3.2"/>
<circle clip-path="url(#clip552)" cx="2188.8" cy="1370.39" r="14.4" fill="#009af9" fill-rule="evenodd" fill-opacity="1" stroke="#000000" stroke-opacity="1" stroke-width="3.2"/>
<circle clip-path="url(#clip552)" cx="2293.23" cy="1374.55" r="14.4" fill="#009af9" fill-rule="evenodd" fill-opacity="1" stroke="#000000" stroke-opacity="1" stroke-width="3.2"/>
</svg>
