<?xml version="1.0" encoding="utf-8"?>
<svg xmlns="http://www.w3.org/2000/svg" xmlns:xlink="http://www.w3.org/1999/xlink" width="600" height="400" viewBox="0 0 2400 1600">
<defs>
  <clipPath id="clip770">
    <rect x="0" y="0" width="2400" height="1600"/>
  </clipPath>
</defs>
<path clip-path="url(#clip770)" d="M0 1600 L2400 1600 L2400 0 L0 0  Z" fill="#ffffff" fill-rule="evenodd" fill-opacity="1"/>
<defs>
  <clipPath id="clip771">
    <rect x="480" y="0" width="1681" height="1600"/>
  </clipPath>
</defs>
<path clip-path="url(#clip770)" d="M232.389 1423.18 L2352.76 1423.18 L2352.76 123.472 L232.389 123.472  Z" fill="#ffffff" fill-rule="evenodd" fill-opacity="1"/>
<defs>
  <clipPath id="clip772">
    <rect x="232" y="123" width="2121" height="1301"/>
  </clipPath>
</defs>
<polyline clip-path="url(#clip772)" style="stroke:#000000; stroke-linecap:round; stroke-linejoin:round; stroke-width:2; stroke-opacity:0.1; fill:none" points="289.896,1423.18 289.896,123.472 "/>
<polyline clip-path="url(#clip772)" style="stroke:#000000; stroke-linecap:round; stroke-linejoin:round; stroke-width:2; stroke-opacity:0.1; fill:none" points="790.609,1423.18 790.609,123.472 "/>
<polyline clip-path="url(#clip772)" style="stroke:#000000; stroke-linecap:round; stroke-linejoin:round; stroke-width:2; stroke-opacity:0.1; fill:none" points="1291.32,1423.18 1291.32,123.472 "/>
<polyline clip-path="url(#clip772)" style="stroke:#000000; stroke-linecap:round; stroke-linejoin:round; stroke-width:2; stroke-opacity:0.1; fill:none" points="1792.03,1423.18 1792.03,123.472 "/>
<polyline clip-path="url(#clip772)" style="stroke:#000000; stroke-linecap:round; stroke-linejoin:round; stroke-width:2; stroke-opacity:0.1; fill:none" points="2292.75,1423.18 2292.75,123.472 "/>
<polyline clip-path="url(#clip772)" style="stroke:#000000; stroke-linecap:round; stroke-linejoin:round; stroke-width:2; stroke-opacity:0.1; fill:none" points="232.389,1386.4 2352.76,1386.4 "/>
<polyline clip-path="url(#clip772)" style="stroke:#000000; stroke-linecap:round; stroke-linejoin:round; stroke-width:2; stroke-opacity:0.1; fill:none" points="232.389,1079.03 2352.76,1079.03 "/>
<polyline clip-path="url(#clip772)" style="stroke:#000000; stroke-linecap:round; stroke-linejoin:round; stroke-width:2; stroke-opacity:0.1; fill:none" points="232.389,771.661 2352.76,771.661 "/>
<polyline clip-path="url(#clip772)" style="stroke:#000000; stroke-linecap:round; stroke-linejoin:round; stroke-width:2; stroke-opacity:0.1; fill:none" points="232.389,464.293 2352.76,464.293 "/>
<polyline clip-path="url(#clip772)" style="stroke:#000000; stroke-linecap:round; stroke-linejoin:round; stroke-width:2; stroke-opacity:0.1; fill:none" points="232.389,156.925 2352.76,156.925 "/>
<polyline clip-path="url(#clip770)" style="stroke:#000000; stroke-linecap:round; stroke-linejoin:round; stroke-width:4; stroke-opacity:1; fill:none" points="232.389,1423.18 2352.76,1423.18 "/>
<polyline clip-path="url(#clip770)" style="stroke:#000000; stroke-linecap:round; stroke-linejoin:round; stroke-width:4; stroke-opacity:1; fill:none" points="289.896,1423.18 289.896,1404.28 "/>
<polyline clip-path="url(#clip770)" style="stroke:#000000; stroke-linecap:round; stroke-linejoin:round; stroke-width:4; stroke-opacity:1; fill:none" points="790.609,1423.18 790.609,1404.28 "/>
<polyline clip-path="url(#clip770)" style="stroke:#000000; stroke-linecap:round; stroke-linejoin:round; stroke-width:4; stroke-opacity:1; fill:none" points="1291.32,1423.18 1291.32,1404.28 "/>
<polyline clip-path="url(#clip770)" style="stroke:#000000; stroke-linecap:round; stroke-linejoin:round; stroke-width:4; stroke-opacity:1; fill:none" points="1792.03,1423.18 1792.03,1404.28 "/>
<polyline clip-path="url(#clip770)" style="stroke:#000000; stroke-linecap:round; stroke-linejoin:round; stroke-width:4; stroke-opacity:1; fill:none" points="2292.75,1423.18 2292.75,1404.28 "/>
<path clip-path="url(#clip770)" d="M289.896 1454.1 Q286.285 1454.1 284.456 1457.66 Q282.651 1461.2 282.651 1468.33 Q282.651 1475.44 284.456 1479.01 Q286.285 1482.55 289.896 1482.55 Q293.53 1482.55 295.336 1479.01 Q297.165 1475.44 297.165 1468.33 Q297.165 1461.2 295.336 1457.66 Q293.53 1454.1 289.896 1454.1 M289.896 1450.39 Q295.706 1450.39 298.762 1455 Q301.841 1459.58 301.841 1468.33 Q301.841 1477.06 298.762 1481.67 Q295.706 1486.25 289.896 1486.25 Q284.086 1486.25 281.007 1481.67 Q277.952 1477.06 277.952 1468.33 Q277.952 1459.58 281.007 1455 Q284.086 1450.39 289.896 1450.39 Z" fill="#000000" fill-rule="nonzero" fill-opacity="1" /><path clip-path="url(#clip770)" d="M754.301 1481.64 L770.62 1481.64 L770.62 1485.58 L748.676 1485.58 L748.676 1481.64 Q751.338 1478.89 755.921 1474.26 Q760.528 1469.61 761.708 1468.27 Q763.954 1465.74 764.833 1464.01 Q765.736 1462.25 765.736 1460.56 Q765.736 1457.8 763.792 1456.07 Q761.87 1454.33 758.768 1454.33 Q756.569 1454.33 754.116 1455.09 Q751.685 1455.86 748.907 1457.41 L748.907 1452.69 Q751.731 1451.55 754.185 1450.97 Q756.639 1450.39 758.676 1450.39 Q764.046 1450.39 767.241 1453.08 Q770.435 1455.77 770.435 1460.26 Q770.435 1462.39 769.625 1464.31 Q768.838 1466.2 766.731 1468.8 Q766.153 1469.47 763.051 1472.69 Q759.949 1475.88 754.301 1481.64 Z" fill="#000000" fill-rule="nonzero" fill-opacity="1" /><path clip-path="url(#clip770)" d="M790.435 1454.1 Q786.824 1454.1 784.995 1457.66 Q783.19 1461.2 783.19 1468.33 Q783.19 1475.44 784.995 1479.01 Q786.824 1482.55 790.435 1482.55 Q794.069 1482.55 795.875 1479.01 Q797.703 1475.44 797.703 1468.33 Q797.703 1461.2 795.875 1457.66 Q794.069 1454.1 790.435 1454.1 M790.435 1450.39 Q796.245 1450.39 799.301 1455 Q802.379 1459.58 802.379 1468.33 Q802.379 1477.06 799.301 1481.67 Q796.245 1486.25 790.435 1486.25 Q784.625 1486.25 781.546 1481.67 Q778.491 1477.06 778.491 1468.33 Q778.491 1459.58 781.546 1455 Q784.625 1450.39 790.435 1450.39 Z" fill="#000000" fill-rule="nonzero" fill-opacity="1" /><path clip-path="url(#clip770)" d="M820.597 1454.1 Q816.986 1454.1 815.157 1457.66 Q813.351 1461.2 813.351 1468.33 Q813.351 1475.44 815.157 1479.01 Q816.986 1482.55 820.597 1482.55 Q824.231 1482.55 826.037 1479.01 Q827.865 1475.44 827.865 1468.33 Q827.865 1461.2 826.037 1457.66 Q824.231 1454.1 820.597 1454.1 M820.597 1450.39 Q826.407 1450.39 829.462 1455 Q832.541 1459.58 832.541 1468.33 Q832.541 1477.06 829.462 1481.67 Q826.407 1486.25 820.597 1486.25 Q814.787 1486.25 811.708 1481.67 Q808.652 1477.06 808.652 1468.33 Q808.652 1459.58 811.708 1455 Q814.787 1450.39 820.597 1450.39 Z" fill="#000000" fill-rule="nonzero" fill-opacity="1" /><path clip-path="url(#clip770)" d="M1264.41 1455.09 L1252.61 1473.54 L1264.41 1473.54 L1264.41 1455.09 M1263.18 1451.02 L1269.06 1451.02 L1269.06 1473.54 L1273.99 1473.54 L1273.99 1477.43 L1269.06 1477.43 L1269.06 1485.58 L1264.41 1485.58 L1264.41 1477.43 L1248.81 1477.43 L1248.81 1472.92 L1263.18 1451.02 Z" fill="#000000" fill-rule="nonzero" fill-opacity="1" /><path clip-path="url(#clip770)" d="M1291.73 1454.1 Q1288.11 1454.1 1286.29 1457.66 Q1284.48 1461.2 1284.48 1468.33 Q1284.48 1475.44 1286.29 1479.01 Q1288.11 1482.55 1291.73 1482.55 Q1295.36 1482.55 1297.17 1479.01 Q1298.99 1475.44 1298.99 1468.33 Q1298.99 1461.2 1297.17 1457.66 Q1295.36 1454.1 1291.73 1454.1 M1291.73 1450.39 Q1297.54 1450.39 1300.59 1455 Q1303.67 1459.58 1303.67 1468.33 Q1303.67 1477.06 1300.59 1481.67 Q1297.54 1486.25 1291.73 1486.25 Q1285.92 1486.25 1282.84 1481.67 Q1279.78 1477.06 1279.78 1468.33 Q1279.78 1459.58 1282.84 1455 Q1285.92 1450.39 1291.73 1450.39 Z" fill="#000000" fill-rule="nonzero" fill-opacity="1" /><path clip-path="url(#clip770)" d="M1321.89 1454.1 Q1318.28 1454.1 1316.45 1457.66 Q1314.64 1461.2 1314.64 1468.33 Q1314.64 1475.44 1316.45 1479.01 Q1318.28 1482.55 1321.89 1482.55 Q1325.52 1482.55 1327.33 1479.01 Q1329.16 1475.44 1329.16 1468.33 Q1329.16 1461.2 1327.33 1457.66 Q1325.52 1454.1 1321.89 1454.1 M1321.89 1450.39 Q1327.7 1450.39 1330.75 1455 Q1333.83 1459.58 1333.83 1468.33 Q1333.83 1477.06 1330.75 1481.67 Q1327.7 1486.25 1321.89 1486.25 Q1316.08 1486.25 1313 1481.67 Q1309.94 1477.06 1309.94 1468.33 Q1309.94 1459.58 1313 1455 Q1316.08 1450.39 1321.89 1450.39 Z" fill="#000000" fill-rule="nonzero" fill-opacity="1" /><path clip-path="url(#clip770)" d="M1762.36 1466.44 Q1759.21 1466.44 1757.36 1468.59 Q1755.53 1470.74 1755.53 1474.49 Q1755.53 1478.22 1757.36 1480.39 Q1759.21 1482.55 1762.36 1482.55 Q1765.51 1482.55 1767.33 1480.39 Q1769.19 1478.22 1769.19 1474.49 Q1769.19 1470.74 1767.33 1468.59 Q1765.51 1466.44 1762.36 1466.44 M1771.64 1451.78 L1771.64 1456.04 Q1769.88 1455.21 1768.07 1454.77 Q1766.29 1454.33 1764.53 1454.33 Q1759.9 1454.33 1757.45 1457.45 Q1755.02 1460.58 1754.67 1466.9 Q1756.04 1464.89 1758.1 1463.82 Q1760.16 1462.73 1762.64 1462.73 Q1767.84 1462.73 1770.85 1465.9 Q1773.89 1469.05 1773.89 1474.49 Q1773.89 1479.82 1770.74 1483.03 Q1767.59 1486.25 1762.36 1486.25 Q1756.36 1486.25 1753.19 1481.67 Q1750.02 1477.06 1750.02 1468.33 Q1750.02 1460.14 1753.91 1455.28 Q1757.8 1450.39 1764.35 1450.39 Q1766.11 1450.39 1767.89 1450.74 Q1769.7 1451.09 1771.64 1451.78 Z" fill="#000000" fill-rule="nonzero" fill-opacity="1" /><path clip-path="url(#clip770)" d="M1791.94 1454.1 Q1788.33 1454.1 1786.5 1457.66 Q1784.7 1461.2 1784.7 1468.33 Q1784.7 1475.44 1786.5 1479.01 Q1788.33 1482.55 1791.94 1482.55 Q1795.57 1482.55 1797.38 1479.01 Q1799.21 1475.44 1799.21 1468.33 Q1799.21 1461.2 1797.38 1457.66 Q1795.57 1454.1 1791.94 1454.1 M1791.94 1450.39 Q1797.75 1450.39 1800.81 1455 Q1803.88 1459.58 1803.88 1468.33 Q1803.88 1477.06 1800.81 1481.67 Q1797.75 1486.25 1791.94 1486.25 Q1786.13 1486.25 1783.05 1481.67 Q1780 1477.06 1780 1468.33 Q1780 1459.58 1783.05 1455 Q1786.13 1450.39 1791.94 1450.39 Z" fill="#000000" fill-rule="nonzero" fill-opacity="1" /><path clip-path="url(#clip770)" d="M1822.1 1454.1 Q1818.49 1454.1 1816.66 1457.66 Q1814.86 1461.2 1814.86 1468.33 Q1814.86 1475.44 1816.66 1479.01 Q1818.49 1482.55 1822.1 1482.55 Q1825.74 1482.55 1827.54 1479.01 Q1829.37 1475.44 1829.37 1468.33 Q1829.37 1461.2 1827.54 1457.66 Q1825.74 1454.1 1822.1 1454.1 M1822.1 1450.39 Q1827.91 1450.39 1830.97 1455 Q1834.05 1459.58 1834.05 1468.33 Q1834.05 1477.06 1830.97 1481.67 Q1827.91 1486.25 1822.1 1486.25 Q1816.29 1486.25 1813.21 1481.67 Q1810.16 1477.06 1810.16 1468.33 Q1810.16 1459.58 1813.21 1455 Q1816.29 1450.39 1822.1 1450.39 Z" fill="#000000" fill-rule="nonzero" fill-opacity="1" /><path clip-path="url(#clip770)" d="M2262.54 1469.17 Q2259.2 1469.17 2257.28 1470.95 Q2255.38 1472.73 2255.38 1475.86 Q2255.38 1478.98 2257.28 1480.77 Q2259.2 1482.55 2262.54 1482.55 Q2265.87 1482.55 2267.79 1480.77 Q2269.71 1478.96 2269.71 1475.86 Q2269.71 1472.73 2267.79 1470.95 Q2265.89 1469.17 2262.54 1469.17 M2257.86 1467.18 Q2254.85 1466.44 2253.16 1464.38 Q2251.5 1462.32 2251.5 1459.35 Q2251.5 1455.21 2254.44 1452.8 Q2257.4 1450.39 2262.54 1450.39 Q2267.7 1450.39 2270.64 1452.8 Q2273.58 1455.21 2273.58 1459.35 Q2273.58 1462.32 2271.89 1464.38 Q2270.22 1466.44 2267.24 1467.18 Q2270.62 1467.96 2272.49 1470.26 Q2274.39 1472.55 2274.39 1475.86 Q2274.39 1480.88 2271.31 1483.57 Q2268.25 1486.25 2262.54 1486.25 Q2256.82 1486.25 2253.74 1483.57 Q2250.69 1480.88 2250.69 1475.86 Q2250.69 1472.55 2252.58 1470.26 Q2254.48 1467.96 2257.86 1467.18 M2256.15 1459.79 Q2256.15 1462.48 2257.82 1463.98 Q2259.5 1465.49 2262.54 1465.49 Q2265.55 1465.49 2267.24 1463.98 Q2268.95 1462.48 2268.95 1459.79 Q2268.95 1457.11 2267.24 1455.6 Q2265.55 1454.1 2262.54 1454.1 Q2259.5 1454.1 2257.82 1455.6 Q2256.15 1457.11 2256.15 1459.79 Z" fill="#000000" fill-rule="nonzero" fill-opacity="1" /><path clip-path="url(#clip770)" d="M2292.7 1454.1 Q2289.09 1454.1 2287.26 1457.66 Q2285.45 1461.2 2285.45 1468.33 Q2285.45 1475.44 2287.26 1479.01 Q2289.09 1482.55 2292.7 1482.55 Q2296.33 1482.55 2298.14 1479.01 Q2299.97 1475.44 2299.97 1468.33 Q2299.97 1461.2 2298.14 1457.66 Q2296.33 1454.1 2292.7 1454.1 M2292.7 1450.39 Q2298.51 1450.39 2301.56 1455 Q2304.64 1459.58 2304.64 1468.33 Q2304.64 1477.06 2301.56 1481.67 Q2298.51 1486.25 2292.7 1486.25 Q2286.89 1486.25 2283.81 1481.67 Q2280.75 1477.06 2280.75 1468.33 Q2280.75 1459.58 2283.81 1455 Q2286.89 1450.39 2292.7 1450.39 Z" fill="#000000" fill-rule="nonzero" fill-opacity="1" /><path clip-path="url(#clip770)" d="M2322.86 1454.1 Q2319.25 1454.1 2317.42 1457.66 Q2315.62 1461.2 2315.62 1468.33 Q2315.62 1475.44 2317.42 1479.01 Q2319.25 1482.55 2322.86 1482.55 Q2326.5 1482.55 2328.3 1479.01 Q2330.13 1475.44 2330.13 1468.33 Q2330.13 1461.2 2328.3 1457.66 Q2326.5 1454.1 2322.86 1454.1 M2322.86 1450.39 Q2328.67 1450.39 2331.73 1455 Q2334.81 1459.58 2334.81 1468.33 Q2334.81 1477.06 2331.73 1481.67 Q2328.67 1486.25 2322.86 1486.25 Q2317.05 1486.25 2313.97 1481.67 Q2310.92 1477.06 2310.92 1468.33 Q2310.92 1459.58 2313.97 1455 Q2317.05 1450.39 2322.86 1450.39 Z" fill="#000000" fill-rule="nonzero" fill-opacity="1" /><path clip-path="url(#clip770)" d="M931.351 1520.52 L940.008 1520.52 L961.078 1560.28 L961.078 1520.52 L967.317 1520.52 L967.317 1568.04 L958.659 1568.04 L937.589 1528.29 L937.589 1568.04 L931.351 1568.04 L931.351 1520.52 Z" fill="#000000" fill-rule="nonzero" fill-opacity="1" /><path clip-path="url(#clip770)" d="M1014.39 1536.5 Q1009.68 1536.5 1006.94 1540.19 Q1004.21 1543.85 1004.21 1550.25 Q1004.21 1556.65 1006.91 1560.34 Q1009.65 1564 1014.39 1564 Q1019.07 1564 1021.81 1560.31 Q1024.54 1556.62 1024.54 1550.25 Q1024.54 1543.92 1021.81 1540.23 Q1019.07 1536.5 1014.39 1536.5 M1014.39 1531.54 Q1022.03 1531.54 1026.39 1536.5 Q1030.75 1541.47 1030.75 1550.25 Q1030.75 1559 1026.39 1564 Q1022.03 1568.97 1014.39 1568.97 Q1006.72 1568.97 1002.36 1564 Q998.031 1559 998.031 1550.25 Q998.031 1541.47 1002.36 1536.5 Q1006.72 1531.54 1014.39 1531.54 Z" fill="#000000" fill-rule="nonzero" fill-opacity="1" /><path clip-path="url(#clip770)" d="M1058.51 1518.52 L1058.51 1523.39 L1052.9 1523.39 Q1049.75 1523.39 1048.51 1524.66 Q1047.3 1525.93 1047.3 1529.24 L1047.3 1532.4 L1056.95 1532.4 L1056.95 1536.95 L1047.3 1536.95 L1047.3 1568.04 L1041.41 1568.04 L1041.41 1536.95 L1035.81 1536.95 L1035.81 1532.4 L1041.41 1532.4 L1041.41 1529.91 Q1041.41 1523.96 1044.18 1521.26 Q1046.95 1518.52 1052.97 1518.52 L1058.51 1518.52 Z" fill="#000000" fill-rule="nonzero" fill-opacity="1" /><path clip-path="url(#clip770)" d="M1084.13 1532.4 L1089.98 1532.4 L1089.98 1568.04 L1084.13 1568.04 L1084.13 1532.4 M1084.13 1518.52 L1089.98 1518.52 L1089.98 1525.93 L1084.13 1525.93 L1084.13 1518.52 Z" fill="#000000" fill-rule="nonzero" fill-opacity="1" /><path clip-path="url(#clip770)" d="M1108.03 1522.27 L1108.03 1532.4 L1120.09 1532.4 L1120.09 1536.95 L1108.03 1536.95 L1108.03 1556.3 Q1108.03 1560.66 1109.21 1561.9 Q1110.42 1563.14 1114.08 1563.14 L1120.09 1563.14 L1120.09 1568.04 L1114.08 1568.04 Q1107.3 1568.04 1104.72 1565.53 Q1102.14 1562.98 1102.14 1556.3 L1102.14 1536.95 L1097.85 1536.95 L1097.85 1532.4 L1102.14 1532.4 L1102.14 1522.27 L1108.03 1522.27 Z" fill="#000000" fill-rule="nonzero" fill-opacity="1" /><path clip-path="url(#clip770)" d="M1158.29 1548.76 L1158.29 1551.62 L1131.36 1551.62 Q1131.74 1557.67 1134.99 1560.85 Q1138.27 1564 1144.09 1564 Q1147.47 1564 1150.62 1563.17 Q1153.8 1562.35 1156.92 1560.69 L1156.92 1566.23 Q1153.77 1567.57 1150.46 1568.27 Q1147.15 1568.97 1143.74 1568.97 Q1135.21 1568.97 1130.22 1564 Q1125.25 1559.04 1125.25 1550.57 Q1125.25 1541.82 1129.96 1536.69 Q1134.7 1531.54 1142.72 1531.54 Q1149.92 1531.54 1154.09 1536.18 Q1158.29 1540.8 1158.29 1548.76 M1152.43 1547.04 Q1152.37 1542.23 1149.73 1539.37 Q1147.12 1536.5 1142.79 1536.5 Q1137.89 1536.5 1134.93 1539.27 Q1132 1542.04 1131.55 1547.07 L1152.43 1547.04 Z" fill="#000000" fill-rule="nonzero" fill-opacity="1" /><path clip-path="url(#clip770)" d="M1188.56 1537.87 Q1187.57 1537.3 1186.39 1537.04 Q1185.25 1536.76 1183.85 1536.76 Q1178.88 1536.76 1176.21 1540 Q1173.57 1543.22 1173.57 1549.27 L1173.57 1568.04 L1167.68 1568.04 L1167.68 1532.4 L1173.57 1532.4 L1173.57 1537.93 Q1175.41 1534.69 1178.37 1533.13 Q1181.33 1531.54 1185.57 1531.54 Q1186.17 1531.54 1186.9 1531.63 Q1187.63 1531.7 1188.53 1531.85 L1188.56 1537.87 Z" fill="#000000" fill-rule="nonzero" fill-opacity="1" /><path clip-path="url(#clip770)" d="M1210.9 1550.12 Q1203.8 1550.12 1201.07 1551.75 Q1198.33 1553.37 1198.33 1557.29 Q1198.33 1560.4 1200.37 1562.25 Q1202.43 1564.07 1205.97 1564.07 Q1210.84 1564.07 1213.77 1560.63 Q1216.73 1557.16 1216.73 1551.43 L1216.73 1550.12 L1210.9 1550.12 M1222.58 1547.71 L1222.58 1568.04 L1216.73 1568.04 L1216.73 1562.63 Q1214.72 1565.88 1211.73 1567.44 Q1208.74 1568.97 1204.41 1568.97 Q1198.93 1568.97 1195.69 1565.91 Q1192.47 1562.82 1192.47 1557.67 Q1192.47 1551.65 1196.48 1548.6 Q1200.52 1545.54 1208.51 1545.54 L1216.73 1545.54 L1216.73 1544.97 Q1216.73 1540.93 1214.05 1538.73 Q1211.41 1536.5 1206.6 1536.5 Q1203.55 1536.5 1200.65 1537.23 Q1197.76 1537.97 1195.08 1539.43 L1195.08 1534.02 Q1198.3 1532.78 1201.32 1532.17 Q1204.34 1531.54 1207.21 1531.54 Q1214.94 1531.54 1218.76 1535.55 Q1222.58 1539.56 1222.58 1547.71 Z" fill="#000000" fill-rule="nonzero" fill-opacity="1" /><path clip-path="url(#clip770)" d="M1240.44 1522.27 L1240.44 1532.4 L1252.5 1532.4 L1252.5 1536.95 L1240.44 1536.95 L1240.44 1556.3 Q1240.44 1560.66 1241.62 1561.9 Q1242.82 1563.14 1246.48 1563.14 L1252.5 1563.14 L1252.5 1568.04 L1246.48 1568.04 Q1239.71 1568.04 1237.13 1565.53 Q1234.55 1562.98 1234.55 1556.3 L1234.55 1536.95 L1230.25 1536.95 L1230.25 1532.4 L1234.55 1532.4 L1234.55 1522.27 L1240.44 1522.27 Z" fill="#000000" fill-rule="nonzero" fill-opacity="1" /><path clip-path="url(#clip770)" d="M1260.2 1532.4 L1266.06 1532.4 L1266.06 1568.04 L1260.2 1568.04 L1260.2 1532.4 M1260.2 1518.52 L1266.06 1518.52 L1266.06 1525.93 L1260.2 1525.93 L1260.2 1518.52 Z" fill="#000000" fill-rule="nonzero" fill-opacity="1" /><path clip-path="url(#clip770)" d="M1292.13 1536.5 Q1287.42 1536.5 1284.68 1540.19 Q1281.94 1543.85 1281.94 1550.25 Q1281.94 1556.65 1284.65 1560.34 Q1287.38 1564 1292.13 1564 Q1296.81 1564 1299.54 1560.31 Q1302.28 1556.62 1302.28 1550.25 Q1302.28 1543.92 1299.54 1540.23 Q1296.81 1536.5 1292.13 1536.5 M1292.13 1531.54 Q1299.77 1531.54 1304.13 1536.5 Q1308.49 1541.47 1308.49 1550.25 Q1308.49 1559 1304.13 1564 Q1299.77 1568.97 1292.13 1568.97 Q1284.46 1568.97 1280.1 1564 Q1275.77 1559 1275.77 1550.25 Q1275.77 1541.47 1280.1 1536.5 Q1284.46 1531.54 1292.13 1531.54 Z" fill="#000000" fill-rule="nonzero" fill-opacity="1" /><path clip-path="url(#clip770)" d="M1347.83 1546.53 L1347.83 1568.04 L1341.97 1568.04 L1341.97 1546.72 Q1341.97 1541.66 1340 1539.14 Q1338.02 1536.63 1334.08 1536.63 Q1329.33 1536.63 1326.6 1539.65 Q1323.86 1542.68 1323.86 1547.9 L1323.86 1568.04 L1317.97 1568.04 L1317.97 1532.4 L1323.86 1532.4 L1323.86 1537.93 Q1325.96 1534.72 1328.79 1533.13 Q1331.66 1531.54 1335.38 1531.54 Q1341.52 1531.54 1344.68 1535.36 Q1347.83 1539.14 1347.83 1546.53 Z" fill="#000000" fill-rule="nonzero" fill-opacity="1" /><path clip-path="url(#clip770)" d="M1382.23 1533.45 L1382.23 1538.98 Q1379.75 1537.71 1377.08 1537.07 Q1374.4 1536.44 1371.54 1536.44 Q1367.18 1536.44 1364.98 1537.77 Q1362.82 1539.11 1362.82 1541.79 Q1362.82 1543.82 1364.38 1545 Q1365.94 1546.15 1370.65 1547.2 L1372.65 1547.64 Q1378.89 1548.98 1381.5 1551.43 Q1384.14 1553.85 1384.14 1558.21 Q1384.14 1563.17 1380.2 1566.07 Q1376.28 1568.97 1369.41 1568.97 Q1366.54 1568.97 1363.42 1568.39 Q1360.34 1567.85 1356.9 1566.74 L1356.9 1560.69 Q1360.14 1562.38 1363.3 1563.24 Q1366.45 1564.07 1369.53 1564.07 Q1373.67 1564.07 1375.9 1562.66 Q1378.13 1561.23 1378.13 1558.65 Q1378.13 1556.27 1376.5 1554.99 Q1374.91 1553.72 1369.47 1552.54 L1367.43 1552.07 Q1361.99 1550.92 1359.57 1548.56 Q1357.15 1546.18 1357.15 1542.04 Q1357.15 1537.01 1360.72 1534.27 Q1364.28 1531.54 1370.84 1531.54 Q1374.09 1531.54 1376.95 1532.01 Q1379.81 1532.49 1382.23 1533.45 Z" fill="#000000" fill-rule="nonzero" fill-opacity="1" /><path clip-path="url(#clip770)" d="M1403.88 1520.52 L1409.29 1520.52 L1392.74 1574.09 L1387.33 1574.09 L1403.88 1520.52 Z" fill="#000000" fill-rule="nonzero" fill-opacity="1" /><path clip-path="url(#clip770)" d="M1417.37 1562.63 L1427.88 1562.63 L1427.88 1526.38 L1416.45 1528.67 L1416.45 1522.82 L1427.81 1520.52 L1434.24 1520.52 L1434.24 1562.63 L1444.74 1562.63 L1444.74 1568.04 L1417.37 1568.04 L1417.37 1562.63 Z" fill="#000000" fill-rule="nonzero" fill-opacity="1" /><path clip-path="url(#clip770)" d="M1471.48 1524.76 Q1466.52 1524.76 1464 1529.66 Q1461.52 1534.53 1461.52 1544.33 Q1461.52 1554.1 1464 1559 Q1466.52 1563.87 1471.48 1563.87 Q1476.48 1563.87 1478.96 1559 Q1481.47 1554.1 1481.47 1544.33 Q1481.47 1534.53 1478.96 1529.66 Q1476.48 1524.76 1471.48 1524.76 M1471.48 1519.66 Q1479.47 1519.66 1483.67 1526 Q1487.9 1532.3 1487.9 1544.33 Q1487.9 1556.33 1483.67 1562.66 Q1479.47 1568.97 1471.48 1568.97 Q1463.49 1568.97 1459.26 1562.66 Q1455.06 1556.33 1455.06 1544.33 Q1455.06 1532.3 1459.26 1526 Q1463.49 1519.66 1471.48 1519.66 Z" fill="#000000" fill-rule="nonzero" fill-opacity="1" /><path clip-path="url(#clip770)" d="M1512.95 1524.76 Q1507.99 1524.76 1505.47 1529.66 Q1502.99 1534.53 1502.99 1544.33 Q1502.99 1554.1 1505.47 1559 Q1507.99 1563.87 1512.95 1563.87 Q1517.95 1563.87 1520.43 1559 Q1522.95 1554.1 1522.95 1544.33 Q1522.95 1534.53 1520.43 1529.66 Q1517.95 1524.76 1512.95 1524.76 M1512.95 1519.66 Q1520.94 1519.66 1525.14 1526 Q1529.38 1532.3 1529.38 1544.33 Q1529.38 1556.33 1525.14 1562.66 Q1520.94 1568.97 1512.95 1568.97 Q1504.96 1568.97 1500.73 1562.66 Q1496.53 1556.33 1496.53 1544.33 Q1496.53 1532.3 1500.73 1526 Q1504.96 1519.66 1512.95 1519.66 Z" fill="#000000" fill-rule="nonzero" fill-opacity="1" /><path clip-path="url(#clip770)" d="M1554.43 1524.76 Q1549.46 1524.76 1546.95 1529.66 Q1544.46 1534.53 1544.46 1544.33 Q1544.46 1554.1 1546.95 1559 Q1549.46 1563.87 1554.43 1563.87 Q1559.42 1563.87 1561.91 1559 Q1564.42 1554.1 1564.42 1544.33 Q1564.42 1534.53 1561.91 1529.66 Q1559.42 1524.76 1554.43 1524.76 M1554.43 1519.66 Q1562.41 1519.66 1566.62 1526 Q1570.85 1532.3 1570.85 1544.33 Q1570.85 1556.33 1566.62 1562.66 Q1562.41 1568.97 1554.43 1568.97 Q1546.44 1568.97 1542.2 1562.66 Q1538 1556.33 1538 1544.33 Q1538 1532.3 1542.2 1526 Q1546.44 1519.66 1554.43 1519.66 Z" fill="#000000" fill-rule="nonzero" fill-opacity="1" /><path clip-path="url(#clip770)" d="M1595.9 1524.76 Q1590.93 1524.76 1588.42 1529.66 Q1585.94 1534.53 1585.94 1544.33 Q1585.94 1554.1 1588.42 1559 Q1590.93 1563.87 1595.9 1563.87 Q1600.9 1563.87 1603.38 1559 Q1605.89 1554.1 1605.89 1544.33 Q1605.89 1534.53 1603.38 1529.66 Q1600.9 1524.76 1595.9 1524.76 M1595.9 1519.66 Q1603.89 1519.66 1608.09 1526 Q1612.32 1532.3 1612.32 1544.33 Q1612.32 1556.33 1608.09 1562.66 Q1603.89 1568.97 1595.9 1568.97 Q1587.91 1568.97 1583.68 1562.66 Q1579.48 1556.33 1579.48 1544.33 Q1579.48 1532.3 1583.68 1526 Q1587.91 1519.66 1595.9 1519.66 Z" fill="#000000" fill-rule="nonzero" fill-opacity="1" /><path clip-path="url(#clip770)" d="M1637.37 1524.76 Q1632.41 1524.76 1629.89 1529.66 Q1627.41 1534.53 1627.41 1544.33 Q1627.41 1554.1 1629.89 1559 Q1632.41 1563.87 1637.37 1563.87 Q1642.37 1563.87 1644.85 1559 Q1647.37 1554.1 1647.37 1544.33 Q1647.37 1534.53 1644.85 1529.66 Q1642.37 1524.76 1637.37 1524.76 M1637.37 1519.66 Q1645.36 1519.66 1649.56 1526 Q1653.79 1532.3 1653.79 1544.33 Q1653.79 1556.33 1649.56 1562.66 Q1645.36 1568.97 1637.37 1568.97 Q1629.38 1568.97 1625.15 1562.66 Q1620.95 1556.33 1620.95 1544.33 Q1620.95 1532.3 1625.15 1526 Q1629.38 1519.66 1637.37 1519.66 Z" fill="#000000" fill-rule="nonzero" fill-opacity="1" /><polyline clip-path="url(#clip770)" style="stroke:#000000; stroke-linecap:round; stroke-linejoin:round; stroke-width:4; stroke-opacity:1; fill:none" points="232.389,1423.18 232.389,123.472 "/>
<polyline clip-path="url(#clip770)" style="stroke:#000000; stroke-linecap:round; stroke-linejoin:round; stroke-width:4; stroke-opacity:1; fill:none" points="232.389,1386.4 251.287,1386.4 "/>
<polyline clip-path="url(#clip770)" style="stroke:#000000; stroke-linecap:round; stroke-linejoin:round; stroke-width:4; stroke-opacity:1; fill:none" points="232.389,1079.03 251.287,1079.03 "/>
<polyline clip-path="url(#clip770)" style="stroke:#000000; stroke-linecap:round; stroke-linejoin:round; stroke-width:4; stroke-opacity:1; fill:none" points="232.389,771.661 251.287,771.661 "/>
<polyline clip-path="url(#clip770)" style="stroke:#000000; stroke-linecap:round; stroke-linejoin:round; stroke-width:4; stroke-opacity:1; fill:none" points="232.389,464.293 251.287,464.293 "/>
<polyline clip-path="url(#clip770)" style="stroke:#000000; stroke-linecap:round; stroke-linejoin:round; stroke-width:4; stroke-opacity:1; fill:none" points="232.389,156.925 251.287,156.925 "/>
<path clip-path="url(#clip770)" d="M184.445 1372.19 Q180.834 1372.19 179.005 1375.76 Q177.2 1379.3 177.2 1386.43 Q177.2 1393.54 179.005 1397.1 Q180.834 1400.64 184.445 1400.64 Q188.079 1400.64 189.885 1397.1 Q191.713 1393.54 191.713 1386.43 Q191.713 1379.3 189.885 1375.76 Q188.079 1372.19 184.445 1372.19 M184.445 1368.49 Q190.255 1368.49 193.311 1373.1 Q196.389 1377.68 196.389 1386.43 Q196.389 1395.16 193.311 1399.76 Q190.255 1404.35 184.445 1404.35 Q178.635 1404.35 175.556 1399.76 Q172.501 1395.16 172.501 1386.43 Q172.501 1377.68 175.556 1373.1 Q178.635 1368.49 184.445 1368.49 Z" fill="#000000" fill-rule="nonzero" fill-opacity="1" /><path clip-path="url(#clip770)" d="M149.306 1092.37 L165.626 1092.37 L165.626 1096.31 L143.681 1096.31 L143.681 1092.37 Q146.343 1089.62 150.927 1084.99 Q155.533 1080.34 156.714 1078.99 Q158.959 1076.47 159.839 1074.73 Q160.741 1072.97 160.741 1071.29 Q160.741 1068.53 158.797 1066.79 Q156.876 1065.06 153.774 1065.06 Q151.575 1065.06 149.121 1065.82 Q146.691 1066.59 143.913 1068.14 L143.913 1063.41 Q146.737 1062.28 149.191 1061.7 Q151.644 1061.12 153.681 1061.12 Q159.052 1061.12 162.246 1063.81 Q165.44 1066.49 165.44 1070.98 Q165.44 1073.11 164.63 1075.04 Q163.843 1076.93 161.737 1079.53 Q161.158 1080.2 158.056 1083.41 Q154.954 1086.61 149.306 1092.37 Z" fill="#000000" fill-rule="nonzero" fill-opacity="1" /><path clip-path="url(#clip770)" d="M175.487 1061.75 L193.843 1061.75 L193.843 1065.68 L179.769 1065.68 L179.769 1074.16 Q180.788 1073.81 181.806 1073.65 Q182.825 1073.46 183.843 1073.46 Q189.63 1073.46 193.01 1076.63 Q196.389 1079.8 196.389 1085.22 Q196.389 1090.8 192.917 1093.9 Q189.445 1096.98 183.126 1096.98 Q180.95 1096.98 178.681 1096.61 Q176.436 1096.24 174.028 1095.5 L174.028 1090.8 Q176.112 1091.93 178.334 1092.49 Q180.556 1093.04 183.033 1093.04 Q187.038 1093.04 189.375 1090.94 Q191.713 1088.83 191.713 1085.22 Q191.713 1081.61 189.375 1079.5 Q187.038 1077.4 183.033 1077.4 Q181.158 1077.4 179.283 1077.81 Q177.431 1078.23 175.487 1079.11 L175.487 1061.75 Z" fill="#000000" fill-rule="nonzero" fill-opacity="1" /><path clip-path="url(#clip770)" d="M144.329 754.381 L162.686 754.381 L162.686 758.316 L148.612 758.316 L148.612 766.788 Q149.63 766.441 150.649 766.279 Q151.667 766.093 152.686 766.093 Q158.473 766.093 161.852 769.265 Q165.232 772.436 165.232 777.853 Q165.232 783.431 161.76 786.533 Q158.288 789.612 151.968 789.612 Q149.792 789.612 147.524 789.241 Q145.279 788.871 142.871 788.13 L142.871 783.431 Q144.954 784.566 147.177 785.121 Q149.399 785.677 151.876 785.677 Q155.88 785.677 158.218 783.57 Q160.556 781.464 160.556 777.853 Q160.556 774.242 158.218 772.135 Q155.88 770.029 151.876 770.029 Q150.001 770.029 148.126 770.445 Q146.274 770.862 144.329 771.742 L144.329 754.381 Z" fill="#000000" fill-rule="nonzero" fill-opacity="1" /><path clip-path="url(#clip770)" d="M184.445 757.459 Q180.834 757.459 179.005 761.024 Q177.2 764.566 177.2 771.695 Q177.2 778.802 179.005 782.366 Q180.834 785.908 184.445 785.908 Q188.079 785.908 189.885 782.366 Q191.713 778.802 191.713 771.695 Q191.713 764.566 189.885 761.024 Q188.079 757.459 184.445 757.459 M184.445 753.756 Q190.255 753.756 193.311 758.362 Q196.389 762.945 196.389 771.695 Q196.389 780.422 193.311 785.028 Q190.255 789.612 184.445 789.612 Q178.635 789.612 175.556 785.028 Q172.501 780.422 172.501 771.695 Q172.501 762.945 175.556 758.362 Q178.635 753.756 184.445 753.756 Z" fill="#000000" fill-rule="nonzero" fill-opacity="1" /><path clip-path="url(#clip770)" d="M144.098 447.013 L166.32 447.013 L166.32 449.004 L153.774 481.573 L148.89 481.573 L160.695 450.948 L144.098 450.948 L144.098 447.013 Z" fill="#000000" fill-rule="nonzero" fill-opacity="1" /><path clip-path="url(#clip770)" d="M175.487 447.013 L193.843 447.013 L193.843 450.948 L179.769 450.948 L179.769 459.42 Q180.788 459.073 181.806 458.911 Q182.825 458.726 183.843 458.726 Q189.63 458.726 193.01 461.897 Q196.389 465.068 196.389 470.485 Q196.389 476.064 192.917 479.166 Q189.445 482.244 183.126 482.244 Q180.95 482.244 178.681 481.874 Q176.436 481.503 174.028 480.763 L174.028 476.064 Q176.112 477.198 178.334 477.753 Q180.556 478.309 183.033 478.309 Q187.038 478.309 189.375 476.203 Q191.713 474.096 191.713 470.485 Q191.713 466.874 189.375 464.767 Q187.038 462.661 183.033 462.661 Q181.158 462.661 179.283 463.078 Q177.431 463.494 175.487 464.374 L175.487 447.013 Z" fill="#000000" fill-rule="nonzero" fill-opacity="1" /><path clip-path="url(#clip770)" d="M114.931 170.27 L122.57 170.27 L122.57 143.905 L114.26 145.571 L114.26 141.312 L122.524 139.645 L127.2 139.645 L127.2 170.27 L134.839 170.27 L134.839 174.205 L114.931 174.205 L114.931 170.27 Z" fill="#000000" fill-rule="nonzero" fill-opacity="1" /><path clip-path="url(#clip770)" d="M154.283 142.724 Q150.672 142.724 148.843 146.289 Q147.038 149.83 147.038 156.96 Q147.038 164.067 148.843 167.631 Q150.672 171.173 154.283 171.173 Q157.917 171.173 159.723 167.631 Q161.552 164.067 161.552 156.96 Q161.552 149.83 159.723 146.289 Q157.917 142.724 154.283 142.724 M154.283 139.02 Q160.093 139.02 163.149 143.627 Q166.227 148.21 166.227 156.96 Q166.227 165.687 163.149 170.293 Q160.093 174.877 154.283 174.877 Q148.473 174.877 145.394 170.293 Q142.339 165.687 142.339 156.96 Q142.339 148.21 145.394 143.627 Q148.473 139.02 154.283 139.02 Z" fill="#000000" fill-rule="nonzero" fill-opacity="1" /><path clip-path="url(#clip770)" d="M184.445 142.724 Q180.834 142.724 179.005 146.289 Q177.2 149.83 177.2 156.96 Q177.2 164.067 179.005 167.631 Q180.834 171.173 184.445 171.173 Q188.079 171.173 189.885 167.631 Q191.713 164.067 191.713 156.96 Q191.713 149.83 189.885 146.289 Q188.079 142.724 184.445 142.724 M184.445 139.02 Q190.255 139.02 193.311 143.627 Q196.389 148.21 196.389 156.96 Q196.389 165.687 193.311 170.293 Q190.255 174.877 184.445 174.877 Q178.635 174.877 175.556 170.293 Q172.501 165.687 172.501 156.96 Q172.501 148.21 175.556 143.627 Q178.635 139.02 184.445 139.02 Z" fill="#000000" fill-rule="nonzero" fill-opacity="1" /><path clip-path="url(#clip770)" d="M71.9613 768.854 L59.771 773.597 L77.5949 783.368 L77.5949 790.275 L52.3867 776.461 L37.3955 782.254 Q33.3851 783.813 33.3851 788.715 L33.3851 790.275 L28.3562 790.275 L28.4199 788.047 Q28.6427 779.835 33.958 777.766 L46.1484 773.055 L28.3244 763.284 L28.3244 756.377 L53.5326 770.191 L68.5238 764.398 Q72.5342 762.838 72.5342 757.937 L72.5342 756.377 L77.5631 756.377 L77.4995 758.605 Q77.2767 766.817 71.9613 768.854 Z" fill="#000000" fill-rule="nonzero" fill-opacity="1" /><path clip-path="url(#clip770)" d="M416.018 12.096 L428.211 12.096 L443.645 53.2532 L459.16 12.096 L471.353 12.096 L471.353 72.576 L463.373 72.576 L463.373 19.4686 L447.777 60.9499 L439.553 60.9499 L423.957 19.4686 L423.957 72.576 L416.018 72.576 L416.018 12.096 Z" fill="#000000" fill-rule="nonzero" fill-opacity="1" /><path clip-path="url(#clip770)" d="M507.892 49.7694 Q498.859 49.7694 495.375 51.8354 Q491.891 53.9013 491.891 58.8839 Q491.891 62.8538 494.484 65.2034 Q497.117 67.5124 501.613 67.5124 Q507.811 67.5124 511.538 63.1374 Q515.305 58.7219 515.305 51.4303 L515.305 49.7694 L507.892 49.7694 M522.759 46.6907 L522.759 72.576 L515.305 72.576 L515.305 65.6895 Q512.753 69.8214 508.945 71.8063 Q505.138 73.7508 499.628 73.7508 Q492.661 73.7508 488.529 69.8619 Q484.437 65.9325 484.437 59.3701 Q484.437 51.7138 489.542 47.825 Q494.686 43.9361 504.854 43.9361 L515.305 43.9361 L515.305 43.2069 Q515.305 38.0623 511.903 35.2672 Q508.54 32.4315 502.424 32.4315 Q498.535 32.4315 494.848 33.3632 Q491.162 34.295 487.759 36.1584 L487.759 29.2718 Q491.851 27.692 495.699 26.9223 Q499.547 26.1121 503.193 26.1121 Q513.037 26.1121 517.898 31.2163 Q522.759 36.3204 522.759 46.6907 Z" fill="#000000" fill-rule="nonzero" fill-opacity="1" /><path clip-path="url(#clip770)" d="M567.967 49.3643 Q567.967 41.2625 564.605 36.8065 Q561.283 32.3505 555.247 32.3505 Q549.252 32.3505 545.89 36.8065 Q542.568 41.2625 542.568 49.3643 Q542.568 57.4256 545.89 61.8816 Q549.252 66.3376 555.247 66.3376 Q561.283 66.3376 564.605 61.8816 Q567.967 57.4256 567.967 49.3643 M575.421 66.9452 Q575.421 78.5308 570.276 84.1616 Q565.132 89.8329 554.518 89.8329 Q550.589 89.8329 547.105 89.2252 Q543.621 88.6581 540.34 87.4428 L540.34 80.1917 Q543.621 81.9741 546.821 82.8248 Q550.022 83.6755 553.343 83.6755 Q560.676 83.6755 564.321 79.8271 Q567.967 76.0193 567.967 68.282 L567.967 64.5957 Q565.658 68.6061 562.053 70.5911 Q558.448 72.576 553.424 72.576 Q545.08 72.576 539.975 66.2161 Q534.871 59.8562 534.871 49.3643 Q534.871 38.832 539.975 32.472 Q545.08 26.1121 553.424 26.1121 Q558.448 26.1121 562.053 28.0971 Q565.658 30.082 567.967 34.0924 L567.967 27.2059 L575.421 27.2059 L575.421 66.9452 Z" fill="#000000" fill-rule="nonzero" fill-opacity="1" /><path clip-path="url(#clip770)" d="M628.488 45.1919 L628.488 72.576 L621.034 72.576 L621.034 45.4349 Q621.034 38.994 618.522 35.7938 Q616.011 32.5936 610.988 32.5936 Q604.952 32.5936 601.468 36.4419 Q597.984 40.2903 597.984 46.9338 L597.984 72.576 L590.49 72.576 L590.49 27.2059 L597.984 27.2059 L597.984 34.2544 Q600.658 30.163 604.263 28.1376 Q607.909 26.1121 612.649 26.1121 Q620.467 26.1121 624.477 30.9732 Q628.488 35.7938 628.488 45.1919 Z" fill="#000000" fill-rule="nonzero" fill-opacity="1" /><path clip-path="url(#clip770)" d="M682.162 48.0275 L682.162 51.6733 L647.891 51.6733 Q648.378 59.3701 652.51 63.421 Q656.682 67.4314 664.095 67.4314 Q668.389 67.4314 672.399 66.3781 Q676.45 65.3249 680.42 63.2184 L680.42 70.267 Q676.41 71.9684 672.197 72.8596 Q667.984 73.7508 663.649 73.7508 Q652.793 73.7508 646.433 67.4314 Q640.114 61.1119 640.114 50.3365 Q640.114 39.1965 646.109 32.6746 Q652.145 26.1121 662.353 26.1121 Q671.508 26.1121 676.815 32.0264 Q682.162 37.9003 682.162 48.0275 M674.708 45.84 Q674.627 39.7232 671.265 36.0774 Q667.943 32.4315 662.434 32.4315 Q656.196 32.4315 652.428 35.9558 Q648.702 39.4801 648.135 45.8805 L674.708 45.84 Z" fill="#000000" fill-rule="nonzero" fill-opacity="1" /><path clip-path="url(#clip770)" d="M701.769 14.324 L701.769 27.2059 L717.121 27.2059 L717.121 32.9987 L701.769 32.9987 L701.769 57.6282 Q701.769 63.1779 703.267 64.7578 Q704.807 66.3376 709.465 66.3376 L717.121 66.3376 L717.121 72.576 L709.465 72.576 Q700.837 72.576 697.556 69.3758 Q694.274 66.1351 694.274 57.6282 L694.274 32.9987 L688.806 32.9987 L688.806 27.2059 L694.274 27.2059 L694.274 14.324 L701.769 14.324 Z" fill="#000000" fill-rule="nonzero" fill-opacity="1" /><path clip-path="url(#clip770)" d="M726.925 27.2059 L734.378 27.2059 L734.378 72.576 L726.925 72.576 L726.925 27.2059 M726.925 9.54393 L734.378 9.54393 L734.378 18.9825 L726.925 18.9825 L726.925 9.54393 Z" fill="#000000" fill-rule="nonzero" fill-opacity="1" /><path clip-path="url(#clip770)" d="M782.625 28.9478 L782.625 35.9153 Q779.465 34.1734 776.265 33.3227 Q773.105 32.4315 769.864 32.4315 Q762.613 32.4315 758.603 37.0496 Q754.592 41.6271 754.592 49.9314 Q754.592 58.2358 758.603 62.8538 Q762.613 67.4314 769.864 67.4314 Q773.105 67.4314 776.265 66.5807 Q779.465 65.6895 782.625 63.9476 L782.625 70.8341 Q779.505 72.2924 776.143 73.0216 Q772.821 73.7508 769.054 73.7508 Q758.805 73.7508 752.769 67.3098 Q746.734 60.8689 746.734 49.9314 Q746.734 38.832 752.81 32.472 Q758.927 26.1121 769.54 26.1121 Q772.983 26.1121 776.265 26.8413 Q779.546 27.5299 782.625 28.9478 Z" fill="#000000" fill-rule="nonzero" fill-opacity="1" /><path clip-path="url(#clip770)" d="M850.882 28.5427 L850.882 35.5912 Q847.723 33.9709 844.32 33.1607 Q840.917 32.3505 837.271 32.3505 Q831.722 32.3505 828.926 34.0519 Q826.172 35.7533 826.172 39.156 Q826.172 41.7486 828.157 43.2475 Q830.142 44.7058 836.137 46.0426 L838.689 46.6097 Q846.629 48.3111 849.951 51.4303 Q853.313 54.509 853.313 60.0587 Q853.313 66.3781 848.29 70.0644 Q843.307 73.7508 834.557 73.7508 Q830.911 73.7508 826.941 73.0216 Q823.012 72.3329 818.637 70.9151 L818.637 63.2184 Q822.769 65.3654 826.779 66.4591 Q830.79 67.5124 834.719 67.5124 Q839.985 67.5124 842.821 65.73 Q845.657 63.9071 845.657 60.6258 Q845.657 57.5877 843.591 55.9673 Q841.565 54.3469 834.638 52.8481 L832.046 52.2405 Q825.119 50.7821 822.04 47.7845 Q818.961 44.7463 818.961 39.4801 Q818.961 33.0797 823.498 29.5959 Q828.035 26.1121 836.38 26.1121 Q840.512 26.1121 844.158 26.7198 Q847.804 27.3274 850.882 28.5427 Z" fill="#000000" fill-rule="nonzero" fill-opacity="1" /><path clip-path="url(#clip770)" d="M864.412 54.671 L864.412 27.2059 L871.866 27.2059 L871.866 54.3874 Q871.866 60.8284 874.378 64.0691 Q876.889 67.2693 881.912 67.2693 Q887.948 67.2693 891.432 63.421 Q894.956 59.5726 894.956 52.9291 L894.956 27.2059 L902.41 27.2059 L902.41 72.576 L894.956 72.576 L894.956 65.6084 Q892.242 69.7404 888.637 71.7658 Q885.072 73.7508 880.332 73.7508 Q872.514 73.7508 868.463 68.8897 Q864.412 64.0286 864.412 54.671 M883.168 26.1121 L883.168 26.1121 Z" fill="#000000" fill-rule="nonzero" fill-opacity="1" /><path clip-path="url(#clip770)" d="M946.686 28.5427 L946.686 35.5912 Q943.526 33.9709 940.124 33.1607 Q936.721 32.3505 933.075 32.3505 Q927.525 32.3505 924.73 34.0519 Q921.976 35.7533 921.976 39.156 Q921.976 41.7486 923.961 43.2475 Q925.946 44.7058 931.941 46.0426 L934.493 46.6097 Q942.433 48.3111 945.754 51.4303 Q949.117 54.509 949.117 60.0587 Q949.117 66.3781 944.094 70.0644 Q939.111 73.7508 930.361 73.7508 Q926.715 73.7508 922.745 73.0216 Q918.816 72.3329 914.441 70.9151 L914.441 63.2184 Q918.573 65.3654 922.583 66.4591 Q926.594 67.5124 930.523 67.5124 Q935.789 67.5124 938.625 65.73 Q941.461 63.9071 941.461 60.6258 Q941.461 57.5877 939.395 55.9673 Q937.369 54.3469 930.442 52.8481 L927.849 52.2405 Q920.922 50.7821 917.844 47.7845 Q914.765 44.7463 914.765 39.4801 Q914.765 33.0797 919.302 29.5959 Q923.839 26.1121 932.184 26.1121 Q936.316 26.1121 939.962 26.7198 Q943.607 27.3274 946.686 28.5427 Z" fill="#000000" fill-rule="nonzero" fill-opacity="1" /><path clip-path="url(#clip770)" d="M993.636 28.9478 L993.636 35.9153 Q990.476 34.1734 987.276 33.3227 Q984.117 32.4315 980.876 32.4315 Q973.625 32.4315 969.614 37.0496 Q965.604 41.6271 965.604 49.9314 Q965.604 58.2358 969.614 62.8538 Q973.625 67.4314 980.876 67.4314 Q984.117 67.4314 987.276 66.5807 Q990.476 65.6895 993.636 63.9476 L993.636 70.8341 Q990.517 72.2924 987.155 73.0216 Q983.833 73.7508 980.066 73.7508 Q969.817 73.7508 963.781 67.3098 Q957.745 60.8689 957.745 49.9314 Q957.745 38.832 963.821 32.472 Q969.938 26.1121 980.552 26.1121 Q983.995 26.1121 987.276 26.8413 Q990.557 27.5299 993.636 28.9478 Z" fill="#000000" fill-rule="nonzero" fill-opacity="1" /><path clip-path="url(#clip770)" d="M1045.41 48.0275 L1045.41 51.6733 L1011.14 51.6733 Q1011.62 59.3701 1015.75 63.421 Q1019.93 67.4314 1027.34 67.4314 Q1031.63 67.4314 1035.64 66.3781 Q1039.69 65.3249 1043.66 63.2184 L1043.66 70.267 Q1039.65 71.9684 1035.44 72.8596 Q1031.23 73.7508 1026.89 73.7508 Q1016.04 73.7508 1009.68 67.4314 Q1003.36 61.1119 1003.36 50.3365 Q1003.36 39.1965 1009.35 32.6746 Q1015.39 26.1121 1025.6 26.1121 Q1034.75 26.1121 1040.06 32.0264 Q1045.41 37.9003 1045.41 48.0275 M1037.95 45.84 Q1037.87 39.7232 1034.51 36.0774 Q1031.19 32.4315 1025.68 32.4315 Q1019.44 32.4315 1015.67 35.9558 Q1011.95 39.4801 1011.38 45.8805 L1037.95 45.84 Z" fill="#000000" fill-rule="nonzero" fill-opacity="1" /><path clip-path="url(#clip770)" d="M1064.85 65.7705 L1064.85 89.8329 L1057.36 89.8329 L1057.36 27.2059 L1064.85 27.2059 L1064.85 34.0924 Q1067.2 30.0415 1070.77 28.0971 Q1074.37 26.1121 1079.35 26.1121 Q1087.62 26.1121 1092.76 32.6746 Q1097.95 39.2371 1097.95 49.9314 Q1097.95 60.6258 1092.76 67.1883 Q1087.62 73.7508 1079.35 73.7508 Q1074.37 73.7508 1070.77 71.8063 Q1067.2 69.8214 1064.85 65.7705 M1090.21 49.9314 Q1090.21 41.7081 1086.81 37.0496 Q1083.44 32.3505 1077.53 32.3505 Q1071.62 32.3505 1068.21 37.0496 Q1064.85 41.7081 1064.85 49.9314 Q1064.85 58.1548 1068.21 62.8538 Q1071.62 67.5124 1077.53 67.5124 Q1083.44 67.5124 1086.81 62.8538 Q1090.21 58.1548 1090.21 49.9314 Z" fill="#000000" fill-rule="nonzero" fill-opacity="1" /><path clip-path="url(#clip770)" d="M1117.67 14.324 L1117.67 27.2059 L1133.03 27.2059 L1133.03 32.9987 L1117.67 32.9987 L1117.67 57.6282 Q1117.67 63.1779 1119.17 64.7578 Q1120.71 66.3376 1125.37 66.3376 L1133.03 66.3376 L1133.03 72.576 L1125.37 72.576 Q1116.74 72.576 1113.46 69.3758 Q1110.18 66.1351 1110.18 57.6282 L1110.18 32.9987 L1104.71 32.9987 L1104.71 27.2059 L1110.18 27.2059 L1110.18 14.324 L1117.67 14.324 Z" fill="#000000" fill-rule="nonzero" fill-opacity="1" /><path clip-path="url(#clip770)" d="M1142.83 27.2059 L1150.28 27.2059 L1150.28 72.576 L1142.83 72.576 L1142.83 27.2059 M1142.83 9.54393 L1150.28 9.54393 L1150.28 18.9825 L1142.83 18.9825 L1142.83 9.54393 Z" fill="#000000" fill-rule="nonzero" fill-opacity="1" /><path clip-path="url(#clip770)" d="M1198.45 49.9314 Q1198.45 41.7081 1195.05 37.0496 Q1191.68 32.3505 1185.77 32.3505 Q1179.86 32.3505 1176.45 37.0496 Q1173.09 41.7081 1173.09 49.9314 Q1173.09 58.1548 1176.45 62.8538 Q1179.86 67.5124 1185.77 67.5124 Q1191.68 67.5124 1195.05 62.8538 Q1198.45 58.1548 1198.45 49.9314 M1173.09 34.0924 Q1175.44 30.0415 1179.01 28.0971 Q1182.61 26.1121 1187.59 26.1121 Q1195.86 26.1121 1201 32.6746 Q1206.19 39.2371 1206.19 49.9314 Q1206.19 60.6258 1201 67.1883 Q1195.86 73.7508 1187.59 73.7508 Q1182.61 73.7508 1179.01 71.8063 Q1175.44 69.8214 1173.09 65.7705 L1173.09 72.576 L1165.6 72.576 L1165.6 9.54393 L1173.09 9.54393 L1173.09 34.0924 Z" fill="#000000" fill-rule="nonzero" fill-opacity="1" /><path clip-path="url(#clip770)" d="M1218.54 27.2059 L1226 27.2059 L1226 72.576 L1218.54 72.576 L1218.54 27.2059 M1218.54 9.54393 L1226 9.54393 L1226 18.9825 L1218.54 18.9825 L1218.54 9.54393 Z" fill="#000000" fill-rule="nonzero" fill-opacity="1" /><path clip-path="url(#clip770)" d="M1241.59 9.54393 L1249.05 9.54393 L1249.05 72.576 L1241.59 72.576 L1241.59 9.54393 Z" fill="#000000" fill-rule="nonzero" fill-opacity="1" /><path clip-path="url(#clip770)" d="M1264.64 27.2059 L1272.1 27.2059 L1272.1 72.576 L1264.64 72.576 L1264.64 27.2059 M1264.64 9.54393 L1272.1 9.54393 L1272.1 18.9825 L1264.64 18.9825 L1264.64 9.54393 Z" fill="#000000" fill-rule="nonzero" fill-opacity="1" /><path clip-path="url(#clip770)" d="M1295.06 14.324 L1295.06 27.2059 L1310.42 27.2059 L1310.42 32.9987 L1295.06 32.9987 L1295.06 57.6282 Q1295.06 63.1779 1296.56 64.7578 Q1298.1 66.3376 1302.76 66.3376 L1310.42 66.3376 L1310.42 72.576 L1302.76 72.576 Q1294.13 72.576 1290.85 69.3758 Q1287.57 66.1351 1287.57 57.6282 L1287.57 32.9987 L1282.1 32.9987 L1282.1 27.2059 L1287.57 27.2059 L1287.57 14.324 L1295.06 14.324 Z" fill="#000000" fill-rule="nonzero" fill-opacity="1" /><path clip-path="url(#clip770)" d="M1339.1 76.7889 Q1335.94 84.8907 1332.94 87.3618 Q1329.94 89.8329 1324.92 89.8329 L1318.96 89.8329 L1318.96 83.5945 L1323.34 83.5945 Q1326.42 83.5945 1328.12 82.1361 Q1329.82 80.6778 1331.89 75.2496 L1333.22 71.8468 L1314.87 27.2059 L1322.77 27.2059 L1336.95 62.6918 L1351.13 27.2059 L1359.03 27.2059 L1339.1 76.7889 Z" fill="#000000" fill-rule="nonzero" fill-opacity="1" /><path clip-path="url(#clip770)" d="M1413.27 32.4315 Q1407.27 32.4315 1403.79 37.1306 Q1400.31 41.7891 1400.31 49.9314 Q1400.31 58.0738 1403.75 62.7728 Q1407.23 67.4314 1413.27 67.4314 Q1419.22 67.4314 1422.71 62.7323 Q1426.19 58.0333 1426.19 49.9314 Q1426.19 41.8701 1422.71 37.1711 Q1419.22 32.4315 1413.27 32.4315 M1413.27 26.1121 Q1422.99 26.1121 1428.54 32.4315 Q1434.09 38.7509 1434.09 49.9314 Q1434.09 61.0714 1428.54 67.4314 Q1422.99 73.7508 1413.27 73.7508 Q1403.51 73.7508 1397.96 67.4314 Q1392.45 61.0714 1392.45 49.9314 Q1392.45 38.7509 1397.96 32.4315 Q1403.51 26.1121 1413.27 26.1121 Z" fill="#000000" fill-rule="nonzero" fill-opacity="1" /><path clip-path="url(#clip770)" d="M1441.1 27.2059 L1449 27.2059 L1463.18 65.2844 L1477.35 27.2059 L1485.25 27.2059 L1468.24 72.576 L1458.11 72.576 L1441.1 27.2059 Z" fill="#000000" fill-rule="nonzero" fill-opacity="1" /><path clip-path="url(#clip770)" d="M1534.35 48.0275 L1534.35 51.6733 L1500.08 51.6733 Q1500.57 59.3701 1504.7 63.421 Q1508.87 67.4314 1516.28 67.4314 Q1520.58 67.4314 1524.59 66.3781 Q1528.64 65.3249 1532.61 63.2184 L1532.61 70.267 Q1528.6 71.9684 1524.39 72.8596 Q1520.17 73.7508 1515.84 73.7508 Q1504.98 73.7508 1498.62 67.4314 Q1492.3 61.1119 1492.3 50.3365 Q1492.3 39.1965 1498.3 32.6746 Q1504.33 26.1121 1514.54 26.1121 Q1523.7 26.1121 1529 32.0264 Q1534.35 37.9003 1534.35 48.0275 M1526.9 45.84 Q1526.82 39.7232 1523.45 36.0774 Q1520.13 32.4315 1514.62 32.4315 Q1508.38 32.4315 1504.62 35.9558 Q1500.89 39.4801 1500.32 45.8805 L1526.9 45.84 Z" fill="#000000" fill-rule="nonzero" fill-opacity="1" /><path clip-path="url(#clip770)" d="M1572.87 34.1734 Q1571.62 33.4443 1570.12 33.1202 Q1568.66 32.7556 1566.88 32.7556 Q1560.56 32.7556 1557.16 36.8875 Q1553.8 40.9789 1553.8 48.6757 L1553.8 72.576 L1546.3 72.576 L1546.3 27.2059 L1553.8 27.2059 L1553.8 34.2544 Q1556.14 30.1225 1559.91 28.1376 Q1563.68 26.1121 1569.07 26.1121 Q1569.84 26.1121 1570.77 26.2337 Q1571.7 26.3147 1572.83 26.5172 L1572.87 34.1734 Z" fill="#000000" fill-rule="nonzero" fill-opacity="1" /><path clip-path="url(#clip770)" d="M1645.87 48.0275 L1645.87 51.6733 L1611.6 51.6733 Q1612.09 59.3701 1616.22 63.421 Q1620.39 67.4314 1627.81 67.4314 Q1632.1 67.4314 1636.11 66.3781 Q1640.16 65.3249 1644.13 63.2184 L1644.13 70.267 Q1640.12 71.9684 1635.91 72.8596 Q1631.69 73.7508 1627.36 73.7508 Q1616.5 73.7508 1610.14 67.4314 Q1603.82 61.1119 1603.82 50.3365 Q1603.82 39.1965 1609.82 32.6746 Q1615.86 26.1121 1626.06 26.1121 Q1635.22 26.1121 1640.53 32.0264 Q1645.87 37.9003 1645.87 48.0275 M1638.42 45.84 Q1638.34 39.7232 1634.98 36.0774 Q1631.65 32.4315 1626.14 32.4315 Q1619.91 32.4315 1616.14 35.9558 Q1612.41 39.4801 1611.84 45.8805 L1638.42 45.84 Z" fill="#000000" fill-rule="nonzero" fill-opacity="1" /><path clip-path="url(#clip770)" d="M1678.73 49.7694 Q1669.69 49.7694 1666.21 51.8354 Q1662.72 53.9013 1662.72 58.8839 Q1662.72 62.8538 1665.32 65.2034 Q1667.95 67.5124 1672.45 67.5124 Q1678.64 67.5124 1682.37 63.1374 Q1686.14 58.7219 1686.14 51.4303 L1686.14 49.7694 L1678.73 49.7694 M1693.59 46.6907 L1693.59 72.576 L1686.14 72.576 L1686.14 65.6895 Q1683.59 69.8214 1679.78 71.8063 Q1675.97 73.7508 1670.46 73.7508 Q1663.49 73.7508 1659.36 69.8619 Q1655.27 65.9325 1655.27 59.3701 Q1655.27 51.7138 1660.37 47.825 Q1665.52 43.9361 1675.69 43.9361 L1686.14 43.9361 L1686.14 43.2069 Q1686.14 38.0623 1682.74 35.2672 Q1679.37 32.4315 1673.26 32.4315 Q1669.37 32.4315 1665.68 33.3632 Q1661.99 34.295 1658.59 36.1584 L1658.59 29.2718 Q1662.68 27.692 1666.53 26.9223 Q1670.38 26.1121 1674.03 26.1121 Q1683.87 26.1121 1688.73 31.2163 Q1693.59 36.3204 1693.59 46.6907 Z" fill="#000000" fill-rule="nonzero" fill-opacity="1" /><path clip-path="url(#clip770)" d="M1741.6 28.9478 L1741.6 35.9153 Q1738.44 34.1734 1735.24 33.3227 Q1732.08 32.4315 1728.83 32.4315 Q1721.58 32.4315 1717.57 37.0496 Q1713.56 41.6271 1713.56 49.9314 Q1713.56 58.2358 1717.57 62.8538 Q1721.58 67.4314 1728.83 67.4314 Q1732.08 67.4314 1735.24 66.5807 Q1738.44 65.6895 1741.6 63.9476 L1741.6 70.8341 Q1738.48 72.2924 1735.11 73.0216 Q1731.79 73.7508 1728.02 73.7508 Q1717.78 73.7508 1711.74 67.3098 Q1705.7 60.8689 1705.7 49.9314 Q1705.7 38.832 1711.78 32.472 Q1717.9 26.1121 1728.51 26.1121 Q1731.95 26.1121 1735.24 26.8413 Q1738.52 27.5299 1741.6 28.9478 Z" fill="#000000" fill-rule="nonzero" fill-opacity="1" /><path clip-path="url(#clip770)" d="M1792.27 45.1919 L1792.27 72.576 L1784.82 72.576 L1784.82 45.4349 Q1784.82 38.994 1782.31 35.7938 Q1779.8 32.5936 1774.77 32.5936 Q1768.74 32.5936 1765.25 36.4419 Q1761.77 40.2903 1761.77 46.9338 L1761.77 72.576 L1754.27 72.576 L1754.27 9.54393 L1761.77 9.54393 L1761.77 34.2544 Q1764.44 30.163 1768.05 28.1376 Q1771.69 26.1121 1776.43 26.1121 Q1784.25 26.1121 1788.26 30.9732 Q1792.27 35.7938 1792.27 45.1919 Z" fill="#000000" fill-rule="nonzero" fill-opacity="1" /><path clip-path="url(#clip770)" d="M1833.51 27.2059 L1840.96 27.2059 L1840.96 72.576 L1833.51 72.576 L1833.51 27.2059 M1833.51 9.54393 L1840.96 9.54393 L1840.96 18.9825 L1833.51 18.9825 L1833.51 9.54393 Z" fill="#000000" fill-rule="nonzero" fill-opacity="1" /><path clip-path="url(#clip770)" d="M1863.93 14.324 L1863.93 27.2059 L1879.29 27.2059 L1879.29 32.9987 L1863.93 32.9987 L1863.93 57.6282 Q1863.93 63.1779 1865.43 64.7578 Q1866.97 66.3376 1871.63 66.3376 L1879.29 66.3376 L1879.29 72.576 L1871.63 72.576 Q1863 72.576 1859.72 69.3758 Q1856.44 66.1351 1856.44 57.6282 L1856.44 32.9987 L1850.97 32.9987 L1850.97 27.2059 L1856.44 27.2059 L1856.44 14.324 L1863.93 14.324 Z" fill="#000000" fill-rule="nonzero" fill-opacity="1" /><path clip-path="url(#clip770)" d="M1927.9 48.0275 L1927.9 51.6733 L1893.63 51.6733 Q1894.11 59.3701 1898.24 63.421 Q1902.42 67.4314 1909.83 67.4314 Q1914.12 67.4314 1918.13 66.3781 Q1922.18 65.3249 1926.15 63.2184 L1926.15 70.267 Q1922.14 71.9684 1917.93 72.8596 Q1913.72 73.7508 1909.38 73.7508 Q1898.53 73.7508 1892.17 67.4314 Q1885.85 61.1119 1885.85 50.3365 Q1885.85 39.1965 1891.84 32.6746 Q1897.88 26.1121 1908.09 26.1121 Q1917.24 26.1121 1922.55 32.0264 Q1927.9 37.9003 1927.9 48.0275 M1920.44 45.84 Q1920.36 39.7232 1917 36.0774 Q1913.68 32.4315 1908.17 32.4315 Q1901.93 32.4315 1898.16 35.9558 Q1894.44 39.4801 1893.87 45.8805 L1920.44 45.84 Z" fill="#000000" fill-rule="nonzero" fill-opacity="1" /><path clip-path="url(#clip770)" d="M1966.42 34.1734 Q1965.16 33.4443 1963.67 33.1202 Q1962.21 32.7556 1960.42 32.7556 Q1954.11 32.7556 1950.7 36.8875 Q1947.34 40.9789 1947.34 48.6757 L1947.34 72.576 L1939.85 72.576 L1939.85 27.2059 L1947.34 27.2059 L1947.34 34.2544 Q1949.69 30.1225 1953.46 28.1376 Q1957.22 26.1121 1962.61 26.1121 Q1963.38 26.1121 1964.31 26.2337 Q1965.25 26.3147 1966.38 26.5172 L1966.42 34.1734 Z" fill="#000000" fill-rule="nonzero" fill-opacity="1" /><path clip-path="url(#clip770)" d="M1994.86 49.7694 Q1985.82 49.7694 1982.34 51.8354 Q1978.86 53.9013 1978.86 58.8839 Q1978.86 62.8538 1981.45 65.2034 Q1984.08 67.5124 1988.58 67.5124 Q1994.78 67.5124 1998.5 63.1374 Q2002.27 58.7219 2002.27 51.4303 L2002.27 49.7694 L1994.86 49.7694 M2009.72 46.6907 L2009.72 72.576 L2002.27 72.576 L2002.27 65.6895 Q1999.72 69.8214 1995.91 71.8063 Q1992.1 73.7508 1986.59 73.7508 Q1979.63 73.7508 1975.49 69.8619 Q1971.4 65.9325 1971.4 59.3701 Q1971.4 51.7138 1976.51 47.825 Q1981.65 43.9361 1991.82 43.9361 L2002.27 43.9361 L2002.27 43.2069 Q2002.27 38.0623 1998.87 35.2672 Q1995.51 32.4315 1989.39 32.4315 Q1985.5 32.4315 1981.81 33.3632 Q1978.13 34.295 1974.72 36.1584 L1974.72 29.2718 Q1978.82 27.692 1982.66 26.9223 Q1986.51 26.1121 1990.16 26.1121 Q2000 26.1121 2004.86 31.2163 Q2009.72 36.3204 2009.72 46.6907 Z" fill="#000000" fill-rule="nonzero" fill-opacity="1" /><path clip-path="url(#clip770)" d="M2032.45 14.324 L2032.45 27.2059 L2047.8 27.2059 L2047.8 32.9987 L2032.45 32.9987 L2032.45 57.6282 Q2032.45 63.1779 2033.95 64.7578 Q2035.49 66.3376 2040.15 66.3376 L2047.8 66.3376 L2047.8 72.576 L2040.15 72.576 Q2031.52 72.576 2028.24 69.3758 Q2024.96 66.1351 2024.96 57.6282 L2024.96 32.9987 L2019.49 32.9987 L2019.49 27.2059 L2024.96 27.2059 L2024.96 14.324 L2032.45 14.324 Z" fill="#000000" fill-rule="nonzero" fill-opacity="1" /><path clip-path="url(#clip770)" d="M2057.61 27.2059 L2065.06 27.2059 L2065.06 72.576 L2057.61 72.576 L2057.61 27.2059 M2057.61 9.54393 L2065.06 9.54393 L2065.06 18.9825 L2057.61 18.9825 L2057.61 9.54393 Z" fill="#000000" fill-rule="nonzero" fill-opacity="1" /><path clip-path="url(#clip770)" d="M2098.24 32.4315 Q2092.24 32.4315 2088.76 37.1306 Q2085.27 41.7891 2085.27 49.9314 Q2085.27 58.0738 2088.72 62.7728 Q2092.2 67.4314 2098.24 67.4314 Q2104.19 67.4314 2107.68 62.7323 Q2111.16 58.0333 2111.16 49.9314 Q2111.16 41.8701 2107.68 37.1711 Q2104.19 32.4315 2098.24 32.4315 M2098.24 26.1121 Q2107.96 26.1121 2113.51 32.4315 Q2119.06 38.7509 2119.06 49.9314 Q2119.06 61.0714 2113.51 67.4314 Q2107.96 73.7508 2098.24 73.7508 Q2088.47 73.7508 2082.92 67.4314 Q2077.42 61.0714 2077.42 49.9314 Q2077.42 38.7509 2082.92 32.4315 Q2088.47 26.1121 2098.24 26.1121 Z" fill="#000000" fill-rule="nonzero" fill-opacity="1" /><path clip-path="url(#clip770)" d="M2169.13 45.1919 L2169.13 72.576 L2161.67 72.576 L2161.67 45.4349 Q2161.67 38.994 2159.16 35.7938 Q2156.65 32.5936 2151.63 32.5936 Q2145.59 32.5936 2142.11 36.4419 Q2138.62 40.2903 2138.62 46.9338 L2138.62 72.576 L2131.13 72.576 L2131.13 27.2059 L2138.62 27.2059 L2138.62 34.2544 Q2141.3 30.163 2144.9 28.1376 Q2148.55 26.1121 2153.29 26.1121 Q2161.11 26.1121 2165.12 30.9732 Q2169.13 35.7938 2169.13 45.1919 Z" fill="#000000" fill-rule="nonzero" fill-opacity="1" /><polyline clip-path="url(#clip772)" style="stroke:#009af9; stroke-linecap:round; stroke-linejoin:round; stroke-width:4; stroke-opacity:1; fill:none" points="292.4,160.256 294.903,165.939 297.407,168.134 299.91,169.797 302.414,174.924 304.918,185.812 307.421,184.027 309.925,189.072 312.428,197.085 314.932,207.074 317.435,208.577 319.939,210.307 322.442,213.746 324.946,223.212 327.45,229.528 329.953,229.051 332.457,227.982 334.96,229.648 337.464,230.248 339.967,229.17 342.471,227.627 344.975,230.85 347.478,236.631 349.982,236.757 352.485,240.179 354.989,242.63 357.492,237.637 359.996,240.949 362.499,237.889 365.003,246.042 367.507,248.174 370.01,250.876 372.514,259.926 375.017,266.289 377.521,268.353 380.024,266.876 382.528,265.849 385.032,266.582 387.535,269.243 390.039,269.69 392.542,270.736 395.046,274.814 397.549,281.144 400.053,286.359 402.556,290.543 405.06,292.333 407.564,298.609 410.067,305.027 412.571,312.286 415.074,321.334 417.578,327.874 420.081,330.637 422.585,329.345 425.088,334.169 427.592,334.169 430.096,339.627 432.599,344.015 435.103,345.169 437.606,358.287 440.11,363.699 442.613,364.911 445.117,368.978 447.621,367.753 450.124,368.569 452.628,372.259 455.131,370.82 457.635,378.689 460.138,380.783 462.642,379.944 465.145,389.472 467.649,399.855 470.153,409.572 472.656,408.236 475.16,408.236 477.663,423.358 480.167,430.504 482.67,427.496 485.174,429.113 487.678,435.399 490.181,443.415 492.685,439.865 495.188,452.269 497.692,452.51 500.195,445.557 502.699,437.745 505.202,438.686 507.706,446.511 510.21,458.571 512.713,464.693 515.217,472.12 517.72,471.125 520.224,477.875 522.727,489.284 525.231,498.555 527.735,496.743 530.238,504.545 532.742,513.23 535.245,512.172 537.749,518.013 540.252,519.347 542.756,532.279 545.259,534.729 547.763,545.162 550.267,547.099 552.77,544.333 555.274,545.162 557.777,542.127 560.281,543.505 562.784,538.282 565.288,537.735 567.792,539.379 570.295,550.432 572.799,556.578 575.302,563.902 577.806,567.874 580.309,581.349 582.813,578.752 585.316,585.985 587.82,579.328 590.324,585.404 592.827,594.16 595.331,605.675 597.834,604.19 600.338,618.243 602.841,623.076 605.345,631.901 607.848,646.068 610.352,664.228 612.856,682.076 615.359,687.232 617.863,690.791 620.366,694.363 622.87,703.179 625.373,702.851 627.877,707.779 630.381,700.886 632.884,711.737 635.388,716.704 637.891,718.365 640.395,725.032 642.898,735.444 645.402,740.177 647.905,747.313 650.409,759.303 652.913,756.552 655.416,765.17 657.92,783.644 660.423,792.808 662.927,787.865 665.43,799.191 667.934,809.9 670.438,811.335 672.941,822.144 675.445,826.493 677.948,834.867 680.452,842.559 682.955,847.342 685.459,842.926 687.962,857.701 690.466,867.389 692.97,875.639 695.473,890 697.977,889.241 700.48,893.422 702.984,909.113 705.487,918.374 707.991,932.763 710.495,942.955 712.998,956.383 715.502,966.729 718.005,977.944 720.509,981.163 723.012,979.955 725.516,979.955 728.019,977.944 730.523,986.811 733.027,994.506 735.53,1003.87 738.034,1013.28 740.537,1013.28 743.041,1021.93 745.544,1026.47 748.048,1042.68 750.552,1047.28 753.055,1058.19 755.559,1070.02 758.062,1084.92 760.566,1081.07 763.069,1072.99 765.573,1087.48 768.076,1112.03 770.58,1115.94 773.084,1116.37 775.587,1110.3 778.091,1122.9 780.594,1139.54 783.098,1146.14 785.601,1147.91 788.105,1148.35 790.609,1153.66 793.112,1153.66 795.616,1165.65 798.119,1172.34 800.623,1179.51 803.126,1181.3 805.63,1184.45 808.133,1185.8 810.637,1203.87 813.141,1208.87 815.644,1225.77 818.148,1234.5 820.651,1237.27 823.155,1243.27 825.658,1243.73 828.162,1253 830.665,1253.93 833.169,1269.32 835.673,1277.28 838.176,1287.64 840.68,1296.14 843.183,1311.82 845.687,1327.12 848.19,1336.26 850.694,1349.78 853.198,1361.44 855.701,1371.2 858.205,1378.05 860.708,1386.4 863.212,1386.4 865.715,1386.4 868.219,1386.4 870.722,1386.4 873.226,1386.4 875.73,1386.4 878.233,1386.4 880.737,1386.4 883.24,1386.4 885.744,1386.4 888.247,1386.4 890.751,1386.4 893.255,1386.4 895.758,1386.4 898.262,1386.4 900.765,1386.4 903.269,1386.4 905.772,1386.4 908.276,1386.4 910.779,1386.4 913.283,1386.4 915.787,1386.4 918.29,1386.4 920.794,1386.4 923.297,1386.4 925.801,1386.4 928.304,1386.4 930.808,1386.4 933.312,1386.4 935.815,1386.4 938.319,1386.4 940.822,1386.4 943.326,1386.4 945.829,1386.4 948.333,1386.4 950.836,1386.4 953.34,1386.4 955.844,1386.4 958.347,1386.4 960.851,1386.4 963.354,1386.4 965.858,1386.4 968.361,1386.4 970.865,1386.4 973.369,1386.4 975.872,1386.4 978.376,1386.4 980.879,1386.4 983.383,1386.4 985.886,1386.4 988.39,1386.4 990.893,1386.4 993.397,1386.4 995.901,1386.4 998.404,1386.4 1000.91,1386.4 1003.41,1386.4 1005.91,1386.4 1008.42,1386.4 1010.92,1386.4 1013.43,1386.4 1015.93,1386.4 1018.43,1386.4 1020.94,1386.4 1023.44,1386.4 1025.94,1386.4 1028.45,1386.4 1030.95,1386.4 1033.45,1386.4 1035.96,1386.4 1038.46,1386.4 1040.96,1386.4 1043.47,1386.4 1045.97,1386.4 1048.48,1386.4 1050.98,1386.4 1053.48,1386.4 1055.99,1386.4 1058.49,1386.4 1060.99,1386.4 1063.5,1386.4 1066,1386.4 1068.5,1386.4 1071.01,1386.4 1073.51,1386.4 1076.01,1386.4 1078.52,1386.4 1081.02,1386.4 1083.53,1386.4 1086.03,1386.4 1088.53,1386.4 1091.04,1386.4 1093.54,1386.4 1096.04,1386.4 1098.55,1386.4 1101.05,1386.4 1103.55,1386.4 1106.06,1386.4 1108.56,1386.4 1111.06,1386.4 1113.57,1386.4 1116.07,1386.4 1118.58,1386.4 1121.08,1386.4 1123.58,1386.4 1126.09,1386.4 1128.59,1386.4 1131.09,1386.4 1133.6,1386.4 1136.1,1386.4 1138.6,1386.4 1141.11,1386.4 1143.61,1386.4 1146.11,1386.4 1148.62,1386.4 1151.12,1386.4 1153.62,1386.4 1156.13,1386.4 1158.63,1386.4 1161.14,1386.4 1163.64,1386.4 1166.14,1386.4 1168.65,1386.4 1171.15,1386.4 1173.65,1386.4 1176.16,1386.4 1178.66,1386.4 1181.16,1386.4 1183.67,1386.4 1186.17,1386.4 1188.67,1386.4 1191.18,1386.4 1193.68,1386.4 1196.19,1386.4 1198.69,1386.4 1201.19,1386.4 1203.7,1386.4 1206.2,1386.4 1208.7,1386.4 1211.21,1386.4 1213.71,1386.4 1216.21,1386.4 1218.72,1386.4 1221.22,1386.4 1223.72,1386.4 1226.23,1386.4 1228.73,1386.4 1231.24,1386.4 1233.74,1386.4 1236.24,1386.4 1238.75,1386.4 1241.25,1386.4 1243.75,1386.4 1246.26,1386.4 1248.76,1386.4 1251.26,1386.4 1253.77,1386.4 1256.27,1386.4 1258.77,1386.4 1261.28,1386.4 1263.78,1386.4 1266.29,1386.4 1268.79,1386.4 1271.29,1386.4 1273.8,1386.4 1276.3,1386.4 1278.8,1386.4 1281.31,1386.4 1283.81,1386.4 1286.31,1386.4 1288.82,1386.4 1291.32,1386.4 1293.82,1386.4 1296.33,1386.4 1298.83,1386.4 1301.34,1386.4 1303.84,1386.4 1306.34,1386.4 1308.85,1386.4 1311.35,1386.4 1313.85,1386.4 1316.36,1386.4 1318.86,1386.4 1321.36,1386.4 1323.87,1386.4 1326.37,1386.4 1328.87,1386.4 1331.38,1386.4 1333.88,1386.4 1336.38,1386.4 1338.89,1386.4 1341.39,1386.4 1343.9,1386.4 1346.4,1386.4 1348.9,1386.4 1351.41,1386.4 1353.91,1386.4 1356.41,1386.4 1358.92,1386.4 1361.42,1386.4 1363.92,1386.4 1366.43,1386.4 1368.93,1386.4 1371.43,1386.4 1373.94,1386.4 1376.44,1386.4 1378.95,1386.4 1381.45,1386.4 1383.95,1386.4 1386.46,1386.4 1388.96,1386.4 1391.46,1386.4 1393.97,1386.4 1396.47,1386.4 1398.97,1386.4 1401.48,1386.4 1403.98,1386.4 1406.48,1386.4 1408.99,1386.4 1411.49,1386.4 1414,1386.4 1416.5,1386.4 1419,1386.4 1421.51,1386.4 1424.01,1386.4 1426.51,1386.4 1429.02,1386.4 1431.52,1386.4 1434.02,1386.4 1436.53,1386.4 1439.03,1386.4 1441.53,1386.4 1444.04,1386.4 1446.54,1386.4 1449.05,1386.4 1451.55,1386.4 1454.05,1386.4 1456.56,1386.4 1459.06,1386.4 1461.56,1386.4 1464.07,1386.4 1466.57,1386.4 1469.07,1386.4 1471.58,1386.4 1474.08,1386.4 1476.58,1386.4 1479.09,1386.4 1481.59,1386.4 1484.1,1386.4 1486.6,1386.4 1489.1,1386.4 1491.61,1386.4 1494.11,1386.4 1496.61,1386.4 1499.12,1386.4 1501.62,1386.4 1504.12,1386.4 1506.63,1386.4 1509.13,1386.4 1511.63,1386.4 1514.14,1386.4 1516.64,1386.4 1519.14,1386.4 1521.65,1386.4 1524.15,1386.4 1526.66,1386.4 1529.16,1386.4 1531.66,1386.4 1534.17,1386.4 1536.67,1386.4 1539.17,1386.4 1541.68,1386.4 1544.18,1386.4 1546.68,1386.4 1549.19,1386.4 1551.69,1386.4 1554.19,1386.4 1556.7,1386.4 1559.2,1386.4 1561.71,1386.4 1564.21,1386.4 1566.71,1386.4 1569.22,1386.4 1571.72,1386.4 1574.22,1386.4 1576.73,1386.4 1579.23,1386.4 1581.73,1386.4 1584.24,1386.4 1586.74,1386.4 1589.24,1386.4 1591.75,1386.4 1594.25,1386.4 1596.76,1386.4 1599.26,1386.4 1601.76,1386.4 1604.27,1386.4 1606.77,1386.4 1609.27,1386.4 1611.78,1386.4 1614.28,1386.4 1616.78,1386.4 1619.29,1386.4 1621.79,1386.4 1624.29,1386.4 1626.8,1386.4 1629.3,1386.4 1631.81,1386.4 1634.31,1386.4 1636.81,1386.4 1639.32,1386.4 1641.82,1386.4 1644.32,1386.4 1646.83,1386.4 1649.33,1386.4 1651.83,1386.4 1654.34,1386.4 1656.84,1386.4 1659.34,1386.4 1661.85,1386.4 1664.35,1386.4 1666.86,1386.4 1669.36,1386.4 1671.86,1386.4 1674.37,1386.4 1676.87,1386.4 1679.37,1386.4 1681.88,1386.4 1684.38,1386.4 1686.88,1386.4 1689.39,1386.4 1691.89,1386.4 1694.39,1386.4 1696.9,1386.4 1699.4,1386.4 1701.9,1386.4 1704.41,1386.4 1706.91,1386.4 1709.42,1386.4 1711.92,1386.4 1714.42,1386.4 1716.93,1386.4 1719.43,1386.4 1721.93,1386.4 1724.44,1386.4 1726.94,1386.4 1729.44,1386.4 1731.95,1386.4 1734.45,1386.4 1736.95,1386.4 1739.46,1386.4 1741.96,1386.4 1744.47,1386.4 1746.97,1386.4 1749.47,1386.4 1751.98,1386.4 1754.48,1386.4 1756.98,1386.4 1759.49,1386.4 1761.99,1386.4 1764.49,1386.4 1767,1386.4 1769.5,1386.4 1772,1386.4 1774.51,1386.4 1777.01,1386.4 1779.52,1386.4 1782.02,1386.4 1784.52,1386.4 1787.03,1386.4 1789.53,1386.4 1792.03,1386.4 1794.54,1386.4 1797.04,1386.4 1799.54,1386.4 1802.05,1386.4 1804.55,1386.4 1807.05,1386.4 1809.56,1386.4 1812.06,1386.4 1814.57,1386.4 1817.07,1386.4 1819.57,1386.4 1822.08,1386.4 1824.58,1386.4 1827.08,1386.4 1829.59,1386.4 1832.09,1386.4 1834.59,1386.4 1837.1,1386.4 1839.6,1386.4 1842.1,1386.4 1844.61,1386.4 1847.11,1386.4 1849.62,1386.4 1852.12,1386.4 1854.62,1386.4 1857.13,1386.4 1859.63,1386.4 1862.13,1386.4 1864.64,1386.4 1867.14,1386.4 1869.64,1386.4 1872.15,1386.4 1874.65,1386.4 1877.15,1386.4 1879.66,1386.4 1882.16,1386.4 1884.66,1386.4 1887.17,1386.4 1889.67,1386.4 1892.18,1386.4 1894.68,1386.4 1897.18,1386.4 1899.69,1386.4 1902.19,1386.4 1904.69,1386.4 1907.2,1386.4 1909.7,1386.4 1912.2,1386.4 1914.71,1386.4 1917.21,1386.4 1919.71,1386.4 1922.22,1386.4 1924.72,1386.4 1927.23,1386.4 1929.73,1386.4 1932.23,1386.4 1934.74,1386.4 1937.24,1386.4 1939.74,1386.4 1942.25,1386.4 1944.75,1386.4 1947.25,1386.4 1949.76,1386.4 1952.26,1386.4 1954.76,1386.4 1957.27,1386.4 1959.77,1386.4 1962.28,1386.4 1964.78,1386.4 1967.28,1386.4 1969.79,1386.4 1972.29,1386.4 1974.79,1386.4 1977.3,1386.4 1979.8,1386.4 1982.3,1386.4 1984.81,1386.4 1987.31,1386.4 1989.81,1386.4 1992.32,1386.4 1994.82,1386.4 1997.33,1386.4 1999.83,1386.4 2002.33,1386.4 2004.84,1386.4 2007.34,1386.4 2009.84,1386.4 2012.35,1386.4 2014.85,1386.4 2017.35,1386.4 2019.86,1386.4 2022.36,1386.4 2024.86,1386.4 2027.37,1386.4 2029.87,1386.4 2032.38,1386.4 2034.88,1386.4 2037.38,1386.4 2039.89,1386.4 2042.39,1386.4 2044.89,1386.4 2047.4,1386.4 2049.9,1386.4 2052.4,1386.4 2054.91,1386.4 2057.41,1386.4 2059.91,1386.4 2062.42,1386.4 2064.92,1386.4 2067.42,1386.4 2069.93,1386.4 2072.43,1386.4 2074.94,1386.4 2077.44,1386.4 2079.94,1386.4 2082.45,1386.4 2084.95,1386.4 2087.45,1386.4 2089.96,1386.4 2092.46,1386.4 2094.96,1386.4 2097.47,1386.4 2099.97,1386.4 2102.47,1386.4 2104.98,1386.4 2107.48,1386.4 2109.99,1386.4 2112.49,1386.4 2114.99,1386.4 2117.5,1386.4 2120,1386.4 2122.5,1386.4 2125.01,1386.4 2127.51,1386.4 2130.01,1386.4 2132.52,1386.4 2135.02,1386.4 2137.52,1386.4 2140.03,1386.4 2142.53,1386.4 2145.04,1386.4 2147.54,1386.4 2150.04,1386.4 2152.55,1386.4 2155.05,1386.4 2157.55,1386.4 2160.06,1386.4 2162.56,1386.4 2165.06,1386.4 2167.57,1386.4 2170.07,1386.4 2172.57,1386.4 2175.08,1386.4 2177.58,1386.4 2180.09,1386.4 2182.59,1386.4 2185.09,1386.4 2187.6,1386.4 2190.1,1386.4 2192.6,1386.4 2195.11,1386.4 2197.61,1386.4 2200.11,1386.4 2202.62,1386.4 2205.12,1386.4 2207.62,1386.4 2210.13,1386.4 2212.63,1386.4 2215.14,1386.4 2217.64,1386.4 2220.14,1386.4 2222.65,1386.4 2225.15,1386.4 2227.65,1386.4 2230.16,1386.4 2232.66,1386.4 2235.16,1386.4 2237.67,1386.4 2240.17,1386.4 2242.67,1386.4 2245.18,1386.4 2247.68,1386.4 2250.18,1386.4 2252.69,1386.4 2255.19,1386.4 2257.7,1386.4 2260.2,1386.4 2262.7,1386.4 2265.21,1386.4 2267.71,1386.4 2270.21,1386.4 2272.72,1386.4 2275.22,1386.4 2277.72,1386.4 2280.23,1386.4 2282.73,1386.4 2285.23,1386.4 2287.74,1386.4 2290.24,1386.4 2292.75,1386.4 "/>
</svg>
