<?xml version="1.0" encoding="utf-8"?>
<svg xmlns="http://www.w3.org/2000/svg" xmlns:xlink="http://www.w3.org/1999/xlink" width="600" height="400" viewBox="0 0 2400 1600">
<defs>
  <clipPath id="clip350">
    <rect x="0" y="0" width="2400" height="1600"/>
  </clipPath>
</defs>
<path clip-path="url(#clip350)" d="M0 1600 L2400 1600 L2400 0 L0 0  Z" fill="#ffffff" fill-rule="evenodd" fill-opacity="1"/>
<defs>
  <clipPath id="clip351">
    <rect x="480" y="0" width="1681" height="1600"/>
  </clipPath>
</defs>
<path clip-path="url(#clip350)" d="M219.866 1423.18 L2352.76 1423.18 L2352.76 123.472 L219.866 123.472  Z" fill="#ffffff" fill-rule="evenodd" fill-opacity="1"/>
<defs>
  <clipPath id="clip352">
    <rect x="219" y="123" width="2134" height="1301"/>
  </clipPath>
</defs>
<polyline clip-path="url(#clip352)" style="stroke:#000000; stroke-linecap:round; stroke-linejoin:round; stroke-width:2; stroke-opacity:0.1; fill:none" points="279.715,1423.18 279.715,123.472 "/>
<polyline clip-path="url(#clip352)" style="stroke:#000000; stroke-linecap:round; stroke-linejoin:round; stroke-width:2; stroke-opacity:0.1; fill:none" points="795.654,1423.18 795.654,123.472 "/>
<polyline clip-path="url(#clip352)" style="stroke:#000000; stroke-linecap:round; stroke-linejoin:round; stroke-width:2; stroke-opacity:0.1; fill:none" points="1311.59,1423.18 1311.59,123.472 "/>
<polyline clip-path="url(#clip352)" style="stroke:#000000; stroke-linecap:round; stroke-linejoin:round; stroke-width:2; stroke-opacity:0.1; fill:none" points="1827.53,1423.18 1827.53,123.472 "/>
<polyline clip-path="url(#clip352)" style="stroke:#000000; stroke-linecap:round; stroke-linejoin:round; stroke-width:2; stroke-opacity:0.1; fill:none" points="2343.47,1423.18 2343.47,123.472 "/>
<polyline clip-path="url(#clip352)" style="stroke:#000000; stroke-linecap:round; stroke-linejoin:round; stroke-width:2; stroke-opacity:0.1; fill:none" points="219.866,1386.4 2352.76,1386.4 "/>
<polyline clip-path="url(#clip352)" style="stroke:#000000; stroke-linecap:round; stroke-linejoin:round; stroke-width:2; stroke-opacity:0.1; fill:none" points="219.866,1188.44 2352.76,1188.44 "/>
<polyline clip-path="url(#clip352)" style="stroke:#000000; stroke-linecap:round; stroke-linejoin:round; stroke-width:2; stroke-opacity:0.1; fill:none" points="219.866,990.478 2352.76,990.478 "/>
<polyline clip-path="url(#clip352)" style="stroke:#000000; stroke-linecap:round; stroke-linejoin:round; stroke-width:2; stroke-opacity:0.1; fill:none" points="219.866,792.519 2352.76,792.519 "/>
<polyline clip-path="url(#clip352)" style="stroke:#000000; stroke-linecap:round; stroke-linejoin:round; stroke-width:2; stroke-opacity:0.1; fill:none" points="219.866,594.56 2352.76,594.56 "/>
<polyline clip-path="url(#clip352)" style="stroke:#000000; stroke-linecap:round; stroke-linejoin:round; stroke-width:2; stroke-opacity:0.1; fill:none" points="219.866,396.602 2352.76,396.602 "/>
<polyline clip-path="url(#clip352)" style="stroke:#000000; stroke-linecap:round; stroke-linejoin:round; stroke-width:2; stroke-opacity:0.1; fill:none" points="219.866,198.643 2352.76,198.643 "/>
<polyline clip-path="url(#clip350)" style="stroke:#000000; stroke-linecap:round; stroke-linejoin:round; stroke-width:4; stroke-opacity:1; fill:none" points="219.866,1423.18 2352.76,1423.18 "/>
<polyline clip-path="url(#clip350)" style="stroke:#000000; stroke-linecap:round; stroke-linejoin:round; stroke-width:4; stroke-opacity:1; fill:none" points="279.715,1423.18 279.715,1404.28 "/>
<polyline clip-path="url(#clip350)" style="stroke:#000000; stroke-linecap:round; stroke-linejoin:round; stroke-width:4; stroke-opacity:1; fill:none" points="795.654,1423.18 795.654,1404.28 "/>
<polyline clip-path="url(#clip350)" style="stroke:#000000; stroke-linecap:round; stroke-linejoin:round; stroke-width:4; stroke-opacity:1; fill:none" points="1311.59,1423.18 1311.59,1404.28 "/>
<polyline clip-path="url(#clip350)" style="stroke:#000000; stroke-linecap:round; stroke-linejoin:round; stroke-width:4; stroke-opacity:1; fill:none" points="1827.53,1423.18 1827.53,1404.28 "/>
<polyline clip-path="url(#clip350)" style="stroke:#000000; stroke-linecap:round; stroke-linejoin:round; stroke-width:4; stroke-opacity:1; fill:none" points="2343.47,1423.18 2343.47,1404.28 "/>
<path clip-path="url(#clip350)" d="M279.715 1454.1 Q276.104 1454.1 274.275 1457.66 Q272.47 1461.2 272.47 1468.33 Q272.47 1475.44 274.275 1479.01 Q276.104 1482.55 279.715 1482.55 Q283.349 1482.55 285.155 1479.01 Q286.984 1475.44 286.984 1468.33 Q286.984 1461.2 285.155 1457.66 Q283.349 1454.1 279.715 1454.1 M279.715 1450.39 Q285.525 1450.39 288.581 1455 Q291.66 1459.58 291.66 1468.33 Q291.66 1477.06 288.581 1481.67 Q285.525 1486.25 279.715 1486.25 Q273.905 1486.25 270.826 1481.67 Q267.771 1477.06 267.771 1468.33 Q267.771 1459.58 270.826 1455 Q273.905 1450.39 279.715 1450.39 Z" fill="#000000" fill-rule="nonzero" fill-opacity="1" /><path clip-path="url(#clip350)" d="M786.036 1481.64 L793.674 1481.64 L793.674 1455.28 L785.364 1456.95 L785.364 1452.69 L793.628 1451.02 L798.304 1451.02 L798.304 1481.64 L805.943 1481.64 L805.943 1485.58 L786.036 1485.58 L786.036 1481.64 Z" fill="#000000" fill-rule="nonzero" fill-opacity="1" /><path clip-path="url(#clip350)" d="M1306.24 1481.64 L1322.56 1481.64 L1322.56 1485.58 L1300.62 1485.58 L1300.62 1481.64 Q1303.28 1478.89 1307.87 1474.26 Q1312.47 1469.61 1313.65 1468.27 Q1315.9 1465.74 1316.78 1464.01 Q1317.68 1462.25 1317.68 1460.56 Q1317.68 1457.8 1315.74 1456.07 Q1313.81 1454.33 1310.71 1454.33 Q1308.51 1454.33 1306.06 1455.09 Q1303.63 1455.86 1300.85 1457.41 L1300.85 1452.69 Q1303.68 1451.55 1306.13 1450.97 Q1308.58 1450.39 1310.62 1450.39 Q1315.99 1450.39 1319.18 1453.08 Q1322.38 1455.77 1322.38 1460.26 Q1322.38 1462.39 1321.57 1464.31 Q1320.78 1466.2 1318.68 1468.8 Q1318.1 1469.47 1314.99 1472.69 Q1311.89 1475.88 1306.24 1481.64 Z" fill="#000000" fill-rule="nonzero" fill-opacity="1" /><path clip-path="url(#clip350)" d="M1831.78 1466.95 Q1835.13 1467.66 1837.01 1469.93 Q1838.91 1472.2 1838.91 1475.53 Q1838.91 1480.65 1835.39 1483.45 Q1831.87 1486.25 1825.39 1486.25 Q1823.21 1486.25 1820.9 1485.81 Q1818.61 1485.39 1816.15 1484.54 L1816.15 1480.02 Q1818.1 1481.16 1820.41 1481.74 Q1822.73 1482.32 1825.25 1482.32 Q1829.65 1482.32 1831.94 1480.58 Q1834.26 1478.84 1834.26 1475.53 Q1834.26 1472.48 1832.1 1470.77 Q1829.97 1469.03 1826.15 1469.03 L1822.13 1469.03 L1822.13 1465.19 L1826.34 1465.19 Q1829.79 1465.19 1831.62 1463.82 Q1833.44 1462.43 1833.44 1459.84 Q1833.44 1457.18 1831.55 1455.77 Q1829.67 1454.33 1826.15 1454.33 Q1824.23 1454.33 1822.03 1454.75 Q1819.83 1455.16 1817.19 1456.04 L1817.19 1451.88 Q1819.86 1451.14 1822.17 1450.77 Q1824.51 1450.39 1826.57 1450.39 Q1831.89 1450.39 1835 1452.83 Q1838.1 1455.23 1838.1 1459.35 Q1838.1 1462.22 1836.45 1464.21 Q1834.81 1466.18 1831.78 1466.95 Z" fill="#000000" fill-rule="nonzero" fill-opacity="1" /><path clip-path="url(#clip350)" d="M2346.48 1455.09 L2334.67 1473.54 L2346.48 1473.54 L2346.48 1455.09 M2345.25 1451.02 L2351.13 1451.02 L2351.13 1473.54 L2356.06 1473.54 L2356.06 1477.43 L2351.13 1477.43 L2351.13 1485.58 L2346.48 1485.58 L2346.48 1477.43 L2330.88 1477.43 L2330.88 1472.92 L2345.25 1451.02 Z" fill="#000000" fill-rule="nonzero" fill-opacity="1" /><path clip-path="url(#clip350)" d="M1165.55 1520.52 L1205.75 1520.52 L1205.75 1525.93 L1188.88 1525.93 L1188.88 1568.04 L1182.42 1568.04 L1182.42 1525.93 L1165.55 1525.93 L1165.55 1520.52 Z" fill="#000000" fill-rule="nonzero" fill-opacity="1" /><path clip-path="url(#clip350)" d="M1225.77 1518.58 Q1221.51 1525.9 1219.44 1533.06 Q1217.37 1540.23 1217.37 1547.58 Q1217.37 1554.93 1219.44 1562.16 Q1221.54 1569.35 1225.77 1576.64 L1220.68 1576.64 Q1215.91 1569.16 1213.52 1561.93 Q1211.16 1554.71 1211.16 1547.58 Q1211.16 1540.48 1213.52 1533.29 Q1215.87 1526.09 1220.68 1518.58 L1225.77 1518.58 Z" fill="#000000" fill-rule="nonzero" fill-opacity="1" /><path clip-path="url(#clip350)" d="M1237.39 1520.52 L1243.82 1520.52 L1243.82 1564.73 Q1243.82 1573.33 1240.54 1577.21 Q1237.3 1581.09 1230.07 1581.09 L1227.62 1581.09 L1227.62 1575.68 L1229.62 1575.68 Q1233.89 1575.68 1235.64 1573.3 Q1237.39 1570.91 1237.39 1564.73 L1237.39 1520.52 Z" fill="#000000" fill-rule="nonzero" fill-opacity="1" /><path clip-path="url(#clip350)" d="M1266.77 1520.52 L1272.18 1520.52 L1255.63 1574.09 L1250.22 1574.09 L1266.77 1520.52 Z" fill="#000000" fill-rule="nonzero" fill-opacity="1" /><path clip-path="url(#clip350)" d="M1278.1 1518.52 L1283.99 1518.52 L1283.99 1547.77 L1301.46 1532.4 L1308.94 1532.4 L1290.04 1549.07 L1309.74 1568.04 L1302.1 1568.04 L1283.99 1550.63 L1283.99 1568.04 L1278.1 1568.04 L1278.1 1518.52 Z" fill="#000000" fill-rule="nonzero" fill-opacity="1" /><path clip-path="url(#clip350)" d="M1343.16 1578.87 L1343.16 1583.42 L1309.29 1583.42 L1309.29 1578.87 L1343.16 1578.87 Z" fill="#000000" fill-rule="nonzero" fill-opacity="1" /><path clip-path="url(#clip350)" d="M1355.35 1545.35 L1355.35 1562.76 L1365.66 1562.76 Q1370.85 1562.76 1373.33 1560.63 Q1375.84 1558.46 1375.84 1554.04 Q1375.84 1549.58 1373.33 1547.48 Q1370.85 1545.35 1365.66 1545.35 L1355.35 1545.35 M1355.35 1525.81 L1355.35 1540.13 L1364.86 1540.13 Q1369.57 1540.13 1371.87 1538.38 Q1374.19 1536.6 1374.19 1532.97 Q1374.19 1529.37 1371.87 1527.59 Q1369.57 1525.81 1364.86 1525.81 L1355.35 1525.81 M1348.92 1520.52 L1365.34 1520.52 Q1372.69 1520.52 1376.67 1523.58 Q1380.65 1526.63 1380.65 1532.27 Q1380.65 1536.63 1378.61 1539.21 Q1376.58 1541.79 1372.63 1542.42 Q1377.37 1543.44 1379.98 1546.69 Q1382.62 1549.9 1382.62 1554.74 Q1382.62 1561.11 1378.3 1564.57 Q1373.97 1568.04 1365.98 1568.04 L1348.92 1568.04 L1348.92 1520.52 Z" fill="#000000" fill-rule="nonzero" fill-opacity="1" /><path clip-path="url(#clip350)" d="M1392.46 1518.58 L1397.55 1518.58 Q1402.33 1526.09 1404.68 1533.29 Q1407.07 1540.48 1407.07 1547.58 Q1407.07 1554.71 1404.68 1561.93 Q1402.33 1569.16 1397.55 1576.64 L1392.46 1576.64 Q1396.69 1569.35 1398.76 1562.16 Q1400.86 1554.93 1400.86 1547.58 Q1400.86 1540.23 1398.76 1533.06 Q1396.69 1525.9 1392.46 1518.58 Z" fill="#000000" fill-rule="nonzero" fill-opacity="1" /><polyline clip-path="url(#clip350)" style="stroke:#000000; stroke-linecap:round; stroke-linejoin:round; stroke-width:4; stroke-opacity:1; fill:none" points="219.866,1423.18 219.866,123.472 "/>
<polyline clip-path="url(#clip350)" style="stroke:#000000; stroke-linecap:round; stroke-linejoin:round; stroke-width:4; stroke-opacity:1; fill:none" points="219.866,1386.4 238.764,1386.4 "/>
<polyline clip-path="url(#clip350)" style="stroke:#000000; stroke-linecap:round; stroke-linejoin:round; stroke-width:4; stroke-opacity:1; fill:none" points="219.866,1188.44 238.764,1188.44 "/>
<polyline clip-path="url(#clip350)" style="stroke:#000000; stroke-linecap:round; stroke-linejoin:round; stroke-width:4; stroke-opacity:1; fill:none" points="219.866,990.478 238.764,990.478 "/>
<polyline clip-path="url(#clip350)" style="stroke:#000000; stroke-linecap:round; stroke-linejoin:round; stroke-width:4; stroke-opacity:1; fill:none" points="219.866,792.519 238.764,792.519 "/>
<polyline clip-path="url(#clip350)" style="stroke:#000000; stroke-linecap:round; stroke-linejoin:round; stroke-width:4; stroke-opacity:1; fill:none" points="219.866,594.56 238.764,594.56 "/>
<polyline clip-path="url(#clip350)" style="stroke:#000000; stroke-linecap:round; stroke-linejoin:round; stroke-width:4; stroke-opacity:1; fill:none" points="219.866,396.602 238.764,396.602 "/>
<polyline clip-path="url(#clip350)" style="stroke:#000000; stroke-linecap:round; stroke-linejoin:round; stroke-width:4; stroke-opacity:1; fill:none" points="219.866,198.643 238.764,198.643 "/>
<path clip-path="url(#clip350)" d="M126.691 1372.19 Q123.08 1372.19 121.251 1375.76 Q119.445 1379.3 119.445 1386.43 Q119.445 1393.54 121.251 1397.1 Q123.08 1400.64 126.691 1400.64 Q130.325 1400.64 132.13 1397.1 Q133.959 1393.54 133.959 1386.43 Q133.959 1379.3 132.13 1375.76 Q130.325 1372.19 126.691 1372.19 M126.691 1368.49 Q132.501 1368.49 135.556 1373.1 Q138.635 1377.68 138.635 1386.43 Q138.635 1395.16 135.556 1399.76 Q132.501 1404.35 126.691 1404.35 Q120.88 1404.35 117.802 1399.76 Q114.746 1395.16 114.746 1386.43 Q114.746 1377.68 117.802 1373.1 Q120.88 1368.49 126.691 1368.49 Z" fill="#000000" fill-rule="nonzero" fill-opacity="1" /><path clip-path="url(#clip350)" d="M146.853 1397.8 L151.737 1397.8 L151.737 1403.68 L146.853 1403.68 L146.853 1397.8 Z" fill="#000000" fill-rule="nonzero" fill-opacity="1" /><path clip-path="url(#clip350)" d="M171.922 1372.19 Q168.311 1372.19 166.482 1375.76 Q164.677 1379.3 164.677 1386.43 Q164.677 1393.54 166.482 1397.1 Q168.311 1400.64 171.922 1400.64 Q175.556 1400.64 177.362 1397.1 Q179.19 1393.54 179.19 1386.43 Q179.19 1379.3 177.362 1375.76 Q175.556 1372.19 171.922 1372.19 M171.922 1368.49 Q177.732 1368.49 180.788 1373.1 Q183.866 1377.68 183.866 1386.43 Q183.866 1395.16 180.788 1399.76 Q177.732 1404.35 171.922 1404.35 Q166.112 1404.35 163.033 1399.76 Q159.978 1395.16 159.978 1386.43 Q159.978 1377.68 163.033 1373.1 Q166.112 1368.49 171.922 1368.49 Z" fill="#000000" fill-rule="nonzero" fill-opacity="1" /><path clip-path="url(#clip350)" d="M128.288 1174.24 Q124.677 1174.24 122.848 1177.8 Q121.043 1181.34 121.043 1188.47 Q121.043 1195.58 122.848 1199.14 Q124.677 1202.68 128.288 1202.68 Q131.922 1202.68 133.728 1199.14 Q135.556 1195.58 135.556 1188.47 Q135.556 1181.34 133.728 1177.8 Q131.922 1174.24 128.288 1174.24 M128.288 1170.53 Q134.098 1170.53 137.154 1175.14 Q140.232 1179.72 140.232 1188.47 Q140.232 1197.2 137.154 1201.8 Q134.098 1206.39 128.288 1206.39 Q122.478 1206.39 119.399 1201.8 Q116.343 1197.2 116.343 1188.47 Q116.343 1179.72 119.399 1175.14 Q122.478 1170.53 128.288 1170.53 Z" fill="#000000" fill-rule="nonzero" fill-opacity="1" /><path clip-path="url(#clip350)" d="M148.45 1199.84 L153.334 1199.84 L153.334 1205.72 L148.45 1205.72 L148.45 1199.84 Z" fill="#000000" fill-rule="nonzero" fill-opacity="1" /><path clip-path="url(#clip350)" d="M167.547 1201.78 L183.866 1201.78 L183.866 1205.72 L161.922 1205.72 L161.922 1201.78 Q164.584 1199.03 169.167 1194.4 Q173.774 1189.74 174.954 1188.4 Q177.2 1185.88 178.079 1184.14 Q178.982 1182.38 178.982 1180.69 Q178.982 1177.94 177.038 1176.2 Q175.116 1174.47 172.014 1174.47 Q169.815 1174.47 167.362 1175.23 Q164.931 1175.99 162.153 1177.55 L162.153 1172.82 Q164.977 1171.69 167.431 1171.11 Q169.885 1170.53 171.922 1170.53 Q177.292 1170.53 180.487 1173.22 Q183.681 1175.9 183.681 1180.39 Q183.681 1182.52 182.871 1184.44 Q182.084 1186.34 179.977 1188.93 Q179.399 1189.61 176.297 1192.82 Q173.195 1196.02 167.547 1201.78 Z" fill="#000000" fill-rule="nonzero" fill-opacity="1" /><path clip-path="url(#clip350)" d="M126.205 976.277 Q122.593 976.277 120.765 979.842 Q118.959 983.383 118.959 990.513 Q118.959 997.619 120.765 1001.18 Q122.593 1004.73 126.205 1004.73 Q129.839 1004.73 131.644 1001.18 Q133.473 997.619 133.473 990.513 Q133.473 983.383 131.644 979.842 Q129.839 976.277 126.205 976.277 M126.205 972.573 Q132.015 972.573 135.07 977.179 Q138.149 981.763 138.149 990.513 Q138.149 999.24 135.07 1003.85 Q132.015 1008.43 126.205 1008.43 Q120.394 1008.43 117.316 1003.85 Q114.26 999.24 114.26 990.513 Q114.26 981.763 117.316 977.179 Q120.394 972.573 126.205 972.573 Z" fill="#000000" fill-rule="nonzero" fill-opacity="1" /><path clip-path="url(#clip350)" d="M146.366 1001.88 L151.251 1001.88 L151.251 1007.76 L146.366 1007.76 L146.366 1001.88 Z" fill="#000000" fill-rule="nonzero" fill-opacity="1" /><path clip-path="url(#clip350)" d="M174.283 977.272 L162.477 995.721 L174.283 995.721 L174.283 977.272 M173.056 973.198 L178.936 973.198 L178.936 995.721 L183.866 995.721 L183.866 999.61 L178.936 999.61 L178.936 1007.76 L174.283 1007.76 L174.283 999.61 L158.681 999.61 L158.681 995.096 L173.056 973.198 Z" fill="#000000" fill-rule="nonzero" fill-opacity="1" /><path clip-path="url(#clip350)" d="M126.529 778.318 Q122.918 778.318 121.089 781.883 Q119.283 785.424 119.283 792.554 Q119.283 799.66 121.089 803.225 Q122.918 806.767 126.529 806.767 Q130.163 806.767 131.968 803.225 Q133.797 799.66 133.797 792.554 Q133.797 785.424 131.968 781.883 Q130.163 778.318 126.529 778.318 M126.529 774.614 Q132.339 774.614 135.394 779.221 Q138.473 783.804 138.473 792.554 Q138.473 801.281 135.394 805.887 Q132.339 810.471 126.529 810.471 Q120.718 810.471 117.64 805.887 Q114.584 801.281 114.584 792.554 Q114.584 783.804 117.64 779.221 Q120.718 774.614 126.529 774.614 Z" fill="#000000" fill-rule="nonzero" fill-opacity="1" /><path clip-path="url(#clip350)" d="M146.691 803.92 L151.575 803.92 L151.575 809.799 L146.691 809.799 L146.691 803.92 Z" fill="#000000" fill-rule="nonzero" fill-opacity="1" /><path clip-path="url(#clip350)" d="M172.339 790.656 Q169.19 790.656 167.339 792.809 Q165.51 794.961 165.51 798.711 Q165.51 802.438 167.339 804.614 Q169.19 806.767 172.339 806.767 Q175.487 806.767 177.315 804.614 Q179.167 802.438 179.167 798.711 Q179.167 794.961 177.315 792.809 Q175.487 790.656 172.339 790.656 M181.621 776.003 L181.621 780.262 Q179.862 779.429 178.056 778.989 Q176.274 778.549 174.514 778.549 Q169.885 778.549 167.431 781.674 Q165.001 784.799 164.653 791.119 Q166.019 789.105 168.079 788.04 Q170.139 786.952 172.616 786.952 Q177.825 786.952 180.834 790.123 Q183.866 793.272 183.866 798.711 Q183.866 804.035 180.718 807.253 Q177.57 810.471 172.339 810.471 Q166.343 810.471 163.172 805.887 Q160.001 801.281 160.001 792.554 Q160.001 784.36 163.89 779.498 Q167.778 774.614 174.329 774.614 Q176.089 774.614 177.871 774.961 Q179.676 775.309 181.621 776.003 Z" fill="#000000" fill-rule="nonzero" fill-opacity="1" /><path clip-path="url(#clip350)" d="M126.783 580.359 Q123.172 580.359 121.343 583.924 Q119.538 587.466 119.538 594.595 Q119.538 601.702 121.343 605.266 Q123.172 608.808 126.783 608.808 Q130.417 608.808 132.223 605.266 Q134.052 601.702 134.052 594.595 Q134.052 587.466 132.223 583.924 Q130.417 580.359 126.783 580.359 M126.783 576.655 Q132.593 576.655 135.649 581.262 Q138.728 585.845 138.728 594.595 Q138.728 603.322 135.649 607.928 Q132.593 612.512 126.783 612.512 Q120.973 612.512 117.894 607.928 Q114.839 603.322 114.839 594.595 Q114.839 585.845 117.894 581.262 Q120.973 576.655 126.783 576.655 Z" fill="#000000" fill-rule="nonzero" fill-opacity="1" /><path clip-path="url(#clip350)" d="M146.945 605.961 L151.829 605.961 L151.829 611.84 L146.945 611.84 L146.945 605.961 Z" fill="#000000" fill-rule="nonzero" fill-opacity="1" /><path clip-path="url(#clip350)" d="M172.014 595.428 Q168.681 595.428 166.76 597.211 Q164.862 598.993 164.862 602.118 Q164.862 605.243 166.76 607.026 Q168.681 608.808 172.014 608.808 Q175.348 608.808 177.269 607.026 Q179.19 605.22 179.19 602.118 Q179.19 598.993 177.269 597.211 Q175.371 595.428 172.014 595.428 M167.339 593.438 Q164.329 592.697 162.64 590.637 Q160.973 588.577 160.973 585.614 Q160.973 581.47 163.913 579.063 Q166.876 576.655 172.014 576.655 Q177.176 576.655 180.116 579.063 Q183.056 581.47 183.056 585.614 Q183.056 588.577 181.366 590.637 Q179.7 592.697 176.714 593.438 Q180.093 594.225 181.968 596.516 Q183.866 598.808 183.866 602.118 Q183.866 607.141 180.788 609.827 Q177.732 612.512 172.014 612.512 Q166.297 612.512 163.218 609.827 Q160.163 607.141 160.163 602.118 Q160.163 598.808 162.061 596.516 Q163.959 594.225 167.339 593.438 M165.626 586.053 Q165.626 588.739 167.292 590.243 Q168.982 591.748 172.014 591.748 Q175.024 591.748 176.714 590.243 Q178.426 588.739 178.426 586.053 Q178.426 583.368 176.714 581.864 Q175.024 580.359 172.014 580.359 Q168.982 580.359 167.292 581.864 Q165.626 583.368 165.626 586.053 Z" fill="#000000" fill-rule="nonzero" fill-opacity="1" /><path clip-path="url(#clip350)" d="M117.501 409.946 L125.14 409.946 L125.14 383.581 L116.83 385.247 L116.83 380.988 L125.093 379.322 L129.769 379.322 L129.769 409.946 L137.408 409.946 L137.408 413.882 L117.501 413.882 L117.501 409.946 Z" fill="#000000" fill-rule="nonzero" fill-opacity="1" /><path clip-path="url(#clip350)" d="M146.853 408.002 L151.737 408.002 L151.737 413.882 L146.853 413.882 L146.853 408.002 Z" fill="#000000" fill-rule="nonzero" fill-opacity="1" /><path clip-path="url(#clip350)" d="M171.922 382.4 Q168.311 382.4 166.482 385.965 Q164.677 389.507 164.677 396.636 Q164.677 403.743 166.482 407.308 Q168.311 410.849 171.922 410.849 Q175.556 410.849 177.362 407.308 Q179.19 403.743 179.19 396.636 Q179.19 389.507 177.362 385.965 Q175.556 382.4 171.922 382.4 M171.922 378.697 Q177.732 378.697 180.788 383.303 Q183.866 387.886 183.866 396.636 Q183.866 405.363 180.788 409.97 Q177.732 414.553 171.922 414.553 Q166.112 414.553 163.033 409.97 Q159.978 405.363 159.978 396.636 Q159.978 387.886 163.033 383.303 Q166.112 378.697 171.922 378.697 Z" fill="#000000" fill-rule="nonzero" fill-opacity="1" /><path clip-path="url(#clip350)" d="M119.098 211.988 L126.737 211.988 L126.737 185.622 L118.427 187.289 L118.427 183.029 L126.691 181.363 L131.367 181.363 L131.367 211.988 L139.005 211.988 L139.005 215.923 L119.098 215.923 L119.098 211.988 Z" fill="#000000" fill-rule="nonzero" fill-opacity="1" /><path clip-path="url(#clip350)" d="M148.45 210.043 L153.334 210.043 L153.334 215.923 L148.45 215.923 L148.45 210.043 Z" fill="#000000" fill-rule="nonzero" fill-opacity="1" /><path clip-path="url(#clip350)" d="M167.547 211.988 L183.866 211.988 L183.866 215.923 L161.922 215.923 L161.922 211.988 Q164.584 209.233 169.167 204.603 Q173.774 199.951 174.954 198.608 Q177.2 196.085 178.079 194.349 Q178.982 192.59 178.982 190.9 Q178.982 188.145 177.038 186.409 Q175.116 184.673 172.014 184.673 Q169.815 184.673 167.362 185.437 Q164.931 186.201 162.153 187.752 L162.153 183.029 Q164.977 181.895 167.431 181.316 Q169.885 180.738 171.922 180.738 Q177.292 180.738 180.487 183.423 Q183.681 186.108 183.681 190.599 Q183.681 192.728 182.871 194.65 Q182.084 196.548 179.977 199.14 Q179.399 199.812 176.297 203.029 Q173.195 206.224 167.547 211.988 Z" fill="#000000" fill-rule="nonzero" fill-opacity="1" /><path clip-path="url(#clip350)" d="M16.4842 791.5 L16.4842 784.593 L34.149 772.785 L16.4842 760.913 L16.4842 754.006 L39.3052 769.284 L64.0042 752.988 L64.0042 759.894 L43.793 773.262 L64.0042 786.726 L64.0042 793.664 L38.6368 776.7 L16.4842 791.5 Z" fill="#000000" fill-rule="nonzero" fill-opacity="1" /><path clip-path="url(#clip350)" d="M218.108 12.096 L230.301 12.096 L245.735 53.2532 L261.25 12.096 L273.443 12.096 L273.443 72.576 L265.463 72.576 L265.463 19.4686 L249.867 60.9499 L241.644 60.9499 L226.048 19.4686 L226.048 72.576 L218.108 72.576 L218.108 12.096 Z" fill="#000000" fill-rule="nonzero" fill-opacity="1" /><path clip-path="url(#clip350)" d="M309.982 49.7694 Q300.949 49.7694 297.465 51.8354 Q293.981 53.9013 293.981 58.8839 Q293.981 62.8538 296.574 65.2034 Q299.207 67.5124 303.704 67.5124 Q309.901 67.5124 313.628 63.1374 Q317.396 58.7219 317.396 51.4303 L317.396 49.7694 L309.982 49.7694 M324.849 46.6907 L324.849 72.576 L317.396 72.576 L317.396 65.6895 Q314.843 69.8214 311.036 71.8063 Q307.228 73.7508 301.719 73.7508 Q294.751 73.7508 290.619 69.8619 Q286.528 65.9325 286.528 59.3701 Q286.528 51.7138 291.632 47.825 Q296.776 43.9361 306.944 43.9361 L317.396 43.9361 L317.396 43.2069 Q317.396 38.0623 313.993 35.2672 Q310.631 32.4315 304.514 32.4315 Q300.625 32.4315 296.938 33.3632 Q293.252 34.295 289.849 36.1584 L289.849 29.2718 Q293.941 27.692 297.789 26.9223 Q301.638 26.1121 305.283 26.1121 Q315.127 26.1121 319.988 31.2163 Q324.849 36.3204 324.849 46.6907 Z" fill="#000000" fill-rule="nonzero" fill-opacity="1" /><path clip-path="url(#clip350)" d="M370.057 49.3643 Q370.057 41.2625 366.695 36.8065 Q363.373 32.3505 357.337 32.3505 Q351.342 32.3505 347.98 36.8065 Q344.658 41.2625 344.658 49.3643 Q344.658 57.4256 347.98 61.8816 Q351.342 66.3376 357.337 66.3376 Q363.373 66.3376 366.695 61.8816 Q370.057 57.4256 370.057 49.3643 M377.511 66.9452 Q377.511 78.5308 372.366 84.1616 Q367.222 89.8329 356.608 89.8329 Q352.679 89.8329 349.195 89.2252 Q345.711 88.6581 342.43 87.4428 L342.43 80.1917 Q345.711 81.9741 348.912 82.8248 Q352.112 83.6755 355.434 83.6755 Q362.766 83.6755 366.412 79.8271 Q370.057 76.0193 370.057 68.282 L370.057 64.5957 Q367.748 68.6061 364.143 70.5911 Q360.538 72.576 355.515 72.576 Q347.17 72.576 342.066 66.2161 Q336.961 59.8562 336.961 49.3643 Q336.961 38.832 342.066 32.472 Q347.17 26.1121 355.515 26.1121 Q360.538 26.1121 364.143 28.0971 Q367.748 30.082 370.057 34.0924 L370.057 27.2059 L377.511 27.2059 L377.511 66.9452 Z" fill="#000000" fill-rule="nonzero" fill-opacity="1" /><path clip-path="url(#clip350)" d="M393.917 62.2867 L402.465 62.2867 L402.465 72.576 L393.917 72.576 L393.917 62.2867 Z" fill="#000000" fill-rule="nonzero" fill-opacity="1" /><path clip-path="url(#clip350)" d="M482.186 14.0809 L482.186 22.0612 Q477.528 19.8332 473.396 18.7395 Q469.264 17.6457 465.416 17.6457 Q458.732 17.6457 455.086 20.2383 Q451.48 22.8309 451.48 27.611 Q451.48 31.6214 453.871 33.6873 Q456.301 35.7128 463.026 36.9686 L467.968 37.9813 Q477.123 39.7232 481.457 44.1387 Q485.832 48.5136 485.832 55.8863 Q485.832 64.6767 479.918 69.2137 Q474.044 73.7508 462.661 73.7508 Q458.367 73.7508 453.506 72.7785 Q448.685 71.8063 443.5 69.9024 L443.5 61.4765 Q448.483 64.2716 453.263 65.6895 Q458.043 67.1073 462.661 67.1073 Q469.669 67.1073 473.477 64.3527 Q477.285 61.598 477.285 56.4939 Q477.285 52.0379 474.53 49.5264 Q471.816 47.0148 465.578 45.759 L460.595 44.7868 Q451.44 42.9639 447.349 39.075 Q443.257 35.1862 443.257 28.2591 Q443.257 20.2383 448.888 15.6203 Q454.559 11.0023 464.484 11.0023 Q468.737 11.0023 473.153 11.7719 Q477.568 12.5416 482.186 14.0809 Z" fill="#000000" fill-rule="nonzero" fill-opacity="1" /><path clip-path="url(#clip350)" d="M497.499 54.671 L497.499 27.2059 L504.952 27.2059 L504.952 54.3874 Q504.952 60.8284 507.464 64.0691 Q509.976 67.2693 514.999 67.2693 Q521.035 67.2693 524.518 63.421 Q528.043 59.5726 528.043 52.9291 L528.043 27.2059 L535.496 27.2059 L535.496 72.576 L528.043 72.576 L528.043 65.6084 Q525.328 69.7404 521.723 71.7658 Q518.158 73.7508 513.419 73.7508 Q505.601 73.7508 501.55 68.8897 Q497.499 64.0286 497.499 54.671 M516.254 26.1121 L516.254 26.1121 Z" fill="#000000" fill-rule="nonzero" fill-opacity="1" /><path clip-path="url(#clip350)" d="M579.773 28.5427 L579.773 35.5912 Q576.613 33.9709 573.21 33.1607 Q569.807 32.3505 566.162 32.3505 Q560.612 32.3505 557.817 34.0519 Q555.062 35.7533 555.062 39.156 Q555.062 41.7486 557.047 43.2475 Q559.032 44.7058 565.027 46.0426 L567.579 46.6097 Q575.519 48.3111 578.841 51.4303 Q582.203 54.509 582.203 60.0587 Q582.203 66.3781 577.18 70.0644 Q572.197 73.7508 563.447 73.7508 Q559.802 73.7508 555.832 73.0216 Q551.902 72.3329 547.527 70.9151 L547.527 63.2184 Q551.659 65.3654 555.67 66.4591 Q559.68 67.5124 563.61 67.5124 Q568.876 67.5124 571.711 65.73 Q574.547 63.9071 574.547 60.6258 Q574.547 57.5877 572.481 55.9673 Q570.456 54.3469 563.529 52.8481 L560.936 52.2405 Q554.009 50.7821 550.93 47.7845 Q547.852 44.7463 547.852 39.4801 Q547.852 33.0797 552.389 29.5959 Q556.926 26.1121 565.27 26.1121 Q569.402 26.1121 573.048 26.7198 Q576.694 27.3274 579.773 28.5427 Z" fill="#000000" fill-rule="nonzero" fill-opacity="1" /><path clip-path="url(#clip350)" d="M626.723 28.9478 L626.723 35.9153 Q623.563 34.1734 620.363 33.3227 Q617.203 32.4315 613.962 32.4315 Q606.711 32.4315 602.701 37.0496 Q598.69 41.6271 598.69 49.9314 Q598.69 58.2358 602.701 62.8538 Q606.711 67.4314 613.962 67.4314 Q617.203 67.4314 620.363 66.5807 Q623.563 65.6895 626.723 63.9476 L626.723 70.8341 Q623.603 72.2924 620.241 73.0216 Q616.919 73.7508 613.152 73.7508 Q602.903 73.7508 596.867 67.3098 Q590.832 60.8689 590.832 49.9314 Q590.832 38.832 596.908 32.472 Q603.025 26.1121 613.638 26.1121 Q617.081 26.1121 620.363 26.8413 Q623.644 27.5299 626.723 28.9478 Z" fill="#000000" fill-rule="nonzero" fill-opacity="1" /><path clip-path="url(#clip350)" d="M678.493 48.0275 L678.493 51.6733 L644.223 51.6733 Q644.709 59.3701 648.841 63.421 Q653.013 67.4314 660.426 67.4314 Q664.72 67.4314 668.73 66.3781 Q672.781 65.3249 676.751 63.2184 L676.751 70.267 Q672.741 71.9684 668.528 72.8596 Q664.315 73.7508 659.981 73.7508 Q649.124 73.7508 642.764 67.4314 Q636.445 61.1119 636.445 50.3365 Q636.445 39.1965 642.44 32.6746 Q648.476 26.1121 658.684 26.1121 Q667.839 26.1121 673.146 32.0264 Q678.493 37.9003 678.493 48.0275 M671.039 45.84 Q670.958 39.7232 667.596 36.0774 Q664.274 32.4315 658.765 32.4315 Q652.527 32.4315 648.76 35.9558 Q645.033 39.4801 644.466 45.8805 L671.039 45.84 Z" fill="#000000" fill-rule="nonzero" fill-opacity="1" /><path clip-path="url(#clip350)" d="M697.938 65.7705 L697.938 89.8329 L690.443 89.8329 L690.443 27.2059 L697.938 27.2059 L697.938 34.0924 Q700.287 30.0415 703.852 28.0971 Q707.457 26.1121 712.44 26.1121 Q720.704 26.1121 725.848 32.6746 Q731.033 39.2371 731.033 49.9314 Q731.033 60.6258 725.848 67.1883 Q720.704 73.7508 712.44 73.7508 Q707.457 73.7508 703.852 71.8063 Q700.287 69.8214 697.938 65.7705 M723.296 49.9314 Q723.296 41.7081 719.893 37.0496 Q716.531 32.3505 710.617 32.3505 Q704.703 32.3505 701.3 37.0496 Q697.938 41.7081 697.938 49.9314 Q697.938 58.1548 701.3 62.8538 Q704.703 67.5124 710.617 67.5124 Q716.531 67.5124 719.893 62.8538 Q723.296 58.1548 723.296 49.9314 Z" fill="#000000" fill-rule="nonzero" fill-opacity="1" /><path clip-path="url(#clip350)" d="M750.761 14.324 L750.761 27.2059 L766.114 27.2059 L766.114 32.9987 L750.761 32.9987 L750.761 57.6282 Q750.761 63.1779 752.26 64.7578 Q753.799 66.3376 758.458 66.3376 L766.114 66.3376 L766.114 72.576 L758.458 72.576 Q749.83 72.576 746.548 69.3758 Q743.267 66.1351 743.267 57.6282 L743.267 32.9987 L737.798 32.9987 L737.798 27.2059 L743.267 27.2059 L743.267 14.324 L750.761 14.324 Z" fill="#000000" fill-rule="nonzero" fill-opacity="1" /><path clip-path="url(#clip350)" d="M776.971 62.2867 L785.518 62.2867 L785.518 72.576 L776.971 72.576 L776.971 62.2867 Z" fill="#000000" fill-rule="nonzero" fill-opacity="1" /><path clip-path="url(#clip350)" d="M823.313 27.2059 L831.212 27.2059 L845.39 65.2844 L859.569 27.2059 L867.468 27.2059 L850.454 72.576 L840.327 72.576 L823.313 27.2059 Z" fill="#000000" fill-rule="nonzero" fill-opacity="1" /><path clip-path="url(#clip350)" d="M906.681 28.5427 L906.681 35.5912 Q903.521 33.9709 900.118 33.1607 Q896.715 32.3505 893.07 32.3505 Q887.52 32.3505 884.725 34.0519 Q881.97 35.7533 881.97 39.156 Q881.97 41.7486 883.955 43.2475 Q885.94 44.7058 891.935 46.0426 L894.487 46.6097 Q902.427 48.3111 905.749 51.4303 Q909.111 54.509 909.111 60.0587 Q909.111 66.3781 904.088 70.0644 Q899.105 73.7508 890.355 73.7508 Q886.71 73.7508 882.74 73.0216 Q878.81 72.3329 874.435 70.9151 L874.435 63.2184 Q878.567 65.3654 882.578 66.4591 Q886.588 67.5124 890.517 67.5124 Q895.784 67.5124 898.619 65.73 Q901.455 63.9071 901.455 60.6258 Q901.455 57.5877 899.389 55.9673 Q897.364 54.3469 890.436 52.8481 L887.844 52.2405 Q880.917 50.7821 877.838 47.7845 Q874.759 44.7463 874.759 39.4801 Q874.759 33.0797 879.296 29.5959 Q883.833 26.1121 892.178 26.1121 Q896.31 26.1121 899.956 26.7198 Q903.602 27.3274 906.681 28.5427 Z" fill="#000000" fill-rule="nonzero" fill-opacity="1" /><path clip-path="url(#clip350)" d="M939.29 12.096 L990.453 12.096 L990.453 18.9825 L968.984 18.9825 L968.984 72.576 L960.76 72.576 L960.76 18.9825 L939.29 18.9825 L939.29 12.096 Z" fill="#000000" fill-rule="nonzero" fill-opacity="1" /><path clip-path="url(#clip350)" d="M1022.74 48.0275 L1022.74 51.6733 L988.468 51.6733 Q988.954 59.3701 993.086 63.421 Q997.259 67.4314 1004.67 67.4314 Q1008.97 67.4314 1012.98 66.3781 Q1017.03 65.3249 1021 63.2184 L1021 70.267 Q1016.99 71.9684 1012.77 72.8596 Q1008.56 73.7508 1004.23 73.7508 Q993.37 73.7508 987.01 67.4314 Q980.691 61.1119 980.691 50.3365 Q980.691 39.1965 986.686 32.6746 Q992.722 26.1121 1002.93 26.1121 Q1012.09 26.1121 1017.39 32.0264 Q1022.74 37.9003 1022.74 48.0275 M1015.29 45.84 Q1015.2 39.7232 1011.84 36.0774 Q1008.52 32.4315 1003.01 32.4315 Q996.773 32.4315 993.005 35.9558 Q989.279 39.4801 988.711 45.8805 L1015.29 45.84 Z" fill="#000000" fill-rule="nonzero" fill-opacity="1" /><path clip-path="url(#clip350)" d="M1070.3 35.9153 Q1073.09 30.8922 1076.98 28.5022 Q1080.87 26.1121 1086.14 26.1121 Q1093.22 26.1121 1097.07 31.0947 Q1100.92 36.0368 1100.92 45.1919 L1100.92 72.576 L1093.43 72.576 L1093.43 45.4349 Q1093.43 38.913 1091.12 35.7533 Q1088.81 32.5936 1084.07 32.5936 Q1078.28 32.5936 1074.91 36.4419 Q1071.55 40.2903 1071.55 46.9338 L1071.55 72.576 L1064.06 72.576 L1064.06 45.4349 Q1064.06 38.8725 1061.75 35.7533 Q1059.44 32.5936 1054.62 32.5936 Q1048.91 32.5936 1045.55 36.4824 Q1042.18 40.3308 1042.18 46.9338 L1042.18 72.576 L1034.69 72.576 L1034.69 27.2059 L1042.18 27.2059 L1042.18 34.2544 Q1044.74 30.082 1048.3 28.0971 Q1051.87 26.1121 1056.77 26.1121 Q1061.71 26.1121 1065.15 28.6237 Q1068.64 31.1352 1070.3 35.9153 Z" fill="#000000" fill-rule="nonzero" fill-opacity="1" /><path clip-path="url(#clip350)" d="M1123 65.7705 L1123 89.8329 L1115.5 89.8329 L1115.5 27.2059 L1123 27.2059 L1123 34.0924 Q1125.35 30.0415 1128.91 28.0971 Q1132.52 26.1121 1137.5 26.1121 Q1145.76 26.1121 1150.91 32.6746 Q1156.09 39.2371 1156.09 49.9314 Q1156.09 60.6258 1150.91 67.1883 Q1145.76 73.7508 1137.5 73.7508 Q1132.52 73.7508 1128.91 71.8063 Q1125.35 69.8214 1123 65.7705 M1148.36 49.9314 Q1148.36 41.7081 1144.95 37.0496 Q1141.59 32.3505 1135.68 32.3505 Q1129.76 32.3505 1126.36 37.0496 Q1123 41.7081 1123 49.9314 Q1123 58.1548 1126.36 62.8538 Q1129.76 67.5124 1135.68 67.5124 Q1141.59 67.5124 1144.95 62.8538 Q1148.36 58.1548 1148.36 49.9314 Z" fill="#000000" fill-rule="nonzero" fill-opacity="1" /><path clip-path="url(#clip350)" d="M1169.5 62.2867 L1178.05 62.2867 L1178.05 72.576 L1169.5 72.576 L1169.5 62.2867 Z" fill="#000000" fill-rule="nonzero" fill-opacity="1" /><path clip-path="url(#clip350)" d="M1241.81 49.7694 Q1232.78 49.7694 1229.29 51.8354 Q1225.81 53.9013 1225.81 58.8839 Q1225.81 62.8538 1228.4 65.2034 Q1231.04 67.5124 1235.53 67.5124 Q1241.73 67.5124 1245.46 63.1374 Q1249.23 58.7219 1249.23 51.4303 L1249.23 49.7694 L1241.81 49.7694 M1256.68 46.6907 L1256.68 72.576 L1249.23 72.576 L1249.23 65.6895 Q1246.67 69.8214 1242.87 71.8063 Q1239.06 73.7508 1233.55 73.7508 Q1226.58 73.7508 1222.45 69.8619 Q1218.36 65.9325 1218.36 59.3701 Q1218.36 51.7138 1223.46 47.825 Q1228.61 43.9361 1238.77 43.9361 L1249.23 43.9361 L1249.23 43.2069 Q1249.23 38.0623 1245.82 35.2672 Q1242.46 32.4315 1236.34 32.4315 Q1232.45 32.4315 1228.77 33.3632 Q1225.08 34.295 1221.68 36.1584 L1221.68 29.2718 Q1225.77 27.692 1229.62 26.9223 Q1233.47 26.1121 1237.11 26.1121 Q1246.96 26.1121 1251.82 31.2163 Q1256.68 36.3204 1256.68 46.6907 Z" fill="#000000" fill-rule="nonzero" fill-opacity="1" /><path clip-path="url(#clip350)" d="M1309.75 45.1919 L1309.75 72.576 L1302.29 72.576 L1302.29 45.4349 Q1302.29 38.994 1299.78 35.7938 Q1297.27 32.5936 1292.25 32.5936 Q1286.21 32.5936 1282.73 36.4419 Q1279.24 40.2903 1279.24 46.9338 L1279.24 72.576 L1271.75 72.576 L1271.75 27.2059 L1279.24 27.2059 L1279.24 34.2544 Q1281.92 30.163 1285.52 28.1376 Q1289.17 26.1121 1293.91 26.1121 Q1301.72 26.1121 1305.74 30.9732 Q1309.75 35.7938 1309.75 45.1919 Z" fill="#000000" fill-rule="nonzero" fill-opacity="1" /><path clip-path="url(#clip350)" d="M1354.47 34.0924 L1354.47 9.54393 L1361.92 9.54393 L1361.92 72.576 L1354.47 72.576 L1354.47 65.7705 Q1352.12 69.8214 1348.51 71.8063 Q1344.95 73.7508 1339.92 73.7508 Q1331.7 73.7508 1326.52 67.1883 Q1321.37 60.6258 1321.37 49.9314 Q1321.37 39.2371 1326.52 32.6746 Q1331.7 26.1121 1339.92 26.1121 Q1344.95 26.1121 1348.51 28.0971 Q1352.12 30.0415 1354.47 34.0924 M1329.07 49.9314 Q1329.07 58.1548 1332.43 62.8538 Q1335.83 67.5124 1341.75 67.5124 Q1347.66 67.5124 1351.06 62.8538 Q1354.47 58.1548 1354.47 49.9314 Q1354.47 41.7081 1351.06 37.0496 Q1347.66 32.3505 1341.75 32.3505 Q1335.83 32.3505 1332.43 37.0496 Q1329.07 41.7081 1329.07 49.9314 Z" fill="#000000" fill-rule="nonzero" fill-opacity="1" /><path clip-path="url(#clip350)" d="M1412.15 18.8205 L1412.15 65.8515 L1422.04 65.8515 Q1434.55 65.8515 1440.35 60.1802 Q1446.18 54.509 1446.18 42.2752 Q1446.18 30.1225 1440.35 24.4918 Q1434.55 18.8205 1422.04 18.8205 L1412.15 18.8205 M1403.97 12.096 L1420.78 12.096 Q1438.36 12.096 1446.59 19.4281 Q1454.81 26.7198 1454.81 42.2752 Q1454.81 57.9117 1446.54 65.2439 Q1438.28 72.576 1420.78 72.576 L1403.97 72.576 L1403.97 12.096 Z" fill="#000000" fill-rule="nonzero" fill-opacity="1" /><path clip-path="url(#clip350)" d="M1467.53 27.2059 L1474.98 27.2059 L1474.98 72.576 L1467.53 72.576 L1467.53 27.2059 M1467.53 9.54393 L1474.98 9.54393 L1474.98 18.9825 L1467.53 18.9825 L1467.53 9.54393 Z" fill="#000000" fill-rule="nonzero" fill-opacity="1" /><path clip-path="url(#clip350)" d="M1525.9 35.9153 Q1528.7 30.8922 1532.59 28.5022 Q1536.47 26.1121 1541.74 26.1121 Q1548.83 26.1121 1552.68 31.0947 Q1556.53 36.0368 1556.53 45.1919 L1556.53 72.576 L1549.03 72.576 L1549.03 45.4349 Q1549.03 38.913 1546.72 35.7533 Q1544.41 32.5936 1539.67 32.5936 Q1533.88 32.5936 1530.52 36.4419 Q1527.16 40.2903 1527.16 46.9338 L1527.16 72.576 L1519.66 72.576 L1519.66 45.4349 Q1519.66 38.8725 1517.35 35.7533 Q1515.05 32.5936 1510.22 32.5936 Q1504.51 32.5936 1501.15 36.4824 Q1497.79 40.3308 1497.79 46.9338 L1497.79 72.576 L1490.29 72.576 L1490.29 27.2059 L1497.79 27.2059 L1497.79 34.2544 Q1500.34 30.082 1503.91 28.0971 Q1507.47 26.1121 1512.37 26.1121 Q1517.31 26.1121 1520.76 28.6237 Q1524.24 31.1352 1525.9 35.9153 Z" fill="#000000" fill-rule="nonzero" fill-opacity="1" /><path clip-path="url(#clip350)" d="M1572.45 62.2867 L1580.99 62.2867 L1580.99 72.576 L1572.45 72.576 L1572.45 62.2867 Z" fill="#000000" fill-rule="nonzero" fill-opacity="1" /><path clip-path="url(#clip350)" d="M1641.72 32.4315 Q1635.72 32.4315 1632.24 37.1306 Q1628.75 41.7891 1628.75 49.9314 Q1628.75 58.0738 1632.2 62.7728 Q1635.68 67.4314 1641.72 67.4314 Q1647.67 67.4314 1651.16 62.7323 Q1654.64 58.0333 1654.64 49.9314 Q1654.64 41.8701 1651.16 37.1711 Q1647.67 32.4315 1641.72 32.4315 M1641.72 26.1121 Q1651.44 26.1121 1656.99 32.4315 Q1662.54 38.7509 1662.54 49.9314 Q1662.54 61.0714 1656.99 67.4314 Q1651.44 73.7508 1641.72 73.7508 Q1631.95 73.7508 1626.4 67.4314 Q1620.9 61.0714 1620.9 49.9314 Q1620.9 38.7509 1626.4 32.4315 Q1631.95 26.1121 1641.72 26.1121 Z" fill="#000000" fill-rule="nonzero" fill-opacity="1" /><path clip-path="url(#clip350)" d="M1697.86 9.54393 L1697.86 15.7418 L1690.73 15.7418 Q1686.72 15.7418 1685.14 17.3622 Q1683.6 18.9825 1683.6 23.1955 L1683.6 27.2059 L1695.88 27.2059 L1695.88 32.9987 L1683.6 32.9987 L1683.6 72.576 L1676.11 72.576 L1676.11 32.9987 L1668.98 32.9987 L1668.98 27.2059 L1676.11 27.2059 L1676.11 24.0462 Q1676.11 16.471 1679.63 13.0277 Q1683.16 9.54393 1690.81 9.54393 L1697.86 9.54393 Z" fill="#000000" fill-rule="nonzero" fill-opacity="1" /><path clip-path="url(#clip350)" d="M1767.05 14.0809 L1767.05 22.0612 Q1762.39 19.8332 1758.26 18.7395 Q1754.13 17.6457 1750.28 17.6457 Q1743.6 17.6457 1739.95 20.2383 Q1736.35 22.8309 1736.35 27.611 Q1736.35 31.6214 1738.74 33.6873 Q1741.17 35.7128 1747.89 36.9686 L1752.83 37.9813 Q1761.99 39.7232 1766.32 44.1387 Q1770.7 48.5136 1770.7 55.8863 Q1770.7 64.6767 1764.78 69.2137 Q1758.91 73.7508 1747.53 73.7508 Q1743.23 73.7508 1738.37 72.7785 Q1733.55 71.8063 1728.37 69.9024 L1728.37 61.4765 Q1733.35 64.2716 1738.13 65.6895 Q1742.91 67.1073 1747.53 67.1073 Q1754.53 67.1073 1758.34 64.3527 Q1762.15 61.598 1762.15 56.4939 Q1762.15 52.0379 1759.4 49.5264 Q1756.68 47.0148 1750.44 45.759 L1745.46 44.7868 Q1736.31 42.9639 1732.21 39.075 Q1728.12 35.1862 1728.12 28.2591 Q1728.12 20.2383 1733.75 15.6203 Q1739.42 11.0023 1749.35 11.0023 Q1753.6 11.0023 1758.02 11.7719 Q1762.43 12.5416 1767.05 14.0809 Z" fill="#000000" fill-rule="nonzero" fill-opacity="1" /><path clip-path="url(#clip350)" d="M1790.34 65.7705 L1790.34 89.8329 L1782.85 89.8329 L1782.85 27.2059 L1790.34 27.2059 L1790.34 34.0924 Q1792.69 30.0415 1796.26 28.0971 Q1799.86 26.1121 1804.85 26.1121 Q1813.11 26.1121 1818.26 32.6746 Q1823.44 39.2371 1823.44 49.9314 Q1823.44 60.6258 1818.26 67.1883 Q1813.11 73.7508 1804.85 73.7508 Q1799.86 73.7508 1796.26 71.8063 Q1792.69 69.8214 1790.34 65.7705 M1815.7 49.9314 Q1815.7 41.7081 1812.3 37.0496 Q1808.94 32.3505 1803.02 32.3505 Q1797.11 32.3505 1793.71 37.0496 Q1790.34 41.7081 1790.34 49.9314 Q1790.34 58.1548 1793.71 62.8538 Q1797.11 67.5124 1803.02 67.5124 Q1808.94 67.5124 1812.3 62.8538 Q1815.7 58.1548 1815.7 49.9314 Z" fill="#000000" fill-rule="nonzero" fill-opacity="1" /><path clip-path="url(#clip350)" d="M1835.8 27.2059 L1843.25 27.2059 L1843.25 72.576 L1835.8 72.576 L1835.8 27.2059 M1835.8 9.54393 L1843.25 9.54393 L1843.25 18.9825 L1835.8 18.9825 L1835.8 9.54393 Z" fill="#000000" fill-rule="nonzero" fill-opacity="1" /><path clip-path="url(#clip350)" d="M1896.56 45.1919 L1896.56 72.576 L1889.11 72.576 L1889.11 45.4349 Q1889.11 38.994 1886.59 35.7938 Q1884.08 32.5936 1879.06 32.5936 Q1873.02 32.5936 1869.54 36.4419 Q1866.06 40.2903 1866.06 46.9338 L1866.06 72.576 L1858.56 72.576 L1858.56 27.2059 L1866.06 27.2059 L1866.06 34.2544 Q1868.73 30.163 1872.34 28.1376 Q1875.98 26.1121 1880.72 26.1121 Q1888.54 26.1121 1892.55 30.9732 Q1896.56 35.7938 1896.56 45.1919 Z" fill="#000000" fill-rule="nonzero" fill-opacity="1" /><path clip-path="url(#clip350)" d="M1940.35 28.5427 L1940.35 35.5912 Q1937.19 33.9709 1933.79 33.1607 Q1930.38 32.3505 1926.74 32.3505 Q1921.19 32.3505 1918.39 34.0519 Q1915.64 35.7533 1915.64 39.156 Q1915.64 41.7486 1917.62 43.2475 Q1919.61 44.7058 1925.6 46.0426 L1928.16 46.6097 Q1936.1 48.3111 1939.42 51.4303 Q1942.78 54.509 1942.78 60.0587 Q1942.78 66.3781 1937.76 70.0644 Q1932.77 73.7508 1924.02 73.7508 Q1920.38 73.7508 1916.41 73.0216 Q1912.48 72.3329 1908.1 70.9151 L1908.1 63.2184 Q1912.24 65.3654 1916.25 66.4591 Q1920.26 67.5124 1924.19 67.5124 Q1929.45 67.5124 1932.29 65.73 Q1935.12 63.9071 1935.12 60.6258 Q1935.12 57.5877 1933.06 55.9673 Q1931.03 54.3469 1924.11 52.8481 L1921.51 52.2405 Q1914.59 50.7821 1911.51 47.7845 Q1908.43 44.7463 1908.43 39.4801 Q1908.43 33.0797 1912.97 29.5959 Q1917.5 26.1121 1925.85 26.1121 Q1929.98 26.1121 1933.63 26.7198 Q1937.27 27.3274 1940.35 28.5427 Z" fill="#000000" fill-rule="nonzero" fill-opacity="1" /><path clip-path="url(#clip350)" d="M1998.93 9.62495 Q1993.5 18.942 1990.86 28.0566 Q1988.23 37.1711 1988.23 46.5287 Q1988.23 55.8863 1990.86 65.0818 Q1993.54 74.2369 1998.93 83.5134 L1992.44 83.5134 Q1986.37 73.9938 1983.33 64.7983 Q1980.33 55.6027 1980.33 46.5287 Q1980.33 37.4952 1983.33 28.3401 Q1986.33 19.1851 1992.44 9.62495 L1998.93 9.62495 Z" fill="#000000" fill-rule="nonzero" fill-opacity="1" /><path clip-path="url(#clip350)" d="M2021.49 65.6895 L2050.05 65.6895 L2050.05 72.576 L2011.65 72.576 L2011.65 65.6895 Q2016.3 60.8689 2024.33 52.7671 Q2032.39 44.6248 2034.45 42.2752 Q2038.38 37.8598 2039.92 34.8216 Q2041.5 31.7429 2041.5 28.7857 Q2041.5 23.9651 2038.1 20.927 Q2034.74 17.8888 2029.31 17.8888 Q2025.46 17.8888 2021.17 19.2256 Q2016.91 20.5624 2012.05 23.2765 L2012.05 15.0127 Q2016.99 13.0277 2021.29 12.015 Q2025.58 11.0023 2029.15 11.0023 Q2038.54 11.0023 2044.13 15.7013 Q2049.72 20.4004 2049.72 28.2591 Q2049.72 31.9859 2048.31 35.3482 Q2046.93 38.6699 2043.24 43.2069 Q2042.23 44.3817 2036.8 50.0125 Q2031.37 55.6027 2021.49 65.6895 Z" fill="#000000" fill-rule="nonzero" fill-opacity="1" /><path clip-path="url(#clip350)" d="M2104.98 48.0275 L2104.98 51.6733 L2070.71 51.6733 Q2071.19 59.3701 2075.33 63.421 Q2079.5 67.4314 2086.91 67.4314 Q2091.21 67.4314 2095.22 66.3781 Q2099.27 65.3249 2103.24 63.2184 L2103.24 70.267 Q2099.23 71.9684 2095.01 72.8596 Q2090.8 73.7508 2086.47 73.7508 Q2075.61 73.7508 2069.25 67.4314 Q2062.93 61.1119 2062.93 50.3365 Q2062.93 39.1965 2068.93 32.6746 Q2074.96 26.1121 2085.17 26.1121 Q2094.32 26.1121 2099.63 32.0264 Q2104.98 37.9003 2104.98 48.0275 M2097.52 45.84 Q2097.44 39.7232 2094.08 36.0774 Q2090.76 32.4315 2085.25 32.4315 Q2079.01 32.4315 2075.24 35.9558 Q2071.52 39.4801 2070.95 45.8805 L2097.52 45.84 Z" fill="#000000" fill-rule="nonzero" fill-opacity="1" /><path clip-path="url(#clip350)" d="M2116.2 12.096 L2155.09 12.096 L2155.09 15.5798 L2133.13 72.576 L2124.58 72.576 L2145.24 18.9825 L2116.2 18.9825 L2116.2 12.096 Z" fill="#000000" fill-rule="nonzero" fill-opacity="1" /><path clip-path="url(#clip350)" d="M2196.37 27.2059 L2203.82 27.2059 L2203.82 72.576 L2196.37 72.576 L2196.37 27.2059 M2196.37 9.54393 L2203.82 9.54393 L2203.82 18.9825 L2196.37 18.9825 L2196.37 9.54393 Z" fill="#000000" fill-rule="nonzero" fill-opacity="1" /><path clip-path="url(#clip350)" d="M2226.79 14.324 L2226.79 27.2059 L2242.14 27.2059 L2242.14 32.9987 L2226.79 32.9987 L2226.79 57.6282 Q2226.79 63.1779 2228.29 64.7578 Q2229.83 66.3376 2234.49 66.3376 L2242.14 66.3376 L2242.14 72.576 L2234.49 72.576 Q2225.86 72.576 2222.58 69.3758 Q2219.3 66.1351 2219.3 57.6282 L2219.3 32.9987 L2213.83 32.9987 L2213.83 27.2059 L2219.3 27.2059 L2219.3 14.324 L2226.79 14.324 Z" fill="#000000" fill-rule="nonzero" fill-opacity="1" /><path clip-path="url(#clip350)" d="M2290.75 48.0275 L2290.75 51.6733 L2256.48 51.6733 Q2256.97 59.3701 2261.1 63.421 Q2265.27 67.4314 2272.69 67.4314 Q2276.98 67.4314 2280.99 66.3781 Q2285.04 65.3249 2289.01 63.2184 L2289.01 70.267 Q2285 71.9684 2280.79 72.8596 Q2276.57 73.7508 2272.24 73.7508 Q2261.38 73.7508 2255.02 67.4314 Q2248.7 61.1119 2248.7 50.3365 Q2248.7 39.1965 2254.7 32.6746 Q2260.74 26.1121 2270.94 26.1121 Q2280.1 26.1121 2285.41 32.0264 Q2290.75 37.9003 2290.75 48.0275 M2283.3 45.84 Q2283.22 39.7232 2279.86 36.0774 Q2276.53 32.4315 2271.03 32.4315 Q2264.79 32.4315 2261.02 35.9558 Q2257.29 39.4801 2256.73 45.8805 L2283.3 45.84 Z" fill="#000000" fill-rule="nonzero" fill-opacity="1" /><path clip-path="url(#clip350)" d="M2329.28 34.1734 Q2328.02 33.4443 2326.52 33.1202 Q2325.06 32.7556 2323.28 32.7556 Q2316.96 32.7556 2313.56 36.8875 Q2310.2 40.9789 2310.2 48.6757 L2310.2 72.576 L2302.7 72.576 L2302.7 27.2059 L2310.2 27.2059 L2310.2 34.2544 Q2312.55 30.1225 2316.31 28.1376 Q2320.08 26.1121 2325.47 26.1121 Q2326.24 26.1121 2327.17 26.2337 Q2328.1 26.3147 2329.24 26.5172 L2329.28 34.1734 Z" fill="#000000" fill-rule="nonzero" fill-opacity="1" /><path clip-path="url(#clip350)" d="M2335.92 9.62495 L2342.4 9.62495 Q2348.48 19.1851 2351.48 28.3401 Q2354.51 37.4952 2354.51 46.5287 Q2354.51 55.6027 2351.48 64.7983 Q2348.48 73.9938 2342.4 83.5134 L2335.92 83.5134 Q2341.31 74.2369 2343.94 65.0818 Q2346.62 55.8863 2346.62 46.5287 Q2346.62 37.1711 2343.94 28.0566 Q2341.31 18.942 2335.92 9.62495 Z" fill="#000000" fill-rule="nonzero" fill-opacity="1" /><circle clip-path="url(#clip352)" cx="280.231" cy="1386.4" r="14.4" fill="#009af9" fill-rule="evenodd" fill-opacity="1" stroke="#000000" stroke-opacity="1" stroke-width="3.2"/>
<circle clip-path="url(#clip352)" cx="331.825" cy="1386.4" r="14.4" fill="#009af9" fill-rule="evenodd" fill-opacity="1" stroke="#000000" stroke-opacity="1" stroke-width="3.2"/>
<circle clip-path="url(#clip352)" cx="383.419" cy="1386.4" r="14.4" fill="#009af9" fill-rule="evenodd" fill-opacity="1" stroke="#000000" stroke-opacity="1" stroke-width="3.2"/>
<circle clip-path="url(#clip352)" cx="435.013" cy="1386.4" r="14.4" fill="#009af9" fill-rule="evenodd" fill-opacity="1" stroke="#000000" stroke-opacity="1" stroke-width="3.2"/>
<circle clip-path="url(#clip352)" cx="486.606" cy="1386.4" r="14.4" fill="#009af9" fill-rule="evenodd" fill-opacity="1" stroke="#000000" stroke-opacity="1" stroke-width="3.2"/>
<circle clip-path="url(#clip352)" cx="538.2" cy="1386.4" r="14.4" fill="#009af9" fill-rule="evenodd" fill-opacity="1" stroke="#000000" stroke-opacity="1" stroke-width="3.2"/>
<circle clip-path="url(#clip352)" cx="589.794" cy="1386.4" r="14.4" fill="#009af9" fill-rule="evenodd" fill-opacity="1" stroke="#000000" stroke-opacity="1" stroke-width="3.2"/>
<circle clip-path="url(#clip352)" cx="641.388" cy="1386.4" r="14.4" fill="#009af9" fill-rule="evenodd" fill-opacity="1" stroke="#000000" stroke-opacity="1" stroke-width="3.2"/>
<circle clip-path="url(#clip352)" cx="692.982" cy="1386.4" r="14.4" fill="#009af9" fill-rule="evenodd" fill-opacity="1" stroke="#000000" stroke-opacity="1" stroke-width="3.2"/>
<circle clip-path="url(#clip352)" cx="744.576" cy="1385.52" r="14.4" fill="#009af9" fill-rule="evenodd" fill-opacity="1" stroke="#000000" stroke-opacity="1" stroke-width="3.2"/>
<circle clip-path="url(#clip352)" cx="796.17" cy="1384.42" r="14.4" fill="#009af9" fill-rule="evenodd" fill-opacity="1" stroke="#000000" stroke-opacity="1" stroke-width="3.2"/>
<circle clip-path="url(#clip352)" cx="847.763" cy="1384.6" r="14.4" fill="#009af9" fill-rule="evenodd" fill-opacity="1" stroke="#000000" stroke-opacity="1" stroke-width="3.2"/>
<circle clip-path="url(#clip352)" cx="899.357" cy="1382.77" r="14.4" fill="#009af9" fill-rule="evenodd" fill-opacity="1" stroke="#000000" stroke-opacity="1" stroke-width="3.2"/>
<circle clip-path="url(#clip352)" cx="950.951" cy="1380.93" r="14.4" fill="#009af9" fill-rule="evenodd" fill-opacity="1" stroke="#000000" stroke-opacity="1" stroke-width="3.2"/>
<circle clip-path="url(#clip352)" cx="1002.54" cy="1372.61" r="14.4" fill="#009af9" fill-rule="evenodd" fill-opacity="1" stroke="#000000" stroke-opacity="1" stroke-width="3.2"/>
<circle clip-path="url(#clip352)" cx="1054.14" cy="1370.66" r="14.4" fill="#009af9" fill-rule="evenodd" fill-opacity="1" stroke="#000000" stroke-opacity="1" stroke-width="3.2"/>
<circle clip-path="url(#clip352)" cx="1105.73" cy="1364.34" r="14.4" fill="#009af9" fill-rule="evenodd" fill-opacity="1" stroke="#000000" stroke-opacity="1" stroke-width="3.2"/>
<circle clip-path="url(#clip352)" cx="1157.33" cy="1354.94" r="14.4" fill="#009af9" fill-rule="evenodd" fill-opacity="1" stroke="#000000" stroke-opacity="1" stroke-width="3.2"/>
<circle clip-path="url(#clip352)" cx="1208.92" cy="1346.26" r="14.4" fill="#009af9" fill-rule="evenodd" fill-opacity="1" stroke="#000000" stroke-opacity="1" stroke-width="3.2"/>
<circle clip-path="url(#clip352)" cx="1260.51" cy="1322.85" r="14.4" fill="#009af9" fill-rule="evenodd" fill-opacity="1" stroke="#000000" stroke-opacity="1" stroke-width="3.2"/>
<circle clip-path="url(#clip352)" cx="1312.11" cy="1308.77" r="14.4" fill="#009af9" fill-rule="evenodd" fill-opacity="1" stroke="#000000" stroke-opacity="1" stroke-width="3.2"/>
<circle clip-path="url(#clip352)" cx="1363.7" cy="1260.15" r="14.4" fill="#009af9" fill-rule="evenodd" fill-opacity="1" stroke="#000000" stroke-opacity="1" stroke-width="3.2"/>
<circle clip-path="url(#clip352)" cx="1415.3" cy="940.006" r="14.4" fill="#009af9" fill-rule="evenodd" fill-opacity="1" stroke="#000000" stroke-opacity="1" stroke-width="3.2"/>
<circle clip-path="url(#clip352)" cx="1466.89" cy="966.108" r="14.4" fill="#009af9" fill-rule="evenodd" fill-opacity="1" stroke="#000000" stroke-opacity="1" stroke-width="3.2"/>
<circle clip-path="url(#clip352)" cx="1518.48" cy="983.265" r="14.4" fill="#009af9" fill-rule="evenodd" fill-opacity="1" stroke="#000000" stroke-opacity="1" stroke-width="3.2"/>
<circle clip-path="url(#clip352)" cx="1570.08" cy="993.746" r="14.4" fill="#009af9" fill-rule="evenodd" fill-opacity="1" stroke="#000000" stroke-opacity="1" stroke-width="3.2"/>
<circle clip-path="url(#clip352)" cx="1621.67" cy="1008.98" r="14.4" fill="#009af9" fill-rule="evenodd" fill-opacity="1" stroke="#000000" stroke-opacity="1" stroke-width="3.2"/>
<circle clip-path="url(#clip352)" cx="1673.26" cy="1019.99" r="14.4" fill="#009af9" fill-rule="evenodd" fill-opacity="1" stroke="#000000" stroke-opacity="1" stroke-width="3.2"/>
<circle clip-path="url(#clip352)" cx="1724.86" cy="1034.65" r="14.4" fill="#009af9" fill-rule="evenodd" fill-opacity="1" stroke="#000000" stroke-opacity="1" stroke-width="3.2"/>
<circle clip-path="url(#clip352)" cx="1776.45" cy="1046.31" r="14.4" fill="#009af9" fill-rule="evenodd" fill-opacity="1" stroke="#000000" stroke-opacity="1" stroke-width="3.2"/>
<circle clip-path="url(#clip352)" cx="1828.05" cy="1056.54" r="14.4" fill="#009af9" fill-rule="evenodd" fill-opacity="1" stroke="#000000" stroke-opacity="1" stroke-width="3.2"/>
<circle clip-path="url(#clip352)" cx="1879.64" cy="1067.19" r="14.4" fill="#009af9" fill-rule="evenodd" fill-opacity="1" stroke="#000000" stroke-opacity="1" stroke-width="3.2"/>
<circle clip-path="url(#clip352)" cx="1931.23" cy="1078.05" r="14.4" fill="#009af9" fill-rule="evenodd" fill-opacity="1" stroke="#000000" stroke-opacity="1" stroke-width="3.2"/>
<circle clip-path="url(#clip352)" cx="1982.83" cy="1087.16" r="14.4" fill="#009af9" fill-rule="evenodd" fill-opacity="1" stroke="#000000" stroke-opacity="1" stroke-width="3.2"/>
<circle clip-path="url(#clip352)" cx="2034.42" cy="1095.35" r="14.4" fill="#009af9" fill-rule="evenodd" fill-opacity="1" stroke="#000000" stroke-opacity="1" stroke-width="3.2"/>
<circle clip-path="url(#clip352)" cx="2086.02" cy="1103.69" r="14.4" fill="#009af9" fill-rule="evenodd" fill-opacity="1" stroke="#000000" stroke-opacity="1" stroke-width="3.2"/>
<circle clip-path="url(#clip352)" cx="2137.61" cy="1111.87" r="14.4" fill="#009af9" fill-rule="evenodd" fill-opacity="1" stroke="#000000" stroke-opacity="1" stroke-width="3.2"/>
<circle clip-path="url(#clip352)" cx="2189.2" cy="1119.37" r="14.4" fill="#009af9" fill-rule="evenodd" fill-opacity="1" stroke="#000000" stroke-opacity="1" stroke-width="3.2"/>
<circle clip-path="url(#clip352)" cx="2240.8" cy="1126.05" r="14.4" fill="#009af9" fill-rule="evenodd" fill-opacity="1" stroke="#000000" stroke-opacity="1" stroke-width="3.2"/>
<circle clip-path="url(#clip352)" cx="2292.39" cy="1132.72" r="14.4" fill="#009af9" fill-rule="evenodd" fill-opacity="1" stroke="#000000" stroke-opacity="1" stroke-width="3.2"/>
<circle clip-path="url(#clip352)" cx="280.231" cy="1126.5" r="14.4" fill="#e26f46" fill-rule="evenodd" fill-opacity="1" stroke="#000000" stroke-opacity="1" stroke-width="3.2"/>
<circle clip-path="url(#clip352)" cx="331.825" cy="1181.11" r="14.4" fill="#e26f46" fill-rule="evenodd" fill-opacity="1" stroke="#000000" stroke-opacity="1" stroke-width="3.2"/>
<circle clip-path="url(#clip352)" cx="383.419" cy="1188.14" r="14.4" fill="#e26f46" fill-rule="evenodd" fill-opacity="1" stroke="#000000" stroke-opacity="1" stroke-width="3.2"/>
<circle clip-path="url(#clip352)" cx="435.013" cy="1185.08" r="14.4" fill="#e26f46" fill-rule="evenodd" fill-opacity="1" stroke="#000000" stroke-opacity="1" stroke-width="3.2"/>
<circle clip-path="url(#clip352)" cx="486.606" cy="1182.32" r="14.4" fill="#e26f46" fill-rule="evenodd" fill-opacity="1" stroke="#000000" stroke-opacity="1" stroke-width="3.2"/>
<circle clip-path="url(#clip352)" cx="538.2" cy="1166.93" r="14.4" fill="#e26f46" fill-rule="evenodd" fill-opacity="1" stroke="#000000" stroke-opacity="1" stroke-width="3.2"/>
<circle clip-path="url(#clip352)" cx="589.794" cy="1146.41" r="14.4" fill="#e26f46" fill-rule="evenodd" fill-opacity="1" stroke="#000000" stroke-opacity="1" stroke-width="3.2"/>
<circle clip-path="url(#clip352)" cx="641.388" cy="1095.36" r="14.4" fill="#e26f46" fill-rule="evenodd" fill-opacity="1" stroke="#000000" stroke-opacity="1" stroke-width="3.2"/>
<circle clip-path="url(#clip352)" cx="692.982" cy="1101" r="14.4" fill="#e26f46" fill-rule="evenodd" fill-opacity="1" stroke="#000000" stroke-opacity="1" stroke-width="3.2"/>
<circle clip-path="url(#clip352)" cx="744.576" cy="1068.29" r="14.4" fill="#e26f46" fill-rule="evenodd" fill-opacity="1" stroke="#000000" stroke-opacity="1" stroke-width="3.2"/>
<circle clip-path="url(#clip352)" cx="796.17" cy="717.292" r="14.4" fill="#e26f46" fill-rule="evenodd" fill-opacity="1" stroke="#000000" stroke-opacity="1" stroke-width="3.2"/>
<circle clip-path="url(#clip352)" cx="847.763" cy="759.98" r="14.4" fill="#e26f46" fill-rule="evenodd" fill-opacity="1" stroke="#000000" stroke-opacity="1" stroke-width="3.2"/>
<circle clip-path="url(#clip352)" cx="899.357" cy="804.01" r="14.4" fill="#e26f46" fill-rule="evenodd" fill-opacity="1" stroke="#000000" stroke-opacity="1" stroke-width="3.2"/>
<circle clip-path="url(#clip352)" cx="950.951" cy="849.105" r="14.4" fill="#e26f46" fill-rule="evenodd" fill-opacity="1" stroke="#000000" stroke-opacity="1" stroke-width="3.2"/>
<circle clip-path="url(#clip352)" cx="1002.54" cy="887.302" r="14.4" fill="#e26f46" fill-rule="evenodd" fill-opacity="1" stroke="#000000" stroke-opacity="1" stroke-width="3.2"/>
<circle clip-path="url(#clip352)" cx="1054.14" cy="920.579" r="14.4" fill="#e26f46" fill-rule="evenodd" fill-opacity="1" stroke="#000000" stroke-opacity="1" stroke-width="3.2"/>
<circle clip-path="url(#clip352)" cx="1105.73" cy="949.206" r="14.4" fill="#e26f46" fill-rule="evenodd" fill-opacity="1" stroke="#000000" stroke-opacity="1" stroke-width="3.2"/>
<circle clip-path="url(#clip352)" cx="1157.33" cy="974.975" r="14.4" fill="#e26f46" fill-rule="evenodd" fill-opacity="1" stroke="#000000" stroke-opacity="1" stroke-width="3.2"/>
<circle clip-path="url(#clip352)" cx="1208.92" cy="998.294" r="14.4" fill="#e26f46" fill-rule="evenodd" fill-opacity="1" stroke="#000000" stroke-opacity="1" stroke-width="3.2"/>
<circle clip-path="url(#clip352)" cx="1260.51" cy="1018.28" r="14.4" fill="#e26f46" fill-rule="evenodd" fill-opacity="1" stroke="#000000" stroke-opacity="1" stroke-width="3.2"/>
<circle clip-path="url(#clip352)" cx="1312.11" cy="1036.6" r="14.4" fill="#e26f46" fill-rule="evenodd" fill-opacity="1" stroke="#000000" stroke-opacity="1" stroke-width="3.2"/>
<circle clip-path="url(#clip352)" cx="1363.7" cy="1053.3" r="14.4" fill="#e26f46" fill-rule="evenodd" fill-opacity="1" stroke="#000000" stroke-opacity="1" stroke-width="3.2"/>
<circle clip-path="url(#clip352)" cx="1415.3" cy="1068.4" r="14.4" fill="#e26f46" fill-rule="evenodd" fill-opacity="1" stroke="#000000" stroke-opacity="1" stroke-width="3.2"/>
<circle clip-path="url(#clip352)" cx="1466.89" cy="1082.45" r="14.4" fill="#e26f46" fill-rule="evenodd" fill-opacity="1" stroke="#000000" stroke-opacity="1" stroke-width="3.2"/>
<circle clip-path="url(#clip352)" cx="1518.48" cy="1095" r="14.4" fill="#e26f46" fill-rule="evenodd" fill-opacity="1" stroke="#000000" stroke-opacity="1" stroke-width="3.2"/>
<circle clip-path="url(#clip352)" cx="1570.08" cy="1106.57" r="14.4" fill="#e26f46" fill-rule="evenodd" fill-opacity="1" stroke="#000000" stroke-opacity="1" stroke-width="3.2"/>
<circle clip-path="url(#clip352)" cx="1621.67" cy="1117.35" r="14.4" fill="#e26f46" fill-rule="evenodd" fill-opacity="1" stroke="#000000" stroke-opacity="1" stroke-width="3.2"/>
<circle clip-path="url(#clip352)" cx="1673.26" cy="1127.33" r="14.4" fill="#e26f46" fill-rule="evenodd" fill-opacity="1" stroke="#000000" stroke-opacity="1" stroke-width="3.2"/>
<circle clip-path="url(#clip352)" cx="1724.86" cy="1136.53" r="14.4" fill="#e26f46" fill-rule="evenodd" fill-opacity="1" stroke="#000000" stroke-opacity="1" stroke-width="3.2"/>
<circle clip-path="url(#clip352)" cx="1776.45" cy="1145.22" r="14.4" fill="#e26f46" fill-rule="evenodd" fill-opacity="1" stroke="#000000" stroke-opacity="1" stroke-width="3.2"/>
<circle clip-path="url(#clip352)" cx="1828.05" cy="1153.21" r="14.4" fill="#e26f46" fill-rule="evenodd" fill-opacity="1" stroke="#000000" stroke-opacity="1" stroke-width="3.2"/>
<circle clip-path="url(#clip352)" cx="1879.64" cy="1160.73" r="14.4" fill="#e26f46" fill-rule="evenodd" fill-opacity="1" stroke="#000000" stroke-opacity="1" stroke-width="3.2"/>
<circle clip-path="url(#clip352)" cx="1931.23" cy="1167.74" r="14.4" fill="#e26f46" fill-rule="evenodd" fill-opacity="1" stroke="#000000" stroke-opacity="1" stroke-width="3.2"/>
<circle clip-path="url(#clip352)" cx="1982.83" cy="1174.35" r="14.4" fill="#e26f46" fill-rule="evenodd" fill-opacity="1" stroke="#000000" stroke-opacity="1" stroke-width="3.2"/>
<circle clip-path="url(#clip352)" cx="2034.42" cy="1180.58" r="14.4" fill="#e26f46" fill-rule="evenodd" fill-opacity="1" stroke="#000000" stroke-opacity="1" stroke-width="3.2"/>
<circle clip-path="url(#clip352)" cx="2086.02" cy="1186.48" r="14.4" fill="#e26f46" fill-rule="evenodd" fill-opacity="1" stroke="#000000" stroke-opacity="1" stroke-width="3.2"/>
<circle clip-path="url(#clip352)" cx="2137.61" cy="1192.03" r="14.4" fill="#e26f46" fill-rule="evenodd" fill-opacity="1" stroke="#000000" stroke-opacity="1" stroke-width="3.2"/>
<circle clip-path="url(#clip352)" cx="2189.2" cy="1197.3" r="14.4" fill="#e26f46" fill-rule="evenodd" fill-opacity="1" stroke="#000000" stroke-opacity="1" stroke-width="3.2"/>
<circle clip-path="url(#clip352)" cx="2240.8" cy="1202.21" r="14.4" fill="#e26f46" fill-rule="evenodd" fill-opacity="1" stroke="#000000" stroke-opacity="1" stroke-width="3.2"/>
<circle clip-path="url(#clip352)" cx="2292.39" cy="1207" r="14.4" fill="#e26f46" fill-rule="evenodd" fill-opacity="1" stroke="#000000" stroke-opacity="1" stroke-width="3.2"/>
<circle clip-path="url(#clip352)" cx="280.231" cy="160.256" r="14.4" fill="#3da44d" fill-rule="evenodd" fill-opacity="1" stroke="#000000" stroke-opacity="1" stroke-width="3.2"/>
<circle clip-path="url(#clip352)" cx="331.825" cy="1060.76" r="14.4" fill="#3da44d" fill-rule="evenodd" fill-opacity="1" stroke="#000000" stroke-opacity="1" stroke-width="3.2"/>
<circle clip-path="url(#clip352)" cx="383.419" cy="1060.68" r="14.4" fill="#3da44d" fill-rule="evenodd" fill-opacity="1" stroke="#000000" stroke-opacity="1" stroke-width="3.2"/>
<circle clip-path="url(#clip352)" cx="435.013" cy="1054.91" r="14.4" fill="#3da44d" fill-rule="evenodd" fill-opacity="1" stroke="#000000" stroke-opacity="1" stroke-width="3.2"/>
<circle clip-path="url(#clip352)" cx="486.606" cy="1011.15" r="14.4" fill="#3da44d" fill-rule="evenodd" fill-opacity="1" stroke="#000000" stroke-opacity="1" stroke-width="3.2"/>
<circle clip-path="url(#clip352)" cx="538.2" cy="254.76" r="14.4" fill="#3da44d" fill-rule="evenodd" fill-opacity="1" stroke="#000000" stroke-opacity="1" stroke-width="3.2"/>
<circle clip-path="url(#clip352)" cx="589.794" cy="450.81" r="14.4" fill="#3da44d" fill-rule="evenodd" fill-opacity="1" stroke="#000000" stroke-opacity="1" stroke-width="3.2"/>
<circle clip-path="url(#clip352)" cx="641.388" cy="599.27" r="14.4" fill="#3da44d" fill-rule="evenodd" fill-opacity="1" stroke="#000000" stroke-opacity="1" stroke-width="3.2"/>
<circle clip-path="url(#clip352)" cx="692.982" cy="676.054" r="14.4" fill="#3da44d" fill-rule="evenodd" fill-opacity="1" stroke="#000000" stroke-opacity="1" stroke-width="3.2"/>
<circle clip-path="url(#clip352)" cx="744.576" cy="752.425" r="14.4" fill="#3da44d" fill-rule="evenodd" fill-opacity="1" stroke="#000000" stroke-opacity="1" stroke-width="3.2"/>
<circle clip-path="url(#clip352)" cx="796.17" cy="815.924" r="14.4" fill="#3da44d" fill-rule="evenodd" fill-opacity="1" stroke="#000000" stroke-opacity="1" stroke-width="3.2"/>
<circle clip-path="url(#clip352)" cx="847.763" cy="867.369" r="14.4" fill="#3da44d" fill-rule="evenodd" fill-opacity="1" stroke="#000000" stroke-opacity="1" stroke-width="3.2"/>
<circle clip-path="url(#clip352)" cx="899.357" cy="910.795" r="14.4" fill="#3da44d" fill-rule="evenodd" fill-opacity="1" stroke="#000000" stroke-opacity="1" stroke-width="3.2"/>
<circle clip-path="url(#clip352)" cx="950.951" cy="947.237" r="14.4" fill="#3da44d" fill-rule="evenodd" fill-opacity="1" stroke="#000000" stroke-opacity="1" stroke-width="3.2"/>
<circle clip-path="url(#clip352)" cx="1002.54" cy="978.633" r="14.4" fill="#3da44d" fill-rule="evenodd" fill-opacity="1" stroke="#000000" stroke-opacity="1" stroke-width="3.2"/>
<circle clip-path="url(#clip352)" cx="1054.14" cy="1005.74" r="14.4" fill="#3da44d" fill-rule="evenodd" fill-opacity="1" stroke="#000000" stroke-opacity="1" stroke-width="3.2"/>
<circle clip-path="url(#clip352)" cx="1105.73" cy="1029.56" r="14.4" fill="#3da44d" fill-rule="evenodd" fill-opacity="1" stroke="#000000" stroke-opacity="1" stroke-width="3.2"/>
<circle clip-path="url(#clip352)" cx="1157.33" cy="1050.43" r="14.4" fill="#3da44d" fill-rule="evenodd" fill-opacity="1" stroke="#000000" stroke-opacity="1" stroke-width="3.2"/>
<circle clip-path="url(#clip352)" cx="1208.92" cy="1069.05" r="14.4" fill="#3da44d" fill-rule="evenodd" fill-opacity="1" stroke="#000000" stroke-opacity="1" stroke-width="3.2"/>
<circle clip-path="url(#clip352)" cx="1260.51" cy="1085.88" r="14.4" fill="#3da44d" fill-rule="evenodd" fill-opacity="1" stroke="#000000" stroke-opacity="1" stroke-width="3.2"/>
<circle clip-path="url(#clip352)" cx="1312.11" cy="1100.83" r="14.4" fill="#3da44d" fill-rule="evenodd" fill-opacity="1" stroke="#000000" stroke-opacity="1" stroke-width="3.2"/>
<circle clip-path="url(#clip352)" cx="1363.7" cy="1114.41" r="14.4" fill="#3da44d" fill-rule="evenodd" fill-opacity="1" stroke="#000000" stroke-opacity="1" stroke-width="3.2"/>
<circle clip-path="url(#clip352)" cx="1415.3" cy="1126.75" r="14.4" fill="#3da44d" fill-rule="evenodd" fill-opacity="1" stroke="#000000" stroke-opacity="1" stroke-width="3.2"/>
<circle clip-path="url(#clip352)" cx="1466.89" cy="1138.04" r="14.4" fill="#3da44d" fill-rule="evenodd" fill-opacity="1" stroke="#000000" stroke-opacity="1" stroke-width="3.2"/>
<circle clip-path="url(#clip352)" cx="1518.48" cy="1148.38" r="14.4" fill="#3da44d" fill-rule="evenodd" fill-opacity="1" stroke="#000000" stroke-opacity="1" stroke-width="3.2"/>
<circle clip-path="url(#clip352)" cx="1570.08" cy="1157.89" r="14.4" fill="#3da44d" fill-rule="evenodd" fill-opacity="1" stroke="#000000" stroke-opacity="1" stroke-width="3.2"/>
<circle clip-path="url(#clip352)" cx="1621.67" cy="1166.71" r="14.4" fill="#3da44d" fill-rule="evenodd" fill-opacity="1" stroke="#000000" stroke-opacity="1" stroke-width="3.2"/>
<circle clip-path="url(#clip352)" cx="1673.26" cy="1174.81" r="14.4" fill="#3da44d" fill-rule="evenodd" fill-opacity="1" stroke="#000000" stroke-opacity="1" stroke-width="3.2"/>
<circle clip-path="url(#clip352)" cx="1724.86" cy="1182.37" r="14.4" fill="#3da44d" fill-rule="evenodd" fill-opacity="1" stroke="#000000" stroke-opacity="1" stroke-width="3.2"/>
<circle clip-path="url(#clip352)" cx="1776.45" cy="1189.45" r="14.4" fill="#3da44d" fill-rule="evenodd" fill-opacity="1" stroke="#000000" stroke-opacity="1" stroke-width="3.2"/>
<circle clip-path="url(#clip352)" cx="1828.05" cy="1195.96" r="14.4" fill="#3da44d" fill-rule="evenodd" fill-opacity="1" stroke="#000000" stroke-opacity="1" stroke-width="3.2"/>
<circle clip-path="url(#clip352)" cx="1879.64" cy="1202.11" r="14.4" fill="#3da44d" fill-rule="evenodd" fill-opacity="1" stroke="#000000" stroke-opacity="1" stroke-width="3.2"/>
<circle clip-path="url(#clip352)" cx="1931.23" cy="1207.92" r="14.4" fill="#3da44d" fill-rule="evenodd" fill-opacity="1" stroke="#000000" stroke-opacity="1" stroke-width="3.2"/>
<circle clip-path="url(#clip352)" cx="1982.83" cy="1213.28" r="14.4" fill="#3da44d" fill-rule="evenodd" fill-opacity="1" stroke="#000000" stroke-opacity="1" stroke-width="3.2"/>
<circle clip-path="url(#clip352)" cx="2034.42" cy="1218.36" r="14.4" fill="#3da44d" fill-rule="evenodd" fill-opacity="1" stroke="#000000" stroke-opacity="1" stroke-width="3.2"/>
<circle clip-path="url(#clip352)" cx="2086.02" cy="1223.16" r="14.4" fill="#3da44d" fill-rule="evenodd" fill-opacity="1" stroke="#000000" stroke-opacity="1" stroke-width="3.2"/>
<circle clip-path="url(#clip352)" cx="2137.61" cy="1227.84" r="14.4" fill="#3da44d" fill-rule="evenodd" fill-opacity="1" stroke="#000000" stroke-opacity="1" stroke-width="3.2"/>
<circle clip-path="url(#clip352)" cx="2189.2" cy="1231.98" r="14.4" fill="#3da44d" fill-rule="evenodd" fill-opacity="1" stroke="#000000" stroke-opacity="1" stroke-width="3.2"/>
<circle clip-path="url(#clip352)" cx="2240.8" cy="1236.05" r="14.4" fill="#3da44d" fill-rule="evenodd" fill-opacity="1" stroke="#000000" stroke-opacity="1" stroke-width="3.2"/>
<circle clip-path="url(#clip352)" cx="2292.39" cy="1239.9" r="14.4" fill="#3da44d" fill-rule="evenodd" fill-opacity="1" stroke="#000000" stroke-opacity="1" stroke-width="3.2"/>
<polyline clip-path="url(#clip352)" style="stroke:#c271d2; stroke-linecap:round; stroke-linejoin:round; stroke-width:4; stroke-opacity:1; fill:none" stroke-dasharray="16, 10" points="1466.37,2722.89 1466.37,-1176.24 "/>
<polyline clip-path="url(#clip352)" style="stroke:#c271d2; stroke-linecap:round; stroke-linejoin:round; stroke-width:4; stroke-opacity:1; fill:none" stroke-dasharray="16, 10" points="873.044,2722.89 873.044,-1176.24 "/>
<polyline clip-path="url(#clip352)" style="stroke:#c271d2; stroke-linecap:round; stroke-linejoin:round; stroke-width:4; stroke-opacity:1; fill:none" stroke-dasharray="16, 10" points="675.268,2722.89 675.268,-1176.24 "/>
<path clip-path="url(#clip350)" d="M1940.71 425.996 L2281.66 425.996 L2281.66 166.796 L1940.71 166.796  Z" fill="#ffffff" fill-rule="evenodd" fill-opacity="1"/>
<polyline clip-path="url(#clip350)" style="stroke:#000000; stroke-linecap:round; stroke-linejoin:round; stroke-width:4; stroke-opacity:1; fill:none" points="1940.71,425.996 2281.66,425.996 2281.66,166.796 1940.71,166.796 1940.71,425.996 "/>
<circle clip-path="url(#clip350)" cx="2035.5" cy="218.636" r="20.48" fill="#009af9" fill-rule="evenodd" fill-opacity="1" stroke="#000000" stroke-opacity="1" stroke-width="4.55111"/>
<path clip-path="url(#clip350)" d="M2149.21 213.925 L2149.21 199.897 L2153.47 199.897 L2153.47 235.916 L2149.21 235.916 L2149.21 232.027 Q2147.87 234.342 2145.81 235.476 Q2143.77 236.587 2140.9 236.587 Q2136.2 236.587 2133.24 232.837 Q2130.3 229.087 2130.3 222.976 Q2130.3 216.865 2133.24 213.115 Q2136.2 209.365 2140.9 209.365 Q2143.77 209.365 2145.81 210.499 Q2147.87 211.61 2149.21 213.925 M2134.7 222.976 Q2134.7 227.675 2136.62 230.36 Q2138.56 233.022 2141.94 233.022 Q2145.32 233.022 2147.27 230.36 Q2149.21 227.675 2149.21 222.976 Q2149.21 218.277 2147.27 215.615 Q2145.32 212.93 2141.94 212.93 Q2138.56 212.93 2136.62 215.615 Q2134.7 218.277 2134.7 222.976 Z" fill="#000000" fill-rule="nonzero" fill-opacity="1" /><path clip-path="url(#clip350)" d="M2162.8 214.388 L2192.48 214.388 L2192.48 218.277 L2162.8 218.277 L2162.8 214.388 M2162.8 223.832 L2192.48 223.832 L2192.48 227.768 L2162.8 227.768 L2162.8 223.832 Z" fill="#000000" fill-rule="nonzero" fill-opacity="1" /><path clip-path="url(#clip350)" d="M2203.38 231.981 L2211.02 231.981 L2211.02 205.615 L2202.71 207.282 L2202.71 203.022 L2210.97 201.356 L2215.65 201.356 L2215.65 231.981 L2223.29 231.981 L2223.29 235.916 L2203.38 235.916 L2203.38 231.981 Z" fill="#000000" fill-rule="nonzero" fill-opacity="1" /><circle clip-path="url(#clip350)" cx="2035.5" cy="270.476" r="20.48" fill="#e26f46" fill-rule="evenodd" fill-opacity="1" stroke="#000000" stroke-opacity="1" stroke-width="4.55111"/>
<path clip-path="url(#clip350)" d="M2149.21 265.765 L2149.21 251.737 L2153.47 251.737 L2153.47 287.756 L2149.21 287.756 L2149.21 283.867 Q2147.87 286.182 2145.81 287.316 Q2143.77 288.427 2140.9 288.427 Q2136.2 288.427 2133.24 284.677 Q2130.3 280.927 2130.3 274.816 Q2130.3 268.705 2133.24 264.955 Q2136.2 261.205 2140.9 261.205 Q2143.77 261.205 2145.81 262.339 Q2147.87 263.45 2149.21 265.765 M2134.7 274.816 Q2134.7 279.515 2136.62 282.2 Q2138.56 284.862 2141.94 284.862 Q2145.32 284.862 2147.27 282.2 Q2149.21 279.515 2149.21 274.816 Q2149.21 270.117 2147.27 267.455 Q2145.32 264.77 2141.94 264.77 Q2138.56 264.77 2136.62 267.455 Q2134.7 270.117 2134.7 274.816 Z" fill="#000000" fill-rule="nonzero" fill-opacity="1" /><path clip-path="url(#clip350)" d="M2162.8 266.228 L2192.48 266.228 L2192.48 270.117 L2162.8 270.117 L2162.8 266.228 M2162.8 275.672 L2192.48 275.672 L2192.48 279.608 L2162.8 279.608 L2162.8 275.672 Z" fill="#000000" fill-rule="nonzero" fill-opacity="1" /><path clip-path="url(#clip350)" d="M2206.6 283.821 L2222.91 283.821 L2222.91 287.756 L2200.97 287.756 L2200.97 283.821 Q2203.63 281.066 2208.22 276.436 Q2212.82 271.784 2214 270.441 Q2216.25 267.918 2217.13 266.182 Q2218.03 264.423 2218.03 262.733 Q2218.03 259.978 2216.09 258.242 Q2214.16 256.506 2211.06 256.506 Q2208.86 256.506 2206.41 257.27 Q2203.98 258.034 2201.2 259.585 L2201.2 254.862 Q2204.03 253.728 2206.48 253.149 Q2208.93 252.571 2210.97 252.571 Q2216.34 252.571 2219.54 255.256 Q2222.73 257.941 2222.73 262.432 Q2222.73 264.561 2221.92 266.483 Q2221.13 268.381 2219.03 270.973 Q2218.45 271.645 2215.35 274.862 Q2212.24 278.057 2206.6 283.821 Z" fill="#000000" fill-rule="nonzero" fill-opacity="1" /><circle clip-path="url(#clip350)" cx="2035.5" cy="322.316" r="20.48" fill="#3da44d" fill-rule="evenodd" fill-opacity="1" stroke="#000000" stroke-opacity="1" stroke-width="4.55111"/>
<path clip-path="url(#clip350)" d="M2149.21 317.605 L2149.21 303.577 L2153.47 303.577 L2153.47 339.596 L2149.21 339.596 L2149.21 335.707 Q2147.87 338.022 2145.81 339.156 Q2143.77 340.267 2140.9 340.267 Q2136.2 340.267 2133.24 336.517 Q2130.3 332.767 2130.3 326.656 Q2130.3 320.545 2133.24 316.795 Q2136.2 313.045 2140.9 313.045 Q2143.77 313.045 2145.81 314.179 Q2147.87 315.29 2149.21 317.605 M2134.7 326.656 Q2134.7 331.355 2136.62 334.04 Q2138.56 336.702 2141.94 336.702 Q2145.32 336.702 2147.27 334.04 Q2149.21 331.355 2149.21 326.656 Q2149.21 321.957 2147.27 319.295 Q2145.32 316.61 2141.94 316.61 Q2138.56 316.61 2136.62 319.295 Q2134.7 321.957 2134.7 326.656 Z" fill="#000000" fill-rule="nonzero" fill-opacity="1" /><path clip-path="url(#clip350)" d="M2162.8 318.068 L2192.48 318.068 L2192.48 321.957 L2162.8 321.957 L2162.8 318.068 M2162.8 327.512 L2192.48 327.512 L2192.48 331.448 L2162.8 331.448 L2162.8 327.512 Z" fill="#000000" fill-rule="nonzero" fill-opacity="1" /><path clip-path="url(#clip350)" d="M2216.73 320.962 Q2220.09 321.679 2221.97 323.948 Q2223.86 326.216 2223.86 329.549 Q2223.86 334.665 2220.35 337.466 Q2216.83 340.267 2210.35 340.267 Q2208.17 340.267 2205.85 339.827 Q2203.56 339.411 2201.11 338.554 L2201.11 334.04 Q2203.05 335.174 2205.37 335.753 Q2207.68 336.332 2210.21 336.332 Q2214.6 336.332 2216.9 334.596 Q2219.21 332.86 2219.21 329.549 Q2219.21 326.494 2217.06 324.781 Q2214.93 323.045 2211.11 323.045 L2207.08 323.045 L2207.08 319.202 L2211.29 319.202 Q2214.74 319.202 2216.57 317.837 Q2218.4 316.448 2218.4 313.855 Q2218.4 311.193 2216.5 309.781 Q2214.63 308.346 2211.11 308.346 Q2209.19 308.346 2206.99 308.763 Q2204.79 309.179 2202.15 310.059 L2202.15 305.892 Q2204.81 305.151 2207.13 304.781 Q2209.47 304.411 2211.53 304.411 Q2216.85 304.411 2219.95 306.841 Q2223.05 309.249 2223.05 313.369 Q2223.05 316.239 2221.41 318.23 Q2219.77 320.198 2216.73 320.962 Z" fill="#000000" fill-rule="nonzero" fill-opacity="1" /><polyline clip-path="url(#clip350)" style="stroke:#c271d2; stroke-linecap:round; stroke-linejoin:round; stroke-width:4; stroke-opacity:1; fill:none" stroke-dasharray="16, 10" points="1964.41,374.156 2106.6,374.156 "/>
<path clip-path="url(#clip350)" d="M2130.3 356.876 L2159.54 356.876 L2159.54 360.811 L2147.27 360.811 L2147.27 391.436 L2142.57 391.436 L2142.57 360.811 L2130.3 360.811 L2130.3 356.876 Z" fill="#000000" fill-rule="nonzero" fill-opacity="1" /><path clip-path="url(#clip350)" d="M2183.56 399.306 L2183.56 402.616 L2158.93 402.616 L2158.93 399.306 L2183.56 399.306 Z" fill="#000000" fill-rule="nonzero" fill-opacity="1" /><path clip-path="url(#clip350)" d="M2213.63 359.538 L2213.63 364.468 Q2211.27 362.269 2208.59 361.181 Q2205.92 360.093 2202.91 360.093 Q2196.99 360.093 2193.84 363.728 Q2190.69 367.339 2190.69 374.19 Q2190.69 381.019 2193.84 384.653 Q2196.99 388.264 2202.91 388.264 Q2205.92 388.264 2208.59 387.176 Q2211.27 386.089 2213.63 383.889 L2213.63 388.774 Q2211.18 390.44 2208.42 391.274 Q2205.69 392.107 2202.64 392.107 Q2194.79 392.107 2190.28 387.315 Q2185.76 382.501 2185.76 374.19 Q2185.76 365.857 2190.28 361.066 Q2194.79 356.251 2202.64 356.251 Q2205.74 356.251 2208.47 357.084 Q2211.22 357.894 2213.63 359.538 Z" fill="#000000" fill-rule="nonzero" fill-opacity="1" /><path clip-path="url(#clip350)" d="M2228.24 356.876 L2232.17 356.876 L2220.14 395.834 L2216.2 395.834 L2228.24 356.876 Z" fill="#000000" fill-rule="nonzero" fill-opacity="1" /><path clip-path="url(#clip350)" d="M2253.7 369.445 L2253.7 355.417 L2257.96 355.417 L2257.96 391.436 L2253.7 391.436 L2253.7 387.547 Q2252.36 389.862 2250.3 390.996 Q2248.26 392.107 2245.39 392.107 Q2240.69 392.107 2237.73 388.357 Q2234.79 384.607 2234.79 378.496 Q2234.79 372.385 2237.73 368.635 Q2240.69 364.885 2245.39 364.885 Q2248.26 364.885 2250.3 366.019 Q2252.36 367.13 2253.7 369.445 M2239.19 378.496 Q2239.19 383.195 2241.11 385.88 Q2243.05 388.542 2246.43 388.542 Q2249.81 388.542 2251.76 385.88 Q2253.7 383.195 2253.7 378.496 Q2253.7 373.797 2251.76 371.135 Q2249.81 368.45 2246.43 368.45 Q2243.05 368.45 2241.11 371.135 Q2239.19 373.797 2239.19 378.496 Z" fill="#000000" fill-rule="nonzero" fill-opacity="1" /></svg>
