<?xml version="1.0" encoding="utf-8"?>
<svg xmlns="http://www.w3.org/2000/svg" xmlns:xlink="http://www.w3.org/1999/xlink" width="600" height="400" viewBox="0 0 2400 1600">
<defs>
  <clipPath id="clip430">
    <rect x="0" y="0" width="2400" height="1600"/>
  </clipPath>
</defs>
<path clip-path="url(#clip430)" d="M0 1600 L2400 1600 L2400 0 L0 0  Z" fill="#ffffff" fill-rule="evenodd" fill-opacity="1"/>
<defs>
  <clipPath id="clip431">
    <rect x="480" y="0" width="1681" height="1600"/>
  </clipPath>
</defs>
<path clip-path="url(#clip430)" d="M257.366 1423.18 L2352.76 1423.18 L2352.76 123.472 L257.366 123.472  Z" fill="#ffffff" fill-rule="evenodd" fill-opacity="1"/>
<defs>
  <clipPath id="clip432">
    <rect x="257" y="123" width="2096" height="1301"/>
  </clipPath>
</defs>
<polyline clip-path="url(#clip432)" style="stroke:#000000; stroke-linecap:round; stroke-linejoin:round; stroke-width:2; stroke-opacity:0.1; fill:none" points="732.834,1423.18 732.834,123.472 "/>
<polyline clip-path="url(#clip432)" style="stroke:#000000; stroke-linecap:round; stroke-linejoin:round; stroke-width:2; stroke-opacity:0.1; fill:none" points="1253.04,1423.18 1253.04,123.472 "/>
<polyline clip-path="url(#clip432)" style="stroke:#000000; stroke-linecap:round; stroke-linejoin:round; stroke-width:2; stroke-opacity:0.1; fill:none" points="1773.25,1423.18 1773.25,123.472 "/>
<polyline clip-path="url(#clip432)" style="stroke:#000000; stroke-linecap:round; stroke-linejoin:round; stroke-width:2; stroke-opacity:0.1; fill:none" points="2293.45,1423.18 2293.45,123.472 "/>
<polyline clip-path="url(#clip432)" style="stroke:#000000; stroke-linecap:round; stroke-linejoin:round; stroke-width:2; stroke-opacity:0.1; fill:none" points="257.366,1224.53 2352.76,1224.53 "/>
<polyline clip-path="url(#clip432)" style="stroke:#000000; stroke-linecap:round; stroke-linejoin:round; stroke-width:2; stroke-opacity:0.1; fill:none" points="257.366,981.727 2352.76,981.727 "/>
<polyline clip-path="url(#clip432)" style="stroke:#000000; stroke-linecap:round; stroke-linejoin:round; stroke-width:2; stroke-opacity:0.1; fill:none" points="257.366,738.925 2352.76,738.925 "/>
<polyline clip-path="url(#clip432)" style="stroke:#000000; stroke-linecap:round; stroke-linejoin:round; stroke-width:2; stroke-opacity:0.1; fill:none" points="257.366,496.124 2352.76,496.124 "/>
<polyline clip-path="url(#clip432)" style="stroke:#000000; stroke-linecap:round; stroke-linejoin:round; stroke-width:2; stroke-opacity:0.1; fill:none" points="257.366,253.322 2352.76,253.322 "/>
<polyline clip-path="url(#clip430)" style="stroke:#000000; stroke-linecap:round; stroke-linejoin:round; stroke-width:4; stroke-opacity:1; fill:none" points="257.366,1423.18 2352.76,1423.18 "/>
<polyline clip-path="url(#clip430)" style="stroke:#000000; stroke-linecap:round; stroke-linejoin:round; stroke-width:4; stroke-opacity:1; fill:none" points="732.834,1423.18 732.834,1404.28 "/>
<polyline clip-path="url(#clip430)" style="stroke:#000000; stroke-linecap:round; stroke-linejoin:round; stroke-width:4; stroke-opacity:1; fill:none" points="1253.04,1423.18 1253.04,1404.28 "/>
<polyline clip-path="url(#clip430)" style="stroke:#000000; stroke-linecap:round; stroke-linejoin:round; stroke-width:4; stroke-opacity:1; fill:none" points="1773.25,1423.18 1773.25,1404.28 "/>
<polyline clip-path="url(#clip430)" style="stroke:#000000; stroke-linecap:round; stroke-linejoin:round; stroke-width:4; stroke-opacity:1; fill:none" points="2293.45,1423.18 2293.45,1404.28 "/>
<path clip-path="url(#clip430)" d="M723.112 1451.02 L741.469 1451.02 L741.469 1454.96 L727.395 1454.96 L727.395 1463.43 Q728.413 1463.08 729.432 1462.92 Q730.45 1462.73 731.469 1462.73 Q737.256 1462.73 740.635 1465.9 Q744.015 1469.08 744.015 1474.49 Q744.015 1480.07 740.543 1483.17 Q737.07 1486.25 730.751 1486.25 Q728.575 1486.25 726.307 1485.88 Q724.061 1485.51 721.654 1484.77 L721.654 1480.07 Q723.737 1481.2 725.959 1481.76 Q728.182 1482.32 730.658 1482.32 Q734.663 1482.32 737.001 1480.21 Q739.339 1478.1 739.339 1474.49 Q739.339 1470.88 737.001 1468.77 Q734.663 1466.67 730.658 1466.67 Q728.783 1466.67 726.908 1467.08 Q725.057 1467.5 723.112 1468.38 L723.112 1451.02 Z" fill="#000000" fill-rule="nonzero" fill-opacity="1" /><path clip-path="url(#clip430)" d="M1227.73 1481.64 L1235.37 1481.64 L1235.37 1455.28 L1227.06 1456.95 L1227.06 1452.69 L1235.32 1451.02 L1240 1451.02 L1240 1481.64 L1247.64 1481.64 L1247.64 1485.58 L1227.73 1485.58 L1227.73 1481.64 Z" fill="#000000" fill-rule="nonzero" fill-opacity="1" /><path clip-path="url(#clip430)" d="M1267.08 1454.1 Q1263.47 1454.1 1261.64 1457.66 Q1259.83 1461.2 1259.83 1468.33 Q1259.83 1475.44 1261.64 1479.01 Q1263.47 1482.55 1267.08 1482.55 Q1270.71 1482.55 1272.52 1479.01 Q1274.35 1475.44 1274.35 1468.33 Q1274.35 1461.2 1272.52 1457.66 Q1270.71 1454.1 1267.08 1454.1 M1267.08 1450.39 Q1272.89 1450.39 1275.95 1455 Q1279.02 1459.58 1279.02 1468.33 Q1279.02 1477.06 1275.95 1481.67 Q1272.89 1486.25 1267.08 1486.25 Q1261.27 1486.25 1258.19 1481.67 Q1255.14 1477.06 1255.14 1468.33 Q1255.14 1459.58 1258.19 1455 Q1261.27 1450.39 1267.08 1450.39 Z" fill="#000000" fill-rule="nonzero" fill-opacity="1" /><path clip-path="url(#clip430)" d="M1748.43 1481.64 L1756.07 1481.64 L1756.07 1455.28 L1747.76 1456.95 L1747.76 1452.69 L1756.02 1451.02 L1760.7 1451.02 L1760.7 1481.64 L1768.34 1481.64 L1768.34 1485.58 L1748.43 1485.58 L1748.43 1481.64 Z" fill="#000000" fill-rule="nonzero" fill-opacity="1" /><path clip-path="url(#clip430)" d="M1777.83 1451.02 L1796.19 1451.02 L1796.19 1454.96 L1782.11 1454.96 L1782.11 1463.43 Q1783.13 1463.08 1784.15 1462.92 Q1785.17 1462.73 1786.19 1462.73 Q1791.97 1462.73 1795.35 1465.9 Q1798.73 1469.08 1798.73 1474.49 Q1798.73 1480.07 1795.26 1483.17 Q1791.79 1486.25 1785.47 1486.25 Q1783.29 1486.25 1781.02 1485.88 Q1778.78 1485.51 1776.37 1484.77 L1776.37 1480.07 Q1778.45 1481.2 1780.68 1481.76 Q1782.9 1482.32 1785.38 1482.32 Q1789.38 1482.32 1791.72 1480.21 Q1794.06 1478.1 1794.06 1474.49 Q1794.06 1470.88 1791.72 1468.77 Q1789.38 1466.67 1785.38 1466.67 Q1783.5 1466.67 1781.63 1467.08 Q1779.77 1467.5 1777.83 1468.38 L1777.83 1451.02 Z" fill="#000000" fill-rule="nonzero" fill-opacity="1" /><path clip-path="url(#clip430)" d="M2272.23 1481.64 L2288.55 1481.64 L2288.55 1485.58 L2266.6 1485.58 L2266.6 1481.64 Q2269.26 1478.89 2273.85 1474.26 Q2278.45 1469.61 2279.63 1468.27 Q2281.88 1465.74 2282.76 1464.01 Q2283.66 1462.25 2283.66 1460.56 Q2283.66 1457.8 2281.72 1456.07 Q2279.8 1454.33 2276.69 1454.33 Q2274.49 1454.33 2272.04 1455.09 Q2269.61 1455.86 2266.83 1457.41 L2266.83 1452.69 Q2269.66 1451.55 2272.11 1450.97 Q2274.56 1450.39 2276.6 1450.39 Q2281.97 1450.39 2285.17 1453.08 Q2288.36 1455.77 2288.36 1460.26 Q2288.36 1462.39 2287.55 1464.31 Q2286.76 1466.2 2284.66 1468.8 Q2284.08 1469.47 2280.98 1472.69 Q2277.87 1475.88 2272.23 1481.64 Z" fill="#000000" fill-rule="nonzero" fill-opacity="1" /><path clip-path="url(#clip430)" d="M2308.36 1454.1 Q2304.75 1454.1 2302.92 1457.66 Q2301.11 1461.2 2301.11 1468.33 Q2301.11 1475.44 2302.92 1479.01 Q2304.75 1482.55 2308.36 1482.55 Q2311.99 1482.55 2313.8 1479.01 Q2315.63 1475.44 2315.63 1468.33 Q2315.63 1461.2 2313.8 1457.66 Q2311.99 1454.1 2308.36 1454.1 M2308.36 1450.39 Q2314.17 1450.39 2317.23 1455 Q2320.3 1459.58 2320.3 1468.33 Q2320.3 1477.06 2317.23 1481.67 Q2314.17 1486.25 2308.36 1486.25 Q2302.55 1486.25 2299.47 1481.67 Q2296.42 1477.06 2296.42 1468.33 Q2296.42 1459.58 2299.47 1455 Q2302.55 1450.39 2308.36 1450.39 Z" fill="#000000" fill-rule="nonzero" fill-opacity="1" /><path clip-path="url(#clip430)" d="M1126.06 1525.81 L1126.06 1562.76 L1133.82 1562.76 Q1143.66 1562.76 1148.21 1558.3 Q1152.79 1553.85 1152.79 1544.24 Q1152.79 1534.69 1148.21 1530.26 Q1143.66 1525.81 1133.82 1525.81 L1126.06 1525.81 M1119.63 1520.52 L1132.84 1520.52 Q1146.65 1520.52 1153.11 1526.28 Q1159.57 1532.01 1159.57 1544.24 Q1159.57 1556.52 1153.08 1562.28 Q1146.59 1568.04 1132.84 1568.04 L1119.63 1568.04 L1119.63 1520.52 Z" fill="#000000" fill-rule="nonzero" fill-opacity="1" /><path clip-path="url(#clip430)" d="M1169.57 1532.4 L1175.42 1532.4 L1175.42 1568.04 L1169.57 1568.04 L1169.57 1532.4 M1169.57 1518.52 L1175.42 1518.52 L1175.42 1525.93 L1169.57 1525.93 L1169.57 1518.52 Z" fill="#000000" fill-rule="nonzero" fill-opacity="1" /><path clip-path="url(#clip430)" d="M1215.43 1539.24 Q1217.63 1535.29 1220.68 1533.41 Q1223.74 1531.54 1227.88 1531.54 Q1233.45 1531.54 1236.47 1535.45 Q1239.49 1539.33 1239.49 1546.53 L1239.49 1568.04 L1233.61 1568.04 L1233.61 1546.72 Q1233.61 1541.59 1231.79 1539.11 Q1229.98 1536.63 1226.25 1536.63 Q1221.7 1536.63 1219.06 1539.65 Q1216.42 1542.68 1216.42 1547.9 L1216.42 1568.04 L1210.53 1568.04 L1210.53 1546.72 Q1210.53 1541.56 1208.72 1539.11 Q1206.9 1536.63 1203.11 1536.63 Q1198.63 1536.63 1195.98 1539.68 Q1193.34 1542.71 1193.34 1547.9 L1193.34 1568.04 L1187.45 1568.04 L1187.45 1532.4 L1193.34 1532.4 L1193.34 1537.93 Q1195.35 1534.66 1198.15 1533.1 Q1200.95 1531.54 1204.8 1531.54 Q1208.68 1531.54 1211.39 1533.51 Q1214.13 1535.48 1215.43 1539.24 Z" fill="#000000" fill-rule="nonzero" fill-opacity="1" /><path clip-path="url(#clip430)" d="M1281.67 1548.76 L1281.67 1551.62 L1254.74 1551.62 Q1255.12 1557.67 1258.37 1560.85 Q1261.65 1564 1267.47 1564 Q1270.85 1564 1274 1563.17 Q1277.18 1562.35 1280.3 1560.69 L1280.3 1566.23 Q1277.15 1567.57 1273.84 1568.27 Q1270.53 1568.97 1267.12 1568.97 Q1258.59 1568.97 1253.59 1564 Q1248.63 1559.04 1248.63 1550.57 Q1248.63 1541.82 1253.34 1536.69 Q1258.08 1531.54 1266.1 1531.54 Q1273.3 1531.54 1277.47 1536.18 Q1281.67 1540.8 1281.67 1548.76 M1275.81 1547.04 Q1275.75 1542.23 1273.11 1539.37 Q1270.5 1536.5 1266.17 1536.5 Q1261.26 1536.5 1258.3 1539.27 Q1255.38 1542.04 1254.93 1547.07 L1275.81 1547.04 Z" fill="#000000" fill-rule="nonzero" fill-opacity="1" /><path clip-path="url(#clip430)" d="M1320.91 1546.53 L1320.91 1568.04 L1315.06 1568.04 L1315.06 1546.72 Q1315.06 1541.66 1313.08 1539.14 Q1311.11 1536.63 1307.16 1536.63 Q1302.42 1536.63 1299.68 1539.65 Q1296.94 1542.68 1296.94 1547.9 L1296.94 1568.04 L1291.06 1568.04 L1291.06 1532.4 L1296.94 1532.4 L1296.94 1537.93 Q1299.05 1534.72 1301.88 1533.13 Q1304.74 1531.54 1308.47 1531.54 Q1314.61 1531.54 1317.76 1535.36 Q1320.91 1539.14 1320.91 1546.53 Z" fill="#000000" fill-rule="nonzero" fill-opacity="1" /><path clip-path="url(#clip430)" d="M1355.32 1533.45 L1355.32 1538.98 Q1352.84 1537.71 1350.16 1537.07 Q1347.49 1536.44 1344.62 1536.44 Q1340.26 1536.44 1338.07 1537.77 Q1335.9 1539.11 1335.9 1541.79 Q1335.9 1543.82 1337.46 1545 Q1339.02 1546.15 1343.73 1547.2 L1345.74 1547.64 Q1351.98 1548.98 1354.59 1551.43 Q1357.23 1553.85 1357.23 1558.21 Q1357.23 1563.17 1353.28 1566.07 Q1349.37 1568.97 1342.49 1568.97 Q1339.63 1568.97 1336.51 1568.39 Q1333.42 1567.85 1329.98 1566.74 L1329.98 1560.69 Q1333.23 1562.38 1336.38 1563.24 Q1339.53 1564.07 1342.62 1564.07 Q1346.76 1564.07 1348.98 1562.66 Q1351.21 1561.23 1351.21 1558.65 Q1351.21 1556.27 1349.59 1554.99 Q1348 1553.72 1342.55 1552.54 L1340.52 1552.07 Q1335.08 1550.92 1332.66 1548.56 Q1330.24 1546.18 1330.24 1542.04 Q1330.24 1537.01 1333.8 1534.27 Q1337.37 1531.54 1343.92 1531.54 Q1347.17 1531.54 1350.03 1532.01 Q1352.9 1532.49 1355.32 1533.45 Z" fill="#000000" fill-rule="nonzero" fill-opacity="1" /><path clip-path="url(#clip430)" d="M1366.55 1532.4 L1372.41 1532.4 L1372.41 1568.04 L1366.55 1568.04 L1366.55 1532.4 M1366.55 1518.52 L1372.41 1518.52 L1372.41 1525.93 L1366.55 1525.93 L1366.55 1518.52 Z" fill="#000000" fill-rule="nonzero" fill-opacity="1" /><path clip-path="url(#clip430)" d="M1398.48 1536.5 Q1393.77 1536.5 1391.03 1540.19 Q1388.29 1543.85 1388.29 1550.25 Q1388.29 1556.65 1391 1560.34 Q1393.74 1564 1398.48 1564 Q1403.16 1564 1405.89 1560.31 Q1408.63 1556.62 1408.63 1550.25 Q1408.63 1543.92 1405.89 1540.23 Q1403.16 1536.5 1398.48 1536.5 M1398.48 1531.54 Q1406.12 1531.54 1410.48 1536.5 Q1414.84 1541.47 1414.84 1550.25 Q1414.84 1559 1410.48 1564 Q1406.12 1568.97 1398.48 1568.97 Q1390.81 1568.97 1386.45 1564 Q1382.12 1559 1382.12 1550.25 Q1382.12 1541.47 1386.45 1536.5 Q1390.81 1531.54 1398.48 1531.54 Z" fill="#000000" fill-rule="nonzero" fill-opacity="1" /><path clip-path="url(#clip430)" d="M1454.18 1546.53 L1454.18 1568.04 L1448.32 1568.04 L1448.32 1546.72 Q1448.32 1541.66 1446.35 1539.14 Q1444.37 1536.63 1440.43 1536.63 Q1435.69 1536.63 1432.95 1539.65 Q1430.21 1542.68 1430.21 1547.9 L1430.21 1568.04 L1424.32 1568.04 L1424.32 1532.4 L1430.21 1532.4 L1430.21 1537.93 Q1432.31 1534.72 1435.14 1533.13 Q1438.01 1531.54 1441.73 1531.54 Q1447.88 1531.54 1451.03 1535.36 Q1454.18 1539.14 1454.18 1546.53 Z" fill="#000000" fill-rule="nonzero" fill-opacity="1" /><path clip-path="url(#clip430)" d="M1488.58 1533.45 L1488.58 1538.98 Q1486.1 1537.71 1483.43 1537.07 Q1480.75 1536.44 1477.89 1536.44 Q1473.53 1536.44 1471.33 1537.77 Q1469.17 1539.11 1469.17 1541.79 Q1469.17 1543.82 1470.73 1545 Q1472.29 1546.15 1477 1547.2 L1479 1547.64 Q1485.24 1548.98 1487.85 1551.43 Q1490.49 1553.85 1490.49 1558.21 Q1490.49 1563.17 1486.55 1566.07 Q1482.63 1568.97 1475.76 1568.97 Q1472.89 1568.97 1469.77 1568.39 Q1466.69 1567.85 1463.25 1566.74 L1463.25 1560.69 Q1466.5 1562.38 1469.65 1563.24 Q1472.8 1564.07 1475.88 1564.07 Q1480.02 1564.07 1482.25 1562.66 Q1484.48 1561.23 1484.48 1558.65 Q1484.48 1556.27 1482.86 1554.99 Q1481.26 1553.72 1475.82 1552.54 L1473.78 1552.07 Q1468.34 1550.92 1465.92 1548.56 Q1463.5 1546.18 1463.5 1542.04 Q1463.5 1537.01 1467.07 1534.27 Q1470.63 1531.54 1477.19 1531.54 Q1480.44 1531.54 1483.3 1532.01 Q1486.17 1532.49 1488.58 1533.45 Z" fill="#000000" fill-rule="nonzero" fill-opacity="1" /><polyline clip-path="url(#clip430)" style="stroke:#000000; stroke-linecap:round; stroke-linejoin:round; stroke-width:4; stroke-opacity:1; fill:none" points="257.366,1423.18 257.366,123.472 "/>
<polyline clip-path="url(#clip430)" style="stroke:#000000; stroke-linecap:round; stroke-linejoin:round; stroke-width:4; stroke-opacity:1; fill:none" points="257.366,1224.53 276.264,1224.53 "/>
<polyline clip-path="url(#clip430)" style="stroke:#000000; stroke-linecap:round; stroke-linejoin:round; stroke-width:4; stroke-opacity:1; fill:none" points="257.366,981.727 276.264,981.727 "/>
<polyline clip-path="url(#clip430)" style="stroke:#000000; stroke-linecap:round; stroke-linejoin:round; stroke-width:4; stroke-opacity:1; fill:none" points="257.366,738.925 276.264,738.925 "/>
<polyline clip-path="url(#clip430)" style="stroke:#000000; stroke-linecap:round; stroke-linejoin:round; stroke-width:4; stroke-opacity:1; fill:none" points="257.366,496.124 276.264,496.124 "/>
<polyline clip-path="url(#clip430)" style="stroke:#000000; stroke-linecap:round; stroke-linejoin:round; stroke-width:4; stroke-opacity:1; fill:none" points="257.366,253.322 276.264,253.322 "/>
<path clip-path="url(#clip430)" d="M114.515 1224.98 L144.191 1224.98 L144.191 1228.91 L114.515 1228.91 L114.515 1224.98 Z" fill="#000000" fill-rule="nonzero" fill-opacity="1" /><path clip-path="url(#clip430)" d="M155.093 1237.87 L162.732 1237.87 L162.732 1211.51 L154.422 1213.17 L154.422 1208.91 L162.686 1207.25 L167.362 1207.25 L167.362 1237.87 L175.001 1237.87 L175.001 1241.81 L155.093 1241.81 L155.093 1237.87 Z" fill="#000000" fill-rule="nonzero" fill-opacity="1" /><path clip-path="url(#clip430)" d="M184.445 1235.93 L189.329 1235.93 L189.329 1241.81 L184.445 1241.81 L184.445 1235.93 Z" fill="#000000" fill-rule="nonzero" fill-opacity="1" /><path clip-path="url(#clip430)" d="M209.514 1225.4 Q206.181 1225.4 204.26 1227.18 Q202.362 1228.96 202.362 1232.09 Q202.362 1235.21 204.26 1236.99 Q206.181 1238.78 209.514 1238.78 Q212.848 1238.78 214.769 1236.99 Q216.69 1235.19 216.69 1232.09 Q216.69 1228.96 214.769 1227.18 Q212.871 1225.4 209.514 1225.4 M204.838 1223.41 Q201.829 1222.66 200.139 1220.6 Q198.473 1218.54 198.473 1215.58 Q198.473 1211.44 201.412 1209.03 Q204.375 1206.62 209.514 1206.62 Q214.676 1206.62 217.616 1209.03 Q220.556 1211.44 220.556 1215.58 Q220.556 1218.54 218.866 1220.6 Q217.199 1222.66 214.213 1223.41 Q217.593 1224.19 219.468 1226.48 Q221.366 1228.78 221.366 1232.09 Q221.366 1237.11 218.287 1239.79 Q215.232 1242.48 209.514 1242.48 Q203.797 1242.48 200.718 1239.79 Q197.662 1237.11 197.662 1232.09 Q197.662 1228.78 199.561 1226.48 Q201.459 1224.19 204.838 1223.41 M203.125 1216.02 Q203.125 1218.71 204.792 1220.21 Q206.482 1221.72 209.514 1221.72 Q212.524 1221.72 214.213 1220.21 Q215.926 1218.71 215.926 1216.02 Q215.926 1213.34 214.213 1211.83 Q212.524 1210.33 209.514 1210.33 Q206.482 1210.33 204.792 1211.83 Q203.125 1213.34 203.125 1216.02 Z" fill="#000000" fill-rule="nonzero" fill-opacity="1" /><path clip-path="url(#clip430)" d="M115.418 982.178 L145.093 982.178 L145.093 986.113 L115.418 986.113 L115.418 982.178 Z" fill="#000000" fill-rule="nonzero" fill-opacity="1" /><path clip-path="url(#clip430)" d="M155.996 995.071 L163.635 995.071 L163.635 968.706 L155.325 970.372 L155.325 966.113 L163.589 964.447 L168.264 964.447 L168.264 995.071 L175.903 995.071 L175.903 999.007 L155.996 999.007 L155.996 995.071 Z" fill="#000000" fill-rule="nonzero" fill-opacity="1" /><path clip-path="url(#clip430)" d="M185.348 993.127 L190.232 993.127 L190.232 999.007 L185.348 999.007 L185.348 993.127 Z" fill="#000000" fill-rule="nonzero" fill-opacity="1" /><path clip-path="url(#clip430)" d="M200.463 964.447 L218.82 964.447 L218.82 968.382 L204.746 968.382 L204.746 976.854 Q205.764 976.507 206.783 976.345 Q207.801 976.159 208.82 976.159 Q214.607 976.159 217.986 979.331 Q221.366 982.502 221.366 987.919 Q221.366 993.497 217.894 996.599 Q214.422 999.678 208.102 999.678 Q205.926 999.678 203.658 999.308 Q201.412 998.937 199.005 998.196 L199.005 993.497 Q201.088 994.632 203.311 995.187 Q205.533 995.743 208.01 995.743 Q212.014 995.743 214.352 993.636 Q216.69 991.53 216.69 987.919 Q216.69 984.308 214.352 982.201 Q212.014 980.095 208.01 980.095 Q206.135 980.095 204.26 980.511 Q202.408 980.928 200.463 981.808 L200.463 964.447 Z" fill="#000000" fill-rule="nonzero" fill-opacity="1" /><path clip-path="url(#clip430)" d="M116.019 739.377 L145.695 739.377 L145.695 743.312 L116.019 743.312 L116.019 739.377 Z" fill="#000000" fill-rule="nonzero" fill-opacity="1" /><path clip-path="url(#clip430)" d="M156.598 752.27 L164.237 752.27 L164.237 725.904 L155.927 727.571 L155.927 723.312 L164.19 721.645 L168.866 721.645 L168.866 752.27 L176.505 752.27 L176.505 756.205 L156.598 756.205 L156.598 752.27 Z" fill="#000000" fill-rule="nonzero" fill-opacity="1" /><path clip-path="url(#clip430)" d="M185.95 750.326 L190.834 750.326 L190.834 756.205 L185.95 756.205 L185.95 750.326 Z" fill="#000000" fill-rule="nonzero" fill-opacity="1" /><path clip-path="url(#clip430)" d="M205.047 752.27 L221.366 752.27 L221.366 756.205 L199.422 756.205 L199.422 752.27 Q202.084 749.515 206.667 744.886 Q211.274 740.233 212.454 738.89 Q214.699 736.367 215.579 734.631 Q216.482 732.872 216.482 731.182 Q216.482 728.428 214.537 726.691 Q212.616 724.955 209.514 724.955 Q207.315 724.955 204.862 725.719 Q202.431 726.483 199.653 728.034 L199.653 723.312 Q202.477 722.178 204.931 721.599 Q207.385 721.02 209.422 721.02 Q214.792 721.02 217.986 723.705 Q221.181 726.39 221.181 730.881 Q221.181 733.011 220.371 734.932 Q219.584 736.83 217.477 739.423 Q216.898 740.094 213.797 743.312 Q210.695 746.506 205.047 752.27 Z" fill="#000000" fill-rule="nonzero" fill-opacity="1" /><path clip-path="url(#clip430)" d="M114.607 496.575 L144.283 496.575 L144.283 500.51 L114.607 500.51 L114.607 496.575 Z" fill="#000000" fill-rule="nonzero" fill-opacity="1" /><path clip-path="url(#clip430)" d="M164.376 481.922 Q160.765 481.922 158.936 485.487 Q157.13 489.029 157.13 496.158 Q157.13 503.265 158.936 506.83 Q160.765 510.371 164.376 510.371 Q168.01 510.371 169.815 506.83 Q171.644 503.265 171.644 496.158 Q171.644 489.029 169.815 485.487 Q168.01 481.922 164.376 481.922 M164.376 478.219 Q170.186 478.219 173.241 482.825 Q176.32 487.408 176.32 496.158 Q176.32 504.885 173.241 509.492 Q170.186 514.075 164.376 514.075 Q158.565 514.075 155.487 509.492 Q152.431 504.885 152.431 496.158 Q152.431 487.408 155.487 482.825 Q158.565 478.219 164.376 478.219 Z" fill="#000000" fill-rule="nonzero" fill-opacity="1" /><path clip-path="url(#clip430)" d="M184.538 507.524 L189.422 507.524 L189.422 513.404 L184.538 513.404 L184.538 507.524 Z" fill="#000000" fill-rule="nonzero" fill-opacity="1" /><path clip-path="url(#clip430)" d="M199.746 512.686 L199.746 508.427 Q201.505 509.26 203.311 509.7 Q205.116 510.14 206.852 510.14 Q211.482 510.14 213.912 507.038 Q216.366 503.913 216.713 497.57 Q215.371 499.561 213.311 500.626 Q211.25 501.691 208.75 501.691 Q203.565 501.691 200.533 498.566 Q197.524 495.418 197.524 489.978 Q197.524 484.654 200.672 481.436 Q203.82 478.219 209.051 478.219 Q215.047 478.219 218.195 482.825 Q221.366 487.408 221.366 496.158 Q221.366 504.33 217.477 509.214 Q213.611 514.075 207.061 514.075 Q205.301 514.075 203.496 513.728 Q201.69 513.381 199.746 512.686 M209.051 498.033 Q212.199 498.033 214.028 495.881 Q215.88 493.728 215.88 489.978 Q215.88 486.251 214.028 484.098 Q212.199 481.922 209.051 481.922 Q205.903 481.922 204.051 484.098 Q202.223 486.251 202.223 489.978 Q202.223 493.728 204.051 495.881 Q205.903 498.033 209.051 498.033 Z" fill="#000000" fill-rule="nonzero" fill-opacity="1" /><path clip-path="url(#clip430)" d="M114.26 253.774 L143.936 253.774 L143.936 257.709 L114.26 257.709 L114.26 253.774 Z" fill="#000000" fill-rule="nonzero" fill-opacity="1" /><path clip-path="url(#clip430)" d="M164.028 239.121 Q160.417 239.121 158.589 242.686 Q156.783 246.227 156.783 253.357 Q156.783 260.463 158.589 264.028 Q160.417 267.57 164.028 267.57 Q167.663 267.57 169.468 264.028 Q171.297 260.463 171.297 253.357 Q171.297 246.227 169.468 242.686 Q167.663 239.121 164.028 239.121 M164.028 235.417 Q169.839 235.417 172.894 240.024 Q175.973 244.607 175.973 253.357 Q175.973 262.084 172.894 266.69 Q169.839 271.274 164.028 271.274 Q158.218 271.274 155.14 266.69 Q152.084 262.084 152.084 253.357 Q152.084 244.607 155.14 240.024 Q158.218 235.417 164.028 235.417 Z" fill="#000000" fill-rule="nonzero" fill-opacity="1" /><path clip-path="url(#clip430)" d="M184.19 264.723 L189.075 264.723 L189.075 270.602 L184.19 270.602 L184.19 264.723 Z" fill="#000000" fill-rule="nonzero" fill-opacity="1" /><path clip-path="url(#clip430)" d="M209.838 251.459 Q206.69 251.459 204.838 253.612 Q203.01 255.764 203.01 259.514 Q203.01 263.241 204.838 265.417 Q206.69 267.57 209.838 267.57 Q212.986 267.57 214.815 265.417 Q216.667 263.241 216.667 259.514 Q216.667 255.764 214.815 253.612 Q212.986 251.459 209.838 251.459 M219.121 236.806 L219.121 241.065 Q217.361 240.232 215.556 239.792 Q213.774 239.352 212.014 239.352 Q207.385 239.352 204.931 242.477 Q202.5 245.602 202.153 251.922 Q203.519 249.908 205.579 248.843 Q207.639 247.755 210.116 247.755 Q215.324 247.755 218.334 250.926 Q221.366 254.075 221.366 259.514 Q221.366 264.838 218.218 268.056 Q215.07 271.274 209.838 271.274 Q203.843 271.274 200.672 266.69 Q197.5 262.084 197.5 253.357 Q197.5 245.163 201.389 240.302 Q205.278 235.417 211.829 235.417 Q213.588 235.417 215.371 235.764 Q217.176 236.112 219.121 236.806 Z" fill="#000000" fill-rule="nonzero" fill-opacity="1" /><path clip-path="url(#clip430)" d="M16.4842 822.963 L16.4842 792.916 L21.895 792.916 L21.895 816.533 L35.9632 816.533 L35.9632 793.903 L41.3741 793.903 L41.3741 816.533 L58.5933 816.533 L58.5933 792.344 L64.0042 792.344 L64.0042 822.963 L16.4842 822.963 Z" fill="#000000" fill-rule="nonzero" fill-opacity="1" /><path clip-path="url(#clip430)" d="M14.5426 767.963 Q21.8632 772.228 29.0246 774.297 Q36.186 776.366 43.5384 776.366 Q50.8908 776.366 58.1159 774.297 Q65.3091 772.196 72.5979 767.963 L72.5979 773.055 Q65.1182 777.83 57.8931 780.217 Q50.668 782.572 43.5384 782.572 Q36.4406 782.572 29.2474 780.217 Q22.0542 777.862 14.5426 773.055 L14.5426 767.963 Z" fill="#000000" fill-rule="nonzero" fill-opacity="1" /><path clip-path="url(#clip430)" d="M16.4842 756.345 L16.4842 749.916 L60.694 749.916 Q69.2877 749.916 73.1708 753.194 Q77.0539 756.441 77.0539 763.666 L77.0539 766.117 L71.643 766.117 L71.643 764.112 Q71.643 759.847 69.2559 758.096 Q66.8687 756.345 60.694 756.345 L16.4842 756.345 Z" fill="#000000" fill-rule="nonzero" fill-opacity="1" /><path clip-path="url(#clip430)" d="M14.5426 738.299 L14.5426 733.206 Q22.0542 728.432 29.2474 726.077 Q36.4406 723.689 43.5384 723.689 Q50.668 723.689 57.8931 726.077 Q65.1182 728.432 72.5979 733.206 L72.5979 738.299 Q65.3091 734.065 58.1159 731.997 Q50.8908 729.896 43.5384 729.896 Q36.186 729.896 29.0246 731.997 Q21.8632 734.065 14.5426 738.299 Z" fill="#000000" fill-rule="nonzero" fill-opacity="1" /><path clip-path="url(#clip430)" d="M690.296 12.096 L728.536 12.096 L728.536 18.9825 L698.479 18.9825 L698.479 36.8875 L727.281 36.8875 L727.281 43.7741 L698.479 43.7741 L698.479 65.6895 L729.265 65.6895 L729.265 72.576 L690.296 72.576 L690.296 12.096 Z" fill="#000000" fill-rule="nonzero" fill-opacity="1" /><path clip-path="url(#clip430)" d="M780.104 45.1919 L780.104 72.576 L772.651 72.576 L772.651 45.4349 Q772.651 38.994 770.139 35.7938 Q767.628 32.5936 762.604 32.5936 Q756.569 32.5936 753.085 36.4419 Q749.601 40.2903 749.601 46.9338 L749.601 72.576 L742.107 72.576 L742.107 27.2059 L749.601 27.2059 L749.601 34.2544 Q752.275 30.163 755.88 28.1376 Q759.526 26.1121 764.265 26.1121 Q772.084 26.1121 776.094 30.9732 Q780.104 35.7938 780.104 45.1919 Z" fill="#000000" fill-rule="nonzero" fill-opacity="1" /><path clip-path="url(#clip430)" d="M833.779 48.0275 L833.779 51.6733 L799.508 51.6733 Q799.994 59.3701 804.126 63.421 Q808.299 67.4314 815.712 67.4314 Q820.006 67.4314 824.016 66.3781 Q828.067 65.3249 832.037 63.2184 L832.037 70.267 Q828.027 71.9684 823.814 72.8596 Q819.601 73.7508 815.266 73.7508 Q804.41 73.7508 798.05 67.4314 Q791.73 61.1119 791.73 50.3365 Q791.73 39.1965 797.726 32.6746 Q803.762 26.1121 813.97 26.1121 Q823.125 26.1121 828.432 32.0264 Q833.779 37.9003 833.779 48.0275 M826.325 45.84 Q826.244 39.7232 822.882 36.0774 Q819.56 32.4315 814.051 32.4315 Q807.812 32.4315 804.045 35.9558 Q800.318 39.4801 799.751 45.8805 L826.325 45.84 Z" fill="#000000" fill-rule="nonzero" fill-opacity="1" /><path clip-path="url(#clip430)" d="M872.303 34.1734 Q871.047 33.4443 869.548 33.1202 Q868.09 32.7556 866.308 32.7556 Q859.988 32.7556 856.585 36.8875 Q853.223 40.9789 853.223 48.6757 L853.223 72.576 L845.729 72.576 L845.729 27.2059 L853.223 27.2059 L853.223 34.2544 Q855.573 30.1225 859.34 28.1376 Q863.107 26.1121 868.495 26.1121 Q869.265 26.1121 870.196 26.2337 Q871.128 26.3147 872.262 26.5172 L872.303 34.1734 Z" fill="#000000" fill-rule="nonzero" fill-opacity="1" /><path clip-path="url(#clip430)" d="M908.518 49.3643 Q908.518 41.2625 905.156 36.8065 Q901.834 32.3505 895.798 32.3505 Q889.803 32.3505 886.441 36.8065 Q883.119 41.2625 883.119 49.3643 Q883.119 57.4256 886.441 61.8816 Q889.803 66.3376 895.798 66.3376 Q901.834 66.3376 905.156 61.8816 Q908.518 57.4256 908.518 49.3643 M915.972 66.9452 Q915.972 78.5308 910.827 84.1616 Q905.682 89.8329 895.069 89.8329 Q891.14 89.8329 887.656 89.2252 Q884.172 88.6581 880.891 87.4428 L880.891 80.1917 Q884.172 81.9741 887.372 82.8248 Q890.572 83.6755 893.894 83.6755 Q901.226 83.6755 904.872 79.8271 Q908.518 76.0193 908.518 68.282 L908.518 64.5957 Q906.209 68.6061 902.604 70.5911 Q898.998 72.576 893.975 72.576 Q885.63 72.576 880.526 66.2161 Q875.422 59.8562 875.422 49.3643 Q875.422 38.832 880.526 32.472 Q885.63 26.1121 893.975 26.1121 Q898.998 26.1121 902.604 28.0971 Q906.209 30.082 908.518 34.0924 L908.518 27.2059 L915.972 27.2059 L915.972 66.9452 Z" fill="#000000" fill-rule="nonzero" fill-opacity="1" /><path clip-path="url(#clip430)" d="M950.202 76.7889 Q947.042 84.8907 944.044 87.3618 Q941.047 89.8329 936.024 89.8329 L930.069 89.8329 L930.069 83.5945 L934.444 83.5945 Q937.522 83.5945 939.224 82.1361 Q940.925 80.6778 942.991 75.2496 L944.328 71.8468 L925.977 27.2059 L933.877 27.2059 L948.055 62.6918 L962.233 27.2059 L970.132 27.2059 L950.202 76.7889 Z" fill="#000000" fill-rule="nonzero" fill-opacity="1" /><path clip-path="url(#clip430)" d="M1024.37 32.4315 Q1018.38 32.4315 1014.89 37.1306 Q1011.41 41.7891 1011.41 49.9314 Q1011.41 58.0738 1014.85 62.7728 Q1018.34 67.4314 1024.37 67.4314 Q1030.33 67.4314 1033.81 62.7323 Q1037.3 58.0333 1037.3 49.9314 Q1037.3 41.8701 1033.81 37.1711 Q1030.33 32.4315 1024.37 32.4315 M1024.37 26.1121 Q1034.1 26.1121 1039.65 32.4315 Q1045.2 38.7509 1045.2 49.9314 Q1045.2 61.0714 1039.65 67.4314 Q1034.1 73.7508 1024.37 73.7508 Q1014.61 73.7508 1009.06 67.4314 Q1003.55 61.0714 1003.55 49.9314 Q1003.55 38.7509 1009.06 32.4315 Q1014.61 26.1121 1024.37 26.1121 Z" fill="#000000" fill-rule="nonzero" fill-opacity="1" /><path clip-path="url(#clip430)" d="M1052.2 27.2059 L1060.1 27.2059 L1074.28 65.2844 L1088.46 27.2059 L1096.36 27.2059 L1079.34 72.576 L1069.22 72.576 L1052.2 27.2059 Z" fill="#000000" fill-rule="nonzero" fill-opacity="1" /><path clip-path="url(#clip430)" d="M1145.46 48.0275 L1145.46 51.6733 L1111.18 51.6733 Q1111.67 59.3701 1115.8 63.421 Q1119.98 67.4314 1127.39 67.4314 Q1131.68 67.4314 1135.69 66.3781 Q1139.74 65.3249 1143.71 63.2184 L1143.71 70.267 Q1139.7 71.9684 1135.49 72.8596 Q1131.28 73.7508 1126.94 73.7508 Q1116.09 73.7508 1109.73 67.4314 Q1103.41 61.1119 1103.41 50.3365 Q1103.41 39.1965 1109.4 32.6746 Q1115.44 26.1121 1125.65 26.1121 Q1134.8 26.1121 1140.11 32.0264 Q1145.46 37.9003 1145.46 48.0275 M1138 45.84 Q1137.92 39.7232 1134.56 36.0774 Q1131.24 32.4315 1125.73 32.4315 Q1119.49 32.4315 1115.72 35.9558 Q1111.99 39.4801 1111.43 45.8805 L1138 45.84 Z" fill="#000000" fill-rule="nonzero" fill-opacity="1" /><path clip-path="url(#clip430)" d="M1183.98 34.1734 Q1182.72 33.4443 1181.22 33.1202 Q1179.77 32.7556 1177.98 32.7556 Q1171.66 32.7556 1168.26 36.8875 Q1164.9 40.9789 1164.9 48.6757 L1164.9 72.576 L1157.41 72.576 L1157.41 27.2059 L1164.9 27.2059 L1164.9 34.2544 Q1167.25 30.1225 1171.02 28.1376 Q1174.78 26.1121 1180.17 26.1121 Q1180.94 26.1121 1181.87 26.2337 Q1182.8 26.3147 1183.94 26.5172 L1183.98 34.1734 Z" fill="#000000" fill-rule="nonzero" fill-opacity="1" /><path clip-path="url(#clip430)" d="M1225.54 14.324 L1225.54 27.2059 L1240.89 27.2059 L1240.89 32.9987 L1225.54 32.9987 L1225.54 57.6282 Q1225.54 63.1779 1227.04 64.7578 Q1228.58 66.3376 1233.24 66.3376 L1240.89 66.3376 L1240.89 72.576 L1233.24 72.576 Q1224.61 72.576 1221.33 69.3758 Q1218.05 66.1351 1218.05 57.6282 L1218.05 32.9987 L1212.58 32.9987 L1212.58 27.2059 L1218.05 27.2059 L1218.05 14.324 L1225.54 14.324 Z" fill="#000000" fill-rule="nonzero" fill-opacity="1" /><path clip-path="url(#clip430)" d="M1288.41 45.1919 L1288.41 72.576 L1280.96 72.576 L1280.96 45.4349 Q1280.96 38.994 1278.45 35.7938 Q1275.93 32.5936 1270.91 32.5936 Q1264.88 32.5936 1261.39 36.4419 Q1257.91 40.2903 1257.91 46.9338 L1257.91 72.576 L1250.41 72.576 L1250.41 9.54393 L1257.91 9.54393 L1257.91 34.2544 Q1260.58 30.163 1264.19 28.1376 Q1267.83 26.1121 1272.57 26.1121 Q1280.39 26.1121 1284.4 30.9732 Q1288.41 35.7938 1288.41 45.1919 Z" fill="#000000" fill-rule="nonzero" fill-opacity="1" /><path clip-path="url(#clip430)" d="M1342.09 48.0275 L1342.09 51.6733 L1307.82 51.6733 Q1308.3 59.3701 1312.43 63.421 Q1316.61 67.4314 1324.02 67.4314 Q1328.31 67.4314 1332.32 66.3781 Q1336.37 65.3249 1340.34 63.2184 L1340.34 70.267 Q1336.33 71.9684 1332.12 72.8596 Q1327.91 73.7508 1323.57 73.7508 Q1312.72 73.7508 1306.36 67.4314 Q1300.04 61.1119 1300.04 50.3365 Q1300.04 39.1965 1306.03 32.6746 Q1312.07 26.1121 1322.28 26.1121 Q1331.43 26.1121 1336.74 32.0264 Q1342.09 37.9003 1342.09 48.0275 M1334.63 45.84 Q1334.55 39.7232 1331.19 36.0774 Q1327.87 32.4315 1322.36 32.4315 Q1316.12 32.4315 1312.35 35.9558 Q1308.63 39.4801 1308.06 45.8805 L1334.63 45.84 Z" fill="#000000" fill-rule="nonzero" fill-opacity="1" /><path clip-path="url(#clip430)" d="M1389.2 18.8205 L1389.2 65.8515 L1399.08 65.8515 Q1411.6 65.8515 1417.39 60.1802 Q1423.23 54.509 1423.23 42.2752 Q1423.23 30.1225 1417.39 24.4918 Q1411.6 18.8205 1399.08 18.8205 L1389.2 18.8205 M1381.02 12.096 L1397.83 12.096 Q1415.41 12.096 1423.63 19.4281 Q1431.85 26.7198 1431.85 42.2752 Q1431.85 57.9117 1423.59 65.2439 Q1415.33 72.576 1397.83 72.576 L1381.02 72.576 L1381.02 12.096 Z" fill="#000000" fill-rule="nonzero" fill-opacity="1" /><path clip-path="url(#clip430)" d="M1444.57 27.2059 L1452.03 27.2059 L1452.03 72.576 L1444.57 72.576 L1444.57 27.2059 M1444.57 9.54393 L1452.03 9.54393 L1452.03 18.9825 L1444.57 18.9825 L1444.57 9.54393 Z" fill="#000000" fill-rule="nonzero" fill-opacity="1" /><path clip-path="url(#clip430)" d="M1502.95 35.9153 Q1505.74 30.8922 1509.63 28.5022 Q1513.52 26.1121 1518.79 26.1121 Q1525.88 26.1121 1529.72 31.0947 Q1533.57 36.0368 1533.57 45.1919 L1533.57 72.576 L1526.08 72.576 L1526.08 45.4349 Q1526.08 38.913 1523.77 35.7533 Q1521.46 32.5936 1516.72 32.5936 Q1510.93 32.5936 1507.57 36.4419 Q1504.2 40.2903 1504.2 46.9338 L1504.2 72.576 L1496.71 72.576 L1496.71 45.4349 Q1496.71 38.8725 1494.4 35.7533 Q1492.09 32.5936 1487.27 32.5936 Q1481.56 32.5936 1478.2 36.4824 Q1474.83 40.3308 1474.83 46.9338 L1474.83 72.576 L1467.34 72.576 L1467.34 27.2059 L1474.83 27.2059 L1474.83 34.2544 Q1477.39 30.082 1480.95 28.0971 Q1484.52 26.1121 1489.42 26.1121 Q1494.36 26.1121 1497.8 28.6237 Q1501.29 31.1352 1502.95 35.9153 Z" fill="#000000" fill-rule="nonzero" fill-opacity="1" /><path clip-path="url(#clip430)" d="M1549.49 62.2867 L1558.04 62.2867 L1558.04 72.576 L1549.49 72.576 L1549.49 62.2867 Z" fill="#000000" fill-rule="nonzero" fill-opacity="1" /><path clip-path="url(#clip430)" d="M1618.76 32.4315 Q1612.77 32.4315 1609.28 37.1306 Q1605.8 41.7891 1605.8 49.9314 Q1605.8 58.0738 1609.24 62.7728 Q1612.73 67.4314 1618.76 67.4314 Q1624.72 67.4314 1628.2 62.7323 Q1631.69 58.0333 1631.69 49.9314 Q1631.69 41.8701 1628.2 37.1711 Q1624.72 32.4315 1618.76 32.4315 M1618.76 26.1121 Q1628.49 26.1121 1634.03 32.4315 Q1639.58 38.7509 1639.58 49.9314 Q1639.58 61.0714 1634.03 67.4314 Q1628.49 73.7508 1618.76 73.7508 Q1609 73.7508 1603.45 67.4314 Q1597.94 61.0714 1597.94 49.9314 Q1597.94 38.7509 1603.45 32.4315 Q1609 26.1121 1618.76 26.1121 Z" fill="#000000" fill-rule="nonzero" fill-opacity="1" /><path clip-path="url(#clip430)" d="M1674.91 9.54393 L1674.91 15.7418 L1667.78 15.7418 Q1663.77 15.7418 1662.19 17.3622 Q1660.65 18.9825 1660.65 23.1955 L1660.65 27.2059 L1672.92 27.2059 L1672.92 32.9987 L1660.65 32.9987 L1660.65 72.576 L1653.16 72.576 L1653.16 32.9987 L1646.03 32.9987 L1646.03 27.2059 L1653.16 27.2059 L1653.16 24.0462 Q1653.16 16.471 1656.68 13.0277 Q1660.2 9.54393 1667.86 9.54393 L1674.91 9.54393 Z" fill="#000000" fill-rule="nonzero" fill-opacity="1" /><path clip-path="url(#clip430)" d="M1744.1 14.0809 L1744.1 22.0612 Q1739.44 19.8332 1735.31 18.7395 Q1731.18 17.6457 1727.33 17.6457 Q1720.64 17.6457 1717 20.2383 Q1713.39 22.8309 1713.39 27.611 Q1713.39 31.6214 1715.78 33.6873 Q1718.21 35.7128 1724.94 36.9686 L1729.88 37.9813 Q1739.03 39.7232 1743.37 44.1387 Q1747.74 48.5136 1747.74 55.8863 Q1747.74 64.6767 1741.83 69.2137 Q1735.96 73.7508 1724.57 73.7508 Q1720.28 73.7508 1715.42 72.7785 Q1710.6 71.8063 1705.41 69.9024 L1705.41 61.4765 Q1710.39 64.2716 1715.17 65.6895 Q1719.95 67.1073 1724.57 67.1073 Q1731.58 67.1073 1735.39 64.3527 Q1739.2 61.598 1739.2 56.4939 Q1739.2 52.0379 1736.44 49.5264 Q1733.73 47.0148 1727.49 45.759 L1722.51 44.7868 Q1713.35 42.9639 1709.26 39.075 Q1705.17 35.1862 1705.17 28.2591 Q1705.17 20.2383 1710.8 15.6203 Q1716.47 11.0023 1726.4 11.0023 Q1730.65 11.0023 1735.06 11.7719 Q1739.48 12.5416 1744.1 14.0809 Z" fill="#000000" fill-rule="nonzero" fill-opacity="1" /><path clip-path="url(#clip430)" d="M1767.39 65.7705 L1767.39 89.8329 L1759.9 89.8329 L1759.9 27.2059 L1767.39 27.2059 L1767.39 34.0924 Q1769.74 30.0415 1773.31 28.0971 Q1776.91 26.1121 1781.89 26.1121 Q1790.16 26.1121 1795.3 32.6746 Q1800.49 39.2371 1800.49 49.9314 Q1800.49 60.6258 1795.3 67.1883 Q1790.16 73.7508 1781.89 73.7508 Q1776.91 73.7508 1773.31 71.8063 Q1769.74 69.8214 1767.39 65.7705 M1792.75 49.9314 Q1792.75 41.7081 1789.35 37.0496 Q1785.98 32.3505 1780.07 32.3505 Q1774.16 32.3505 1770.75 37.0496 Q1767.39 41.7081 1767.39 49.9314 Q1767.39 58.1548 1770.75 62.8538 Q1774.16 67.5124 1780.07 67.5124 Q1785.98 67.5124 1789.35 62.8538 Q1792.75 58.1548 1792.75 49.9314 Z" fill="#000000" fill-rule="nonzero" fill-opacity="1" /><path clip-path="url(#clip430)" d="M1812.84 27.2059 L1820.3 27.2059 L1820.3 72.576 L1812.84 72.576 L1812.84 27.2059 M1812.84 9.54393 L1820.3 9.54393 L1820.3 18.9825 L1812.84 18.9825 L1812.84 9.54393 Z" fill="#000000" fill-rule="nonzero" fill-opacity="1" /><path clip-path="url(#clip430)" d="M1873.61 45.1919 L1873.61 72.576 L1866.15 72.576 L1866.15 45.4349 Q1866.15 38.994 1863.64 35.7938 Q1861.13 32.5936 1856.11 32.5936 Q1850.07 32.5936 1846.59 36.4419 Q1843.1 40.2903 1843.1 46.9338 L1843.1 72.576 L1835.61 72.576 L1835.61 27.2059 L1843.1 27.2059 L1843.1 34.2544 Q1845.78 30.163 1849.38 28.1376 Q1853.03 26.1121 1857.77 26.1121 Q1865.58 26.1121 1869.59 30.9732 Q1873.61 35.7938 1873.61 45.1919 Z" fill="#000000" fill-rule="nonzero" fill-opacity="1" /><path clip-path="url(#clip430)" d="M1917.4 28.5427 L1917.4 35.5912 Q1914.24 33.9709 1910.83 33.1607 Q1907.43 32.3505 1903.78 32.3505 Q1898.23 32.3505 1895.44 34.0519 Q1892.69 35.7533 1892.69 39.156 Q1892.69 41.7486 1894.67 43.2475 Q1896.66 44.7058 1902.65 46.0426 L1905.2 46.6097 Q1913.14 48.3111 1916.46 51.4303 Q1919.83 54.509 1919.83 60.0587 Q1919.83 66.3781 1914.8 70.0644 Q1909.82 73.7508 1901.07 73.7508 Q1897.42 73.7508 1893.45 73.0216 Q1889.53 72.3329 1885.15 70.9151 L1885.15 63.2184 Q1889.28 65.3654 1893.29 66.4591 Q1897.3 67.5124 1901.23 67.5124 Q1906.5 67.5124 1909.33 65.73 Q1912.17 63.9071 1912.17 60.6258 Q1912.17 57.5877 1910.1 55.9673 Q1908.08 54.3469 1901.15 52.8481 L1898.56 52.2405 Q1891.63 50.7821 1888.55 47.7845 Q1885.47 44.7463 1885.47 39.4801 Q1885.47 33.0797 1890.01 29.5959 Q1894.55 26.1121 1902.89 26.1121 Q1907.03 26.1121 1910.67 26.7198 Q1914.32 27.3274 1917.4 28.5427 Z" fill="#000000" fill-rule="nonzero" fill-opacity="1" /><circle clip-path="url(#clip432)" cx="316.67" cy="1386.4" r="14.4" fill="#009af9" fill-rule="evenodd" fill-opacity="1" stroke="#000000" stroke-opacity="1" stroke-width="3.2"/>
<circle clip-path="url(#clip432)" cx="420.711" cy="1382.33" r="14.4" fill="#009af9" fill-rule="evenodd" fill-opacity="1" stroke="#000000" stroke-opacity="1" stroke-width="3.2"/>
<circle clip-path="url(#clip432)" cx="524.752" cy="1378.21" r="14.4" fill="#009af9" fill-rule="evenodd" fill-opacity="1" stroke="#000000" stroke-opacity="1" stroke-width="3.2"/>
<circle clip-path="url(#clip432)" cx="628.793" cy="1365.85" r="14.4" fill="#009af9" fill-rule="evenodd" fill-opacity="1" stroke="#000000" stroke-opacity="1" stroke-width="3.2"/>
<circle clip-path="url(#clip432)" cx="732.834" cy="1319.19" r="14.4" fill="#009af9" fill-rule="evenodd" fill-opacity="1" stroke="#000000" stroke-opacity="1" stroke-width="3.2"/>
<circle clip-path="url(#clip432)" cx="836.876" cy="707.04" r="14.4" fill="#009af9" fill-rule="evenodd" fill-opacity="1" stroke="#000000" stroke-opacity="1" stroke-width="3.2"/>
<circle clip-path="url(#clip432)" cx="940.917" cy="1085.15" r="14.4" fill="#009af9" fill-rule="evenodd" fill-opacity="1" stroke="#000000" stroke-opacity="1" stroke-width="3.2"/>
<circle clip-path="url(#clip432)" cx="1044.96" cy="634.801" r="14.4" fill="#009af9" fill-rule="evenodd" fill-opacity="1" stroke="#000000" stroke-opacity="1" stroke-width="3.2"/>
<circle clip-path="url(#clip432)" cx="1149" cy="545.777" r="14.4" fill="#009af9" fill-rule="evenodd" fill-opacity="1" stroke="#000000" stroke-opacity="1" stroke-width="3.2"/>
<circle clip-path="url(#clip432)" cx="1253.04" cy="349.002" r="14.4" fill="#009af9" fill-rule="evenodd" fill-opacity="1" stroke="#000000" stroke-opacity="1" stroke-width="3.2"/>
<circle clip-path="url(#clip432)" cx="1357.08" cy="160.256" r="14.4" fill="#009af9" fill-rule="evenodd" fill-opacity="1" stroke="#000000" stroke-opacity="1" stroke-width="3.2"/>
<circle clip-path="url(#clip432)" cx="1461.12" cy="618.336" r="14.4" fill="#009af9" fill-rule="evenodd" fill-opacity="1" stroke="#000000" stroke-opacity="1" stroke-width="3.2"/>
<circle clip-path="url(#clip432)" cx="1565.16" cy="546.999" r="14.4" fill="#009af9" fill-rule="evenodd" fill-opacity="1" stroke="#000000" stroke-opacity="1" stroke-width="3.2"/>
<circle clip-path="url(#clip432)" cx="1669.21" cy="539.402" r="14.4" fill="#009af9" fill-rule="evenodd" fill-opacity="1" stroke="#000000" stroke-opacity="1" stroke-width="3.2"/>
<circle clip-path="url(#clip432)" cx="1773.25" cy="528.486" r="14.4" fill="#009af9" fill-rule="evenodd" fill-opacity="1" stroke="#000000" stroke-opacity="1" stroke-width="3.2"/>
<circle clip-path="url(#clip432)" cx="1877.29" cy="504.774" r="14.4" fill="#009af9" fill-rule="evenodd" fill-opacity="1" stroke="#000000" stroke-opacity="1" stroke-width="3.2"/>
<circle clip-path="url(#clip432)" cx="1981.33" cy="354.453" r="14.4" fill="#009af9" fill-rule="evenodd" fill-opacity="1" stroke="#000000" stroke-opacity="1" stroke-width="3.2"/>
<circle clip-path="url(#clip432)" cx="2085.37" cy="385.404" r="14.4" fill="#009af9" fill-rule="evenodd" fill-opacity="1" stroke="#000000" stroke-opacity="1" stroke-width="3.2"/>
<circle clip-path="url(#clip432)" cx="2189.41" cy="428.477" r="14.4" fill="#009af9" fill-rule="evenodd" fill-opacity="1" stroke="#000000" stroke-opacity="1" stroke-width="3.2"/>
<circle clip-path="url(#clip432)" cx="2293.45" cy="391.895" r="14.4" fill="#009af9" fill-rule="evenodd" fill-opacity="1" stroke="#000000" stroke-opacity="1" stroke-width="3.2"/>
</svg>
