<?xml version="1.0" encoding="utf-8"?>
<svg xmlns="http://www.w3.org/2000/svg" xmlns:xlink="http://www.w3.org/1999/xlink" width="600" height="400" viewBox="0 0 2400 1600">
<defs>
  <clipPath id="clip670">
    <rect x="0" y="0" width="2400" height="1600"/>
  </clipPath>
</defs>
<path clip-path="url(#clip670)" d="M0 1600 L2400 1600 L2400 0 L0 0  Z" fill="#ffffff" fill-rule="evenodd" fill-opacity="1"/>
<defs>
  <clipPath id="clip671">
    <rect x="480" y="0" width="1681" height="1600"/>
  </clipPath>
</defs>
<path clip-path="url(#clip670)" d="M205.121 1423.18 L2352.76 1423.18 L2352.76 123.472 L205.121 123.472  Z" fill="#ffffff" fill-rule="evenodd" fill-opacity="1"/>
<defs>
  <clipPath id="clip672">
    <rect x="205" y="123" width="2149" height="1301"/>
  </clipPath>
</defs>
<polyline clip-path="url(#clip672)" style="stroke:#000000; stroke-linecap:round; stroke-linejoin:round; stroke-width:2; stroke-opacity:0.1; fill:none" points="692.444,1423.18 692.444,123.472 "/>
<polyline clip-path="url(#clip672)" style="stroke:#000000; stroke-linecap:round; stroke-linejoin:round; stroke-width:2; stroke-opacity:0.1; fill:none" points="1225.62,1423.18 1225.62,123.472 "/>
<polyline clip-path="url(#clip672)" style="stroke:#000000; stroke-linecap:round; stroke-linejoin:round; stroke-width:2; stroke-opacity:0.1; fill:none" points="1758.8,1423.18 1758.8,123.472 "/>
<polyline clip-path="url(#clip672)" style="stroke:#000000; stroke-linecap:round; stroke-linejoin:round; stroke-width:2; stroke-opacity:0.1; fill:none" points="2291.97,1423.18 2291.97,123.472 "/>
<polyline clip-path="url(#clip672)" style="stroke:#000000; stroke-linecap:round; stroke-linejoin:round; stroke-width:2; stroke-opacity:0.1; fill:none" points="205.121,1386.4 2352.76,1386.4 "/>
<polyline clip-path="url(#clip672)" style="stroke:#000000; stroke-linecap:round; stroke-linejoin:round; stroke-width:2; stroke-opacity:0.1; fill:none" points="205.121,1078.96 2352.76,1078.96 "/>
<polyline clip-path="url(#clip672)" style="stroke:#000000; stroke-linecap:round; stroke-linejoin:round; stroke-width:2; stroke-opacity:0.1; fill:none" points="205.121,771.531 2352.76,771.531 "/>
<polyline clip-path="url(#clip672)" style="stroke:#000000; stroke-linecap:round; stroke-linejoin:round; stroke-width:2; stroke-opacity:0.1; fill:none" points="205.121,464.098 2352.76,464.098 "/>
<polyline clip-path="url(#clip672)" style="stroke:#000000; stroke-linecap:round; stroke-linejoin:round; stroke-width:2; stroke-opacity:0.1; fill:none" points="205.121,156.666 2352.76,156.666 "/>
<polyline clip-path="url(#clip670)" style="stroke:#000000; stroke-linecap:round; stroke-linejoin:round; stroke-width:4; stroke-opacity:1; fill:none" points="205.121,1423.18 2352.76,1423.18 "/>
<polyline clip-path="url(#clip670)" style="stroke:#000000; stroke-linecap:round; stroke-linejoin:round; stroke-width:4; stroke-opacity:1; fill:none" points="692.444,1423.18 692.444,1404.28 "/>
<polyline clip-path="url(#clip670)" style="stroke:#000000; stroke-linecap:round; stroke-linejoin:round; stroke-width:4; stroke-opacity:1; fill:none" points="1225.62,1423.18 1225.62,1404.28 "/>
<polyline clip-path="url(#clip670)" style="stroke:#000000; stroke-linecap:round; stroke-linejoin:round; stroke-width:4; stroke-opacity:1; fill:none" points="1758.8,1423.18 1758.8,1404.28 "/>
<polyline clip-path="url(#clip670)" style="stroke:#000000; stroke-linecap:round; stroke-linejoin:round; stroke-width:4; stroke-opacity:1; fill:none" points="2291.97,1423.18 2291.97,1404.28 "/>
<path clip-path="url(#clip670)" d="M682.722 1451.02 L701.079 1451.02 L701.079 1454.96 L687.005 1454.96 L687.005 1463.43 Q688.023 1463.08 689.042 1462.92 Q690.06 1462.73 691.079 1462.73 Q696.866 1462.73 700.245 1465.9 Q703.625 1469.08 703.625 1474.49 Q703.625 1480.07 700.153 1483.17 Q696.68 1486.25 690.361 1486.25 Q688.185 1486.25 685.917 1485.88 Q683.671 1485.51 681.264 1484.77 L681.264 1480.07 Q683.347 1481.2 685.569 1481.76 Q687.792 1482.32 690.268 1482.32 Q694.273 1482.32 696.611 1480.21 Q698.949 1478.1 698.949 1474.49 Q698.949 1470.88 696.611 1468.77 Q694.273 1466.67 690.268 1466.67 Q688.393 1466.67 686.518 1467.08 Q684.667 1467.5 682.722 1468.38 L682.722 1451.02 Z" fill="#000000" fill-rule="nonzero" fill-opacity="1" /><path clip-path="url(#clip670)" d="M1200.31 1481.64 L1207.95 1481.64 L1207.95 1455.28 L1199.64 1456.95 L1199.64 1452.69 L1207.9 1451.02 L1212.58 1451.02 L1212.58 1481.64 L1220.22 1481.64 L1220.22 1485.58 L1200.31 1485.58 L1200.31 1481.64 Z" fill="#000000" fill-rule="nonzero" fill-opacity="1" /><path clip-path="url(#clip670)" d="M1239.66 1454.1 Q1236.05 1454.1 1234.22 1457.66 Q1232.41 1461.2 1232.41 1468.33 Q1232.41 1475.44 1234.22 1479.01 Q1236.05 1482.55 1239.66 1482.55 Q1243.29 1482.55 1245.1 1479.01 Q1246.93 1475.44 1246.93 1468.33 Q1246.93 1461.2 1245.1 1457.66 Q1243.29 1454.1 1239.66 1454.1 M1239.66 1450.39 Q1245.47 1450.39 1248.53 1455 Q1251.6 1459.58 1251.6 1468.33 Q1251.6 1477.06 1248.53 1481.67 Q1245.47 1486.25 1239.66 1486.25 Q1233.85 1486.25 1230.77 1481.67 Q1227.72 1477.06 1227.72 1468.33 Q1227.72 1459.58 1230.77 1455 Q1233.85 1450.39 1239.66 1450.39 Z" fill="#000000" fill-rule="nonzero" fill-opacity="1" /><path clip-path="url(#clip670)" d="M1733.98 1481.64 L1741.62 1481.64 L1741.62 1455.28 L1733.31 1456.95 L1733.31 1452.69 L1741.58 1451.02 L1746.25 1451.02 L1746.25 1481.64 L1753.89 1481.64 L1753.89 1485.58 L1733.98 1485.58 L1733.98 1481.64 Z" fill="#000000" fill-rule="nonzero" fill-opacity="1" /><path clip-path="url(#clip670)" d="M1763.38 1451.02 L1781.74 1451.02 L1781.74 1454.96 L1767.66 1454.96 L1767.66 1463.43 Q1768.68 1463.08 1769.7 1462.92 Q1770.72 1462.73 1771.74 1462.73 Q1777.52 1462.73 1780.9 1465.9 Q1784.28 1469.08 1784.28 1474.49 Q1784.28 1480.07 1780.81 1483.17 Q1777.34 1486.25 1771.02 1486.25 Q1768.84 1486.25 1766.58 1485.88 Q1764.33 1485.51 1761.92 1484.77 L1761.92 1480.07 Q1764.01 1481.2 1766.23 1481.76 Q1768.45 1482.32 1770.93 1482.32 Q1774.93 1482.32 1777.27 1480.21 Q1779.61 1478.1 1779.61 1474.49 Q1779.61 1470.88 1777.27 1468.77 Q1774.93 1466.67 1770.93 1466.67 Q1769.05 1466.67 1767.18 1467.08 Q1765.33 1467.5 1763.38 1468.38 L1763.38 1451.02 Z" fill="#000000" fill-rule="nonzero" fill-opacity="1" /><path clip-path="url(#clip670)" d="M2270.75 1481.64 L2287.07 1481.64 L2287.07 1485.58 L2265.12 1485.58 L2265.12 1481.64 Q2267.78 1478.89 2272.37 1474.26 Q2276.97 1469.61 2278.15 1468.27 Q2280.4 1465.74 2281.28 1464.01 Q2282.18 1462.25 2282.18 1460.56 Q2282.18 1457.8 2280.24 1456.07 Q2278.32 1454.33 2275.21 1454.33 Q2273.02 1454.33 2270.56 1455.09 Q2268.13 1455.86 2265.35 1457.41 L2265.35 1452.69 Q2268.18 1451.55 2270.63 1450.97 Q2273.08 1450.39 2275.12 1450.39 Q2280.49 1450.39 2283.69 1453.08 Q2286.88 1455.77 2286.88 1460.26 Q2286.88 1462.39 2286.07 1464.31 Q2285.28 1466.2 2283.18 1468.8 Q2282.6 1469.47 2279.5 1472.69 Q2276.4 1475.88 2270.75 1481.64 Z" fill="#000000" fill-rule="nonzero" fill-opacity="1" /><path clip-path="url(#clip670)" d="M2306.88 1454.1 Q2303.27 1454.1 2301.44 1457.66 Q2299.64 1461.2 2299.64 1468.33 Q2299.64 1475.44 2301.44 1479.01 Q2303.27 1482.55 2306.88 1482.55 Q2310.52 1482.55 2312.32 1479.01 Q2314.15 1475.44 2314.15 1468.33 Q2314.15 1461.2 2312.32 1457.66 Q2310.52 1454.1 2306.88 1454.1 M2306.88 1450.39 Q2312.69 1450.39 2315.75 1455 Q2318.83 1459.58 2318.83 1468.33 Q2318.83 1477.06 2315.75 1481.67 Q2312.69 1486.25 2306.88 1486.25 Q2301.07 1486.25 2297.99 1481.67 Q2294.94 1477.06 2294.94 1468.33 Q2294.94 1459.58 2297.99 1455 Q2301.07 1450.39 2306.88 1450.39 Z" fill="#000000" fill-rule="nonzero" fill-opacity="1" /><path clip-path="url(#clip670)" d="M1099.93 1525.81 L1099.93 1562.76 L1107.7 1562.76 Q1117.54 1562.76 1122.09 1558.3 Q1126.67 1553.85 1126.67 1544.24 Q1126.67 1534.69 1122.09 1530.26 Q1117.54 1525.81 1107.7 1525.81 L1099.93 1525.81 M1093.51 1520.52 L1106.71 1520.52 Q1120.53 1520.52 1126.99 1526.28 Q1133.45 1532.01 1133.45 1544.24 Q1133.45 1556.52 1126.96 1562.28 Q1120.46 1568.04 1106.71 1568.04 L1093.51 1568.04 L1093.51 1520.52 Z" fill="#000000" fill-rule="nonzero" fill-opacity="1" /><path clip-path="url(#clip670)" d="M1143.44 1532.4 L1149.3 1532.4 L1149.3 1568.04 L1143.44 1568.04 L1143.44 1532.4 M1143.44 1518.52 L1149.3 1518.52 L1149.3 1525.93 L1143.44 1525.93 L1143.44 1518.52 Z" fill="#000000" fill-rule="nonzero" fill-opacity="1" /><path clip-path="url(#clip670)" d="M1189.31 1539.24 Q1191.51 1535.29 1194.56 1533.41 Q1197.62 1531.54 1201.75 1531.54 Q1207.32 1531.54 1210.35 1535.45 Q1213.37 1539.33 1213.37 1546.53 L1213.37 1568.04 L1207.48 1568.04 L1207.48 1546.72 Q1207.48 1541.59 1205.67 1539.11 Q1203.85 1536.63 1200.13 1536.63 Q1195.58 1536.63 1192.94 1539.65 Q1190.3 1542.68 1190.3 1547.9 L1190.3 1568.04 L1184.41 1568.04 L1184.41 1546.72 Q1184.41 1541.56 1182.59 1539.11 Q1180.78 1536.63 1176.99 1536.63 Q1172.5 1536.63 1169.86 1539.68 Q1167.22 1542.71 1167.22 1547.9 L1167.22 1568.04 L1161.33 1568.04 L1161.33 1532.4 L1167.22 1532.4 L1167.22 1537.93 Q1169.23 1534.66 1172.03 1533.1 Q1174.83 1531.54 1178.68 1531.54 Q1182.56 1531.54 1185.27 1533.51 Q1188 1535.48 1189.31 1539.24 Z" fill="#000000" fill-rule="nonzero" fill-opacity="1" /><path clip-path="url(#clip670)" d="M1255.54 1548.76 L1255.54 1551.62 L1228.62 1551.62 Q1229 1557.67 1232.25 1560.85 Q1235.52 1564 1241.35 1564 Q1244.72 1564 1247.87 1563.17 Q1251.06 1562.35 1254.18 1560.69 L1254.18 1566.23 Q1251.02 1567.57 1247.71 1568.27 Q1244.4 1568.97 1241 1568.97 Q1232.47 1568.97 1227.47 1564 Q1222.51 1559.04 1222.51 1550.57 Q1222.51 1541.82 1227.22 1536.69 Q1231.96 1531.54 1239.98 1531.54 Q1247.17 1531.54 1251.34 1536.18 Q1255.54 1540.8 1255.54 1548.76 M1249.69 1547.04 Q1249.62 1542.23 1246.98 1539.37 Q1244.37 1536.5 1240.04 1536.5 Q1235.14 1536.5 1232.18 1539.27 Q1229.25 1542.04 1228.81 1547.07 L1249.69 1547.04 Z" fill="#000000" fill-rule="nonzero" fill-opacity="1" /><path clip-path="url(#clip670)" d="M1294.79 1546.53 L1294.79 1568.04 L1288.93 1568.04 L1288.93 1546.72 Q1288.93 1541.66 1286.96 1539.14 Q1284.99 1536.63 1281.04 1536.63 Q1276.3 1536.63 1273.56 1539.65 Q1270.82 1542.68 1270.82 1547.9 L1270.82 1568.04 L1264.93 1568.04 L1264.93 1532.4 L1270.82 1532.4 L1270.82 1537.93 Q1272.92 1534.72 1275.76 1533.13 Q1278.62 1531.54 1282.34 1531.54 Q1288.49 1531.54 1291.64 1535.36 Q1294.79 1539.14 1294.79 1546.53 Z" fill="#000000" fill-rule="nonzero" fill-opacity="1" /><path clip-path="url(#clip670)" d="M1329.2 1533.45 L1329.2 1538.98 Q1326.71 1537.71 1324.04 1537.07 Q1321.37 1536.44 1318.5 1536.44 Q1314.14 1536.44 1311.94 1537.77 Q1309.78 1539.11 1309.78 1541.79 Q1309.78 1543.82 1311.34 1545 Q1312.9 1546.15 1317.61 1547.2 L1319.62 1547.64 Q1325.85 1548.98 1328.46 1551.43 Q1331.11 1553.85 1331.11 1558.21 Q1331.11 1563.17 1327.16 1566.07 Q1323.24 1568.97 1316.37 1568.97 Q1313.5 1568.97 1310.39 1568.39 Q1307.3 1567.85 1303.86 1566.74 L1303.86 1560.69 Q1307.11 1562.38 1310.26 1563.24 Q1313.41 1564.07 1316.5 1564.07 Q1320.63 1564.07 1322.86 1562.66 Q1325.09 1561.23 1325.09 1558.65 Q1325.09 1556.27 1323.47 1554.99 Q1321.88 1553.72 1316.43 1552.54 L1314.4 1552.07 Q1308.95 1550.92 1306.53 1548.56 Q1304.11 1546.18 1304.11 1542.04 Q1304.11 1537.01 1307.68 1534.27 Q1311.24 1531.54 1317.8 1531.54 Q1321.05 1531.54 1323.91 1532.01 Q1326.78 1532.49 1329.2 1533.45 Z" fill="#000000" fill-rule="nonzero" fill-opacity="1" /><path clip-path="url(#clip670)" d="M1340.43 1532.4 L1346.29 1532.4 L1346.29 1568.04 L1340.43 1568.04 L1340.43 1532.4 M1340.43 1518.52 L1346.29 1518.52 L1346.29 1525.93 L1340.43 1525.93 L1340.43 1518.52 Z" fill="#000000" fill-rule="nonzero" fill-opacity="1" /><path clip-path="url(#clip670)" d="M1372.36 1536.5 Q1367.64 1536.5 1364.91 1540.19 Q1362.17 1543.85 1362.17 1550.25 Q1362.17 1556.65 1364.88 1560.34 Q1367.61 1564 1372.36 1564 Q1377.03 1564 1379.77 1560.31 Q1382.51 1556.62 1382.51 1550.25 Q1382.51 1543.92 1379.77 1540.23 Q1377.03 1536.5 1372.36 1536.5 M1372.36 1531.54 Q1379.99 1531.54 1384.35 1536.5 Q1388.72 1541.47 1388.72 1550.25 Q1388.72 1559 1384.35 1564 Q1379.99 1568.97 1372.36 1568.97 Q1364.68 1568.97 1360.32 1564 Q1356 1559 1356 1550.25 Q1356 1541.47 1360.32 1536.5 Q1364.68 1531.54 1372.36 1531.54 Z" fill="#000000" fill-rule="nonzero" fill-opacity="1" /><path clip-path="url(#clip670)" d="M1428.06 1546.53 L1428.06 1568.04 L1422.2 1568.04 L1422.2 1546.72 Q1422.2 1541.66 1420.23 1539.14 Q1418.25 1536.63 1414.31 1536.63 Q1409.56 1536.63 1406.83 1539.65 Q1404.09 1542.68 1404.09 1547.9 L1404.09 1568.04 L1398.2 1568.04 L1398.2 1532.4 L1404.09 1532.4 L1404.09 1537.93 Q1406.19 1534.72 1409.02 1533.13 Q1411.89 1531.54 1415.61 1531.54 Q1421.75 1531.54 1424.9 1535.36 Q1428.06 1539.14 1428.06 1546.53 Z" fill="#000000" fill-rule="nonzero" fill-opacity="1" /><path clip-path="url(#clip670)" d="M1462.46 1533.45 L1462.46 1538.98 Q1459.98 1537.71 1457.31 1537.07 Q1454.63 1536.44 1451.77 1536.44 Q1447.41 1536.44 1445.21 1537.77 Q1443.05 1539.11 1443.05 1541.79 Q1443.05 1543.82 1444.61 1545 Q1446.17 1546.15 1450.88 1547.2 L1452.88 1547.64 Q1459.12 1548.98 1461.73 1551.43 Q1464.37 1553.85 1464.37 1558.21 Q1464.37 1563.17 1460.42 1566.07 Q1456.51 1568.97 1449.63 1568.97 Q1446.77 1568.97 1443.65 1568.39 Q1440.56 1567.85 1437.13 1566.74 L1437.13 1560.69 Q1440.37 1562.38 1443.52 1563.24 Q1446.67 1564.07 1449.76 1564.07 Q1453.9 1564.07 1456.13 1562.66 Q1458.36 1561.23 1458.36 1558.65 Q1458.36 1556.27 1456.73 1554.99 Q1455.14 1553.72 1449.7 1552.54 L1447.66 1552.07 Q1442.22 1550.92 1439.8 1548.56 Q1437.38 1546.18 1437.38 1542.04 Q1437.38 1537.01 1440.95 1534.27 Q1444.51 1531.54 1451.07 1531.54 Q1454.31 1531.54 1457.18 1532.01 Q1460.04 1532.49 1462.46 1533.45 Z" fill="#000000" fill-rule="nonzero" fill-opacity="1" /><polyline clip-path="url(#clip670)" style="stroke:#000000; stroke-linecap:round; stroke-linejoin:round; stroke-width:4; stroke-opacity:1; fill:none" points="205.121,1423.18 205.121,123.472 "/>
<polyline clip-path="url(#clip670)" style="stroke:#000000; stroke-linecap:round; stroke-linejoin:round; stroke-width:4; stroke-opacity:1; fill:none" points="205.121,1386.4 224.019,1386.4 "/>
<polyline clip-path="url(#clip670)" style="stroke:#000000; stroke-linecap:round; stroke-linejoin:round; stroke-width:4; stroke-opacity:1; fill:none" points="205.121,1078.96 224.019,1078.96 "/>
<polyline clip-path="url(#clip670)" style="stroke:#000000; stroke-linecap:round; stroke-linejoin:round; stroke-width:4; stroke-opacity:1; fill:none" points="205.121,771.531 224.019,771.531 "/>
<polyline clip-path="url(#clip670)" style="stroke:#000000; stroke-linecap:round; stroke-linejoin:round; stroke-width:4; stroke-opacity:1; fill:none" points="205.121,464.098 224.019,464.098 "/>
<polyline clip-path="url(#clip670)" style="stroke:#000000; stroke-linecap:round; stroke-linejoin:round; stroke-width:4; stroke-opacity:1; fill:none" points="205.121,156.666 224.019,156.666 "/>
<path clip-path="url(#clip670)" d="M157.177 1372.19 Q153.566 1372.19 151.737 1375.76 Q149.931 1379.3 149.931 1386.43 Q149.931 1393.54 151.737 1397.1 Q153.566 1400.64 157.177 1400.64 Q160.811 1400.64 162.616 1397.1 Q164.445 1393.54 164.445 1386.43 Q164.445 1379.3 162.616 1375.76 Q160.811 1372.19 157.177 1372.19 M157.177 1368.49 Q162.987 1368.49 166.042 1373.1 Q169.121 1377.68 169.121 1386.43 Q169.121 1395.16 166.042 1399.76 Q162.987 1404.35 157.177 1404.35 Q151.366 1404.35 148.288 1399.76 Q145.232 1395.16 145.232 1386.43 Q145.232 1377.68 148.288 1373.1 Q151.366 1368.49 157.177 1368.49 Z" fill="#000000" fill-rule="nonzero" fill-opacity="1" /><path clip-path="url(#clip670)" d="M117.825 1092.31 L125.464 1092.31 L125.464 1065.94 L117.154 1067.61 L117.154 1063.35 L125.418 1061.68 L130.093 1061.68 L130.093 1092.31 L137.732 1092.31 L137.732 1096.24 L117.825 1096.24 L117.825 1092.31 Z" fill="#000000" fill-rule="nonzero" fill-opacity="1" /><path clip-path="url(#clip670)" d="M157.177 1064.76 Q153.566 1064.76 151.737 1068.33 Q149.931 1071.87 149.931 1079 Q149.931 1086.1 151.737 1089.67 Q153.566 1093.21 157.177 1093.21 Q160.811 1093.21 162.616 1089.67 Q164.445 1086.1 164.445 1079 Q164.445 1071.87 162.616 1068.33 Q160.811 1064.76 157.177 1064.76 M157.177 1061.06 Q162.987 1061.06 166.042 1065.66 Q169.121 1070.25 169.121 1079 Q169.121 1087.72 166.042 1092.33 Q162.987 1096.91 157.177 1096.91 Q151.366 1096.91 148.288 1092.33 Q145.232 1087.72 145.232 1079 Q145.232 1070.25 148.288 1065.66 Q151.366 1061.06 157.177 1061.06 Z" fill="#000000" fill-rule="nonzero" fill-opacity="1" /><path clip-path="url(#clip670)" d="M121.043 784.876 L137.362 784.876 L137.362 788.811 L115.418 788.811 L115.418 784.876 Q118.08 782.121 122.663 777.491 Q127.269 772.839 128.45 771.496 Q130.695 768.973 131.575 767.237 Q132.478 765.478 132.478 763.788 Q132.478 761.033 130.533 759.297 Q128.612 757.561 125.51 757.561 Q123.311 757.561 120.857 758.325 Q118.427 759.089 115.649 760.64 L115.649 755.917 Q118.473 754.783 120.927 754.204 Q123.38 753.626 125.418 753.626 Q130.788 753.626 133.982 756.311 Q137.177 758.996 137.177 763.487 Q137.177 765.616 136.367 767.538 Q135.579 769.436 133.473 772.028 Q132.894 772.7 129.792 775.917 Q126.691 779.112 121.043 784.876 Z" fill="#000000" fill-rule="nonzero" fill-opacity="1" /><path clip-path="url(#clip670)" d="M157.177 757.329 Q153.566 757.329 151.737 760.894 Q149.931 764.436 149.931 771.565 Q149.931 778.672 151.737 782.237 Q153.566 785.778 157.177 785.778 Q160.811 785.778 162.616 782.237 Q164.445 778.672 164.445 771.565 Q164.445 764.436 162.616 760.894 Q160.811 757.329 157.177 757.329 M157.177 753.626 Q162.987 753.626 166.042 758.232 Q169.121 762.816 169.121 771.565 Q169.121 780.292 166.042 784.899 Q162.987 789.482 157.177 789.482 Q151.366 789.482 148.288 784.899 Q145.232 780.292 145.232 771.565 Q145.232 762.816 148.288 758.232 Q151.366 753.626 157.177 753.626 Z" fill="#000000" fill-rule="nonzero" fill-opacity="1" /><path clip-path="url(#clip670)" d="M131.181 462.744 Q134.538 463.462 136.413 465.73 Q138.311 467.999 138.311 471.332 Q138.311 476.448 134.792 479.249 Q131.274 482.05 124.793 482.05 Q122.617 482.05 120.302 481.61 Q118.01 481.193 115.556 480.337 L115.556 475.823 Q117.501 476.957 119.816 477.536 Q122.13 478.114 124.654 478.114 Q129.052 478.114 131.343 476.378 Q133.658 474.642 133.658 471.332 Q133.658 468.277 131.505 466.564 Q129.376 464.827 125.556 464.827 L121.529 464.827 L121.529 460.985 L125.742 460.985 Q129.191 460.985 131.019 459.619 Q132.848 458.23 132.848 455.638 Q132.848 452.976 130.95 451.564 Q129.075 450.128 125.556 450.128 Q123.635 450.128 121.436 450.545 Q119.237 450.962 116.598 451.841 L116.598 447.675 Q119.26 446.934 121.575 446.564 Q123.913 446.193 125.973 446.193 Q131.297 446.193 134.399 448.624 Q137.501 451.031 137.501 455.152 Q137.501 458.022 135.857 460.013 Q134.214 461.98 131.181 462.744 Z" fill="#000000" fill-rule="nonzero" fill-opacity="1" /><path clip-path="url(#clip670)" d="M157.177 449.897 Q153.566 449.897 151.737 453.462 Q149.931 457.003 149.931 464.133 Q149.931 471.239 151.737 474.804 Q153.566 478.346 157.177 478.346 Q160.811 478.346 162.616 474.804 Q164.445 471.239 164.445 464.133 Q164.445 457.003 162.616 453.462 Q160.811 449.897 157.177 449.897 M157.177 446.193 Q162.987 446.193 166.042 450.8 Q169.121 455.383 169.121 464.133 Q169.121 472.86 166.042 477.466 Q162.987 482.05 157.177 482.05 Q151.366 482.05 148.288 477.466 Q145.232 472.86 145.232 464.133 Q145.232 455.383 148.288 450.8 Q151.366 446.193 157.177 446.193 Z" fill="#000000" fill-rule="nonzero" fill-opacity="1" /><path clip-path="url(#clip670)" d="M129.862 143.46 L118.056 161.909 L129.862 161.909 L129.862 143.46 M128.635 139.386 L134.515 139.386 L134.515 161.909 L139.445 161.909 L139.445 165.798 L134.515 165.798 L134.515 173.946 L129.862 173.946 L129.862 165.798 L114.26 165.798 L114.26 161.284 L128.635 139.386 Z" fill="#000000" fill-rule="nonzero" fill-opacity="1" /><path clip-path="url(#clip670)" d="M157.177 142.465 Q153.566 142.465 151.737 146.029 Q149.931 149.571 149.931 156.701 Q149.931 163.807 151.737 167.372 Q153.566 170.913 157.177 170.913 Q160.811 170.913 162.616 167.372 Q164.445 163.807 164.445 156.701 Q164.445 149.571 162.616 146.029 Q160.811 142.465 157.177 142.465 M157.177 138.761 Q162.987 138.761 166.042 143.367 Q169.121 147.951 169.121 156.701 Q169.121 165.427 166.042 170.034 Q162.987 174.617 157.177 174.617 Q151.366 174.617 148.288 170.034 Q145.232 165.427 145.232 156.701 Q145.232 147.951 148.288 143.367 Q151.366 138.761 157.177 138.761 Z" fill="#000000" fill-rule="nonzero" fill-opacity="1" /><path clip-path="url(#clip670)" d="M16.4842 791.5 L16.4842 784.593 L34.149 772.785 L16.4842 760.913 L16.4842 754.006 L39.3052 769.284 L64.0042 752.988 L64.0042 759.894 L43.793 773.262 L64.0042 786.726 L64.0042 793.664 L38.6368 776.7 L16.4842 791.5 Z" fill="#000000" fill-rule="nonzero" fill-opacity="1" /><path clip-path="url(#clip670)" d="M409.128 12.096 L421.322 12.096 L436.755 53.2532 L452.27 12.096 L464.464 12.096 L464.464 72.576 L456.483 72.576 L456.483 19.4686 L440.887 60.9499 L432.664 60.9499 L417.068 19.4686 L417.068 72.576 L409.128 72.576 L409.128 12.096 Z" fill="#000000" fill-rule="nonzero" fill-opacity="1" /><path clip-path="url(#clip670)" d="M501.003 49.7694 Q491.969 49.7694 488.485 51.8354 Q485.002 53.9013 485.002 58.8839 Q485.002 62.8538 487.594 65.2034 Q490.227 67.5124 494.724 67.5124 Q500.922 67.5124 504.649 63.1374 Q508.416 58.7219 508.416 51.4303 L508.416 49.7694 L501.003 49.7694 M515.87 46.6907 L515.87 72.576 L508.416 72.576 L508.416 65.6895 Q505.864 69.8214 502.056 71.8063 Q498.248 73.7508 492.739 73.7508 Q485.771 73.7508 481.639 69.8619 Q477.548 65.9325 477.548 59.3701 Q477.548 51.7138 482.652 47.825 Q487.797 43.9361 497.965 43.9361 L508.416 43.9361 L508.416 43.2069 Q508.416 38.0623 505.013 35.2672 Q501.651 32.4315 495.534 32.4315 Q491.645 32.4315 487.959 33.3632 Q484.273 34.295 480.87 36.1584 L480.87 29.2718 Q484.961 27.692 488.81 26.9223 Q492.658 26.1121 496.304 26.1121 Q506.147 26.1121 511.009 31.2163 Q515.87 36.3204 515.87 46.6907 Z" fill="#000000" fill-rule="nonzero" fill-opacity="1" /><path clip-path="url(#clip670)" d="M561.078 49.3643 Q561.078 41.2625 557.715 36.8065 Q554.394 32.3505 548.358 32.3505 Q542.363 32.3505 539 36.8065 Q535.679 41.2625 535.679 49.3643 Q535.679 57.4256 539 61.8816 Q542.363 66.3376 548.358 66.3376 Q554.394 66.3376 557.715 61.8816 Q561.078 57.4256 561.078 49.3643 M568.531 66.9452 Q568.531 78.5308 563.387 84.1616 Q558.242 89.8329 547.629 89.8329 Q543.699 89.8329 540.216 89.2252 Q536.732 88.6581 533.451 87.4428 L533.451 80.1917 Q536.732 81.9741 539.932 82.8248 Q543.132 83.6755 546.454 83.6755 Q553.786 83.6755 557.432 79.8271 Q561.078 76.0193 561.078 68.282 L561.078 64.5957 Q558.769 68.6061 555.163 70.5911 Q551.558 72.576 546.535 72.576 Q538.19 72.576 533.086 66.2161 Q527.982 59.8562 527.982 49.3643 Q527.982 38.832 533.086 32.472 Q538.19 26.1121 546.535 26.1121 Q551.558 26.1121 555.163 28.0971 Q558.769 30.082 561.078 34.0924 L561.078 27.2059 L568.531 27.2059 L568.531 66.9452 Z" fill="#000000" fill-rule="nonzero" fill-opacity="1" /><path clip-path="url(#clip670)" d="M621.598 45.1919 L621.598 72.576 L614.145 72.576 L614.145 45.4349 Q614.145 38.994 611.633 35.7938 Q609.121 32.5936 604.098 32.5936 Q598.062 32.5936 594.579 36.4419 Q591.095 40.2903 591.095 46.9338 L591.095 72.576 L583.601 72.576 L583.601 27.2059 L591.095 27.2059 L591.095 34.2544 Q593.769 30.163 597.374 28.1376 Q601.02 26.1121 605.759 26.1121 Q613.577 26.1121 617.588 30.9732 Q621.598 35.7938 621.598 45.1919 Z" fill="#000000" fill-rule="nonzero" fill-opacity="1" /><path clip-path="url(#clip670)" d="M675.273 48.0275 L675.273 51.6733 L641.002 51.6733 Q641.488 59.3701 645.62 63.421 Q649.793 67.4314 657.206 67.4314 Q661.5 67.4314 665.51 66.3781 Q669.561 65.3249 673.531 63.2184 L673.531 70.267 Q669.52 71.9684 665.307 72.8596 Q661.095 73.7508 656.76 73.7508 Q645.904 73.7508 639.544 67.4314 Q633.224 61.1119 633.224 50.3365 Q633.224 39.1965 639.22 32.6746 Q645.255 26.1121 655.464 26.1121 Q664.619 26.1121 669.925 32.0264 Q675.273 37.9003 675.273 48.0275 M667.819 45.84 Q667.738 39.7232 664.376 36.0774 Q661.054 32.4315 655.545 32.4315 Q649.306 32.4315 645.539 35.9558 Q641.812 39.4801 641.245 45.8805 L667.819 45.84 Z" fill="#000000" fill-rule="nonzero" fill-opacity="1" /><path clip-path="url(#clip670)" d="M694.879 14.324 L694.879 27.2059 L710.232 27.2059 L710.232 32.9987 L694.879 32.9987 L694.879 57.6282 Q694.879 63.1779 696.378 64.7578 Q697.917 66.3376 702.576 66.3376 L710.232 66.3376 L710.232 72.576 L702.576 72.576 Q693.947 72.576 690.666 69.3758 Q687.385 66.1351 687.385 57.6282 L687.385 32.9987 L681.916 32.9987 L681.916 27.2059 L687.385 27.2059 L687.385 14.324 L694.879 14.324 Z" fill="#000000" fill-rule="nonzero" fill-opacity="1" /><path clip-path="url(#clip670)" d="M720.035 27.2059 L727.489 27.2059 L727.489 72.576 L720.035 72.576 L720.035 27.2059 M720.035 9.54393 L727.489 9.54393 L727.489 18.9825 L720.035 18.9825 L720.035 9.54393 Z" fill="#000000" fill-rule="nonzero" fill-opacity="1" /><path clip-path="url(#clip670)" d="M775.735 28.9478 L775.735 35.9153 Q772.575 34.1734 769.375 33.3227 Q766.215 32.4315 762.975 32.4315 Q755.724 32.4315 751.713 37.0496 Q747.703 41.6271 747.703 49.9314 Q747.703 58.2358 751.713 62.8538 Q755.724 67.4314 762.975 67.4314 Q766.215 67.4314 769.375 66.5807 Q772.575 65.6895 775.735 63.9476 L775.735 70.8341 Q772.616 72.2924 769.254 73.0216 Q765.932 73.7508 762.165 73.7508 Q751.916 73.7508 745.88 67.3098 Q739.844 60.8689 739.844 49.9314 Q739.844 38.832 745.92 32.472 Q752.037 26.1121 762.651 26.1121 Q766.094 26.1121 769.375 26.8413 Q772.656 27.5299 775.735 28.9478 Z" fill="#000000" fill-rule="nonzero" fill-opacity="1" /><path clip-path="url(#clip670)" d="M851.649 14.0809 L851.649 22.0612 Q846.991 19.8332 842.859 18.7395 Q838.727 17.6457 834.878 17.6457 Q828.194 17.6457 824.549 20.2383 Q820.943 22.8309 820.943 27.611 Q820.943 31.6214 823.333 33.6873 Q825.764 35.7128 832.488 36.9686 L837.43 37.9813 Q846.585 39.7232 850.92 44.1387 Q855.295 48.5136 855.295 55.8863 Q855.295 64.6767 849.381 69.2137 Q843.507 73.7508 832.124 73.7508 Q827.83 73.7508 822.969 72.7785 Q818.148 71.8063 812.963 69.9024 L812.963 61.4765 Q817.946 64.2716 822.726 65.6895 Q827.506 67.1073 832.124 67.1073 Q839.132 67.1073 842.94 64.3527 Q846.747 61.598 846.747 56.4939 Q846.747 52.0379 843.993 49.5264 Q841.279 47.0148 835.04 45.759 L830.058 44.7868 Q820.903 42.9639 816.811 39.075 Q812.72 35.1862 812.72 28.2591 Q812.72 20.2383 818.351 15.6203 Q824.022 11.0023 833.947 11.0023 Q838.2 11.0023 842.616 11.7719 Q847.031 12.5416 851.649 14.0809 Z" fill="#000000" fill-rule="nonzero" fill-opacity="1" /><path clip-path="url(#clip670)" d="M866.961 54.671 L866.961 27.2059 L874.415 27.2059 L874.415 54.3874 Q874.415 60.8284 876.927 64.0691 Q879.438 67.2693 884.461 67.2693 Q890.497 67.2693 893.981 63.421 Q897.505 59.5726 897.505 52.9291 L897.505 27.2059 L904.959 27.2059 L904.959 72.576 L897.505 72.576 L897.505 65.6084 Q894.791 69.7404 891.186 71.7658 Q887.621 73.7508 882.882 73.7508 Q875.063 73.7508 871.012 68.8897 Q866.961 64.0286 866.961 54.671 M885.717 26.1121 L885.717 26.1121 Z" fill="#000000" fill-rule="nonzero" fill-opacity="1" /><path clip-path="url(#clip670)" d="M949.235 28.5427 L949.235 35.5912 Q946.076 33.9709 942.673 33.1607 Q939.27 32.3505 935.624 32.3505 Q930.075 32.3505 927.279 34.0519 Q924.525 35.7533 924.525 39.156 Q924.525 41.7486 926.51 43.2475 Q928.495 44.7058 934.49 46.0426 L937.042 46.6097 Q944.982 48.3111 948.304 51.4303 Q951.666 54.509 951.666 60.0587 Q951.666 66.3781 946.643 70.0644 Q941.66 73.7508 932.91 73.7508 Q929.264 73.7508 925.295 73.0216 Q921.365 72.3329 916.99 70.9151 L916.99 63.2184 Q921.122 65.3654 925.132 66.4591 Q929.143 67.5124 933.072 67.5124 Q938.338 67.5124 941.174 65.73 Q944.01 63.9071 944.01 60.6258 Q944.01 57.5877 941.944 55.9673 Q939.918 54.3469 932.991 52.8481 L930.399 52.2405 Q923.472 50.7821 920.393 47.7845 Q917.314 44.7463 917.314 39.4801 Q917.314 33.0797 921.851 29.5959 Q926.388 26.1121 934.733 26.1121 Q938.865 26.1121 942.511 26.7198 Q946.157 27.3274 949.235 28.5427 Z" fill="#000000" fill-rule="nonzero" fill-opacity="1" /><path clip-path="url(#clip670)" d="M996.185 28.9478 L996.185 35.9153 Q993.026 34.1734 989.825 33.3227 Q986.666 32.4315 983.425 32.4315 Q976.174 32.4315 972.163 37.0496 Q968.153 41.6271 968.153 49.9314 Q968.153 58.2358 972.163 62.8538 Q976.174 67.4314 983.425 67.4314 Q986.666 67.4314 989.825 66.5807 Q993.026 65.6895 996.185 63.9476 L996.185 70.8341 Q993.066 72.2924 989.704 73.0216 Q986.382 73.7508 982.615 73.7508 Q972.366 73.7508 966.33 67.3098 Q960.294 60.8689 960.294 49.9314 Q960.294 38.832 966.371 32.472 Q972.488 26.1121 983.101 26.1121 Q986.544 26.1121 989.825 26.8413 Q993.107 27.5299 996.185 28.9478 Z" fill="#000000" fill-rule="nonzero" fill-opacity="1" /><path clip-path="url(#clip670)" d="M1047.96 48.0275 L1047.96 51.6733 L1013.69 51.6733 Q1014.17 59.3701 1018.3 63.421 Q1022.48 67.4314 1029.89 67.4314 Q1034.18 67.4314 1038.19 66.3781 Q1042.24 65.3249 1046.21 63.2184 L1046.21 70.267 Q1042.2 71.9684 1037.99 72.8596 Q1033.78 73.7508 1029.44 73.7508 Q1018.59 73.7508 1012.23 67.4314 Q1005.91 61.1119 1005.91 50.3365 Q1005.91 39.1965 1011.9 32.6746 Q1017.94 26.1121 1028.15 26.1121 Q1037.3 26.1121 1042.61 32.0264 Q1047.96 37.9003 1047.96 48.0275 M1040.5 45.84 Q1040.42 39.7232 1037.06 36.0774 Q1033.74 32.4315 1028.23 32.4315 Q1021.99 32.4315 1018.22 35.9558 Q1014.5 39.4801 1013.93 45.8805 L1040.5 45.84 Z" fill="#000000" fill-rule="nonzero" fill-opacity="1" /><path clip-path="url(#clip670)" d="M1067.4 65.7705 L1067.4 89.8329 L1059.91 89.8329 L1059.91 27.2059 L1067.4 27.2059 L1067.4 34.0924 Q1069.75 30.0415 1073.31 28.0971 Q1076.92 26.1121 1081.9 26.1121 Q1090.17 26.1121 1095.31 32.6746 Q1100.5 39.2371 1100.5 49.9314 Q1100.5 60.6258 1095.31 67.1883 Q1090.17 73.7508 1081.9 73.7508 Q1076.92 73.7508 1073.31 71.8063 Q1069.75 69.8214 1067.4 65.7705 M1092.76 49.9314 Q1092.76 41.7081 1089.36 37.0496 Q1085.99 32.3505 1080.08 32.3505 Q1074.17 32.3505 1070.76 37.0496 Q1067.4 41.7081 1067.4 49.9314 Q1067.4 58.1548 1070.76 62.8538 Q1074.17 67.5124 1080.08 67.5124 Q1085.99 67.5124 1089.36 62.8538 Q1092.76 58.1548 1092.76 49.9314 Z" fill="#000000" fill-rule="nonzero" fill-opacity="1" /><path clip-path="url(#clip670)" d="M1120.22 14.324 L1120.22 27.2059 L1135.58 27.2059 L1135.58 32.9987 L1120.22 32.9987 L1120.22 57.6282 Q1120.22 63.1779 1121.72 64.7578 Q1123.26 66.3376 1127.92 66.3376 L1135.58 66.3376 L1135.58 72.576 L1127.92 72.576 Q1119.29 72.576 1116.01 69.3758 Q1112.73 66.1351 1112.73 57.6282 L1112.73 32.9987 L1107.26 32.9987 L1107.26 27.2059 L1112.73 27.2059 L1112.73 14.324 L1120.22 14.324 Z" fill="#000000" fill-rule="nonzero" fill-opacity="1" /><path clip-path="url(#clip670)" d="M1145.38 27.2059 L1152.83 27.2059 L1152.83 72.576 L1145.38 72.576 L1145.38 27.2059 M1145.38 9.54393 L1152.83 9.54393 L1152.83 18.9825 L1145.38 18.9825 L1145.38 9.54393 Z" fill="#000000" fill-rule="nonzero" fill-opacity="1" /><path clip-path="url(#clip670)" d="M1201 49.9314 Q1201 41.7081 1197.6 37.0496 Q1194.23 32.3505 1188.32 32.3505 Q1182.41 32.3505 1179 37.0496 Q1175.64 41.7081 1175.64 49.9314 Q1175.64 58.1548 1179 62.8538 Q1182.41 67.5124 1188.32 67.5124 Q1194.23 67.5124 1197.6 62.8538 Q1201 58.1548 1201 49.9314 M1175.64 34.0924 Q1177.99 30.0415 1181.55 28.0971 Q1185.16 26.1121 1190.14 26.1121 Q1198.41 26.1121 1203.55 32.6746 Q1208.74 39.2371 1208.74 49.9314 Q1208.74 60.6258 1203.55 67.1883 Q1198.41 73.7508 1190.14 73.7508 Q1185.16 73.7508 1181.55 71.8063 Q1177.99 69.8214 1175.64 65.7705 L1175.64 72.576 L1168.15 72.576 L1168.15 9.54393 L1175.64 9.54393 L1175.64 34.0924 Z" fill="#000000" fill-rule="nonzero" fill-opacity="1" /><path clip-path="url(#clip670)" d="M1221.09 27.2059 L1228.55 27.2059 L1228.55 72.576 L1221.09 72.576 L1221.09 27.2059 M1221.09 9.54393 L1228.55 9.54393 L1228.55 18.9825 L1221.09 18.9825 L1221.09 9.54393 Z" fill="#000000" fill-rule="nonzero" fill-opacity="1" /><path clip-path="url(#clip670)" d="M1244.14 9.54393 L1251.59 9.54393 L1251.59 72.576 L1244.14 72.576 L1244.14 9.54393 Z" fill="#000000" fill-rule="nonzero" fill-opacity="1" /><path clip-path="url(#clip670)" d="M1267.19 27.2059 L1274.64 27.2059 L1274.64 72.576 L1267.19 72.576 L1267.19 27.2059 M1267.19 9.54393 L1274.64 9.54393 L1274.64 18.9825 L1267.19 18.9825 L1267.19 9.54393 Z" fill="#000000" fill-rule="nonzero" fill-opacity="1" /><path clip-path="url(#clip670)" d="M1297.61 14.324 L1297.61 27.2059 L1312.97 27.2059 L1312.97 32.9987 L1297.61 32.9987 L1297.61 57.6282 Q1297.61 63.1779 1299.11 64.7578 Q1300.65 66.3376 1305.31 66.3376 L1312.97 66.3376 L1312.97 72.576 L1305.31 72.576 Q1296.68 72.576 1293.4 69.3758 Q1290.12 66.1351 1290.12 57.6282 L1290.12 32.9987 L1284.65 32.9987 L1284.65 27.2059 L1290.12 27.2059 L1290.12 14.324 L1297.61 14.324 Z" fill="#000000" fill-rule="nonzero" fill-opacity="1" /><path clip-path="url(#clip670)" d="M1341.65 76.7889 Q1338.49 84.8907 1335.49 87.3618 Q1332.49 89.8329 1327.47 89.8329 L1321.51 89.8329 L1321.51 83.5945 L1325.89 83.5945 Q1328.97 83.5945 1330.67 82.1361 Q1332.37 80.6778 1334.44 75.2496 L1335.77 71.8468 L1317.42 27.2059 L1325.32 27.2059 L1339.5 62.6918 L1353.68 27.2059 L1361.58 27.2059 L1341.65 76.7889 Z" fill="#000000" fill-rule="nonzero" fill-opacity="1" /><path clip-path="url(#clip670)" d="M1415.82 32.4315 Q1409.82 32.4315 1406.34 37.1306 Q1402.86 41.7891 1402.86 49.9314 Q1402.86 58.0738 1406.3 62.7728 Q1409.78 67.4314 1415.82 67.4314 Q1421.77 67.4314 1425.26 62.7323 Q1428.74 58.0333 1428.74 49.9314 Q1428.74 41.8701 1425.26 37.1711 Q1421.77 32.4315 1415.82 32.4315 M1415.82 26.1121 Q1425.54 26.1121 1431.09 32.4315 Q1436.64 38.7509 1436.64 49.9314 Q1436.64 61.0714 1431.09 67.4314 Q1425.54 73.7508 1415.82 73.7508 Q1406.06 73.7508 1400.51 67.4314 Q1395 61.0714 1395 49.9314 Q1395 38.7509 1400.51 32.4315 Q1406.06 26.1121 1415.82 26.1121 Z" fill="#000000" fill-rule="nonzero" fill-opacity="1" /><path clip-path="url(#clip670)" d="M1443.65 27.2059 L1451.55 27.2059 L1465.73 65.2844 L1479.9 27.2059 L1487.8 27.2059 L1470.79 72.576 L1460.66 72.576 L1443.65 27.2059 Z" fill="#000000" fill-rule="nonzero" fill-opacity="1" /><path clip-path="url(#clip670)" d="M1536.9 48.0275 L1536.9 51.6733 L1502.63 51.6733 Q1503.12 59.3701 1507.25 63.421 Q1511.42 67.4314 1518.83 67.4314 Q1523.13 67.4314 1527.14 66.3781 Q1531.19 65.3249 1535.16 63.2184 L1535.16 70.267 Q1531.15 71.9684 1526.93 72.8596 Q1522.72 73.7508 1518.39 73.7508 Q1507.53 73.7508 1501.17 67.4314 Q1494.85 61.1119 1494.85 50.3365 Q1494.85 39.1965 1500.85 32.6746 Q1506.88 26.1121 1517.09 26.1121 Q1526.25 26.1121 1531.55 32.0264 Q1536.9 37.9003 1536.9 48.0275 M1529.45 45.84 Q1529.37 39.7232 1526 36.0774 Q1522.68 32.4315 1517.17 32.4315 Q1510.93 32.4315 1507.17 35.9558 Q1503.44 39.4801 1502.87 45.8805 L1529.45 45.84 Z" fill="#000000" fill-rule="nonzero" fill-opacity="1" /><path clip-path="url(#clip670)" d="M1575.42 34.1734 Q1574.17 33.4443 1572.67 33.1202 Q1571.21 32.7556 1569.43 32.7556 Q1563.11 32.7556 1559.71 36.8875 Q1556.34 40.9789 1556.34 48.6757 L1556.34 72.576 L1548.85 72.576 L1548.85 27.2059 L1556.34 27.2059 L1556.34 34.2544 Q1558.69 30.1225 1562.46 28.1376 Q1566.23 26.1121 1571.62 26.1121 Q1572.39 26.1121 1573.32 26.2337 Q1574.25 26.3147 1575.38 26.5172 L1575.42 34.1734 Z" fill="#000000" fill-rule="nonzero" fill-opacity="1" /><path clip-path="url(#clip670)" d="M1618.12 18.8205 L1618.12 65.8515 L1628 65.8515 Q1640.52 65.8515 1646.31 60.1802 Q1652.15 54.509 1652.15 42.2752 Q1652.15 30.1225 1646.31 24.4918 Q1640.52 18.8205 1628 18.8205 L1618.12 18.8205 M1609.94 12.096 L1626.75 12.096 Q1644.33 12.096 1652.55 19.4281 Q1660.78 26.7198 1660.78 42.2752 Q1660.78 57.9117 1652.51 65.2439 Q1644.25 72.576 1626.75 72.576 L1609.94 72.576 L1609.94 12.096 Z" fill="#000000" fill-rule="nonzero" fill-opacity="1" /><path clip-path="url(#clip670)" d="M1673.5 27.2059 L1680.95 27.2059 L1680.95 72.576 L1673.5 72.576 L1673.5 27.2059 M1673.5 9.54393 L1680.95 9.54393 L1680.95 18.9825 L1673.5 18.9825 L1673.5 9.54393 Z" fill="#000000" fill-rule="nonzero" fill-opacity="1" /><path clip-path="url(#clip670)" d="M1731.87 35.9153 Q1734.67 30.8922 1738.55 28.5022 Q1742.44 26.1121 1747.71 26.1121 Q1754.8 26.1121 1758.65 31.0947 Q1762.49 36.0368 1762.49 45.1919 L1762.49 72.576 L1755 72.576 L1755 45.4349 Q1755 38.913 1752.69 35.7533 Q1750.38 32.5936 1745.64 32.5936 Q1739.85 32.5936 1736.49 36.4419 Q1733.13 40.2903 1733.13 46.9338 L1733.13 72.576 L1725.63 72.576 L1725.63 45.4349 Q1725.63 38.8725 1723.32 35.7533 Q1721.01 32.5936 1716.19 32.5936 Q1710.48 32.5936 1707.12 36.4824 Q1703.76 40.3308 1703.76 46.9338 L1703.76 72.576 L1696.26 72.576 L1696.26 27.2059 L1703.76 27.2059 L1703.76 34.2544 Q1706.31 30.082 1709.87 28.0971 Q1713.44 26.1121 1718.34 26.1121 Q1723.28 26.1121 1726.73 28.6237 Q1730.21 31.1352 1731.87 35.9153 Z" fill="#000000" fill-rule="nonzero" fill-opacity="1" /><path clip-path="url(#clip670)" d="M1778.41 62.2867 L1786.96 62.2867 L1786.96 72.576 L1778.41 72.576 L1778.41 62.2867 Z" fill="#000000" fill-rule="nonzero" fill-opacity="1" /><path clip-path="url(#clip670)" d="M1847.69 32.4315 Q1841.69 32.4315 1838.21 37.1306 Q1834.72 41.7891 1834.72 49.9314 Q1834.72 58.0738 1838.17 62.7728 Q1841.65 67.4314 1847.69 67.4314 Q1853.64 67.4314 1857.12 62.7323 Q1860.61 58.0333 1860.61 49.9314 Q1860.61 41.8701 1857.12 37.1711 Q1853.64 32.4315 1847.69 32.4315 M1847.69 26.1121 Q1857.41 26.1121 1862.96 32.4315 Q1868.51 38.7509 1868.51 49.9314 Q1868.51 61.0714 1862.96 67.4314 Q1857.41 73.7508 1847.69 73.7508 Q1837.92 73.7508 1832.37 67.4314 Q1826.86 61.0714 1826.86 49.9314 Q1826.86 38.7509 1832.37 32.4315 Q1837.92 26.1121 1847.69 26.1121 Z" fill="#000000" fill-rule="nonzero" fill-opacity="1" /><path clip-path="url(#clip670)" d="M1903.83 9.54393 L1903.83 15.7418 L1896.7 15.7418 Q1892.69 15.7418 1891.11 17.3622 Q1889.57 18.9825 1889.57 23.1955 L1889.57 27.2059 L1901.85 27.2059 L1901.85 32.9987 L1889.57 32.9987 L1889.57 72.576 L1882.08 72.576 L1882.08 32.9987 L1874.95 32.9987 L1874.95 27.2059 L1882.08 27.2059 L1882.08 24.0462 Q1882.08 16.471 1885.6 13.0277 Q1889.13 9.54393 1896.78 9.54393 L1903.83 9.54393 Z" fill="#000000" fill-rule="nonzero" fill-opacity="1" /><path clip-path="url(#clip670)" d="M1973.02 14.0809 L1973.02 22.0612 Q1968.36 19.8332 1964.23 18.7395 Q1960.1 17.6457 1956.25 17.6457 Q1949.57 17.6457 1945.92 20.2383 Q1942.31 22.8309 1942.31 27.611 Q1942.31 31.6214 1944.7 33.6873 Q1947.14 35.7128 1953.86 36.9686 L1958.8 37.9813 Q1967.96 39.7232 1972.29 44.1387 Q1976.67 48.5136 1976.67 55.8863 Q1976.67 64.6767 1970.75 69.2137 Q1964.88 73.7508 1953.5 73.7508 Q1949.2 73.7508 1944.34 72.7785 Q1939.52 71.8063 1934.33 69.9024 L1934.33 61.4765 Q1939.32 64.2716 1944.1 65.6895 Q1948.88 67.1073 1953.5 67.1073 Q1960.5 67.1073 1964.31 64.3527 Q1968.12 61.598 1968.12 56.4939 Q1968.12 52.0379 1965.36 49.5264 Q1962.65 47.0148 1956.41 45.759 L1951.43 44.7868 Q1942.27 42.9639 1938.18 39.075 Q1934.09 35.1862 1934.09 28.2591 Q1934.09 20.2383 1939.72 15.6203 Q1945.39 11.0023 1955.32 11.0023 Q1959.57 11.0023 1963.99 11.7719 Q1968.4 12.5416 1973.02 14.0809 Z" fill="#000000" fill-rule="nonzero" fill-opacity="1" /><path clip-path="url(#clip670)" d="M1996.31 65.7705 L1996.31 89.8329 L1988.82 89.8329 L1988.82 27.2059 L1996.31 27.2059 L1996.31 34.0924 Q1998.66 30.0415 2002.23 28.0971 Q2005.83 26.1121 2010.82 26.1121 Q2019.08 26.1121 2024.22 32.6746 Q2029.41 39.2371 2029.41 49.9314 Q2029.41 60.6258 2024.22 67.1883 Q2019.08 73.7508 2010.82 73.7508 Q2005.83 73.7508 2002.23 71.8063 Q1998.66 69.8214 1996.31 65.7705 M2021.67 49.9314 Q2021.67 41.7081 2018.27 37.0496 Q2014.91 32.3505 2008.99 32.3505 Q2003.08 32.3505 1999.68 37.0496 Q1996.31 41.7081 1996.31 49.9314 Q1996.31 58.1548 1999.68 62.8538 Q2003.08 67.5124 2008.99 67.5124 Q2014.91 67.5124 2018.27 62.8538 Q2021.67 58.1548 2021.67 49.9314 Z" fill="#000000" fill-rule="nonzero" fill-opacity="1" /><path clip-path="url(#clip670)" d="M2041.76 27.2059 L2049.22 27.2059 L2049.22 72.576 L2041.76 72.576 L2041.76 27.2059 M2041.76 9.54393 L2049.22 9.54393 L2049.22 18.9825 L2041.76 18.9825 L2041.76 9.54393 Z" fill="#000000" fill-rule="nonzero" fill-opacity="1" /><path clip-path="url(#clip670)" d="M2102.53 45.1919 L2102.53 72.576 L2095.07 72.576 L2095.07 45.4349 Q2095.07 38.994 2092.56 35.7938 Q2090.05 32.5936 2085.03 32.5936 Q2078.99 32.5936 2075.51 36.4419 Q2072.02 40.2903 2072.02 46.9338 L2072.02 72.576 L2064.53 72.576 L2064.53 27.2059 L2072.02 27.2059 L2072.02 34.2544 Q2074.7 30.163 2078.3 28.1376 Q2081.95 26.1121 2086.69 26.1121 Q2094.51 26.1121 2098.52 30.9732 Q2102.53 35.7938 2102.53 45.1919 Z" fill="#000000" fill-rule="nonzero" fill-opacity="1" /><path clip-path="url(#clip670)" d="M2146.32 28.5427 L2146.32 35.5912 Q2143.16 33.9709 2139.76 33.1607 Q2136.35 32.3505 2132.71 32.3505 Q2127.16 32.3505 2124.36 34.0519 Q2121.61 35.7533 2121.61 39.156 Q2121.61 41.7486 2123.59 43.2475 Q2125.58 44.7058 2131.57 46.0426 L2134.12 46.6097 Q2142.06 48.3111 2145.39 51.4303 Q2148.75 54.509 2148.75 60.0587 Q2148.75 66.3781 2143.73 70.0644 Q2138.74 73.7508 2129.99 73.7508 Q2126.35 73.7508 2122.38 73.0216 Q2118.45 72.3329 2114.07 70.9151 L2114.07 63.2184 Q2118.2 65.3654 2122.22 66.4591 Q2126.23 67.5124 2130.15 67.5124 Q2135.42 67.5124 2138.26 65.73 Q2141.09 63.9071 2141.09 60.6258 Q2141.09 57.5877 2139.03 55.9673 Q2137 54.3469 2130.07 52.8481 L2127.48 52.2405 Q2120.55 50.7821 2117.48 47.7845 Q2114.4 44.7463 2114.4 39.4801 Q2114.4 33.0797 2118.93 29.5959 Q2123.47 26.1121 2131.82 26.1121 Q2135.95 26.1121 2139.59 26.7198 Q2143.24 27.3274 2146.32 28.5427 Z" fill="#000000" fill-rule="nonzero" fill-opacity="1" /><circle clip-path="url(#clip672)" cx="265.903" cy="1386.4" r="14.4" fill="#009af9" fill-rule="evenodd" fill-opacity="1" stroke="#000000" stroke-opacity="1" stroke-width="3.2"/>
<circle clip-path="url(#clip672)" cx="372.538" cy="1373.94" r="14.4" fill="#009af9" fill-rule="evenodd" fill-opacity="1" stroke="#000000" stroke-opacity="1" stroke-width="3.2"/>
<circle clip-path="url(#clip672)" cx="479.174" cy="1370.66" r="14.4" fill="#009af9" fill-rule="evenodd" fill-opacity="1" stroke="#000000" stroke-opacity="1" stroke-width="3.2"/>
<circle clip-path="url(#clip672)" cx="585.809" cy="1362.71" r="14.4" fill="#009af9" fill-rule="evenodd" fill-opacity="1" stroke="#000000" stroke-opacity="1" stroke-width="3.2"/>
<circle clip-path="url(#clip672)" cx="692.444" cy="1277.34" r="14.4" fill="#009af9" fill-rule="evenodd" fill-opacity="1" stroke="#000000" stroke-opacity="1" stroke-width="3.2"/>
<circle clip-path="url(#clip672)" cx="799.08" cy="160.256" r="14.4" fill="#009af9" fill-rule="evenodd" fill-opacity="1" stroke="#000000" stroke-opacity="1" stroke-width="3.2"/>
<circle clip-path="url(#clip672)" cx="905.715" cy="1108.57" r="14.4" fill="#009af9" fill-rule="evenodd" fill-opacity="1" stroke="#000000" stroke-opacity="1" stroke-width="3.2"/>
<circle clip-path="url(#clip672)" cx="1012.35" cy="301.545" r="14.4" fill="#009af9" fill-rule="evenodd" fill-opacity="1" stroke="#000000" stroke-opacity="1" stroke-width="3.2"/>
<circle clip-path="url(#clip672)" cx="1118.99" cy="364.511" r="14.4" fill="#009af9" fill-rule="evenodd" fill-opacity="1" stroke="#000000" stroke-opacity="1" stroke-width="3.2"/>
<circle clip-path="url(#clip672)" cx="1225.62" cy="415.833" r="14.4" fill="#009af9" fill-rule="evenodd" fill-opacity="1" stroke="#000000" stroke-opacity="1" stroke-width="3.2"/>
<circle clip-path="url(#clip672)" cx="1332.26" cy="459.785" r="14.4" fill="#009af9" fill-rule="evenodd" fill-opacity="1" stroke="#000000" stroke-opacity="1" stroke-width="3.2"/>
<circle clip-path="url(#clip672)" cx="1438.89" cy="499.482" r="14.4" fill="#009af9" fill-rule="evenodd" fill-opacity="1" stroke="#000000" stroke-opacity="1" stroke-width="3.2"/>
<circle clip-path="url(#clip672)" cx="1545.53" cy="534.763" r="14.4" fill="#009af9" fill-rule="evenodd" fill-opacity="1" stroke="#000000" stroke-opacity="1" stroke-width="3.2"/>
<circle clip-path="url(#clip672)" cx="1652.16" cy="565.269" r="14.4" fill="#009af9" fill-rule="evenodd" fill-opacity="1" stroke="#000000" stroke-opacity="1" stroke-width="3.2"/>
<circle clip-path="url(#clip672)" cx="1758.8" cy="593.05" r="14.4" fill="#009af9" fill-rule="evenodd" fill-opacity="1" stroke="#000000" stroke-opacity="1" stroke-width="3.2"/>
<circle clip-path="url(#clip672)" cx="1865.43" cy="618.31" r="14.4" fill="#009af9" fill-rule="evenodd" fill-opacity="1" stroke="#000000" stroke-opacity="1" stroke-width="3.2"/>
<circle clip-path="url(#clip672)" cx="1972.07" cy="641.253" r="14.4" fill="#009af9" fill-rule="evenodd" fill-opacity="1" stroke="#000000" stroke-opacity="1" stroke-width="3.2"/>
<circle clip-path="url(#clip672)" cx="2078.7" cy="661.879" r="14.4" fill="#009af9" fill-rule="evenodd" fill-opacity="1" stroke="#000000" stroke-opacity="1" stroke-width="3.2"/>
<circle clip-path="url(#clip672)" cx="2185.34" cy="681.639" r="14.4" fill="#009af9" fill-rule="evenodd" fill-opacity="1" stroke="#000000" stroke-opacity="1" stroke-width="3.2"/>
<circle clip-path="url(#clip672)" cx="2291.97" cy="699.386" r="14.4" fill="#009af9" fill-rule="evenodd" fill-opacity="1" stroke="#000000" stroke-opacity="1" stroke-width="3.2"/>
</svg>
