<?xml version="1.0" encoding="utf-8"?>
<svg xmlns="http://www.w3.org/2000/svg" xmlns:xlink="http://www.w3.org/1999/xlink" width="600" height="400" viewBox="0 0 2400 1600">
<defs>
  <clipPath id="clip690">
    <rect x="0" y="0" width="2400" height="1600"/>
  </clipPath>
</defs>
<path clip-path="url(#clip690)" d="M0 1600 L2400 1600 L2400 0 L0 0  Z" fill="#ffffff" fill-rule="evenodd" fill-opacity="1"/>
<defs>
  <clipPath id="clip691">
    <rect x="480" y="0" width="1681" height="1600"/>
  </clipPath>
</defs>
<path clip-path="url(#clip690)" d="M219.866 1423.18 L2352.76 1423.18 L2352.76 123.472 L219.866 123.472  Z" fill="#ffffff" fill-rule="evenodd" fill-opacity="1"/>
<defs>
  <clipPath id="clip692">
    <rect x="219" y="123" width="2134" height="1301"/>
  </clipPath>
</defs>
<polyline clip-path="url(#clip692)" style="stroke:#000000; stroke-linecap:round; stroke-linejoin:round; stroke-width:2; stroke-opacity:0.1; fill:none" points="277.713,1423.18 277.713,123.472 "/>
<polyline clip-path="url(#clip692)" style="stroke:#000000; stroke-linecap:round; stroke-linejoin:round; stroke-width:2; stroke-opacity:0.1; fill:none" points="781.382,1423.18 781.382,123.472 "/>
<polyline clip-path="url(#clip692)" style="stroke:#000000; stroke-linecap:round; stroke-linejoin:round; stroke-width:2; stroke-opacity:0.1; fill:none" points="1285.05,1423.18 1285.05,123.472 "/>
<polyline clip-path="url(#clip692)" style="stroke:#000000; stroke-linecap:round; stroke-linejoin:round; stroke-width:2; stroke-opacity:0.1; fill:none" points="1788.72,1423.18 1788.72,123.472 "/>
<polyline clip-path="url(#clip692)" style="stroke:#000000; stroke-linecap:round; stroke-linejoin:round; stroke-width:2; stroke-opacity:0.1; fill:none" points="2292.39,1423.18 2292.39,123.472 "/>
<polyline clip-path="url(#clip692)" style="stroke:#000000; stroke-linecap:round; stroke-linejoin:round; stroke-width:2; stroke-opacity:0.1; fill:none" points="219.866,1196.07 2352.76,1196.07 "/>
<polyline clip-path="url(#clip692)" style="stroke:#000000; stroke-linecap:round; stroke-linejoin:round; stroke-width:2; stroke-opacity:0.1; fill:none" points="219.866,937.113 2352.76,937.113 "/>
<polyline clip-path="url(#clip692)" style="stroke:#000000; stroke-linecap:round; stroke-linejoin:round; stroke-width:2; stroke-opacity:0.1; fill:none" points="219.866,678.161 2352.76,678.161 "/>
<polyline clip-path="url(#clip692)" style="stroke:#000000; stroke-linecap:round; stroke-linejoin:round; stroke-width:2; stroke-opacity:0.1; fill:none" points="219.866,419.209 2352.76,419.209 "/>
<polyline clip-path="url(#clip692)" style="stroke:#000000; stroke-linecap:round; stroke-linejoin:round; stroke-width:2; stroke-opacity:0.1; fill:none" points="219.866,160.256 2352.76,160.256 "/>
<polyline clip-path="url(#clip690)" style="stroke:#000000; stroke-linecap:round; stroke-linejoin:round; stroke-width:4; stroke-opacity:1; fill:none" points="219.866,1423.18 2352.76,1423.18 "/>
<polyline clip-path="url(#clip690)" style="stroke:#000000; stroke-linecap:round; stroke-linejoin:round; stroke-width:4; stroke-opacity:1; fill:none" points="277.713,1423.18 277.713,1404.28 "/>
<polyline clip-path="url(#clip690)" style="stroke:#000000; stroke-linecap:round; stroke-linejoin:round; stroke-width:4; stroke-opacity:1; fill:none" points="781.382,1423.18 781.382,1404.28 "/>
<polyline clip-path="url(#clip690)" style="stroke:#000000; stroke-linecap:round; stroke-linejoin:round; stroke-width:4; stroke-opacity:1; fill:none" points="1285.05,1423.18 1285.05,1404.28 "/>
<polyline clip-path="url(#clip690)" style="stroke:#000000; stroke-linecap:round; stroke-linejoin:round; stroke-width:4; stroke-opacity:1; fill:none" points="1788.72,1423.18 1788.72,1404.28 "/>
<polyline clip-path="url(#clip690)" style="stroke:#000000; stroke-linecap:round; stroke-linejoin:round; stroke-width:4; stroke-opacity:1; fill:none" points="2292.39,1423.18 2292.39,1404.28 "/>
<path clip-path="url(#clip690)" d="M277.713 1454.1 Q274.102 1454.1 272.273 1457.66 Q270.467 1461.2 270.467 1468.33 Q270.467 1475.44 272.273 1479.01 Q274.102 1482.55 277.713 1482.55 Q281.347 1482.55 283.153 1479.01 Q284.981 1475.44 284.981 1468.33 Q284.981 1461.2 283.153 1457.66 Q281.347 1454.1 277.713 1454.1 M277.713 1450.39 Q283.523 1450.39 286.578 1455 Q289.657 1459.58 289.657 1468.33 Q289.657 1477.06 286.578 1481.67 Q283.523 1486.25 277.713 1486.25 Q271.903 1486.25 268.824 1481.67 Q265.768 1477.06 265.768 1468.33 Q265.768 1459.58 268.824 1455 Q271.903 1450.39 277.713 1450.39 Z" fill="#000000" fill-rule="nonzero" fill-opacity="1" /><path clip-path="url(#clip690)" d="M745.075 1481.64 L761.394 1481.64 L761.394 1485.58 L739.45 1485.58 L739.45 1481.64 Q742.112 1478.89 746.695 1474.26 Q751.301 1469.61 752.482 1468.27 Q754.727 1465.74 755.607 1464.01 Q756.51 1462.25 756.51 1460.56 Q756.51 1457.8 754.565 1456.07 Q752.644 1454.33 749.542 1454.33 Q747.343 1454.33 744.889 1455.09 Q742.459 1455.86 739.681 1457.41 L739.681 1452.69 Q742.505 1451.55 744.959 1450.97 Q747.413 1450.39 749.45 1450.39 Q754.82 1450.39 758.014 1453.08 Q761.209 1455.77 761.209 1460.26 Q761.209 1462.39 760.399 1464.31 Q759.612 1466.2 757.505 1468.8 Q756.926 1469.47 753.825 1472.69 Q750.723 1475.88 745.075 1481.64 Z" fill="#000000" fill-rule="nonzero" fill-opacity="1" /><path clip-path="url(#clip690)" d="M781.209 1454.1 Q777.598 1454.1 775.769 1457.66 Q773.963 1461.2 773.963 1468.33 Q773.963 1475.44 775.769 1479.01 Q777.598 1482.55 781.209 1482.55 Q784.843 1482.55 786.648 1479.01 Q788.477 1475.44 788.477 1468.33 Q788.477 1461.2 786.648 1457.66 Q784.843 1454.1 781.209 1454.1 M781.209 1450.39 Q787.019 1450.39 790.074 1455 Q793.153 1459.58 793.153 1468.33 Q793.153 1477.06 790.074 1481.67 Q787.019 1486.25 781.209 1486.25 Q775.399 1486.25 772.32 1481.67 Q769.264 1477.06 769.264 1468.33 Q769.264 1459.58 772.32 1455 Q775.399 1450.39 781.209 1450.39 Z" fill="#000000" fill-rule="nonzero" fill-opacity="1" /><path clip-path="url(#clip690)" d="M811.371 1454.1 Q807.759 1454.1 805.931 1457.66 Q804.125 1461.2 804.125 1468.33 Q804.125 1475.44 805.931 1479.01 Q807.759 1482.55 811.371 1482.55 Q815.005 1482.55 816.81 1479.01 Q818.639 1475.44 818.639 1468.33 Q818.639 1461.2 816.81 1457.66 Q815.005 1454.1 811.371 1454.1 M811.371 1450.39 Q817.181 1450.39 820.236 1455 Q823.315 1459.58 823.315 1468.33 Q823.315 1477.06 820.236 1481.67 Q817.181 1486.25 811.371 1486.25 Q805.56 1486.25 802.482 1481.67 Q799.426 1477.06 799.426 1468.33 Q799.426 1459.58 802.482 1455 Q805.56 1450.39 811.371 1450.39 Z" fill="#000000" fill-rule="nonzero" fill-opacity="1" /><path clip-path="url(#clip690)" d="M1258.14 1455.09 L1246.34 1473.54 L1258.14 1473.54 L1258.14 1455.09 M1256.92 1451.02 L1262.8 1451.02 L1262.8 1473.54 L1267.73 1473.54 L1267.73 1477.43 L1262.8 1477.43 L1262.8 1485.58 L1258.14 1485.58 L1258.14 1477.43 L1242.54 1477.43 L1242.54 1472.92 L1256.92 1451.02 Z" fill="#000000" fill-rule="nonzero" fill-opacity="1" /><path clip-path="url(#clip690)" d="M1285.46 1454.1 Q1281.85 1454.1 1280.02 1457.66 Q1278.21 1461.2 1278.21 1468.33 Q1278.21 1475.44 1280.02 1479.01 Q1281.85 1482.55 1285.46 1482.55 Q1289.09 1482.55 1290.9 1479.01 Q1292.73 1475.44 1292.73 1468.33 Q1292.73 1461.2 1290.9 1457.66 Q1289.09 1454.1 1285.46 1454.1 M1285.46 1450.39 Q1291.27 1450.39 1294.32 1455 Q1297.4 1459.58 1297.4 1468.33 Q1297.4 1477.06 1294.32 1481.67 Q1291.27 1486.25 1285.46 1486.25 Q1279.65 1486.25 1276.57 1481.67 Q1273.51 1477.06 1273.51 1468.33 Q1273.51 1459.58 1276.57 1455 Q1279.65 1450.39 1285.46 1450.39 Z" fill="#000000" fill-rule="nonzero" fill-opacity="1" /><path clip-path="url(#clip690)" d="M1315.62 1454.1 Q1312.01 1454.1 1310.18 1457.66 Q1308.37 1461.2 1308.37 1468.33 Q1308.37 1475.44 1310.18 1479.01 Q1312.01 1482.55 1315.62 1482.55 Q1319.25 1482.55 1321.06 1479.01 Q1322.89 1475.44 1322.89 1468.33 Q1322.89 1461.2 1321.06 1457.66 Q1319.25 1454.1 1315.62 1454.1 M1315.62 1450.39 Q1321.43 1450.39 1324.48 1455 Q1327.56 1459.58 1327.56 1468.33 Q1327.56 1477.06 1324.48 1481.67 Q1321.43 1486.25 1315.62 1486.25 Q1309.81 1486.25 1306.73 1481.67 Q1303.67 1477.06 1303.67 1468.33 Q1303.67 1459.58 1306.73 1455 Q1309.81 1450.39 1315.62 1450.39 Z" fill="#000000" fill-rule="nonzero" fill-opacity="1" /><path clip-path="url(#clip690)" d="M1759.05 1466.44 Q1755.9 1466.44 1754.05 1468.59 Q1752.22 1470.74 1752.22 1474.49 Q1752.22 1478.22 1754.05 1480.39 Q1755.9 1482.55 1759.05 1482.55 Q1762.19 1482.55 1764.02 1480.39 Q1765.87 1478.22 1765.87 1474.49 Q1765.87 1470.74 1764.02 1468.59 Q1762.19 1466.44 1759.05 1466.44 M1768.33 1451.78 L1768.33 1456.04 Q1766.57 1455.21 1764.76 1454.77 Q1762.98 1454.33 1761.22 1454.33 Q1756.59 1454.33 1754.14 1457.45 Q1751.71 1460.58 1751.36 1466.9 Q1752.73 1464.89 1754.79 1463.82 Q1756.85 1462.73 1759.32 1462.73 Q1764.53 1462.73 1767.54 1465.9 Q1770.57 1469.05 1770.57 1474.49 Q1770.57 1479.82 1767.43 1483.03 Q1764.28 1486.25 1759.05 1486.25 Q1753.05 1486.25 1749.88 1481.67 Q1746.71 1477.06 1746.71 1468.33 Q1746.71 1460.14 1750.6 1455.28 Q1754.49 1450.39 1761.04 1450.39 Q1762.8 1450.39 1764.58 1450.74 Q1766.38 1451.09 1768.33 1451.78 Z" fill="#000000" fill-rule="nonzero" fill-opacity="1" /><path clip-path="url(#clip690)" d="M1788.63 1454.1 Q1785.02 1454.1 1783.19 1457.66 Q1781.38 1461.2 1781.38 1468.33 Q1781.38 1475.44 1783.19 1479.01 Q1785.02 1482.55 1788.63 1482.55 Q1792.26 1482.55 1794.07 1479.01 Q1795.9 1475.44 1795.9 1468.33 Q1795.9 1461.2 1794.07 1457.66 Q1792.26 1454.1 1788.63 1454.1 M1788.63 1450.39 Q1794.44 1450.39 1797.49 1455 Q1800.57 1459.58 1800.57 1468.33 Q1800.57 1477.06 1797.49 1481.67 Q1794.44 1486.25 1788.63 1486.25 Q1782.82 1486.25 1779.74 1481.67 Q1776.68 1477.06 1776.68 1468.33 Q1776.68 1459.58 1779.74 1455 Q1782.82 1450.39 1788.63 1450.39 Z" fill="#000000" fill-rule="nonzero" fill-opacity="1" /><path clip-path="url(#clip690)" d="M1818.79 1454.1 Q1815.18 1454.1 1813.35 1457.66 Q1811.55 1461.2 1811.55 1468.33 Q1811.55 1475.44 1813.35 1479.01 Q1815.18 1482.55 1818.79 1482.55 Q1822.43 1482.55 1824.23 1479.01 Q1826.06 1475.44 1826.06 1468.33 Q1826.06 1461.2 1824.23 1457.66 Q1822.43 1454.1 1818.79 1454.1 M1818.79 1450.39 Q1824.6 1450.39 1827.66 1455 Q1830.74 1459.58 1830.74 1468.33 Q1830.74 1477.06 1827.66 1481.67 Q1824.6 1486.25 1818.79 1486.25 Q1812.98 1486.25 1809.9 1481.67 Q1806.85 1477.06 1806.85 1468.33 Q1806.85 1459.58 1809.9 1455 Q1812.98 1450.39 1818.79 1450.39 Z" fill="#000000" fill-rule="nonzero" fill-opacity="1" /><path clip-path="url(#clip690)" d="M2262.18 1469.17 Q2258.85 1469.17 2256.93 1470.95 Q2255.03 1472.73 2255.03 1475.86 Q2255.03 1478.98 2256.93 1480.77 Q2258.85 1482.55 2262.18 1482.55 Q2265.52 1482.55 2267.44 1480.77 Q2269.36 1478.96 2269.36 1475.86 Q2269.36 1472.73 2267.44 1470.95 Q2265.54 1469.17 2262.18 1469.17 M2257.51 1467.18 Q2254.5 1466.44 2252.81 1464.38 Q2251.14 1462.32 2251.14 1459.35 Q2251.14 1455.21 2254.08 1452.8 Q2257.04 1450.39 2262.18 1450.39 Q2267.34 1450.39 2270.28 1452.8 Q2273.22 1455.21 2273.22 1459.35 Q2273.22 1462.32 2271.53 1464.38 Q2269.87 1466.44 2266.88 1467.18 Q2270.26 1467.96 2272.14 1470.26 Q2274.03 1472.55 2274.03 1475.86 Q2274.03 1480.88 2270.96 1483.57 Q2267.9 1486.25 2262.18 1486.25 Q2256.47 1486.25 2253.39 1483.57 Q2250.33 1480.88 2250.33 1475.86 Q2250.33 1472.55 2252.23 1470.26 Q2254.13 1467.96 2257.51 1467.18 M2255.79 1459.79 Q2255.79 1462.48 2257.46 1463.98 Q2259.15 1465.49 2262.18 1465.49 Q2265.19 1465.49 2266.88 1463.98 Q2268.59 1462.48 2268.59 1459.79 Q2268.59 1457.11 2266.88 1455.6 Q2265.19 1454.1 2262.18 1454.1 Q2259.15 1454.1 2257.46 1455.6 Q2255.79 1457.11 2255.79 1459.79 Z" fill="#000000" fill-rule="nonzero" fill-opacity="1" /><path clip-path="url(#clip690)" d="M2292.34 1454.1 Q2288.73 1454.1 2286.91 1457.66 Q2285.1 1461.2 2285.1 1468.33 Q2285.1 1475.44 2286.91 1479.01 Q2288.73 1482.55 2292.34 1482.55 Q2295.98 1482.55 2297.78 1479.01 Q2299.61 1475.44 2299.61 1468.33 Q2299.61 1461.2 2297.78 1457.66 Q2295.98 1454.1 2292.34 1454.1 M2292.34 1450.39 Q2298.15 1450.39 2301.21 1455 Q2304.29 1459.58 2304.29 1468.33 Q2304.29 1477.06 2301.21 1481.67 Q2298.15 1486.25 2292.34 1486.25 Q2286.53 1486.25 2283.46 1481.67 Q2280.4 1477.06 2280.4 1468.33 Q2280.4 1459.58 2283.46 1455 Q2286.53 1450.39 2292.34 1450.39 Z" fill="#000000" fill-rule="nonzero" fill-opacity="1" /><path clip-path="url(#clip690)" d="M2322.51 1454.1 Q2318.9 1454.1 2317.07 1457.66 Q2315.26 1461.2 2315.26 1468.33 Q2315.26 1475.44 2317.07 1479.01 Q2318.9 1482.55 2322.51 1482.55 Q2326.14 1482.55 2327.95 1479.01 Q2329.78 1475.44 2329.78 1468.33 Q2329.78 1461.2 2327.95 1457.66 Q2326.14 1454.1 2322.51 1454.1 M2322.51 1450.39 Q2328.32 1450.39 2331.37 1455 Q2334.45 1459.58 2334.45 1468.33 Q2334.45 1477.06 2331.37 1481.67 Q2328.32 1486.25 2322.51 1486.25 Q2316.7 1486.25 2313.62 1481.67 Q2310.56 1477.06 2310.56 1468.33 Q2310.56 1459.58 2313.62 1455 Q2316.7 1450.39 2322.51 1450.39 Z" fill="#000000" fill-rule="nonzero" fill-opacity="1" /><path clip-path="url(#clip690)" d="M925.089 1520.52 L933.746 1520.52 L954.817 1560.28 L954.817 1520.52 L961.055 1520.52 L961.055 1568.04 L952.398 1568.04 L931.327 1528.29 L931.327 1568.04 L925.089 1568.04 L925.089 1520.52 Z" fill="#000000" fill-rule="nonzero" fill-opacity="1" /><path clip-path="url(#clip690)" d="M1008.13 1536.5 Q1003.42 1536.5 1000.68 1540.19 Q997.945 1543.85 997.945 1550.25 Q997.945 1556.65 1000.65 1560.34 Q1003.39 1564 1008.13 1564 Q1012.81 1564 1015.55 1560.31 Q1018.28 1556.62 1018.28 1550.25 Q1018.28 1543.92 1015.55 1540.23 Q1012.81 1536.5 1008.13 1536.5 M1008.13 1531.54 Q1015.77 1531.54 1020.13 1536.5 Q1024.49 1541.47 1024.49 1550.25 Q1024.49 1559 1020.13 1564 Q1015.77 1568.97 1008.13 1568.97 Q1000.46 1568.97 996.099 1564 Q991.77 1559 991.77 1550.25 Q991.77 1541.47 996.099 1536.5 Q1000.46 1531.54 1008.13 1531.54 Z" fill="#000000" fill-rule="nonzero" fill-opacity="1" /><path clip-path="url(#clip690)" d="M1052.24 1518.52 L1052.24 1523.39 L1046.64 1523.39 Q1043.49 1523.39 1042.25 1524.66 Q1041.04 1525.93 1041.04 1529.24 L1041.04 1532.4 L1050.68 1532.4 L1050.68 1536.95 L1041.04 1536.95 L1041.04 1568.04 L1035.15 1568.04 L1035.15 1536.95 L1029.55 1536.95 L1029.55 1532.4 L1035.15 1532.4 L1035.15 1529.91 Q1035.15 1523.96 1037.92 1521.26 Q1040.69 1518.52 1046.71 1518.52 L1052.24 1518.52 Z" fill="#000000" fill-rule="nonzero" fill-opacity="1" /><path clip-path="url(#clip690)" d="M1077.87 1532.4 L1083.72 1532.4 L1083.72 1568.04 L1077.87 1568.04 L1077.87 1532.4 M1077.87 1518.52 L1083.72 1518.52 L1083.72 1525.93 L1077.87 1525.93 L1077.87 1518.52 Z" fill="#000000" fill-rule="nonzero" fill-opacity="1" /><path clip-path="url(#clip690)" d="M1101.77 1522.27 L1101.77 1532.4 L1113.83 1532.4 L1113.83 1536.95 L1101.77 1536.95 L1101.77 1556.3 Q1101.77 1560.66 1102.95 1561.9 Q1104.16 1563.14 1107.82 1563.14 L1113.83 1563.14 L1113.83 1568.04 L1107.82 1568.04 Q1101.04 1568.04 1098.46 1565.53 Q1095.88 1562.98 1095.88 1556.3 L1095.88 1536.95 L1091.58 1536.95 L1091.58 1532.4 L1095.88 1532.4 L1095.88 1522.27 L1101.77 1522.27 Z" fill="#000000" fill-rule="nonzero" fill-opacity="1" /><path clip-path="url(#clip690)" d="M1152.03 1548.76 L1152.03 1551.62 L1125.1 1551.62 Q1125.48 1557.67 1128.73 1560.85 Q1132.01 1564 1137.83 1564 Q1141.2 1564 1144.36 1563.17 Q1147.54 1562.35 1150.66 1560.69 L1150.66 1566.23 Q1147.51 1567.57 1144.2 1568.27 Q1140.89 1568.97 1137.48 1568.97 Q1128.95 1568.97 1123.95 1564 Q1118.99 1559.04 1118.99 1550.57 Q1118.99 1541.82 1123.7 1536.69 Q1128.44 1531.54 1136.46 1531.54 Q1143.66 1531.54 1147.83 1536.18 Q1152.03 1540.8 1152.03 1548.76 M1146.17 1547.04 Q1146.11 1542.23 1143.46 1539.37 Q1140.85 1536.5 1136.53 1536.5 Q1131.62 1536.5 1128.66 1539.27 Q1125.74 1542.04 1125.29 1547.07 L1146.17 1547.04 Z" fill="#000000" fill-rule="nonzero" fill-opacity="1" /><path clip-path="url(#clip690)" d="M1182.3 1537.87 Q1181.31 1537.3 1180.13 1537.04 Q1178.99 1536.76 1177.58 1536.76 Q1172.62 1536.76 1169.95 1540 Q1167.3 1543.22 1167.3 1549.27 L1167.3 1568.04 L1161.42 1568.04 L1161.42 1532.4 L1167.3 1532.4 L1167.3 1537.93 Q1169.15 1534.69 1172.11 1533.13 Q1175.07 1531.54 1179.3 1531.54 Q1179.91 1531.54 1180.64 1531.63 Q1181.37 1531.7 1182.26 1531.85 L1182.3 1537.87 Z" fill="#000000" fill-rule="nonzero" fill-opacity="1" /><path clip-path="url(#clip690)" d="M1204.64 1550.12 Q1197.54 1550.12 1194.8 1551.75 Q1192.07 1553.37 1192.07 1557.29 Q1192.07 1560.4 1194.1 1562.25 Q1196.17 1564.07 1199.71 1564.07 Q1204.58 1564.07 1207.5 1560.63 Q1210.46 1557.16 1210.46 1551.43 L1210.46 1550.12 L1204.64 1550.12 M1216.32 1547.71 L1216.32 1568.04 L1210.46 1568.04 L1210.46 1562.63 Q1208.46 1565.88 1205.47 1567.44 Q1202.47 1568.97 1198.15 1568.97 Q1192.67 1568.97 1189.43 1565.91 Q1186.21 1562.82 1186.21 1557.67 Q1186.21 1551.65 1190.22 1548.6 Q1194.26 1545.54 1202.25 1545.54 L1210.46 1545.54 L1210.46 1544.97 Q1210.46 1540.93 1207.79 1538.73 Q1205.15 1536.5 1200.34 1536.5 Q1197.29 1536.5 1194.39 1537.23 Q1191.49 1537.97 1188.82 1539.43 L1188.82 1534.02 Q1192.03 1532.78 1195.06 1532.17 Q1198.08 1531.54 1200.95 1531.54 Q1208.68 1531.54 1212.5 1535.55 Q1216.32 1539.56 1216.32 1547.71 Z" fill="#000000" fill-rule="nonzero" fill-opacity="1" /><path clip-path="url(#clip690)" d="M1234.18 1522.27 L1234.18 1532.4 L1246.24 1532.4 L1246.24 1536.95 L1234.18 1536.95 L1234.18 1556.3 Q1234.18 1560.66 1235.35 1561.9 Q1236.56 1563.14 1240.22 1563.14 L1246.24 1563.14 L1246.24 1568.04 L1240.22 1568.04 Q1233.44 1568.04 1230.87 1565.53 Q1228.29 1562.98 1228.29 1556.3 L1228.29 1536.95 L1223.99 1536.95 L1223.99 1532.4 L1228.29 1532.4 L1228.29 1522.27 L1234.18 1522.27 Z" fill="#000000" fill-rule="nonzero" fill-opacity="1" /><path clip-path="url(#clip690)" d="M1253.94 1532.4 L1259.8 1532.4 L1259.8 1568.04 L1253.94 1568.04 L1253.94 1532.4 M1253.94 1518.52 L1259.8 1518.52 L1259.8 1525.93 L1253.94 1525.93 L1253.94 1518.52 Z" fill="#000000" fill-rule="nonzero" fill-opacity="1" /><path clip-path="url(#clip690)" d="M1285.87 1536.5 Q1281.15 1536.5 1278.42 1540.19 Q1275.68 1543.85 1275.68 1550.25 Q1275.68 1556.65 1278.39 1560.34 Q1281.12 1564 1285.87 1564 Q1290.54 1564 1293.28 1560.31 Q1296.02 1556.62 1296.02 1550.25 Q1296.02 1543.92 1293.28 1540.23 Q1290.54 1536.5 1285.87 1536.5 M1285.87 1531.54 Q1293.5 1531.54 1297.86 1536.5 Q1302.23 1541.47 1302.23 1550.25 Q1302.23 1559 1297.86 1564 Q1293.5 1568.97 1285.87 1568.97 Q1278.19 1568.97 1273.83 1564 Q1269.51 1559 1269.51 1550.25 Q1269.51 1541.47 1273.83 1536.5 Q1278.19 1531.54 1285.87 1531.54 Z" fill="#000000" fill-rule="nonzero" fill-opacity="1" /><path clip-path="url(#clip690)" d="M1341.57 1546.53 L1341.57 1568.04 L1335.71 1568.04 L1335.71 1546.72 Q1335.71 1541.66 1333.74 1539.14 Q1331.76 1536.63 1327.82 1536.63 Q1323.07 1536.63 1320.34 1539.65 Q1317.6 1542.68 1317.6 1547.9 L1317.6 1568.04 L1311.71 1568.04 L1311.71 1532.4 L1317.6 1532.4 L1317.6 1537.93 Q1319.7 1534.72 1322.53 1533.13 Q1325.4 1531.54 1329.12 1531.54 Q1335.26 1531.54 1338.41 1535.36 Q1341.57 1539.14 1341.57 1546.53 Z" fill="#000000" fill-rule="nonzero" fill-opacity="1" /><path clip-path="url(#clip690)" d="M1375.97 1533.45 L1375.97 1538.98 Q1373.49 1537.71 1370.82 1537.07 Q1368.14 1536.44 1365.28 1536.44 Q1360.92 1536.44 1358.72 1537.77 Q1356.56 1539.11 1356.56 1541.79 Q1356.56 1543.82 1358.12 1545 Q1359.68 1546.15 1364.39 1547.2 L1366.39 1547.64 Q1372.63 1548.98 1375.24 1551.43 Q1377.88 1553.85 1377.88 1558.21 Q1377.88 1563.17 1373.94 1566.07 Q1370.02 1568.97 1363.15 1568.97 Q1360.28 1568.97 1357.16 1568.39 Q1354.07 1567.85 1350.64 1566.74 L1350.64 1560.69 Q1353.88 1562.38 1357.03 1563.24 Q1360.19 1564.07 1363.27 1564.07 Q1367.41 1564.07 1369.64 1562.66 Q1371.87 1561.23 1371.87 1558.65 Q1371.87 1556.27 1370.24 1554.99 Q1368.65 1553.72 1363.21 1552.54 L1361.17 1552.07 Q1355.73 1550.92 1353.31 1548.56 Q1350.89 1546.18 1350.89 1542.04 Q1350.89 1537.01 1354.46 1534.27 Q1358.02 1531.54 1364.58 1531.54 Q1367.82 1531.54 1370.69 1532.01 Q1373.55 1532.49 1375.97 1533.45 Z" fill="#000000" fill-rule="nonzero" fill-opacity="1" /><path clip-path="url(#clip690)" d="M1397.62 1520.52 L1403.03 1520.52 L1386.48 1574.09 L1381.06 1574.09 L1397.62 1520.52 Z" fill="#000000" fill-rule="nonzero" fill-opacity="1" /><path clip-path="url(#clip690)" d="M1411.11 1562.63 L1421.61 1562.63 L1421.61 1526.38 L1410.19 1528.67 L1410.19 1522.82 L1421.55 1520.52 L1427.98 1520.52 L1427.98 1562.63 L1438.48 1562.63 L1438.48 1568.04 L1411.11 1568.04 L1411.11 1562.63 Z" fill="#000000" fill-rule="nonzero" fill-opacity="1" /><path clip-path="url(#clip690)" d="M1465.22 1524.76 Q1460.25 1524.76 1457.74 1529.66 Q1455.26 1534.53 1455.26 1544.33 Q1455.26 1554.1 1457.74 1559 Q1460.25 1563.87 1465.22 1563.87 Q1470.22 1563.87 1472.7 1559 Q1475.21 1554.1 1475.21 1544.33 Q1475.21 1534.53 1472.7 1529.66 Q1470.22 1524.76 1465.22 1524.76 M1465.22 1519.66 Q1473.21 1519.66 1477.41 1526 Q1481.64 1532.3 1481.64 1544.33 Q1481.64 1556.33 1477.41 1562.66 Q1473.21 1568.97 1465.22 1568.97 Q1457.23 1568.97 1453 1562.66 Q1448.8 1556.33 1448.8 1544.33 Q1448.8 1532.3 1453 1526 Q1457.23 1519.66 1465.22 1519.66 Z" fill="#000000" fill-rule="nonzero" fill-opacity="1" /><path clip-path="url(#clip690)" d="M1506.69 1524.76 Q1501.73 1524.76 1499.21 1529.66 Q1496.73 1534.53 1496.73 1544.33 Q1496.73 1554.1 1499.21 1559 Q1501.73 1563.87 1506.69 1563.87 Q1511.69 1563.87 1514.17 1559 Q1516.69 1554.1 1516.69 1544.33 Q1516.69 1534.53 1514.17 1529.66 Q1511.69 1524.76 1506.69 1524.76 M1506.69 1519.66 Q1514.68 1519.66 1518.88 1526 Q1523.12 1532.3 1523.12 1544.33 Q1523.12 1556.33 1518.88 1562.66 Q1514.68 1568.97 1506.69 1568.97 Q1498.7 1568.97 1494.47 1562.66 Q1490.27 1556.33 1490.27 1544.33 Q1490.27 1532.3 1494.47 1526 Q1498.7 1519.66 1506.69 1519.66 Z" fill="#000000" fill-rule="nonzero" fill-opacity="1" /><path clip-path="url(#clip690)" d="M1548.16 1524.76 Q1543.2 1524.76 1540.68 1529.66 Q1538.2 1534.53 1538.2 1544.33 Q1538.2 1554.1 1540.68 1559 Q1543.2 1563.87 1548.16 1563.87 Q1553.16 1563.87 1555.64 1559 Q1558.16 1554.1 1558.16 1544.33 Q1558.16 1534.53 1555.64 1529.66 Q1553.16 1524.76 1548.16 1524.76 M1548.16 1519.66 Q1556.15 1519.66 1560.35 1526 Q1564.59 1532.3 1564.59 1544.33 Q1564.59 1556.33 1560.35 1562.66 Q1556.15 1568.97 1548.16 1568.97 Q1540.18 1568.97 1535.94 1562.66 Q1531.74 1556.33 1531.74 1544.33 Q1531.74 1532.3 1535.94 1526 Q1540.18 1519.66 1548.16 1519.66 Z" fill="#000000" fill-rule="nonzero" fill-opacity="1" /><path clip-path="url(#clip690)" d="M1589.64 1524.76 Q1584.67 1524.76 1582.16 1529.66 Q1579.67 1534.53 1579.67 1544.33 Q1579.67 1554.1 1582.16 1559 Q1584.67 1563.87 1589.64 1563.87 Q1594.63 1563.87 1597.12 1559 Q1599.63 1554.1 1599.63 1544.33 Q1599.63 1534.53 1597.12 1529.66 Q1594.63 1524.76 1589.64 1524.76 M1589.64 1519.66 Q1597.63 1519.66 1601.83 1526 Q1606.06 1532.3 1606.06 1544.33 Q1606.06 1556.33 1601.83 1562.66 Q1597.63 1568.97 1589.64 1568.97 Q1581.65 1568.97 1577.41 1562.66 Q1573.21 1556.33 1573.21 1544.33 Q1573.21 1532.3 1577.41 1526 Q1581.65 1519.66 1589.64 1519.66 Z" fill="#000000" fill-rule="nonzero" fill-opacity="1" /><path clip-path="url(#clip690)" d="M1631.11 1524.76 Q1626.14 1524.76 1623.63 1529.66 Q1621.15 1534.53 1621.15 1544.33 Q1621.15 1554.1 1623.63 1559 Q1626.14 1563.87 1631.11 1563.87 Q1636.11 1563.87 1638.59 1559 Q1641.1 1554.1 1641.1 1544.33 Q1641.1 1534.53 1638.59 1529.66 Q1636.11 1524.76 1631.11 1524.76 M1631.11 1519.66 Q1639.1 1519.66 1643.3 1526 Q1647.53 1532.3 1647.53 1544.33 Q1647.53 1556.33 1643.3 1562.66 Q1639.1 1568.97 1631.11 1568.97 Q1623.12 1568.97 1618.89 1562.66 Q1614.69 1556.33 1614.69 1544.33 Q1614.69 1532.3 1618.89 1526 Q1623.12 1519.66 1631.11 1519.66 Z" fill="#000000" fill-rule="nonzero" fill-opacity="1" /><polyline clip-path="url(#clip690)" style="stroke:#000000; stroke-linecap:round; stroke-linejoin:round; stroke-width:4; stroke-opacity:1; fill:none" points="219.866,1423.18 219.866,123.472 "/>
<polyline clip-path="url(#clip690)" style="stroke:#000000; stroke-linecap:round; stroke-linejoin:round; stroke-width:4; stroke-opacity:1; fill:none" points="219.866,1196.07 238.764,1196.07 "/>
<polyline clip-path="url(#clip690)" style="stroke:#000000; stroke-linecap:round; stroke-linejoin:round; stroke-width:4; stroke-opacity:1; fill:none" points="219.866,937.113 238.764,937.113 "/>
<polyline clip-path="url(#clip690)" style="stroke:#000000; stroke-linecap:round; stroke-linejoin:round; stroke-width:4; stroke-opacity:1; fill:none" points="219.866,678.161 238.764,678.161 "/>
<polyline clip-path="url(#clip690)" style="stroke:#000000; stroke-linecap:round; stroke-linejoin:round; stroke-width:4; stroke-opacity:1; fill:none" points="219.866,419.209 238.764,419.209 "/>
<polyline clip-path="url(#clip690)" style="stroke:#000000; stroke-linecap:round; stroke-linejoin:round; stroke-width:4; stroke-opacity:1; fill:none" points="219.866,160.256 238.764,160.256 "/>
<path clip-path="url(#clip690)" d="M128.288 1181.86 Q124.677 1181.86 122.848 1185.43 Q121.043 1188.97 121.043 1196.1 Q121.043 1203.21 122.848 1206.77 Q124.677 1210.31 128.288 1210.31 Q131.922 1210.31 133.728 1206.77 Q135.556 1203.21 135.556 1196.1 Q135.556 1188.97 133.728 1185.43 Q131.922 1181.86 128.288 1181.86 M128.288 1178.16 Q134.098 1178.16 137.154 1182.77 Q140.232 1187.35 140.232 1196.1 Q140.232 1204.83 137.154 1209.43 Q134.098 1214.02 128.288 1214.02 Q122.478 1214.02 119.399 1209.43 Q116.343 1204.83 116.343 1196.1 Q116.343 1187.35 119.399 1182.77 Q122.478 1178.16 128.288 1178.16 Z" fill="#000000" fill-rule="nonzero" fill-opacity="1" /><path clip-path="url(#clip690)" d="M148.45 1207.47 L153.334 1207.47 L153.334 1213.35 L148.45 1213.35 L148.45 1207.47 Z" fill="#000000" fill-rule="nonzero" fill-opacity="1" /><path clip-path="url(#clip690)" d="M167.547 1209.41 L183.866 1209.41 L183.866 1213.35 L161.922 1213.35 L161.922 1209.41 Q164.584 1206.66 169.167 1202.03 Q173.774 1197.37 174.954 1196.03 Q177.2 1193.51 178.079 1191.77 Q178.982 1190.01 178.982 1188.32 Q178.982 1185.57 177.038 1183.83 Q175.116 1182.1 172.014 1182.1 Q169.815 1182.1 167.362 1182.86 Q164.931 1183.62 162.153 1185.17 L162.153 1180.45 Q164.977 1179.32 167.431 1178.74 Q169.885 1178.16 171.922 1178.16 Q177.292 1178.16 180.487 1180.85 Q183.681 1183.53 183.681 1188.02 Q183.681 1190.15 182.871 1192.07 Q182.084 1193.97 179.977 1196.56 Q179.399 1197.23 176.297 1200.45 Q173.195 1203.65 167.547 1209.41 Z" fill="#000000" fill-rule="nonzero" fill-opacity="1" /><path clip-path="url(#clip690)" d="M126.205 922.912 Q122.593 922.912 120.765 926.477 Q118.959 930.018 118.959 937.148 Q118.959 944.255 120.765 947.819 Q122.593 951.361 126.205 951.361 Q129.839 951.361 131.644 947.819 Q133.473 944.255 133.473 937.148 Q133.473 930.018 131.644 926.477 Q129.839 922.912 126.205 922.912 M126.205 919.208 Q132.015 919.208 135.07 923.815 Q138.149 928.398 138.149 937.148 Q138.149 945.875 135.07 950.481 Q132.015 955.065 126.205 955.065 Q120.394 955.065 117.316 950.481 Q114.26 945.875 114.26 937.148 Q114.26 928.398 117.316 923.815 Q120.394 919.208 126.205 919.208 Z" fill="#000000" fill-rule="nonzero" fill-opacity="1" /><path clip-path="url(#clip690)" d="M146.366 948.514 L151.251 948.514 L151.251 954.393 L146.366 954.393 L146.366 948.514 Z" fill="#000000" fill-rule="nonzero" fill-opacity="1" /><path clip-path="url(#clip690)" d="M174.283 923.907 L162.477 942.356 L174.283 942.356 L174.283 923.907 M173.056 919.833 L178.936 919.833 L178.936 942.356 L183.866 942.356 L183.866 946.245 L178.936 946.245 L178.936 954.393 L174.283 954.393 L174.283 946.245 L158.681 946.245 L158.681 941.731 L173.056 919.833 Z" fill="#000000" fill-rule="nonzero" fill-opacity="1" /><path clip-path="url(#clip690)" d="M126.529 663.96 Q122.918 663.96 121.089 667.524 Q119.283 671.066 119.283 678.196 Q119.283 685.302 121.089 688.867 Q122.918 692.409 126.529 692.409 Q130.163 692.409 131.968 688.867 Q133.797 685.302 133.797 678.196 Q133.797 671.066 131.968 667.524 Q130.163 663.96 126.529 663.96 M126.529 660.256 Q132.339 660.256 135.394 664.862 Q138.473 669.446 138.473 678.196 Q138.473 686.923 135.394 691.529 Q132.339 696.112 126.529 696.112 Q120.718 696.112 117.64 691.529 Q114.584 686.923 114.584 678.196 Q114.584 669.446 117.64 664.862 Q120.718 660.256 126.529 660.256 Z" fill="#000000" fill-rule="nonzero" fill-opacity="1" /><path clip-path="url(#clip690)" d="M146.691 689.561 L151.575 689.561 L151.575 695.441 L146.691 695.441 L146.691 689.561 Z" fill="#000000" fill-rule="nonzero" fill-opacity="1" /><path clip-path="url(#clip690)" d="M172.339 676.298 Q169.19 676.298 167.339 678.45 Q165.51 680.603 165.51 684.353 Q165.51 688.08 167.339 690.256 Q169.19 692.409 172.339 692.409 Q175.487 692.409 177.315 690.256 Q179.167 688.08 179.167 684.353 Q179.167 680.603 177.315 678.45 Q175.487 676.298 172.339 676.298 M181.621 661.645 L181.621 665.904 Q179.862 665.071 178.056 664.631 Q176.274 664.191 174.514 664.191 Q169.885 664.191 167.431 667.316 Q165.001 670.441 164.653 676.761 Q166.019 674.747 168.079 673.682 Q170.139 672.594 172.616 672.594 Q177.825 672.594 180.834 675.765 Q183.866 678.913 183.866 684.353 Q183.866 689.677 180.718 692.895 Q177.57 696.112 172.339 696.112 Q166.343 696.112 163.172 691.529 Q160.001 686.923 160.001 678.196 Q160.001 670.001 163.89 665.14 Q167.778 660.256 174.329 660.256 Q176.089 660.256 177.871 660.603 Q179.676 660.95 181.621 661.645 Z" fill="#000000" fill-rule="nonzero" fill-opacity="1" /><path clip-path="url(#clip690)" d="M126.783 405.007 Q123.172 405.007 121.343 408.572 Q119.538 412.114 119.538 419.243 Q119.538 426.35 121.343 429.915 Q123.172 433.456 126.783 433.456 Q130.417 433.456 132.223 429.915 Q134.052 426.35 134.052 419.243 Q134.052 412.114 132.223 408.572 Q130.417 405.007 126.783 405.007 M126.783 401.304 Q132.593 401.304 135.649 405.91 Q138.728 410.493 138.728 419.243 Q138.728 427.97 135.649 432.577 Q132.593 437.16 126.783 437.16 Q120.973 437.16 117.894 432.577 Q114.839 427.97 114.839 419.243 Q114.839 410.493 117.894 405.91 Q120.973 401.304 126.783 401.304 Z" fill="#000000" fill-rule="nonzero" fill-opacity="1" /><path clip-path="url(#clip690)" d="M146.945 430.609 L151.829 430.609 L151.829 436.489 L146.945 436.489 L146.945 430.609 Z" fill="#000000" fill-rule="nonzero" fill-opacity="1" /><path clip-path="url(#clip690)" d="M172.014 420.077 Q168.681 420.077 166.76 421.859 Q164.862 423.641 164.862 426.766 Q164.862 429.891 166.76 431.674 Q168.681 433.456 172.014 433.456 Q175.348 433.456 177.269 431.674 Q179.19 429.868 179.19 426.766 Q179.19 423.641 177.269 421.859 Q175.371 420.077 172.014 420.077 M167.339 418.086 Q164.329 417.345 162.64 415.285 Q160.973 413.225 160.973 410.262 Q160.973 406.118 163.913 403.711 Q166.876 401.304 172.014 401.304 Q177.176 401.304 180.116 403.711 Q183.056 406.118 183.056 410.262 Q183.056 413.225 181.366 415.285 Q179.7 417.345 176.714 418.086 Q180.093 418.873 181.968 421.165 Q183.866 423.456 183.866 426.766 Q183.866 431.79 180.788 434.475 Q177.732 437.16 172.014 437.16 Q166.297 437.16 163.218 434.475 Q160.163 431.79 160.163 426.766 Q160.163 423.456 162.061 421.165 Q163.959 418.873 167.339 418.086 M165.626 410.702 Q165.626 413.387 167.292 414.892 Q168.982 416.396 172.014 416.396 Q175.024 416.396 176.714 414.892 Q178.426 413.387 178.426 410.702 Q178.426 408.017 176.714 406.512 Q175.024 405.007 172.014 405.007 Q168.982 405.007 167.292 406.512 Q165.626 408.017 165.626 410.702 Z" fill="#000000" fill-rule="nonzero" fill-opacity="1" /><path clip-path="url(#clip690)" d="M117.501 173.601 L125.14 173.601 L125.14 147.236 L116.83 148.902 L116.83 144.643 L125.093 142.976 L129.769 142.976 L129.769 173.601 L137.408 173.601 L137.408 177.536 L117.501 177.536 L117.501 173.601 Z" fill="#000000" fill-rule="nonzero" fill-opacity="1" /><path clip-path="url(#clip690)" d="M146.853 171.657 L151.737 171.657 L151.737 177.536 L146.853 177.536 L146.853 171.657 Z" fill="#000000" fill-rule="nonzero" fill-opacity="1" /><path clip-path="url(#clip690)" d="M171.922 146.055 Q168.311 146.055 166.482 149.62 Q164.677 153.161 164.677 160.291 Q164.677 167.397 166.482 170.962 Q168.311 174.504 171.922 174.504 Q175.556 174.504 177.362 170.962 Q179.19 167.397 179.19 160.291 Q179.19 153.161 177.362 149.62 Q175.556 146.055 171.922 146.055 M171.922 142.351 Q177.732 142.351 180.788 146.958 Q183.866 151.541 183.866 160.291 Q183.866 169.018 180.788 173.624 Q177.732 178.208 171.922 178.208 Q166.112 178.208 163.033 173.624 Q159.978 169.018 159.978 160.291 Q159.978 151.541 163.033 146.958 Q166.112 142.351 171.922 142.351 Z" fill="#000000" fill-rule="nonzero" fill-opacity="1" /><path clip-path="url(#clip690)" d="M22.818 946.903 L46.4666 955.624 L46.4666 938.15 L22.818 946.903 M16.4842 950.531 L16.4842 943.243 L64.0042 925.132 L64.0042 931.816 L51.8138 936.145 L51.8138 957.565 L64.0042 961.894 L64.0042 968.674 L16.4842 950.531 Z" fill="#000000" fill-rule="nonzero" fill-opacity="1" /><path clip-path="url(#clip690)" d="M28.3562 926.469 L28.3562 920.262 L58.275 909.122 L28.3562 897.982 L28.3562 891.776 L64.0042 905.144 L64.0042 913.101 L28.3562 926.469 Z" fill="#000000" fill-rule="nonzero" fill-opacity="1" /><path clip-path="url(#clip690)" d="M55.9197 887.925 L55.9197 881.209 L64.0042 881.209 L64.0042 887.925 L55.9197 887.925 Z" fill="#000000" fill-rule="nonzero" fill-opacity="1" /><path clip-path="url(#clip690)" d="M14.1925 839.768 L79.3773 839.768 L79.3773 845.179 L14.1925 845.179 L14.1925 839.768 Z" fill="#000000" fill-rule="nonzero" fill-opacity="1" /><path clip-path="url(#clip690)" d="M16.4842 825.095 L16.4842 815.515 L48.8219 803.388 L16.4842 791.198 L16.4842 781.617 L64.0042 781.617 L64.0042 787.888 L22.277 787.888 L54.8694 800.142 L54.8694 806.603 L22.277 818.857 L64.0042 818.857 L64.0042 825.095 L16.4842 825.095 Z" fill="#000000" fill-rule="nonzero" fill-opacity="1" /><path clip-path="url(#clip690)" d="M14.1925 761.565 L79.3773 761.565 L79.3773 766.976 L14.1925 766.976 L14.1925 761.565 Z" fill="#000000" fill-rule="nonzero" fill-opacity="1" /><path clip-path="url(#clip690)" d="M14.5426 733.079 Q21.8632 737.344 29.0246 739.413 Q36.186 741.482 43.5384 741.482 Q50.8908 741.482 58.1159 739.413 Q65.3091 737.312 72.5979 733.079 L72.5979 738.171 Q65.1182 742.946 57.8931 745.333 Q50.668 747.688 43.5384 747.688 Q36.4406 747.688 29.2474 745.333 Q22.0542 742.977 14.5426 738.171 L14.5426 733.079 Z" fill="#000000" fill-rule="nonzero" fill-opacity="1" /><path clip-path="url(#clip690)" d="M22.818 705.579 L46.4666 714.3 L46.4666 696.826 L22.818 705.579 M16.4842 709.207 L16.4842 701.919 L64.0042 683.808 L64.0042 690.492 L51.8138 694.821 L51.8138 716.242 L64.0042 720.57 L64.0042 727.35 L16.4842 709.207 Z" fill="#000000" fill-rule="nonzero" fill-opacity="1" /><path clip-path="url(#clip690)" d="M16.4842 666.716 L16.4842 661.305 L70.0516 677.856 L70.0516 683.267 L16.4842 666.716 Z" fill="#000000" fill-rule="nonzero" fill-opacity="1" /><path clip-path="url(#clip690)" d="M35.1993 627.408 Q31.2526 625.212 29.3747 622.156 Q27.4968 619.101 27.4968 614.963 Q27.4968 609.393 31.4117 606.369 Q35.2948 603.346 42.4881 603.346 L64.0042 603.346 L64.0042 609.234 L42.679 609.234 Q37.5546 609.234 35.072 611.048 Q32.5894 612.862 32.5894 616.586 Q32.5894 621.138 35.6131 623.78 Q38.6368 626.421 43.8567 626.421 L64.0042 626.421 L64.0042 632.31 L42.679 632.31 Q37.5228 632.31 35.072 634.124 Q32.5894 635.938 32.5894 639.726 Q32.5894 644.214 35.6449 646.855 Q38.6686 649.497 43.8567 649.497 L64.0042 649.497 L64.0042 655.385 L28.3562 655.385 L28.3562 649.497 L33.8944 649.497 Q30.616 647.492 29.0564 644.691 Q27.4968 641.89 27.4968 638.039 Q27.4968 634.156 29.4702 631.45 Q31.4436 628.713 35.1993 627.408 Z" fill="#000000" fill-rule="nonzero" fill-opacity="1" /><path clip-path="url(#clip690)" d="M14.5426 592.588 L14.5426 587.495 Q22.0542 582.721 29.2474 580.366 Q36.4406 577.978 43.5384 577.978 Q50.668 577.978 57.8931 580.366 Q65.1182 582.721 72.5979 587.495 L72.5979 592.588 Q65.3091 588.354 58.1159 586.286 Q50.8908 584.185 43.5384 584.185 Q36.186 584.185 29.0246 586.286 Q21.8632 588.354 14.5426 592.588 Z" fill="#000000" fill-rule="nonzero" fill-opacity="1" /><path clip-path="url(#clip690)" d="M433.373 20.1573 L422.273 50.2555 L444.513 50.2555 L433.373 20.1573 M428.755 12.096 L438.031 12.096 L461.081 72.576 L452.574 72.576 L447.065 57.061 L419.802 57.061 L414.293 72.576 L405.665 72.576 L428.755 12.096 Z" fill="#000000" fill-rule="nonzero" fill-opacity="1" /><path clip-path="url(#clip690)" d="M459.38 27.2059 L467.279 27.2059 L481.457 65.2844 L495.635 27.2059 L503.535 27.2059 L486.521 72.576 L476.394 72.576 L459.38 27.2059 Z" fill="#000000" fill-rule="nonzero" fill-opacity="1" /><path clip-path="url(#clip690)" d="M552.632 48.0275 L552.632 51.6733 L518.361 51.6733 Q518.847 59.3701 522.979 63.421 Q527.151 67.4314 534.565 67.4314 Q538.858 67.4314 542.869 66.3781 Q546.92 65.3249 550.89 63.2184 L550.89 70.267 Q546.879 71.9684 542.666 72.8596 Q538.453 73.7508 534.119 73.7508 Q523.263 73.7508 516.903 67.4314 Q510.583 61.1119 510.583 50.3365 Q510.583 39.1965 516.579 32.6746 Q522.614 26.1121 532.823 26.1121 Q541.978 26.1121 547.284 32.0264 Q552.632 37.9003 552.632 48.0275 M545.178 45.84 Q545.097 39.7232 541.735 36.0774 Q538.413 32.4315 532.904 32.4315 Q526.665 32.4315 522.898 35.9558 Q519.171 39.4801 518.604 45.8805 L545.178 45.84 Z" fill="#000000" fill-rule="nonzero" fill-opacity="1" /><path clip-path="url(#clip690)" d="M591.156 34.1734 Q589.9 33.4443 588.401 33.1202 Q586.943 32.7556 585.16 32.7556 Q578.841 32.7556 575.438 36.8875 Q572.076 40.9789 572.076 48.6757 L572.076 72.576 L564.582 72.576 L564.582 27.2059 L572.076 27.2059 L572.076 34.2544 Q574.425 30.1225 578.193 28.1376 Q581.96 26.1121 587.348 26.1121 Q588.117 26.1121 589.049 26.2337 Q589.981 26.3147 591.115 26.5172 L591.156 34.1734 Z" fill="#000000" fill-rule="nonzero" fill-opacity="1" /><path clip-path="url(#clip690)" d="M619.593 49.7694 Q610.559 49.7694 607.076 51.8354 Q603.592 53.9013 603.592 58.8839 Q603.592 62.8538 606.185 65.2034 Q608.818 67.5124 613.314 67.5124 Q619.512 67.5124 623.239 63.1374 Q627.006 58.7219 627.006 51.4303 L627.006 49.7694 L619.593 49.7694 M634.46 46.6907 L634.46 72.576 L627.006 72.576 L627.006 65.6895 Q624.454 69.8214 620.646 71.8063 Q616.838 73.7508 611.329 73.7508 Q604.362 73.7508 600.23 69.8619 Q596.138 65.9325 596.138 59.3701 Q596.138 51.7138 601.242 47.825 Q606.387 43.9361 616.555 43.9361 L627.006 43.9361 L627.006 43.2069 Q627.006 38.0623 623.603 35.2672 Q620.241 32.4315 614.124 32.4315 Q610.235 32.4315 606.549 33.3632 Q602.863 34.295 599.46 36.1584 L599.46 29.2718 Q603.551 27.692 607.4 26.9223 Q611.248 26.1121 614.894 26.1121 Q624.738 26.1121 629.599 31.2163 Q634.46 36.3204 634.46 46.6907 Z" fill="#000000" fill-rule="nonzero" fill-opacity="1" /><path clip-path="url(#clip690)" d="M679.668 49.3643 Q679.668 41.2625 676.306 36.8065 Q672.984 32.3505 666.948 32.3505 Q660.953 32.3505 657.59 36.8065 Q654.269 41.2625 654.269 49.3643 Q654.269 57.4256 657.59 61.8816 Q660.953 66.3376 666.948 66.3376 Q672.984 66.3376 676.306 61.8816 Q679.668 57.4256 679.668 49.3643 M687.122 66.9452 Q687.122 78.5308 681.977 84.1616 Q676.832 89.8329 666.219 89.8329 Q662.29 89.8329 658.806 89.2252 Q655.322 88.6581 652.041 87.4428 L652.041 80.1917 Q655.322 81.9741 658.522 82.8248 Q661.722 83.6755 665.044 83.6755 Q672.376 83.6755 676.022 79.8271 Q679.668 76.0193 679.668 68.282 L679.668 64.5957 Q677.359 68.6061 673.754 70.5911 Q670.148 72.576 665.125 72.576 Q656.78 72.576 651.676 66.2161 Q646.572 59.8562 646.572 49.3643 Q646.572 38.832 651.676 32.472 Q656.78 26.1121 665.125 26.1121 Q670.148 26.1121 673.754 28.0971 Q677.359 30.082 679.668 34.0924 L679.668 27.2059 L687.122 27.2059 L687.122 66.9452 Z" fill="#000000" fill-rule="nonzero" fill-opacity="1" /><path clip-path="url(#clip690)" d="M741.282 48.0275 L741.282 51.6733 L707.012 51.6733 Q707.498 59.3701 711.63 63.421 Q715.802 67.4314 723.215 67.4314 Q727.509 67.4314 731.519 66.3781 Q735.57 65.3249 739.54 63.2184 L739.54 70.267 Q735.53 71.9684 731.317 72.8596 Q727.104 73.7508 722.77 73.7508 Q711.913 73.7508 705.553 67.4314 Q699.234 61.1119 699.234 50.3365 Q699.234 39.1965 705.229 32.6746 Q711.265 26.1121 721.473 26.1121 Q730.628 26.1121 735.935 32.0264 Q741.282 37.9003 741.282 48.0275 M733.829 45.84 Q733.747 39.7232 730.385 36.0774 Q727.064 32.4315 721.554 32.4315 Q715.316 32.4315 711.549 35.9558 Q707.822 39.4801 707.255 45.8805 L733.829 45.84 Z" fill="#000000" fill-rule="nonzero" fill-opacity="1" /><path clip-path="url(#clip690)" d="M780.211 12.096 L792.405 12.096 L807.839 53.2532 L823.353 12.096 L835.547 12.096 L835.547 72.576 L827.566 72.576 L827.566 19.4686 L811.97 60.9499 L803.747 60.9499 L788.151 19.4686 L788.151 72.576 L780.211 72.576 L780.211 12.096 Z" fill="#000000" fill-rule="nonzero" fill-opacity="1" /><path clip-path="url(#clip690)" d="M872.086 49.7694 Q863.052 49.7694 859.569 51.8354 Q856.085 53.9013 856.085 58.8839 Q856.085 62.8538 858.677 65.2034 Q861.31 67.5124 865.807 67.5124 Q872.005 67.5124 875.732 63.1374 Q879.499 58.7219 879.499 51.4303 L879.499 49.7694 L872.086 49.7694 M886.953 46.6907 L886.953 72.576 L879.499 72.576 L879.499 65.6895 Q876.947 69.8214 873.139 71.8063 Q869.331 73.7508 863.822 73.7508 Q856.854 73.7508 852.723 69.8619 Q848.631 65.9325 848.631 59.3701 Q848.631 51.7138 853.735 47.825 Q858.88 43.9361 869.048 43.9361 L879.499 43.9361 L879.499 43.2069 Q879.499 38.0623 876.096 35.2672 Q872.734 32.4315 866.617 32.4315 Q862.728 32.4315 859.042 33.3632 Q855.356 34.295 851.953 36.1584 L851.953 29.2718 Q856.044 27.692 859.893 26.9223 Q863.741 26.1121 867.387 26.1121 Q877.231 26.1121 882.092 31.2163 Q886.953 36.3204 886.953 46.6907 Z" fill="#000000" fill-rule="nonzero" fill-opacity="1" /><path clip-path="url(#clip690)" d="M932.161 49.3643 Q932.161 41.2625 928.799 36.8065 Q925.477 32.3505 919.441 32.3505 Q913.446 32.3505 910.083 36.8065 Q906.762 41.2625 906.762 49.3643 Q906.762 57.4256 910.083 61.8816 Q913.446 66.3376 919.441 66.3376 Q925.477 66.3376 928.799 61.8816 Q932.161 57.4256 932.161 49.3643 M939.614 66.9452 Q939.614 78.5308 934.47 84.1616 Q929.325 89.8329 918.712 89.8329 Q914.782 89.8329 911.299 89.2252 Q907.815 88.6581 904.534 87.4428 L904.534 80.1917 Q907.815 81.9741 911.015 82.8248 Q914.215 83.6755 917.537 83.6755 Q924.869 83.6755 928.515 79.8271 Q932.161 76.0193 932.161 68.282 L932.161 64.5957 Q929.852 68.6061 926.246 70.5911 Q922.641 72.576 917.618 72.576 Q909.273 72.576 904.169 66.2161 Q899.065 59.8562 899.065 49.3643 Q899.065 38.832 904.169 32.472 Q909.273 26.1121 917.618 26.1121 Q922.641 26.1121 926.246 28.0971 Q929.852 30.082 932.161 34.0924 L932.161 27.2059 L939.614 27.2059 L939.614 66.9452 Z" fill="#000000" fill-rule="nonzero" fill-opacity="1" /><path clip-path="url(#clip690)" d="M992.681 45.1919 L992.681 72.576 L985.228 72.576 L985.228 45.4349 Q985.228 38.994 982.716 35.7938 Q980.205 32.5936 975.181 32.5936 Q969.146 32.5936 965.662 36.4419 Q962.178 40.2903 962.178 46.9338 L962.178 72.576 L954.684 72.576 L954.684 27.2059 L962.178 27.2059 L962.178 34.2544 Q964.852 30.163 968.457 28.1376 Q972.103 26.1121 976.842 26.1121 Q984.661 26.1121 988.671 30.9732 Q992.681 35.7938 992.681 45.1919 Z" fill="#000000" fill-rule="nonzero" fill-opacity="1" /><path clip-path="url(#clip690)" d="M1046.36 48.0275 L1046.36 51.6733 L1012.09 51.6733 Q1012.57 59.3701 1016.7 63.421 Q1020.88 67.4314 1028.29 67.4314 Q1032.58 67.4314 1036.59 66.3781 Q1040.64 65.3249 1044.61 63.2184 L1044.61 70.267 Q1040.6 71.9684 1036.39 72.8596 Q1032.18 73.7508 1027.84 73.7508 Q1016.99 73.7508 1010.63 67.4314 Q1004.31 61.1119 1004.31 50.3365 Q1004.31 39.1965 1010.3 32.6746 Q1016.34 26.1121 1026.55 26.1121 Q1035.7 26.1121 1041.01 32.0264 Q1046.36 37.9003 1046.36 48.0275 M1038.9 45.84 Q1038.82 39.7232 1035.46 36.0774 Q1032.14 32.4315 1026.63 32.4315 Q1020.39 32.4315 1016.62 35.9558 Q1012.9 39.4801 1012.33 45.8805 L1038.9 45.84 Z" fill="#000000" fill-rule="nonzero" fill-opacity="1" /><path clip-path="url(#clip690)" d="M1065.96 14.324 L1065.96 27.2059 L1081.32 27.2059 L1081.32 32.9987 L1065.96 32.9987 L1065.96 57.6282 Q1065.96 63.1779 1067.46 64.7578 Q1069 66.3376 1073.66 66.3376 L1081.32 66.3376 L1081.32 72.576 L1073.66 72.576 Q1065.03 72.576 1061.75 69.3758 Q1058.47 66.1351 1058.47 57.6282 L1058.47 32.9987 L1053 32.9987 L1053 27.2059 L1058.47 27.2059 L1058.47 14.324 L1065.96 14.324 Z" fill="#000000" fill-rule="nonzero" fill-opacity="1" /><path clip-path="url(#clip690)" d="M1091.12 27.2059 L1098.57 27.2059 L1098.57 72.576 L1091.12 72.576 L1091.12 27.2059 M1091.12 9.54393 L1098.57 9.54393 L1098.57 18.9825 L1091.12 18.9825 L1091.12 9.54393 Z" fill="#000000" fill-rule="nonzero" fill-opacity="1" /><path clip-path="url(#clip690)" d="M1143.09 28.5427 L1143.09 35.5912 Q1139.93 33.9709 1136.53 33.1607 Q1133.13 32.3505 1129.48 32.3505 Q1123.93 32.3505 1121.14 34.0519 Q1118.38 35.7533 1118.38 39.156 Q1118.38 41.7486 1120.37 43.2475 Q1122.35 44.7058 1128.35 46.0426 L1130.9 46.6097 Q1138.84 48.3111 1142.16 51.4303 Q1145.52 54.509 1145.52 60.0587 Q1145.52 66.3781 1140.5 70.0644 Q1135.52 73.7508 1126.77 73.7508 Q1123.12 73.7508 1119.15 73.0216 Q1115.22 72.3329 1110.85 70.9151 L1110.85 63.2184 Q1114.98 65.3654 1118.99 66.4591 Q1123 67.5124 1126.93 67.5124 Q1132.19 67.5124 1135.03 65.73 Q1137.87 63.9071 1137.87 60.6258 Q1137.87 57.5877 1135.8 55.9673 Q1133.77 54.3469 1126.85 52.8481 L1124.25 52.2405 Q1117.33 50.7821 1114.25 47.7845 Q1111.17 44.7463 1111.17 39.4801 Q1111.17 33.0797 1115.71 29.5959 Q1120.24 26.1121 1128.59 26.1121 Q1132.72 26.1121 1136.37 26.7198 Q1140.01 27.3274 1143.09 28.5427 Z" fill="#000000" fill-rule="nonzero" fill-opacity="1" /><path clip-path="url(#clip690)" d="M1178.01 49.7694 Q1168.98 49.7694 1165.49 51.8354 Q1162.01 53.9013 1162.01 58.8839 Q1162.01 62.8538 1164.6 65.2034 Q1167.23 67.5124 1171.73 67.5124 Q1177.93 67.5124 1181.66 63.1374 Q1185.42 58.7219 1185.42 51.4303 L1185.42 49.7694 L1178.01 49.7694 M1192.88 46.6907 L1192.88 72.576 L1185.42 72.576 L1185.42 65.6895 Q1182.87 69.8214 1179.06 71.8063 Q1175.26 73.7508 1169.75 73.7508 Q1162.78 73.7508 1158.65 69.8619 Q1154.56 65.9325 1154.56 59.3701 Q1154.56 51.7138 1159.66 47.825 Q1164.8 43.9361 1174.97 43.9361 L1185.42 43.9361 L1185.42 43.2069 Q1185.42 38.0623 1182.02 35.2672 Q1178.66 32.4315 1172.54 32.4315 Q1168.65 32.4315 1164.97 33.3632 Q1161.28 34.295 1157.88 36.1584 L1157.88 29.2718 Q1161.97 27.692 1165.82 26.9223 Q1169.67 26.1121 1173.31 26.1121 Q1183.15 26.1121 1188.02 31.2163 Q1192.88 36.3204 1192.88 46.6907 Z" fill="#000000" fill-rule="nonzero" fill-opacity="1" /><path clip-path="url(#clip690)" d="M1215.6 14.324 L1215.6 27.2059 L1230.96 27.2059 L1230.96 32.9987 L1215.6 32.9987 L1215.6 57.6282 Q1215.6 63.1779 1217.1 64.7578 Q1218.64 66.3376 1223.3 66.3376 L1230.96 66.3376 L1230.96 72.576 L1223.3 72.576 Q1214.67 72.576 1211.39 69.3758 Q1208.11 66.1351 1208.11 57.6282 L1208.11 32.9987 L1202.64 32.9987 L1202.64 27.2059 L1208.11 27.2059 L1208.11 14.324 L1215.6 14.324 Z" fill="#000000" fill-rule="nonzero" fill-opacity="1" /><path clip-path="url(#clip690)" d="M1240.76 27.2059 L1248.21 27.2059 L1248.21 72.576 L1240.76 72.576 L1240.76 27.2059 M1240.76 9.54393 L1248.21 9.54393 L1248.21 18.9825 L1240.76 18.9825 L1240.76 9.54393 Z" fill="#000000" fill-rule="nonzero" fill-opacity="1" /><path clip-path="url(#clip690)" d="M1281.39 32.4315 Q1275.39 32.4315 1271.91 37.1306 Q1268.43 41.7891 1268.43 49.9314 Q1268.43 58.0738 1271.87 62.7728 Q1275.35 67.4314 1281.39 67.4314 Q1287.34 67.4314 1290.83 62.7323 Q1294.31 58.0333 1294.31 49.9314 Q1294.31 41.8701 1290.83 37.1711 Q1287.34 32.4315 1281.39 32.4315 M1281.39 26.1121 Q1291.11 26.1121 1296.66 32.4315 Q1302.21 38.7509 1302.21 49.9314 Q1302.21 61.0714 1296.66 67.4314 Q1291.11 73.7508 1281.39 73.7508 Q1271.63 73.7508 1266.08 67.4314 Q1260.57 61.0714 1260.57 49.9314 Q1260.57 38.7509 1266.08 32.4315 Q1271.63 26.1121 1281.39 26.1121 Z" fill="#000000" fill-rule="nonzero" fill-opacity="1" /><path clip-path="url(#clip690)" d="M1352.28 45.1919 L1352.28 72.576 L1344.83 72.576 L1344.83 45.4349 Q1344.83 38.994 1342.31 35.7938 Q1339.8 32.5936 1334.78 32.5936 Q1328.74 32.5936 1325.26 36.4419 Q1321.78 40.2903 1321.78 46.9338 L1321.78 72.576 L1314.28 72.576 L1314.28 27.2059 L1321.78 27.2059 L1321.78 34.2544 Q1324.45 30.163 1328.06 28.1376 Q1331.7 26.1121 1336.44 26.1121 Q1344.26 26.1121 1348.27 30.9732 Q1352.28 35.7938 1352.28 45.1919 Z" fill="#000000" fill-rule="nonzero" fill-opacity="1" /><path clip-path="url(#clip690)" d="M1411.1 32.4315 Q1405.1 32.4315 1401.62 37.1306 Q1398.14 41.7891 1398.14 49.9314 Q1398.14 58.0738 1401.58 62.7728 Q1405.06 67.4314 1411.1 67.4314 Q1417.05 67.4314 1420.54 62.7323 Q1424.02 58.0333 1424.02 49.9314 Q1424.02 41.8701 1420.54 37.1711 Q1417.05 32.4315 1411.1 32.4315 M1411.1 26.1121 Q1420.82 26.1121 1426.37 32.4315 Q1431.92 38.7509 1431.92 49.9314 Q1431.92 61.0714 1426.37 67.4314 Q1420.82 73.7508 1411.1 73.7508 Q1401.34 73.7508 1395.79 67.4314 Q1390.28 61.0714 1390.28 49.9314 Q1390.28 38.7509 1395.79 32.4315 Q1401.34 26.1121 1411.1 26.1121 Z" fill="#000000" fill-rule="nonzero" fill-opacity="1" /><path clip-path="url(#clip690)" d="M1438.93 27.2059 L1446.83 27.2059 L1461.01 65.2844 L1475.18 27.2059 L1483.08 27.2059 L1466.07 72.576 L1455.94 72.576 L1438.93 27.2059 Z" fill="#000000" fill-rule="nonzero" fill-opacity="1" /><path clip-path="url(#clip690)" d="M1532.18 48.0275 L1532.18 51.6733 L1497.91 51.6733 Q1498.4 59.3701 1502.53 63.421 Q1506.7 67.4314 1514.11 67.4314 Q1518.41 67.4314 1522.42 66.3781 Q1526.47 65.3249 1530.44 63.2184 L1530.44 70.267 Q1526.43 71.9684 1522.22 72.8596 Q1518 73.7508 1513.67 73.7508 Q1502.81 73.7508 1496.45 67.4314 Q1490.13 61.1119 1490.13 50.3365 Q1490.13 39.1965 1496.13 32.6746 Q1502.16 26.1121 1512.37 26.1121 Q1521.53 26.1121 1526.83 32.0264 Q1532.18 37.9003 1532.18 48.0275 M1524.73 45.84 Q1524.65 39.7232 1521.28 36.0774 Q1517.96 32.4315 1512.45 32.4315 Q1506.21 32.4315 1502.45 35.9558 Q1498.72 39.4801 1498.15 45.8805 L1524.73 45.84 Z" fill="#000000" fill-rule="nonzero" fill-opacity="1" /><path clip-path="url(#clip690)" d="M1570.7 34.1734 Q1569.45 33.4443 1567.95 33.1202 Q1566.49 32.7556 1564.71 32.7556 Q1558.39 32.7556 1554.99 36.8875 Q1551.63 40.9789 1551.63 48.6757 L1551.63 72.576 L1544.13 72.576 L1544.13 27.2059 L1551.63 27.2059 L1551.63 34.2544 Q1553.97 30.1225 1557.74 28.1376 Q1561.51 26.1121 1566.9 26.1121 Q1567.67 26.1121 1568.6 26.2337 Q1569.53 26.3147 1570.66 26.5172 L1570.7 34.1734 Z" fill="#000000" fill-rule="nonzero" fill-opacity="1" /><path clip-path="url(#clip690)" d="M1643.7 48.0275 L1643.7 51.6733 L1609.43 51.6733 Q1609.92 59.3701 1614.05 63.421 Q1618.22 67.4314 1625.64 67.4314 Q1629.93 67.4314 1633.94 66.3781 Q1637.99 65.3249 1641.96 63.2184 L1641.96 70.267 Q1637.95 71.9684 1633.74 72.8596 Q1629.52 73.7508 1625.19 73.7508 Q1614.33 73.7508 1607.97 67.4314 Q1601.65 61.1119 1601.65 50.3365 Q1601.65 39.1965 1607.65 32.6746 Q1613.68 26.1121 1623.89 26.1121 Q1633.05 26.1121 1638.35 32.0264 Q1643.7 37.9003 1643.7 48.0275 M1636.25 45.84 Q1636.17 39.7232 1632.81 36.0774 Q1629.48 32.4315 1623.97 32.4315 Q1617.74 32.4315 1613.97 35.9558 Q1610.24 39.4801 1609.67 45.8805 L1636.25 45.84 Z" fill="#000000" fill-rule="nonzero" fill-opacity="1" /><path clip-path="url(#clip690)" d="M1676.55 49.7694 Q1667.52 49.7694 1664.04 51.8354 Q1660.55 53.9013 1660.55 58.8839 Q1660.55 62.8538 1663.15 65.2034 Q1665.78 67.5124 1670.28 67.5124 Q1676.47 67.5124 1680.2 63.1374 Q1683.97 58.7219 1683.97 51.4303 L1683.97 49.7694 L1676.55 49.7694 M1691.42 46.6907 L1691.42 72.576 L1683.97 72.576 L1683.97 65.6895 Q1681.42 69.8214 1677.61 71.8063 Q1673.8 73.7508 1668.29 73.7508 Q1661.32 73.7508 1657.19 69.8619 Q1653.1 65.9325 1653.1 59.3701 Q1653.1 51.7138 1658.2 47.825 Q1663.35 43.9361 1673.52 43.9361 L1683.97 43.9361 L1683.97 43.2069 Q1683.97 38.0623 1680.57 35.2672 Q1677.2 32.4315 1671.09 32.4315 Q1667.2 32.4315 1663.51 33.3632 Q1659.82 34.295 1656.42 36.1584 L1656.42 29.2718 Q1660.51 27.692 1664.36 26.9223 Q1668.21 26.1121 1671.86 26.1121 Q1681.7 26.1121 1686.56 31.2163 Q1691.42 36.3204 1691.42 46.6907 Z" fill="#000000" fill-rule="nonzero" fill-opacity="1" /><path clip-path="url(#clip690)" d="M1739.42 28.9478 L1739.42 35.9153 Q1736.27 34.1734 1733.07 33.3227 Q1729.91 32.4315 1726.66 32.4315 Q1719.41 32.4315 1715.4 37.0496 Q1711.39 41.6271 1711.39 49.9314 Q1711.39 58.2358 1715.4 62.8538 Q1719.41 67.4314 1726.66 67.4314 Q1729.91 67.4314 1733.07 66.5807 Q1736.27 65.6895 1739.42 63.9476 L1739.42 70.8341 Q1736.31 72.2924 1732.94 73.0216 Q1729.62 73.7508 1725.85 73.7508 Q1715.61 73.7508 1709.57 67.3098 Q1703.53 60.8689 1703.53 49.9314 Q1703.53 38.832 1709.61 32.472 Q1715.73 26.1121 1726.34 26.1121 Q1729.78 26.1121 1733.07 26.8413 Q1736.35 27.5299 1739.42 28.9478 Z" fill="#000000" fill-rule="nonzero" fill-opacity="1" /><path clip-path="url(#clip690)" d="M1790.1 45.1919 L1790.1 72.576 L1782.65 72.576 L1782.65 45.4349 Q1782.65 38.994 1780.14 35.7938 Q1777.63 32.5936 1772.6 32.5936 Q1766.57 32.5936 1763.08 36.4419 Q1759.6 40.2903 1759.6 46.9338 L1759.6 72.576 L1752.1 72.576 L1752.1 9.54393 L1759.6 9.54393 L1759.6 34.2544 Q1762.27 30.163 1765.88 28.1376 Q1769.52 26.1121 1774.26 26.1121 Q1782.08 26.1121 1786.09 30.9732 Q1790.1 35.7938 1790.1 45.1919 Z" fill="#000000" fill-rule="nonzero" fill-opacity="1" /><path clip-path="url(#clip690)" d="M1831.34 27.2059 L1838.79 27.2059 L1838.79 72.576 L1831.34 72.576 L1831.34 27.2059 M1831.34 9.54393 L1838.79 9.54393 L1838.79 18.9825 L1831.34 18.9825 L1831.34 9.54393 Z" fill="#000000" fill-rule="nonzero" fill-opacity="1" /><path clip-path="url(#clip690)" d="M1861.76 14.324 L1861.76 27.2059 L1877.12 27.2059 L1877.12 32.9987 L1861.76 32.9987 L1861.76 57.6282 Q1861.76 63.1779 1863.26 64.7578 Q1864.8 66.3376 1869.46 66.3376 L1877.12 66.3376 L1877.12 72.576 L1869.46 72.576 Q1860.83 72.576 1857.55 69.3758 Q1854.27 66.1351 1854.27 57.6282 L1854.27 32.9987 L1848.8 32.9987 L1848.8 27.2059 L1854.27 27.2059 L1854.27 14.324 L1861.76 14.324 Z" fill="#000000" fill-rule="nonzero" fill-opacity="1" /><path clip-path="url(#clip690)" d="M1925.73 48.0275 L1925.73 51.6733 L1891.46 51.6733 Q1891.94 59.3701 1896.07 63.421 Q1900.25 67.4314 1907.66 67.4314 Q1911.95 67.4314 1915.96 66.3781 Q1920.01 65.3249 1923.98 63.2184 L1923.98 70.267 Q1919.97 71.9684 1915.76 72.8596 Q1911.55 73.7508 1907.21 73.7508 Q1896.36 73.7508 1890 67.4314 Q1883.68 61.1119 1883.68 50.3365 Q1883.68 39.1965 1889.67 32.6746 Q1895.71 26.1121 1905.92 26.1121 Q1915.07 26.1121 1920.38 32.0264 Q1925.73 37.9003 1925.73 48.0275 M1918.27 45.84 Q1918.19 39.7232 1914.83 36.0774 Q1911.51 32.4315 1906 32.4315 Q1899.76 32.4315 1895.99 35.9558 Q1892.27 39.4801 1891.7 45.8805 L1918.27 45.84 Z" fill="#000000" fill-rule="nonzero" fill-opacity="1" /><path clip-path="url(#clip690)" d="M1964.25 34.1734 Q1962.99 33.4443 1961.5 33.1202 Q1960.04 32.7556 1958.25 32.7556 Q1951.94 32.7556 1948.53 36.8875 Q1945.17 40.9789 1945.17 48.6757 L1945.17 72.576 L1937.68 72.576 L1937.68 27.2059 L1945.17 27.2059 L1945.17 34.2544 Q1947.52 30.1225 1951.29 28.1376 Q1955.05 26.1121 1960.44 26.1121 Q1961.21 26.1121 1962.14 26.2337 Q1963.08 26.3147 1964.21 26.5172 L1964.25 34.1734 Z" fill="#000000" fill-rule="nonzero" fill-opacity="1" /><path clip-path="url(#clip690)" d="M1992.69 49.7694 Q1983.65 49.7694 1980.17 51.8354 Q1976.69 53.9013 1976.69 58.8839 Q1976.69 62.8538 1979.28 65.2034 Q1981.91 67.5124 1986.41 67.5124 Q1992.61 67.5124 1996.33 63.1374 Q2000.1 58.7219 2000.1 51.4303 L2000.1 49.7694 L1992.69 49.7694 M2007.55 46.6907 L2007.55 72.576 L2000.1 72.576 L2000.1 65.6895 Q1997.55 69.8214 1993.74 71.8063 Q1989.93 73.7508 1984.42 73.7508 Q1977.46 73.7508 1973.32 69.8619 Q1969.23 65.9325 1969.23 59.3701 Q1969.23 51.7138 1974.34 47.825 Q1979.48 43.9361 1989.65 43.9361 L2000.1 43.9361 L2000.1 43.2069 Q2000.1 38.0623 1996.7 35.2672 Q1993.34 32.4315 1987.22 32.4315 Q1983.33 32.4315 1979.64 33.3632 Q1975.96 34.295 1972.55 36.1584 L1972.55 29.2718 Q1976.65 27.692 1980.49 26.9223 Q1984.34 26.1121 1987.99 26.1121 Q1997.83 26.1121 2002.69 31.2163 Q2007.55 36.3204 2007.55 46.6907 Z" fill="#000000" fill-rule="nonzero" fill-opacity="1" /><path clip-path="url(#clip690)" d="M2030.28 14.324 L2030.28 27.2059 L2045.63 27.2059 L2045.63 32.9987 L2030.28 32.9987 L2030.28 57.6282 Q2030.28 63.1779 2031.78 64.7578 Q2033.32 66.3376 2037.98 66.3376 L2045.63 66.3376 L2045.63 72.576 L2037.98 72.576 Q2029.35 72.576 2026.07 69.3758 Q2022.79 66.1351 2022.79 57.6282 L2022.79 32.9987 L2017.32 32.9987 L2017.32 27.2059 L2022.79 27.2059 L2022.79 14.324 L2030.28 14.324 Z" fill="#000000" fill-rule="nonzero" fill-opacity="1" /><path clip-path="url(#clip690)" d="M2055.44 27.2059 L2062.89 27.2059 L2062.89 72.576 L2055.44 72.576 L2055.44 27.2059 M2055.44 9.54393 L2062.89 9.54393 L2062.89 18.9825 L2055.44 18.9825 L2055.44 9.54393 Z" fill="#000000" fill-rule="nonzero" fill-opacity="1" /><path clip-path="url(#clip690)" d="M2096.07 32.4315 Q2090.07 32.4315 2086.59 37.1306 Q2083.1 41.7891 2083.1 49.9314 Q2083.1 58.0738 2086.55 62.7728 Q2090.03 67.4314 2096.07 67.4314 Q2102.02 67.4314 2105.51 62.7323 Q2108.99 58.0333 2108.99 49.9314 Q2108.99 41.8701 2105.51 37.1711 Q2102.02 32.4315 2096.07 32.4315 M2096.07 26.1121 Q2105.79 26.1121 2111.34 32.4315 Q2116.89 38.7509 2116.89 49.9314 Q2116.89 61.0714 2111.34 67.4314 Q2105.79 73.7508 2096.07 73.7508 Q2086.3 73.7508 2080.75 67.4314 Q2075.24 61.0714 2075.24 49.9314 Q2075.24 38.7509 2080.75 32.4315 Q2086.3 26.1121 2096.07 26.1121 Z" fill="#000000" fill-rule="nonzero" fill-opacity="1" /><path clip-path="url(#clip690)" d="M2166.96 45.1919 L2166.96 72.576 L2159.5 72.576 L2159.5 45.4349 Q2159.5 38.994 2156.99 35.7938 Q2154.48 32.5936 2149.46 32.5936 Q2143.42 32.5936 2139.94 36.4419 Q2136.45 40.2903 2136.45 46.9338 L2136.45 72.576 L2128.96 72.576 L2128.96 27.2059 L2136.45 27.2059 L2136.45 34.2544 Q2139.13 30.163 2142.73 28.1376 Q2146.38 26.1121 2151.12 26.1121 Q2158.94 26.1121 2162.95 30.9732 Q2166.96 35.7938 2166.96 45.1919 Z" fill="#000000" fill-rule="nonzero" fill-opacity="1" /><polyline clip-path="url(#clip692)" style="stroke:#009af9; stroke-linecap:round; stroke-linejoin:round; stroke-width:4; stroke-opacity:1; fill:none" points="280.231,1386.4 282.749,1343.41 285.268,1330.72 287.786,1321.92 290.304,1297.83 292.823,1256.14 295.341,1262.36 297.86,1245.27 300.378,1220.67 302.896,1193.22 305.415,1189.33 307.933,1184.93 310.451,1176.39 312.97,1154.12 315.488,1140.13 318.006,1141.17 320.525,1143.5 323.043,1139.87 325.561,1138.58 328.08,1140.91 330.598,1144.28 333.116,1137.28 335.635,1125.11 338.153,1124.85 340.671,1117.86 343.19,1112.94 345.708,1123.04 348.226,1116.31 350.745,1122.52 353.263,1106.21 355.782,1102.07 358.3,1096.89 360.818,1080.06 363.337,1068.66 365.855,1065.04 368.373,1067.63 370.892,1069.44 373.41,1068.14 375.928,1063.48 378.447,1062.71 380.965,1060.89 383.483,1053.9 386.002,1043.28 388.52,1034.74 391.038,1028.01 393.557,1025.16 396.075,1015.32 398.593,1005.48 401.112,994.601 403.63,981.394 406.148,972.072 408.667,968.188 411.185,970 413.704,963.268 416.222,963.268 418.74,955.758 421.259,949.802 423.777,948.248 426.295,930.898 428.814,923.907 431.332,922.353 433.85,917.174 436.369,918.728 438.887,917.692 441.405,913.031 443.924,914.843 446.442,905.003 448.96,902.414 451.479,903.45 453.997,891.797 456.515,879.367 459.034,867.973 461.552,869.527 464.07,869.527 466.589,852.177 469.107,844.149 471.626,847.516 474.144,845.703 476.662,838.711 479.181,829.907 481.699,833.791 484.217,820.326 486.736,820.067 489.254,827.577 491.772,836.122 494.291,835.086 496.809,826.541 499.327,813.593 501.846,807.119 504.364,799.351 506.882,800.387 509.401,793.395 511.919,781.742 514.437,772.42 516.956,774.232 519.474,766.464 521.992,757.918 524.511,758.954 527.029,753.257 529.548,751.962 532.066,739.533 534.584,737.202 537.103,727.362 539.621,725.549 542.139,728.139 544.658,727.362 547.176,730.21 549.694,728.916 552.213,733.836 554.731,734.354 557.249,732.8 559.768,722.442 562.286,716.745 564.804,710.012 567.323,706.387 569.841,694.216 572.359,696.547 574.878,690.073 577.396,696.029 579.914,690.591 582.433,682.822 584.951,672.723 587.47,674.018 589.988,661.847 592.506,657.704 595.025,650.194 597.543,638.282 600.061,623.263 602.58,608.762 605.098,604.619 607.616,601.77 610.135,598.922 612.653,591.93 615.171,592.189 617.69,588.305 620.208,593.743 622.726,585.197 625.245,581.313 627.763,580.018 630.281,574.839 632.8,566.811 635.318,563.186 637.836,557.748 640.355,548.685 642.873,550.756 645.392,544.283 647.91,530.558 650.428,523.825 652.947,527.451 655.465,519.164 657.983,511.396 660.502,510.36 663.02,502.591 665.538,499.484 668.057,493.528 670.575,488.09 673.093,484.724 675.612,487.831 678.13,477.473 680.648,470.74 683.167,465.043 685.685,455.203 688.203,455.721 690.722,452.872 693.24,442.255 695.758,436.041 698.277,426.459 700.795,419.727 703.314,410.922 705.832,404.189 708.35,396.939 710.869,394.867 713.387,395.644 715.905,395.644 718.424,396.939 720.942,391.242 723.46,386.322 725.979,380.366 728.497,374.41 731.015,374.41 733.534,368.972 736.052,366.123 738.57,356.024 741.089,353.176 743.607,346.443 746.125,339.192 748.644,330.129 751.162,332.46 753.68,337.38 756.199,328.575 758.717,313.815 761.236,311.484 763.754,311.226 766.272,314.851 768.791,307.341 771.309,297.501 773.827,293.617 776.346,292.581 778.864,292.322 781.382,289.215 783.901,289.215 786.419,282.223 788.937,278.339 791.456,274.195 793.974,273.16 796.492,271.347 799.011,270.57 801.529,260.212 804.047,257.363 806.566,247.782 809.084,242.862 811.602,241.308 814.121,237.942 816.639,237.683 819.158,232.504 821.676,231.986 824.194,223.441 826.713,219.038 829.231,213.342 831.749,208.68 834.268,200.135 836.786,191.848 839.304,186.928 841.823,179.678 844.341,173.463 846.859,168.284 849.378,164.658 851.896,160.256 854.414,160.256 856.933,160.256 859.451,160.256 861.969,160.256 864.488,160.256 867.006,160.256 869.524,160.256 872.043,160.256 874.561,160.256 877.08,160.256 879.598,160.256 882.116,160.256 884.635,160.256 887.153,160.256 889.671,160.256 892.19,160.256 894.708,160.256 897.226,160.256 899.745,160.256 902.263,160.256 904.781,160.256 907.3,160.256 909.818,160.256 912.336,160.256 914.855,160.256 917.373,160.256 919.891,160.256 922.41,160.256 924.928,160.256 927.446,160.256 929.965,160.256 932.483,160.256 935.002,160.256 937.52,160.256 940.038,160.256 942.557,160.256 945.075,160.256 947.593,160.256 950.112,160.256 952.63,160.256 955.148,160.256 957.667,160.256 960.185,160.256 962.703,160.256 965.222,160.256 967.74,160.256 970.258,160.256 972.777,160.256 975.295,160.256 977.813,160.256 980.332,160.256 982.85,160.256 985.369,160.256 987.887,160.256 990.405,160.256 992.924,160.256 995.442,160.256 997.96,160.256 1000.48,160.256 1003,160.256 1005.52,160.256 1008.03,160.256 1010.55,160.256 1013.07,160.256 1015.59,160.256 1018.11,160.256 1020.63,160.256 1023.14,160.256 1025.66,160.256 1028.18,160.256 1030.7,160.256 1033.22,160.256 1035.74,160.256 1038.25,160.256 1040.77,160.256 1043.29,160.256 1045.81,160.256 1048.33,160.256 1050.85,160.256 1053.36,160.256 1055.88,160.256 1058.4,160.256 1060.92,160.256 1063.44,160.256 1065.96,160.256 1068.47,160.256 1070.99,160.256 1073.51,160.256 1076.03,160.256 1078.55,160.256 1081.07,160.256 1083.58,160.256 1086.1,160.256 1088.62,160.256 1091.14,160.256 1093.66,160.256 1096.18,160.256 1098.69,160.256 1101.21,160.256 1103.73,160.256 1106.25,160.256 1108.77,160.256 1111.29,160.256 1113.8,160.256 1116.32,160.256 1118.84,160.256 1121.36,160.256 1123.88,160.256 1126.4,160.256 1128.91,160.256 1131.43,160.256 1133.95,160.256 1136.47,160.256 1138.99,160.256 1141.51,160.256 1144.02,160.256 1146.54,160.256 1149.06,160.256 1151.58,160.256 1154.1,160.256 1156.62,160.256 1159.13,160.256 1161.65,160.256 1164.17,160.256 1166.69,160.256 1169.21,160.256 1171.73,160.256 1174.24,160.256 1176.76,160.256 1179.28,160.256 1181.8,160.256 1184.32,160.256 1186.84,160.256 1189.35,160.256 1191.87,160.256 1194.39,160.256 1196.91,160.256 1199.43,160.256 1201.95,160.256 1204.46,160.256 1206.98,160.256 1209.5,160.256 1212.02,160.256 1214.54,160.256 1217.06,160.256 1219.57,160.256 1222.09,160.256 1224.61,160.256 1227.13,160.256 1229.65,160.256 1232.17,160.256 1234.68,160.256 1237.2,160.256 1239.72,160.256 1242.24,160.256 1244.76,160.256 1247.28,160.256 1249.8,160.256 1252.31,160.256 1254.83,160.256 1257.35,160.256 1259.87,160.256 1262.39,160.256 1264.91,160.256 1267.42,160.256 1269.94,160.256 1272.46,160.256 1274.98,160.256 1277.5,160.256 1280.02,160.256 1282.53,160.256 1285.05,160.256 1287.57,160.256 1290.09,160.256 1292.61,160.256 1295.13,160.256 1297.64,160.256 1300.16,160.256 1302.68,160.256 1305.2,160.256 1307.72,160.256 1310.24,160.256 1312.75,160.256 1315.27,160.256 1317.79,160.256 1320.31,160.256 1322.83,160.256 1325.35,160.256 1327.86,160.256 1330.38,160.256 1332.9,160.256 1335.42,160.256 1337.94,160.256 1340.46,160.256 1342.97,160.256 1345.49,160.256 1348.01,160.256 1350.53,160.256 1353.05,160.256 1355.57,160.256 1358.08,160.256 1360.6,160.256 1363.12,160.256 1365.64,160.256 1368.16,160.256 1370.68,160.256 1373.19,160.256 1375.71,160.256 1378.23,160.256 1380.75,160.256 1383.27,160.256 1385.79,160.256 1388.3,160.256 1390.82,160.256 1393.34,160.256 1395.86,160.256 1398.38,160.256 1400.9,160.256 1403.41,160.256 1405.93,160.256 1408.45,160.256 1410.97,160.256 1413.49,160.256 1416.01,160.256 1418.52,160.256 1421.04,160.256 1423.56,160.256 1426.08,160.256 1428.6,160.256 1431.12,160.256 1433.63,160.256 1436.15,160.256 1438.67,160.256 1441.19,160.256 1443.71,160.256 1446.23,160.256 1448.74,160.256 1451.26,160.256 1453.78,160.256 1456.3,160.256 1458.82,160.256 1461.34,160.256 1463.85,160.256 1466.37,160.256 1468.89,160.256 1471.41,160.256 1473.93,160.256 1476.45,160.256 1478.96,160.256 1481.48,160.256 1484,160.256 1486.52,160.256 1489.04,160.256 1491.56,160.256 1494.07,160.256 1496.59,160.256 1499.11,160.256 1501.63,160.256 1504.15,160.256 1506.67,160.256 1509.18,160.256 1511.7,160.256 1514.22,160.256 1516.74,160.256 1519.26,160.256 1521.78,160.256 1524.29,160.256 1526.81,160.256 1529.33,160.256 1531.85,160.256 1534.37,160.256 1536.89,160.256 1539.41,160.256 1541.92,160.256 1544.44,160.256 1546.96,160.256 1549.48,160.256 1552,160.256 1554.52,160.256 1557.03,160.256 1559.55,160.256 1562.07,160.256 1564.59,160.256 1567.11,160.256 1569.63,160.256 1572.14,160.256 1574.66,160.256 1577.18,160.256 1579.7,160.256 1582.22,160.256 1584.74,160.256 1587.25,160.256 1589.77,160.256 1592.29,160.256 1594.81,160.256 1597.33,160.256 1599.85,160.256 1602.36,160.256 1604.88,160.256 1607.4,160.256 1609.92,160.256 1612.44,160.256 1614.96,160.256 1617.47,160.256 1619.99,160.256 1622.51,160.256 1625.03,160.256 1627.55,160.256 1630.07,160.256 1632.58,160.256 1635.1,160.256 1637.62,160.256 1640.14,160.256 1642.66,160.256 1645.18,160.256 1647.69,160.256 1650.21,160.256 1652.73,160.256 1655.25,160.256 1657.77,160.256 1660.29,160.256 1662.8,160.256 1665.32,160.256 1667.84,160.256 1670.36,160.256 1672.88,160.256 1675.4,160.256 1677.91,160.256 1680.43,160.256 1682.95,160.256 1685.47,160.256 1687.99,160.256 1690.51,160.256 1693.02,160.256 1695.54,160.256 1698.06,160.256 1700.58,160.256 1703.1,160.256 1705.62,160.256 1708.13,160.256 1710.65,160.256 1713.17,160.256 1715.69,160.256 1718.21,160.256 1720.73,160.256 1723.24,160.256 1725.76,160.256 1728.28,160.256 1730.8,160.256 1733.32,160.256 1735.84,160.256 1738.35,160.256 1740.87,160.256 1743.39,160.256 1745.91,160.256 1748.43,160.256 1750.95,160.256 1753.46,160.256 1755.98,160.256 1758.5,160.256 1761.02,160.256 1763.54,160.256 1766.06,160.256 1768.57,160.256 1771.09,160.256 1773.61,160.256 1776.13,160.256 1778.65,160.256 1781.17,160.256 1783.68,160.256 1786.2,160.256 1788.72,160.256 1791.24,160.256 1793.76,160.256 1796.28,160.256 1798.79,160.256 1801.31,160.256 1803.83,160.256 1806.35,160.256 1808.87,160.256 1811.39,160.256 1813.9,160.256 1816.42,160.256 1818.94,160.256 1821.46,160.256 1823.98,160.256 1826.5,160.256 1829.02,160.256 1831.53,160.256 1834.05,160.256 1836.57,160.256 1839.09,160.256 1841.61,160.256 1844.13,160.256 1846.64,160.256 1849.16,160.256 1851.68,160.256 1854.2,160.256 1856.72,160.256 1859.24,160.256 1861.75,160.256 1864.27,160.256 1866.79,160.256 1869.31,160.256 1871.83,160.256 1874.35,160.256 1876.86,160.256 1879.38,160.256 1881.9,160.256 1884.42,160.256 1886.94,160.256 1889.46,160.256 1891.97,160.256 1894.49,160.256 1897.01,160.256 1899.53,160.256 1902.05,160.256 1904.57,160.256 1907.08,160.256 1909.6,160.256 1912.12,160.256 1914.64,160.256 1917.16,160.256 1919.68,160.256 1922.19,160.256 1924.71,160.256 1927.23,160.256 1929.75,160.256 1932.27,160.256 1934.79,160.256 1937.3,160.256 1939.82,160.256 1942.34,160.256 1944.86,160.256 1947.38,160.256 1949.9,160.256 1952.41,160.256 1954.93,160.256 1957.45,160.256 1959.97,160.256 1962.49,160.256 1965.01,160.256 1967.52,160.256 1970.04,160.256 1972.56,160.256 1975.08,160.256 1977.6,160.256 1980.12,160.256 1982.63,160.256 1985.15,160.256 1987.67,160.256 1990.19,160.256 1992.71,160.256 1995.23,160.256 1997.74,160.256 2000.26,160.256 2002.78,160.256 2005.3,160.256 2007.82,160.256 2010.34,160.256 2012.85,160.256 2015.37,160.256 2017.89,160.256 2020.41,160.256 2022.93,160.256 2025.45,160.256 2027.96,160.256 2030.48,160.256 2033,160.256 2035.52,160.256 2038.04,160.256 2040.56,160.256 2043.07,160.256 2045.59,160.256 2048.11,160.256 2050.63,160.256 2053.15,160.256 2055.67,160.256 2058.18,160.256 2060.7,160.256 2063.22,160.256 2065.74,160.256 2068.26,160.256 2070.78,160.256 2073.29,160.256 2075.81,160.256 2078.33,160.256 2080.85,160.256 2083.37,160.256 2085.89,160.256 2088.4,160.256 2090.92,160.256 2093.44,160.256 2095.96,160.256 2098.48,160.256 2101,160.256 2103.52,160.256 2106.03,160.256 2108.55,160.256 2111.07,160.256 2113.59,160.256 2116.11,160.256 2118.63,160.256 2121.14,160.256 2123.66,160.256 2126.18,160.256 2128.7,160.256 2131.22,160.256 2133.74,160.256 2136.25,160.256 2138.77,160.256 2141.29,160.256 2143.81,160.256 2146.33,160.256 2148.85,160.256 2151.36,160.256 2153.88,160.256 2156.4,160.256 2158.92,160.256 2161.44,160.256 2163.96,160.256 2166.47,160.256 2168.99,160.256 2171.51,160.256 2174.03,160.256 2176.55,160.256 2179.07,160.256 2181.58,160.256 2184.1,160.256 2186.62,160.256 2189.14,160.256 2191.66,160.256 2194.18,160.256 2196.69,160.256 2199.21,160.256 2201.73,160.256 2204.25,160.256 2206.77,160.256 2209.29,160.256 2211.8,160.256 2214.32,160.256 2216.84,160.256 2219.36,160.256 2221.88,160.256 2224.4,160.256 2226.91,160.256 2229.43,160.256 2231.95,160.256 2234.47,160.256 2236.99,160.256 2239.51,160.256 2242.02,160.256 2244.54,160.256 2247.06,160.256 2249.58,160.256 2252.1,160.256 2254.62,160.256 2257.13,160.256 2259.65,160.256 2262.17,160.256 2264.69,160.256 2267.21,160.256 2269.73,160.256 2272.24,160.256 2274.76,160.256 2277.28,160.256 2279.8,160.256 2282.32,160.256 2284.84,160.256 2287.35,160.256 2289.87,160.256 2292.39,160.256 "/>
</svg>
