<?xml version="1.0" encoding="utf-8"?>
<svg xmlns="http://www.w3.org/2000/svg" xmlns:xlink="http://www.w3.org/1999/xlink" width="600" height="400" viewBox="0 0 2400 1600">
<defs>
  <clipPath id="clip730">
    <rect x="0" y="0" width="2400" height="1600"/>
  </clipPath>
</defs>
<path clip-path="url(#clip730)" d="M0 1600 L2400 1600 L2400 0 L0 0  Z" fill="#ffffff" fill-rule="evenodd" fill-opacity="1"/>
<defs>
  <clipPath id="clip731">
    <rect x="480" y="0" width="1681" height="1600"/>
  </clipPath>
</defs>
<path clip-path="url(#clip730)" d="M369.518 1423.18 L2352.76 1423.18 L2352.76 123.472 L369.518 123.472  Z" fill="#ffffff" fill-rule="evenodd" fill-opacity="1"/>
<defs>
  <clipPath id="clip732">
    <rect x="369" y="123" width="1984" height="1301"/>
  </clipPath>
</defs>
<polyline clip-path="url(#clip732)" style="stroke:#000000; stroke-linecap:round; stroke-linejoin:round; stroke-width:2; stroke-opacity:0.1; fill:none" points="423.306,1423.18 423.306,123.472 "/>
<polyline clip-path="url(#clip732)" style="stroke:#000000; stroke-linecap:round; stroke-linejoin:round; stroke-width:2; stroke-opacity:0.1; fill:none" points="891.636,1423.18 891.636,123.472 "/>
<polyline clip-path="url(#clip732)" style="stroke:#000000; stroke-linecap:round; stroke-linejoin:round; stroke-width:2; stroke-opacity:0.1; fill:none" points="1359.97,1423.18 1359.97,123.472 "/>
<polyline clip-path="url(#clip732)" style="stroke:#000000; stroke-linecap:round; stroke-linejoin:round; stroke-width:2; stroke-opacity:0.1; fill:none" points="1828.3,1423.18 1828.3,123.472 "/>
<polyline clip-path="url(#clip732)" style="stroke:#000000; stroke-linecap:round; stroke-linejoin:round; stroke-width:2; stroke-opacity:0.1; fill:none" points="2296.63,1423.18 2296.63,123.472 "/>
<polyline clip-path="url(#clip732)" style="stroke:#000000; stroke-linecap:round; stroke-linejoin:round; stroke-width:2; stroke-opacity:0.1; fill:none" points="369.518,1386.4 2352.76,1386.4 "/>
<polyline clip-path="url(#clip732)" style="stroke:#000000; stroke-linecap:round; stroke-linejoin:round; stroke-width:2; stroke-opacity:0.1; fill:none" points="369.518,1002.19 2352.76,1002.19 "/>
<polyline clip-path="url(#clip732)" style="stroke:#000000; stroke-linecap:round; stroke-linejoin:round; stroke-width:2; stroke-opacity:0.1; fill:none" points="369.518,617.977 2352.76,617.977 "/>
<polyline clip-path="url(#clip732)" style="stroke:#000000; stroke-linecap:round; stroke-linejoin:round; stroke-width:2; stroke-opacity:0.1; fill:none" points="369.518,233.767 2352.76,233.767 "/>
<polyline clip-path="url(#clip730)" style="stroke:#000000; stroke-linecap:round; stroke-linejoin:round; stroke-width:4; stroke-opacity:1; fill:none" points="369.518,1423.18 2352.76,1423.18 "/>
<polyline clip-path="url(#clip730)" style="stroke:#000000; stroke-linecap:round; stroke-linejoin:round; stroke-width:4; stroke-opacity:1; fill:none" points="423.306,1423.18 423.306,1404.28 "/>
<polyline clip-path="url(#clip730)" style="stroke:#000000; stroke-linecap:round; stroke-linejoin:round; stroke-width:4; stroke-opacity:1; fill:none" points="891.636,1423.18 891.636,1404.28 "/>
<polyline clip-path="url(#clip730)" style="stroke:#000000; stroke-linecap:round; stroke-linejoin:round; stroke-width:4; stroke-opacity:1; fill:none" points="1359.97,1423.18 1359.97,1404.28 "/>
<polyline clip-path="url(#clip730)" style="stroke:#000000; stroke-linecap:round; stroke-linejoin:round; stroke-width:4; stroke-opacity:1; fill:none" points="1828.3,1423.18 1828.3,1404.28 "/>
<polyline clip-path="url(#clip730)" style="stroke:#000000; stroke-linecap:round; stroke-linejoin:round; stroke-width:4; stroke-opacity:1; fill:none" points="2296.63,1423.18 2296.63,1404.28 "/>
<path clip-path="url(#clip730)" d="M423.306 1454.1 Q419.695 1454.1 417.866 1457.66 Q416.061 1461.2 416.061 1468.33 Q416.061 1475.44 417.866 1479.01 Q419.695 1482.55 423.306 1482.55 Q426.94 1482.55 428.746 1479.01 Q430.574 1475.44 430.574 1468.33 Q430.574 1461.2 428.746 1457.66 Q426.94 1454.1 423.306 1454.1 M423.306 1450.39 Q429.116 1450.39 432.172 1455 Q435.25 1459.58 435.25 1468.33 Q435.25 1477.06 432.172 1481.67 Q429.116 1486.25 423.306 1486.25 Q417.496 1486.25 414.417 1481.67 Q411.362 1477.06 411.362 1468.33 Q411.362 1459.58 414.417 1455 Q417.496 1450.39 423.306 1450.39 Z" fill="#000000" fill-rule="nonzero" fill-opacity="1" /><path clip-path="url(#clip730)" d="M855.328 1481.64 L871.648 1481.64 L871.648 1485.58 L849.703 1485.58 L849.703 1481.64 Q852.365 1478.89 856.949 1474.26 Q861.555 1469.61 862.736 1468.27 Q864.981 1465.74 865.861 1464.01 Q866.764 1462.25 866.764 1460.56 Q866.764 1457.8 864.819 1456.07 Q862.898 1454.33 859.796 1454.33 Q857.597 1454.33 855.143 1455.09 Q852.713 1455.86 849.935 1457.41 L849.935 1452.69 Q852.759 1451.55 855.213 1450.97 Q857.666 1450.39 859.703 1450.39 Q865.074 1450.39 868.268 1453.08 Q871.463 1455.77 871.463 1460.26 Q871.463 1462.39 870.652 1464.31 Q869.865 1466.2 867.759 1468.8 Q867.18 1469.47 864.078 1472.69 Q860.977 1475.88 855.328 1481.64 Z" fill="#000000" fill-rule="nonzero" fill-opacity="1" /><path clip-path="url(#clip730)" d="M891.462 1454.1 Q887.851 1454.1 886.023 1457.66 Q884.217 1461.2 884.217 1468.33 Q884.217 1475.44 886.023 1479.01 Q887.851 1482.55 891.462 1482.55 Q895.097 1482.55 896.902 1479.01 Q898.731 1475.44 898.731 1468.33 Q898.731 1461.2 896.902 1457.66 Q895.097 1454.1 891.462 1454.1 M891.462 1450.39 Q897.273 1450.39 900.328 1455 Q903.407 1459.58 903.407 1468.33 Q903.407 1477.06 900.328 1481.67 Q897.273 1486.25 891.462 1486.25 Q885.652 1486.25 882.574 1481.67 Q879.518 1477.06 879.518 1468.33 Q879.518 1459.58 882.574 1455 Q885.652 1450.39 891.462 1450.39 Z" fill="#000000" fill-rule="nonzero" fill-opacity="1" /><path clip-path="url(#clip730)" d="M921.624 1454.1 Q918.013 1454.1 916.185 1457.66 Q914.379 1461.2 914.379 1468.33 Q914.379 1475.44 916.185 1479.01 Q918.013 1482.55 921.624 1482.55 Q925.259 1482.55 927.064 1479.01 Q928.893 1475.44 928.893 1468.33 Q928.893 1461.2 927.064 1457.66 Q925.259 1454.1 921.624 1454.1 M921.624 1450.39 Q927.435 1450.39 930.49 1455 Q933.569 1459.58 933.569 1468.33 Q933.569 1477.06 930.49 1481.67 Q927.435 1486.25 921.624 1486.25 Q915.814 1486.25 912.736 1481.67 Q909.68 1477.06 909.68 1468.33 Q909.68 1459.58 912.736 1455 Q915.814 1450.39 921.624 1450.39 Z" fill="#000000" fill-rule="nonzero" fill-opacity="1" /><path clip-path="url(#clip730)" d="M1333.06 1455.09 L1321.25 1473.54 L1333.06 1473.54 L1333.06 1455.09 M1331.83 1451.02 L1337.71 1451.02 L1337.71 1473.54 L1342.64 1473.54 L1342.64 1477.43 L1337.71 1477.43 L1337.71 1485.58 L1333.06 1485.58 L1333.06 1477.43 L1317.45 1477.43 L1317.45 1472.92 L1331.83 1451.02 Z" fill="#000000" fill-rule="nonzero" fill-opacity="1" /><path clip-path="url(#clip730)" d="M1360.37 1454.1 Q1356.76 1454.1 1354.93 1457.66 Q1353.13 1461.2 1353.13 1468.33 Q1353.13 1475.44 1354.93 1479.01 Q1356.76 1482.55 1360.37 1482.55 Q1364.01 1482.55 1365.81 1479.01 Q1367.64 1475.44 1367.64 1468.33 Q1367.64 1461.2 1365.81 1457.66 Q1364.01 1454.1 1360.37 1454.1 M1360.37 1450.39 Q1366.18 1450.39 1369.24 1455 Q1372.32 1459.58 1372.32 1468.33 Q1372.32 1477.06 1369.24 1481.67 Q1366.18 1486.25 1360.37 1486.25 Q1354.56 1486.25 1351.48 1481.67 Q1348.43 1477.06 1348.43 1468.33 Q1348.43 1459.58 1351.48 1455 Q1354.56 1450.39 1360.37 1450.39 Z" fill="#000000" fill-rule="nonzero" fill-opacity="1" /><path clip-path="url(#clip730)" d="M1390.53 1454.1 Q1386.92 1454.1 1385.09 1457.66 Q1383.29 1461.2 1383.29 1468.33 Q1383.29 1475.44 1385.09 1479.01 Q1386.92 1482.55 1390.53 1482.55 Q1394.17 1482.55 1395.97 1479.01 Q1397.8 1475.44 1397.8 1468.33 Q1397.8 1461.2 1395.97 1457.66 Q1394.17 1454.1 1390.53 1454.1 M1390.53 1450.39 Q1396.34 1450.39 1399.4 1455 Q1402.48 1459.58 1402.48 1468.33 Q1402.48 1477.06 1399.4 1481.67 Q1396.34 1486.25 1390.53 1486.25 Q1384.72 1486.25 1381.64 1481.67 Q1378.59 1477.06 1378.59 1468.33 Q1378.59 1459.58 1381.64 1455 Q1384.72 1450.39 1390.53 1450.39 Z" fill="#000000" fill-rule="nonzero" fill-opacity="1" /><path clip-path="url(#clip730)" d="M1798.62 1466.44 Q1795.47 1466.44 1793.62 1468.59 Q1791.79 1470.74 1791.79 1474.49 Q1791.79 1478.22 1793.62 1480.39 Q1795.47 1482.55 1798.62 1482.55 Q1801.77 1482.55 1803.6 1480.39 Q1805.45 1478.22 1805.45 1474.49 Q1805.45 1470.74 1803.6 1468.59 Q1801.77 1466.44 1798.62 1466.44 M1807.9 1451.78 L1807.9 1456.04 Q1806.14 1455.21 1804.34 1454.77 Q1802.56 1454.33 1800.8 1454.33 Q1796.17 1454.33 1793.71 1457.45 Q1791.28 1460.58 1790.94 1466.9 Q1792.3 1464.89 1794.36 1463.82 Q1796.42 1462.73 1798.9 1462.73 Q1804.11 1462.73 1807.12 1465.9 Q1810.15 1469.05 1810.15 1474.49 Q1810.15 1479.82 1807 1483.03 Q1803.85 1486.25 1798.62 1486.25 Q1792.63 1486.25 1789.45 1481.67 Q1786.28 1477.06 1786.28 1468.33 Q1786.28 1460.14 1790.17 1455.28 Q1794.06 1450.39 1800.61 1450.39 Q1802.37 1450.39 1804.15 1450.74 Q1805.96 1451.09 1807.9 1451.78 Z" fill="#000000" fill-rule="nonzero" fill-opacity="1" /><path clip-path="url(#clip730)" d="M1828.2 1454.1 Q1824.59 1454.1 1822.76 1457.66 Q1820.96 1461.2 1820.96 1468.33 Q1820.96 1475.44 1822.76 1479.01 Q1824.59 1482.55 1828.2 1482.55 Q1831.84 1482.55 1833.64 1479.01 Q1835.47 1475.44 1835.47 1468.33 Q1835.47 1461.2 1833.64 1457.66 Q1831.84 1454.1 1828.2 1454.1 M1828.2 1450.39 Q1834.01 1450.39 1837.07 1455 Q1840.15 1459.58 1840.15 1468.33 Q1840.15 1477.06 1837.07 1481.67 Q1834.01 1486.25 1828.2 1486.25 Q1822.39 1486.25 1819.31 1481.67 Q1816.26 1477.06 1816.26 1468.33 Q1816.26 1459.58 1819.31 1455 Q1822.39 1450.39 1828.2 1450.39 Z" fill="#000000" fill-rule="nonzero" fill-opacity="1" /><path clip-path="url(#clip730)" d="M1858.37 1454.1 Q1854.75 1454.1 1852.93 1457.66 Q1851.12 1461.2 1851.12 1468.33 Q1851.12 1475.44 1852.93 1479.01 Q1854.75 1482.55 1858.37 1482.55 Q1862 1482.55 1863.81 1479.01 Q1865.63 1475.44 1865.63 1468.33 Q1865.63 1461.2 1863.81 1457.66 Q1862 1454.1 1858.37 1454.1 M1858.37 1450.39 Q1864.18 1450.39 1867.23 1455 Q1870.31 1459.58 1870.31 1468.33 Q1870.31 1477.06 1867.23 1481.67 Q1864.18 1486.25 1858.37 1486.25 Q1852.56 1486.25 1849.48 1481.67 Q1846.42 1477.06 1846.42 1468.33 Q1846.42 1459.58 1849.48 1455 Q1852.56 1450.39 1858.37 1450.39 Z" fill="#000000" fill-rule="nonzero" fill-opacity="1" /><path clip-path="url(#clip730)" d="M2266.42 1469.17 Q2263.09 1469.17 2261.16 1470.95 Q2259.27 1472.73 2259.27 1475.86 Q2259.27 1478.98 2261.16 1480.77 Q2263.09 1482.55 2266.42 1482.55 Q2269.75 1482.55 2271.67 1480.77 Q2273.59 1478.96 2273.59 1475.86 Q2273.59 1472.73 2271.67 1470.95 Q2269.77 1469.17 2266.42 1469.17 M2261.74 1467.18 Q2258.73 1466.44 2257.04 1464.38 Q2255.38 1462.32 2255.38 1459.35 Q2255.38 1455.21 2258.32 1452.8 Q2261.28 1450.39 2266.42 1450.39 Q2271.58 1450.39 2274.52 1452.8 Q2277.46 1455.21 2277.46 1459.35 Q2277.46 1462.32 2275.77 1464.38 Q2274.1 1466.44 2271.12 1467.18 Q2274.5 1467.96 2276.37 1470.26 Q2278.27 1472.55 2278.27 1475.86 Q2278.27 1480.88 2275.19 1483.57 Q2272.14 1486.25 2266.42 1486.25 Q2260.7 1486.25 2257.62 1483.57 Q2254.57 1480.88 2254.57 1475.86 Q2254.57 1472.55 2256.46 1470.26 Q2258.36 1467.96 2261.74 1467.18 M2260.03 1459.79 Q2260.03 1462.48 2261.7 1463.98 Q2263.39 1465.49 2266.42 1465.49 Q2269.43 1465.49 2271.12 1463.98 Q2272.83 1462.48 2272.83 1459.79 Q2272.83 1457.11 2271.12 1455.6 Q2269.43 1454.1 2266.42 1454.1 Q2263.39 1454.1 2261.7 1455.6 Q2260.03 1457.11 2260.03 1459.79 Z" fill="#000000" fill-rule="nonzero" fill-opacity="1" /><path clip-path="url(#clip730)" d="M2296.58 1454.1 Q2292.97 1454.1 2291.14 1457.66 Q2289.33 1461.2 2289.33 1468.33 Q2289.33 1475.44 2291.14 1479.01 Q2292.97 1482.55 2296.58 1482.55 Q2300.21 1482.55 2302.02 1479.01 Q2303.85 1475.44 2303.85 1468.33 Q2303.85 1461.2 2302.02 1457.66 Q2300.21 1454.1 2296.58 1454.1 M2296.58 1450.39 Q2302.39 1450.39 2305.45 1455 Q2308.52 1459.58 2308.52 1468.33 Q2308.52 1477.06 2305.45 1481.67 Q2302.39 1486.25 2296.58 1486.25 Q2290.77 1486.25 2287.69 1481.67 Q2284.64 1477.06 2284.64 1468.33 Q2284.64 1459.58 2287.69 1455 Q2290.77 1450.39 2296.58 1450.39 Z" fill="#000000" fill-rule="nonzero" fill-opacity="1" /><path clip-path="url(#clip730)" d="M2326.74 1454.1 Q2323.13 1454.1 2321.3 1457.66 Q2319.5 1461.2 2319.5 1468.33 Q2319.5 1475.44 2321.3 1479.01 Q2323.13 1482.55 2326.74 1482.55 Q2330.38 1482.55 2332.18 1479.01 Q2334.01 1475.44 2334.01 1468.33 Q2334.01 1461.2 2332.18 1457.66 Q2330.38 1454.1 2326.74 1454.1 M2326.74 1450.39 Q2332.55 1450.39 2335.61 1455 Q2338.69 1459.58 2338.69 1468.33 Q2338.69 1477.06 2335.61 1481.67 Q2332.55 1486.25 2326.74 1486.25 Q2320.93 1486.25 2317.85 1481.67 Q2314.8 1477.06 2314.8 1468.33 Q2314.8 1459.58 2317.85 1455 Q2320.93 1450.39 2326.74 1450.39 Z" fill="#000000" fill-rule="nonzero" fill-opacity="1" /><path clip-path="url(#clip730)" d="M999.915 1520.52 L1008.57 1520.52 L1029.64 1560.28 L1029.64 1520.52 L1035.88 1520.52 L1035.88 1568.04 L1027.22 1568.04 L1006.15 1528.29 L1006.15 1568.04 L999.915 1568.04 L999.915 1520.52 Z" fill="#000000" fill-rule="nonzero" fill-opacity="1" /><path clip-path="url(#clip730)" d="M1082.96 1536.5 Q1078.25 1536.5 1075.51 1540.19 Q1072.77 1543.85 1072.77 1550.25 Q1072.77 1556.65 1075.48 1560.34 Q1078.21 1564 1082.96 1564 Q1087.63 1564 1090.37 1560.31 Q1093.11 1556.62 1093.11 1550.25 Q1093.11 1543.92 1090.37 1540.23 Q1087.63 1536.5 1082.96 1536.5 M1082.96 1531.54 Q1090.59 1531.54 1094.96 1536.5 Q1099.32 1541.47 1099.32 1550.25 Q1099.32 1559 1094.96 1564 Q1090.59 1568.97 1082.96 1568.97 Q1075.29 1568.97 1070.92 1564 Q1066.6 1559 1066.6 1550.25 Q1066.6 1541.47 1070.92 1536.5 Q1075.29 1531.54 1082.96 1531.54 Z" fill="#000000" fill-rule="nonzero" fill-opacity="1" /><path clip-path="url(#clip730)" d="M1127.07 1518.52 L1127.07 1523.39 L1121.47 1523.39 Q1118.32 1523.39 1117.08 1524.66 Q1115.87 1525.93 1115.87 1529.24 L1115.87 1532.4 L1125.51 1532.4 L1125.51 1536.95 L1115.87 1536.95 L1115.87 1568.04 L1109.98 1568.04 L1109.98 1536.95 L1104.38 1536.95 L1104.38 1532.4 L1109.98 1532.4 L1109.98 1529.91 Q1109.98 1523.96 1112.75 1521.26 Q1115.52 1518.52 1121.53 1518.52 L1127.07 1518.52 Z" fill="#000000" fill-rule="nonzero" fill-opacity="1" /><path clip-path="url(#clip730)" d="M1152.69 1532.4 L1158.55 1532.4 L1158.55 1568.04 L1152.69 1568.04 L1152.69 1532.4 M1152.69 1518.52 L1158.55 1518.52 L1158.55 1525.93 L1152.69 1525.93 L1152.69 1518.52 Z" fill="#000000" fill-rule="nonzero" fill-opacity="1" /><path clip-path="url(#clip730)" d="M1176.6 1522.27 L1176.6 1532.4 L1188.66 1532.4 L1188.66 1536.95 L1176.6 1536.95 L1176.6 1556.3 Q1176.6 1560.66 1177.77 1561.9 Q1178.98 1563.14 1182.64 1563.14 L1188.66 1563.14 L1188.66 1568.04 L1182.64 1568.04 Q1175.86 1568.04 1173.29 1565.53 Q1170.71 1562.98 1170.71 1556.3 L1170.71 1536.95 L1166.41 1536.95 L1166.41 1532.4 L1170.71 1532.4 L1170.71 1522.27 L1176.6 1522.27 Z" fill="#000000" fill-rule="nonzero" fill-opacity="1" /><path clip-path="url(#clip730)" d="M1226.85 1548.76 L1226.85 1551.62 L1199.93 1551.62 Q1200.31 1557.67 1203.55 1560.85 Q1206.83 1564 1212.66 1564 Q1216.03 1564 1219.18 1563.17 Q1222.36 1562.35 1225.48 1560.69 L1225.48 1566.23 Q1222.33 1567.57 1219.02 1568.27 Q1215.71 1568.97 1212.31 1568.97 Q1203.78 1568.97 1198.78 1564 Q1193.81 1559.04 1193.81 1550.57 Q1193.81 1541.82 1198.53 1536.69 Q1203.27 1531.54 1211.29 1531.54 Q1218.48 1531.54 1222.65 1536.18 Q1226.85 1540.8 1226.85 1548.76 M1221 1547.04 Q1220.93 1542.23 1218.29 1539.37 Q1215.68 1536.5 1211.35 1536.5 Q1206.45 1536.5 1203.49 1539.27 Q1200.56 1542.04 1200.12 1547.07 L1221 1547.04 Z" fill="#000000" fill-rule="nonzero" fill-opacity="1" /><path clip-path="url(#clip730)" d="M1257.12 1537.87 Q1256.13 1537.3 1254.96 1537.04 Q1253.81 1536.76 1252.41 1536.76 Q1247.45 1536.76 1244.77 1540 Q1242.13 1543.22 1242.13 1549.27 L1242.13 1568.04 L1236.24 1568.04 L1236.24 1532.4 L1242.13 1532.4 L1242.13 1537.93 Q1243.98 1534.69 1246.94 1533.13 Q1249.9 1531.54 1254.13 1531.54 Q1254.73 1531.54 1255.47 1531.63 Q1256.2 1531.7 1257.09 1531.85 L1257.12 1537.87 Z" fill="#000000" fill-rule="nonzero" fill-opacity="1" /><path clip-path="url(#clip730)" d="M1279.47 1550.12 Q1272.37 1550.12 1269.63 1551.75 Q1266.89 1553.37 1266.89 1557.29 Q1266.89 1560.4 1268.93 1562.25 Q1271 1564.07 1274.53 1564.07 Q1279.4 1564.07 1282.33 1560.63 Q1285.29 1557.16 1285.29 1551.43 L1285.29 1550.12 L1279.47 1550.12 M1291.15 1547.71 L1291.15 1568.04 L1285.29 1568.04 L1285.29 1562.63 Q1283.28 1565.88 1280.29 1567.44 Q1277.3 1568.97 1272.97 1568.97 Q1267.5 1568.97 1264.25 1565.91 Q1261.04 1562.82 1261.04 1557.67 Q1261.04 1551.65 1265.05 1548.6 Q1269.09 1545.54 1277.08 1545.54 L1285.29 1545.54 L1285.29 1544.97 Q1285.29 1540.93 1282.62 1538.73 Q1279.97 1536.5 1275.17 1536.5 Q1272.11 1536.5 1269.22 1537.23 Q1266.32 1537.97 1263.65 1539.43 L1263.65 1534.02 Q1266.86 1532.78 1269.88 1532.17 Q1272.91 1531.54 1275.77 1531.54 Q1283.51 1531.54 1287.33 1535.55 Q1291.15 1539.56 1291.15 1547.71 Z" fill="#000000" fill-rule="nonzero" fill-opacity="1" /><path clip-path="url(#clip730)" d="M1309 1522.27 L1309 1532.4 L1321.06 1532.4 L1321.06 1536.95 L1309 1536.95 L1309 1556.3 Q1309 1560.66 1310.18 1561.9 Q1311.39 1563.14 1315.05 1563.14 L1321.06 1563.14 L1321.06 1568.04 L1315.05 1568.04 Q1308.27 1568.04 1305.69 1565.53 Q1303.11 1562.98 1303.11 1556.3 L1303.11 1536.95 L1298.82 1536.95 L1298.82 1532.4 L1303.11 1532.4 L1303.11 1522.27 L1309 1522.27 Z" fill="#000000" fill-rule="nonzero" fill-opacity="1" /><path clip-path="url(#clip730)" d="M1328.77 1532.4 L1334.62 1532.4 L1334.62 1568.04 L1328.77 1568.04 L1328.77 1532.4 M1328.77 1518.52 L1334.62 1518.52 L1334.62 1525.93 L1328.77 1525.93 L1328.77 1518.52 Z" fill="#000000" fill-rule="nonzero" fill-opacity="1" /><path clip-path="url(#clip730)" d="M1360.69 1536.5 Q1355.98 1536.5 1353.24 1540.19 Q1350.51 1543.85 1350.51 1550.25 Q1350.51 1556.65 1353.21 1560.34 Q1355.95 1564 1360.69 1564 Q1365.37 1564 1368.11 1560.31 Q1370.84 1556.62 1370.84 1550.25 Q1370.84 1543.92 1368.11 1540.23 Q1365.37 1536.5 1360.69 1536.5 M1360.69 1531.54 Q1368.33 1531.54 1372.69 1536.5 Q1377.05 1541.47 1377.05 1550.25 Q1377.05 1559 1372.69 1564 Q1368.33 1568.97 1360.69 1568.97 Q1353.02 1568.97 1348.66 1564 Q1344.33 1559 1344.33 1550.25 Q1344.33 1541.47 1348.66 1536.5 Q1353.02 1531.54 1360.69 1531.54 Z" fill="#000000" fill-rule="nonzero" fill-opacity="1" /><path clip-path="url(#clip730)" d="M1416.39 1546.53 L1416.39 1568.04 L1410.53 1568.04 L1410.53 1546.72 Q1410.53 1541.66 1408.56 1539.14 Q1406.59 1536.63 1402.64 1536.63 Q1397.9 1536.63 1395.16 1539.65 Q1392.42 1542.68 1392.42 1547.9 L1392.42 1568.04 L1386.54 1568.04 L1386.54 1532.4 L1392.42 1532.4 L1392.42 1537.93 Q1394.53 1534.72 1397.36 1533.13 Q1400.22 1531.54 1403.95 1531.54 Q1410.09 1531.54 1413.24 1535.36 Q1416.39 1539.14 1416.39 1546.53 Z" fill="#000000" fill-rule="nonzero" fill-opacity="1" /><path clip-path="url(#clip730)" d="M1450.8 1533.45 L1450.8 1538.98 Q1448.32 1537.71 1445.64 1537.07 Q1442.97 1536.44 1440.1 1536.44 Q1435.74 1536.44 1433.55 1537.77 Q1431.38 1539.11 1431.38 1541.79 Q1431.38 1543.82 1432.94 1545 Q1434.5 1546.15 1439.21 1547.2 L1441.22 1547.64 Q1447.46 1548.98 1450.07 1551.43 Q1452.71 1553.85 1452.71 1558.21 Q1452.71 1563.17 1448.76 1566.07 Q1444.85 1568.97 1437.97 1568.97 Q1435.11 1568.97 1431.99 1568.39 Q1428.9 1567.85 1425.46 1566.74 L1425.46 1560.69 Q1428.71 1562.38 1431.86 1563.24 Q1435.01 1564.07 1438.1 1564.07 Q1442.24 1564.07 1444.46 1562.66 Q1446.69 1561.23 1446.69 1558.65 Q1446.69 1556.27 1445.07 1554.99 Q1443.48 1553.72 1438.03 1552.54 L1436 1552.07 Q1430.56 1550.92 1428.14 1548.56 Q1425.72 1546.18 1425.72 1542.04 Q1425.72 1537.01 1429.28 1534.27 Q1432.85 1531.54 1439.4 1531.54 Q1442.65 1531.54 1445.51 1532.01 Q1448.38 1532.49 1450.8 1533.45 Z" fill="#000000" fill-rule="nonzero" fill-opacity="1" /><path clip-path="url(#clip730)" d="M1472.44 1520.52 L1477.85 1520.52 L1461.3 1574.09 L1455.89 1574.09 L1472.44 1520.52 Z" fill="#000000" fill-rule="nonzero" fill-opacity="1" /><path clip-path="url(#clip730)" d="M1485.94 1562.63 L1496.44 1562.63 L1496.44 1526.38 L1485.01 1528.67 L1485.01 1522.82 L1496.38 1520.52 L1502.81 1520.52 L1502.81 1562.63 L1513.31 1562.63 L1513.31 1568.04 L1485.94 1568.04 L1485.94 1562.63 Z" fill="#000000" fill-rule="nonzero" fill-opacity="1" /><path clip-path="url(#clip730)" d="M1540.05 1524.76 Q1535.08 1524.76 1532.57 1529.66 Q1530.08 1534.53 1530.08 1544.33 Q1530.08 1554.1 1532.57 1559 Q1535.08 1563.87 1540.05 1563.87 Q1545.04 1563.87 1547.52 1559 Q1550.04 1554.1 1550.04 1544.33 Q1550.04 1534.53 1547.52 1529.66 Q1545.04 1524.76 1540.05 1524.76 M1540.05 1519.66 Q1548.03 1519.66 1552.24 1526 Q1556.47 1532.3 1556.47 1544.33 Q1556.47 1556.33 1552.24 1562.66 Q1548.03 1568.97 1540.05 1568.97 Q1532.06 1568.97 1527.82 1562.66 Q1523.62 1556.33 1523.62 1544.33 Q1523.62 1532.3 1527.82 1526 Q1532.06 1519.66 1540.05 1519.66 Z" fill="#000000" fill-rule="nonzero" fill-opacity="1" /><path clip-path="url(#clip730)" d="M1581.52 1524.76 Q1576.55 1524.76 1574.04 1529.66 Q1571.56 1534.53 1571.56 1544.33 Q1571.56 1554.1 1574.04 1559 Q1576.55 1563.87 1581.52 1563.87 Q1586.51 1563.87 1589 1559 Q1591.51 1554.1 1591.51 1544.33 Q1591.51 1534.53 1589 1529.66 Q1586.51 1524.76 1581.52 1524.76 M1581.52 1519.66 Q1589.51 1519.66 1593.71 1526 Q1597.94 1532.3 1597.94 1544.33 Q1597.94 1556.33 1593.71 1562.66 Q1589.51 1568.97 1581.52 1568.97 Q1573.53 1568.97 1569.3 1562.66 Q1565.09 1556.33 1565.09 1544.33 Q1565.09 1532.3 1569.3 1526 Q1573.53 1519.66 1581.52 1519.66 Z" fill="#000000" fill-rule="nonzero" fill-opacity="1" /><path clip-path="url(#clip730)" d="M1622.99 1524.76 Q1618.03 1524.76 1615.51 1529.66 Q1613.03 1534.53 1613.03 1544.33 Q1613.03 1554.1 1615.51 1559 Q1618.03 1563.87 1622.99 1563.87 Q1627.99 1563.87 1630.47 1559 Q1632.98 1554.1 1632.98 1544.33 Q1632.98 1534.53 1630.47 1529.66 Q1627.99 1524.76 1622.99 1524.76 M1622.99 1519.66 Q1630.98 1519.66 1635.18 1526 Q1639.41 1532.3 1639.41 1544.33 Q1639.41 1556.33 1635.18 1562.66 Q1630.98 1568.97 1622.99 1568.97 Q1615 1568.97 1610.77 1562.66 Q1606.57 1556.33 1606.57 1544.33 Q1606.57 1532.3 1610.77 1526 Q1615 1519.66 1622.99 1519.66 Z" fill="#000000" fill-rule="nonzero" fill-opacity="1" /><path clip-path="url(#clip730)" d="M1664.46 1524.76 Q1659.5 1524.76 1656.98 1529.66 Q1654.5 1534.53 1654.5 1544.33 Q1654.5 1554.1 1656.98 1559 Q1659.5 1563.87 1664.46 1563.87 Q1669.46 1563.87 1671.94 1559 Q1674.46 1554.1 1674.46 1544.33 Q1674.46 1534.53 1671.94 1529.66 Q1669.46 1524.76 1664.46 1524.76 M1664.46 1519.66 Q1672.45 1519.66 1676.65 1526 Q1680.89 1532.3 1680.89 1544.33 Q1680.89 1556.33 1676.65 1562.66 Q1672.45 1568.97 1664.46 1568.97 Q1656.47 1568.97 1652.24 1562.66 Q1648.04 1556.33 1648.04 1544.33 Q1648.04 1532.3 1652.24 1526 Q1656.47 1519.66 1664.46 1519.66 Z" fill="#000000" fill-rule="nonzero" fill-opacity="1" /><path clip-path="url(#clip730)" d="M1705.94 1524.76 Q1700.97 1524.76 1698.46 1529.66 Q1695.97 1534.53 1695.97 1544.33 Q1695.97 1554.1 1698.46 1559 Q1700.97 1563.87 1705.94 1563.87 Q1710.93 1563.87 1713.42 1559 Q1715.93 1554.1 1715.93 1544.33 Q1715.93 1534.53 1713.42 1529.66 Q1710.93 1524.76 1705.94 1524.76 M1705.94 1519.66 Q1713.92 1519.66 1718.13 1526 Q1722.36 1532.3 1722.36 1544.33 Q1722.36 1556.33 1718.13 1562.66 Q1713.92 1568.97 1705.94 1568.97 Q1697.95 1568.97 1693.71 1562.66 Q1689.51 1556.33 1689.51 1544.33 Q1689.51 1532.3 1693.71 1526 Q1697.95 1519.66 1705.94 1519.66 Z" fill="#000000" fill-rule="nonzero" fill-opacity="1" /><polyline clip-path="url(#clip730)" style="stroke:#000000; stroke-linecap:round; stroke-linejoin:round; stroke-width:4; stroke-opacity:1; fill:none" points="369.518,1423.18 369.518,123.472 "/>
<polyline clip-path="url(#clip730)" style="stroke:#000000; stroke-linecap:round; stroke-linejoin:round; stroke-width:4; stroke-opacity:1; fill:none" points="369.518,1386.4 388.416,1386.4 "/>
<polyline clip-path="url(#clip730)" style="stroke:#000000; stroke-linecap:round; stroke-linejoin:round; stroke-width:4; stroke-opacity:1; fill:none" points="369.518,1002.19 388.416,1002.19 "/>
<polyline clip-path="url(#clip730)" style="stroke:#000000; stroke-linecap:round; stroke-linejoin:round; stroke-width:4; stroke-opacity:1; fill:none" points="369.518,617.977 388.416,617.977 "/>
<polyline clip-path="url(#clip730)" style="stroke:#000000; stroke-linecap:round; stroke-linejoin:round; stroke-width:4; stroke-opacity:1; fill:none" points="369.518,233.767 388.416,233.767 "/>
<path clip-path="url(#clip730)" d="M321.574 1372.19 Q317.963 1372.19 316.134 1375.76 Q314.329 1379.3 314.329 1386.43 Q314.329 1393.54 316.134 1397.1 Q317.963 1400.64 321.574 1400.64 Q325.208 1400.64 327.014 1397.1 Q328.842 1393.54 328.842 1386.43 Q328.842 1379.3 327.014 1375.76 Q325.208 1372.19 321.574 1372.19 M321.574 1368.49 Q327.384 1368.49 330.44 1373.1 Q333.518 1377.68 333.518 1386.43 Q333.518 1395.16 330.44 1399.76 Q327.384 1404.35 321.574 1404.35 Q315.764 1404.35 312.685 1399.76 Q309.629 1395.16 309.629 1386.43 Q309.629 1377.68 312.685 1373.1 Q315.764 1368.49 321.574 1368.49 Z" fill="#000000" fill-rule="nonzero" fill-opacity="1" /><path clip-path="url(#clip730)" d="M115.718 991.354 L134.075 991.354 L134.075 995.289 L120.001 995.289 L120.001 1003.76 Q121.019 1003.41 122.038 1003.25 Q123.056 1003.07 124.075 1003.07 Q129.862 1003.07 133.242 1006.24 Q136.621 1009.41 136.621 1014.83 Q136.621 1020.4 133.149 1023.51 Q129.677 1026.59 123.357 1026.59 Q121.181 1026.59 118.913 1026.21 Q116.668 1025.84 114.26 1025.1 L114.26 1020.4 Q116.343 1021.54 118.566 1022.09 Q120.788 1022.65 123.265 1022.65 Q127.269 1022.65 129.607 1020.54 Q131.945 1018.44 131.945 1014.83 Q131.945 1011.21 129.607 1009.11 Q127.269 1007 123.265 1007 Q121.39 1007 119.515 1007.42 Q117.663 1007.84 115.718 1008.71 L115.718 991.354 Z" fill="#000000" fill-rule="nonzero" fill-opacity="1" /><path clip-path="url(#clip730)" d="M145.834 1020.03 L150.718 1020.03 L150.718 1025.91 L145.834 1025.91 L145.834 1020.03 Z" fill="#000000" fill-rule="nonzero" fill-opacity="1" /><path clip-path="url(#clip730)" d="M170.903 994.432 Q167.292 994.432 165.464 997.997 Q163.658 1001.54 163.658 1008.67 Q163.658 1015.77 165.464 1019.34 Q167.292 1022.88 170.903 1022.88 Q174.538 1022.88 176.343 1019.34 Q178.172 1015.77 178.172 1008.67 Q178.172 1001.54 176.343 997.997 Q174.538 994.432 170.903 994.432 M170.903 990.729 Q176.714 990.729 179.769 995.335 Q182.848 999.919 182.848 1008.67 Q182.848 1017.4 179.769 1022 Q176.714 1026.59 170.903 1026.59 Q165.093 1026.59 162.015 1022 Q158.959 1017.4 158.959 1008.67 Q158.959 999.919 162.015 995.335 Q165.093 990.729 170.903 990.729 Z" fill="#000000" fill-rule="nonzero" fill-opacity="1" /><path clip-path="url(#clip730)" d="M201.065 994.432 Q197.454 994.432 195.625 997.997 Q193.82 1001.54 193.82 1008.67 Q193.82 1015.77 195.625 1019.34 Q197.454 1022.88 201.065 1022.88 Q204.699 1022.88 206.505 1019.34 Q208.334 1015.77 208.334 1008.67 Q208.334 1001.54 206.505 997.997 Q204.699 994.432 201.065 994.432 M201.065 990.729 Q206.875 990.729 209.931 995.335 Q213.01 999.919 213.01 1008.67 Q213.01 1017.4 209.931 1022 Q206.875 1026.59 201.065 1026.59 Q195.255 1026.59 192.176 1022 Q189.121 1017.4 189.121 1008.67 Q189.121 999.919 192.176 995.335 Q195.255 990.729 201.065 990.729 Z" fill="#000000" fill-rule="nonzero" fill-opacity="1" /><path clip-path="url(#clip730)" d="M249.398 1000.45 L238.82 1011.08 L249.398 1021.65 L246.644 1024.46 L236.019 1013.83 L225.394 1024.46 L222.662 1021.65 L233.218 1011.08 L222.662 1000.45 L225.394 997.65 L236.019 1008.27 L246.644 997.65 L249.398 1000.45 Z" fill="#000000" fill-rule="nonzero" fill-opacity="1" /><path clip-path="url(#clip730)" d="M261.759 1021.98 L269.398 1021.98 L269.398 995.613 L261.088 997.28 L261.088 993.02 L269.352 991.354 L274.028 991.354 L274.028 1021.98 L281.667 1021.98 L281.667 1025.91 L261.759 1025.91 L261.759 1021.98 Z" fill="#000000" fill-rule="nonzero" fill-opacity="1" /><path clip-path="url(#clip730)" d="M301.111 994.432 Q297.5 994.432 295.671 997.997 Q293.866 1001.54 293.866 1008.67 Q293.866 1015.77 295.671 1019.34 Q297.5 1022.88 301.111 1022.88 Q304.745 1022.88 306.551 1019.34 Q308.379 1015.77 308.379 1008.67 Q308.379 1001.54 306.551 997.997 Q304.745 994.432 301.111 994.432 M301.111 990.729 Q306.921 990.729 309.977 995.335 Q313.055 999.919 313.055 1008.67 Q313.055 1017.4 309.977 1022 Q306.921 1026.59 301.111 1026.59 Q295.301 1026.59 292.222 1022 Q289.167 1017.4 289.167 1008.67 Q289.167 999.919 292.222 995.335 Q295.301 990.729 301.111 990.729 Z" fill="#000000" fill-rule="nonzero" fill-opacity="1" /><path clip-path="url(#clip730)" d="M325.732 973.734 L316.14 988.723 L325.732 988.723 L325.732 973.734 M324.735 970.423 L329.512 970.423 L329.512 988.723 L333.518 988.723 L333.518 991.883 L329.512 991.883 L329.512 998.503 L325.732 998.503 L325.732 991.883 L313.055 991.883 L313.055 988.216 L324.735 970.423 Z" fill="#000000" fill-rule="nonzero" fill-opacity="1" /><path clip-path="url(#clip730)" d="M118.777 637.769 L126.416 637.769 L126.416 611.404 L118.106 613.07 L118.106 608.811 L126.369 607.144 L131.045 607.144 L131.045 637.769 L138.684 637.769 L138.684 641.704 L118.777 641.704 L118.777 637.769 Z" fill="#000000" fill-rule="nonzero" fill-opacity="1" /><path clip-path="url(#clip730)" d="M148.129 635.825 L153.013 635.825 L153.013 641.704 L148.129 641.704 L148.129 635.825 Z" fill="#000000" fill-rule="nonzero" fill-opacity="1" /><path clip-path="url(#clip730)" d="M173.198 610.223 Q169.587 610.223 167.758 613.788 Q165.953 617.329 165.953 624.459 Q165.953 631.565 167.758 635.13 Q169.587 638.672 173.198 638.672 Q176.832 638.672 178.638 635.13 Q180.466 631.565 180.466 624.459 Q180.466 617.329 178.638 613.788 Q176.832 610.223 173.198 610.223 M173.198 606.519 Q179.008 606.519 182.064 611.126 Q185.142 615.709 185.142 624.459 Q185.142 633.186 182.064 637.792 Q179.008 642.376 173.198 642.376 Q167.388 642.376 164.309 637.792 Q161.254 633.186 161.254 624.459 Q161.254 615.709 164.309 611.126 Q167.388 606.519 173.198 606.519 Z" fill="#000000" fill-rule="nonzero" fill-opacity="1" /><path clip-path="url(#clip730)" d="M203.36 610.223 Q199.749 610.223 197.92 613.788 Q196.114 617.329 196.114 624.459 Q196.114 631.565 197.92 635.13 Q199.749 638.672 203.36 638.672 Q206.994 638.672 208.8 635.13 Q210.628 631.565 210.628 624.459 Q210.628 617.329 208.8 613.788 Q206.994 610.223 203.36 610.223 M203.36 606.519 Q209.17 606.519 212.225 611.126 Q215.304 615.709 215.304 624.459 Q215.304 633.186 212.225 637.792 Q209.17 642.376 203.36 642.376 Q197.55 642.376 194.471 637.792 Q191.415 633.186 191.415 624.459 Q191.415 615.709 194.471 611.126 Q197.55 606.519 203.36 606.519 Z" fill="#000000" fill-rule="nonzero" fill-opacity="1" /><path clip-path="url(#clip730)" d="M251.693 616.241 L241.114 626.866 L251.693 637.445 L248.938 640.246 L238.313 629.621 L227.688 640.246 L224.957 637.445 L235.512 626.866 L224.957 616.241 L227.688 613.441 L238.313 624.066 L248.938 613.441 L251.693 616.241 Z" fill="#000000" fill-rule="nonzero" fill-opacity="1" /><path clip-path="url(#clip730)" d="M264.054 637.769 L271.693 637.769 L271.693 611.404 L263.383 613.07 L263.383 608.811 L271.646 607.144 L276.322 607.144 L276.322 637.769 L283.961 637.769 L283.961 641.704 L264.054 641.704 L264.054 637.769 Z" fill="#000000" fill-rule="nonzero" fill-opacity="1" /><path clip-path="url(#clip730)" d="M303.406 610.223 Q299.794 610.223 297.966 613.788 Q296.16 617.329 296.16 624.459 Q296.16 631.565 297.966 635.13 Q299.794 638.672 303.406 638.672 Q307.04 638.672 308.845 635.13 Q310.674 631.565 310.674 624.459 Q310.674 617.329 308.845 613.788 Q307.04 610.223 303.406 610.223 M303.406 606.519 Q309.216 606.519 312.271 611.126 Q315.35 615.709 315.35 624.459 Q315.35 633.186 312.271 637.792 Q309.216 642.376 303.406 642.376 Q297.595 642.376 294.517 637.792 Q291.461 633.186 291.461 624.459 Q291.461 615.709 294.517 611.126 Q297.595 606.519 303.406 606.519 Z" fill="#000000" fill-rule="nonzero" fill-opacity="1" /><path clip-path="url(#clip730)" d="M316.535 586.214 L331.449 586.214 L331.449 589.411 L320.014 589.411 L320.014 596.295 Q320.842 596.013 321.669 595.881 Q322.497 595.731 323.324 595.731 Q328.026 595.731 330.772 598.307 Q333.518 600.884 333.518 605.285 Q333.518 609.818 330.697 612.338 Q327.876 614.839 322.741 614.839 Q320.973 614.839 319.13 614.538 Q317.306 614.237 315.35 613.636 L315.35 609.818 Q317.043 610.739 318.848 611.191 Q320.654 611.642 322.666 611.642 Q325.92 611.642 327.819 609.931 Q329.719 608.219 329.719 605.285 Q329.719 602.351 327.819 600.639 Q325.92 598.928 322.666 598.928 Q321.143 598.928 319.619 599.267 Q318.115 599.605 316.535 600.32 L316.535 586.214 Z" fill="#000000" fill-rule="nonzero" fill-opacity="1" /><path clip-path="url(#clip730)" d="M118.777 253.56 L126.416 253.56 L126.416 227.194 L118.106 228.861 L118.106 224.601 L126.369 222.935 L131.045 222.935 L131.045 253.56 L138.684 253.56 L138.684 257.495 L118.777 257.495 L118.777 253.56 Z" fill="#000000" fill-rule="nonzero" fill-opacity="1" /><path clip-path="url(#clip730)" d="M148.129 251.615 L153.013 251.615 L153.013 257.495 L148.129 257.495 L148.129 251.615 Z" fill="#000000" fill-rule="nonzero" fill-opacity="1" /><path clip-path="url(#clip730)" d="M163.244 222.935 L181.601 222.935 L181.601 226.87 L167.527 226.87 L167.527 235.342 Q168.545 234.995 169.564 234.833 Q170.582 234.648 171.601 234.648 Q177.388 234.648 180.767 237.819 Q184.147 240.99 184.147 246.407 Q184.147 251.986 180.675 255.087 Q177.203 258.166 170.883 258.166 Q168.707 258.166 166.439 257.796 Q164.193 257.425 161.786 256.685 L161.786 251.986 Q163.869 253.12 166.091 253.675 Q168.314 254.231 170.791 254.231 Q174.795 254.231 177.133 252.124 Q179.471 250.018 179.471 246.407 Q179.471 242.796 177.133 240.689 Q174.795 238.583 170.791 238.583 Q168.916 238.583 167.041 239 Q165.189 239.416 163.244 240.296 L163.244 222.935 Z" fill="#000000" fill-rule="nonzero" fill-opacity="1" /><path clip-path="url(#clip730)" d="M203.36 226.014 Q199.749 226.014 197.92 229.578 Q196.114 233.12 196.114 240.25 Q196.114 247.356 197.92 250.921 Q199.749 254.462 203.36 254.462 Q206.994 254.462 208.8 250.921 Q210.628 247.356 210.628 240.25 Q210.628 233.12 208.8 229.578 Q206.994 226.014 203.36 226.014 M203.36 222.31 Q209.17 222.31 212.225 226.916 Q215.304 231.5 215.304 240.25 Q215.304 248.976 212.225 253.583 Q209.17 258.166 203.36 258.166 Q197.55 258.166 194.471 253.583 Q191.415 248.976 191.415 240.25 Q191.415 231.5 194.471 226.916 Q197.55 222.31 203.36 222.31 Z" fill="#000000" fill-rule="nonzero" fill-opacity="1" /><path clip-path="url(#clip730)" d="M251.693 232.032 L241.114 242.657 L251.693 253.236 L248.938 256.037 L238.313 245.412 L227.688 256.037 L224.957 253.236 L235.512 242.657 L224.957 232.032 L227.688 229.231 L238.313 239.856 L248.938 229.231 L251.693 232.032 Z" fill="#000000" fill-rule="nonzero" fill-opacity="1" /><path clip-path="url(#clip730)" d="M264.054 253.56 L271.693 253.56 L271.693 227.194 L263.383 228.861 L263.383 224.601 L271.646 222.935 L276.322 222.935 L276.322 253.56 L283.961 253.56 L283.961 257.495 L264.054 257.495 L264.054 253.56 Z" fill="#000000" fill-rule="nonzero" fill-opacity="1" /><path clip-path="url(#clip730)" d="M303.406 226.014 Q299.794 226.014 297.966 229.578 Q296.16 233.12 296.16 240.25 Q296.16 247.356 297.966 250.921 Q299.794 254.462 303.406 254.462 Q307.04 254.462 308.845 250.921 Q310.674 247.356 310.674 240.25 Q310.674 233.12 308.845 229.578 Q307.04 226.014 303.406 226.014 M303.406 222.31 Q309.216 222.31 312.271 226.916 Q315.35 231.5 315.35 240.25 Q315.35 248.976 312.271 253.583 Q309.216 258.166 303.406 258.166 Q297.595 258.166 294.517 253.583 Q291.461 248.976 291.461 240.25 Q291.461 231.5 294.517 226.916 Q297.595 222.31 303.406 222.31 Z" fill="#000000" fill-rule="nonzero" fill-opacity="1" /><path clip-path="url(#clip730)" d="M316.535 202.004 L331.449 202.004 L331.449 205.202 L320.014 205.202 L320.014 212.085 Q320.842 211.803 321.669 211.672 Q322.497 211.521 323.324 211.521 Q328.026 211.521 330.772 214.098 Q333.518 216.674 333.518 221.076 Q333.518 225.608 330.697 228.128 Q327.876 230.63 322.741 230.63 Q320.973 230.63 319.13 230.329 Q317.306 230.028 315.35 229.426 L315.35 225.608 Q317.043 226.53 318.848 226.981 Q320.654 227.433 322.666 227.433 Q325.92 227.433 327.819 225.721 Q329.719 224.01 329.719 221.076 Q329.719 218.141 327.819 216.43 Q325.92 214.718 322.666 214.718 Q321.143 214.718 319.619 215.057 Q318.115 215.396 316.535 216.11 L316.535 202.004 Z" fill="#000000" fill-rule="nonzero" fill-opacity="1" /><path clip-path="url(#clip730)" d="M20.1444 844.431 L26.9239 844.431 Q23.9002 847.677 22.4043 851.37 Q20.9083 855.03 20.9083 859.168 Q20.9083 867.316 25.9054 871.644 Q30.8707 875.973 40.2919 875.973 Q49.6813 875.973 54.6784 871.644 Q59.6436 867.316 59.6436 859.168 Q59.6436 855.03 58.1477 851.37 Q56.6518 847.677 53.6281 844.431 L60.3439 844.431 Q62.6355 847.805 63.7814 851.592 Q64.9272 855.348 64.9272 859.549 Q64.9272 870.339 58.3387 876.546 Q51.7183 882.752 40.2919 882.752 Q28.8336 882.752 22.2451 876.546 Q15.6248 870.339 15.6248 859.549 Q15.6248 855.284 16.7706 851.529 Q17.8846 847.741 20.1444 844.431 Z" fill="#000000" fill-rule="nonzero" fill-opacity="1" /><path clip-path="url(#clip730)" d="M64.0042 822.246 L16.4842 840.389 L16.4842 833.673 L56.4926 818.618 L16.4842 803.531 L16.4842 796.847 L64.0042 814.958 L64.0042 822.246 Z" fill="#000000" fill-rule="nonzero" fill-opacity="1" /><path clip-path="url(#clip730)" d="M16.4842 779.755 L16.4842 774.344 L70.0516 790.895 L70.0516 796.306 L16.4842 779.755 Z" fill="#000000" fill-rule="nonzero" fill-opacity="1" /><path clip-path="url(#clip730)" d="M14.479 768.424 L14.479 762.536 L43.7294 762.536 L28.3562 745.062 L28.3562 737.583 L45.0344 756.489 L64.0042 736.787 L64.0042 744.426 L46.5939 762.536 L64.0042 762.536 L64.0042 768.424 L14.479 768.424 Z" fill="#000000" fill-rule="nonzero" fill-opacity="1" /><path clip-path="url(#clip730)" d="M74.8259 703.367 L79.3773 703.367 L79.3773 737.232 L74.8259 737.232 L74.8259 703.367 Z" fill="#000000" fill-rule="nonzero" fill-opacity="1" /><path clip-path="url(#clip730)" d="M41.3104 691.177 L58.7206 691.177 L58.7206 680.864 Q58.7206 675.676 56.5881 673.193 Q54.4238 670.679 49.9996 670.679 Q45.5436 670.679 43.4429 673.193 Q41.3104 675.676 41.3104 680.864 L41.3104 691.177 M21.7677 691.177 L36.0905 691.177 L36.0905 681.66 Q36.0905 676.949 34.34 674.658 Q32.5576 672.334 28.9291 672.334 Q25.3325 672.334 23.5501 674.658 Q21.7677 676.949 21.7677 681.66 L21.7677 691.177 M16.4842 697.606 L16.4842 681.182 Q16.4842 673.83 19.5397 669.851 Q22.5952 665.873 28.2289 665.873 Q32.5894 665.873 35.1675 667.91 Q37.7456 669.947 38.3822 673.894 Q39.4007 669.151 42.6472 666.541 Q45.8619 663.899 50.6998 663.899 Q57.0655 663.899 60.5348 668.228 Q64.0042 672.557 64.0042 680.546 L64.0042 697.606 L16.4842 697.606 Z" fill="#000000" fill-rule="nonzero" fill-opacity="1" /><path clip-path="url(#clip730)" d="M674.691 12.096 L682.874 12.096 L682.874 36.8875 L712.608 36.8875 L712.608 12.096 L720.79 12.096 L720.79 72.576 L712.608 72.576 L712.608 43.7741 L682.874 43.7741 L682.874 72.576 L674.691 72.576 L674.691 12.096 Z" fill="#000000" fill-rule="nonzero" fill-opacity="1" /><path clip-path="url(#clip730)" d="M775.559 48.0275 L775.559 51.6733 L741.288 51.6733 Q741.774 59.3701 745.906 63.421 Q750.078 67.4314 757.492 67.4314 Q761.786 67.4314 765.796 66.3781 Q769.847 65.3249 773.817 63.2184 L773.817 70.267 Q769.806 71.9684 765.593 72.8596 Q761.38 73.7508 757.046 73.7508 Q746.19 73.7508 739.83 67.4314 Q733.51 61.1119 733.51 50.3365 Q733.51 39.1965 739.506 32.6746 Q745.541 26.1121 755.75 26.1121 Q764.905 26.1121 770.211 32.0264 Q775.559 37.9003 775.559 48.0275 M768.105 45.84 Q768.024 39.7232 764.662 36.0774 Q761.34 32.4315 755.831 32.4315 Q749.592 32.4315 745.825 35.9558 Q742.098 39.4801 741.531 45.8805 L768.105 45.84 Z" fill="#000000" fill-rule="nonzero" fill-opacity="1" /><path clip-path="url(#clip730)" d="M808.411 49.7694 Q799.378 49.7694 795.894 51.8354 Q792.41 53.9013 792.41 58.8839 Q792.41 62.8538 795.003 65.2034 Q797.636 67.5124 802.133 67.5124 Q808.33 67.5124 812.057 63.1374 Q815.825 58.7219 815.825 51.4303 L815.825 49.7694 L808.411 49.7694 M823.278 46.6907 L823.278 72.576 L815.825 72.576 L815.825 65.6895 Q813.273 69.8214 809.465 71.8063 Q805.657 73.7508 800.148 73.7508 Q793.18 73.7508 789.048 69.8619 Q784.957 65.9325 784.957 59.3701 Q784.957 51.7138 790.061 47.825 Q795.205 43.9361 805.373 43.9361 L815.825 43.9361 L815.825 43.2069 Q815.825 38.0623 812.422 35.2672 Q809.06 32.4315 802.943 32.4315 Q799.054 32.4315 795.368 33.3632 Q791.681 34.295 788.278 36.1584 L788.278 29.2718 Q792.37 27.692 796.218 26.9223 Q800.067 26.1121 803.712 26.1121 Q813.556 26.1121 818.417 31.2163 Q823.278 36.3204 823.278 46.6907 Z" fill="#000000" fill-rule="nonzero" fill-opacity="1" /><path clip-path="url(#clip730)" d="M846.004 14.324 L846.004 27.2059 L861.357 27.2059 L861.357 32.9987 L846.004 32.9987 L846.004 57.6282 Q846.004 63.1779 847.503 64.7578 Q849.042 66.3376 853.701 66.3376 L861.357 66.3376 L861.357 72.576 L853.701 72.576 Q845.072 72.576 841.791 69.3758 Q838.51 66.1351 838.51 57.6282 L838.51 32.9987 L833.041 32.9987 L833.041 27.2059 L838.51 27.2059 L838.51 14.324 L846.004 14.324 Z" fill="#000000" fill-rule="nonzero" fill-opacity="1" /><path clip-path="url(#clip730)" d="M930.182 28.9478 L930.182 35.9153 Q927.022 34.1734 923.822 33.3227 Q920.662 32.4315 917.421 32.4315 Q910.17 32.4315 906.16 37.0496 Q902.149 41.6271 902.149 49.9314 Q902.149 58.2358 906.16 62.8538 Q910.17 67.4314 917.421 67.4314 Q920.662 67.4314 923.822 66.5807 Q927.022 65.6895 930.182 63.9476 L930.182 70.8341 Q927.062 72.2924 923.7 73.0216 Q920.378 73.7508 916.611 73.7508 Q906.362 73.7508 900.326 67.3098 Q894.291 60.8689 894.291 49.9314 Q894.291 38.832 900.367 32.472 Q906.484 26.1121 917.097 26.1121 Q920.54 26.1121 923.822 26.8413 Q927.103 27.5299 930.182 28.9478 Z" fill="#000000" fill-rule="nonzero" fill-opacity="1" /><path clip-path="url(#clip730)" d="M963.764 49.7694 Q954.73 49.7694 951.246 51.8354 Q947.763 53.9013 947.763 58.8839 Q947.763 62.8538 950.355 65.2034 Q952.988 67.5124 957.485 67.5124 Q963.683 67.5124 967.409 63.1374 Q971.177 58.7219 971.177 51.4303 L971.177 49.7694 L963.764 49.7694 M978.63 46.6907 L978.63 72.576 L971.177 72.576 L971.177 65.6895 Q968.625 69.8214 964.817 71.8063 Q961.009 73.7508 955.5 73.7508 Q948.532 73.7508 944.4 69.8619 Q940.309 65.9325 940.309 59.3701 Q940.309 51.7138 945.413 47.825 Q950.558 43.9361 960.725 43.9361 L971.177 43.9361 L971.177 43.2069 Q971.177 38.0623 967.774 35.2672 Q964.412 32.4315 958.295 32.4315 Q954.406 32.4315 950.72 33.3632 Q947.033 34.295 943.631 36.1584 L943.631 29.2718 Q947.722 27.692 951.57 26.9223 Q955.419 26.1121 959.065 26.1121 Q968.908 26.1121 973.769 31.2163 Q978.63 36.3204 978.63 46.6907 Z" fill="#000000" fill-rule="nonzero" fill-opacity="1" /><path clip-path="url(#clip730)" d="M1001.19 65.7705 L1001.19 89.8329 L993.7 89.8329 L993.7 27.2059 L1001.19 27.2059 L1001.19 34.0924 Q1003.54 30.0415 1007.11 28.0971 Q1010.71 26.1121 1015.7 26.1121 Q1023.96 26.1121 1029.1 32.6746 Q1034.29 39.2371 1034.29 49.9314 Q1034.29 60.6258 1029.1 67.1883 Q1023.96 73.7508 1015.7 73.7508 Q1010.71 73.7508 1007.11 71.8063 Q1003.54 69.8214 1001.19 65.7705 M1026.55 49.9314 Q1026.55 41.7081 1023.15 37.0496 Q1019.79 32.3505 1013.87 32.3505 Q1007.96 32.3505 1004.56 37.0496 Q1001.19 41.7081 1001.19 49.9314 Q1001.19 58.1548 1004.56 62.8538 Q1007.96 67.5124 1013.87 67.5124 Q1019.79 67.5124 1023.15 62.8538 Q1026.55 58.1548 1026.55 49.9314 Z" fill="#000000" fill-rule="nonzero" fill-opacity="1" /><path clip-path="url(#clip730)" d="M1067.26 49.7694 Q1058.23 49.7694 1054.75 51.8354 Q1051.26 53.9013 1051.26 58.8839 Q1051.26 62.8538 1053.86 65.2034 Q1056.49 67.5124 1060.99 67.5124 Q1067.18 67.5124 1070.91 63.1374 Q1074.68 58.7219 1074.68 51.4303 L1074.68 49.7694 L1067.26 49.7694 M1082.13 46.6907 L1082.13 72.576 L1074.68 72.576 L1074.68 65.6895 Q1072.13 69.8214 1068.32 71.8063 Q1064.51 73.7508 1059 73.7508 Q1052.03 73.7508 1047.9 69.8619 Q1043.81 65.9325 1043.81 59.3701 Q1043.81 51.7138 1048.91 47.825 Q1054.06 43.9361 1064.23 43.9361 L1074.68 43.9361 L1074.68 43.2069 Q1074.68 38.0623 1071.27 35.2672 Q1067.91 32.4315 1061.8 32.4315 Q1057.91 32.4315 1054.22 33.3632 Q1050.53 34.295 1047.13 36.1584 L1047.13 29.2718 Q1051.22 27.692 1055.07 26.9223 Q1058.92 26.1121 1062.57 26.1121 Q1072.41 26.1121 1077.27 31.2163 Q1082.13 36.3204 1082.13 46.6907 Z" fill="#000000" fill-rule="nonzero" fill-opacity="1" /><path clip-path="url(#clip730)" d="M1130.13 28.9478 L1130.13 35.9153 Q1126.97 34.1734 1123.77 33.3227 Q1120.61 32.4315 1117.37 32.4315 Q1110.12 32.4315 1106.11 37.0496 Q1102.1 41.6271 1102.1 49.9314 Q1102.1 58.2358 1106.11 62.8538 Q1110.12 67.4314 1117.37 67.4314 Q1120.61 67.4314 1123.77 66.5807 Q1126.97 65.6895 1130.13 63.9476 L1130.13 70.8341 Q1127.02 72.2924 1123.65 73.0216 Q1120.33 73.7508 1116.56 73.7508 Q1106.31 73.7508 1100.28 67.3098 Q1094.24 60.8689 1094.24 49.9314 Q1094.24 38.832 1100.32 32.472 Q1106.44 26.1121 1117.05 26.1121 Q1120.49 26.1121 1123.77 26.8413 Q1127.06 27.5299 1130.13 28.9478 Z" fill="#000000" fill-rule="nonzero" fill-opacity="1" /><path clip-path="url(#clip730)" d="M1143.1 27.2059 L1150.55 27.2059 L1150.55 72.576 L1143.1 72.576 L1143.1 27.2059 M1143.1 9.54393 L1150.55 9.54393 L1150.55 18.9825 L1143.1 18.9825 L1143.1 9.54393 Z" fill="#000000" fill-rule="nonzero" fill-opacity="1" /><path clip-path="url(#clip730)" d="M1173.52 14.324 L1173.52 27.2059 L1188.87 27.2059 L1188.87 32.9987 L1173.52 32.9987 L1173.52 57.6282 Q1173.52 63.1779 1175.02 64.7578 Q1176.56 66.3376 1181.22 66.3376 L1188.87 66.3376 L1188.87 72.576 L1181.22 72.576 Q1172.59 72.576 1169.31 69.3758 Q1166.03 66.1351 1166.03 57.6282 L1166.03 32.9987 L1160.56 32.9987 L1160.56 27.2059 L1166.03 27.2059 L1166.03 14.324 L1173.52 14.324 Z" fill="#000000" fill-rule="nonzero" fill-opacity="1" /><path clip-path="url(#clip730)" d="M1217.55 76.7889 Q1214.39 84.8907 1211.4 87.3618 Q1208.4 89.8329 1203.37 89.8329 L1197.42 89.8329 L1197.42 83.5945 L1201.79 83.5945 Q1204.87 83.5945 1206.57 82.1361 Q1208.28 80.6778 1210.34 75.2496 L1211.68 71.8468 L1193.33 27.2059 L1201.23 27.2059 L1215.41 62.6918 L1229.58 27.2059 L1237.48 27.2059 L1217.55 76.7889 Z" fill="#000000" fill-rule="nonzero" fill-opacity="1" /><path clip-path="url(#clip730)" d="M1291.72 32.4315 Q1285.73 32.4315 1282.25 37.1306 Q1278.76 41.7891 1278.76 49.9314 Q1278.76 58.0738 1282.21 62.7728 Q1285.69 67.4314 1291.72 67.4314 Q1297.68 67.4314 1301.16 62.7323 Q1304.65 58.0333 1304.65 49.9314 Q1304.65 41.8701 1301.16 37.1711 Q1297.68 32.4315 1291.72 32.4315 M1291.72 26.1121 Q1301.45 26.1121 1307 32.4315 Q1312.55 38.7509 1312.55 49.9314 Q1312.55 61.0714 1307 67.4314 Q1301.45 73.7508 1291.72 73.7508 Q1281.96 73.7508 1276.41 67.4314 Q1270.9 61.0714 1270.9 49.9314 Q1270.9 38.7509 1276.41 32.4315 Q1281.96 26.1121 1291.72 26.1121 Z" fill="#000000" fill-rule="nonzero" fill-opacity="1" /><path clip-path="url(#clip730)" d="M1319.55 27.2059 L1327.45 27.2059 L1341.63 65.2844 L1355.81 27.2059 L1363.71 27.2059 L1346.7 72.576 L1336.57 72.576 L1319.55 27.2059 Z" fill="#000000" fill-rule="nonzero" fill-opacity="1" /><path clip-path="url(#clip730)" d="M1412.81 48.0275 L1412.81 51.6733 L1378.54 51.6733 Q1379.02 59.3701 1383.15 63.421 Q1387.33 67.4314 1394.74 67.4314 Q1399.03 67.4314 1403.04 66.3781 Q1407.09 65.3249 1411.06 63.2184 L1411.06 70.267 Q1407.05 71.9684 1402.84 72.8596 Q1398.63 73.7508 1394.29 73.7508 Q1383.44 73.7508 1377.08 67.4314 Q1370.76 61.1119 1370.76 50.3365 Q1370.76 39.1965 1376.75 32.6746 Q1382.79 26.1121 1393 26.1121 Q1402.15 26.1121 1407.46 32.0264 Q1412.81 37.9003 1412.81 48.0275 M1405.35 45.84 Q1405.27 39.7232 1401.91 36.0774 Q1398.59 32.4315 1393.08 32.4315 Q1386.84 32.4315 1383.07 35.9558 Q1379.35 39.4801 1378.78 45.8805 L1405.35 45.84 Z" fill="#000000" fill-rule="nonzero" fill-opacity="1" /><path clip-path="url(#clip730)" d="M1451.33 34.1734 Q1450.07 33.4443 1448.58 33.1202 Q1447.12 32.7556 1445.34 32.7556 Q1439.02 32.7556 1435.61 36.8875 Q1432.25 40.9789 1432.25 48.6757 L1432.25 72.576 L1424.76 72.576 L1424.76 27.2059 L1432.25 27.2059 L1432.25 34.2544 Q1434.6 30.1225 1438.37 28.1376 Q1442.13 26.1121 1447.52 26.1121 Q1448.29 26.1121 1449.22 26.2337 Q1450.16 26.3147 1451.29 26.5172 L1451.33 34.1734 Z" fill="#000000" fill-rule="nonzero" fill-opacity="1" /><path clip-path="url(#clip730)" d="M1524.33 48.0275 L1524.33 51.6733 L1490.06 51.6733 Q1490.54 59.3701 1494.68 63.421 Q1498.85 67.4314 1506.26 67.4314 Q1510.55 67.4314 1514.57 66.3781 Q1518.62 65.3249 1522.59 63.2184 L1522.59 70.267 Q1518.58 71.9684 1514.36 72.8596 Q1510.15 73.7508 1505.82 73.7508 Q1494.96 73.7508 1488.6 67.4314 Q1482.28 61.1119 1482.28 50.3365 Q1482.28 39.1965 1488.27 32.6746 Q1494.31 26.1121 1504.52 26.1121 Q1513.67 26.1121 1518.98 32.0264 Q1524.33 37.9003 1524.33 48.0275 M1516.87 45.84 Q1516.79 39.7232 1513.43 36.0774 Q1510.11 32.4315 1504.6 32.4315 Q1498.36 32.4315 1494.59 35.9558 Q1490.87 39.4801 1490.3 45.8805 L1516.87 45.84 Z" fill="#000000" fill-rule="nonzero" fill-opacity="1" /><path clip-path="url(#clip730)" d="M1557.18 49.7694 Q1548.15 49.7694 1544.66 51.8354 Q1541.18 53.9013 1541.18 58.8839 Q1541.18 62.8538 1543.77 65.2034 Q1546.41 67.5124 1550.9 67.5124 Q1557.1 67.5124 1560.83 63.1374 Q1564.59 58.7219 1564.59 51.4303 L1564.59 49.7694 L1557.18 49.7694 M1572.05 46.6907 L1572.05 72.576 L1564.59 72.576 L1564.59 65.6895 Q1562.04 69.8214 1558.23 71.8063 Q1554.43 73.7508 1548.92 73.7508 Q1541.95 73.7508 1537.82 69.8619 Q1533.73 65.9325 1533.73 59.3701 Q1533.73 51.7138 1538.83 47.825 Q1543.97 43.9361 1554.14 43.9361 L1564.59 43.9361 L1564.59 43.2069 Q1564.59 38.0623 1561.19 35.2672 Q1557.83 32.4315 1551.71 32.4315 Q1547.82 32.4315 1544.14 33.3632 Q1540.45 34.295 1537.05 36.1584 L1537.05 29.2718 Q1541.14 27.692 1544.99 26.9223 Q1548.84 26.1121 1552.48 26.1121 Q1562.33 26.1121 1567.19 31.2163 Q1572.05 36.3204 1572.05 46.6907 Z" fill="#000000" fill-rule="nonzero" fill-opacity="1" /><path clip-path="url(#clip730)" d="M1620.05 28.9478 L1620.05 35.9153 Q1616.89 34.1734 1613.69 33.3227 Q1610.53 32.4315 1607.29 32.4315 Q1600.04 32.4315 1596.03 37.0496 Q1592.02 41.6271 1592.02 49.9314 Q1592.02 58.2358 1596.03 62.8538 Q1600.04 67.4314 1607.29 67.4314 Q1610.53 67.4314 1613.69 66.5807 Q1616.89 65.6895 1620.05 63.9476 L1620.05 70.8341 Q1616.93 72.2924 1613.57 73.0216 Q1610.25 73.7508 1606.48 73.7508 Q1596.23 73.7508 1590.2 67.3098 Q1584.16 60.8689 1584.16 49.9314 Q1584.16 38.832 1590.24 32.472 Q1596.35 26.1121 1606.97 26.1121 Q1610.41 26.1121 1613.69 26.8413 Q1616.97 27.5299 1620.05 28.9478 Z" fill="#000000" fill-rule="nonzero" fill-opacity="1" /><path clip-path="url(#clip730)" d="M1670.73 45.1919 L1670.73 72.576 L1663.27 72.576 L1663.27 45.4349 Q1663.27 38.994 1660.76 35.7938 Q1658.25 32.5936 1653.23 32.5936 Q1647.19 32.5936 1643.71 36.4419 Q1640.22 40.2903 1640.22 46.9338 L1640.22 72.576 L1632.73 72.576 L1632.73 9.54393 L1640.22 9.54393 L1640.22 34.2544 Q1642.9 30.163 1646.5 28.1376 Q1650.15 26.1121 1654.89 26.1121 Q1662.71 26.1121 1666.72 30.9732 Q1670.73 35.7938 1670.73 45.1919 Z" fill="#000000" fill-rule="nonzero" fill-opacity="1" /><path clip-path="url(#clip730)" d="M1711.97 27.2059 L1719.42 27.2059 L1719.42 72.576 L1711.97 72.576 L1711.97 27.2059 M1711.97 9.54393 L1719.42 9.54393 L1719.42 18.9825 L1711.97 18.9825 L1711.97 9.54393 Z" fill="#000000" fill-rule="nonzero" fill-opacity="1" /><path clip-path="url(#clip730)" d="M1742.39 14.324 L1742.39 27.2059 L1757.74 27.2059 L1757.74 32.9987 L1742.39 32.9987 L1742.39 57.6282 Q1742.39 63.1779 1743.89 64.7578 Q1745.43 66.3376 1750.08 66.3376 L1757.74 66.3376 L1757.74 72.576 L1750.08 72.576 Q1741.46 72.576 1738.17 69.3758 Q1734.89 66.1351 1734.89 57.6282 L1734.89 32.9987 L1729.43 32.9987 L1729.43 27.2059 L1734.89 27.2059 L1734.89 14.324 L1742.39 14.324 Z" fill="#000000" fill-rule="nonzero" fill-opacity="1" /><path clip-path="url(#clip730)" d="M1806.35 48.0275 L1806.35 51.6733 L1772.08 51.6733 Q1772.57 59.3701 1776.7 63.421 Q1780.87 67.4314 1788.28 67.4314 Q1792.58 67.4314 1796.59 66.3781 Q1800.64 65.3249 1804.61 63.2184 L1804.61 70.267 Q1800.6 71.9684 1796.39 72.8596 Q1792.17 73.7508 1787.84 73.7508 Q1776.98 73.7508 1770.62 67.4314 Q1764.3 61.1119 1764.3 50.3365 Q1764.3 39.1965 1770.3 32.6746 Q1776.33 26.1121 1786.54 26.1121 Q1795.7 26.1121 1801 32.0264 Q1806.35 37.9003 1806.35 48.0275 M1798.9 45.84 Q1798.82 39.7232 1795.45 36.0774 Q1792.13 32.4315 1786.62 32.4315 Q1780.39 32.4315 1776.62 35.9558 Q1772.89 39.4801 1772.32 45.8805 L1798.9 45.84 Z" fill="#000000" fill-rule="nonzero" fill-opacity="1" /><path clip-path="url(#clip730)" d="M1844.88 34.1734 Q1843.62 33.4443 1842.12 33.1202 Q1840.66 32.7556 1838.88 32.7556 Q1832.56 32.7556 1829.16 36.8875 Q1825.8 40.9789 1825.8 48.6757 L1825.8 72.576 L1818.3 72.576 L1818.3 27.2059 L1825.8 27.2059 L1825.8 34.2544 Q1828.15 30.1225 1831.91 28.1376 Q1835.68 26.1121 1841.07 26.1121 Q1841.84 26.1121 1842.77 26.2337 Q1843.7 26.3147 1844.84 26.5172 L1844.88 34.1734 Z" fill="#000000" fill-rule="nonzero" fill-opacity="1" /><path clip-path="url(#clip730)" d="M1873.31 49.7694 Q1864.28 49.7694 1860.8 51.8354 Q1857.31 53.9013 1857.31 58.8839 Q1857.31 62.8538 1859.9 65.2034 Q1862.54 67.5124 1867.03 67.5124 Q1873.23 67.5124 1876.96 63.1374 Q1880.73 58.7219 1880.73 51.4303 L1880.73 49.7694 L1873.31 49.7694 M1888.18 46.6907 L1888.18 72.576 L1880.73 72.576 L1880.73 65.6895 Q1878.17 69.8214 1874.37 71.8063 Q1870.56 73.7508 1865.05 73.7508 Q1858.08 73.7508 1853.95 69.8619 Q1849.86 65.9325 1849.86 59.3701 Q1849.86 51.7138 1854.96 47.825 Q1860.11 43.9361 1870.27 43.9361 L1880.73 43.9361 L1880.73 43.2069 Q1880.73 38.0623 1877.32 35.2672 Q1873.96 32.4315 1867.84 32.4315 Q1863.96 32.4315 1860.27 33.3632 Q1856.58 34.295 1853.18 36.1584 L1853.18 29.2718 Q1857.27 27.692 1861.12 26.9223 Q1864.97 26.1121 1868.61 26.1121 Q1878.46 26.1121 1883.32 31.2163 Q1888.18 36.3204 1888.18 46.6907 Z" fill="#000000" fill-rule="nonzero" fill-opacity="1" /><path clip-path="url(#clip730)" d="M1910.91 14.324 L1910.91 27.2059 L1926.26 27.2059 L1926.26 32.9987 L1910.91 32.9987 L1910.91 57.6282 Q1910.91 63.1779 1912.4 64.7578 Q1913.94 66.3376 1918.6 66.3376 L1926.26 66.3376 L1926.26 72.576 L1918.6 72.576 Q1909.97 72.576 1906.69 69.3758 Q1903.41 66.1351 1903.41 57.6282 L1903.41 32.9987 L1897.94 32.9987 L1897.94 27.2059 L1903.41 27.2059 L1903.41 14.324 L1910.91 14.324 Z" fill="#000000" fill-rule="nonzero" fill-opacity="1" /><path clip-path="url(#clip730)" d="M1936.06 27.2059 L1943.52 27.2059 L1943.52 72.576 L1936.06 72.576 L1936.06 27.2059 M1936.06 9.54393 L1943.52 9.54393 L1943.52 18.9825 L1936.06 18.9825 L1936.06 9.54393 Z" fill="#000000" fill-rule="nonzero" fill-opacity="1" /><path clip-path="url(#clip730)" d="M1976.69 32.4315 Q1970.7 32.4315 1967.21 37.1306 Q1963.73 41.7891 1963.73 49.9314 Q1963.73 58.0738 1967.17 62.7728 Q1970.66 67.4314 1976.69 67.4314 Q1982.65 67.4314 1986.13 62.7323 Q1989.61 58.0333 1989.61 49.9314 Q1989.61 41.8701 1986.13 37.1711 Q1982.65 32.4315 1976.69 32.4315 M1976.69 26.1121 Q1986.41 26.1121 1991.96 32.4315 Q1997.51 38.7509 1997.51 49.9314 Q1997.51 61.0714 1991.96 67.4314 Q1986.41 73.7508 1976.69 73.7508 Q1966.93 73.7508 1961.38 67.4314 Q1955.87 61.0714 1955.87 49.9314 Q1955.87 38.7509 1961.38 32.4315 Q1966.93 26.1121 1976.69 26.1121 Z" fill="#000000" fill-rule="nonzero" fill-opacity="1" /><path clip-path="url(#clip730)" d="M2047.58 45.1919 L2047.58 72.576 L2040.13 72.576 L2040.13 45.4349 Q2040.13 38.994 2037.62 35.7938 Q2035.11 32.5936 2030.08 32.5936 Q2024.05 32.5936 2020.56 36.4419 Q2017.08 40.2903 2017.08 46.9338 L2017.08 72.576 L2009.59 72.576 L2009.59 27.2059 L2017.08 27.2059 L2017.08 34.2544 Q2019.75 30.163 2023.36 28.1376 Q2027 26.1121 2031.74 26.1121 Q2039.56 26.1121 2043.57 30.9732 Q2047.58 35.7938 2047.58 45.1919 Z" fill="#000000" fill-rule="nonzero" fill-opacity="1" /><polyline clip-path="url(#clip732)" style="stroke:#009af9; stroke-linecap:round; stroke-linejoin:round; stroke-width:4; stroke-opacity:1; fill:none" points="425.648,160.256 427.989,165.939 430.331,168.134 432.673,169.797 435.014,174.924 437.356,185.812 439.698,184.027 442.039,189.072 444.381,197.085 446.722,207.074 449.064,208.577 451.406,210.307 453.747,213.746 456.089,223.212 458.431,229.528 460.772,229.051 463.114,227.982 465.456,229.648 467.797,230.248 470.139,229.17 472.481,227.627 474.822,230.85 477.164,236.631 479.506,236.757 481.847,240.179 484.189,242.63 486.531,237.637 488.872,240.949 491.214,237.889 493.555,246.042 495.897,248.174 498.239,250.876 500.58,259.926 502.922,266.289 505.264,268.353 507.605,266.876 509.947,265.849 512.289,266.582 514.63,269.243 516.972,269.69 519.314,270.736 521.655,274.814 523.997,281.144 526.339,286.359 528.68,290.543 531.022,292.333 533.364,298.609 535.705,305.027 538.047,312.286 540.388,321.334 542.73,327.874 545.072,330.637 547.413,329.345 549.755,334.169 552.097,334.169 554.438,339.627 556.78,344.015 559.122,345.169 561.463,358.287 563.805,363.699 566.147,364.911 568.488,368.978 570.83,367.753 573.172,368.569 575.513,372.259 577.855,370.82 580.197,378.689 582.538,380.783 584.88,379.944 587.222,389.472 589.563,399.855 591.905,409.572 594.246,408.236 596.588,408.236 598.93,423.358 601.271,430.504 603.613,427.496 605.955,429.113 608.296,435.399 610.638,443.415 612.98,439.865 615.321,452.269 617.663,452.51 620.005,445.557 622.346,437.745 624.688,438.686 627.03,446.511 629.371,458.571 631.713,464.693 634.055,472.12 636.396,471.125 638.738,477.875 641.079,489.284 643.421,498.555 645.763,496.743 648.104,504.545 650.446,513.23 652.788,512.172 655.129,518.013 657.471,519.347 659.813,532.279 662.154,534.729 664.496,545.162 666.838,547.099 669.179,544.333 671.521,545.162 673.863,542.127 676.204,543.505 678.546,538.282 680.888,537.735 683.229,539.379 685.571,550.432 687.912,556.578 690.254,563.902 692.596,567.874 694.937,581.349 697.279,578.752 699.621,585.985 701.962,579.328 704.304,585.404 706.646,594.16 708.987,605.675 711.329,604.19 713.671,618.243 716.012,623.076 718.354,631.901 720.696,646.068 723.037,664.228 725.379,682.076 727.721,687.232 730.062,690.791 732.404,694.363 734.746,703.179 737.087,702.851 739.429,707.779 741.77,700.886 744.112,711.737 746.454,716.704 748.795,718.365 751.137,725.032 753.479,735.444 755.82,740.177 758.162,747.313 760.504,759.303 762.845,756.552 765.187,765.17 767.529,783.644 769.87,792.808 772.212,787.865 774.554,799.191 776.895,809.9 779.237,811.335 781.579,822.144 783.92,826.493 786.262,834.867 788.603,842.559 790.945,847.342 793.287,842.926 795.628,857.701 797.97,867.389 800.312,875.639 802.653,890 804.995,889.241 807.337,893.422 809.678,909.113 812.02,918.374 814.362,932.763 816.703,942.955 819.045,956.383 821.387,966.729 823.728,977.944 826.07,981.163 828.412,979.955 830.753,979.955 833.095,977.944 835.436,986.811 837.778,994.506 840.12,1003.87 842.461,1013.28 844.803,1013.28 847.145,1021.93 849.486,1026.47 851.828,1042.68 854.17,1047.28 856.511,1058.19 858.853,1070.02 861.195,1084.92 863.536,1081.07 865.878,1072.99 868.22,1087.48 870.561,1112.03 872.903,1115.94 875.245,1116.37 877.586,1110.3 879.928,1122.9 882.27,1139.54 884.611,1146.14 886.953,1147.91 889.294,1148.35 891.636,1153.66 893.978,1153.66 896.319,1165.65 898.661,1172.34 901.003,1179.51 903.344,1181.3 905.686,1184.45 908.028,1185.8 910.369,1203.87 912.711,1208.87 915.053,1225.77 917.394,1234.5 919.736,1237.27 922.078,1243.27 924.419,1243.73 926.761,1253 929.103,1253.93 931.444,1269.32 933.786,1277.28 936.127,1287.64 938.469,1296.14 940.811,1311.82 943.152,1327.12 945.494,1336.26 947.836,1349.78 950.177,1361.44 952.519,1371.2 954.861,1378.05 957.202,1386.4 959.544,1386.4 961.886,1386.4 964.227,1386.4 966.569,1386.4 968.911,1386.4 971.252,1386.4 973.594,1386.4 975.936,1386.4 978.277,1386.4 980.619,1386.4 982.96,1386.4 985.302,1386.4 987.644,1386.4 989.985,1386.4 992.327,1386.4 994.669,1386.4 997.01,1386.4 999.352,1386.4 1001.69,1386.4 1004.04,1386.4 1006.38,1386.4 1008.72,1386.4 1011.06,1386.4 1013.4,1386.4 1015.74,1386.4 1018.09,1386.4 1020.43,1386.4 1022.77,1386.4 1025.11,1386.4 1027.45,1386.4 1029.79,1386.4 1032.14,1386.4 1034.48,1386.4 1036.82,1386.4 1039.16,1386.4 1041.5,1386.4 1043.84,1386.4 1046.19,1386.4 1048.53,1386.4 1050.87,1386.4 1053.21,1386.4 1055.55,1386.4 1057.89,1386.4 1060.23,1386.4 1062.58,1386.4 1064.92,1386.4 1067.26,1386.4 1069.6,1386.4 1071.94,1386.4 1074.28,1386.4 1076.63,1386.4 1078.97,1386.4 1081.31,1386.4 1083.65,1386.4 1085.99,1386.4 1088.33,1386.4 1090.68,1386.4 1093.02,1386.4 1095.36,1386.4 1097.7,1386.4 1100.04,1386.4 1102.38,1386.4 1104.73,1386.4 1107.07,1386.4 1109.41,1386.4 1111.75,1386.4 1114.09,1386.4 1116.43,1386.4 1118.78,1386.4 1121.12,1386.4 1123.46,1386.4 1125.8,1386.4 1128.14,1386.4 1130.48,1386.4 1132.83,1386.4 1135.17,1386.4 1137.51,1386.4 1139.85,1386.4 1142.19,1386.4 1144.53,1386.4 1146.88,1386.4 1149.22,1386.4 1151.56,1386.4 1153.9,1386.4 1156.24,1386.4 1158.58,1386.4 1160.93,1386.4 1163.27,1386.4 1165.61,1386.4 1167.95,1386.4 1170.29,1386.4 1172.63,1386.4 1174.98,1386.4 1177.32,1386.4 1179.66,1386.4 1182,1386.4 1184.34,1386.4 1186.68,1386.4 1189.03,1386.4 1191.37,1386.4 1193.71,1386.4 1196.05,1386.4 1198.39,1386.4 1200.73,1386.4 1203.08,1386.4 1205.42,1386.4 1207.76,1386.4 1210.1,1386.4 1212.44,1386.4 1214.78,1386.4 1217.13,1386.4 1219.47,1386.4 1221.81,1386.4 1224.15,1386.4 1226.49,1386.4 1228.83,1386.4 1231.18,1386.4 1233.52,1386.4 1235.86,1386.4 1238.2,1386.4 1240.54,1386.4 1242.88,1386.4 1245.23,1386.4 1247.57,1386.4 1249.91,1386.4 1252.25,1386.4 1254.59,1386.4 1256.93,1386.4 1259.28,1386.4 1261.62,1386.4 1263.96,1386.4 1266.3,1386.4 1268.64,1386.4 1270.98,1386.4 1273.33,1386.4 1275.67,1386.4 1278.01,1386.4 1280.35,1386.4 1282.69,1386.4 1285.03,1386.4 1287.38,1386.4 1289.72,1386.4 1292.06,1386.4 1294.4,1386.4 1296.74,1386.4 1299.08,1386.4 1301.42,1386.4 1303.77,1386.4 1306.11,1386.4 1308.45,1386.4 1310.79,1386.4 1313.13,1386.4 1315.47,1386.4 1317.82,1386.4 1320.16,1386.4 1322.5,1386.4 1324.84,1386.4 1327.18,1386.4 1329.52,1386.4 1331.87,1386.4 1334.21,1386.4 1336.55,1386.4 1338.89,1386.4 1341.23,1386.4 1343.57,1386.4 1345.92,1386.4 1348.26,1386.4 1350.6,1386.4 1352.94,1386.4 1355.28,1386.4 1357.62,1386.4 1359.97,1386.4 1362.31,1386.4 1364.65,1386.4 1366.99,1386.4 1369.33,1386.4 1371.67,1386.4 1374.02,1386.4 1376.36,1386.4 1378.7,1386.4 1381.04,1386.4 1383.38,1386.4 1385.72,1386.4 1388.07,1386.4 1390.41,1386.4 1392.75,1386.4 1395.09,1386.4 1397.43,1386.4 1399.77,1386.4 1402.12,1386.4 1404.46,1386.4 1406.8,1386.4 1409.14,1386.4 1411.48,1386.4 1413.82,1386.4 1416.17,1386.4 1418.51,1386.4 1420.85,1386.4 1423.19,1386.4 1425.53,1386.4 1427.87,1386.4 1430.22,1386.4 1432.56,1386.4 1434.9,1386.4 1437.24,1386.4 1439.58,1386.4 1441.92,1386.4 1444.27,1386.4 1446.61,1386.4 1448.95,1386.4 1451.29,1386.4 1453.63,1386.4 1455.97,1386.4 1458.32,1386.4 1460.66,1386.4 1463,1386.4 1465.34,1386.4 1467.68,1386.4 1470.02,1386.4 1472.37,1386.4 1474.71,1386.4 1477.05,1386.4 1479.39,1386.4 1481.73,1386.4 1484.07,1386.4 1486.42,1386.4 1488.76,1386.4 1491.1,1386.4 1493.44,1386.4 1495.78,1386.4 1498.12,1386.4 1500.47,1386.4 1502.81,1386.4 1505.15,1386.4 1507.49,1386.4 1509.83,1386.4 1512.17,1386.4 1514.52,1386.4 1516.86,1386.4 1519.2,1386.4 1521.54,1386.4 1523.88,1386.4 1526.22,1386.4 1528.57,1386.4 1530.91,1386.4 1533.25,1386.4 1535.59,1386.4 1537.93,1386.4 1540.27,1386.4 1542.62,1386.4 1544.96,1386.4 1547.3,1386.4 1549.64,1386.4 1551.98,1386.4 1554.32,1386.4 1556.66,1386.4 1559.01,1386.4 1561.35,1386.4 1563.69,1386.4 1566.03,1386.4 1568.37,1386.4 1570.71,1386.4 1573.06,1386.4 1575.4,1386.4 1577.74,1386.4 1580.08,1386.4 1582.42,1386.4 1584.76,1386.4 1587.11,1386.4 1589.45,1386.4 1591.79,1386.4 1594.13,1386.4 1596.47,1386.4 1598.81,1386.4 1601.16,1386.4 1603.5,1386.4 1605.84,1386.4 1608.18,1386.4 1610.52,1386.4 1612.86,1386.4 1615.21,1386.4 1617.55,1386.4 1619.89,1386.4 1622.23,1386.4 1624.57,1386.4 1626.91,1386.4 1629.26,1386.4 1631.6,1386.4 1633.94,1386.4 1636.28,1386.4 1638.62,1386.4 1640.96,1386.4 1643.31,1386.4 1645.65,1386.4 1647.99,1386.4 1650.33,1386.4 1652.67,1386.4 1655.01,1386.4 1657.36,1386.4 1659.7,1386.4 1662.04,1386.4 1664.38,1386.4 1666.72,1386.4 1669.06,1386.4 1671.41,1386.4 1673.75,1386.4 1676.09,1386.4 1678.43,1386.4 1680.77,1386.4 1683.11,1386.4 1685.46,1386.4 1687.8,1386.4 1690.14,1386.4 1692.48,1386.4 1694.82,1386.4 1697.16,1386.4 1699.51,1386.4 1701.85,1386.4 1704.19,1386.4 1706.53,1386.4 1708.87,1386.4 1711.21,1386.4 1713.56,1386.4 1715.9,1386.4 1718.24,1386.4 1720.58,1386.4 1722.92,1386.4 1725.26,1386.4 1727.61,1386.4 1729.95,1386.4 1732.29,1386.4 1734.63,1386.4 1736.97,1386.4 1739.31,1386.4 1741.66,1386.4 1744,1386.4 1746.34,1386.4 1748.68,1386.4 1751.02,1386.4 1753.36,1386.4 1755.71,1386.4 1758.05,1386.4 1760.39,1386.4 1762.73,1386.4 1765.07,1386.4 1767.41,1386.4 1769.76,1386.4 1772.1,1386.4 1774.44,1386.4 1776.78,1386.4 1779.12,1386.4 1781.46,1386.4 1783.81,1386.4 1786.15,1386.4 1788.49,1386.4 1790.83,1386.4 1793.17,1386.4 1795.51,1386.4 1797.85,1386.4 1800.2,1386.4 1802.54,1386.4 1804.88,1386.4 1807.22,1386.4 1809.56,1386.4 1811.9,1386.4 1814.25,1386.4 1816.59,1386.4 1818.93,1386.4 1821.27,1386.4 1823.61,1386.4 1825.95,1386.4 1828.3,1386.4 1830.64,1386.4 1832.98,1386.4 1835.32,1386.4 1837.66,1386.4 1840,1386.4 1842.35,1386.4 1844.69,1386.4 1847.03,1386.4 1849.37,1386.4 1851.71,1386.4 1854.05,1386.4 1856.4,1386.4 1858.74,1386.4 1861.08,1386.4 1863.42,1386.4 1865.76,1386.4 1868.1,1386.4 1870.45,1386.4 1872.79,1386.4 1875.13,1386.4 1877.47,1386.4 1879.81,1386.4 1882.15,1386.4 1884.5,1386.4 1886.84,1386.4 1889.18,1386.4 1891.52,1386.4 1893.86,1386.4 1896.2,1386.4 1898.55,1386.4 1900.89,1386.4 1903.23,1386.4 1905.57,1386.4 1907.91,1386.4 1910.25,1386.4 1912.6,1386.4 1914.94,1386.4 1917.28,1386.4 1919.62,1386.4 1921.96,1386.4 1924.3,1386.4 1926.65,1386.4 1928.99,1386.4 1931.33,1386.4 1933.67,1386.4 1936.01,1386.4 1938.35,1386.4 1940.7,1386.4 1943.04,1386.4 1945.38,1386.4 1947.72,1386.4 1950.06,1386.4 1952.4,1386.4 1954.75,1386.4 1957.09,1386.4 1959.43,1386.4 1961.77,1386.4 1964.11,1386.4 1966.45,1386.4 1968.8,1386.4 1971.14,1386.4 1973.48,1386.4 1975.82,1386.4 1978.16,1386.4 1980.5,1386.4 1982.85,1386.4 1985.19,1386.4 1987.53,1386.4 1989.87,1386.4 1992.21,1386.4 1994.55,1386.4 1996.9,1386.4 1999.24,1386.4 2001.58,1386.4 2003.92,1386.4 2006.26,1386.4 2008.6,1386.4 2010.95,1386.4 2013.29,1386.4 2015.63,1386.4 2017.97,1386.4 2020.31,1386.4 2022.65,1386.4 2025,1386.4 2027.34,1386.4 2029.68,1386.4 2032.02,1386.4 2034.36,1386.4 2036.7,1386.4 2039.04,1386.4 2041.39,1386.4 2043.73,1386.4 2046.07,1386.4 2048.41,1386.4 2050.75,1386.4 2053.09,1386.4 2055.44,1386.4 2057.78,1386.4 2060.12,1386.4 2062.46,1386.4 2064.8,1386.4 2067.14,1386.4 2069.49,1386.4 2071.83,1386.4 2074.17,1386.4 2076.51,1386.4 2078.85,1386.4 2081.19,1386.4 2083.54,1386.4 2085.88,1386.4 2088.22,1386.4 2090.56,1386.4 2092.9,1386.4 2095.24,1386.4 2097.59,1386.4 2099.93,1386.4 2102.27,1386.4 2104.61,1386.4 2106.95,1386.4 2109.29,1386.4 2111.64,1386.4 2113.98,1386.4 2116.32,1386.4 2118.66,1386.4 2121,1386.4 2123.34,1386.4 2125.69,1386.4 2128.03,1386.4 2130.37,1386.4 2132.71,1386.4 2135.05,1386.4 2137.39,1386.4 2139.74,1386.4 2142.08,1386.4 2144.42,1386.4 2146.76,1386.4 2149.1,1386.4 2151.44,1386.4 2153.79,1386.4 2156.13,1386.4 2158.47,1386.4 2160.81,1386.4 2163.15,1386.4 2165.49,1386.4 2167.84,1386.4 2170.18,1386.4 2172.52,1386.4 2174.86,1386.4 2177.2,1386.4 2179.54,1386.4 2181.89,1386.4 2184.23,1386.4 2186.57,1386.4 2188.91,1386.4 2191.25,1386.4 2193.59,1386.4 2195.94,1386.4 2198.28,1386.4 2200.62,1386.4 2202.96,1386.4 2205.3,1386.4 2207.64,1386.4 2209.99,1386.4 2212.33,1386.4 2214.67,1386.4 2217.01,1386.4 2219.35,1386.4 2221.69,1386.4 2224.04,1386.4 2226.38,1386.4 2228.72,1386.4 2231.06,1386.4 2233.4,1386.4 2235.74,1386.4 2238.09,1386.4 2240.43,1386.4 2242.77,1386.4 2245.11,1386.4 2247.45,1386.4 2249.79,1386.4 2252.14,1386.4 2254.48,1386.4 2256.82,1386.4 2259.16,1386.4 2261.5,1386.4 2263.84,1386.4 2266.19,1386.4 2268.53,1386.4 2270.87,1386.4 2273.21,1386.4 2275.55,1386.4 2277.89,1386.4 2280.23,1386.4 2282.58,1386.4 2284.92,1386.4 2287.26,1386.4 2289.6,1386.4 2291.94,1386.4 2294.28,1386.4 2296.63,1386.4 "/>
</svg>
