<?xml version="1.0" encoding="utf-8"?>
<svg xmlns="http://www.w3.org/2000/svg" xmlns:xlink="http://www.w3.org/1999/xlink" width="600" height="400" viewBox="0 0 2400 1600">
<defs>
  <clipPath id="clip650">
    <rect x="0" y="0" width="2400" height="1600"/>
  </clipPath>
</defs>
<path clip-path="url(#clip650)" d="M0 1600 L2400 1600 L2400 0 L0 0  Z" fill="#ffffff" fill-rule="evenodd" fill-opacity="1"/>
<defs>
  <clipPath id="clip651">
    <rect x="480" y="0" width="1681" height="1600"/>
  </clipPath>
</defs>
<path clip-path="url(#clip650)" d="M257.204 1423.18 L2352.76 1423.18 L2352.76 123.472 L257.204 123.472  Z" fill="#ffffff" fill-rule="evenodd" fill-opacity="1"/>
<defs>
  <clipPath id="clip652">
    <rect x="257" y="123" width="2097" height="1301"/>
  </clipPath>
</defs>
<polyline clip-path="url(#clip652)" style="stroke:#000000; stroke-linecap:round; stroke-linejoin:round; stroke-width:2; stroke-opacity:0.1; fill:none" points="314.038,1423.18 314.038,123.472 "/>
<polyline clip-path="url(#clip652)" style="stroke:#000000; stroke-linecap:round; stroke-linejoin:round; stroke-width:2; stroke-opacity:0.1; fill:none" points="808.89,1423.18 808.89,123.472 "/>
<polyline clip-path="url(#clip652)" style="stroke:#000000; stroke-linecap:round; stroke-linejoin:round; stroke-width:2; stroke-opacity:0.1; fill:none" points="1303.74,1423.18 1303.74,123.472 "/>
<polyline clip-path="url(#clip652)" style="stroke:#000000; stroke-linecap:round; stroke-linejoin:round; stroke-width:2; stroke-opacity:0.1; fill:none" points="1798.6,1423.18 1798.6,123.472 "/>
<polyline clip-path="url(#clip652)" style="stroke:#000000; stroke-linecap:round; stroke-linejoin:round; stroke-width:2; stroke-opacity:0.1; fill:none" points="2293.45,1423.18 2293.45,123.472 "/>
<polyline clip-path="url(#clip652)" style="stroke:#000000; stroke-linecap:round; stroke-linejoin:round; stroke-width:2; stroke-opacity:0.1; fill:none" points="257.204,1386.4 2352.76,1386.4 "/>
<polyline clip-path="url(#clip652)" style="stroke:#000000; stroke-linecap:round; stroke-linejoin:round; stroke-width:2; stroke-opacity:0.1; fill:none" points="257.204,1062.71 2352.76,1062.71 "/>
<polyline clip-path="url(#clip652)" style="stroke:#000000; stroke-linecap:round; stroke-linejoin:round; stroke-width:2; stroke-opacity:0.1; fill:none" points="257.204,739.015 2352.76,739.015 "/>
<polyline clip-path="url(#clip652)" style="stroke:#000000; stroke-linecap:round; stroke-linejoin:round; stroke-width:2; stroke-opacity:0.1; fill:none" points="257.204,415.324 2352.76,415.324 "/>
<polyline clip-path="url(#clip650)" style="stroke:#000000; stroke-linecap:round; stroke-linejoin:round; stroke-width:4; stroke-opacity:1; fill:none" points="257.204,1423.18 2352.76,1423.18 "/>
<polyline clip-path="url(#clip650)" style="stroke:#000000; stroke-linecap:round; stroke-linejoin:round; stroke-width:4; stroke-opacity:1; fill:none" points="314.038,1423.18 314.038,1404.28 "/>
<polyline clip-path="url(#clip650)" style="stroke:#000000; stroke-linecap:round; stroke-linejoin:round; stroke-width:4; stroke-opacity:1; fill:none" points="808.89,1423.18 808.89,1404.28 "/>
<polyline clip-path="url(#clip650)" style="stroke:#000000; stroke-linecap:round; stroke-linejoin:round; stroke-width:4; stroke-opacity:1; fill:none" points="1303.74,1423.18 1303.74,1404.28 "/>
<polyline clip-path="url(#clip650)" style="stroke:#000000; stroke-linecap:round; stroke-linejoin:round; stroke-width:4; stroke-opacity:1; fill:none" points="1798.6,1423.18 1798.6,1404.28 "/>
<polyline clip-path="url(#clip650)" style="stroke:#000000; stroke-linecap:round; stroke-linejoin:round; stroke-width:4; stroke-opacity:1; fill:none" points="2293.45,1423.18 2293.45,1404.28 "/>
<path clip-path="url(#clip650)" d="M314.038 1454.1 Q310.427 1454.1 308.598 1457.66 Q306.793 1461.2 306.793 1468.33 Q306.793 1475.44 308.598 1479.01 Q310.427 1482.55 314.038 1482.55 Q317.672 1482.55 319.478 1479.01 Q321.306 1475.44 321.306 1468.33 Q321.306 1461.2 319.478 1457.66 Q317.672 1454.1 314.038 1454.1 M314.038 1450.39 Q319.848 1450.39 322.904 1455 Q325.982 1459.58 325.982 1468.33 Q325.982 1477.06 322.904 1481.67 Q319.848 1486.25 314.038 1486.25 Q308.228 1486.25 305.149 1481.67 Q302.093 1477.06 302.093 1468.33 Q302.093 1459.58 305.149 1455 Q308.228 1450.39 314.038 1450.39 Z" fill="#000000" fill-rule="nonzero" fill-opacity="1" /><path clip-path="url(#clip650)" d="M772.583 1481.64 L788.902 1481.64 L788.902 1485.58 L766.958 1485.58 L766.958 1481.64 Q769.62 1478.89 774.203 1474.26 Q778.809 1469.61 779.99 1468.27 Q782.235 1465.74 783.115 1464.01 Q784.018 1462.25 784.018 1460.56 Q784.018 1457.8 782.073 1456.07 Q780.152 1454.33 777.05 1454.33 Q774.851 1454.33 772.397 1455.09 Q769.967 1455.86 767.189 1457.41 L767.189 1452.69 Q770.013 1451.55 772.467 1450.97 Q774.921 1450.39 776.958 1450.39 Q782.328 1450.39 785.522 1453.08 Q788.717 1455.77 788.717 1460.26 Q788.717 1462.39 787.907 1464.31 Q787.12 1466.2 785.013 1468.8 Q784.434 1469.47 781.333 1472.69 Q778.231 1475.88 772.583 1481.64 Z" fill="#000000" fill-rule="nonzero" fill-opacity="1" /><path clip-path="url(#clip650)" d="M808.717 1454.1 Q805.106 1454.1 803.277 1457.66 Q801.471 1461.2 801.471 1468.33 Q801.471 1475.44 803.277 1479.01 Q805.106 1482.55 808.717 1482.55 Q812.351 1482.55 814.157 1479.01 Q815.985 1475.44 815.985 1468.33 Q815.985 1461.2 814.157 1457.66 Q812.351 1454.1 808.717 1454.1 M808.717 1450.39 Q814.527 1450.39 817.582 1455 Q820.661 1459.58 820.661 1468.33 Q820.661 1477.06 817.582 1481.67 Q814.527 1486.25 808.717 1486.25 Q802.907 1486.25 799.828 1481.67 Q796.772 1477.06 796.772 1468.33 Q796.772 1459.58 799.828 1455 Q802.907 1450.39 808.717 1450.39 Z" fill="#000000" fill-rule="nonzero" fill-opacity="1" /><path clip-path="url(#clip650)" d="M838.879 1454.1 Q835.268 1454.1 833.439 1457.66 Q831.633 1461.2 831.633 1468.33 Q831.633 1475.44 833.439 1479.01 Q835.268 1482.55 838.879 1482.55 Q842.513 1482.55 844.318 1479.01 Q846.147 1475.44 846.147 1468.33 Q846.147 1461.2 844.318 1457.66 Q842.513 1454.1 838.879 1454.1 M838.879 1450.39 Q844.689 1450.39 847.744 1455 Q850.823 1459.58 850.823 1468.33 Q850.823 1477.06 847.744 1481.67 Q844.689 1486.25 838.879 1486.25 Q833.068 1486.25 829.99 1481.67 Q826.934 1477.06 826.934 1468.33 Q826.934 1459.58 829.99 1455 Q833.068 1450.39 838.879 1450.39 Z" fill="#000000" fill-rule="nonzero" fill-opacity="1" /><path clip-path="url(#clip650)" d="M1276.83 1455.09 L1265.03 1473.54 L1276.83 1473.54 L1276.83 1455.09 M1275.61 1451.02 L1281.49 1451.02 L1281.49 1473.54 L1286.42 1473.54 L1286.42 1477.43 L1281.49 1477.43 L1281.49 1485.58 L1276.83 1485.58 L1276.83 1477.43 L1261.23 1477.43 L1261.23 1472.92 L1275.61 1451.02 Z" fill="#000000" fill-rule="nonzero" fill-opacity="1" /><path clip-path="url(#clip650)" d="M1304.15 1454.1 Q1300.54 1454.1 1298.71 1457.66 Q1296.9 1461.2 1296.9 1468.33 Q1296.9 1475.44 1298.71 1479.01 Q1300.54 1482.55 1304.15 1482.55 Q1307.78 1482.55 1309.59 1479.01 Q1311.42 1475.44 1311.42 1468.33 Q1311.42 1461.2 1309.59 1457.66 Q1307.78 1454.1 1304.15 1454.1 M1304.15 1450.39 Q1309.96 1450.39 1313.01 1455 Q1316.09 1459.58 1316.09 1468.33 Q1316.09 1477.06 1313.01 1481.67 Q1309.96 1486.25 1304.15 1486.25 Q1298.34 1486.25 1295.26 1481.67 Q1292.2 1477.06 1292.2 1468.33 Q1292.2 1459.58 1295.26 1455 Q1298.34 1450.39 1304.15 1450.39 Z" fill="#000000" fill-rule="nonzero" fill-opacity="1" /><path clip-path="url(#clip650)" d="M1334.31 1454.1 Q1330.7 1454.1 1328.87 1457.66 Q1327.06 1461.2 1327.06 1468.33 Q1327.06 1475.44 1328.87 1479.01 Q1330.7 1482.55 1334.31 1482.55 Q1337.94 1482.55 1339.75 1479.01 Q1341.58 1475.44 1341.58 1468.33 Q1341.58 1461.2 1339.75 1457.66 Q1337.94 1454.1 1334.31 1454.1 M1334.31 1450.39 Q1340.12 1450.39 1343.18 1455 Q1346.25 1459.58 1346.25 1468.33 Q1346.25 1477.06 1343.18 1481.67 Q1340.12 1486.25 1334.31 1486.25 Q1328.5 1486.25 1325.42 1481.67 Q1322.37 1477.06 1322.37 1468.33 Q1322.37 1459.58 1325.42 1455 Q1328.5 1450.39 1334.31 1450.39 Z" fill="#000000" fill-rule="nonzero" fill-opacity="1" /><path clip-path="url(#clip650)" d="M1768.92 1466.44 Q1765.77 1466.44 1763.92 1468.59 Q1762.09 1470.74 1762.09 1474.49 Q1762.09 1478.22 1763.92 1480.39 Q1765.77 1482.55 1768.92 1482.55 Q1772.07 1482.55 1773.9 1480.39 Q1775.75 1478.22 1775.75 1474.49 Q1775.75 1470.74 1773.9 1468.59 Q1772.07 1466.44 1768.92 1466.44 M1778.2 1451.78 L1778.2 1456.04 Q1776.44 1455.21 1774.64 1454.77 Q1772.85 1454.33 1771.1 1454.33 Q1766.47 1454.33 1764.01 1457.45 Q1761.58 1460.58 1761.23 1466.9 Q1762.6 1464.89 1764.66 1463.82 Q1766.72 1462.73 1769.2 1462.73 Q1774.41 1462.73 1777.41 1465.9 Q1780.45 1469.05 1780.45 1474.49 Q1780.45 1479.82 1777.3 1483.03 Q1774.15 1486.25 1768.92 1486.25 Q1762.92 1486.25 1759.75 1481.67 Q1756.58 1477.06 1756.58 1468.33 Q1756.58 1460.14 1760.47 1455.28 Q1764.36 1450.39 1770.91 1450.39 Q1772.67 1450.39 1774.45 1450.74 Q1776.26 1451.09 1778.2 1451.78 Z" fill="#000000" fill-rule="nonzero" fill-opacity="1" /><path clip-path="url(#clip650)" d="M1798.5 1454.1 Q1794.89 1454.1 1793.06 1457.66 Q1791.26 1461.2 1791.26 1468.33 Q1791.26 1475.44 1793.06 1479.01 Q1794.89 1482.55 1798.5 1482.55 Q1802.14 1482.55 1803.94 1479.01 Q1805.77 1475.44 1805.77 1468.33 Q1805.77 1461.2 1803.94 1457.66 Q1802.14 1454.1 1798.5 1454.1 M1798.5 1450.39 Q1804.31 1450.39 1807.37 1455 Q1810.45 1459.58 1810.45 1468.33 Q1810.45 1477.06 1807.37 1481.67 Q1804.31 1486.25 1798.5 1486.25 Q1792.69 1486.25 1789.61 1481.67 Q1786.56 1477.06 1786.56 1468.33 Q1786.56 1459.58 1789.61 1455 Q1792.69 1450.39 1798.5 1450.39 Z" fill="#000000" fill-rule="nonzero" fill-opacity="1" /><path clip-path="url(#clip650)" d="M1828.66 1454.1 Q1825.05 1454.1 1823.22 1457.66 Q1821.42 1461.2 1821.42 1468.33 Q1821.42 1475.44 1823.22 1479.01 Q1825.05 1482.55 1828.66 1482.55 Q1832.3 1482.55 1834.1 1479.01 Q1835.93 1475.44 1835.93 1468.33 Q1835.93 1461.2 1834.1 1457.66 Q1832.3 1454.1 1828.66 1454.1 M1828.66 1450.39 Q1834.47 1450.39 1837.53 1455 Q1840.61 1459.58 1840.61 1468.33 Q1840.61 1477.06 1837.53 1481.67 Q1834.47 1486.25 1828.66 1486.25 Q1822.85 1486.25 1819.78 1481.67 Q1816.72 1477.06 1816.72 1468.33 Q1816.72 1459.58 1819.78 1455 Q1822.85 1450.39 1828.66 1450.39 Z" fill="#000000" fill-rule="nonzero" fill-opacity="1" /><path clip-path="url(#clip650)" d="M2263.24 1469.17 Q2259.91 1469.17 2257.99 1470.95 Q2256.09 1472.73 2256.09 1475.86 Q2256.09 1478.98 2257.99 1480.77 Q2259.91 1482.55 2263.24 1482.55 Q2266.57 1482.55 2268.49 1480.77 Q2270.42 1478.96 2270.42 1475.86 Q2270.42 1472.73 2268.49 1470.95 Q2266.6 1469.17 2263.24 1469.17 M2258.56 1467.18 Q2255.55 1466.44 2253.86 1464.38 Q2252.2 1462.32 2252.2 1459.35 Q2252.2 1455.21 2255.14 1452.8 Q2258.1 1450.39 2263.24 1450.39 Q2268.4 1450.39 2271.34 1452.8 Q2274.28 1455.21 2274.28 1459.35 Q2274.28 1462.32 2272.59 1464.38 Q2270.92 1466.44 2267.94 1467.18 Q2271.32 1467.96 2273.19 1470.26 Q2275.09 1472.55 2275.09 1475.86 Q2275.09 1480.88 2272.01 1483.57 Q2268.96 1486.25 2263.24 1486.25 Q2257.52 1486.25 2254.44 1483.57 Q2251.39 1480.88 2251.39 1475.86 Q2251.39 1472.55 2253.29 1470.26 Q2255.18 1467.96 2258.56 1467.18 M2256.85 1459.79 Q2256.85 1462.48 2258.52 1463.98 Q2260.21 1465.49 2263.24 1465.49 Q2266.25 1465.49 2267.94 1463.98 Q2269.65 1462.48 2269.65 1459.79 Q2269.65 1457.11 2267.94 1455.6 Q2266.25 1454.1 2263.24 1454.1 Q2260.21 1454.1 2258.52 1455.6 Q2256.85 1457.11 2256.85 1459.79 Z" fill="#000000" fill-rule="nonzero" fill-opacity="1" /><path clip-path="url(#clip650)" d="M2293.4 1454.1 Q2289.79 1454.1 2287.96 1457.66 Q2286.16 1461.2 2286.16 1468.33 Q2286.16 1475.44 2287.96 1479.01 Q2289.79 1482.55 2293.4 1482.55 Q2297.04 1482.55 2298.84 1479.01 Q2300.67 1475.44 2300.67 1468.33 Q2300.67 1461.2 2298.84 1457.66 Q2297.04 1454.1 2293.4 1454.1 M2293.4 1450.39 Q2299.21 1450.39 2302.27 1455 Q2305.35 1459.58 2305.35 1468.33 Q2305.35 1477.06 2302.27 1481.67 Q2299.21 1486.25 2293.4 1486.25 Q2287.59 1486.25 2284.51 1481.67 Q2281.46 1477.06 2281.46 1468.33 Q2281.46 1459.58 2284.51 1455 Q2287.59 1450.39 2293.4 1450.39 Z" fill="#000000" fill-rule="nonzero" fill-opacity="1" /><path clip-path="url(#clip650)" d="M2323.56 1454.1 Q2319.95 1454.1 2318.12 1457.66 Q2316.32 1461.2 2316.32 1468.33 Q2316.32 1475.44 2318.12 1479.01 Q2319.95 1482.55 2323.56 1482.55 Q2327.2 1482.55 2329 1479.01 Q2330.83 1475.44 2330.83 1468.33 Q2330.83 1461.2 2329 1457.66 Q2327.2 1454.1 2323.56 1454.1 M2323.56 1450.39 Q2329.37 1450.39 2332.43 1455 Q2335.51 1459.58 2335.51 1468.33 Q2335.51 1477.06 2332.43 1481.67 Q2329.37 1486.25 2323.56 1486.25 Q2317.75 1486.25 2314.67 1481.67 Q2311.62 1477.06 2311.62 1468.33 Q2311.62 1459.58 2314.67 1455 Q2317.75 1450.39 2323.56 1450.39 Z" fill="#000000" fill-rule="nonzero" fill-opacity="1" /><path clip-path="url(#clip650)" d="M923.038 1520.52 L931.695 1520.52 L952.765 1560.28 L952.765 1520.52 L959.004 1520.52 L959.004 1568.04 L950.346 1568.04 L929.276 1528.29 L929.276 1568.04 L923.038 1568.04 L923.038 1520.52 Z" fill="#000000" fill-rule="nonzero" fill-opacity="1" /><path clip-path="url(#clip650)" d="M1006.08 1536.5 Q1001.37 1536.5 998.63 1540.19 Q995.893 1543.85 995.893 1550.25 Q995.893 1556.65 998.599 1560.34 Q1001.34 1564 1006.08 1564 Q1010.76 1564 1013.49 1560.31 Q1016.23 1556.62 1016.23 1550.25 Q1016.23 1543.92 1013.49 1540.23 Q1010.76 1536.5 1006.08 1536.5 M1006.08 1531.54 Q1013.72 1531.54 1018.08 1536.5 Q1022.44 1541.47 1022.44 1550.25 Q1022.44 1559 1018.08 1564 Q1013.72 1568.97 1006.08 1568.97 Q998.408 1568.97 994.047 1564 Q989.718 1559 989.718 1550.25 Q989.718 1541.47 994.047 1536.5 Q998.408 1531.54 1006.08 1531.54 Z" fill="#000000" fill-rule="nonzero" fill-opacity="1" /><path clip-path="url(#clip650)" d="M1050.19 1518.52 L1050.19 1523.39 L1044.59 1523.39 Q1041.44 1523.39 1040.2 1524.66 Q1038.99 1525.93 1038.99 1529.24 L1038.99 1532.4 L1048.63 1532.4 L1048.63 1536.95 L1038.99 1536.95 L1038.99 1568.04 L1033.1 1568.04 L1033.1 1536.95 L1027.5 1536.95 L1027.5 1532.4 L1033.1 1532.4 L1033.1 1529.91 Q1033.1 1523.96 1035.87 1521.26 Q1038.64 1518.52 1044.65 1518.52 L1050.19 1518.52 Z" fill="#000000" fill-rule="nonzero" fill-opacity="1" /><path clip-path="url(#clip650)" d="M1075.81 1532.4 L1081.67 1532.4 L1081.67 1568.04 L1075.81 1568.04 L1075.81 1532.4 M1075.81 1518.52 L1081.67 1518.52 L1081.67 1525.93 L1075.81 1525.93 L1075.81 1518.52 Z" fill="#000000" fill-rule="nonzero" fill-opacity="1" /><path clip-path="url(#clip650)" d="M1099.72 1522.27 L1099.72 1532.4 L1111.78 1532.4 L1111.78 1536.95 L1099.72 1536.95 L1099.72 1556.3 Q1099.72 1560.66 1100.9 1561.9 Q1102.1 1563.14 1105.77 1563.14 L1111.78 1563.14 L1111.78 1568.04 L1105.77 1568.04 Q1098.99 1568.04 1096.41 1565.53 Q1093.83 1562.98 1093.83 1556.3 L1093.83 1536.95 L1089.53 1536.95 L1089.53 1532.4 L1093.83 1532.4 L1093.83 1522.27 L1099.72 1522.27 Z" fill="#000000" fill-rule="nonzero" fill-opacity="1" /><path clip-path="url(#clip650)" d="M1149.98 1548.76 L1149.98 1551.62 L1123.05 1551.62 Q1123.43 1557.67 1126.68 1560.85 Q1129.95 1564 1135.78 1564 Q1139.15 1564 1142.3 1563.17 Q1145.49 1562.35 1148.61 1560.69 L1148.61 1566.23 Q1145.46 1567.57 1142.15 1568.27 Q1138.84 1568.97 1135.43 1568.97 Q1126.9 1568.97 1121.9 1564 Q1116.94 1559.04 1116.94 1550.57 Q1116.94 1541.82 1121.65 1536.69 Q1126.39 1531.54 1134.41 1531.54 Q1141.6 1531.54 1145.77 1536.18 Q1149.98 1540.8 1149.98 1548.76 M1144.12 1547.04 Q1144.05 1542.23 1141.41 1539.37 Q1138.8 1536.5 1134.47 1536.5 Q1129.57 1536.5 1126.61 1539.27 Q1123.68 1542.04 1123.24 1547.07 L1144.12 1547.04 Z" fill="#000000" fill-rule="nonzero" fill-opacity="1" /><path clip-path="url(#clip650)" d="M1180.24 1537.87 Q1179.26 1537.3 1178.08 1537.04 Q1176.93 1536.76 1175.53 1536.76 Q1170.57 1536.76 1167.89 1540 Q1165.25 1543.22 1165.25 1549.27 L1165.25 1568.04 L1159.36 1568.04 L1159.36 1532.4 L1165.25 1532.4 L1165.25 1537.93 Q1167.1 1534.69 1170.06 1533.13 Q1173.02 1531.54 1177.25 1531.54 Q1177.86 1531.54 1178.59 1531.63 Q1179.32 1531.7 1180.21 1531.85 L1180.24 1537.87 Z" fill="#000000" fill-rule="nonzero" fill-opacity="1" /><path clip-path="url(#clip650)" d="M1202.59 1550.12 Q1195.49 1550.12 1192.75 1551.75 Q1190.02 1553.37 1190.02 1557.29 Q1190.02 1560.4 1192.05 1562.25 Q1194.12 1564.07 1197.65 1564.07 Q1202.52 1564.07 1205.45 1560.63 Q1208.41 1557.16 1208.41 1551.43 L1208.41 1550.12 L1202.59 1550.12 M1214.27 1547.71 L1214.27 1568.04 L1208.41 1568.04 L1208.41 1562.63 Q1206.41 1565.88 1203.42 1567.44 Q1200.42 1568.97 1196.09 1568.97 Q1190.62 1568.97 1187.37 1565.91 Q1184.16 1562.82 1184.16 1557.67 Q1184.16 1551.65 1188.17 1548.6 Q1192.21 1545.54 1200.2 1545.54 L1208.41 1545.54 L1208.41 1544.97 Q1208.41 1540.93 1205.74 1538.73 Q1203.1 1536.5 1198.29 1536.5 Q1195.24 1536.5 1192.34 1537.23 Q1189.44 1537.97 1186.77 1539.43 L1186.77 1534.02 Q1189.98 1532.78 1193.01 1532.17 Q1196.03 1531.54 1198.9 1531.54 Q1206.63 1531.54 1210.45 1535.55 Q1214.27 1539.56 1214.27 1547.71 Z" fill="#000000" fill-rule="nonzero" fill-opacity="1" /><path clip-path="url(#clip650)" d="M1232.12 1522.27 L1232.12 1532.4 L1244.19 1532.4 L1244.19 1536.95 L1232.12 1536.95 L1232.12 1556.3 Q1232.12 1560.66 1233.3 1561.9 Q1234.51 1563.14 1238.17 1563.14 L1244.19 1563.14 L1244.19 1568.04 L1238.17 1568.04 Q1231.39 1568.04 1228.81 1565.53 Q1226.24 1562.98 1226.24 1556.3 L1226.24 1536.95 L1221.94 1536.95 L1221.94 1532.4 L1226.24 1532.4 L1226.24 1522.27 L1232.12 1522.27 Z" fill="#000000" fill-rule="nonzero" fill-opacity="1" /><path clip-path="url(#clip650)" d="M1251.89 1532.4 L1257.75 1532.4 L1257.75 1568.04 L1251.89 1568.04 L1251.89 1532.4 M1251.89 1518.52 L1257.75 1518.52 L1257.75 1525.93 L1251.89 1525.93 L1251.89 1518.52 Z" fill="#000000" fill-rule="nonzero" fill-opacity="1" /><path clip-path="url(#clip650)" d="M1283.81 1536.5 Q1279.1 1536.5 1276.37 1540.19 Q1273.63 1543.85 1273.63 1550.25 Q1273.63 1556.65 1276.33 1560.34 Q1279.07 1564 1283.81 1564 Q1288.49 1564 1291.23 1560.31 Q1293.97 1556.62 1293.97 1550.25 Q1293.97 1543.92 1291.23 1540.23 Q1288.49 1536.5 1283.81 1536.5 M1283.81 1531.54 Q1291.45 1531.54 1295.81 1536.5 Q1300.17 1541.47 1300.17 1550.25 Q1300.17 1559 1295.81 1564 Q1291.45 1568.97 1283.81 1568.97 Q1276.14 1568.97 1271.78 1564 Q1267.45 1559 1267.45 1550.25 Q1267.45 1541.47 1271.78 1536.5 Q1276.14 1531.54 1283.81 1531.54 Z" fill="#000000" fill-rule="nonzero" fill-opacity="1" /><path clip-path="url(#clip650)" d="M1339.51 1546.53 L1339.51 1568.04 L1333.66 1568.04 L1333.66 1546.72 Q1333.66 1541.66 1331.68 1539.14 Q1329.71 1536.63 1325.76 1536.63 Q1321.02 1536.63 1318.28 1539.65 Q1315.55 1542.68 1315.55 1547.9 L1315.55 1568.04 L1309.66 1568.04 L1309.66 1532.4 L1315.55 1532.4 L1315.55 1537.93 Q1317.65 1534.72 1320.48 1533.13 Q1323.35 1531.54 1327.07 1531.54 Q1333.21 1531.54 1336.36 1535.36 Q1339.51 1539.14 1339.51 1546.53 Z" fill="#000000" fill-rule="nonzero" fill-opacity="1" /><path clip-path="url(#clip650)" d="M1373.92 1533.45 L1373.92 1538.98 Q1371.44 1537.71 1368.76 1537.07 Q1366.09 1536.44 1363.23 1536.44 Q1358.87 1536.44 1356.67 1537.77 Q1354.51 1539.11 1354.51 1541.79 Q1354.51 1543.82 1356.06 1545 Q1357.62 1546.15 1362.33 1547.2 L1364.34 1547.64 Q1370.58 1548.98 1373.19 1551.43 Q1375.83 1553.85 1375.83 1558.21 Q1375.83 1563.17 1371.88 1566.07 Q1367.97 1568.97 1361.09 1568.97 Q1358.23 1568.97 1355.11 1568.39 Q1352.02 1567.85 1348.59 1566.74 L1348.59 1560.69 Q1351.83 1562.38 1354.98 1563.24 Q1358.13 1564.07 1361.22 1564.07 Q1365.36 1564.07 1367.59 1562.66 Q1369.81 1561.23 1369.81 1558.65 Q1369.81 1556.27 1368.19 1554.99 Q1366.6 1553.72 1361.16 1552.54 L1359.12 1552.07 Q1353.68 1550.92 1351.26 1548.56 Q1348.84 1546.18 1348.84 1542.04 Q1348.84 1537.01 1352.4 1534.27 Q1355.97 1531.54 1362.53 1531.54 Q1365.77 1531.54 1368.64 1532.01 Q1371.5 1532.49 1373.92 1533.45 Z" fill="#000000" fill-rule="nonzero" fill-opacity="1" /><path clip-path="url(#clip650)" d="M1416.28 1520.52 L1421.7 1520.52 L1405.14 1574.09 L1399.73 1574.09 L1416.28 1520.52 Z" fill="#000000" fill-rule="nonzero" fill-opacity="1" /><path clip-path="url(#clip650)" d="M1450.5 1562.63 L1461 1562.63 L1461 1526.38 L1449.58 1528.67 L1449.58 1522.82 L1460.94 1520.52 L1467.37 1520.52 L1467.37 1562.63 L1477.87 1562.63 L1477.87 1568.04 L1450.5 1568.04 L1450.5 1562.63 Z" fill="#000000" fill-rule="nonzero" fill-opacity="1" /><path clip-path="url(#clip650)" d="M1504.61 1524.76 Q1499.64 1524.76 1497.13 1529.66 Q1494.65 1534.53 1494.65 1544.33 Q1494.65 1554.1 1497.13 1559 Q1499.64 1563.87 1504.61 1563.87 Q1509.61 1563.87 1512.09 1559 Q1514.6 1554.1 1514.6 1544.33 Q1514.6 1534.53 1512.09 1529.66 Q1509.61 1524.76 1504.61 1524.76 M1504.61 1519.66 Q1512.6 1519.66 1516.8 1526 Q1521.03 1532.3 1521.03 1544.33 Q1521.03 1556.33 1516.8 1562.66 Q1512.6 1568.97 1504.61 1568.97 Q1496.62 1568.97 1492.39 1562.66 Q1488.19 1556.33 1488.19 1544.33 Q1488.19 1532.3 1492.39 1526 Q1496.62 1519.66 1504.61 1519.66 Z" fill="#000000" fill-rule="nonzero" fill-opacity="1" /><path clip-path="url(#clip650)" d="M1546.08 1524.76 Q1541.12 1524.76 1538.6 1529.66 Q1536.12 1534.53 1536.12 1544.33 Q1536.12 1554.1 1538.6 1559 Q1541.12 1563.87 1546.08 1563.87 Q1551.08 1563.87 1553.56 1559 Q1556.08 1554.1 1556.08 1544.33 Q1556.08 1534.53 1553.56 1529.66 Q1551.08 1524.76 1546.08 1524.76 M1546.08 1519.66 Q1554.07 1519.66 1558.27 1526 Q1562.5 1532.3 1562.5 1544.33 Q1562.5 1556.33 1558.27 1562.66 Q1554.07 1568.97 1546.08 1568.97 Q1538.09 1568.97 1533.86 1562.66 Q1529.66 1556.33 1529.66 1544.33 Q1529.66 1532.3 1533.86 1526 Q1538.09 1519.66 1546.08 1519.66 Z" fill="#000000" fill-rule="nonzero" fill-opacity="1" /><path clip-path="url(#clip650)" d="M1587.55 1524.76 Q1582.59 1524.76 1580.07 1529.66 Q1577.59 1534.53 1577.59 1544.33 Q1577.59 1554.1 1580.07 1559 Q1582.59 1563.87 1587.55 1563.87 Q1592.55 1563.87 1595.03 1559 Q1597.55 1554.1 1597.55 1544.33 Q1597.55 1534.53 1595.03 1529.66 Q1592.55 1524.76 1587.55 1524.76 M1587.55 1519.66 Q1595.54 1519.66 1599.74 1526 Q1603.98 1532.3 1603.98 1544.33 Q1603.98 1556.33 1599.74 1562.66 Q1595.54 1568.97 1587.55 1568.97 Q1579.56 1568.97 1575.33 1562.66 Q1571.13 1556.33 1571.13 1544.33 Q1571.13 1532.3 1575.33 1526 Q1579.56 1519.66 1587.55 1519.66 Z" fill="#000000" fill-rule="nonzero" fill-opacity="1" /><path clip-path="url(#clip650)" d="M1629.03 1524.76 Q1624.06 1524.76 1621.55 1529.66 Q1619.06 1534.53 1619.06 1544.33 Q1619.06 1554.1 1621.55 1559 Q1624.06 1563.87 1629.03 1563.87 Q1634.02 1563.87 1636.51 1559 Q1639.02 1554.1 1639.02 1544.33 Q1639.02 1534.53 1636.51 1529.66 Q1634.02 1524.76 1629.03 1524.76 M1629.03 1519.66 Q1637.02 1519.66 1641.22 1526 Q1645.45 1532.3 1645.45 1544.33 Q1645.45 1556.33 1641.22 1562.66 Q1637.02 1568.97 1629.03 1568.97 Q1621.04 1568.97 1616.8 1562.66 Q1612.6 1556.33 1612.6 1544.33 Q1612.6 1532.3 1616.8 1526 Q1621.04 1519.66 1629.03 1519.66 Z" fill="#000000" fill-rule="nonzero" fill-opacity="1" /><path clip-path="url(#clip650)" d="M1670.5 1524.76 Q1665.53 1524.76 1663.02 1529.66 Q1660.54 1534.53 1660.54 1544.33 Q1660.54 1554.1 1663.02 1559 Q1665.53 1563.87 1670.5 1563.87 Q1675.5 1563.87 1677.98 1559 Q1680.49 1554.1 1680.49 1544.33 Q1680.49 1534.53 1677.98 1529.66 Q1675.5 1524.76 1670.5 1524.76 M1670.5 1519.66 Q1678.49 1519.66 1682.69 1526 Q1686.92 1532.3 1686.92 1544.33 Q1686.92 1556.33 1682.69 1562.66 Q1678.49 1568.97 1670.5 1568.97 Q1662.51 1568.97 1658.28 1562.66 Q1654.08 1556.33 1654.08 1544.33 Q1654.08 1532.3 1658.28 1526 Q1662.51 1519.66 1670.5 1519.66 Z" fill="#000000" fill-rule="nonzero" fill-opacity="1" /><polyline clip-path="url(#clip650)" style="stroke:#000000; stroke-linecap:round; stroke-linejoin:round; stroke-width:4; stroke-opacity:1; fill:none" points="257.204,1423.18 257.204,123.472 "/>
<polyline clip-path="url(#clip650)" style="stroke:#000000; stroke-linecap:round; stroke-linejoin:round; stroke-width:4; stroke-opacity:1; fill:none" points="257.204,1386.4 276.102,1386.4 "/>
<polyline clip-path="url(#clip650)" style="stroke:#000000; stroke-linecap:round; stroke-linejoin:round; stroke-width:4; stroke-opacity:1; fill:none" points="257.204,1062.71 276.102,1062.71 "/>
<polyline clip-path="url(#clip650)" style="stroke:#000000; stroke-linecap:round; stroke-linejoin:round; stroke-width:4; stroke-opacity:1; fill:none" points="257.204,739.015 276.102,739.015 "/>
<polyline clip-path="url(#clip650)" style="stroke:#000000; stroke-linecap:round; stroke-linejoin:round; stroke-width:4; stroke-opacity:1; fill:none" points="257.204,415.324 276.102,415.324 "/>
<path clip-path="url(#clip650)" d="M114.26 1386.85 L143.936 1386.85 L143.936 1390.78 L114.26 1390.78 L114.26 1386.85 Z" fill="#000000" fill-rule="nonzero" fill-opacity="1" /><path clip-path="url(#clip650)" d="M158.056 1399.74 L174.376 1399.74 L174.376 1403.68 L152.431 1403.68 L152.431 1399.74 Q155.093 1396.99 159.677 1392.36 Q164.283 1387.7 165.464 1386.36 Q167.709 1383.84 168.589 1382.1 Q169.491 1380.34 169.491 1378.65 Q169.491 1375.9 167.547 1374.16 Q165.626 1372.43 162.524 1372.43 Q160.325 1372.43 157.871 1373.19 Q155.44 1373.95 152.663 1375.5 L152.663 1370.78 Q155.487 1369.65 157.94 1369.07 Q160.394 1368.49 162.431 1368.49 Q167.802 1368.49 170.996 1371.18 Q174.19 1373.86 174.19 1378.35 Q174.19 1380.48 173.38 1382.4 Q172.593 1384.3 170.487 1386.89 Q169.908 1387.56 166.806 1390.78 Q163.704 1393.98 158.056 1399.74 Z" fill="#000000" fill-rule="nonzero" fill-opacity="1" /><path clip-path="url(#clip650)" d="M184.19 1397.8 L189.075 1397.8 L189.075 1403.68 L184.19 1403.68 L184.19 1397.8 Z" fill="#000000" fill-rule="nonzero" fill-opacity="1" /><path clip-path="url(#clip650)" d="M209.26 1372.19 Q205.649 1372.19 203.82 1375.76 Q202.014 1379.3 202.014 1386.43 Q202.014 1393.54 203.82 1397.1 Q205.649 1400.64 209.26 1400.64 Q212.894 1400.64 214.699 1397.1 Q216.528 1393.54 216.528 1386.43 Q216.528 1379.3 214.699 1375.76 Q212.894 1372.19 209.26 1372.19 M209.26 1368.49 Q215.07 1368.49 218.125 1373.1 Q221.204 1377.68 221.204 1386.43 Q221.204 1395.16 218.125 1399.76 Q215.07 1404.35 209.26 1404.35 Q203.449 1404.35 200.371 1399.76 Q197.315 1395.16 197.315 1386.43 Q197.315 1377.68 200.371 1373.1 Q203.449 1368.49 209.26 1368.49 Z" fill="#000000" fill-rule="nonzero" fill-opacity="1" /><path clip-path="url(#clip650)" d="M115.256 1063.16 L144.931 1063.16 L144.931 1067.09 L115.256 1067.09 L115.256 1063.16 Z" fill="#000000" fill-rule="nonzero" fill-opacity="1" /><path clip-path="url(#clip650)" d="M155.834 1076.05 L163.473 1076.05 L163.473 1049.68 L155.163 1051.35 L155.163 1047.09 L163.427 1045.43 L168.102 1045.43 L168.102 1076.05 L175.741 1076.05 L175.741 1079.99 L155.834 1079.99 L155.834 1076.05 Z" fill="#000000" fill-rule="nonzero" fill-opacity="1" /><path clip-path="url(#clip650)" d="M185.186 1074.11 L190.07 1074.11 L190.07 1079.99 L185.186 1079.99 L185.186 1074.11 Z" fill="#000000" fill-rule="nonzero" fill-opacity="1" /><path clip-path="url(#clip650)" d="M200.301 1045.43 L218.658 1045.43 L218.658 1049.36 L204.584 1049.36 L204.584 1057.83 Q205.602 1057.49 206.621 1057.32 Q207.639 1057.14 208.658 1057.14 Q214.445 1057.14 217.824 1060.31 Q221.204 1063.48 221.204 1068.9 Q221.204 1074.48 217.732 1077.58 Q214.26 1080.66 207.94 1080.66 Q205.764 1080.66 203.496 1080.29 Q201.25 1079.92 198.843 1079.18 L198.843 1074.48 Q200.926 1075.61 203.149 1076.17 Q205.371 1076.72 207.848 1076.72 Q211.852 1076.72 214.19 1074.61 Q216.528 1072.51 216.528 1068.9 Q216.528 1065.29 214.19 1063.18 Q211.852 1061.07 207.848 1061.07 Q205.973 1061.07 204.098 1061.49 Q202.246 1061.91 200.301 1062.79 L200.301 1045.43 Z" fill="#000000" fill-rule="nonzero" fill-opacity="1" /><path clip-path="url(#clip650)" d="M114.26 739.466 L143.936 739.466 L143.936 743.401 L114.26 743.401 L114.26 739.466 Z" fill="#000000" fill-rule="nonzero" fill-opacity="1" /><path clip-path="url(#clip650)" d="M154.839 752.36 L162.477 752.36 L162.477 725.994 L154.167 727.661 L154.167 723.401 L162.431 721.735 L167.107 721.735 L167.107 752.36 L174.746 752.36 L174.746 756.295 L154.839 756.295 L154.839 752.36 Z" fill="#000000" fill-rule="nonzero" fill-opacity="1" /><path clip-path="url(#clip650)" d="M184.19 750.415 L189.075 750.415 L189.075 756.295 L184.19 756.295 L184.19 750.415 Z" fill="#000000" fill-rule="nonzero" fill-opacity="1" /><path clip-path="url(#clip650)" d="M209.26 724.813 Q205.649 724.813 203.82 728.378 Q202.014 731.92 202.014 739.05 Q202.014 746.156 203.82 749.721 Q205.649 753.262 209.26 753.262 Q212.894 753.262 214.699 749.721 Q216.528 746.156 216.528 739.05 Q216.528 731.92 214.699 728.378 Q212.894 724.813 209.26 724.813 M209.26 721.11 Q215.07 721.11 218.125 725.716 Q221.204 730.3 221.204 739.05 Q221.204 747.776 218.125 752.383 Q215.07 756.966 209.26 756.966 Q203.449 756.966 200.371 752.383 Q197.315 747.776 197.315 739.05 Q197.315 730.3 200.371 725.716 Q203.449 721.11 209.26 721.11 Z" fill="#000000" fill-rule="nonzero" fill-opacity="1" /><path clip-path="url(#clip650)" d="M115.256 415.776 L144.931 415.776 L144.931 419.711 L115.256 419.711 L115.256 415.776 Z" fill="#000000" fill-rule="nonzero" fill-opacity="1" /><path clip-path="url(#clip650)" d="M165.024 401.123 Q161.413 401.123 159.584 404.688 Q157.778 408.229 157.778 415.359 Q157.778 422.466 159.584 426.03 Q161.413 429.572 165.024 429.572 Q168.658 429.572 170.464 426.03 Q172.292 422.466 172.292 415.359 Q172.292 408.229 170.464 404.688 Q168.658 401.123 165.024 401.123 M165.024 397.419 Q170.834 397.419 173.889 402.026 Q176.968 406.609 176.968 415.359 Q176.968 424.086 173.889 428.692 Q170.834 433.276 165.024 433.276 Q159.214 433.276 156.135 428.692 Q153.079 424.086 153.079 415.359 Q153.079 406.609 156.135 402.026 Q159.214 397.419 165.024 397.419 Z" fill="#000000" fill-rule="nonzero" fill-opacity="1" /><path clip-path="url(#clip650)" d="M185.186 426.725 L190.07 426.725 L190.07 432.604 L185.186 432.604 L185.186 426.725 Z" fill="#000000" fill-rule="nonzero" fill-opacity="1" /><path clip-path="url(#clip650)" d="M200.301 398.044 L218.658 398.044 L218.658 401.98 L204.584 401.98 L204.584 410.452 Q205.602 410.104 206.621 409.942 Q207.639 409.757 208.658 409.757 Q214.445 409.757 217.824 412.929 Q221.204 416.1 221.204 421.516 Q221.204 427.095 217.732 430.197 Q214.26 433.276 207.94 433.276 Q205.764 433.276 203.496 432.905 Q201.25 432.535 198.843 431.794 L198.843 427.095 Q200.926 428.229 203.149 428.785 Q205.371 429.34 207.848 429.34 Q211.852 429.34 214.19 427.234 Q216.528 425.128 216.528 421.516 Q216.528 417.905 214.19 415.799 Q211.852 413.692 207.848 413.692 Q205.973 413.692 204.098 414.109 Q202.246 414.526 200.301 415.405 L200.301 398.044 Z" fill="#000000" fill-rule="nonzero" fill-opacity="1" /><path clip-path="url(#clip650)" d="M22.818 862 L46.4666 870.721 L46.4666 853.247 L22.818 862 M16.4842 865.629 L16.4842 858.34 L64.0042 840.23 L64.0042 846.914 L51.8138 851.242 L51.8138 872.663 L64.0042 876.992 L64.0042 883.771 L16.4842 865.629 Z" fill="#000000" fill-rule="nonzero" fill-opacity="1" /><path clip-path="url(#clip650)" d="M28.3562 841.566 L28.3562 835.36 L58.275 824.22 L28.3562 813.08 L28.3562 806.873 L64.0042 820.241 L64.0042 828.198 L28.3562 841.566 Z" fill="#000000" fill-rule="nonzero" fill-opacity="1" /><path clip-path="url(#clip650)" d="M55.9197 803.022 L55.9197 796.306 L64.0042 796.306 L64.0042 803.022 L55.9197 803.022 Z" fill="#000000" fill-rule="nonzero" fill-opacity="1" /><path clip-path="url(#clip650)" d="M16.4842 762.154 L16.4842 732.108 L21.895 732.108 L21.895 755.725 L35.9632 755.725 L35.9632 733.095 L41.3741 733.095 L41.3741 755.725 L58.5933 755.725 L58.5933 731.535 L64.0042 731.535 L64.0042 762.154 L16.4842 762.154 Z" fill="#000000" fill-rule="nonzero" fill-opacity="1" /><path clip-path="url(#clip650)" d="M14.5426 707.154 Q21.8632 711.419 29.0246 713.488 Q36.186 715.557 43.5384 715.557 Q50.8908 715.557 58.1159 713.488 Q65.3091 711.388 72.5979 707.154 L72.5979 712.247 Q65.1182 717.021 57.8931 719.408 Q50.668 721.764 43.5384 721.764 Q36.4406 721.764 29.2474 719.408 Q22.0542 717.053 14.5426 712.247 L14.5426 707.154 Z" fill="#000000" fill-rule="nonzero" fill-opacity="1" /><path clip-path="url(#clip650)" d="M16.4842 695.537 L16.4842 689.108 L60.694 689.108 Q69.2877 689.108 73.1708 692.386 Q77.0539 695.633 77.0539 702.858 L77.0539 705.308 L71.643 705.308 L71.643 703.303 Q71.643 699.038 69.2559 697.288 Q66.8687 695.537 60.694 695.537 L16.4842 695.537 Z" fill="#000000" fill-rule="nonzero" fill-opacity="1" /><path clip-path="url(#clip650)" d="M14.5426 677.49 L14.5426 672.398 Q22.0542 667.623 29.2474 665.268 Q36.4406 662.881 43.5384 662.881 Q50.668 662.881 57.8931 665.268 Q65.1182 667.623 72.5979 672.398 L72.5979 677.49 Q65.3091 673.257 58.1159 671.188 Q50.8908 669.088 43.5384 669.088 Q36.186 669.088 29.0246 671.188 Q21.8632 673.257 14.5426 677.49 Z" fill="#000000" fill-rule="nonzero" fill-opacity="1" /><path clip-path="url(#clip650)" d="M600.447 20.1573 L589.347 50.2555 L611.587 50.2555 L600.447 20.1573 M595.829 12.096 L605.105 12.096 L628.155 72.576 L619.648 72.576 L614.139 57.061 L586.876 57.061 L581.367 72.576 L572.739 72.576 L595.829 12.096 Z" fill="#000000" fill-rule="nonzero" fill-opacity="1" /><path clip-path="url(#clip650)" d="M626.454 27.2059 L634.353 27.2059 L648.531 65.2844 L662.709 27.2059 L670.608 27.2059 L653.595 72.576 L643.467 72.576 L626.454 27.2059 Z" fill="#000000" fill-rule="nonzero" fill-opacity="1" /><path clip-path="url(#clip650)" d="M719.705 48.0275 L719.705 51.6733 L685.435 51.6733 Q685.921 59.3701 690.053 63.421 Q694.225 67.4314 701.638 67.4314 Q705.932 67.4314 709.943 66.3781 Q713.994 65.3249 717.963 63.2184 L717.963 70.267 Q713.953 71.9684 709.74 72.8596 Q705.527 73.7508 701.193 73.7508 Q690.336 73.7508 683.976 67.4314 Q677.657 61.1119 677.657 50.3365 Q677.657 39.1965 683.652 32.6746 Q689.688 26.1121 699.896 26.1121 Q709.051 26.1121 714.358 32.0264 Q719.705 37.9003 719.705 48.0275 M712.252 45.84 Q712.171 39.7232 708.808 36.0774 Q705.487 32.4315 699.977 32.4315 Q693.739 32.4315 689.972 35.9558 Q686.245 39.4801 685.678 45.8805 L712.252 45.84 Z" fill="#000000" fill-rule="nonzero" fill-opacity="1" /><path clip-path="url(#clip650)" d="M758.229 34.1734 Q756.974 33.4443 755.475 33.1202 Q754.016 32.7556 752.234 32.7556 Q745.915 32.7556 742.512 36.8875 Q739.15 40.9789 739.15 48.6757 L739.15 72.576 L731.655 72.576 L731.655 27.2059 L739.15 27.2059 L739.15 34.2544 Q741.499 30.1225 745.267 28.1376 Q749.034 26.1121 754.422 26.1121 Q755.191 26.1121 756.123 26.2337 Q757.055 26.3147 758.189 26.5172 L758.229 34.1734 Z" fill="#000000" fill-rule="nonzero" fill-opacity="1" /><path clip-path="url(#clip650)" d="M786.667 49.7694 Q777.633 49.7694 774.149 51.8354 Q770.666 53.9013 770.666 58.8839 Q770.666 62.8538 773.258 65.2034 Q775.891 67.5124 780.388 67.5124 Q786.586 67.5124 790.313 63.1374 Q794.08 58.7219 794.08 51.4303 L794.08 49.7694 L786.667 49.7694 M801.534 46.6907 L801.534 72.576 L794.08 72.576 L794.08 65.6895 Q791.528 69.8214 787.72 71.8063 Q783.912 73.7508 778.403 73.7508 Q771.435 73.7508 767.303 69.8619 Q763.212 65.9325 763.212 59.3701 Q763.212 51.7138 768.316 47.825 Q773.461 43.9361 783.629 43.9361 L794.08 43.9361 L794.08 43.2069 Q794.08 38.0623 790.677 35.2672 Q787.315 32.4315 781.198 32.4315 Q777.309 32.4315 773.623 33.3632 Q769.937 34.295 766.534 36.1584 L766.534 29.2718 Q770.625 27.692 774.474 26.9223 Q778.322 26.1121 781.968 26.1121 Q791.811 26.1121 796.673 31.2163 Q801.534 36.3204 801.534 46.6907 Z" fill="#000000" fill-rule="nonzero" fill-opacity="1" /><path clip-path="url(#clip650)" d="M846.742 49.3643 Q846.742 41.2625 843.379 36.8065 Q840.058 32.3505 834.022 32.3505 Q828.027 32.3505 824.664 36.8065 Q821.343 41.2625 821.343 49.3643 Q821.343 57.4256 824.664 61.8816 Q828.027 66.3376 834.022 66.3376 Q840.058 66.3376 843.379 61.8816 Q846.742 57.4256 846.742 49.3643 M854.195 66.9452 Q854.195 78.5308 849.051 84.1616 Q843.906 89.8329 833.293 89.8329 Q829.363 89.8329 825.88 89.2252 Q822.396 88.6581 819.115 87.4428 L819.115 80.1917 Q822.396 81.9741 825.596 82.8248 Q828.796 83.6755 832.118 83.6755 Q839.45 83.6755 843.096 79.8271 Q846.742 76.0193 846.742 68.282 L846.742 64.5957 Q844.433 68.6061 840.827 70.5911 Q837.222 72.576 832.199 72.576 Q823.854 72.576 818.75 66.2161 Q813.646 59.8562 813.646 49.3643 Q813.646 38.832 818.75 32.472 Q823.854 26.1121 832.199 26.1121 Q837.222 26.1121 840.827 28.0971 Q844.433 30.082 846.742 34.0924 L846.742 27.2059 L854.195 27.2059 L854.195 66.9452 Z" fill="#000000" fill-rule="nonzero" fill-opacity="1" /><path clip-path="url(#clip650)" d="M908.356 48.0275 L908.356 51.6733 L874.085 51.6733 Q874.571 59.3701 878.703 63.421 Q882.876 67.4314 890.289 67.4314 Q894.583 67.4314 898.593 66.3781 Q902.644 65.3249 906.614 63.2184 L906.614 70.267 Q902.604 71.9684 898.391 72.8596 Q894.178 73.7508 889.843 73.7508 Q878.987 73.7508 872.627 67.4314 Q866.308 61.1119 866.308 50.3365 Q866.308 39.1965 872.303 32.6746 Q878.339 26.1121 888.547 26.1121 Q897.702 26.1121 903.009 32.0264 Q908.356 37.9003 908.356 48.0275 M900.902 45.84 Q900.821 39.7232 897.459 36.0774 Q894.137 32.4315 888.628 32.4315 Q882.39 32.4315 878.622 35.9558 Q874.895 39.4801 874.328 45.8805 L900.902 45.84 Z" fill="#000000" fill-rule="nonzero" fill-opacity="1" /><path clip-path="url(#clip650)" d="M947.285 12.096 L985.526 12.096 L985.526 18.9825 L955.468 18.9825 L955.468 36.8875 L984.27 36.8875 L984.27 43.7741 L955.468 43.7741 L955.468 65.6895 L986.255 65.6895 L986.255 72.576 L947.285 72.576 L947.285 12.096 Z" fill="#000000" fill-rule="nonzero" fill-opacity="1" /><path clip-path="url(#clip650)" d="M1037.09 45.1919 L1037.09 72.576 L1029.64 72.576 L1029.64 45.4349 Q1029.64 38.994 1027.13 35.7938 Q1024.62 32.5936 1019.59 32.5936 Q1013.56 32.5936 1010.07 36.4419 Q1006.59 40.2903 1006.59 46.9338 L1006.59 72.576 L999.096 72.576 L999.096 27.2059 L1006.59 27.2059 L1006.59 34.2544 Q1009.26 30.163 1012.87 28.1376 Q1016.52 26.1121 1021.25 26.1121 Q1029.07 26.1121 1033.08 30.9732 Q1037.09 35.7938 1037.09 45.1919 Z" fill="#000000" fill-rule="nonzero" fill-opacity="1" /><path clip-path="url(#clip650)" d="M1090.77 48.0275 L1090.77 51.6733 L1056.5 51.6733 Q1056.98 59.3701 1061.12 63.421 Q1065.29 67.4314 1072.7 67.4314 Q1077 67.4314 1081.01 66.3781 Q1085.06 65.3249 1089.03 63.2184 L1089.03 70.267 Q1085.02 71.9684 1080.8 72.8596 Q1076.59 73.7508 1072.26 73.7508 Q1061.4 73.7508 1055.04 67.4314 Q1048.72 61.1119 1048.72 50.3365 Q1048.72 39.1965 1054.72 32.6746 Q1060.75 26.1121 1070.96 26.1121 Q1080.11 26.1121 1085.42 32.0264 Q1090.77 37.9003 1090.77 48.0275 M1083.31 45.84 Q1083.23 39.7232 1079.87 36.0774 Q1076.55 32.4315 1071.04 32.4315 Q1064.8 32.4315 1061.03 35.9558 Q1057.31 39.4801 1056.74 45.8805 L1083.31 45.84 Z" fill="#000000" fill-rule="nonzero" fill-opacity="1" /><path clip-path="url(#clip650)" d="M1129.29 34.1734 Q1128.04 33.4443 1126.54 33.1202 Q1125.08 32.7556 1123.3 32.7556 Q1116.98 32.7556 1113.57 36.8875 Q1110.21 40.9789 1110.21 48.6757 L1110.21 72.576 L1102.72 72.576 L1102.72 27.2059 L1110.21 27.2059 L1110.21 34.2544 Q1112.56 30.1225 1116.33 28.1376 Q1120.1 26.1121 1125.48 26.1121 Q1126.25 26.1121 1127.19 26.2337 Q1128.12 26.3147 1129.25 26.5172 L1129.29 34.1734 Z" fill="#000000" fill-rule="nonzero" fill-opacity="1" /><path clip-path="url(#clip650)" d="M1165.51 49.3643 Q1165.51 41.2625 1162.15 36.8065 Q1158.82 32.3505 1152.79 32.3505 Q1146.79 32.3505 1143.43 36.8065 Q1140.11 41.2625 1140.11 49.3643 Q1140.11 57.4256 1143.43 61.8816 Q1146.79 66.3376 1152.79 66.3376 Q1158.82 66.3376 1162.15 61.8816 Q1165.51 57.4256 1165.51 49.3643 M1172.96 66.9452 Q1172.96 78.5308 1167.82 84.1616 Q1162.67 89.8329 1152.06 89.8329 Q1148.13 89.8329 1144.65 89.2252 Q1141.16 88.6581 1137.88 87.4428 L1137.88 80.1917 Q1141.16 81.9741 1144.36 82.8248 Q1147.56 83.6755 1150.88 83.6755 Q1158.22 83.6755 1161.86 79.8271 Q1165.51 76.0193 1165.51 68.282 L1165.51 64.5957 Q1163.2 68.6061 1159.59 70.5911 Q1155.99 72.576 1150.96 72.576 Q1142.62 72.576 1137.52 66.2161 Q1132.41 59.8562 1132.41 49.3643 Q1132.41 38.832 1137.52 32.472 Q1142.62 26.1121 1150.96 26.1121 Q1155.99 26.1121 1159.59 28.0971 Q1163.2 30.082 1165.51 34.0924 L1165.51 27.2059 L1172.96 27.2059 L1172.96 66.9452 Z" fill="#000000" fill-rule="nonzero" fill-opacity="1" /><path clip-path="url(#clip650)" d="M1207.19 76.7889 Q1204.03 84.8907 1201.03 87.3618 Q1198.04 89.8329 1193.01 89.8329 L1187.06 89.8329 L1187.06 83.5945 L1191.43 83.5945 Q1194.51 83.5945 1196.21 82.1361 Q1197.91 80.6778 1199.98 75.2496 L1201.32 71.8468 L1182.97 27.2059 L1190.87 27.2059 L1205.04 62.6918 L1219.22 27.2059 L1227.12 27.2059 L1207.19 76.7889 Z" fill="#000000" fill-rule="nonzero" fill-opacity="1" /><path clip-path="url(#clip650)" d="M1281.36 32.4315 Q1275.37 32.4315 1271.88 37.1306 Q1268.4 41.7891 1268.4 49.9314 Q1268.4 58.0738 1271.84 62.7728 Q1275.33 67.4314 1281.36 67.4314 Q1287.32 67.4314 1290.8 62.7323 Q1294.29 58.0333 1294.29 49.9314 Q1294.29 41.8701 1290.8 37.1711 Q1287.32 32.4315 1281.36 32.4315 M1281.36 26.1121 Q1291.09 26.1121 1296.64 32.4315 Q1302.18 38.7509 1302.18 49.9314 Q1302.18 61.0714 1296.64 67.4314 Q1291.09 73.7508 1281.36 73.7508 Q1271.6 73.7508 1266.05 67.4314 Q1260.54 61.0714 1260.54 49.9314 Q1260.54 38.7509 1266.05 32.4315 Q1271.6 26.1121 1281.36 26.1121 Z" fill="#000000" fill-rule="nonzero" fill-opacity="1" /><path clip-path="url(#clip650)" d="M1309.19 27.2059 L1317.09 27.2059 L1331.27 65.2844 L1345.45 27.2059 L1353.35 27.2059 L1336.33 72.576 L1326.21 72.576 L1309.19 27.2059 Z" fill="#000000" fill-rule="nonzero" fill-opacity="1" /><path clip-path="url(#clip650)" d="M1402.44 48.0275 L1402.44 51.6733 L1368.17 51.6733 Q1368.66 59.3701 1372.79 63.421 Q1376.96 67.4314 1384.38 67.4314 Q1388.67 67.4314 1392.68 66.3781 Q1396.73 65.3249 1400.7 63.2184 L1400.7 70.267 Q1396.69 71.9684 1392.48 72.8596 Q1388.27 73.7508 1383.93 73.7508 Q1373.08 73.7508 1366.72 67.4314 Q1360.4 61.1119 1360.4 50.3365 Q1360.4 39.1965 1366.39 32.6746 Q1372.43 26.1121 1382.64 26.1121 Q1391.79 26.1121 1397.1 32.0264 Q1402.44 37.9003 1402.44 48.0275 M1394.99 45.84 Q1394.91 39.7232 1391.55 36.0774 Q1388.23 32.4315 1382.72 32.4315 Q1376.48 32.4315 1372.71 35.9558 Q1368.98 39.4801 1368.42 45.8805 L1394.99 45.84 Z" fill="#000000" fill-rule="nonzero" fill-opacity="1" /><path clip-path="url(#clip650)" d="M1440.97 34.1734 Q1439.71 33.4443 1438.21 33.1202 Q1436.76 32.7556 1434.97 32.7556 Q1428.65 32.7556 1425.25 36.8875 Q1421.89 40.9789 1421.89 48.6757 L1421.89 72.576 L1414.39 72.576 L1414.39 27.2059 L1421.89 27.2059 L1421.89 34.2544 Q1424.24 30.1225 1428.01 28.1376 Q1431.77 26.1121 1437.16 26.1121 Q1437.93 26.1121 1438.86 26.2337 Q1439.79 26.3147 1440.93 26.5172 L1440.97 34.1734 Z" fill="#000000" fill-rule="nonzero" fill-opacity="1" /><path clip-path="url(#clip650)" d="M1513.97 48.0275 L1513.97 51.6733 L1479.7 51.6733 Q1480.18 59.3701 1484.31 63.421 Q1488.49 67.4314 1495.9 67.4314 Q1500.19 67.4314 1504.2 66.3781 Q1508.25 65.3249 1512.22 63.2184 L1512.22 70.267 Q1508.21 71.9684 1504 72.8596 Q1499.79 73.7508 1495.45 73.7508 Q1484.6 73.7508 1478.24 67.4314 Q1471.92 61.1119 1471.92 50.3365 Q1471.92 39.1965 1477.91 32.6746 Q1483.95 26.1121 1494.16 26.1121 Q1503.31 26.1121 1508.62 32.0264 Q1513.97 37.9003 1513.97 48.0275 M1506.51 45.84 Q1506.43 39.7232 1503.07 36.0774 Q1499.75 32.4315 1494.24 32.4315 Q1488 32.4315 1484.23 35.9558 Q1480.51 39.4801 1479.94 45.8805 L1506.51 45.84 Z" fill="#000000" fill-rule="nonzero" fill-opacity="1" /><path clip-path="url(#clip650)" d="M1546.82 49.7694 Q1537.79 49.7694 1534.3 51.8354 Q1530.82 53.9013 1530.82 58.8839 Q1530.82 62.8538 1533.41 65.2034 Q1536.04 67.5124 1540.54 67.5124 Q1546.74 67.5124 1550.46 63.1374 Q1554.23 58.7219 1554.23 51.4303 L1554.23 49.7694 L1546.82 49.7694 M1561.69 46.6907 L1561.69 72.576 L1554.23 72.576 L1554.23 65.6895 Q1551.68 69.8214 1547.87 71.8063 Q1544.06 73.7508 1538.56 73.7508 Q1531.59 73.7508 1527.46 69.8619 Q1523.36 65.9325 1523.36 59.3701 Q1523.36 51.7138 1528.47 47.825 Q1533.61 43.9361 1543.78 43.9361 L1554.23 43.9361 L1554.23 43.2069 Q1554.23 38.0623 1550.83 35.2672 Q1547.47 32.4315 1541.35 32.4315 Q1537.46 32.4315 1533.78 33.3632 Q1530.09 34.295 1526.69 36.1584 L1526.69 29.2718 Q1530.78 27.692 1534.63 26.9223 Q1538.47 26.1121 1542.12 26.1121 Q1551.96 26.1121 1556.82 31.2163 Q1561.69 36.3204 1561.69 46.6907 Z" fill="#000000" fill-rule="nonzero" fill-opacity="1" /><path clip-path="url(#clip650)" d="M1609.69 28.9478 L1609.69 35.9153 Q1606.53 34.1734 1603.33 33.3227 Q1600.17 32.4315 1596.93 32.4315 Q1589.68 32.4315 1585.67 37.0496 Q1581.66 41.6271 1581.66 49.9314 Q1581.66 58.2358 1585.67 62.8538 Q1589.68 67.4314 1596.93 67.4314 Q1600.17 67.4314 1603.33 66.5807 Q1606.53 65.6895 1609.69 63.9476 L1609.69 70.8341 Q1606.57 72.2924 1603.21 73.0216 Q1599.89 73.7508 1596.12 73.7508 Q1585.87 73.7508 1579.83 67.3098 Q1573.8 60.8689 1573.8 49.9314 Q1573.8 38.832 1579.87 32.472 Q1585.99 26.1121 1596.6 26.1121 Q1600.05 26.1121 1603.33 26.8413 Q1606.61 27.5299 1609.69 28.9478 Z" fill="#000000" fill-rule="nonzero" fill-opacity="1" /><path clip-path="url(#clip650)" d="M1660.37 45.1919 L1660.37 72.576 L1652.91 72.576 L1652.91 45.4349 Q1652.91 38.994 1650.4 35.7938 Q1647.89 32.5936 1642.87 32.5936 Q1636.83 32.5936 1633.35 36.4419 Q1629.86 40.2903 1629.86 46.9338 L1629.86 72.576 L1622.37 72.576 L1622.37 9.54393 L1629.86 9.54393 L1629.86 34.2544 Q1632.54 30.163 1636.14 28.1376 Q1639.79 26.1121 1644.53 26.1121 Q1652.35 26.1121 1656.36 30.9732 Q1660.37 35.7938 1660.37 45.1919 Z" fill="#000000" fill-rule="nonzero" fill-opacity="1" /><path clip-path="url(#clip650)" d="M1701.6 27.2059 L1709.06 27.2059 L1709.06 72.576 L1701.6 72.576 L1701.6 27.2059 M1701.6 9.54393 L1709.06 9.54393 L1709.06 18.9825 L1701.6 18.9825 L1701.6 9.54393 Z" fill="#000000" fill-rule="nonzero" fill-opacity="1" /><path clip-path="url(#clip650)" d="M1732.03 14.324 L1732.03 27.2059 L1747.38 27.2059 L1747.38 32.9987 L1732.03 32.9987 L1732.03 57.6282 Q1732.03 63.1779 1733.53 64.7578 Q1735.06 66.3376 1739.72 66.3376 L1747.38 66.3376 L1747.38 72.576 L1739.72 72.576 Q1731.09 72.576 1727.81 69.3758 Q1724.53 66.1351 1724.53 57.6282 L1724.53 32.9987 L1719.06 32.9987 L1719.06 27.2059 L1724.53 27.2059 L1724.53 14.324 L1732.03 14.324 Z" fill="#000000" fill-rule="nonzero" fill-opacity="1" /><path clip-path="url(#clip650)" d="M1795.99 48.0275 L1795.99 51.6733 L1761.72 51.6733 Q1762.21 59.3701 1766.34 63.421 Q1770.51 67.4314 1777.92 67.4314 Q1782.22 67.4314 1786.23 66.3781 Q1790.28 65.3249 1794.25 63.2184 L1794.25 70.267 Q1790.24 71.9684 1786.02 72.8596 Q1781.81 73.7508 1777.48 73.7508 Q1766.62 73.7508 1760.26 67.4314 Q1753.94 61.1119 1753.94 50.3365 Q1753.94 39.1965 1759.94 32.6746 Q1765.97 26.1121 1776.18 26.1121 Q1785.34 26.1121 1790.64 32.0264 Q1795.99 37.9003 1795.99 48.0275 M1788.54 45.84 Q1788.46 39.7232 1785.09 36.0774 Q1781.77 32.4315 1776.26 32.4315 Q1770.02 32.4315 1766.26 35.9558 Q1762.53 39.4801 1761.96 45.8805 L1788.54 45.84 Z" fill="#000000" fill-rule="nonzero" fill-opacity="1" /><path clip-path="url(#clip650)" d="M1834.51 34.1734 Q1833.26 33.4443 1831.76 33.1202 Q1830.3 32.7556 1828.52 32.7556 Q1822.2 32.7556 1818.8 36.8875 Q1815.43 40.9789 1815.43 48.6757 L1815.43 72.576 L1807.94 72.576 L1807.94 27.2059 L1815.43 27.2059 L1815.43 34.2544 Q1817.78 30.1225 1821.55 28.1376 Q1825.32 26.1121 1830.71 26.1121 Q1831.48 26.1121 1832.41 26.2337 Q1833.34 26.3147 1834.47 26.5172 L1834.51 34.1734 Z" fill="#000000" fill-rule="nonzero" fill-opacity="1" /><path clip-path="url(#clip650)" d="M1862.95 49.7694 Q1853.92 49.7694 1850.43 51.8354 Q1846.95 53.9013 1846.95 58.8839 Q1846.95 62.8538 1849.54 65.2034 Q1852.18 67.5124 1856.67 67.5124 Q1862.87 67.5124 1866.6 63.1374 Q1870.36 58.7219 1870.36 51.4303 L1870.36 49.7694 L1862.95 49.7694 M1877.82 46.6907 L1877.82 72.576 L1870.36 72.576 L1870.36 65.6895 Q1867.81 69.8214 1864 71.8063 Q1860.2 73.7508 1854.69 73.7508 Q1847.72 73.7508 1843.59 69.8619 Q1839.5 65.9325 1839.5 59.3701 Q1839.5 51.7138 1844.6 47.825 Q1849.75 43.9361 1859.91 43.9361 L1870.36 43.9361 L1870.36 43.2069 Q1870.36 38.0623 1866.96 35.2672 Q1863.6 32.4315 1857.48 32.4315 Q1853.59 32.4315 1849.91 33.3632 Q1846.22 34.295 1842.82 36.1584 L1842.82 29.2718 Q1846.91 27.692 1850.76 26.9223 Q1854.61 26.1121 1858.25 26.1121 Q1868.1 26.1121 1872.96 31.2163 Q1877.82 36.3204 1877.82 46.6907 Z" fill="#000000" fill-rule="nonzero" fill-opacity="1" /><path clip-path="url(#clip650)" d="M1900.54 14.324 L1900.54 27.2059 L1915.9 27.2059 L1915.9 32.9987 L1900.54 32.9987 L1900.54 57.6282 Q1900.54 63.1779 1902.04 64.7578 Q1903.58 66.3376 1908.24 66.3376 L1915.9 66.3376 L1915.9 72.576 L1908.24 72.576 Q1899.61 72.576 1896.33 69.3758 Q1893.05 66.1351 1893.05 57.6282 L1893.05 32.9987 L1887.58 32.9987 L1887.58 27.2059 L1893.05 27.2059 L1893.05 14.324 L1900.54 14.324 Z" fill="#000000" fill-rule="nonzero" fill-opacity="1" /><path clip-path="url(#clip650)" d="M1925.7 27.2059 L1933.15 27.2059 L1933.15 72.576 L1925.7 72.576 L1925.7 27.2059 M1925.7 9.54393 L1933.15 9.54393 L1933.15 18.9825 L1925.7 18.9825 L1925.7 9.54393 Z" fill="#000000" fill-rule="nonzero" fill-opacity="1" /><path clip-path="url(#clip650)" d="M1966.33 32.4315 Q1960.34 32.4315 1956.85 37.1306 Q1953.37 41.7891 1953.37 49.9314 Q1953.37 58.0738 1956.81 62.7728 Q1960.29 67.4314 1966.33 67.4314 Q1972.29 67.4314 1975.77 62.7323 Q1979.25 58.0333 1979.25 49.9314 Q1979.25 41.8701 1975.77 37.1711 Q1972.29 32.4315 1966.33 32.4315 M1966.33 26.1121 Q1976.05 26.1121 1981.6 32.4315 Q1987.15 38.7509 1987.15 49.9314 Q1987.15 61.0714 1981.6 67.4314 Q1976.05 73.7508 1966.33 73.7508 Q1956.57 73.7508 1951.02 67.4314 Q1945.51 61.0714 1945.51 49.9314 Q1945.51 38.7509 1951.02 32.4315 Q1956.57 26.1121 1966.33 26.1121 Z" fill="#000000" fill-rule="nonzero" fill-opacity="1" /><path clip-path="url(#clip650)" d="M2037.22 45.1919 L2037.22 72.576 L2029.77 72.576 L2029.77 45.4349 Q2029.77 38.994 2027.26 35.7938 Q2024.74 32.5936 2019.72 32.5936 Q2013.69 32.5936 2010.2 36.4419 Q2006.72 40.2903 2006.72 46.9338 L2006.72 72.576 L1999.22 72.576 L1999.22 27.2059 L2006.72 27.2059 L2006.72 34.2544 Q2009.39 30.163 2013 28.1376 Q2016.64 26.1121 2021.38 26.1121 Q2029.2 26.1121 2033.21 30.9732 Q2037.22 35.7938 2037.22 45.1919 Z" fill="#000000" fill-rule="nonzero" fill-opacity="1" /><polyline clip-path="url(#clip652)" style="stroke:#009af9; stroke-linecap:round; stroke-linejoin:round; stroke-width:4; stroke-opacity:1; fill:none" points="316.512,160.256 318.986,203.242 321.461,215.931 323.935,224.735 326.409,248.818 328.883,290.509 331.358,284.294 333.832,301.385 336.306,325.986 338.78,353.435 341.255,357.319 343.729,361.721 346.203,370.267 348.678,392.537 351.152,406.52 353.626,405.484 356.1,403.154 358.575,406.779 361.049,408.074 363.523,405.743 365.997,402.377 368.472,409.368 370.946,421.539 373.42,421.798 375.894,428.79 378.369,433.71 380.843,423.611 383.317,430.344 385.791,424.129 388.266,440.443 390.74,444.586 393.214,449.765 395.689,466.597 398.163,477.991 400.637,481.616 403.111,479.027 405.586,477.214 408.06,478.509 410.534,483.17 413.008,483.947 415.483,485.759 417.957,492.751 420.431,503.368 422.905,511.914 425.38,518.646 427.854,521.495 430.328,531.335 432.802,541.175 435.277,552.051 437.751,565.258 440.225,574.58 442.699,578.464 445.174,576.652 447.648,583.384 450.122,583.384 452.597,590.894 455.071,596.85 457.545,598.404 460.019,615.753 462.494,622.745 464.968,624.299 467.442,629.478 469.916,627.924 472.391,628.96 474.865,633.621 477.339,631.809 479.813,641.649 482.288,644.238 484.762,643.202 487.236,654.855 489.71,667.285 492.185,678.679 494.659,677.125 497.133,677.125 499.608,694.475 502.082,702.503 504.556,699.136 507.03,700.949 509.505,707.941 511.979,716.745 514.453,712.861 516.927,726.326 519.402,726.585 521.876,719.075 524.35,710.53 526.824,711.566 529.299,720.111 531.773,733.059 534.247,739.533 536.721,747.301 539.196,746.265 541.67,753.257 544.144,764.91 546.619,774.232 549.093,772.42 551.567,780.188 554.041,788.734 556.516,787.698 558.99,793.395 561.464,794.69 563.938,807.119 566.413,809.45 568.887,819.29 571.361,821.103 573.835,818.513 576.31,819.29 578.784,816.442 581.258,817.736 583.732,812.816 586.207,812.298 588.681,813.852 591.155,824.21 593.63,829.907 596.104,836.64 598.578,840.265 601.052,852.436 603.527,850.105 606.001,856.579 608.475,850.623 610.949,856.061 613.424,863.83 615.898,873.929 618.372,872.634 620.846,884.805 623.321,888.948 625.795,896.458 628.269,908.37 630.743,923.389 633.218,937.89 635.692,942.033 638.166,944.882 640.64,947.73 643.115,954.722 645.589,954.463 648.063,958.347 650.538,952.909 653.012,961.455 655.486,965.339 657.96,966.634 660.435,971.813 662.909,979.84 665.383,983.466 667.857,988.904 670.332,997.967 672.806,995.896 675.28,1002.37 677.754,1016.09 680.229,1022.83 682.703,1019.2 685.177,1027.49 687.651,1035.26 690.126,1036.29 692.6,1044.06 695.074,1047.17 697.549,1053.12 700.023,1058.56 702.497,1061.93 704.971,1058.82 707.446,1069.18 709.92,1075.91 712.394,1081.61 714.868,1091.45 717.343,1090.93 719.817,1093.78 722.291,1104.4 724.765,1110.61 727.24,1120.19 729.714,1126.93 732.188,1135.73 734.662,1142.46 737.137,1149.71 739.611,1151.78 742.085,1151.01 744.56,1151.01 747.034,1149.71 749.508,1155.41 751.982,1160.33 754.457,1166.29 756.931,1172.24 759.405,1172.24 761.879,1177.68 764.354,1180.53 766.828,1190.63 769.302,1193.48 771.776,1200.21 774.251,1207.46 776.725,1216.52 779.199,1214.19 781.673,1209.27 784.148,1218.08 786.622,1232.84 789.096,1235.17 791.57,1235.43 794.045,1231.8 796.519,1239.31 798.993,1249.15 801.468,1253.04 803.942,1254.07 806.416,1254.33 808.89,1257.44 811.365,1257.44 813.839,1264.43 816.313,1268.31 818.787,1272.46 821.262,1273.49 823.736,1275.31 826.21,1276.08 828.684,1286.44 831.159,1289.29 833.633,1298.87 836.107,1303.79 838.581,1305.34 841.056,1308.71 843.53,1308.97 846.004,1314.15 848.479,1314.67 850.953,1323.21 853.427,1327.61 855.901,1333.31 858.376,1337.97 860.85,1346.52 863.324,1354.8 865.798,1359.72 868.273,1366.97 870.747,1373.19 873.221,1378.37 875.695,1381.99 878.17,1386.4 880.644,1386.4 883.118,1386.4 885.592,1386.4 888.067,1386.4 890.541,1386.4 893.015,1386.4 895.49,1386.4 897.964,1386.4 900.438,1386.4 902.912,1386.4 905.387,1386.4 907.861,1386.4 910.335,1386.4 912.809,1386.4 915.284,1386.4 917.758,1386.4 920.232,1386.4 922.706,1386.4 925.181,1386.4 927.655,1386.4 930.129,1386.4 932.603,1386.4 935.078,1386.4 937.552,1386.4 940.026,1386.4 942.501,1386.4 944.975,1386.4 947.449,1386.4 949.923,1386.4 952.398,1386.4 954.872,1386.4 957.346,1386.4 959.82,1386.4 962.295,1386.4 964.769,1386.4 967.243,1386.4 969.717,1386.4 972.192,1386.4 974.666,1386.4 977.14,1386.4 979.614,1386.4 982.089,1386.4 984.563,1386.4 987.037,1386.4 989.511,1386.4 991.986,1386.4 994.46,1386.4 996.934,1386.4 999.409,1386.4 1001.88,1386.4 1004.36,1386.4 1006.83,1386.4 1009.31,1386.4 1011.78,1386.4 1014.25,1386.4 1016.73,1386.4 1019.2,1386.4 1021.68,1386.4 1024.15,1386.4 1026.63,1386.4 1029.1,1386.4 1031.57,1386.4 1034.05,1386.4 1036.52,1386.4 1039,1386.4 1041.47,1386.4 1043.95,1386.4 1046.42,1386.4 1048.89,1386.4 1051.37,1386.4 1053.84,1386.4 1056.32,1386.4 1058.79,1386.4 1061.27,1386.4 1063.74,1386.4 1066.21,1386.4 1068.69,1386.4 1071.16,1386.4 1073.64,1386.4 1076.11,1386.4 1078.58,1386.4 1081.06,1386.4 1083.53,1386.4 1086.01,1386.4 1088.48,1386.4 1090.96,1386.4 1093.43,1386.4 1095.9,1386.4 1098.38,1386.4 1100.85,1386.4 1103.33,1386.4 1105.8,1386.4 1108.28,1386.4 1110.75,1386.4 1113.22,1386.4 1115.7,1386.4 1118.17,1386.4 1120.65,1386.4 1123.12,1386.4 1125.6,1386.4 1128.07,1386.4 1130.54,1386.4 1133.02,1386.4 1135.49,1386.4 1137.97,1386.4 1140.44,1386.4 1142.92,1386.4 1145.39,1386.4 1147.86,1386.4 1150.34,1386.4 1152.81,1386.4 1155.29,1386.4 1157.76,1386.4 1160.24,1386.4 1162.71,1386.4 1165.18,1386.4 1167.66,1386.4 1170.13,1386.4 1172.61,1386.4 1175.08,1386.4 1177.56,1386.4 1180.03,1386.4 1182.5,1386.4 1184.98,1386.4 1187.45,1386.4 1189.93,1386.4 1192.4,1386.4 1194.88,1386.4 1197.35,1386.4 1199.82,1386.4 1202.3,1386.4 1204.77,1386.4 1207.25,1386.4 1209.72,1386.4 1212.2,1386.4 1214.67,1386.4 1217.14,1386.4 1219.62,1386.4 1222.09,1386.4 1224.57,1386.4 1227.04,1386.4 1229.51,1386.4 1231.99,1386.4 1234.46,1386.4 1236.94,1386.4 1239.41,1386.4 1241.89,1386.4 1244.36,1386.4 1246.83,1386.4 1249.31,1386.4 1251.78,1386.4 1254.26,1386.4 1256.73,1386.4 1259.21,1386.4 1261.68,1386.4 1264.15,1386.4 1266.63,1386.4 1269.1,1386.4 1271.58,1386.4 1274.05,1386.4 1276.53,1386.4 1279,1386.4 1281.47,1386.4 1283.95,1386.4 1286.42,1386.4 1288.9,1386.4 1291.37,1386.4 1293.85,1386.4 1296.32,1386.4 1298.79,1386.4 1301.27,1386.4 1303.74,1386.4 1306.22,1386.4 1308.69,1386.4 1311.17,1386.4 1313.64,1386.4 1316.11,1386.4 1318.59,1386.4 1321.06,1386.4 1323.54,1386.4 1326.01,1386.4 1328.49,1386.4 1330.96,1386.4 1333.43,1386.4 1335.91,1386.4 1338.38,1386.4 1340.86,1386.4 1343.33,1386.4 1345.81,1386.4 1348.28,1386.4 1350.75,1386.4 1353.23,1386.4 1355.7,1386.4 1358.18,1386.4 1360.65,1386.4 1363.13,1386.4 1365.6,1386.4 1368.07,1386.4 1370.55,1386.4 1373.02,1386.4 1375.5,1386.4 1377.97,1386.4 1380.44,1386.4 1382.92,1386.4 1385.39,1386.4 1387.87,1386.4 1390.34,1386.4 1392.82,1386.4 1395.29,1386.4 1397.76,1386.4 1400.24,1386.4 1402.71,1386.4 1405.19,1386.4 1407.66,1386.4 1410.14,1386.4 1412.61,1386.4 1415.08,1386.4 1417.56,1386.4 1420.03,1386.4 1422.51,1386.4 1424.98,1386.4 1427.46,1386.4 1429.93,1386.4 1432.4,1386.4 1434.88,1386.4 1437.35,1386.4 1439.83,1386.4 1442.3,1386.4 1444.78,1386.4 1447.25,1386.4 1449.72,1386.4 1452.2,1386.4 1454.67,1386.4 1457.15,1386.4 1459.62,1386.4 1462.1,1386.4 1464.57,1386.4 1467.04,1386.4 1469.52,1386.4 1471.99,1386.4 1474.47,1386.4 1476.94,1386.4 1479.42,1386.4 1481.89,1386.4 1484.36,1386.4 1486.84,1386.4 1489.31,1386.4 1491.79,1386.4 1494.26,1386.4 1496.74,1386.4 1499.21,1386.4 1501.68,1386.4 1504.16,1386.4 1506.63,1386.4 1509.11,1386.4 1511.58,1386.4 1514.06,1386.4 1516.53,1386.4 1519,1386.4 1521.48,1386.4 1523.95,1386.4 1526.43,1386.4 1528.9,1386.4 1531.37,1386.4 1533.85,1386.4 1536.32,1386.4 1538.8,1386.4 1541.27,1386.4 1543.75,1386.4 1546.22,1386.4 1548.69,1386.4 1551.17,1386.4 1553.64,1386.4 1556.12,1386.4 1558.59,1386.4 1561.07,1386.4 1563.54,1386.4 1566.01,1386.4 1568.49,1386.4 1570.96,1386.4 1573.44,1386.4 1575.91,1386.4 1578.39,1386.4 1580.86,1386.4 1583.33,1386.4 1585.81,1386.4 1588.28,1386.4 1590.76,1386.4 1593.23,1386.4 1595.71,1386.4 1598.18,1386.4 1600.65,1386.4 1603.13,1386.4 1605.6,1386.4 1608.08,1386.4 1610.55,1386.4 1613.03,1386.4 1615.5,1386.4 1617.97,1386.4 1620.45,1386.4 1622.92,1386.4 1625.4,1386.4 1627.87,1386.4 1630.35,1386.4 1632.82,1386.4 1635.29,1386.4 1637.77,1386.4 1640.24,1386.4 1642.72,1386.4 1645.19,1386.4 1647.67,1386.4 1650.14,1386.4 1652.61,1386.4 1655.09,1386.4 1657.56,1386.4 1660.04,1386.4 1662.51,1386.4 1664.99,1386.4 1667.46,1386.4 1669.93,1386.4 1672.41,1386.4 1674.88,1386.4 1677.36,1386.4 1679.83,1386.4 1682.3,1386.4 1684.78,1386.4 1687.25,1386.4 1689.73,1386.4 1692.2,1386.4 1694.68,1386.4 1697.15,1386.4 1699.62,1386.4 1702.1,1386.4 1704.57,1386.4 1707.05,1386.4 1709.52,1386.4 1712,1386.4 1714.47,1386.4 1716.94,1386.4 1719.42,1386.4 1721.89,1386.4 1724.37,1386.4 1726.84,1386.4 1729.32,1386.4 1731.79,1386.4 1734.26,1386.4 1736.74,1386.4 1739.21,1386.4 1741.69,1386.4 1744.16,1386.4 1746.64,1386.4 1749.11,1386.4 1751.58,1386.4 1754.06,1386.4 1756.53,1386.4 1759.01,1386.4 1761.48,1386.4 1763.96,1386.4 1766.43,1386.4 1768.9,1386.4 1771.38,1386.4 1773.85,1386.4 1776.33,1386.4 1778.8,1386.4 1781.28,1386.4 1783.75,1386.4 1786.22,1386.4 1788.7,1386.4 1791.17,1386.4 1793.65,1386.4 1796.12,1386.4 1798.6,1386.4 1801.07,1386.4 1803.54,1386.4 1806.02,1386.4 1808.49,1386.4 1810.97,1386.4 1813.44,1386.4 1815.92,1386.4 1818.39,1386.4 1820.86,1386.4 1823.34,1386.4 1825.81,1386.4 1828.29,1386.4 1830.76,1386.4 1833.24,1386.4 1835.71,1386.4 1838.18,1386.4 1840.66,1386.4 1843.13,1386.4 1845.61,1386.4 1848.08,1386.4 1850.55,1386.4 1853.03,1386.4 1855.5,1386.4 1857.98,1386.4 1860.45,1386.4 1862.93,1386.4 1865.4,1386.4 1867.87,1386.4 1870.35,1386.4 1872.82,1386.4 1875.3,1386.4 1877.77,1386.4 1880.25,1386.4 1882.72,1386.4 1885.19,1386.4 1887.67,1386.4 1890.14,1386.4 1892.62,1386.4 1895.09,1386.4 1897.57,1386.4 1900.04,1386.4 1902.51,1386.4 1904.99,1386.4 1907.46,1386.4 1909.94,1386.4 1912.41,1386.4 1914.89,1386.4 1917.36,1386.4 1919.83,1386.4 1922.31,1386.4 1924.78,1386.4 1927.26,1386.4 1929.73,1386.4 1932.21,1386.4 1934.68,1386.4 1937.15,1386.4 1939.63,1386.4 1942.1,1386.4 1944.58,1386.4 1947.05,1386.4 1949.53,1386.4 1952,1386.4 1954.47,1386.4 1956.95,1386.4 1959.42,1386.4 1961.9,1386.4 1964.37,1386.4 1966.85,1386.4 1969.32,1386.4 1971.79,1386.4 1974.27,1386.4 1976.74,1386.4 1979.22,1386.4 1981.69,1386.4 1984.17,1386.4 1986.64,1386.4 1989.11,1386.4 1991.59,1386.4 1994.06,1386.4 1996.54,1386.4 1999.01,1386.4 2001.48,1386.4 2003.96,1386.4 2006.43,1386.4 2008.91,1386.4 2011.38,1386.4 2013.86,1386.4 2016.33,1386.4 2018.8,1386.4 2021.28,1386.4 2023.75,1386.4 2026.23,1386.4 2028.7,1386.4 2031.18,1386.4 2033.65,1386.4 2036.12,1386.4 2038.6,1386.4 2041.07,1386.4 2043.55,1386.4 2046.02,1386.4 2048.5,1386.4 2050.97,1386.4 2053.44,1386.4 2055.92,1386.4 2058.39,1386.4 2060.87,1386.4 2063.34,1386.4 2065.82,1386.4 2068.29,1386.4 2070.76,1386.4 2073.24,1386.4 2075.71,1386.4 2078.19,1386.4 2080.66,1386.4 2083.14,1386.4 2085.61,1386.4 2088.08,1386.4 2090.56,1386.4 2093.03,1386.4 2095.51,1386.4 2097.98,1386.4 2100.46,1386.4 2102.93,1386.4 2105.4,1386.4 2107.88,1386.4 2110.35,1386.4 2112.83,1386.4 2115.3,1386.4 2117.78,1386.4 2120.25,1386.4 2122.72,1386.4 2125.2,1386.4 2127.67,1386.4 2130.15,1386.4 2132.62,1386.4 2135.1,1386.4 2137.57,1386.4 2140.04,1386.4 2142.52,1386.4 2144.99,1386.4 2147.47,1386.4 2149.94,1386.4 2152.41,1386.4 2154.89,1386.4 2157.36,1386.4 2159.84,1386.4 2162.31,1386.4 2164.79,1386.4 2167.26,1386.4 2169.73,1386.4 2172.21,1386.4 2174.68,1386.4 2177.16,1386.4 2179.63,1386.4 2182.11,1386.4 2184.58,1386.4 2187.05,1386.4 2189.53,1386.4 2192,1386.4 2194.48,1386.4 2196.95,1386.4 2199.43,1386.4 2201.9,1386.4 2204.37,1386.4 2206.85,1386.4 2209.32,1386.4 2211.8,1386.4 2214.27,1386.4 2216.75,1386.4 2219.22,1386.4 2221.69,1386.4 2224.17,1386.4 2226.64,1386.4 2229.12,1386.4 2231.59,1386.4 2234.07,1386.4 2236.54,1386.4 2239.01,1386.4 2241.49,1386.4 2243.96,1386.4 2246.44,1386.4 2248.91,1386.4 2251.39,1386.4 2253.86,1386.4 2256.33,1386.4 2258.81,1386.4 2261.28,1386.4 2263.76,1386.4 2266.23,1386.4 2268.71,1386.4 2271.18,1386.4 2273.65,1386.4 2276.13,1386.4 2278.6,1386.4 2281.08,1386.4 2283.55,1386.4 2286.03,1386.4 2288.5,1386.4 2290.97,1386.4 2293.45,1386.4 "/>
</svg>
