<?xml version="1.0" encoding="utf-8"?>
<svg xmlns="http://www.w3.org/2000/svg" xmlns:xlink="http://www.w3.org/1999/xlink" width="600" height="400" viewBox="0 0 2400 1600">
<defs>
  <clipPath id="clip990">
    <rect x="0" y="0" width="2400" height="1600"/>
  </clipPath>
</defs>
<path clip-path="url(#clip990)" d="M0 1600 L2400 1600 L2400 0 L0 0  Z" fill="#ffffff" fill-rule="evenodd" fill-opacity="1"/>
<defs>
  <clipPath id="clip991">
    <rect x="480" y="0" width="1681" height="1600"/>
  </clipPath>
</defs>
<path clip-path="url(#clip990)" d="M249.542 1423.18 L2352.76 1423.18 L2352.76 123.472 L249.542 123.472  Z" fill="#ffffff" fill-rule="evenodd" fill-opacity="1"/>
<defs>
  <clipPath id="clip992">
    <rect x="249" y="123" width="2104" height="1301"/>
  </clipPath>
</defs>
<polyline clip-path="url(#clip992)" style="stroke:#000000; stroke-linecap:round; stroke-linejoin:round; stroke-width:2; stroke-opacity:0.1; fill:none" points="726.786,1423.18 726.786,123.472 "/>
<polyline clip-path="url(#clip992)" style="stroke:#000000; stroke-linecap:round; stroke-linejoin:round; stroke-width:2; stroke-opacity:0.1; fill:none" points="1248.93,1423.18 1248.93,123.472 "/>
<polyline clip-path="url(#clip992)" style="stroke:#000000; stroke-linecap:round; stroke-linejoin:round; stroke-width:2; stroke-opacity:0.1; fill:none" points="1771.08,1423.18 1771.08,123.472 "/>
<polyline clip-path="url(#clip992)" style="stroke:#000000; stroke-linecap:round; stroke-linejoin:round; stroke-width:2; stroke-opacity:0.1; fill:none" points="2293.23,1423.18 2293.23,123.472 "/>
<polyline clip-path="url(#clip992)" style="stroke:#000000; stroke-linecap:round; stroke-linejoin:round; stroke-width:2; stroke-opacity:0.1; fill:none" points="249.542,1408.81 2352.76,1408.81 "/>
<polyline clip-path="url(#clip992)" style="stroke:#000000; stroke-linecap:round; stroke-linejoin:round; stroke-width:2; stroke-opacity:0.1; fill:none" points="249.542,1096.67 2352.76,1096.67 "/>
<polyline clip-path="url(#clip992)" style="stroke:#000000; stroke-linecap:round; stroke-linejoin:round; stroke-width:2; stroke-opacity:0.1; fill:none" points="249.542,784.535 2352.76,784.535 "/>
<polyline clip-path="url(#clip992)" style="stroke:#000000; stroke-linecap:round; stroke-linejoin:round; stroke-width:2; stroke-opacity:0.1; fill:none" points="249.542,472.396 2352.76,472.396 "/>
<polyline clip-path="url(#clip992)" style="stroke:#000000; stroke-linecap:round; stroke-linejoin:round; stroke-width:2; stroke-opacity:0.1; fill:none" points="249.542,160.256 2352.76,160.256 "/>
<polyline clip-path="url(#clip990)" style="stroke:#000000; stroke-linecap:round; stroke-linejoin:round; stroke-width:4; stroke-opacity:1; fill:none" points="249.542,1423.18 2352.76,1423.18 "/>
<polyline clip-path="url(#clip990)" style="stroke:#000000; stroke-linecap:round; stroke-linejoin:round; stroke-width:4; stroke-opacity:1; fill:none" points="726.786,1423.18 726.786,1404.28 "/>
<polyline clip-path="url(#clip990)" style="stroke:#000000; stroke-linecap:round; stroke-linejoin:round; stroke-width:4; stroke-opacity:1; fill:none" points="1248.93,1423.18 1248.93,1404.28 "/>
<polyline clip-path="url(#clip990)" style="stroke:#000000; stroke-linecap:round; stroke-linejoin:round; stroke-width:4; stroke-opacity:1; fill:none" points="1771.08,1423.18 1771.08,1404.28 "/>
<polyline clip-path="url(#clip990)" style="stroke:#000000; stroke-linecap:round; stroke-linejoin:round; stroke-width:4; stroke-opacity:1; fill:none" points="2293.23,1423.18 2293.23,1404.28 "/>
<path clip-path="url(#clip990)" d="M717.064 1451.02 L735.42 1451.02 L735.42 1454.96 L721.346 1454.96 L721.346 1463.43 Q722.364 1463.08 723.383 1462.92 Q724.401 1462.73 725.42 1462.73 Q731.207 1462.73 734.587 1465.9 Q737.966 1469.08 737.966 1474.49 Q737.966 1480.07 734.494 1483.17 Q731.022 1486.25 724.702 1486.25 Q722.526 1486.25 720.258 1485.88 Q718.013 1485.51 715.605 1484.77 L715.605 1480.07 Q717.689 1481.2 719.911 1481.76 Q722.133 1482.32 724.61 1482.32 Q728.614 1482.32 730.952 1480.21 Q733.29 1478.1 733.29 1474.49 Q733.29 1470.88 730.952 1468.77 Q728.614 1466.67 724.61 1466.67 Q722.735 1466.67 720.86 1467.08 Q719.008 1467.5 717.064 1468.38 L717.064 1451.02 Z" fill="#000000" fill-rule="nonzero" fill-opacity="1" /><path clip-path="url(#clip990)" d="M1223.62 1481.64 L1231.26 1481.64 L1231.26 1455.28 L1222.95 1456.95 L1222.95 1452.69 L1231.21 1451.02 L1235.89 1451.02 L1235.89 1481.64 L1243.53 1481.64 L1243.53 1485.58 L1223.62 1485.58 L1223.62 1481.64 Z" fill="#000000" fill-rule="nonzero" fill-opacity="1" /><path clip-path="url(#clip990)" d="M1262.97 1454.1 Q1259.36 1454.1 1257.53 1457.66 Q1255.73 1461.2 1255.73 1468.33 Q1255.73 1475.44 1257.53 1479.01 Q1259.36 1482.55 1262.97 1482.55 Q1266.61 1482.55 1268.41 1479.01 Q1270.24 1475.44 1270.24 1468.33 Q1270.24 1461.2 1268.41 1457.66 Q1266.61 1454.1 1262.97 1454.1 M1262.97 1450.39 Q1268.78 1450.39 1271.84 1455 Q1274.92 1459.58 1274.92 1468.33 Q1274.92 1477.06 1271.84 1481.67 Q1268.78 1486.25 1262.97 1486.25 Q1257.16 1486.25 1254.08 1481.67 Q1251.03 1477.06 1251.03 1468.33 Q1251.03 1459.58 1254.08 1455 Q1257.16 1450.39 1262.97 1450.39 Z" fill="#000000" fill-rule="nonzero" fill-opacity="1" /><path clip-path="url(#clip990)" d="M1746.27 1481.64 L1753.91 1481.64 L1753.91 1455.28 L1745.6 1456.95 L1745.6 1452.69 L1753.86 1451.02 L1758.54 1451.02 L1758.54 1481.64 L1766.18 1481.64 L1766.18 1485.58 L1746.27 1485.58 L1746.27 1481.64 Z" fill="#000000" fill-rule="nonzero" fill-opacity="1" /><path clip-path="url(#clip990)" d="M1775.67 1451.02 L1794.02 1451.02 L1794.02 1454.96 L1779.95 1454.96 L1779.95 1463.43 Q1780.97 1463.08 1781.99 1462.92 Q1783 1462.73 1784.02 1462.73 Q1789.81 1462.73 1793.19 1465.9 Q1796.57 1469.08 1796.57 1474.49 Q1796.57 1480.07 1793.1 1483.17 Q1789.62 1486.25 1783.3 1486.25 Q1781.13 1486.25 1778.86 1485.88 Q1776.61 1485.51 1774.21 1484.77 L1774.21 1480.07 Q1776.29 1481.2 1778.51 1481.76 Q1780.74 1482.32 1783.21 1482.32 Q1787.22 1482.32 1789.55 1480.21 Q1791.89 1478.1 1791.89 1474.49 Q1791.89 1470.88 1789.55 1468.77 Q1787.22 1466.67 1783.21 1466.67 Q1781.34 1466.67 1779.46 1467.08 Q1777.61 1467.5 1775.67 1468.38 L1775.67 1451.02 Z" fill="#000000" fill-rule="nonzero" fill-opacity="1" /><path clip-path="url(#clip990)" d="M2272 1481.64 L2288.32 1481.64 L2288.32 1485.58 L2266.38 1485.58 L2266.38 1481.64 Q2269.04 1478.89 2273.62 1474.26 Q2278.23 1469.61 2279.41 1468.27 Q2281.66 1465.74 2282.54 1464.01 Q2283.44 1462.25 2283.44 1460.56 Q2283.44 1457.8 2281.49 1456.07 Q2279.57 1454.33 2276.47 1454.33 Q2274.27 1454.33 2271.82 1455.09 Q2269.39 1455.86 2266.61 1457.41 L2266.61 1452.69 Q2269.43 1451.55 2271.89 1450.97 Q2274.34 1450.39 2276.38 1450.39 Q2281.75 1450.39 2284.94 1453.08 Q2288.14 1455.77 2288.14 1460.26 Q2288.14 1462.39 2287.33 1464.31 Q2286.54 1466.2 2284.43 1468.8 Q2283.86 1469.47 2280.75 1472.69 Q2277.65 1475.88 2272 1481.64 Z" fill="#000000" fill-rule="nonzero" fill-opacity="1" /><path clip-path="url(#clip990)" d="M2308.14 1454.1 Q2304.53 1454.1 2302.7 1457.66 Q2300.89 1461.2 2300.89 1468.33 Q2300.89 1475.44 2302.7 1479.01 Q2304.53 1482.55 2308.14 1482.55 Q2311.77 1482.55 2313.58 1479.01 Q2315.41 1475.44 2315.41 1468.33 Q2315.41 1461.2 2313.58 1457.66 Q2311.77 1454.1 2308.14 1454.1 M2308.14 1450.39 Q2313.95 1450.39 2317 1455 Q2320.08 1459.58 2320.08 1468.33 Q2320.08 1477.06 2317 1481.67 Q2313.95 1486.25 2308.14 1486.25 Q2302.33 1486.25 2299.25 1481.67 Q2296.19 1477.06 2296.19 1468.33 Q2296.19 1459.58 2299.25 1455 Q2302.33 1450.39 2308.14 1450.39 Z" fill="#000000" fill-rule="nonzero" fill-opacity="1" /><path clip-path="url(#clip990)" d="M1122.15 1525.81 L1122.15 1562.76 L1129.91 1562.76 Q1139.75 1562.76 1144.3 1558.3 Q1148.88 1553.85 1148.88 1544.24 Q1148.88 1534.69 1144.3 1530.26 Q1139.75 1525.81 1129.91 1525.81 L1122.15 1525.81 M1115.72 1520.52 L1128.92 1520.52 Q1142.74 1520.52 1149.2 1526.28 Q1155.66 1532.01 1155.66 1544.24 Q1155.66 1556.52 1149.17 1562.28 Q1142.67 1568.04 1128.92 1568.04 L1115.72 1568.04 L1115.72 1520.52 Z" fill="#000000" fill-rule="nonzero" fill-opacity="1" /><path clip-path="url(#clip990)" d="M1165.65 1532.4 L1171.51 1532.4 L1171.51 1568.04 L1165.65 1568.04 L1165.65 1532.4 M1165.65 1518.52 L1171.51 1518.52 L1171.51 1525.93 L1165.65 1525.93 L1165.65 1518.52 Z" fill="#000000" fill-rule="nonzero" fill-opacity="1" /><path clip-path="url(#clip990)" d="M1211.52 1539.24 Q1213.72 1535.29 1216.77 1533.41 Q1219.83 1531.54 1223.96 1531.54 Q1229.53 1531.54 1232.56 1535.45 Q1235.58 1539.33 1235.58 1546.53 L1235.58 1568.04 L1229.69 1568.04 L1229.69 1546.72 Q1229.69 1541.59 1227.88 1539.11 Q1226.07 1536.63 1222.34 1536.63 Q1217.79 1536.63 1215.15 1539.65 Q1212.51 1542.68 1212.51 1547.9 L1212.51 1568.04 L1206.62 1568.04 L1206.62 1546.72 Q1206.62 1541.56 1204.8 1539.11 Q1202.99 1536.63 1199.2 1536.63 Q1194.71 1536.63 1192.07 1539.68 Q1189.43 1542.71 1189.43 1547.9 L1189.43 1568.04 L1183.54 1568.04 L1183.54 1532.4 L1189.43 1532.4 L1189.43 1537.93 Q1191.44 1534.66 1194.24 1533.1 Q1197.04 1531.54 1200.89 1531.54 Q1204.77 1531.54 1207.48 1533.51 Q1210.21 1535.48 1211.52 1539.24 Z" fill="#000000" fill-rule="nonzero" fill-opacity="1" /><path clip-path="url(#clip990)" d="M1277.75 1548.76 L1277.75 1551.62 L1250.83 1551.62 Q1251.21 1557.67 1254.46 1560.85 Q1257.73 1564 1263.56 1564 Q1266.93 1564 1270.08 1563.17 Q1273.27 1562.35 1276.39 1560.69 L1276.39 1566.23 Q1273.24 1567.57 1269.93 1568.27 Q1266.62 1568.97 1263.21 1568.97 Q1254.68 1568.97 1249.68 1564 Q1244.72 1559.04 1244.72 1550.57 Q1244.72 1541.82 1249.43 1536.69 Q1254.17 1531.54 1262.19 1531.54 Q1269.38 1531.54 1273.55 1536.18 Q1277.75 1540.8 1277.75 1548.76 M1271.9 1547.04 Q1271.83 1542.23 1269.19 1539.37 Q1266.58 1536.5 1262.25 1536.5 Q1257.35 1536.5 1254.39 1539.27 Q1251.46 1542.04 1251.02 1547.07 L1271.9 1547.04 Z" fill="#000000" fill-rule="nonzero" fill-opacity="1" /><path clip-path="url(#clip990)" d="M1317 1546.53 L1317 1568.04 L1311.14 1568.04 L1311.14 1546.72 Q1311.14 1541.66 1309.17 1539.14 Q1307.2 1536.63 1303.25 1536.63 Q1298.51 1536.63 1295.77 1539.65 Q1293.03 1542.68 1293.03 1547.9 L1293.03 1568.04 L1287.14 1568.04 L1287.14 1532.4 L1293.03 1532.4 L1293.03 1537.93 Q1295.13 1534.72 1297.97 1533.13 Q1300.83 1531.54 1304.55 1531.54 Q1310.7 1531.54 1313.85 1535.36 Q1317 1539.14 1317 1546.53 Z" fill="#000000" fill-rule="nonzero" fill-opacity="1" /><path clip-path="url(#clip990)" d="M1351.41 1533.45 L1351.41 1538.98 Q1348.92 1537.71 1346.25 1537.07 Q1343.58 1536.44 1340.71 1536.44 Q1336.35 1536.44 1334.16 1537.77 Q1331.99 1539.11 1331.99 1541.79 Q1331.99 1543.82 1333.55 1545 Q1335.11 1546.15 1339.82 1547.2 L1341.83 1547.64 Q1348.06 1548.98 1350.67 1551.43 Q1353.32 1553.85 1353.32 1558.21 Q1353.32 1563.17 1349.37 1566.07 Q1345.45 1568.97 1338.58 1568.97 Q1335.71 1568.97 1332.6 1568.39 Q1329.51 1567.85 1326.07 1566.74 L1326.07 1560.69 Q1329.32 1562.38 1332.47 1563.24 Q1335.62 1564.07 1338.71 1564.07 Q1342.84 1564.07 1345.07 1562.66 Q1347.3 1561.23 1347.3 1558.65 Q1347.3 1556.27 1345.68 1554.99 Q1344.09 1553.72 1338.64 1552.54 L1336.61 1552.07 Q1331.16 1550.92 1328.74 1548.56 Q1326.33 1546.18 1326.33 1542.04 Q1326.33 1537.01 1329.89 1534.27 Q1333.45 1531.54 1340.01 1531.54 Q1343.26 1531.54 1346.12 1532.01 Q1348.99 1532.49 1351.41 1533.45 Z" fill="#000000" fill-rule="nonzero" fill-opacity="1" /><path clip-path="url(#clip990)" d="M1362.64 1532.4 L1368.5 1532.4 L1368.5 1568.04 L1362.64 1568.04 L1362.64 1532.4 M1362.64 1518.52 L1368.5 1518.52 L1368.5 1525.93 L1362.64 1525.93 L1362.64 1518.52 Z" fill="#000000" fill-rule="nonzero" fill-opacity="1" /><path clip-path="url(#clip990)" d="M1394.57 1536.5 Q1389.86 1536.5 1387.12 1540.19 Q1384.38 1543.85 1384.38 1550.25 Q1384.38 1556.65 1387.09 1560.34 Q1389.82 1564 1394.57 1564 Q1399.24 1564 1401.98 1560.31 Q1404.72 1556.62 1404.72 1550.25 Q1404.72 1543.92 1401.98 1540.23 Q1399.24 1536.5 1394.57 1536.5 M1394.57 1531.54 Q1402.2 1531.54 1406.57 1536.5 Q1410.93 1541.47 1410.93 1550.25 Q1410.93 1559 1406.57 1564 Q1402.2 1568.97 1394.57 1568.97 Q1386.9 1568.97 1382.53 1564 Q1378.21 1559 1378.21 1550.25 Q1378.21 1541.47 1382.53 1536.5 Q1386.9 1531.54 1394.57 1531.54 Z" fill="#000000" fill-rule="nonzero" fill-opacity="1" /><path clip-path="url(#clip990)" d="M1450.27 1546.53 L1450.27 1568.04 L1444.41 1568.04 L1444.41 1546.72 Q1444.41 1541.66 1442.44 1539.14 Q1440.46 1536.63 1436.52 1536.63 Q1431.77 1536.63 1429.04 1539.65 Q1426.3 1542.68 1426.3 1547.9 L1426.3 1568.04 L1420.41 1568.04 L1420.41 1532.4 L1426.3 1532.4 L1426.3 1537.93 Q1428.4 1534.72 1431.23 1533.13 Q1434.1 1531.54 1437.82 1531.54 Q1443.96 1531.54 1447.11 1535.36 Q1450.27 1539.14 1450.27 1546.53 Z" fill="#000000" fill-rule="nonzero" fill-opacity="1" /><path clip-path="url(#clip990)" d="M1484.67 1533.45 L1484.67 1538.98 Q1482.19 1537.71 1479.52 1537.07 Q1476.84 1536.44 1473.98 1536.44 Q1469.62 1536.44 1467.42 1537.77 Q1465.26 1539.11 1465.26 1541.79 Q1465.26 1543.82 1466.82 1545 Q1468.38 1546.15 1473.09 1547.2 L1475.09 1547.64 Q1481.33 1548.98 1483.94 1551.43 Q1486.58 1553.85 1486.58 1558.21 Q1486.58 1563.17 1482.64 1566.07 Q1478.72 1568.97 1471.85 1568.97 Q1468.98 1568.97 1465.86 1568.39 Q1462.77 1567.85 1459.34 1566.74 L1459.34 1560.69 Q1462.58 1562.38 1465.73 1563.24 Q1468.89 1564.07 1471.97 1564.07 Q1476.11 1564.07 1478.34 1562.66 Q1480.57 1561.23 1480.57 1558.65 Q1480.57 1556.27 1478.94 1554.99 Q1477.35 1553.72 1471.91 1552.54 L1469.87 1552.07 Q1464.43 1550.92 1462.01 1548.56 Q1459.59 1546.18 1459.59 1542.04 Q1459.59 1537.01 1463.16 1534.27 Q1466.72 1531.54 1473.28 1531.54 Q1476.52 1531.54 1479.39 1532.01 Q1482.25 1532.49 1484.67 1533.45 Z" fill="#000000" fill-rule="nonzero" fill-opacity="1" /><polyline clip-path="url(#clip990)" style="stroke:#000000; stroke-linecap:round; stroke-linejoin:round; stroke-width:4; stroke-opacity:1; fill:none" points="249.542,1423.18 249.542,123.472 "/>
<polyline clip-path="url(#clip990)" style="stroke:#000000; stroke-linecap:round; stroke-linejoin:round; stroke-width:4; stroke-opacity:1; fill:none" points="249.542,1408.81 268.44,1408.81 "/>
<polyline clip-path="url(#clip990)" style="stroke:#000000; stroke-linecap:round; stroke-linejoin:round; stroke-width:4; stroke-opacity:1; fill:none" points="249.542,1096.67 268.44,1096.67 "/>
<polyline clip-path="url(#clip990)" style="stroke:#000000; stroke-linecap:round; stroke-linejoin:round; stroke-width:4; stroke-opacity:1; fill:none" points="249.542,784.535 268.44,784.535 "/>
<polyline clip-path="url(#clip990)" style="stroke:#000000; stroke-linecap:round; stroke-linejoin:round; stroke-width:4; stroke-opacity:1; fill:none" points="249.542,472.396 268.44,472.396 "/>
<polyline clip-path="url(#clip990)" style="stroke:#000000; stroke-linecap:round; stroke-linejoin:round; stroke-width:4; stroke-opacity:1; fill:none" points="249.542,160.256 268.44,160.256 "/>
<path clip-path="url(#clip990)" d="M126.205 1394.61 Q122.593 1394.61 120.765 1398.18 Q118.959 1401.72 118.959 1408.85 Q118.959 1415.95 120.765 1419.52 Q122.593 1423.06 126.205 1423.06 Q129.839 1423.06 131.644 1419.52 Q133.473 1415.95 133.473 1408.85 Q133.473 1401.72 131.644 1398.18 Q129.839 1394.61 126.205 1394.61 M126.205 1390.91 Q132.015 1390.91 135.07 1395.52 Q138.149 1400.1 138.149 1408.85 Q138.149 1417.58 135.07 1422.18 Q132.015 1426.77 126.205 1426.77 Q120.394 1426.77 117.316 1422.18 Q114.26 1417.58 114.26 1408.85 Q114.26 1400.1 117.316 1395.52 Q120.394 1390.91 126.205 1390.91 Z" fill="#000000" fill-rule="nonzero" fill-opacity="1" /><path clip-path="url(#clip990)" d="M146.366 1420.21 L151.251 1420.21 L151.251 1426.09 L146.366 1426.09 L146.366 1420.21 Z" fill="#000000" fill-rule="nonzero" fill-opacity="1" /><path clip-path="url(#clip990)" d="M171.436 1394.61 Q167.825 1394.61 165.996 1398.18 Q164.19 1401.72 164.19 1408.85 Q164.19 1415.95 165.996 1419.52 Q167.825 1423.06 171.436 1423.06 Q175.07 1423.06 176.876 1419.52 Q178.704 1415.95 178.704 1408.85 Q178.704 1401.72 176.876 1398.18 Q175.07 1394.61 171.436 1394.61 M171.436 1390.91 Q177.246 1390.91 180.301 1395.52 Q183.38 1400.1 183.38 1408.85 Q183.38 1417.58 180.301 1422.18 Q177.246 1426.77 171.436 1426.77 Q165.626 1426.77 162.547 1422.18 Q159.491 1417.58 159.491 1408.85 Q159.491 1400.1 162.547 1395.52 Q165.626 1390.91 171.436 1390.91 Z" fill="#000000" fill-rule="nonzero" fill-opacity="1" /><path clip-path="url(#clip990)" d="M201.598 1394.61 Q197.987 1394.61 196.158 1398.18 Q194.352 1401.72 194.352 1408.85 Q194.352 1415.95 196.158 1419.52 Q197.987 1423.06 201.598 1423.06 Q205.232 1423.06 207.037 1419.52 Q208.866 1415.95 208.866 1408.85 Q208.866 1401.72 207.037 1398.18 Q205.232 1394.61 201.598 1394.61 M201.598 1390.91 Q207.408 1390.91 210.463 1395.52 Q213.542 1400.1 213.542 1408.85 Q213.542 1417.58 210.463 1422.18 Q207.408 1426.77 201.598 1426.77 Q195.787 1426.77 192.709 1422.18 Q189.653 1417.58 189.653 1408.85 Q189.653 1400.1 192.709 1395.52 Q195.787 1390.91 201.598 1390.91 Z" fill="#000000" fill-rule="nonzero" fill-opacity="1" /><path clip-path="url(#clip990)" d="M127.2 1082.47 Q123.589 1082.47 121.76 1086.04 Q119.955 1089.58 119.955 1096.71 Q119.955 1103.82 121.76 1107.38 Q123.589 1110.92 127.2 1110.92 Q130.834 1110.92 132.64 1107.38 Q134.468 1103.82 134.468 1096.71 Q134.468 1089.58 132.64 1086.04 Q130.834 1082.47 127.2 1082.47 M127.2 1078.77 Q133.01 1078.77 136.066 1083.38 Q139.144 1087.96 139.144 1096.71 Q139.144 1105.44 136.066 1110.04 Q133.01 1114.63 127.2 1114.63 Q121.39 1114.63 118.311 1110.04 Q115.256 1105.44 115.256 1096.71 Q115.256 1087.96 118.311 1083.38 Q121.39 1078.77 127.2 1078.77 Z" fill="#000000" fill-rule="nonzero" fill-opacity="1" /><path clip-path="url(#clip990)" d="M147.362 1108.07 L152.246 1108.07 L152.246 1113.95 L147.362 1113.95 L147.362 1108.07 Z" fill="#000000" fill-rule="nonzero" fill-opacity="1" /><path clip-path="url(#clip990)" d="M166.459 1110.02 L182.778 1110.02 L182.778 1113.95 L160.834 1113.95 L160.834 1110.02 Q163.496 1107.26 168.079 1102.64 Q172.686 1097.98 173.866 1096.64 Q176.112 1094.12 176.991 1092.38 Q177.894 1090.62 177.894 1088.93 Q177.894 1086.18 175.95 1084.44 Q174.028 1082.7 170.927 1082.7 Q168.727 1082.7 166.274 1083.47 Q163.843 1084.23 161.065 1085.78 L161.065 1081.06 Q163.89 1079.93 166.343 1079.35 Q168.797 1078.77 170.834 1078.77 Q176.204 1078.77 179.399 1081.45 Q182.593 1084.14 182.593 1088.63 Q182.593 1090.76 181.783 1092.68 Q180.996 1094.58 178.889 1097.17 Q178.311 1097.84 175.209 1101.06 Q172.107 1104.26 166.459 1110.02 Z" fill="#000000" fill-rule="nonzero" fill-opacity="1" /><path clip-path="url(#clip990)" d="M192.639 1079.39 L210.996 1079.39 L210.996 1083.33 L196.922 1083.33 L196.922 1091.8 Q197.94 1091.45 198.959 1091.29 Q199.977 1091.11 200.996 1091.11 Q206.783 1091.11 210.162 1094.28 Q213.542 1097.45 213.542 1102.87 Q213.542 1108.45 210.07 1111.55 Q206.598 1114.63 200.278 1114.63 Q198.102 1114.63 195.834 1114.26 Q193.588 1113.88 191.181 1113.14 L191.181 1108.45 Q193.264 1109.58 195.487 1110.13 Q197.709 1110.69 200.186 1110.69 Q204.19 1110.69 206.528 1108.58 Q208.866 1106.48 208.866 1102.87 Q208.866 1099.26 206.528 1097.15 Q204.19 1095.04 200.186 1095.04 Q198.311 1095.04 196.436 1095.46 Q194.584 1095.88 192.639 1096.76 L192.639 1079.39 Z" fill="#000000" fill-rule="nonzero" fill-opacity="1" /><path clip-path="url(#clip990)" d="M126.205 770.334 Q122.593 770.334 120.765 773.899 Q118.959 777.44 118.959 784.57 Q118.959 791.676 120.765 795.241 Q122.593 798.783 126.205 798.783 Q129.839 798.783 131.644 795.241 Q133.473 791.676 133.473 784.57 Q133.473 777.44 131.644 773.899 Q129.839 770.334 126.205 770.334 M126.205 766.63 Q132.015 766.63 135.07 771.236 Q138.149 775.82 138.149 784.57 Q138.149 793.297 135.07 797.903 Q132.015 802.486 126.205 802.486 Q120.394 802.486 117.316 797.903 Q114.26 793.297 114.26 784.57 Q114.26 775.82 117.316 771.236 Q120.394 766.63 126.205 766.63 Z" fill="#000000" fill-rule="nonzero" fill-opacity="1" /><path clip-path="url(#clip990)" d="M146.366 795.935 L151.251 795.935 L151.251 801.815 L146.366 801.815 L146.366 795.935 Z" fill="#000000" fill-rule="nonzero" fill-opacity="1" /><path clip-path="url(#clip990)" d="M161.482 767.255 L179.839 767.255 L179.839 771.19 L165.765 771.19 L165.765 779.662 Q166.783 779.315 167.802 779.153 Q168.82 778.968 169.839 778.968 Q175.626 778.968 179.005 782.139 Q182.385 785.31 182.385 790.727 Q182.385 796.306 178.913 799.408 Q175.44 802.486 169.121 802.486 Q166.945 802.486 164.677 802.116 Q162.431 801.746 160.024 801.005 L160.024 796.306 Q162.107 797.44 164.329 797.996 Q166.552 798.551 169.028 798.551 Q173.033 798.551 175.371 796.445 Q177.709 794.338 177.709 790.727 Q177.709 787.116 175.371 785.01 Q173.033 782.903 169.028 782.903 Q167.153 782.903 165.278 783.32 Q163.427 783.736 161.482 784.616 L161.482 767.255 Z" fill="#000000" fill-rule="nonzero" fill-opacity="1" /><path clip-path="url(#clip990)" d="M201.598 770.334 Q197.987 770.334 196.158 773.899 Q194.352 777.44 194.352 784.57 Q194.352 791.676 196.158 795.241 Q197.987 798.783 201.598 798.783 Q205.232 798.783 207.037 795.241 Q208.866 791.676 208.866 784.57 Q208.866 777.44 207.037 773.899 Q205.232 770.334 201.598 770.334 M201.598 766.63 Q207.408 766.63 210.463 771.236 Q213.542 775.82 213.542 784.57 Q213.542 793.297 210.463 797.903 Q207.408 802.486 201.598 802.486 Q195.787 802.486 192.709 797.903 Q189.653 793.297 189.653 784.57 Q189.653 775.82 192.709 771.236 Q195.787 766.63 201.598 766.63 Z" fill="#000000" fill-rule="nonzero" fill-opacity="1" /><path clip-path="url(#clip990)" d="M127.2 458.194 Q123.589 458.194 121.76 461.759 Q119.955 465.301 119.955 472.43 Q119.955 479.537 121.76 483.102 Q123.589 486.643 127.2 486.643 Q130.834 486.643 132.64 483.102 Q134.468 479.537 134.468 472.43 Q134.468 465.301 132.64 461.759 Q130.834 458.194 127.2 458.194 M127.2 454.491 Q133.01 454.491 136.066 459.097 Q139.144 463.68 139.144 472.43 Q139.144 481.157 136.066 485.764 Q133.01 490.347 127.2 490.347 Q121.39 490.347 118.311 485.764 Q115.256 481.157 115.256 472.43 Q115.256 463.68 118.311 459.097 Q121.39 454.491 127.2 454.491 Z" fill="#000000" fill-rule="nonzero" fill-opacity="1" /><path clip-path="url(#clip990)" d="M147.362 483.796 L152.246 483.796 L152.246 489.676 L147.362 489.676 L147.362 483.796 Z" fill="#000000" fill-rule="nonzero" fill-opacity="1" /><path clip-path="url(#clip990)" d="M161.251 455.116 L183.473 455.116 L183.473 457.106 L170.927 489.676 L166.042 489.676 L177.848 459.051 L161.251 459.051 L161.251 455.116 Z" fill="#000000" fill-rule="nonzero" fill-opacity="1" /><path clip-path="url(#clip990)" d="M192.639 455.116 L210.996 455.116 L210.996 459.051 L196.922 459.051 L196.922 467.523 Q197.94 467.176 198.959 467.014 Q199.977 466.829 200.996 466.829 Q206.783 466.829 210.162 470 Q213.542 473.171 213.542 478.588 Q213.542 484.166 210.07 487.268 Q206.598 490.347 200.278 490.347 Q198.102 490.347 195.834 489.977 Q193.588 489.606 191.181 488.865 L191.181 484.166 Q193.264 485.301 195.487 485.856 Q197.709 486.412 200.186 486.412 Q204.19 486.412 206.528 484.305 Q208.866 482.199 208.866 478.588 Q208.866 474.977 206.528 472.87 Q204.19 470.764 200.186 470.764 Q198.311 470.764 196.436 471.18 Q194.584 471.597 192.639 472.477 L192.639 455.116 Z" fill="#000000" fill-rule="nonzero" fill-opacity="1" /><path clip-path="url(#clip990)" d="M117.015 173.601 L124.654 173.601 L124.654 147.236 L116.343 148.902 L116.343 144.643 L124.607 142.976 L129.283 142.976 L129.283 173.601 L136.922 173.601 L136.922 177.536 L117.015 177.536 L117.015 173.601 Z" fill="#000000" fill-rule="nonzero" fill-opacity="1" /><path clip-path="url(#clip990)" d="M146.366 171.657 L151.251 171.657 L151.251 177.536 L146.366 177.536 L146.366 171.657 Z" fill="#000000" fill-rule="nonzero" fill-opacity="1" /><path clip-path="url(#clip990)" d="M171.436 146.055 Q167.825 146.055 165.996 149.62 Q164.19 153.161 164.19 160.291 Q164.19 167.397 165.996 170.962 Q167.825 174.504 171.436 174.504 Q175.07 174.504 176.876 170.962 Q178.704 167.397 178.704 160.291 Q178.704 153.161 176.876 149.62 Q175.07 146.055 171.436 146.055 M171.436 142.351 Q177.246 142.351 180.301 146.958 Q183.38 151.541 183.38 160.291 Q183.38 169.018 180.301 173.624 Q177.246 178.208 171.436 178.208 Q165.626 178.208 162.547 173.624 Q159.491 169.018 159.491 160.291 Q159.491 151.541 162.547 146.958 Q165.626 142.351 171.436 142.351 Z" fill="#000000" fill-rule="nonzero" fill-opacity="1" /><path clip-path="url(#clip990)" d="M201.598 146.055 Q197.987 146.055 196.158 149.62 Q194.352 153.161 194.352 160.291 Q194.352 167.397 196.158 170.962 Q197.987 174.504 201.598 174.504 Q205.232 174.504 207.037 170.962 Q208.866 167.397 208.866 160.291 Q208.866 153.161 207.037 149.62 Q205.232 146.055 201.598 146.055 M201.598 142.351 Q207.408 142.351 210.463 146.958 Q213.542 151.541 213.542 160.291 Q213.542 169.018 210.463 173.624 Q207.408 178.208 201.598 178.208 Q195.787 178.208 192.709 173.624 Q189.653 169.018 189.653 160.291 Q189.653 151.541 192.709 146.958 Q195.787 142.351 201.598 142.351 Z" fill="#000000" fill-rule="nonzero" fill-opacity="1" /><path clip-path="url(#clip990)" d="M16.4842 885.904 L16.4842 876.323 L48.8219 864.196 L16.4842 852.006 L16.4842 842.426 L64.0042 842.426 L64.0042 848.696 L22.277 848.696 L54.8694 860.95 L54.8694 867.411 L22.277 879.665 L64.0042 879.665 L64.0042 885.904 L16.4842 885.904 Z" fill="#000000" fill-rule="nonzero" fill-opacity="1" /><path clip-path="url(#clip990)" d="M14.5426 815.849 Q21.8632 820.114 29.0246 822.183 Q36.186 824.252 43.5384 824.252 Q50.8908 824.252 58.1159 822.183 Q65.3091 820.082 72.5979 815.849 L72.5979 820.941 Q65.1182 825.716 57.8931 828.103 Q50.668 830.458 43.5384 830.458 Q36.4406 830.458 29.2474 828.103 Q22.0542 825.748 14.5426 820.941 L14.5426 815.849 Z" fill="#000000" fill-rule="nonzero" fill-opacity="1" /><path clip-path="url(#clip990)" d="M22.818 788.349 L46.4666 797.07 L46.4666 779.596 L22.818 788.349 M16.4842 791.978 L16.4842 784.689 L64.0042 766.578 L64.0042 773.262 L51.8138 777.591 L51.8138 799.012 L64.0042 803.34 L64.0042 810.12 L16.4842 791.978 Z" fill="#000000" fill-rule="nonzero" fill-opacity="1" /><path clip-path="url(#clip990)" d="M16.4842 749.486 L16.4842 744.076 L70.0516 760.626 L70.0516 766.037 L16.4842 749.486 Z" fill="#000000" fill-rule="nonzero" fill-opacity="1" /><path clip-path="url(#clip990)" d="M35.1993 710.178 Q31.2526 707.982 29.3747 704.926 Q27.4968 701.871 27.4968 697.733 Q27.4968 692.163 31.4117 689.14 Q35.2948 686.116 42.4881 686.116 L64.0042 686.116 L64.0042 692.004 L42.679 692.004 Q37.5546 692.004 35.072 693.818 Q32.5894 695.633 32.5894 699.356 Q32.5894 703.908 35.6131 706.55 Q38.6368 709.191 43.8567 709.191 L64.0042 709.191 L64.0042 715.08 L42.679 715.08 Q37.5228 715.08 35.072 716.894 Q32.5894 718.708 32.5894 722.496 Q32.5894 726.984 35.6449 729.625 Q38.6686 732.267 43.8567 732.267 L64.0042 732.267 L64.0042 738.155 L28.3562 738.155 L28.3562 732.267 L33.8944 732.267 Q30.616 730.262 29.0564 727.461 Q27.4968 724.66 27.4968 720.809 Q27.4968 716.926 29.4702 714.22 Q31.4436 711.483 35.1993 710.178 Z" fill="#000000" fill-rule="nonzero" fill-opacity="1" /><path clip-path="url(#clip990)" d="M14.5426 675.358 L14.5426 670.265 Q22.0542 665.491 29.2474 663.136 Q36.4406 660.748 43.5384 660.748 Q50.668 660.748 57.8931 663.136 Q65.1182 665.491 72.5979 670.265 L72.5979 675.358 Q65.3091 671.125 58.1159 669.056 Q50.8908 666.955 43.5384 666.955 Q36.186 666.955 29.0246 669.056 Q21.8632 671.125 14.5426 675.358 Z" fill="#000000" fill-rule="nonzero" fill-opacity="1" /><path clip-path="url(#clip990)" d="M537.817 12.096 L550.01 12.096 L565.444 53.2532 L580.959 12.096 L593.152 12.096 L593.152 72.576 L585.172 72.576 L585.172 19.4686 L569.576 60.9499 L561.353 60.9499 L545.757 19.4686 L545.757 72.576 L537.817 72.576 L537.817 12.096 Z" fill="#000000" fill-rule="nonzero" fill-opacity="1" /><path clip-path="url(#clip990)" d="M629.691 49.7694 Q620.658 49.7694 617.174 51.8354 Q613.69 53.9013 613.69 58.8839 Q613.69 62.8538 616.283 65.2034 Q618.916 67.5124 623.412 67.5124 Q629.61 67.5124 633.337 63.1374 Q637.104 58.7219 637.104 51.4303 L637.104 49.7694 L629.691 49.7694 M644.558 46.6907 L644.558 72.576 L637.104 72.576 L637.104 65.6895 Q634.552 69.8214 630.745 71.8063 Q626.937 73.7508 621.427 73.7508 Q614.46 73.7508 610.328 69.8619 Q606.237 65.9325 606.237 59.3701 Q606.237 51.7138 611.341 47.825 Q616.485 43.9361 626.653 43.9361 L637.104 43.9361 L637.104 43.2069 Q637.104 38.0623 633.702 35.2672 Q630.339 32.4315 624.223 32.4315 Q620.334 32.4315 616.647 33.3632 Q612.961 34.295 609.558 36.1584 L609.558 29.2718 Q613.65 27.692 617.498 26.9223 Q621.346 26.1121 624.992 26.1121 Q634.836 26.1121 639.697 31.2163 Q644.558 36.3204 644.558 46.6907 Z" fill="#000000" fill-rule="nonzero" fill-opacity="1" /><path clip-path="url(#clip990)" d="M689.766 49.3643 Q689.766 41.2625 686.404 36.8065 Q683.082 32.3505 677.046 32.3505 Q671.051 32.3505 667.689 36.8065 Q664.367 41.2625 664.367 49.3643 Q664.367 57.4256 667.689 61.8816 Q671.051 66.3376 677.046 66.3376 Q683.082 66.3376 686.404 61.8816 Q689.766 57.4256 689.766 49.3643 M697.22 66.9452 Q697.22 78.5308 692.075 84.1616 Q686.931 89.8329 676.317 89.8329 Q672.388 89.8329 668.904 89.2252 Q665.42 88.6581 662.139 87.4428 L662.139 80.1917 Q665.42 81.9741 668.621 82.8248 Q671.821 83.6755 675.142 83.6755 Q682.475 83.6755 686.12 79.8271 Q689.766 76.0193 689.766 68.282 L689.766 64.5957 Q687.457 68.6061 683.852 70.5911 Q680.247 72.576 675.224 72.576 Q666.879 72.576 661.775 66.2161 Q656.67 59.8562 656.67 49.3643 Q656.67 38.832 661.775 32.472 Q666.879 26.1121 675.224 26.1121 Q680.247 26.1121 683.852 28.0971 Q687.457 30.082 689.766 34.0924 L689.766 27.2059 L697.22 27.2059 L697.22 66.9452 Z" fill="#000000" fill-rule="nonzero" fill-opacity="1" /><path clip-path="url(#clip990)" d="M750.287 45.1919 L750.287 72.576 L742.833 72.576 L742.833 45.4349 Q742.833 38.994 740.322 35.7938 Q737.81 32.5936 732.787 32.5936 Q726.751 32.5936 723.267 36.4419 Q719.783 40.2903 719.783 46.9338 L719.783 72.576 L712.289 72.576 L712.289 27.2059 L719.783 27.2059 L719.783 34.2544 Q722.457 30.163 726.062 28.1376 Q729.708 26.1121 734.448 26.1121 Q742.266 26.1121 746.276 30.9732 Q750.287 35.7938 750.287 45.1919 Z" fill="#000000" fill-rule="nonzero" fill-opacity="1" /><path clip-path="url(#clip990)" d="M803.961 48.0275 L803.961 51.6733 L769.691 51.6733 Q770.177 59.3701 774.309 63.421 Q778.481 67.4314 785.894 67.4314 Q790.188 67.4314 794.199 66.3781 Q798.249 65.3249 802.219 63.2184 L802.219 70.267 Q798.209 71.9684 793.996 72.8596 Q789.783 73.7508 785.449 73.7508 Q774.592 73.7508 768.232 67.4314 Q761.913 61.1119 761.913 50.3365 Q761.913 39.1965 767.908 32.6746 Q773.944 26.1121 784.152 26.1121 Q793.307 26.1121 798.614 32.0264 Q803.961 37.9003 803.961 48.0275 M796.508 45.84 Q796.427 39.7232 793.064 36.0774 Q789.743 32.4315 784.233 32.4315 Q777.995 32.4315 774.228 35.9558 Q770.501 39.4801 769.934 45.8805 L796.508 45.84 Z" fill="#000000" fill-rule="nonzero" fill-opacity="1" /><path clip-path="url(#clip990)" d="M823.568 14.324 L823.568 27.2059 L838.921 27.2059 L838.921 32.9987 L823.568 32.9987 L823.568 57.6282 Q823.568 63.1779 825.066 64.7578 Q826.606 66.3376 831.264 66.3376 L838.921 66.3376 L838.921 72.576 L831.264 72.576 Q822.636 72.576 819.355 69.3758 Q816.073 66.1351 816.073 57.6282 L816.073 32.9987 L810.605 32.9987 L810.605 27.2059 L816.073 27.2059 L816.073 14.324 L823.568 14.324 Z" fill="#000000" fill-rule="nonzero" fill-opacity="1" /><path clip-path="url(#clip990)" d="M848.724 27.2059 L856.177 27.2059 L856.177 72.576 L848.724 72.576 L848.724 27.2059 M848.724 9.54393 L856.177 9.54393 L856.177 18.9825 L848.724 18.9825 L848.724 9.54393 Z" fill="#000000" fill-rule="nonzero" fill-opacity="1" /><path clip-path="url(#clip990)" d="M868.533 27.2059 L903.938 27.2059 L903.938 34.0114 L875.905 66.6212 L903.938 66.6212 L903.938 72.576 L867.52 72.576 L867.52 65.7705 L895.552 33.1607 L868.533 33.1607 L868.533 27.2059 Z" fill="#000000" fill-rule="nonzero" fill-opacity="1" /><path clip-path="url(#clip990)" d="M935.94 49.7694 Q926.906 49.7694 923.422 51.8354 Q919.939 53.9013 919.939 58.8839 Q919.939 62.8538 922.531 65.2034 Q925.164 67.5124 929.661 67.5124 Q935.859 67.5124 939.586 63.1374 Q943.353 58.7219 943.353 51.4303 L943.353 49.7694 L935.94 49.7694 M950.807 46.6907 L950.807 72.576 L943.353 72.576 L943.353 65.6895 Q940.801 69.8214 936.993 71.8063 Q933.185 73.7508 927.676 73.7508 Q920.708 73.7508 916.576 69.8619 Q912.485 65.9325 912.485 59.3701 Q912.485 51.7138 917.589 47.825 Q922.734 43.9361 932.902 43.9361 L943.353 43.9361 L943.353 43.2069 Q943.353 38.0623 939.95 35.2672 Q936.588 32.4315 930.471 32.4315 Q926.582 32.4315 922.896 33.3632 Q919.209 34.295 915.807 36.1584 L915.807 29.2718 Q919.898 27.692 923.746 26.9223 Q927.595 26.1121 931.241 26.1121 Q941.084 26.1121 945.945 31.2163 Q950.807 36.3204 950.807 46.6907 Z" fill="#000000" fill-rule="nonzero" fill-opacity="1" /><path clip-path="url(#clip990)" d="M973.532 14.324 L973.532 27.2059 L988.885 27.2059 L988.885 32.9987 L973.532 32.9987 L973.532 57.6282 Q973.532 63.1779 975.031 64.7578 Q976.57 66.3376 981.229 66.3376 L988.885 66.3376 L988.885 72.576 L981.229 72.576 Q972.6 72.576 969.319 69.3758 Q966.038 66.1351 966.038 57.6282 L966.038 32.9987 L960.569 32.9987 L960.569 27.2059 L966.038 27.2059 L966.038 14.324 L973.532 14.324 Z" fill="#000000" fill-rule="nonzero" fill-opacity="1" /><path clip-path="url(#clip990)" d="M998.688 27.2059 L1006.14 27.2059 L1006.14 72.576 L998.688 72.576 L998.688 27.2059 M998.688 9.54393 L1006.14 9.54393 L1006.14 18.9825 L998.688 18.9825 L998.688 9.54393 Z" fill="#000000" fill-rule="nonzero" fill-opacity="1" /><path clip-path="url(#clip990)" d="M1039.32 32.4315 Q1033.32 32.4315 1029.84 37.1306 Q1026.36 41.7891 1026.36 49.9314 Q1026.36 58.0738 1029.8 62.7728 Q1033.28 67.4314 1039.32 67.4314 Q1045.27 67.4314 1048.76 62.7323 Q1052.24 58.0333 1052.24 49.9314 Q1052.24 41.8701 1048.76 37.1711 Q1045.27 32.4315 1039.32 32.4315 M1039.32 26.1121 Q1049.04 26.1121 1054.59 32.4315 Q1060.14 38.7509 1060.14 49.9314 Q1060.14 61.0714 1054.59 67.4314 Q1049.04 73.7508 1039.32 73.7508 Q1029.56 73.7508 1024.01 67.4314 Q1018.5 61.0714 1018.5 49.9314 Q1018.5 38.7509 1024.01 32.4315 Q1029.56 26.1121 1039.32 26.1121 Z" fill="#000000" fill-rule="nonzero" fill-opacity="1" /><path clip-path="url(#clip990)" d="M1110.21 45.1919 L1110.21 72.576 L1102.76 72.576 L1102.76 45.4349 Q1102.76 38.994 1100.24 35.7938 Q1097.73 32.5936 1092.71 32.5936 Q1086.67 32.5936 1083.19 36.4419 Q1079.71 40.2903 1079.71 46.9338 L1079.71 72.576 L1072.21 72.576 L1072.21 27.2059 L1079.71 27.2059 L1079.71 34.2544 Q1082.38 30.163 1085.99 28.1376 Q1089.63 26.1121 1094.37 26.1121 Q1102.19 26.1121 1106.2 30.9732 Q1110.21 35.7938 1110.21 45.1919 Z" fill="#000000" fill-rule="nonzero" fill-opacity="1" /><path clip-path="url(#clip990)" d="M1169.03 32.4315 Q1163.03 32.4315 1159.55 37.1306 Q1156.07 41.7891 1156.07 49.9314 Q1156.07 58.0738 1159.51 62.7728 Q1162.99 67.4314 1169.03 67.4314 Q1174.98 67.4314 1178.47 62.7323 Q1181.95 58.0333 1181.95 49.9314 Q1181.95 41.8701 1178.47 37.1711 Q1174.98 32.4315 1169.03 32.4315 M1169.03 26.1121 Q1178.75 26.1121 1184.3 32.4315 Q1189.85 38.7509 1189.85 49.9314 Q1189.85 61.0714 1184.3 67.4314 Q1178.75 73.7508 1169.03 73.7508 Q1159.27 73.7508 1153.72 67.4314 Q1148.21 61.0714 1148.21 49.9314 Q1148.21 38.7509 1153.72 32.4315 Q1159.27 26.1121 1169.03 26.1121 Z" fill="#000000" fill-rule="nonzero" fill-opacity="1" /><path clip-path="url(#clip990)" d="M1196.86 27.2059 L1204.76 27.2059 L1218.94 65.2844 L1233.11 27.2059 L1241.01 27.2059 L1224 72.576 L1213.87 72.576 L1196.86 27.2059 Z" fill="#000000" fill-rule="nonzero" fill-opacity="1" /><path clip-path="url(#clip990)" d="M1290.11 48.0275 L1290.11 51.6733 L1255.84 51.6733 Q1256.33 59.3701 1260.46 63.421 Q1264.63 67.4314 1272.04 67.4314 Q1276.34 67.4314 1280.35 66.3781 Q1284.4 65.3249 1288.37 63.2184 L1288.37 70.267 Q1284.36 71.9684 1280.15 72.8596 Q1275.93 73.7508 1271.6 73.7508 Q1260.74 73.7508 1254.38 67.4314 Q1248.06 61.1119 1248.06 50.3365 Q1248.06 39.1965 1254.06 32.6746 Q1260.09 26.1121 1270.3 26.1121 Q1279.46 26.1121 1284.76 32.0264 Q1290.11 37.9003 1290.11 48.0275 M1282.66 45.84 Q1282.58 39.7232 1279.21 36.0774 Q1275.89 32.4315 1270.38 32.4315 Q1264.14 32.4315 1260.38 35.9558 Q1256.65 39.4801 1256.08 45.8805 L1282.66 45.84 Z" fill="#000000" fill-rule="nonzero" fill-opacity="1" /><path clip-path="url(#clip990)" d="M1328.63 34.1734 Q1327.38 33.4443 1325.88 33.1202 Q1324.42 32.7556 1322.64 32.7556 Q1316.32 32.7556 1312.92 36.8875 Q1309.55 40.9789 1309.55 48.6757 L1309.55 72.576 L1302.06 72.576 L1302.06 27.2059 L1309.55 27.2059 L1309.55 34.2544 Q1311.9 30.1225 1315.67 28.1376 Q1319.44 26.1121 1324.83 26.1121 Q1325.6 26.1121 1326.53 26.2337 Q1327.46 26.3147 1328.59 26.5172 L1328.63 34.1734 Z" fill="#000000" fill-rule="nonzero" fill-opacity="1" /><path clip-path="url(#clip990)" d="M1370.2 14.324 L1370.2 27.2059 L1385.55 27.2059 L1385.55 32.9987 L1370.2 32.9987 L1370.2 57.6282 Q1370.2 63.1779 1371.7 64.7578 Q1373.23 66.3376 1377.89 66.3376 L1385.55 66.3376 L1385.55 72.576 L1377.89 72.576 Q1369.26 72.576 1365.98 69.3758 Q1362.7 66.1351 1362.7 57.6282 L1362.7 32.9987 L1357.23 32.9987 L1357.23 27.2059 L1362.7 27.2059 L1362.7 14.324 L1370.2 14.324 Z" fill="#000000" fill-rule="nonzero" fill-opacity="1" /><path clip-path="url(#clip990)" d="M1433.07 45.1919 L1433.07 72.576 L1425.61 72.576 L1425.61 45.4349 Q1425.61 38.994 1423.1 35.7938 Q1420.59 32.5936 1415.57 32.5936 Q1409.53 32.5936 1406.05 36.4419 Q1402.56 40.2903 1402.56 46.9338 L1402.56 72.576 L1395.07 72.576 L1395.07 9.54393 L1402.56 9.54393 L1402.56 34.2544 Q1405.24 30.163 1408.84 28.1376 Q1412.49 26.1121 1417.23 26.1121 Q1425.05 26.1121 1429.06 30.9732 Q1433.07 35.7938 1433.07 45.1919 Z" fill="#000000" fill-rule="nonzero" fill-opacity="1" /><path clip-path="url(#clip990)" d="M1486.74 48.0275 L1486.74 51.6733 L1452.47 51.6733 Q1452.96 59.3701 1457.09 63.421 Q1461.26 67.4314 1468.67 67.4314 Q1472.97 67.4314 1476.98 66.3781 Q1481.03 65.3249 1485 63.2184 L1485 70.267 Q1480.99 71.9684 1476.78 72.8596 Q1472.56 73.7508 1468.23 73.7508 Q1457.37 73.7508 1451.01 67.4314 Q1444.69 61.1119 1444.69 50.3365 Q1444.69 39.1965 1450.69 32.6746 Q1456.72 26.1121 1466.93 26.1121 Q1476.09 26.1121 1481.39 32.0264 Q1486.74 37.9003 1486.74 48.0275 M1479.29 45.84 Q1479.21 39.7232 1475.84 36.0774 Q1472.52 32.4315 1467.01 32.4315 Q1460.77 32.4315 1457.01 35.9558 Q1453.28 39.4801 1452.71 45.8805 L1479.29 45.84 Z" fill="#000000" fill-rule="nonzero" fill-opacity="1" /><path clip-path="url(#clip990)" d="M1533.85 18.8205 L1533.85 65.8515 L1543.74 65.8515 Q1556.25 65.8515 1562.05 60.1802 Q1567.88 54.509 1567.88 42.2752 Q1567.88 30.1225 1562.05 24.4918 Q1556.25 18.8205 1543.74 18.8205 L1533.85 18.8205 M1525.67 12.096 L1542.48 12.096 Q1560.06 12.096 1568.29 19.4281 Q1576.51 26.7198 1576.51 42.2752 Q1576.51 57.9117 1568.25 65.2439 Q1559.98 72.576 1542.48 72.576 L1525.67 72.576 L1525.67 12.096 Z" fill="#000000" fill-rule="nonzero" fill-opacity="1" /><path clip-path="url(#clip990)" d="M1589.23 27.2059 L1596.68 27.2059 L1596.68 72.576 L1589.23 72.576 L1589.23 27.2059 M1589.23 9.54393 L1596.68 9.54393 L1596.68 18.9825 L1589.23 18.9825 L1589.23 9.54393 Z" fill="#000000" fill-rule="nonzero" fill-opacity="1" /><path clip-path="url(#clip990)" d="M1647.6 35.9153 Q1650.4 30.8922 1654.29 28.5022 Q1658.18 26.1121 1663.44 26.1121 Q1670.53 26.1121 1674.38 31.0947 Q1678.23 36.0368 1678.23 45.1919 L1678.23 72.576 L1670.73 72.576 L1670.73 45.4349 Q1670.73 38.913 1668.42 35.7533 Q1666.12 32.5936 1661.38 32.5936 Q1655.58 32.5936 1652.22 36.4419 Q1648.86 40.2903 1648.86 46.9338 L1648.86 72.576 L1641.36 72.576 L1641.36 45.4349 Q1641.36 38.8725 1639.06 35.7533 Q1636.75 32.5936 1631.93 32.5936 Q1626.21 32.5936 1622.85 36.4824 Q1619.49 40.3308 1619.49 46.9338 L1619.49 72.576 L1612 72.576 L1612 27.2059 L1619.49 27.2059 L1619.49 34.2544 Q1622.04 30.082 1625.61 28.0971 Q1629.17 26.1121 1634.07 26.1121 Q1639.01 26.1121 1642.46 28.6237 Q1645.94 31.1352 1647.6 35.9153 Z" fill="#000000" fill-rule="nonzero" fill-opacity="1" /><path clip-path="url(#clip990)" d="M1694.15 62.2867 L1702.69 62.2867 L1702.69 72.576 L1694.15 72.576 L1694.15 62.2867 Z" fill="#000000" fill-rule="nonzero" fill-opacity="1" /><path clip-path="url(#clip990)" d="M1763.42 32.4315 Q1757.42 32.4315 1753.94 37.1306 Q1750.46 41.7891 1750.46 49.9314 Q1750.46 58.0738 1753.9 62.7728 Q1757.38 67.4314 1763.42 67.4314 Q1769.37 67.4314 1772.86 62.7323 Q1776.34 58.0333 1776.34 49.9314 Q1776.34 41.8701 1772.86 37.1711 Q1769.37 32.4315 1763.42 32.4315 M1763.42 26.1121 Q1773.14 26.1121 1778.69 32.4315 Q1784.24 38.7509 1784.24 49.9314 Q1784.24 61.0714 1778.69 67.4314 Q1773.14 73.7508 1763.42 73.7508 Q1753.66 73.7508 1748.11 67.4314 Q1742.6 61.0714 1742.6 49.9314 Q1742.6 38.7509 1748.11 32.4315 Q1753.66 26.1121 1763.42 26.1121 Z" fill="#000000" fill-rule="nonzero" fill-opacity="1" /><path clip-path="url(#clip990)" d="M1819.56 9.54393 L1819.56 15.7418 L1812.43 15.7418 Q1808.42 15.7418 1806.84 17.3622 Q1805.3 18.9825 1805.3 23.1955 L1805.3 27.2059 L1817.58 27.2059 L1817.58 32.9987 L1805.3 32.9987 L1805.3 72.576 L1797.81 72.576 L1797.81 32.9987 L1790.68 32.9987 L1790.68 27.2059 L1797.81 27.2059 L1797.81 24.0462 Q1797.81 16.471 1801.33 13.0277 Q1804.86 9.54393 1812.51 9.54393 L1819.56 9.54393 Z" fill="#000000" fill-rule="nonzero" fill-opacity="1" /><path clip-path="url(#clip990)" d="M1888.75 14.0809 L1888.75 22.0612 Q1884.09 19.8332 1879.96 18.7395 Q1875.83 17.6457 1871.98 17.6457 Q1865.3 17.6457 1861.65 20.2383 Q1858.05 22.8309 1858.05 27.611 Q1858.05 31.6214 1860.44 33.6873 Q1862.87 35.7128 1869.59 36.9686 L1874.53 37.9813 Q1883.69 39.7232 1888.02 44.1387 Q1892.4 48.5136 1892.4 55.8863 Q1892.4 64.6767 1886.48 69.2137 Q1880.61 73.7508 1869.23 73.7508 Q1864.93 73.7508 1860.07 72.7785 Q1855.25 71.8063 1850.07 69.9024 L1850.07 61.4765 Q1855.05 64.2716 1859.83 65.6895 Q1864.61 67.1073 1869.23 67.1073 Q1876.24 67.1073 1880.04 64.3527 Q1883.85 61.598 1883.85 56.4939 Q1883.85 52.0379 1881.1 49.5264 Q1878.38 47.0148 1872.14 45.759 L1867.16 44.7868 Q1858.01 42.9639 1853.92 39.075 Q1849.82 35.1862 1849.82 28.2591 Q1849.82 20.2383 1855.45 15.6203 Q1861.13 11.0023 1871.05 11.0023 Q1875.3 11.0023 1879.72 11.7719 Q1884.13 12.5416 1888.75 14.0809 Z" fill="#000000" fill-rule="nonzero" fill-opacity="1" /><path clip-path="url(#clip990)" d="M1912.05 65.7705 L1912.05 89.8329 L1904.55 89.8329 L1904.55 27.2059 L1912.05 27.2059 L1912.05 34.0924 Q1914.4 30.0415 1917.96 28.0971 Q1921.57 26.1121 1926.55 26.1121 Q1934.81 26.1121 1939.96 32.6746 Q1945.14 39.2371 1945.14 49.9314 Q1945.14 60.6258 1939.96 67.1883 Q1934.81 73.7508 1926.55 73.7508 Q1921.57 73.7508 1917.96 71.8063 Q1914.4 69.8214 1912.05 65.7705 M1937.4 49.9314 Q1937.4 41.7081 1934 37.0496 Q1930.64 32.3505 1924.72 32.3505 Q1918.81 32.3505 1915.41 37.0496 Q1912.05 41.7081 1912.05 49.9314 Q1912.05 58.1548 1915.41 62.8538 Q1918.81 67.5124 1924.72 67.5124 Q1930.64 67.5124 1934 62.8538 Q1937.4 58.1548 1937.4 49.9314 Z" fill="#000000" fill-rule="nonzero" fill-opacity="1" /><path clip-path="url(#clip990)" d="M1957.5 27.2059 L1964.95 27.2059 L1964.95 72.576 L1957.5 72.576 L1957.5 27.2059 M1957.5 9.54393 L1964.95 9.54393 L1964.95 18.9825 L1957.5 18.9825 L1957.5 9.54393 Z" fill="#000000" fill-rule="nonzero" fill-opacity="1" /><path clip-path="url(#clip990)" d="M2018.26 45.1919 L2018.26 72.576 L2010.81 72.576 L2010.81 45.4349 Q2010.81 38.994 2008.3 35.7938 Q2005.78 32.5936 2000.76 32.5936 Q1994.72 32.5936 1991.24 36.4419 Q1987.76 40.2903 1987.76 46.9338 L1987.76 72.576 L1980.26 72.576 L1980.26 27.2059 L1987.76 27.2059 L1987.76 34.2544 Q1990.43 30.163 1994.04 28.1376 Q1997.68 26.1121 2002.42 26.1121 Q2010.24 26.1121 2014.25 30.9732 Q2018.26 35.7938 2018.26 45.1919 Z" fill="#000000" fill-rule="nonzero" fill-opacity="1" /><path clip-path="url(#clip990)" d="M2062.05 28.5427 L2062.05 35.5912 Q2058.89 33.9709 2055.49 33.1607 Q2052.09 32.3505 2048.44 32.3505 Q2042.89 32.3505 2040.09 34.0519 Q2037.34 35.7533 2037.34 39.156 Q2037.34 41.7486 2039.32 43.2475 Q2041.31 44.7058 2047.31 46.0426 L2049.86 46.6097 Q2057.8 48.3111 2061.12 51.4303 Q2064.48 54.509 2064.48 60.0587 Q2064.48 66.3781 2059.46 70.0644 Q2054.48 73.7508 2045.73 73.7508 Q2042.08 73.7508 2038.11 73.0216 Q2034.18 72.3329 2029.81 70.9151 L2029.81 63.2184 Q2033.94 65.3654 2037.95 66.4591 Q2041.96 67.5124 2045.89 67.5124 Q2051.15 67.5124 2053.99 65.73 Q2056.82 63.9071 2056.82 60.6258 Q2056.82 57.5877 2054.76 55.9673 Q2052.73 54.3469 2045.81 52.8481 L2043.21 52.2405 Q2036.29 50.7821 2033.21 47.7845 Q2030.13 44.7463 2030.13 39.4801 Q2030.13 33.0797 2034.67 29.5959 Q2039.2 26.1121 2047.55 26.1121 Q2051.68 26.1121 2055.33 26.7198 Q2058.97 27.3274 2062.05 28.5427 Z" fill="#000000" fill-rule="nonzero" fill-opacity="1" /><circle clip-path="url(#clip992)" cx="309.067" cy="160.256" r="14.4" fill="#009af9" fill-rule="evenodd" fill-opacity="1" stroke="#000000" stroke-opacity="1" stroke-width="3.2"/>
<circle clip-path="url(#clip992)" cx="413.497" cy="163.341" r="14.4" fill="#009af9" fill-rule="evenodd" fill-opacity="1" stroke="#000000" stroke-opacity="1" stroke-width="3.2"/>
<circle clip-path="url(#clip992)" cx="517.926" cy="165.499" r="14.4" fill="#009af9" fill-rule="evenodd" fill-opacity="1" stroke="#000000" stroke-opacity="1" stroke-width="3.2"/>
<circle clip-path="url(#clip992)" cx="622.356" cy="169.903" r="14.4" fill="#009af9" fill-rule="evenodd" fill-opacity="1" stroke="#000000" stroke-opacity="1" stroke-width="3.2"/>
<circle clip-path="url(#clip992)" cx="726.786" cy="205.241" r="14.4" fill="#009af9" fill-rule="evenodd" fill-opacity="1" stroke="#000000" stroke-opacity="1" stroke-width="3.2"/>
<circle clip-path="url(#clip992)" cx="831.215" cy="1218.57" r="14.4" fill="#009af9" fill-rule="evenodd" fill-opacity="1" stroke="#000000" stroke-opacity="1" stroke-width="3.2"/>
<circle clip-path="url(#clip992)" cx="935.645" cy="318.101" r="14.4" fill="#009af9" fill-rule="evenodd" fill-opacity="1" stroke="#000000" stroke-opacity="1" stroke-width="3.2"/>
<circle clip-path="url(#clip992)" cx="1040.07" cy="1351.77" r="14.4" fill="#009af9" fill-rule="evenodd" fill-opacity="1" stroke="#000000" stroke-opacity="1" stroke-width="3.2"/>
<circle clip-path="url(#clip992)" cx="1144.5" cy="1340.64" r="14.4" fill="#009af9" fill-rule="evenodd" fill-opacity="1" stroke="#000000" stroke-opacity="1" stroke-width="3.2"/>
<circle clip-path="url(#clip992)" cx="1248.93" cy="1355.73" r="14.4" fill="#009af9" fill-rule="evenodd" fill-opacity="1" stroke="#000000" stroke-opacity="1" stroke-width="3.2"/>
<circle clip-path="url(#clip992)" cx="1353.36" cy="1381.21" r="14.4" fill="#009af9" fill-rule="evenodd" fill-opacity="1" stroke="#000000" stroke-opacity="1" stroke-width="3.2"/>
<circle clip-path="url(#clip992)" cx="1457.79" cy="1373.92" r="14.4" fill="#009af9" fill-rule="evenodd" fill-opacity="1" stroke="#000000" stroke-opacity="1" stroke-width="3.2"/>
<circle clip-path="url(#clip992)" cx="1562.22" cy="1362.28" r="14.4" fill="#009af9" fill-rule="evenodd" fill-opacity="1" stroke="#000000" stroke-opacity="1" stroke-width="3.2"/>
<circle clip-path="url(#clip992)" cx="1666.65" cy="1374.04" r="14.4" fill="#009af9" fill-rule="evenodd" fill-opacity="1" stroke="#000000" stroke-opacity="1" stroke-width="3.2"/>
<circle clip-path="url(#clip992)" cx="1771.08" cy="1375.57" r="14.4" fill="#009af9" fill-rule="evenodd" fill-opacity="1" stroke="#000000" stroke-opacity="1" stroke-width="3.2"/>
<circle clip-path="url(#clip992)" cx="1875.51" cy="1373.87" r="14.4" fill="#009af9" fill-rule="evenodd" fill-opacity="1" stroke="#000000" stroke-opacity="1" stroke-width="3.2"/>
<circle clip-path="url(#clip992)" cx="1979.94" cy="1373.67" r="14.4" fill="#009af9" fill-rule="evenodd" fill-opacity="1" stroke="#000000" stroke-opacity="1" stroke-width="3.2"/>
<circle clip-path="url(#clip992)" cx="2084.37" cy="1386.4" r="14.4" fill="#009af9" fill-rule="evenodd" fill-opacity="1" stroke="#000000" stroke-opacity="1" stroke-width="3.2"/>
<circle clip-path="url(#clip992)" cx="2188.8" cy="1370.39" r="14.4" fill="#009af9" fill-rule="evenodd" fill-opacity="1" stroke="#000000" stroke-opacity="1" stroke-width="3.2"/>
<circle clip-path="url(#clip992)" cx="2293.23" cy="1374.55" r="14.4" fill="#009af9" fill-rule="evenodd" fill-opacity="1" stroke="#000000" stroke-opacity="1" stroke-width="3.2"/>
</svg>
