<?xml version="1.0" encoding="utf-8"?>
<svg xmlns="http://www.w3.org/2000/svg" xmlns:xlink="http://www.w3.org/1999/xlink" width="600" height="400" viewBox="0 0 2400 1600">
<defs>
  <clipPath id="clip710">
    <rect x="0" y="0" width="2400" height="1600"/>
  </clipPath>
</defs>
<path clip-path="url(#clip710)" d="M0 1600 L2400 1600 L2400 0 L0 0  Z" fill="#ffffff" fill-rule="evenodd" fill-opacity="1"/>
<defs>
  <clipPath id="clip711">
    <rect x="480" y="0" width="1681" height="1600"/>
  </clipPath>
</defs>
<path clip-path="url(#clip710)" d="M257.204 1423.18 L2352.76 1423.18 L2352.76 123.472 L257.204 123.472  Z" fill="#ffffff" fill-rule="evenodd" fill-opacity="1"/>
<defs>
  <clipPath id="clip712">
    <rect x="257" y="123" width="2097" height="1301"/>
  </clipPath>
</defs>
<polyline clip-path="url(#clip712)" style="stroke:#000000; stroke-linecap:round; stroke-linejoin:round; stroke-width:2; stroke-opacity:0.1; fill:none" points="316.109,1423.18 316.109,123.472 "/>
<polyline clip-path="url(#clip712)" style="stroke:#000000; stroke-linecap:round; stroke-linejoin:round; stroke-width:2; stroke-opacity:0.1; fill:none" points="719.565,1423.18 719.565,123.472 "/>
<polyline clip-path="url(#clip712)" style="stroke:#000000; stroke-linecap:round; stroke-linejoin:round; stroke-width:2; stroke-opacity:0.1; fill:none" points="1123.02,1423.18 1123.02,123.472 "/>
<polyline clip-path="url(#clip712)" style="stroke:#000000; stroke-linecap:round; stroke-linejoin:round; stroke-width:2; stroke-opacity:0.1; fill:none" points="1526.48,1423.18 1526.48,123.472 "/>
<polyline clip-path="url(#clip712)" style="stroke:#000000; stroke-linecap:round; stroke-linejoin:round; stroke-width:2; stroke-opacity:0.1; fill:none" points="1929.93,1423.18 1929.93,123.472 "/>
<polyline clip-path="url(#clip712)" style="stroke:#000000; stroke-linecap:round; stroke-linejoin:round; stroke-width:2; stroke-opacity:0.1; fill:none" points="2333.39,1423.18 2333.39,123.472 "/>
<polyline clip-path="url(#clip712)" style="stroke:#000000; stroke-linecap:round; stroke-linejoin:round; stroke-width:2; stroke-opacity:0.1; fill:none" points="257.204,1386.4 2352.76,1386.4 "/>
<polyline clip-path="url(#clip712)" style="stroke:#000000; stroke-linecap:round; stroke-linejoin:round; stroke-width:2; stroke-opacity:0.1; fill:none" points="257.204,1169.75 2352.76,1169.75 "/>
<polyline clip-path="url(#clip712)" style="stroke:#000000; stroke-linecap:round; stroke-linejoin:round; stroke-width:2; stroke-opacity:0.1; fill:none" points="257.204,953.114 2352.76,953.114 "/>
<polyline clip-path="url(#clip712)" style="stroke:#000000; stroke-linecap:round; stroke-linejoin:round; stroke-width:2; stroke-opacity:0.1; fill:none" points="257.204,736.473 2352.76,736.473 "/>
<polyline clip-path="url(#clip712)" style="stroke:#000000; stroke-linecap:round; stroke-linejoin:round; stroke-width:2; stroke-opacity:0.1; fill:none" points="257.204,519.832 2352.76,519.832 "/>
<polyline clip-path="url(#clip712)" style="stroke:#000000; stroke-linecap:round; stroke-linejoin:round; stroke-width:2; stroke-opacity:0.1; fill:none" points="257.204,303.191 2352.76,303.191 "/>
<polyline clip-path="url(#clip710)" style="stroke:#000000; stroke-linecap:round; stroke-linejoin:round; stroke-width:4; stroke-opacity:1; fill:none" points="257.204,1423.18 2352.76,1423.18 "/>
<polyline clip-path="url(#clip710)" style="stroke:#000000; stroke-linecap:round; stroke-linejoin:round; stroke-width:4; stroke-opacity:1; fill:none" points="316.109,1423.18 316.109,1404.28 "/>
<polyline clip-path="url(#clip710)" style="stroke:#000000; stroke-linecap:round; stroke-linejoin:round; stroke-width:4; stroke-opacity:1; fill:none" points="719.565,1423.18 719.565,1404.28 "/>
<polyline clip-path="url(#clip710)" style="stroke:#000000; stroke-linecap:round; stroke-linejoin:round; stroke-width:4; stroke-opacity:1; fill:none" points="1123.02,1423.18 1123.02,1404.28 "/>
<polyline clip-path="url(#clip710)" style="stroke:#000000; stroke-linecap:round; stroke-linejoin:round; stroke-width:4; stroke-opacity:1; fill:none" points="1526.48,1423.18 1526.48,1404.28 "/>
<polyline clip-path="url(#clip710)" style="stroke:#000000; stroke-linecap:round; stroke-linejoin:round; stroke-width:4; stroke-opacity:1; fill:none" points="1929.93,1423.18 1929.93,1404.28 "/>
<polyline clip-path="url(#clip710)" style="stroke:#000000; stroke-linecap:round; stroke-linejoin:round; stroke-width:4; stroke-opacity:1; fill:none" points="2333.39,1423.18 2333.39,1404.28 "/>
<path clip-path="url(#clip710)" d="M316.109 1454.1 Q312.498 1454.1 310.669 1457.66 Q308.863 1461.2 308.863 1468.33 Q308.863 1475.44 310.669 1479.01 Q312.498 1482.55 316.109 1482.55 Q319.743 1482.55 321.548 1479.01 Q323.377 1475.44 323.377 1468.33 Q323.377 1461.2 321.548 1457.66 Q319.743 1454.1 316.109 1454.1 M316.109 1450.39 Q321.919 1450.39 324.974 1455 Q328.053 1459.58 328.053 1468.33 Q328.053 1477.06 324.974 1481.67 Q321.919 1486.25 316.109 1486.25 Q310.298 1486.25 307.22 1481.67 Q304.164 1477.06 304.164 1468.33 Q304.164 1459.58 307.22 1455 Q310.298 1450.39 316.109 1450.39 Z" fill="#000000" fill-rule="nonzero" fill-opacity="1" /><path clip-path="url(#clip710)" d="M709.947 1481.64 L717.586 1481.64 L717.586 1455.28 L709.276 1456.95 L709.276 1452.69 L717.539 1451.02 L722.215 1451.02 L722.215 1481.64 L729.854 1481.64 L729.854 1485.58 L709.947 1485.58 L709.947 1481.64 Z" fill="#000000" fill-rule="nonzero" fill-opacity="1" /><path clip-path="url(#clip710)" d="M1117.67 1481.64 L1133.99 1481.64 L1133.99 1485.58 L1112.05 1485.58 L1112.05 1481.64 Q1114.71 1478.89 1119.29 1474.26 Q1123.9 1469.61 1125.08 1468.27 Q1127.33 1465.74 1128.21 1464.01 Q1129.11 1462.25 1129.11 1460.56 Q1129.11 1457.8 1127.16 1456.07 Q1125.24 1454.33 1122.14 1454.33 Q1119.94 1454.33 1117.49 1455.09 Q1115.06 1455.86 1112.28 1457.41 L1112.28 1452.69 Q1115.1 1451.55 1117.56 1450.97 Q1120.01 1450.39 1122.05 1450.39 Q1127.42 1450.39 1130.61 1453.08 Q1133.81 1455.77 1133.81 1460.26 Q1133.81 1462.39 1133 1464.31 Q1132.21 1466.2 1130.1 1468.8 Q1129.53 1469.47 1126.42 1472.69 Q1123.32 1475.88 1117.67 1481.64 Z" fill="#000000" fill-rule="nonzero" fill-opacity="1" /><path clip-path="url(#clip710)" d="M1530.73 1466.95 Q1534.08 1467.66 1535.96 1469.93 Q1537.85 1472.2 1537.85 1475.53 Q1537.85 1480.65 1534.34 1483.45 Q1530.82 1486.25 1524.34 1486.25 Q1522.16 1486.25 1519.85 1485.81 Q1517.55 1485.39 1515.1 1484.54 L1515.1 1480.02 Q1517.04 1481.16 1519.36 1481.74 Q1521.67 1482.32 1524.2 1482.32 Q1528.6 1482.32 1530.89 1480.58 Q1533.2 1478.84 1533.2 1475.53 Q1533.2 1472.48 1531.05 1470.77 Q1528.92 1469.03 1525.1 1469.03 L1521.07 1469.03 L1521.07 1465.19 L1525.29 1465.19 Q1528.73 1465.19 1530.56 1463.82 Q1532.39 1462.43 1532.39 1459.84 Q1532.39 1457.18 1530.49 1455.77 Q1528.62 1454.33 1525.1 1454.33 Q1523.18 1454.33 1520.98 1454.75 Q1518.78 1455.16 1516.14 1456.04 L1516.14 1451.88 Q1518.8 1451.14 1521.12 1450.77 Q1523.46 1450.39 1525.52 1450.39 Q1530.84 1450.39 1533.94 1452.83 Q1537.04 1455.23 1537.04 1459.35 Q1537.04 1462.22 1535.4 1464.21 Q1533.76 1466.18 1530.73 1466.95 Z" fill="#000000" fill-rule="nonzero" fill-opacity="1" /><path clip-path="url(#clip710)" d="M1932.94 1455.09 L1921.14 1473.54 L1932.94 1473.54 L1932.94 1455.09 M1931.72 1451.02 L1937.6 1451.02 L1937.6 1473.54 L1942.53 1473.54 L1942.53 1477.43 L1937.6 1477.43 L1937.6 1485.58 L1932.94 1485.58 L1932.94 1477.43 L1917.34 1477.43 L1917.34 1472.92 L1931.72 1451.02 Z" fill="#000000" fill-rule="nonzero" fill-opacity="1" /><path clip-path="url(#clip710)" d="M2323.67 1451.02 L2342.02 1451.02 L2342.02 1454.96 L2327.95 1454.96 L2327.95 1463.43 Q2328.97 1463.08 2329.99 1462.92 Q2331.01 1462.73 2332.02 1462.73 Q2337.81 1462.73 2341.19 1465.9 Q2344.57 1469.08 2344.57 1474.49 Q2344.57 1480.07 2341.1 1483.17 Q2337.63 1486.25 2331.31 1486.25 Q2329.13 1486.25 2326.86 1485.88 Q2324.62 1485.51 2322.21 1484.77 L2322.21 1480.07 Q2324.29 1481.2 2326.52 1481.76 Q2328.74 1482.32 2331.21 1482.32 Q2335.22 1482.32 2337.56 1480.21 Q2339.89 1478.1 2339.89 1474.49 Q2339.89 1470.88 2337.56 1468.77 Q2335.22 1466.67 2331.21 1466.67 Q2329.34 1466.67 2327.46 1467.08 Q2325.61 1467.5 2323.67 1468.38 L2323.67 1451.02 Z" fill="#000000" fill-rule="nonzero" fill-opacity="1" /><path clip-path="url(#clip710)" d="M1184.22 1520.52 L1224.42 1520.52 L1224.42 1525.93 L1207.55 1525.93 L1207.55 1568.04 L1201.09 1568.04 L1201.09 1525.93 L1184.22 1525.93 L1184.22 1520.52 Z" fill="#000000" fill-rule="nonzero" fill-opacity="1" /><path clip-path="url(#clip710)" d="M1244.44 1518.58 Q1240.18 1525.9 1238.11 1533.06 Q1236.04 1540.23 1236.04 1547.58 Q1236.04 1554.93 1238.11 1562.16 Q1240.21 1569.35 1244.44 1576.64 L1239.35 1576.64 Q1234.58 1569.16 1232.19 1561.93 Q1229.83 1554.71 1229.83 1547.58 Q1229.83 1540.48 1232.19 1533.29 Q1234.54 1526.09 1239.35 1518.58 L1244.44 1518.58 Z" fill="#000000" fill-rule="nonzero" fill-opacity="1" /><path clip-path="url(#clip710)" d="M1256.06 1520.52 L1262.49 1520.52 L1262.49 1564.73 Q1262.49 1573.33 1259.21 1577.21 Q1255.96 1581.09 1248.74 1581.09 L1246.29 1581.09 L1246.29 1575.68 L1248.29 1575.68 Q1252.56 1575.68 1254.31 1573.3 Q1256.06 1570.91 1256.06 1564.73 L1256.06 1520.52 Z" fill="#000000" fill-rule="nonzero" fill-opacity="1" /><path clip-path="url(#clip710)" d="M1285.44 1520.52 L1290.85 1520.52 L1274.3 1574.09 L1268.89 1574.09 L1285.44 1520.52 Z" fill="#000000" fill-rule="nonzero" fill-opacity="1" /><path clip-path="url(#clip710)" d="M1296.77 1518.52 L1302.66 1518.52 L1302.66 1547.77 L1320.13 1532.4 L1327.61 1532.4 L1308.7 1549.07 L1328.41 1568.04 L1320.77 1568.04 L1302.66 1550.63 L1302.66 1568.04 L1296.77 1568.04 L1296.77 1518.52 Z" fill="#000000" fill-rule="nonzero" fill-opacity="1" /><path clip-path="url(#clip710)" d="M1361.83 1578.87 L1361.83 1583.42 L1327.96 1583.42 L1327.96 1578.87 L1361.83 1578.87 Z" fill="#000000" fill-rule="nonzero" fill-opacity="1" /><path clip-path="url(#clip710)" d="M1374.02 1545.35 L1374.02 1562.76 L1384.33 1562.76 Q1389.52 1562.76 1392 1560.63 Q1394.51 1558.46 1394.51 1554.04 Q1394.51 1549.58 1392 1547.48 Q1389.52 1545.35 1384.33 1545.35 L1374.02 1545.35 M1374.02 1525.81 L1374.02 1540.13 L1383.53 1540.13 Q1388.24 1540.13 1390.54 1538.38 Q1392.86 1536.6 1392.86 1532.97 Q1392.86 1529.37 1390.54 1527.59 Q1388.24 1525.81 1383.53 1525.81 L1374.02 1525.81 M1367.59 1520.52 L1384.01 1520.52 Q1391.36 1520.52 1395.34 1523.58 Q1399.32 1526.63 1399.32 1532.27 Q1399.32 1536.63 1397.28 1539.21 Q1395.25 1541.79 1391.3 1542.42 Q1396.04 1543.44 1398.65 1546.69 Q1401.29 1549.9 1401.29 1554.74 Q1401.29 1561.11 1396.96 1564.57 Q1392.64 1568.04 1384.65 1568.04 L1367.59 1568.04 L1367.59 1520.52 Z" fill="#000000" fill-rule="nonzero" fill-opacity="1" /><path clip-path="url(#clip710)" d="M1411.13 1518.58 L1416.22 1518.58 Q1420.99 1526.09 1423.35 1533.29 Q1425.74 1540.48 1425.74 1547.58 Q1425.74 1554.71 1423.35 1561.93 Q1420.99 1569.16 1416.22 1576.64 L1411.13 1576.64 Q1415.36 1569.35 1417.43 1562.16 Q1419.53 1554.93 1419.53 1547.58 Q1419.53 1540.23 1417.43 1533.06 Q1415.36 1525.9 1411.13 1518.58 Z" fill="#000000" fill-rule="nonzero" fill-opacity="1" /><polyline clip-path="url(#clip710)" style="stroke:#000000; stroke-linecap:round; stroke-linejoin:round; stroke-width:4; stroke-opacity:1; fill:none" points="257.204,1423.18 257.204,123.472 "/>
<polyline clip-path="url(#clip710)" style="stroke:#000000; stroke-linecap:round; stroke-linejoin:round; stroke-width:4; stroke-opacity:1; fill:none" points="257.204,1386.4 276.102,1386.4 "/>
<polyline clip-path="url(#clip710)" style="stroke:#000000; stroke-linecap:round; stroke-linejoin:round; stroke-width:4; stroke-opacity:1; fill:none" points="257.204,1169.75 276.102,1169.75 "/>
<polyline clip-path="url(#clip710)" style="stroke:#000000; stroke-linecap:round; stroke-linejoin:round; stroke-width:4; stroke-opacity:1; fill:none" points="257.204,953.114 276.102,953.114 "/>
<polyline clip-path="url(#clip710)" style="stroke:#000000; stroke-linecap:round; stroke-linejoin:round; stroke-width:4; stroke-opacity:1; fill:none" points="257.204,736.473 276.102,736.473 "/>
<polyline clip-path="url(#clip710)" style="stroke:#000000; stroke-linecap:round; stroke-linejoin:round; stroke-width:4; stroke-opacity:1; fill:none" points="257.204,519.832 276.102,519.832 "/>
<polyline clip-path="url(#clip710)" style="stroke:#000000; stroke-linecap:round; stroke-linejoin:round; stroke-width:4; stroke-opacity:1; fill:none" points="257.204,303.191 276.102,303.191 "/>
<path clip-path="url(#clip710)" d="M114.26 1386.85 L143.936 1386.85 L143.936 1390.78 L114.26 1390.78 L114.26 1386.85 Z" fill="#000000" fill-rule="nonzero" fill-opacity="1" /><path clip-path="url(#clip710)" d="M168.195 1385.04 Q171.552 1385.76 173.427 1388.03 Q175.325 1390.3 175.325 1393.63 Q175.325 1398.75 171.806 1401.55 Q168.288 1404.35 161.806 1404.35 Q159.63 1404.35 157.315 1403.91 Q155.024 1403.49 152.57 1402.63 L152.57 1398.12 Q154.515 1399.25 156.829 1399.83 Q159.144 1400.41 161.667 1400.41 Q166.065 1400.41 168.357 1398.68 Q170.672 1396.94 170.672 1393.63 Q170.672 1390.57 168.519 1388.86 Q166.39 1387.12 162.57 1387.12 L158.542 1387.12 L158.542 1383.28 L162.755 1383.28 Q166.204 1383.28 168.033 1381.92 Q169.862 1380.53 169.862 1377.94 Q169.862 1375.27 167.964 1373.86 Q166.089 1372.43 162.57 1372.43 Q160.649 1372.43 158.45 1372.84 Q156.251 1373.26 153.612 1374.14 L153.612 1369.97 Q156.274 1369.23 158.589 1368.86 Q160.927 1368.49 162.987 1368.49 Q168.311 1368.49 171.413 1370.92 Q174.514 1373.33 174.514 1377.45 Q174.514 1380.32 172.871 1382.31 Q171.227 1384.28 168.195 1385.04 Z" fill="#000000" fill-rule="nonzero" fill-opacity="1" /><path clip-path="url(#clip710)" d="M184.19 1397.8 L189.075 1397.8 L189.075 1403.68 L184.19 1403.68 L184.19 1397.8 Z" fill="#000000" fill-rule="nonzero" fill-opacity="1" /><path clip-path="url(#clip710)" d="M209.26 1372.19 Q205.649 1372.19 203.82 1375.76 Q202.014 1379.3 202.014 1386.43 Q202.014 1393.54 203.82 1397.1 Q205.649 1400.64 209.26 1400.64 Q212.894 1400.64 214.699 1397.1 Q216.528 1393.54 216.528 1386.43 Q216.528 1379.3 214.699 1375.76 Q212.894 1372.19 209.26 1372.19 M209.26 1368.49 Q215.07 1368.49 218.125 1373.1 Q221.204 1377.68 221.204 1386.43 Q221.204 1395.16 218.125 1399.76 Q215.07 1404.35 209.26 1404.35 Q203.449 1404.35 200.371 1399.76 Q197.315 1395.16 197.315 1386.43 Q197.315 1377.68 200.371 1373.1 Q203.449 1368.49 209.26 1368.49 Z" fill="#000000" fill-rule="nonzero" fill-opacity="1" /><path clip-path="url(#clip710)" d="M115.256 1170.21 L144.931 1170.21 L144.931 1174.14 L115.256 1174.14 L115.256 1170.21 Z" fill="#000000" fill-rule="nonzero" fill-opacity="1" /><path clip-path="url(#clip710)" d="M159.052 1183.1 L175.371 1183.1 L175.371 1187.03 L153.427 1187.03 L153.427 1183.1 Q156.089 1180.34 160.672 1175.72 Q165.278 1171.06 166.459 1169.72 Q168.704 1167.2 169.584 1165.46 Q170.487 1163.7 170.487 1162.01 Q170.487 1159.26 168.542 1157.52 Q166.621 1155.78 163.519 1155.78 Q161.32 1155.78 158.866 1156.55 Q156.436 1157.31 153.658 1158.86 L153.658 1154.14 Q156.482 1153.01 158.936 1152.43 Q161.39 1151.85 163.427 1151.85 Q168.797 1151.85 171.991 1154.53 Q175.186 1157.22 175.186 1161.71 Q175.186 1163.84 174.376 1165.76 Q173.589 1167.66 171.482 1170.25 Q170.903 1170.92 167.802 1174.14 Q164.7 1177.34 159.052 1183.1 Z" fill="#000000" fill-rule="nonzero" fill-opacity="1" /><path clip-path="url(#clip710)" d="M185.186 1181.16 L190.07 1181.16 L190.07 1187.03 L185.186 1187.03 L185.186 1181.16 Z" fill="#000000" fill-rule="nonzero" fill-opacity="1" /><path clip-path="url(#clip710)" d="M200.301 1152.47 L218.658 1152.47 L218.658 1156.41 L204.584 1156.41 L204.584 1164.88 Q205.602 1164.53 206.621 1164.37 Q207.639 1164.19 208.658 1164.19 Q214.445 1164.19 217.824 1167.36 Q221.204 1170.53 221.204 1175.95 Q221.204 1181.53 217.732 1184.63 Q214.26 1187.71 207.94 1187.71 Q205.764 1187.71 203.496 1187.34 Q201.25 1186.97 198.843 1186.22 L198.843 1181.53 Q200.926 1182.66 203.149 1183.22 Q205.371 1183.77 207.848 1183.77 Q211.852 1183.77 214.19 1181.66 Q216.528 1179.56 216.528 1175.95 Q216.528 1172.34 214.19 1170.23 Q211.852 1168.12 207.848 1168.12 Q205.973 1168.12 204.098 1168.54 Q202.246 1168.96 200.301 1169.84 L200.301 1152.47 Z" fill="#000000" fill-rule="nonzero" fill-opacity="1" /><path clip-path="url(#clip710)" d="M114.26 953.565 L143.936 953.565 L143.936 957.5 L114.26 957.5 L114.26 953.565 Z" fill="#000000" fill-rule="nonzero" fill-opacity="1" /><path clip-path="url(#clip710)" d="M158.056 966.459 L174.376 966.459 L174.376 970.394 L152.431 970.394 L152.431 966.459 Q155.093 963.704 159.677 959.074 Q164.283 954.422 165.464 953.079 Q167.709 950.556 168.589 948.82 Q169.491 947.061 169.491 945.371 Q169.491 942.616 167.547 940.88 Q165.626 939.144 162.524 939.144 Q160.325 939.144 157.871 939.908 Q155.44 940.672 152.663 942.223 L152.663 937.5 Q155.487 936.366 157.94 935.787 Q160.394 935.209 162.431 935.209 Q167.802 935.209 170.996 937.894 Q174.19 940.579 174.19 945.07 Q174.19 947.199 173.38 949.121 Q172.593 951.019 170.487 953.611 Q169.908 954.283 166.806 957.5 Q163.704 960.695 158.056 966.459 Z" fill="#000000" fill-rule="nonzero" fill-opacity="1" /><path clip-path="url(#clip710)" d="M184.19 964.514 L189.075 964.514 L189.075 970.394 L184.19 970.394 L184.19 964.514 Z" fill="#000000" fill-rule="nonzero" fill-opacity="1" /><path clip-path="url(#clip710)" d="M209.26 938.912 Q205.649 938.912 203.82 942.477 Q202.014 946.019 202.014 953.148 Q202.014 960.255 203.82 963.82 Q205.649 967.361 209.26 967.361 Q212.894 967.361 214.699 963.82 Q216.528 960.255 216.528 953.148 Q216.528 946.019 214.699 942.477 Q212.894 938.912 209.26 938.912 M209.26 935.209 Q215.07 935.209 218.125 939.815 Q221.204 944.399 221.204 953.148 Q221.204 961.875 218.125 966.482 Q215.07 971.065 209.26 971.065 Q203.449 971.065 200.371 966.482 Q197.315 961.875 197.315 953.148 Q197.315 944.399 200.371 939.815 Q203.449 935.209 209.26 935.209 Z" fill="#000000" fill-rule="nonzero" fill-opacity="1" /><path clip-path="url(#clip710)" d="M115.256 736.924 L144.931 736.924 L144.931 740.859 L115.256 740.859 L115.256 736.924 Z" fill="#000000" fill-rule="nonzero" fill-opacity="1" /><path clip-path="url(#clip710)" d="M155.834 749.818 L163.473 749.818 L163.473 723.452 L155.163 725.119 L155.163 720.859 L163.427 719.193 L168.102 719.193 L168.102 749.818 L175.741 749.818 L175.741 753.753 L155.834 753.753 L155.834 749.818 Z" fill="#000000" fill-rule="nonzero" fill-opacity="1" /><path clip-path="url(#clip710)" d="M185.186 747.873 L190.07 747.873 L190.07 753.753 L185.186 753.753 L185.186 747.873 Z" fill="#000000" fill-rule="nonzero" fill-opacity="1" /><path clip-path="url(#clip710)" d="M200.301 719.193 L218.658 719.193 L218.658 723.128 L204.584 723.128 L204.584 731.6 Q205.602 731.253 206.621 731.091 Q207.639 730.906 208.658 730.906 Q214.445 730.906 217.824 734.077 Q221.204 737.248 221.204 742.665 Q221.204 748.244 217.732 751.345 Q214.26 754.424 207.94 754.424 Q205.764 754.424 203.496 754.054 Q201.25 753.683 198.843 752.943 L198.843 748.244 Q200.926 749.378 203.149 749.933 Q205.371 750.489 207.848 750.489 Q211.852 750.489 214.19 748.382 Q216.528 746.276 216.528 742.665 Q216.528 739.054 214.19 736.947 Q211.852 734.841 207.848 734.841 Q205.973 734.841 204.098 735.258 Q202.246 735.674 200.301 736.554 L200.301 719.193 Z" fill="#000000" fill-rule="nonzero" fill-opacity="1" /><path clip-path="url(#clip710)" d="M114.26 520.283 L143.936 520.283 L143.936 524.218 L114.26 524.218 L114.26 520.283 Z" fill="#000000" fill-rule="nonzero" fill-opacity="1" /><path clip-path="url(#clip710)" d="M154.839 533.177 L162.477 533.177 L162.477 506.811 L154.167 508.478 L154.167 504.218 L162.431 502.552 L167.107 502.552 L167.107 533.177 L174.746 533.177 L174.746 537.112 L154.839 537.112 L154.839 533.177 Z" fill="#000000" fill-rule="nonzero" fill-opacity="1" /><path clip-path="url(#clip710)" d="M184.19 531.232 L189.075 531.232 L189.075 537.112 L184.19 537.112 L184.19 531.232 Z" fill="#000000" fill-rule="nonzero" fill-opacity="1" /><path clip-path="url(#clip710)" d="M209.26 505.631 Q205.649 505.631 203.82 509.195 Q202.014 512.737 202.014 519.867 Q202.014 526.973 203.82 530.538 Q205.649 534.079 209.26 534.079 Q212.894 534.079 214.699 530.538 Q216.528 526.973 216.528 519.867 Q216.528 512.737 214.699 509.195 Q212.894 505.631 209.26 505.631 M209.26 501.927 Q215.07 501.927 218.125 506.533 Q221.204 511.117 221.204 519.867 Q221.204 528.593 218.125 533.2 Q215.07 537.783 209.26 537.783 Q203.449 537.783 200.371 533.2 Q197.315 528.593 197.315 519.867 Q197.315 511.117 200.371 506.533 Q203.449 501.927 209.26 501.927 Z" fill="#000000" fill-rule="nonzero" fill-opacity="1" /><path clip-path="url(#clip710)" d="M115.256 303.642 L144.931 303.642 L144.931 307.577 L115.256 307.577 L115.256 303.642 Z" fill="#000000" fill-rule="nonzero" fill-opacity="1" /><path clip-path="url(#clip710)" d="M165.024 288.99 Q161.413 288.99 159.584 292.554 Q157.778 296.096 157.778 303.226 Q157.778 310.332 159.584 313.897 Q161.413 317.438 165.024 317.438 Q168.658 317.438 170.464 313.897 Q172.292 310.332 172.292 303.226 Q172.292 296.096 170.464 292.554 Q168.658 288.99 165.024 288.99 M165.024 285.286 Q170.834 285.286 173.889 289.892 Q176.968 294.476 176.968 303.226 Q176.968 311.952 173.889 316.559 Q170.834 321.142 165.024 321.142 Q159.214 321.142 156.135 316.559 Q153.079 311.952 153.079 303.226 Q153.079 294.476 156.135 289.892 Q159.214 285.286 165.024 285.286 Z" fill="#000000" fill-rule="nonzero" fill-opacity="1" /><path clip-path="url(#clip710)" d="M185.186 314.591 L190.07 314.591 L190.07 320.471 L185.186 320.471 L185.186 314.591 Z" fill="#000000" fill-rule="nonzero" fill-opacity="1" /><path clip-path="url(#clip710)" d="M200.301 285.911 L218.658 285.911 L218.658 289.846 L204.584 289.846 L204.584 298.318 Q205.602 297.971 206.621 297.809 Q207.639 297.624 208.658 297.624 Q214.445 297.624 217.824 300.795 Q221.204 303.966 221.204 309.383 Q221.204 314.962 217.732 318.063 Q214.26 321.142 207.94 321.142 Q205.764 321.142 203.496 320.772 Q201.25 320.401 198.843 319.661 L198.843 314.962 Q200.926 316.096 203.149 316.651 Q205.371 317.207 207.848 317.207 Q211.852 317.207 214.19 315.101 Q216.528 312.994 216.528 309.383 Q216.528 305.772 214.19 303.665 Q211.852 301.559 207.848 301.559 Q205.973 301.559 204.098 301.976 Q202.246 302.392 200.301 303.272 L200.301 285.911 Z" fill="#000000" fill-rule="nonzero" fill-opacity="1" /><path clip-path="url(#clip710)" d="M16.4842 822.963 L16.4842 792.916 L21.895 792.916 L21.895 816.533 L35.9632 816.533 L35.9632 793.903 L41.3741 793.903 L41.3741 816.533 L58.5933 816.533 L58.5933 792.344 L64.0042 792.344 L64.0042 822.963 L16.4842 822.963 Z" fill="#000000" fill-rule="nonzero" fill-opacity="1" /><path clip-path="url(#clip710)" d="M14.5426 767.963 Q21.8632 772.228 29.0246 774.297 Q36.186 776.366 43.5384 776.366 Q50.8908 776.366 58.1159 774.297 Q65.3091 772.196 72.5979 767.963 L72.5979 773.055 Q65.1182 777.83 57.8931 780.217 Q50.668 782.572 43.5384 782.572 Q36.4406 782.572 29.2474 780.217 Q22.0542 777.862 14.5426 773.055 L14.5426 767.963 Z" fill="#000000" fill-rule="nonzero" fill-opacity="1" /><path clip-path="url(#clip710)" d="M16.4842 756.345 L16.4842 749.916 L60.694 749.916 Q69.2877 749.916 73.1708 753.194 Q77.0539 756.441 77.0539 763.666 L77.0539 766.117 L71.643 766.117 L71.643 764.112 Q71.643 759.847 69.2559 758.096 Q66.8687 756.345 60.694 756.345 L16.4842 756.345 Z" fill="#000000" fill-rule="nonzero" fill-opacity="1" /><path clip-path="url(#clip710)" d="M14.5426 738.299 L14.5426 733.206 Q22.0542 728.432 29.2474 726.077 Q36.4406 723.689 43.5384 723.689 Q50.668 723.689 57.8931 726.077 Q65.1182 728.432 72.5979 733.206 L72.5979 738.299 Q65.3091 734.065 58.1159 731.997 Q50.8908 729.896 43.5384 729.896 Q36.186 729.896 29.0246 731.997 Q21.8632 734.065 14.5426 738.299 Z" fill="#000000" fill-rule="nonzero" fill-opacity="1" /><path clip-path="url(#clip710)" d="M383.804 12.096 L422.045 12.096 L422.045 18.9825 L391.987 18.9825 L391.987 36.8875 L420.789 36.8875 L420.789 43.7741 L391.987 43.7741 L391.987 65.6895 L422.774 65.6895 L422.774 72.576 L383.804 72.576 L383.804 12.096 Z" fill="#000000" fill-rule="nonzero" fill-opacity="1" /><path clip-path="url(#clip710)" d="M473.613 45.1919 L473.613 72.576 L466.159 72.576 L466.159 45.4349 Q466.159 38.994 463.648 35.7938 Q461.136 32.5936 456.113 32.5936 Q450.077 32.5936 446.593 36.4419 Q443.11 40.2903 443.11 46.9338 L443.11 72.576 L435.615 72.576 L435.615 27.2059 L443.11 27.2059 L443.11 34.2544 Q445.783 30.163 449.388 28.1376 Q453.034 26.1121 457.774 26.1121 Q465.592 26.1121 469.602 30.9732 Q473.613 35.7938 473.613 45.1919 Z" fill="#000000" fill-rule="nonzero" fill-opacity="1" /><path clip-path="url(#clip710)" d="M527.287 48.0275 L527.287 51.6733 L493.017 51.6733 Q493.503 59.3701 497.635 63.421 Q501.807 67.4314 509.22 67.4314 Q513.514 67.4314 517.525 66.3781 Q521.576 65.3249 525.545 63.2184 L525.545 70.267 Q521.535 71.9684 517.322 72.8596 Q513.109 73.7508 508.775 73.7508 Q497.918 73.7508 491.558 67.4314 Q485.239 61.1119 485.239 50.3365 Q485.239 39.1965 491.234 32.6746 Q497.27 26.1121 507.478 26.1121 Q516.633 26.1121 521.94 32.0264 Q527.287 37.9003 527.287 48.0275 M519.834 45.84 Q519.753 39.7232 516.39 36.0774 Q513.069 32.4315 507.559 32.4315 Q501.321 32.4315 497.554 35.9558 Q493.827 39.4801 493.26 45.8805 L519.834 45.84 Z" fill="#000000" fill-rule="nonzero" fill-opacity="1" /><path clip-path="url(#clip710)" d="M565.811 34.1734 Q564.556 33.4443 563.057 33.1202 Q561.599 32.7556 559.816 32.7556 Q553.497 32.7556 550.094 36.8875 Q546.732 40.9789 546.732 48.6757 L546.732 72.576 L539.238 72.576 L539.238 27.2059 L546.732 27.2059 L546.732 34.2544 Q549.081 30.1225 552.849 28.1376 Q556.616 26.1121 562.004 26.1121 Q562.773 26.1121 563.705 26.2337 Q564.637 26.3147 565.771 26.5172 L565.811 34.1734 Z" fill="#000000" fill-rule="nonzero" fill-opacity="1" /><path clip-path="url(#clip710)" d="M602.027 49.3643 Q602.027 41.2625 598.664 36.8065 Q595.343 32.3505 589.307 32.3505 Q583.311 32.3505 579.949 36.8065 Q576.627 41.2625 576.627 49.3643 Q576.627 57.4256 579.949 61.8816 Q583.311 66.3376 589.307 66.3376 Q595.343 66.3376 598.664 61.8816 Q602.027 57.4256 602.027 49.3643 M609.48 66.9452 Q609.48 78.5308 604.336 84.1616 Q599.191 89.8329 588.578 89.8329 Q584.648 89.8329 581.164 89.2252 Q577.681 88.6581 574.399 87.4428 L574.399 80.1917 Q577.681 81.9741 580.881 82.8248 Q584.081 83.6755 587.403 83.6755 Q594.735 83.6755 598.381 79.8271 Q602.027 76.0193 602.027 68.282 L602.027 64.5957 Q599.718 68.6061 596.112 70.5911 Q592.507 72.576 587.484 72.576 Q579.139 72.576 574.035 66.2161 Q568.931 59.8562 568.931 49.3643 Q568.931 38.832 574.035 32.472 Q579.139 26.1121 587.484 26.1121 Q592.507 26.1121 596.112 28.0971 Q599.718 30.082 602.027 34.0924 L602.027 27.2059 L609.48 27.2059 L609.48 66.9452 Z" fill="#000000" fill-rule="nonzero" fill-opacity="1" /><path clip-path="url(#clip710)" d="M643.71 76.7889 Q640.551 84.8907 637.553 87.3618 Q634.555 89.8329 629.532 89.8329 L623.577 89.8329 L623.577 83.5945 L627.952 83.5945 Q631.031 83.5945 632.732 82.1361 Q634.434 80.6778 636.5 75.2496 L637.837 71.8468 L619.486 27.2059 L627.385 27.2059 L641.563 62.6918 L655.742 27.2059 L663.641 27.2059 L643.71 76.7889 Z" fill="#000000" fill-rule="nonzero" fill-opacity="1" /><path clip-path="url(#clip710)" d="M694.954 27.2059 L702.854 27.2059 L717.032 65.2844 L731.21 27.2059 L739.109 27.2059 L722.095 72.576 L711.968 72.576 L694.954 27.2059 Z" fill="#000000" fill-rule="nonzero" fill-opacity="1" /><path clip-path="url(#clip710)" d="M778.322 28.5427 L778.322 35.5912 Q775.162 33.9709 771.759 33.1607 Q768.357 32.3505 764.711 32.3505 Q759.161 32.3505 756.366 34.0519 Q753.611 35.7533 753.611 39.156 Q753.611 41.7486 755.596 43.2475 Q757.581 44.7058 763.577 46.0426 L766.129 46.6097 Q774.068 48.3111 777.39 51.4303 Q780.752 54.509 780.752 60.0587 Q780.752 66.3781 775.729 70.0644 Q770.747 73.7508 761.997 73.7508 Q758.351 73.7508 754.381 73.0216 Q750.452 72.3329 746.077 70.9151 L746.077 63.2184 Q750.209 65.3654 754.219 66.4591 Q758.229 67.5124 762.159 67.5124 Q767.425 67.5124 770.261 65.73 Q773.096 63.9071 773.096 60.6258 Q773.096 57.5877 771.03 55.9673 Q769.005 54.3469 762.078 52.8481 L759.485 52.2405 Q752.558 50.7821 749.479 47.7845 Q746.401 44.7463 746.401 39.4801 Q746.401 33.0797 750.938 29.5959 Q755.475 26.1121 763.82 26.1121 Q767.952 26.1121 771.597 26.7198 Q775.243 27.3274 778.322 28.5427 Z" fill="#000000" fill-rule="nonzero" fill-opacity="1" /><path clip-path="url(#clip710)" d="M810.932 12.096 L862.095 12.096 L862.095 18.9825 L840.625 18.9825 L840.625 72.576 L832.401 72.576 L832.401 18.9825 L810.932 18.9825 L810.932 12.096 Z" fill="#000000" fill-rule="nonzero" fill-opacity="1" /><path clip-path="url(#clip710)" d="M894.38 48.0275 L894.38 51.6733 L860.11 51.6733 Q860.596 59.3701 864.728 63.421 Q868.9 67.4314 876.313 67.4314 Q880.607 67.4314 884.618 66.3781 Q888.669 65.3249 892.638 63.2184 L892.638 70.267 Q888.628 71.9684 884.415 72.8596 Q880.202 73.7508 875.868 73.7508 Q865.011 73.7508 858.651 67.4314 Q852.332 61.1119 852.332 50.3365 Q852.332 39.1965 858.327 32.6746 Q864.363 26.1121 874.571 26.1121 Q883.726 26.1121 889.033 32.0264 Q894.38 37.9003 894.38 48.0275 M886.927 45.84 Q886.846 39.7232 883.483 36.0774 Q880.162 32.4315 874.652 32.4315 Q868.414 32.4315 864.647 35.9558 Q860.92 39.4801 860.353 45.8805 L886.927 45.84 Z" fill="#000000" fill-rule="nonzero" fill-opacity="1" /><path clip-path="url(#clip710)" d="M941.938 35.9153 Q944.733 30.8922 948.622 28.5022 Q952.511 26.1121 957.777 26.1121 Q964.866 26.1121 968.714 31.0947 Q972.563 36.0368 972.563 45.1919 L972.563 72.576 L965.069 72.576 L965.069 45.4349 Q965.069 38.913 962.76 35.7533 Q960.451 32.5936 955.711 32.5936 Q949.918 32.5936 946.556 36.4419 Q943.194 40.2903 943.194 46.9338 L943.194 72.576 L935.7 72.576 L935.7 45.4349 Q935.7 38.8725 933.391 35.7533 Q931.082 32.5936 926.261 32.5936 Q920.549 32.5936 917.187 36.4824 Q913.825 40.3308 913.825 46.9338 L913.825 72.576 L906.33 72.576 L906.33 27.2059 L913.825 27.2059 L913.825 34.2544 Q916.377 30.082 919.942 28.0971 Q923.506 26.1121 928.408 26.1121 Q933.35 26.1121 936.793 28.6237 Q940.277 31.1352 941.938 35.9153 Z" fill="#000000" fill-rule="nonzero" fill-opacity="1" /><path clip-path="url(#clip710)" d="M994.64 65.7705 L994.64 89.8329 L987.146 89.8329 L987.146 27.2059 L994.64 27.2059 L994.64 34.0924 Q996.99 30.0415 1000.55 28.0971 Q1004.16 26.1121 1009.14 26.1121 Q1017.41 26.1121 1022.55 32.6746 Q1027.74 39.2371 1027.74 49.9314 Q1027.74 60.6258 1022.55 67.1883 Q1017.41 73.7508 1009.14 73.7508 Q1004.16 73.7508 1000.55 71.8063 Q996.99 69.8214 994.64 65.7705 M1020 49.9314 Q1020 41.7081 1016.6 37.0496 Q1013.23 32.3505 1007.32 32.3505 Q1001.41 32.3505 998.002 37.0496 Q994.64 41.7081 994.64 49.9314 Q994.64 58.1548 998.002 62.8538 Q1001.41 67.5124 1007.32 67.5124 Q1013.23 67.5124 1016.6 62.8538 Q1020 58.1548 1020 49.9314 Z" fill="#000000" fill-rule="nonzero" fill-opacity="1" /><path clip-path="url(#clip710)" d="M1041.14 62.2867 L1049.69 62.2867 L1049.69 72.576 L1041.14 72.576 L1041.14 62.2867 Z" fill="#000000" fill-rule="nonzero" fill-opacity="1" /><path clip-path="url(#clip710)" d="M1113.45 49.7694 Q1104.42 49.7694 1100.94 51.8354 Q1097.45 53.9013 1097.45 58.8839 Q1097.45 62.8538 1100.04 65.2034 Q1102.68 67.5124 1107.17 67.5124 Q1113.37 67.5124 1117.1 63.1374 Q1120.87 58.7219 1120.87 51.4303 L1120.87 49.7694 L1113.45 49.7694 M1128.32 46.6907 L1128.32 72.576 L1120.87 72.576 L1120.87 65.6895 Q1118.31 69.8214 1114.51 71.8063 Q1110.7 73.7508 1105.19 73.7508 Q1098.22 73.7508 1094.09 69.8619 Q1090 65.9325 1090 59.3701 Q1090 51.7138 1095.1 47.825 Q1100.25 43.9361 1110.42 43.9361 L1120.87 43.9361 L1120.87 43.2069 Q1120.87 38.0623 1117.46 35.2672 Q1114.1 32.4315 1107.98 32.4315 Q1104.1 32.4315 1100.41 33.3632 Q1096.72 34.295 1093.32 36.1584 L1093.32 29.2718 Q1097.41 27.692 1101.26 26.9223 Q1105.11 26.1121 1108.75 26.1121 Q1118.6 26.1121 1123.46 31.2163 Q1128.32 36.3204 1128.32 46.6907 Z" fill="#000000" fill-rule="nonzero" fill-opacity="1" /><path clip-path="url(#clip710)" d="M1181.39 45.1919 L1181.39 72.576 L1173.93 72.576 L1173.93 45.4349 Q1173.93 38.994 1171.42 35.7938 Q1168.91 32.5936 1163.89 32.5936 Q1157.85 32.5936 1154.37 36.4419 Q1150.88 40.2903 1150.88 46.9338 L1150.88 72.576 L1143.39 72.576 L1143.39 27.2059 L1150.88 27.2059 L1150.88 34.2544 Q1153.56 30.163 1157.16 28.1376 Q1160.81 26.1121 1165.55 26.1121 Q1173.37 26.1121 1177.38 30.9732 Q1181.39 35.7938 1181.39 45.1919 Z" fill="#000000" fill-rule="nonzero" fill-opacity="1" /><path clip-path="url(#clip710)" d="M1226.11 34.0924 L1226.11 9.54393 L1233.56 9.54393 L1233.56 72.576 L1226.11 72.576 L1226.11 65.7705 Q1223.76 69.8214 1220.15 71.8063 Q1216.59 73.7508 1211.57 73.7508 Q1203.34 73.7508 1198.16 67.1883 Q1193.01 60.6258 1193.01 49.9314 Q1193.01 39.2371 1198.16 32.6746 Q1203.34 26.1121 1211.57 26.1121 Q1216.59 26.1121 1220.15 28.0971 Q1223.76 30.0415 1226.11 34.0924 M1200.71 49.9314 Q1200.71 58.1548 1204.07 62.8538 Q1207.47 67.5124 1213.39 67.5124 Q1219.3 67.5124 1222.71 62.8538 Q1226.11 58.1548 1226.11 49.9314 Q1226.11 41.7081 1222.71 37.0496 Q1219.3 32.3505 1213.39 32.3505 Q1207.47 32.3505 1204.07 37.0496 Q1200.71 41.7081 1200.71 49.9314 Z" fill="#000000" fill-rule="nonzero" fill-opacity="1" /><path clip-path="url(#clip710)" d="M1283.79 18.8205 L1283.79 65.8515 L1293.68 65.8515 Q1306.2 65.8515 1311.99 60.1802 Q1317.82 54.509 1317.82 42.2752 Q1317.82 30.1225 1311.99 24.4918 Q1306.2 18.8205 1293.68 18.8205 L1283.79 18.8205 M1275.61 12.096 L1292.42 12.096 Q1310 12.096 1318.23 19.4281 Q1326.45 26.7198 1326.45 42.2752 Q1326.45 57.9117 1318.19 65.2439 Q1309.92 72.576 1292.42 72.576 L1275.61 72.576 L1275.61 12.096 Z" fill="#000000" fill-rule="nonzero" fill-opacity="1" /><path clip-path="url(#clip710)" d="M1339.17 27.2059 L1346.62 27.2059 L1346.62 72.576 L1339.17 72.576 L1339.17 27.2059 M1339.17 9.54393 L1346.62 9.54393 L1346.62 18.9825 L1339.17 18.9825 L1339.17 9.54393 Z" fill="#000000" fill-rule="nonzero" fill-opacity="1" /><path clip-path="url(#clip710)" d="M1397.54 35.9153 Q1400.34 30.8922 1404.23 28.5022 Q1408.12 26.1121 1413.38 26.1121 Q1420.47 26.1121 1424.32 31.0947 Q1428.17 36.0368 1428.17 45.1919 L1428.17 72.576 L1420.67 72.576 L1420.67 45.4349 Q1420.67 38.913 1418.36 35.7533 Q1416.06 32.5936 1411.32 32.5936 Q1405.52 32.5936 1402.16 36.4419 Q1398.8 40.2903 1398.8 46.9338 L1398.8 72.576 L1391.3 72.576 L1391.3 45.4349 Q1391.3 38.8725 1389 35.7533 Q1386.69 32.5936 1381.87 32.5936 Q1376.15 32.5936 1372.79 36.4824 Q1369.43 40.3308 1369.43 46.9338 L1369.43 72.576 L1361.94 72.576 L1361.94 27.2059 L1369.43 27.2059 L1369.43 34.2544 Q1371.98 30.082 1375.55 28.0971 Q1379.11 26.1121 1384.01 26.1121 Q1388.96 26.1121 1392.4 28.6237 Q1395.88 31.1352 1397.54 35.9153 Z" fill="#000000" fill-rule="nonzero" fill-opacity="1" /><path clip-path="url(#clip710)" d="M1444.09 62.2867 L1452.64 62.2867 L1452.64 72.576 L1444.09 72.576 L1444.09 62.2867 Z" fill="#000000" fill-rule="nonzero" fill-opacity="1" /><path clip-path="url(#clip710)" d="M1513.36 32.4315 Q1507.36 32.4315 1503.88 37.1306 Q1500.4 41.7891 1500.4 49.9314 Q1500.4 58.0738 1503.84 62.7728 Q1507.32 67.4314 1513.36 67.4314 Q1519.31 67.4314 1522.8 62.7323 Q1526.28 58.0333 1526.28 49.9314 Q1526.28 41.8701 1522.8 37.1711 Q1519.31 32.4315 1513.36 32.4315 M1513.36 26.1121 Q1523.08 26.1121 1528.63 32.4315 Q1534.18 38.7509 1534.18 49.9314 Q1534.18 61.0714 1528.63 67.4314 Q1523.08 73.7508 1513.36 73.7508 Q1503.6 73.7508 1498.05 67.4314 Q1492.54 61.0714 1492.54 49.9314 Q1492.54 38.7509 1498.05 32.4315 Q1503.6 26.1121 1513.36 26.1121 Z" fill="#000000" fill-rule="nonzero" fill-opacity="1" /><path clip-path="url(#clip710)" d="M1569.5 9.54393 L1569.5 15.7418 L1562.37 15.7418 Q1558.36 15.7418 1556.78 17.3622 Q1555.24 18.9825 1555.24 23.1955 L1555.24 27.2059 L1567.52 27.2059 L1567.52 32.9987 L1555.24 32.9987 L1555.24 72.576 L1547.75 72.576 L1547.75 32.9987 L1540.62 32.9987 L1540.62 27.2059 L1547.75 27.2059 L1547.75 24.0462 Q1547.75 16.471 1551.27 13.0277 Q1554.8 9.54393 1562.46 9.54393 L1569.5 9.54393 Z" fill="#000000" fill-rule="nonzero" fill-opacity="1" /><path clip-path="url(#clip710)" d="M1638.69 14.0809 L1638.69 22.0612 Q1634.03 19.8332 1629.9 18.7395 Q1625.77 17.6457 1621.92 17.6457 Q1615.24 17.6457 1611.59 20.2383 Q1607.99 22.8309 1607.99 27.611 Q1607.99 31.6214 1610.38 33.6873 Q1612.81 35.7128 1619.53 36.9686 L1624.47 37.9813 Q1633.63 39.7232 1637.96 44.1387 Q1642.34 48.5136 1642.34 55.8863 Q1642.34 64.6767 1636.42 69.2137 Q1630.55 73.7508 1619.17 73.7508 Q1614.87 73.7508 1610.01 72.7785 Q1605.19 71.8063 1600.01 69.9024 L1600.01 61.4765 Q1604.99 64.2716 1609.77 65.6895 Q1614.55 67.1073 1619.17 67.1073 Q1626.18 67.1073 1629.98 64.3527 Q1633.79 61.598 1633.79 56.4939 Q1633.79 52.0379 1631.04 49.5264 Q1628.32 47.0148 1622.08 45.759 L1617.1 44.7868 Q1607.95 42.9639 1603.86 39.075 Q1599.76 35.1862 1599.76 28.2591 Q1599.76 20.2383 1605.4 15.6203 Q1611.07 11.0023 1620.99 11.0023 Q1625.24 11.0023 1629.66 11.7719 Q1634.08 12.5416 1638.69 14.0809 Z" fill="#000000" fill-rule="nonzero" fill-opacity="1" /><path clip-path="url(#clip710)" d="M1661.99 65.7705 L1661.99 89.8329 L1654.49 89.8329 L1654.49 27.2059 L1661.99 27.2059 L1661.99 34.0924 Q1664.34 30.0415 1667.9 28.0971 Q1671.51 26.1121 1676.49 26.1121 Q1684.75 26.1121 1689.9 32.6746 Q1695.08 39.2371 1695.08 49.9314 Q1695.08 60.6258 1689.9 67.1883 Q1684.75 73.7508 1676.49 73.7508 Q1671.51 73.7508 1667.9 71.8063 Q1664.34 69.8214 1661.99 65.7705 M1687.34 49.9314 Q1687.34 41.7081 1683.94 37.0496 Q1680.58 32.3505 1674.67 32.3505 Q1668.75 32.3505 1665.35 37.0496 Q1661.99 41.7081 1661.99 49.9314 Q1661.99 58.1548 1665.35 62.8538 Q1668.75 67.5124 1674.67 67.5124 Q1680.58 67.5124 1683.94 62.8538 Q1687.34 58.1548 1687.34 49.9314 Z" fill="#000000" fill-rule="nonzero" fill-opacity="1" /><path clip-path="url(#clip710)" d="M1707.44 27.2059 L1714.89 27.2059 L1714.89 72.576 L1707.44 72.576 L1707.44 27.2059 M1707.44 9.54393 L1714.89 9.54393 L1714.89 18.9825 L1707.44 18.9825 L1707.44 9.54393 Z" fill="#000000" fill-rule="nonzero" fill-opacity="1" /><path clip-path="url(#clip710)" d="M1768.2 45.1919 L1768.2 72.576 L1760.75 72.576 L1760.75 45.4349 Q1760.75 38.994 1758.24 35.7938 Q1755.72 32.5936 1750.7 32.5936 Q1744.67 32.5936 1741.18 36.4419 Q1737.7 40.2903 1737.7 46.9338 L1737.7 72.576 L1730.2 72.576 L1730.2 27.2059 L1737.7 27.2059 L1737.7 34.2544 Q1740.37 30.163 1743.98 28.1376 Q1747.62 26.1121 1752.36 26.1121 Q1760.18 26.1121 1764.19 30.9732 Q1768.2 35.7938 1768.2 45.1919 Z" fill="#000000" fill-rule="nonzero" fill-opacity="1" /><path clip-path="url(#clip710)" d="M1811.99 28.5427 L1811.99 35.5912 Q1808.83 33.9709 1805.43 33.1607 Q1802.03 32.3505 1798.38 32.3505 Q1792.83 32.3505 1790.04 34.0519 Q1787.28 35.7533 1787.28 39.156 Q1787.28 41.7486 1789.27 43.2475 Q1791.25 44.7058 1797.25 46.0426 L1799.8 46.6097 Q1807.74 48.3111 1811.06 51.4303 Q1814.42 54.509 1814.42 60.0587 Q1814.42 66.3781 1809.4 70.0644 Q1804.42 73.7508 1795.67 73.7508 Q1792.02 73.7508 1788.05 73.0216 Q1784.12 72.3329 1779.75 70.9151 L1779.75 63.2184 Q1783.88 65.3654 1787.89 66.4591 Q1791.9 67.5124 1795.83 67.5124 Q1801.09 67.5124 1803.93 65.73 Q1806.77 63.9071 1806.77 60.6258 Q1806.77 57.5877 1804.7 55.9673 Q1802.67 54.3469 1795.75 52.8481 L1793.15 52.2405 Q1786.23 50.7821 1783.15 47.7845 Q1780.07 44.7463 1780.07 39.4801 Q1780.07 33.0797 1784.61 29.5959 Q1789.14 26.1121 1797.49 26.1121 Q1801.62 26.1121 1805.27 26.7198 Q1808.91 27.3274 1811.99 28.5427 Z" fill="#000000" fill-rule="nonzero" fill-opacity="1" /><path clip-path="url(#clip710)" d="M1870.57 9.62495 Q1865.14 18.942 1862.51 28.0566 Q1859.87 37.1711 1859.87 46.5287 Q1859.87 55.8863 1862.51 65.0818 Q1865.18 74.2369 1870.57 83.5134 L1864.09 83.5134 Q1858.01 73.9938 1854.97 64.7983 Q1851.97 55.6027 1851.97 46.5287 Q1851.97 37.4952 1854.97 28.3401 Q1857.97 19.1851 1864.09 9.62495 L1870.57 9.62495 Z" fill="#000000" fill-rule="nonzero" fill-opacity="1" /><path clip-path="url(#clip710)" d="M1893.13 65.6895 L1921.69 65.6895 L1921.69 72.576 L1883.29 72.576 L1883.29 65.6895 Q1887.95 60.8689 1895.97 52.7671 Q1904.03 44.6248 1906.09 42.2752 Q1910.02 37.8598 1911.56 34.8216 Q1913.14 31.7429 1913.14 28.7857 Q1913.14 23.9651 1909.74 20.927 Q1906.38 17.8888 1900.95 17.8888 Q1897.1 17.8888 1892.81 19.2256 Q1888.55 20.5624 1883.69 23.2765 L1883.69 15.0127 Q1888.63 13.0277 1892.93 12.015 Q1897.22 11.0023 1900.79 11.0023 Q1910.19 11.0023 1915.78 15.7013 Q1921.37 20.4004 1921.37 28.2591 Q1921.37 31.9859 1919.95 35.3482 Q1918.57 38.6699 1914.88 43.2069 Q1913.87 44.3817 1908.44 50.0125 Q1903.01 55.6027 1893.13 65.6895 Z" fill="#000000" fill-rule="nonzero" fill-opacity="1" /><path clip-path="url(#clip710)" d="M1976.62 48.0275 L1976.62 51.6733 L1942.35 51.6733 Q1942.84 59.3701 1946.97 63.421 Q1951.14 67.4314 1958.55 67.4314 Q1962.85 67.4314 1966.86 66.3781 Q1970.91 65.3249 1974.88 63.2184 L1974.88 70.267 Q1970.87 71.9684 1966.65 72.8596 Q1962.44 73.7508 1958.11 73.7508 Q1947.25 73.7508 1940.89 67.4314 Q1934.57 61.1119 1934.57 50.3365 Q1934.57 39.1965 1940.57 32.6746 Q1946.6 26.1121 1956.81 26.1121 Q1965.97 26.1121 1971.27 32.0264 Q1976.62 37.9003 1976.62 48.0275 M1969.17 45.84 Q1969.09 39.7232 1965.72 36.0774 Q1962.4 32.4315 1956.89 32.4315 Q1950.65 32.4315 1946.89 35.9558 Q1943.16 39.4801 1942.59 45.8805 L1969.17 45.84 Z" fill="#000000" fill-rule="nonzero" fill-opacity="1" /><path clip-path="url(#clip710)" d="M1987.84 12.096 L2026.73 12.096 L2026.73 15.5798 L2004.77 72.576 L1996.23 72.576 L2016.89 18.9825 L1987.84 18.9825 L1987.84 12.096 Z" fill="#000000" fill-rule="nonzero" fill-opacity="1" /><path clip-path="url(#clip710)" d="M2068.01 27.2059 L2075.46 27.2059 L2075.46 72.576 L2068.01 72.576 L2068.01 27.2059 M2068.01 9.54393 L2075.46 9.54393 L2075.46 18.9825 L2068.01 18.9825 L2068.01 9.54393 Z" fill="#000000" fill-rule="nonzero" fill-opacity="1" /><path clip-path="url(#clip710)" d="M2098.43 14.324 L2098.43 27.2059 L2113.78 27.2059 L2113.78 32.9987 L2098.43 32.9987 L2098.43 57.6282 Q2098.43 63.1779 2099.93 64.7578 Q2101.47 66.3376 2106.13 66.3376 L2113.78 66.3376 L2113.78 72.576 L2106.13 72.576 Q2097.5 72.576 2094.22 69.3758 Q2090.94 66.1351 2090.94 57.6282 L2090.94 32.9987 L2085.47 32.9987 L2085.47 27.2059 L2090.94 27.2059 L2090.94 14.324 L2098.43 14.324 Z" fill="#000000" fill-rule="nonzero" fill-opacity="1" /><path clip-path="url(#clip710)" d="M2162.39 48.0275 L2162.39 51.6733 L2128.12 51.6733 Q2128.61 59.3701 2132.74 63.421 Q2136.91 67.4314 2144.33 67.4314 Q2148.62 67.4314 2152.63 66.3781 Q2156.68 65.3249 2160.65 63.2184 L2160.65 70.267 Q2156.64 71.9684 2152.43 72.8596 Q2148.22 73.7508 2143.88 73.7508 Q2133.03 73.7508 2126.67 67.4314 Q2120.35 61.1119 2120.35 50.3365 Q2120.35 39.1965 2126.34 32.6746 Q2132.38 26.1121 2142.59 26.1121 Q2151.74 26.1121 2157.05 32.0264 Q2162.39 37.9003 2162.39 48.0275 M2154.94 45.84 Q2154.86 39.7232 2151.5 36.0774 Q2148.18 32.4315 2142.67 32.4315 Q2136.43 32.4315 2132.66 35.9558 Q2128.93 39.4801 2128.37 45.8805 L2154.94 45.84 Z" fill="#000000" fill-rule="nonzero" fill-opacity="1" /><path clip-path="url(#clip710)" d="M2200.92 34.1734 Q2199.66 33.4443 2198.16 33.1202 Q2196.71 32.7556 2194.92 32.7556 Q2188.6 32.7556 2185.2 36.8875 Q2181.84 40.9789 2181.84 48.6757 L2181.84 72.576 L2174.34 72.576 L2174.34 27.2059 L2181.84 27.2059 L2181.84 34.2544 Q2184.19 30.1225 2187.96 28.1376 Q2191.72 26.1121 2197.11 26.1121 Q2197.88 26.1121 2198.81 26.2337 Q2199.74 26.3147 2200.88 26.5172 L2200.92 34.1734 Z" fill="#000000" fill-rule="nonzero" fill-opacity="1" /><path clip-path="url(#clip710)" d="M2207.56 9.62495 L2214.04 9.62495 Q2220.12 19.1851 2223.12 28.3401 Q2226.16 37.4952 2226.16 46.5287 Q2226.16 55.6027 2223.12 64.7983 Q2220.12 73.9938 2214.04 83.5134 L2207.56 83.5134 Q2212.95 74.2369 2215.58 65.0818 Q2218.26 55.8863 2218.26 46.5287 Q2218.26 37.1711 2215.58 28.0566 Q2212.95 18.942 2207.56 9.62495 Z" fill="#000000" fill-rule="nonzero" fill-opacity="1" /><circle clip-path="url(#clip712)" cx="316.512" cy="1386.4" r="14.4" fill="#009af9" fill-rule="evenodd" fill-opacity="1" stroke="#000000" stroke-opacity="1" stroke-width="3.2"/>
<circle clip-path="url(#clip712)" cx="356.858" cy="1386.4" r="14.4" fill="#009af9" fill-rule="evenodd" fill-opacity="1" stroke="#000000" stroke-opacity="1" stroke-width="3.2"/>
<circle clip-path="url(#clip712)" cx="397.203" cy="1386.4" r="14.4" fill="#009af9" fill-rule="evenodd" fill-opacity="1" stroke="#000000" stroke-opacity="1" stroke-width="3.2"/>
<circle clip-path="url(#clip712)" cx="437.549" cy="1386.4" r="14.4" fill="#009af9" fill-rule="evenodd" fill-opacity="1" stroke="#000000" stroke-opacity="1" stroke-width="3.2"/>
<circle clip-path="url(#clip712)" cx="477.895" cy="1386.4" r="14.4" fill="#009af9" fill-rule="evenodd" fill-opacity="1" stroke="#000000" stroke-opacity="1" stroke-width="3.2"/>
<circle clip-path="url(#clip712)" cx="518.24" cy="1386.4" r="14.4" fill="#009af9" fill-rule="evenodd" fill-opacity="1" stroke="#000000" stroke-opacity="1" stroke-width="3.2"/>
<circle clip-path="url(#clip712)" cx="558.586" cy="1386.4" r="14.4" fill="#009af9" fill-rule="evenodd" fill-opacity="1" stroke="#000000" stroke-opacity="1" stroke-width="3.2"/>
<circle clip-path="url(#clip712)" cx="598.931" cy="1386.4" r="14.4" fill="#009af9" fill-rule="evenodd" fill-opacity="1" stroke="#000000" stroke-opacity="1" stroke-width="3.2"/>
<circle clip-path="url(#clip712)" cx="639.277" cy="1386.4" r="14.4" fill="#009af9" fill-rule="evenodd" fill-opacity="1" stroke="#000000" stroke-opacity="1" stroke-width="3.2"/>
<circle clip-path="url(#clip712)" cx="679.623" cy="1386.4" r="14.4" fill="#009af9" fill-rule="evenodd" fill-opacity="1" stroke="#000000" stroke-opacity="1" stroke-width="3.2"/>
<circle clip-path="url(#clip712)" cx="719.968" cy="1386.4" r="14.4" fill="#009af9" fill-rule="evenodd" fill-opacity="1" stroke="#000000" stroke-opacity="1" stroke-width="3.2"/>
<circle clip-path="url(#clip712)" cx="760.314" cy="1386.4" r="14.4" fill="#009af9" fill-rule="evenodd" fill-opacity="1" stroke="#000000" stroke-opacity="1" stroke-width="3.2"/>
<circle clip-path="url(#clip712)" cx="800.66" cy="1385.88" r="14.4" fill="#009af9" fill-rule="evenodd" fill-opacity="1" stroke="#000000" stroke-opacity="1" stroke-width="3.2"/>
<circle clip-path="url(#clip712)" cx="841.005" cy="1385.88" r="14.4" fill="#009af9" fill-rule="evenodd" fill-opacity="1" stroke="#000000" stroke-opacity="1" stroke-width="3.2"/>
<circle clip-path="url(#clip712)" cx="881.351" cy="1384.32" r="14.4" fill="#009af9" fill-rule="evenodd" fill-opacity="1" stroke="#000000" stroke-opacity="1" stroke-width="3.2"/>
<circle clip-path="url(#clip712)" cx="921.697" cy="1384.84" r="14.4" fill="#009af9" fill-rule="evenodd" fill-opacity="1" stroke="#000000" stroke-opacity="1" stroke-width="3.2"/>
<circle clip-path="url(#clip712)" cx="962.042" cy="1383.28" r="14.4" fill="#009af9" fill-rule="evenodd" fill-opacity="1" stroke="#000000" stroke-opacity="1" stroke-width="3.2"/>
<circle clip-path="url(#clip712)" cx="1002.39" cy="1380.68" r="14.4" fill="#009af9" fill-rule="evenodd" fill-opacity="1" stroke="#000000" stroke-opacity="1" stroke-width="3.2"/>
<circle clip-path="url(#clip712)" cx="1042.73" cy="1381.72" r="14.4" fill="#009af9" fill-rule="evenodd" fill-opacity="1" stroke="#000000" stroke-opacity="1" stroke-width="3.2"/>
<circle clip-path="url(#clip712)" cx="1083.08" cy="1377.56" r="14.4" fill="#009af9" fill-rule="evenodd" fill-opacity="1" stroke="#000000" stroke-opacity="1" stroke-width="3.2"/>
<circle clip-path="url(#clip712)" cx="1123.42" cy="1376.69" r="14.4" fill="#009af9" fill-rule="evenodd" fill-opacity="1" stroke="#000000" stroke-opacity="1" stroke-width="3.2"/>
<circle clip-path="url(#clip712)" cx="1163.77" cy="1366.29" r="14.4" fill="#009af9" fill-rule="evenodd" fill-opacity="1" stroke="#000000" stroke-opacity="1" stroke-width="3.2"/>
<circle clip-path="url(#clip712)" cx="1204.12" cy="1362.91" r="14.4" fill="#009af9" fill-rule="evenodd" fill-opacity="1" stroke="#000000" stroke-opacity="1" stroke-width="3.2"/>
<circle clip-path="url(#clip712)" cx="1244.46" cy="1352.34" r="14.4" fill="#009af9" fill-rule="evenodd" fill-opacity="1" stroke="#000000" stroke-opacity="1" stroke-width="3.2"/>
<circle clip-path="url(#clip712)" cx="1284.81" cy="1345.32" r="14.4" fill="#009af9" fill-rule="evenodd" fill-opacity="1" stroke="#000000" stroke-opacity="1" stroke-width="3.2"/>
<circle clip-path="url(#clip712)" cx="1325.15" cy="1343.07" r="14.4" fill="#009af9" fill-rule="evenodd" fill-opacity="1" stroke="#000000" stroke-opacity="1" stroke-width="3.2"/>
<circle clip-path="url(#clip712)" cx="1365.5" cy="1324.87" r="14.4" fill="#009af9" fill-rule="evenodd" fill-opacity="1" stroke="#000000" stroke-opacity="1" stroke-width="3.2"/>
<circle clip-path="url(#clip712)" cx="1405.84" cy="1300.61" r="14.4" fill="#009af9" fill-rule="evenodd" fill-opacity="1" stroke="#000000" stroke-opacity="1" stroke-width="3.2"/>
<circle clip-path="url(#clip712)" cx="1446.19" cy="1283.45" r="14.4" fill="#009af9" fill-rule="evenodd" fill-opacity="1" stroke="#000000" stroke-opacity="1" stroke-width="3.2"/>
<circle clip-path="url(#clip712)" cx="1486.54" cy="1257.97" r="14.4" fill="#009af9" fill-rule="evenodd" fill-opacity="1" stroke="#000000" stroke-opacity="1" stroke-width="3.2"/>
<circle clip-path="url(#clip712)" cx="1526.88" cy="1257.1" r="14.4" fill="#009af9" fill-rule="evenodd" fill-opacity="1" stroke="#000000" stroke-opacity="1" stroke-width="3.2"/>
<circle clip-path="url(#clip712)" cx="1567.23" cy="1200.78" r="14.4" fill="#009af9" fill-rule="evenodd" fill-opacity="1" stroke="#000000" stroke-opacity="1" stroke-width="3.2"/>
<circle clip-path="url(#clip712)" cx="1607.57" cy="1198.44" r="14.4" fill="#009af9" fill-rule="evenodd" fill-opacity="1" stroke="#000000" stroke-opacity="1" stroke-width="3.2"/>
<circle clip-path="url(#clip712)" cx="1647.92" cy="1162.13" r="14.4" fill="#009af9" fill-rule="evenodd" fill-opacity="1" stroke="#000000" stroke-opacity="1" stroke-width="3.2"/>
<circle clip-path="url(#clip712)" cx="1688.26" cy="1077.38" r="14.4" fill="#009af9" fill-rule="evenodd" fill-opacity="1" stroke="#000000" stroke-opacity="1" stroke-width="3.2"/>
<circle clip-path="url(#clip712)" cx="1728.61" cy="1055.97" r="14.4" fill="#009af9" fill-rule="evenodd" fill-opacity="1" stroke="#000000" stroke-opacity="1" stroke-width="3.2"/>
<circle clip-path="url(#clip712)" cx="1768.95" cy="960.826" r="14.4" fill="#009af9" fill-rule="evenodd" fill-opacity="1" stroke="#000000" stroke-opacity="1" stroke-width="3.2"/>
<circle clip-path="url(#clip712)" cx="1809.3" cy="922.524" r="14.4" fill="#009af9" fill-rule="evenodd" fill-opacity="1" stroke="#000000" stroke-opacity="1" stroke-width="3.2"/>
<circle clip-path="url(#clip712)" cx="1849.65" cy="788.12" r="14.4" fill="#009af9" fill-rule="evenodd" fill-opacity="1" stroke="#000000" stroke-opacity="1" stroke-width="3.2"/>
<circle clip-path="url(#clip712)" cx="1889.99" cy="699.384" r="14.4" fill="#009af9" fill-rule="evenodd" fill-opacity="1" stroke="#000000" stroke-opacity="1" stroke-width="3.2"/>
<circle clip-path="url(#clip712)" cx="1930.34" cy="599.209" r="14.4" fill="#009af9" fill-rule="evenodd" fill-opacity="1" stroke="#000000" stroke-opacity="1" stroke-width="3.2"/>
<circle clip-path="url(#clip712)" cx="1970.68" cy="542.796" r="14.4" fill="#009af9" fill-rule="evenodd" fill-opacity="1" stroke="#000000" stroke-opacity="1" stroke-width="3.2"/>
<circle clip-path="url(#clip712)" cx="2011.03" cy="441.581" r="14.4" fill="#009af9" fill-rule="evenodd" fill-opacity="1" stroke="#000000" stroke-opacity="1" stroke-width="3.2"/>
<circle clip-path="url(#clip712)" cx="2051.37" cy="541.756" r="14.4" fill="#009af9" fill-rule="evenodd" fill-opacity="1" stroke="#000000" stroke-opacity="1" stroke-width="3.2"/>
<circle clip-path="url(#clip712)" cx="2091.72" cy="549.815" r="14.4" fill="#009af9" fill-rule="evenodd" fill-opacity="1" stroke="#000000" stroke-opacity="1" stroke-width="3.2"/>
<circle clip-path="url(#clip712)" cx="2132.07" cy="451.893" r="14.4" fill="#009af9" fill-rule="evenodd" fill-opacity="1" stroke="#000000" stroke-opacity="1" stroke-width="3.2"/>
<circle clip-path="url(#clip712)" cx="2172.41" cy="511.686" r="14.4" fill="#009af9" fill-rule="evenodd" fill-opacity="1" stroke="#000000" stroke-opacity="1" stroke-width="3.2"/>
<circle clip-path="url(#clip712)" cx="2212.76" cy="463.505" r="14.4" fill="#009af9" fill-rule="evenodd" fill-opacity="1" stroke="#000000" stroke-opacity="1" stroke-width="3.2"/>
<circle clip-path="url(#clip712)" cx="2253.1" cy="475.984" r="14.4" fill="#009af9" fill-rule="evenodd" fill-opacity="1" stroke="#000000" stroke-opacity="1" stroke-width="3.2"/>
<circle clip-path="url(#clip712)" cx="2293.45" cy="383.348" r="14.4" fill="#009af9" fill-rule="evenodd" fill-opacity="1" stroke="#000000" stroke-opacity="1" stroke-width="3.2"/>
<circle clip-path="url(#clip712)" cx="316.512" cy="1386.15" r="14.4" fill="#e26f46" fill-rule="evenodd" fill-opacity="1" stroke="#000000" stroke-opacity="1" stroke-width="3.2"/>
<circle clip-path="url(#clip712)" cx="356.858" cy="1365.68" r="14.4" fill="#e26f46" fill-rule="evenodd" fill-opacity="1" stroke="#000000" stroke-opacity="1" stroke-width="3.2"/>
<circle clip-path="url(#clip712)" cx="397.203" cy="1349.32" r="14.4" fill="#e26f46" fill-rule="evenodd" fill-opacity="1" stroke="#000000" stroke-opacity="1" stroke-width="3.2"/>
<circle clip-path="url(#clip712)" cx="437.549" cy="1328.57" r="14.4" fill="#e26f46" fill-rule="evenodd" fill-opacity="1" stroke="#000000" stroke-opacity="1" stroke-width="3.2"/>
<circle clip-path="url(#clip712)" cx="477.895" cy="1306.31" r="14.4" fill="#e26f46" fill-rule="evenodd" fill-opacity="1" stroke="#000000" stroke-opacity="1" stroke-width="3.2"/>
<circle clip-path="url(#clip712)" cx="518.24" cy="1291.92" r="14.4" fill="#e26f46" fill-rule="evenodd" fill-opacity="1" stroke="#000000" stroke-opacity="1" stroke-width="3.2"/>
<circle clip-path="url(#clip712)" cx="558.586" cy="1272.83" r="14.4" fill="#e26f46" fill-rule="evenodd" fill-opacity="1" stroke="#000000" stroke-opacity="1" stroke-width="3.2"/>
<circle clip-path="url(#clip712)" cx="598.931" cy="1250.5" r="14.4" fill="#e26f46" fill-rule="evenodd" fill-opacity="1" stroke="#000000" stroke-opacity="1" stroke-width="3.2"/>
<circle clip-path="url(#clip712)" cx="639.277" cy="1228.31" r="14.4" fill="#e26f46" fill-rule="evenodd" fill-opacity="1" stroke="#000000" stroke-opacity="1" stroke-width="3.2"/>
<circle clip-path="url(#clip712)" cx="679.623" cy="1200.13" r="14.4" fill="#e26f46" fill-rule="evenodd" fill-opacity="1" stroke="#000000" stroke-opacity="1" stroke-width="3.2"/>
<circle clip-path="url(#clip712)" cx="719.968" cy="1170.63" r="14.4" fill="#e26f46" fill-rule="evenodd" fill-opacity="1" stroke="#000000" stroke-opacity="1" stroke-width="3.2"/>
<circle clip-path="url(#clip712)" cx="760.314" cy="1127.95" r="14.4" fill="#e26f46" fill-rule="evenodd" fill-opacity="1" stroke="#000000" stroke-opacity="1" stroke-width="3.2"/>
<circle clip-path="url(#clip712)" cx="800.66" cy="1110.03" r="14.4" fill="#e26f46" fill-rule="evenodd" fill-opacity="1" stroke="#000000" stroke-opacity="1" stroke-width="3.2"/>
<circle clip-path="url(#clip712)" cx="841.005" cy="1045.15" r="14.4" fill="#e26f46" fill-rule="evenodd" fill-opacity="1" stroke="#000000" stroke-opacity="1" stroke-width="3.2"/>
<circle clip-path="url(#clip712)" cx="881.351" cy="1005.66" r="14.4" fill="#e26f46" fill-rule="evenodd" fill-opacity="1" stroke="#000000" stroke-opacity="1" stroke-width="3.2"/>
<circle clip-path="url(#clip712)" cx="921.697" cy="943.307" r="14.4" fill="#e26f46" fill-rule="evenodd" fill-opacity="1" stroke="#000000" stroke-opacity="1" stroke-width="3.2"/>
<circle clip-path="url(#clip712)" cx="962.042" cy="905.73" r="14.4" fill="#e26f46" fill-rule="evenodd" fill-opacity="1" stroke="#000000" stroke-opacity="1" stroke-width="3.2"/>
<circle clip-path="url(#clip712)" cx="1002.39" cy="673.548" r="14.4" fill="#e26f46" fill-rule="evenodd" fill-opacity="1" stroke="#000000" stroke-opacity="1" stroke-width="3.2"/>
<circle clip-path="url(#clip712)" cx="1042.73" cy="637.633" r="14.4" fill="#e26f46" fill-rule="evenodd" fill-opacity="1" stroke="#000000" stroke-opacity="1" stroke-width="3.2"/>
<circle clip-path="url(#clip712)" cx="1083.08" cy="656.778" r="14.4" fill="#e26f46" fill-rule="evenodd" fill-opacity="1" stroke="#000000" stroke-opacity="1" stroke-width="3.2"/>
<circle clip-path="url(#clip712)" cx="1123.42" cy="610.184" r="14.4" fill="#e26f46" fill-rule="evenodd" fill-opacity="1" stroke="#000000" stroke-opacity="1" stroke-width="3.2"/>
<circle clip-path="url(#clip712)" cx="1163.77" cy="533.619" r="14.4" fill="#e26f46" fill-rule="evenodd" fill-opacity="1" stroke="#000000" stroke-opacity="1" stroke-width="3.2"/>
<circle clip-path="url(#clip712)" cx="1204.12" cy="498.844" r="14.4" fill="#e26f46" fill-rule="evenodd" fill-opacity="1" stroke="#000000" stroke-opacity="1" stroke-width="3.2"/>
<circle clip-path="url(#clip712)" cx="1244.46" cy="438.029" r="14.4" fill="#e26f46" fill-rule="evenodd" fill-opacity="1" stroke="#000000" stroke-opacity="1" stroke-width="3.2"/>
<circle clip-path="url(#clip712)" cx="1284.81" cy="456.179" r="14.4" fill="#e26f46" fill-rule="evenodd" fill-opacity="1" stroke="#000000" stroke-opacity="1" stroke-width="3.2"/>
<circle clip-path="url(#clip712)" cx="1325.15" cy="442.471" r="14.4" fill="#e26f46" fill-rule="evenodd" fill-opacity="1" stroke="#000000" stroke-opacity="1" stroke-width="3.2"/>
<circle clip-path="url(#clip712)" cx="1365.5" cy="404.724" r="14.4" fill="#e26f46" fill-rule="evenodd" fill-opacity="1" stroke="#000000" stroke-opacity="1" stroke-width="3.2"/>
<circle clip-path="url(#clip712)" cx="1405.84" cy="412.043" r="14.4" fill="#e26f46" fill-rule="evenodd" fill-opacity="1" stroke="#000000" stroke-opacity="1" stroke-width="3.2"/>
<circle clip-path="url(#clip712)" cx="1446.19" cy="386.852" r="14.4" fill="#e26f46" fill-rule="evenodd" fill-opacity="1" stroke="#000000" stroke-opacity="1" stroke-width="3.2"/>
<circle clip-path="url(#clip712)" cx="1486.54" cy="366.648" r="14.4" fill="#e26f46" fill-rule="evenodd" fill-opacity="1" stroke="#000000" stroke-opacity="1" stroke-width="3.2"/>
<circle clip-path="url(#clip712)" cx="1526.88" cy="352.863" r="14.4" fill="#e26f46" fill-rule="evenodd" fill-opacity="1" stroke="#000000" stroke-opacity="1" stroke-width="3.2"/>
<circle clip-path="url(#clip712)" cx="1567.23" cy="328.771" r="14.4" fill="#e26f46" fill-rule="evenodd" fill-opacity="1" stroke="#000000" stroke-opacity="1" stroke-width="3.2"/>
<circle clip-path="url(#clip712)" cx="1607.57" cy="329.266" r="14.4" fill="#e26f46" fill-rule="evenodd" fill-opacity="1" stroke="#000000" stroke-opacity="1" stroke-width="3.2"/>
<circle clip-path="url(#clip712)" cx="1647.92" cy="320.775" r="14.4" fill="#e26f46" fill-rule="evenodd" fill-opacity="1" stroke="#000000" stroke-opacity="1" stroke-width="3.2"/>
<circle clip-path="url(#clip712)" cx="1688.26" cy="304.657" r="14.4" fill="#e26f46" fill-rule="evenodd" fill-opacity="1" stroke="#000000" stroke-opacity="1" stroke-width="3.2"/>
<circle clip-path="url(#clip712)" cx="1728.61" cy="315.039" r="14.4" fill="#e26f46" fill-rule="evenodd" fill-opacity="1" stroke="#000000" stroke-opacity="1" stroke-width="3.2"/>
<circle clip-path="url(#clip712)" cx="1768.95" cy="290.548" r="14.4" fill="#e26f46" fill-rule="evenodd" fill-opacity="1" stroke="#000000" stroke-opacity="1" stroke-width="3.2"/>
<circle clip-path="url(#clip712)" cx="1809.3" cy="289.667" r="14.4" fill="#e26f46" fill-rule="evenodd" fill-opacity="1" stroke="#000000" stroke-opacity="1" stroke-width="3.2"/>
<circle clip-path="url(#clip712)" cx="1849.65" cy="266.782" r="14.4" fill="#e26f46" fill-rule="evenodd" fill-opacity="1" stroke="#000000" stroke-opacity="1" stroke-width="3.2"/>
<circle clip-path="url(#clip712)" cx="1889.99" cy="217.239" r="14.4" fill="#e26f46" fill-rule="evenodd" fill-opacity="1" stroke="#000000" stroke-opacity="1" stroke-width="3.2"/>
<circle clip-path="url(#clip712)" cx="1930.34" cy="269.66" r="14.4" fill="#e26f46" fill-rule="evenodd" fill-opacity="1" stroke="#000000" stroke-opacity="1" stroke-width="3.2"/>
<circle clip-path="url(#clip712)" cx="1970.68" cy="254.573" r="14.4" fill="#e26f46" fill-rule="evenodd" fill-opacity="1" stroke="#000000" stroke-opacity="1" stroke-width="3.2"/>
<circle clip-path="url(#clip712)" cx="2011.03" cy="251.407" r="14.4" fill="#e26f46" fill-rule="evenodd" fill-opacity="1" stroke="#000000" stroke-opacity="1" stroke-width="3.2"/>
<circle clip-path="url(#clip712)" cx="2051.37" cy="238.688" r="14.4" fill="#e26f46" fill-rule="evenodd" fill-opacity="1" stroke="#000000" stroke-opacity="1" stroke-width="3.2"/>
<circle clip-path="url(#clip712)" cx="2091.72" cy="242.064" r="14.4" fill="#e26f46" fill-rule="evenodd" fill-opacity="1" stroke="#000000" stroke-opacity="1" stroke-width="3.2"/>
<circle clip-path="url(#clip712)" cx="2132.07" cy="242.969" r="14.4" fill="#e26f46" fill-rule="evenodd" fill-opacity="1" stroke="#000000" stroke-opacity="1" stroke-width="3.2"/>
<circle clip-path="url(#clip712)" cx="2172.41" cy="231.371" r="14.4" fill="#e26f46" fill-rule="evenodd" fill-opacity="1" stroke="#000000" stroke-opacity="1" stroke-width="3.2"/>
<circle clip-path="url(#clip712)" cx="2212.76" cy="234.318" r="14.4" fill="#e26f46" fill-rule="evenodd" fill-opacity="1" stroke="#000000" stroke-opacity="1" stroke-width="3.2"/>
<circle clip-path="url(#clip712)" cx="2253.1" cy="233.052" r="14.4" fill="#e26f46" fill-rule="evenodd" fill-opacity="1" stroke="#000000" stroke-opacity="1" stroke-width="3.2"/>
<circle clip-path="url(#clip712)" cx="2293.45" cy="188.595" r="14.4" fill="#e26f46" fill-rule="evenodd" fill-opacity="1" stroke="#000000" stroke-opacity="1" stroke-width="3.2"/>
<circle clip-path="url(#clip712)" cx="316.512" cy="1384.11" r="14.4" fill="#3da44d" fill-rule="evenodd" fill-opacity="1" stroke="#000000" stroke-opacity="1" stroke-width="3.2"/>
<circle clip-path="url(#clip712)" cx="356.858" cy="1346.05" r="14.4" fill="#3da44d" fill-rule="evenodd" fill-opacity="1" stroke="#000000" stroke-opacity="1" stroke-width="3.2"/>
<circle clip-path="url(#clip712)" cx="397.203" cy="1313.85" r="14.4" fill="#3da44d" fill-rule="evenodd" fill-opacity="1" stroke="#000000" stroke-opacity="1" stroke-width="3.2"/>
<circle clip-path="url(#clip712)" cx="437.549" cy="1277.67" r="14.4" fill="#3da44d" fill-rule="evenodd" fill-opacity="1" stroke="#000000" stroke-opacity="1" stroke-width="3.2"/>
<circle clip-path="url(#clip712)" cx="477.895" cy="1231.11" r="14.4" fill="#3da44d" fill-rule="evenodd" fill-opacity="1" stroke="#000000" stroke-opacity="1" stroke-width="3.2"/>
<circle clip-path="url(#clip712)" cx="518.24" cy="1187.72" r="14.4" fill="#3da44d" fill-rule="evenodd" fill-opacity="1" stroke="#000000" stroke-opacity="1" stroke-width="3.2"/>
<circle clip-path="url(#clip712)" cx="558.586" cy="1120.35" r="14.4" fill="#3da44d" fill-rule="evenodd" fill-opacity="1" stroke="#000000" stroke-opacity="1" stroke-width="3.2"/>
<circle clip-path="url(#clip712)" cx="598.931" cy="1073.12" r="14.4" fill="#3da44d" fill-rule="evenodd" fill-opacity="1" stroke="#000000" stroke-opacity="1" stroke-width="3.2"/>
<circle clip-path="url(#clip712)" cx="639.277" cy="1025" r="14.4" fill="#3da44d" fill-rule="evenodd" fill-opacity="1" stroke="#000000" stroke-opacity="1" stroke-width="3.2"/>
<circle clip-path="url(#clip712)" cx="679.623" cy="906.146" r="14.4" fill="#3da44d" fill-rule="evenodd" fill-opacity="1" stroke="#000000" stroke-opacity="1" stroke-width="3.2"/>
<circle clip-path="url(#clip712)" cx="719.968" cy="643.398" r="14.4" fill="#3da44d" fill-rule="evenodd" fill-opacity="1" stroke="#000000" stroke-opacity="1" stroke-width="3.2"/>
<circle clip-path="url(#clip712)" cx="760.314" cy="549.883" r="14.4" fill="#3da44d" fill-rule="evenodd" fill-opacity="1" stroke="#000000" stroke-opacity="1" stroke-width="3.2"/>
<circle clip-path="url(#clip712)" cx="800.66" cy="425.313" r="14.4" fill="#3da44d" fill-rule="evenodd" fill-opacity="1" stroke="#000000" stroke-opacity="1" stroke-width="3.2"/>
<circle clip-path="url(#clip712)" cx="841.005" cy="516.29" r="14.4" fill="#3da44d" fill-rule="evenodd" fill-opacity="1" stroke="#000000" stroke-opacity="1" stroke-width="3.2"/>
<circle clip-path="url(#clip712)" cx="881.351" cy="340.735" r="14.4" fill="#3da44d" fill-rule="evenodd" fill-opacity="1" stroke="#000000" stroke-opacity="1" stroke-width="3.2"/>
<circle clip-path="url(#clip712)" cx="921.697" cy="485.737" r="14.4" fill="#3da44d" fill-rule="evenodd" fill-opacity="1" stroke="#000000" stroke-opacity="1" stroke-width="3.2"/>
<circle clip-path="url(#clip712)" cx="962.042" cy="452.84" r="14.4" fill="#3da44d" fill-rule="evenodd" fill-opacity="1" stroke="#000000" stroke-opacity="1" stroke-width="3.2"/>
<circle clip-path="url(#clip712)" cx="1002.39" cy="406.212" r="14.4" fill="#3da44d" fill-rule="evenodd" fill-opacity="1" stroke="#000000" stroke-opacity="1" stroke-width="3.2"/>
<circle clip-path="url(#clip712)" cx="1042.73" cy="398.131" r="14.4" fill="#3da44d" fill-rule="evenodd" fill-opacity="1" stroke="#000000" stroke-opacity="1" stroke-width="3.2"/>
<circle clip-path="url(#clip712)" cx="1083.08" cy="359.301" r="14.4" fill="#3da44d" fill-rule="evenodd" fill-opacity="1" stroke="#000000" stroke-opacity="1" stroke-width="3.2"/>
<circle clip-path="url(#clip712)" cx="1123.42" cy="342.764" r="14.4" fill="#3da44d" fill-rule="evenodd" fill-opacity="1" stroke="#000000" stroke-opacity="1" stroke-width="3.2"/>
<circle clip-path="url(#clip712)" cx="1163.77" cy="327.906" r="14.4" fill="#3da44d" fill-rule="evenodd" fill-opacity="1" stroke="#000000" stroke-opacity="1" stroke-width="3.2"/>
<circle clip-path="url(#clip712)" cx="1204.12" cy="317.408" r="14.4" fill="#3da44d" fill-rule="evenodd" fill-opacity="1" stroke="#000000" stroke-opacity="1" stroke-width="3.2"/>
<circle clip-path="url(#clip712)" cx="1244.46" cy="280.787" r="14.4" fill="#3da44d" fill-rule="evenodd" fill-opacity="1" stroke="#000000" stroke-opacity="1" stroke-width="3.2"/>
<circle clip-path="url(#clip712)" cx="1284.81" cy="275.401" r="14.4" fill="#3da44d" fill-rule="evenodd" fill-opacity="1" stroke="#000000" stroke-opacity="1" stroke-width="3.2"/>
<circle clip-path="url(#clip712)" cx="1325.15" cy="273.503" r="14.4" fill="#3da44d" fill-rule="evenodd" fill-opacity="1" stroke="#000000" stroke-opacity="1" stroke-width="3.2"/>
<circle clip-path="url(#clip712)" cx="1365.5" cy="278.292" r="14.4" fill="#3da44d" fill-rule="evenodd" fill-opacity="1" stroke="#000000" stroke-opacity="1" stroke-width="3.2"/>
<circle clip-path="url(#clip712)" cx="1405.84" cy="256.882" r="14.4" fill="#3da44d" fill-rule="evenodd" fill-opacity="1" stroke="#000000" stroke-opacity="1" stroke-width="3.2"/>
<circle clip-path="url(#clip712)" cx="1446.19" cy="263.975" r="14.4" fill="#3da44d" fill-rule="evenodd" fill-opacity="1" stroke="#000000" stroke-opacity="1" stroke-width="3.2"/>
<circle clip-path="url(#clip712)" cx="1486.54" cy="243.61" r="14.4" fill="#3da44d" fill-rule="evenodd" fill-opacity="1" stroke="#000000" stroke-opacity="1" stroke-width="3.2"/>
<circle clip-path="url(#clip712)" cx="1526.88" cy="232.097" r="14.4" fill="#3da44d" fill-rule="evenodd" fill-opacity="1" stroke="#000000" stroke-opacity="1" stroke-width="3.2"/>
<circle clip-path="url(#clip712)" cx="1567.23" cy="226.88" r="14.4" fill="#3da44d" fill-rule="evenodd" fill-opacity="1" stroke="#000000" stroke-opacity="1" stroke-width="3.2"/>
<circle clip-path="url(#clip712)" cx="1607.57" cy="230.452" r="14.4" fill="#3da44d" fill-rule="evenodd" fill-opacity="1" stroke="#000000" stroke-opacity="1" stroke-width="3.2"/>
<circle clip-path="url(#clip712)" cx="1647.92" cy="220.606" r="14.4" fill="#3da44d" fill-rule="evenodd" fill-opacity="1" stroke="#000000" stroke-opacity="1" stroke-width="3.2"/>
<circle clip-path="url(#clip712)" cx="1688.26" cy="219.576" r="14.4" fill="#3da44d" fill-rule="evenodd" fill-opacity="1" stroke="#000000" stroke-opacity="1" stroke-width="3.2"/>
<circle clip-path="url(#clip712)" cx="1728.61" cy="205.929" r="14.4" fill="#3da44d" fill-rule="evenodd" fill-opacity="1" stroke="#000000" stroke-opacity="1" stroke-width="3.2"/>
<circle clip-path="url(#clip712)" cx="1768.95" cy="205.526" r="14.4" fill="#3da44d" fill-rule="evenodd" fill-opacity="1" stroke="#000000" stroke-opacity="1" stroke-width="3.2"/>
<circle clip-path="url(#clip712)" cx="1809.3" cy="202.091" r="14.4" fill="#3da44d" fill-rule="evenodd" fill-opacity="1" stroke="#000000" stroke-opacity="1" stroke-width="3.2"/>
<circle clip-path="url(#clip712)" cx="1849.65" cy="201.707" r="14.4" fill="#3da44d" fill-rule="evenodd" fill-opacity="1" stroke="#000000" stroke-opacity="1" stroke-width="3.2"/>
<circle clip-path="url(#clip712)" cx="1889.99" cy="192.233" r="14.4" fill="#3da44d" fill-rule="evenodd" fill-opacity="1" stroke="#000000" stroke-opacity="1" stroke-width="3.2"/>
<circle clip-path="url(#clip712)" cx="1930.34" cy="195.291" r="14.4" fill="#3da44d" fill-rule="evenodd" fill-opacity="1" stroke="#000000" stroke-opacity="1" stroke-width="3.2"/>
<circle clip-path="url(#clip712)" cx="1970.68" cy="196.325" r="14.4" fill="#3da44d" fill-rule="evenodd" fill-opacity="1" stroke="#000000" stroke-opacity="1" stroke-width="3.2"/>
<circle clip-path="url(#clip712)" cx="2011.03" cy="185.555" r="14.4" fill="#3da44d" fill-rule="evenodd" fill-opacity="1" stroke="#000000" stroke-opacity="1" stroke-width="3.2"/>
<circle clip-path="url(#clip712)" cx="2051.37" cy="174.868" r="14.4" fill="#3da44d" fill-rule="evenodd" fill-opacity="1" stroke="#000000" stroke-opacity="1" stroke-width="3.2"/>
<circle clip-path="url(#clip712)" cx="2091.72" cy="190.503" r="14.4" fill="#3da44d" fill-rule="evenodd" fill-opacity="1" stroke="#000000" stroke-opacity="1" stroke-width="3.2"/>
<circle clip-path="url(#clip712)" cx="2132.07" cy="170.431" r="14.4" fill="#3da44d" fill-rule="evenodd" fill-opacity="1" stroke="#000000" stroke-opacity="1" stroke-width="3.2"/>
<circle clip-path="url(#clip712)" cx="2172.41" cy="161.927" r="14.4" fill="#3da44d" fill-rule="evenodd" fill-opacity="1" stroke="#000000" stroke-opacity="1" stroke-width="3.2"/>
<circle clip-path="url(#clip712)" cx="2212.76" cy="172.049" r="14.4" fill="#3da44d" fill-rule="evenodd" fill-opacity="1" stroke="#000000" stroke-opacity="1" stroke-width="3.2"/>
<circle clip-path="url(#clip712)" cx="2253.1" cy="167.973" r="14.4" fill="#3da44d" fill-rule="evenodd" fill-opacity="1" stroke="#000000" stroke-opacity="1" stroke-width="3.2"/>
<circle clip-path="url(#clip712)" cx="2293.45" cy="160.256" r="14.4" fill="#3da44d" fill-rule="evenodd" fill-opacity="1" stroke="#000000" stroke-opacity="1" stroke-width="3.2"/>
<polyline clip-path="url(#clip712)" style="stroke:#c271d2; stroke-linecap:round; stroke-linejoin:round; stroke-width:4; stroke-opacity:1; fill:none" stroke-dasharray="16, 10" points="1784.69,2722.89 1784.69,-1176.24 "/>
<polyline clip-path="url(#clip712)" style="stroke:#c271d2; stroke-linecap:round; stroke-linejoin:round; stroke-width:4; stroke-opacity:1; fill:none" stroke-dasharray="16, 10" points="1050.4,2722.89 1050.4,-1176.24 "/>
<polyline clip-path="url(#clip712)" style="stroke:#c271d2; stroke-linecap:round; stroke-linejoin:round; stroke-width:4; stroke-opacity:1; fill:none" stroke-dasharray="16, 10" points="805.636,2722.89 805.636,-1176.24 "/>
<path clip-path="url(#clip710)" d="M327.056 425.996 L664.272 425.996 L664.272 166.796 L327.056 166.796  Z" fill="#ffffff" fill-rule="evenodd" fill-opacity="1"/>
<polyline clip-path="url(#clip710)" style="stroke:#000000; stroke-linecap:round; stroke-linejoin:round; stroke-width:4; stroke-opacity:1; fill:none" points="327.056,425.996 664.272,425.996 664.272,166.796 327.056,166.796 327.056,425.996 "/>
<circle clip-path="url(#clip710)" cx="420.191" cy="218.636" r="20.48" fill="#009af9" fill-rule="evenodd" fill-opacity="1" stroke="#000000" stroke-opacity="1" stroke-width="4.55111"/>
<path clip-path="url(#clip710)" d="M532.239 213.925 L532.239 199.897 L536.498 199.897 L536.498 235.916 L532.239 235.916 L532.239 232.027 Q530.896 234.342 528.836 235.476 Q526.799 236.587 523.929 236.587 Q519.23 236.587 516.267 232.837 Q513.327 229.087 513.327 222.976 Q513.327 216.865 516.267 213.115 Q519.23 209.365 523.929 209.365 Q526.799 209.365 528.836 210.499 Q530.896 211.61 532.239 213.925 M517.725 222.976 Q517.725 227.675 519.646 230.36 Q521.591 233.022 524.97 233.022 Q528.35 233.022 530.295 230.36 Q532.239 227.675 532.239 222.976 Q532.239 218.277 530.295 215.615 Q528.35 212.93 524.97 212.93 Q521.591 212.93 519.646 215.615 Q517.725 218.277 517.725 222.976 Z" fill="#000000" fill-rule="nonzero" fill-opacity="1" /><path clip-path="url(#clip710)" d="M545.827 214.388 L575.503 214.388 L575.503 218.277 L545.827 218.277 L545.827 214.388 M545.827 223.832 L575.503 223.832 L575.503 227.768 L545.827 227.768 L545.827 223.832 Z" fill="#000000" fill-rule="nonzero" fill-opacity="1" /><path clip-path="url(#clip710)" d="M586.405 231.981 L594.044 231.981 L594.044 205.615 L585.734 207.282 L585.734 203.022 L593.998 201.356 L598.674 201.356 L598.674 231.981 L606.313 231.981 L606.313 235.916 L586.405 235.916 L586.405 231.981 Z" fill="#000000" fill-rule="nonzero" fill-opacity="1" /><circle clip-path="url(#clip710)" cx="420.191" cy="270.476" r="20.48" fill="#e26f46" fill-rule="evenodd" fill-opacity="1" stroke="#000000" stroke-opacity="1" stroke-width="4.55111"/>
<path clip-path="url(#clip710)" d="M532.239 265.765 L532.239 251.737 L536.498 251.737 L536.498 287.756 L532.239 287.756 L532.239 283.867 Q530.896 286.182 528.836 287.316 Q526.799 288.427 523.929 288.427 Q519.23 288.427 516.267 284.677 Q513.327 280.927 513.327 274.816 Q513.327 268.705 516.267 264.955 Q519.23 261.205 523.929 261.205 Q526.799 261.205 528.836 262.339 Q530.896 263.45 532.239 265.765 M517.725 274.816 Q517.725 279.515 519.646 282.2 Q521.591 284.862 524.97 284.862 Q528.35 284.862 530.295 282.2 Q532.239 279.515 532.239 274.816 Q532.239 270.117 530.295 267.455 Q528.35 264.77 524.97 264.77 Q521.591 264.77 519.646 267.455 Q517.725 270.117 517.725 274.816 Z" fill="#000000" fill-rule="nonzero" fill-opacity="1" /><path clip-path="url(#clip710)" d="M545.827 266.228 L575.503 266.228 L575.503 270.117 L545.827 270.117 L545.827 266.228 M545.827 275.672 L575.503 275.672 L575.503 279.608 L545.827 279.608 L545.827 275.672 Z" fill="#000000" fill-rule="nonzero" fill-opacity="1" /><path clip-path="url(#clip710)" d="M589.623 283.821 L605.942 283.821 L605.942 287.756 L583.998 287.756 L583.998 283.821 Q586.66 281.066 591.243 276.436 Q595.85 271.784 597.03 270.441 Q599.276 267.918 600.155 266.182 Q601.058 264.423 601.058 262.733 Q601.058 259.978 599.114 258.242 Q597.192 256.506 594.09 256.506 Q591.891 256.506 589.438 257.27 Q587.007 258.034 584.229 259.585 L584.229 254.862 Q587.053 253.728 589.507 253.149 Q591.961 252.571 593.998 252.571 Q599.368 252.571 602.563 255.256 Q605.757 257.941 605.757 262.432 Q605.757 264.561 604.947 266.483 Q604.16 268.381 602.053 270.973 Q601.475 271.645 598.373 274.862 Q595.271 278.057 589.623 283.821 Z" fill="#000000" fill-rule="nonzero" fill-opacity="1" /><circle clip-path="url(#clip710)" cx="420.191" cy="322.316" r="20.48" fill="#3da44d" fill-rule="evenodd" fill-opacity="1" stroke="#000000" stroke-opacity="1" stroke-width="4.55111"/>
<path clip-path="url(#clip710)" d="M532.239 317.605 L532.239 303.577 L536.498 303.577 L536.498 339.596 L532.239 339.596 L532.239 335.707 Q530.896 338.022 528.836 339.156 Q526.799 340.267 523.929 340.267 Q519.23 340.267 516.267 336.517 Q513.327 332.767 513.327 326.656 Q513.327 320.545 516.267 316.795 Q519.23 313.045 523.929 313.045 Q526.799 313.045 528.836 314.179 Q530.896 315.29 532.239 317.605 M517.725 326.656 Q517.725 331.355 519.646 334.04 Q521.591 336.702 524.97 336.702 Q528.35 336.702 530.295 334.04 Q532.239 331.355 532.239 326.656 Q532.239 321.957 530.295 319.295 Q528.35 316.61 524.97 316.61 Q521.591 316.61 519.646 319.295 Q517.725 321.957 517.725 326.656 Z" fill="#000000" fill-rule="nonzero" fill-opacity="1" /><path clip-path="url(#clip710)" d="M545.827 318.068 L575.503 318.068 L575.503 321.957 L545.827 321.957 L545.827 318.068 M545.827 327.512 L575.503 327.512 L575.503 331.448 L545.827 331.448 L545.827 327.512 Z" fill="#000000" fill-rule="nonzero" fill-opacity="1" /><path clip-path="url(#clip710)" d="M599.762 320.962 Q603.118 321.679 604.993 323.948 Q606.891 326.216 606.891 329.549 Q606.891 334.665 603.373 337.466 Q599.854 340.267 593.373 340.267 Q591.197 340.267 588.882 339.827 Q586.591 339.411 584.137 338.554 L584.137 334.04 Q586.081 335.174 588.396 335.753 Q590.711 336.332 593.234 336.332 Q597.632 336.332 599.924 334.596 Q602.239 332.86 602.239 329.549 Q602.239 326.494 600.086 324.781 Q597.956 323.045 594.137 323.045 L590.109 323.045 L590.109 319.202 L594.322 319.202 Q597.771 319.202 599.6 317.837 Q601.428 316.448 601.428 313.855 Q601.428 311.193 599.53 309.781 Q597.655 308.346 594.137 308.346 Q592.216 308.346 590.016 308.763 Q587.817 309.179 585.179 310.059 L585.179 305.892 Q587.841 305.151 590.155 304.781 Q592.493 304.411 594.553 304.411 Q599.877 304.411 602.979 306.841 Q606.081 309.249 606.081 313.369 Q606.081 316.239 604.438 318.23 Q602.794 320.198 599.762 320.962 Z" fill="#000000" fill-rule="nonzero" fill-opacity="1" /><polyline clip-path="url(#clip710)" style="stroke:#c271d2; stroke-linecap:round; stroke-linejoin:round; stroke-width:4; stroke-opacity:1; fill:none" stroke-dasharray="16, 10" points="350.34,374.156 490.043,374.156 "/>
<path clip-path="url(#clip710)" d="M513.327 356.876 L542.563 356.876 L542.563 360.811 L530.295 360.811 L530.295 391.436 L525.595 391.436 L525.595 360.811 L513.327 360.811 L513.327 356.876 Z" fill="#000000" fill-rule="nonzero" fill-opacity="1" /><path clip-path="url(#clip710)" d="M566.591 399.306 L566.591 402.616 L541.961 402.616 L541.961 399.306 L566.591 399.306 Z" fill="#000000" fill-rule="nonzero" fill-opacity="1" /><path clip-path="url(#clip710)" d="M596.66 359.538 L596.66 364.468 Q594.299 362.269 591.614 361.181 Q588.952 360.093 585.942 360.093 Q580.016 360.093 576.868 363.728 Q573.72 367.339 573.72 374.19 Q573.72 381.019 576.868 384.653 Q580.016 388.264 585.942 388.264 Q588.952 388.264 591.614 387.176 Q594.299 386.089 596.66 383.889 L596.66 388.774 Q594.206 390.44 591.452 391.274 Q588.72 392.107 585.665 392.107 Q577.817 392.107 573.304 387.315 Q568.79 382.501 568.79 374.19 Q568.79 365.857 573.304 361.066 Q577.817 356.251 585.665 356.251 Q588.766 356.251 591.498 357.084 Q594.253 357.894 596.66 359.538 Z" fill="#000000" fill-rule="nonzero" fill-opacity="1" /><path clip-path="url(#clip710)" d="M611.266 356.876 L615.201 356.876 L603.165 395.834 L599.229 395.834 L611.266 356.876 Z" fill="#000000" fill-rule="nonzero" fill-opacity="1" /><path clip-path="url(#clip710)" d="M636.729 369.445 L636.729 355.417 L640.988 355.417 L640.988 391.436 L636.729 391.436 L636.729 387.547 Q635.387 389.862 633.326 390.996 Q631.289 392.107 628.419 392.107 Q623.72 392.107 620.757 388.357 Q617.817 384.607 617.817 378.496 Q617.817 372.385 620.757 368.635 Q623.72 364.885 628.419 364.885 Q631.289 364.885 633.326 366.019 Q635.387 367.13 636.729 369.445 M622.215 378.496 Q622.215 383.195 624.137 385.88 Q626.081 388.542 629.461 388.542 Q632.84 388.542 634.785 385.88 Q636.729 383.195 636.729 378.496 Q636.729 373.797 634.785 371.135 Q632.84 368.45 629.461 368.45 Q626.081 368.45 624.137 371.135 Q622.215 373.797 622.215 378.496 Z" fill="#000000" fill-rule="nonzero" fill-opacity="1" /></svg>
