<?xml version="1.0" encoding="utf-8"?>
<svg xmlns="http://www.w3.org/2000/svg" xmlns:xlink="http://www.w3.org/1999/xlink" width="600" height="400" viewBox="0 0 2400 1600">
<defs>
  <clipPath id="clip130">
    <rect x="0" y="0" width="2400" height="1600"/>
  </clipPath>
</defs>
<path clip-path="url(#clip130)" d="M0 1600 L2400 1600 L2400 0 L0 0  Z" fill="#ffffff" fill-rule="evenodd" fill-opacity="1"/>
<defs>
  <clipPath id="clip131">
    <rect x="480" y="0" width="1681" height="1600"/>
  </clipPath>
</defs>
<path clip-path="url(#clip130)" d="M337.247 1423.18 L2352.76 1423.18 L2352.76 123.472 L337.247 123.472  Z" fill="#ffffff" fill-rule="evenodd" fill-opacity="1"/>
<defs>
  <clipPath id="clip132">
    <rect x="337" y="123" width="2017" height="1301"/>
  </clipPath>
</defs>
<polyline clip-path="url(#clip132)" style="stroke:#000000; stroke-linecap:round; stroke-linejoin:round; stroke-width:2; stroke-opacity:0.1; fill:none" points="391.91,1423.18 391.91,123.472 "/>
<polyline clip-path="url(#clip132)" style="stroke:#000000; stroke-linecap:round; stroke-linejoin:round; stroke-width:2; stroke-opacity:0.1; fill:none" points="867.861,1423.18 867.861,123.472 "/>
<polyline clip-path="url(#clip132)" style="stroke:#000000; stroke-linecap:round; stroke-linejoin:round; stroke-width:2; stroke-opacity:0.1; fill:none" points="1343.81,1423.18 1343.81,123.472 "/>
<polyline clip-path="url(#clip132)" style="stroke:#000000; stroke-linecap:round; stroke-linejoin:round; stroke-width:2; stroke-opacity:0.1; fill:none" points="1819.76,1423.18 1819.76,123.472 "/>
<polyline clip-path="url(#clip132)" style="stroke:#000000; stroke-linecap:round; stroke-linejoin:round; stroke-width:2; stroke-opacity:0.1; fill:none" points="2295.71,1423.18 2295.71,123.472 "/>
<polyline clip-path="url(#clip132)" style="stroke:#000000; stroke-linecap:round; stroke-linejoin:round; stroke-width:2; stroke-opacity:0.1; fill:none" points="337.247,1386.4 2352.76,1386.4 "/>
<polyline clip-path="url(#clip132)" style="stroke:#000000; stroke-linecap:round; stroke-linejoin:round; stroke-width:2; stroke-opacity:0.1; fill:none" points="337.247,1045.84 2352.76,1045.84 "/>
<polyline clip-path="url(#clip132)" style="stroke:#000000; stroke-linecap:round; stroke-linejoin:round; stroke-width:2; stroke-opacity:0.1; fill:none" points="337.247,705.275 2352.76,705.275 "/>
<polyline clip-path="url(#clip132)" style="stroke:#000000; stroke-linecap:round; stroke-linejoin:round; stroke-width:2; stroke-opacity:0.1; fill:none" points="337.247,364.715 2352.76,364.715 "/>
<polyline clip-path="url(#clip130)" style="stroke:#000000; stroke-linecap:round; stroke-linejoin:round; stroke-width:4; stroke-opacity:1; fill:none" points="337.247,1423.18 2352.76,1423.18 "/>
<polyline clip-path="url(#clip130)" style="stroke:#000000; stroke-linecap:round; stroke-linejoin:round; stroke-width:4; stroke-opacity:1; fill:none" points="391.91,1423.18 391.91,1404.28 "/>
<polyline clip-path="url(#clip130)" style="stroke:#000000; stroke-linecap:round; stroke-linejoin:round; stroke-width:4; stroke-opacity:1; fill:none" points="867.861,1423.18 867.861,1404.28 "/>
<polyline clip-path="url(#clip130)" style="stroke:#000000; stroke-linecap:round; stroke-linejoin:round; stroke-width:4; stroke-opacity:1; fill:none" points="1343.81,1423.18 1343.81,1404.28 "/>
<polyline clip-path="url(#clip130)" style="stroke:#000000; stroke-linecap:round; stroke-linejoin:round; stroke-width:4; stroke-opacity:1; fill:none" points="1819.76,1423.18 1819.76,1404.28 "/>
<polyline clip-path="url(#clip130)" style="stroke:#000000; stroke-linecap:round; stroke-linejoin:round; stroke-width:4; stroke-opacity:1; fill:none" points="2295.71,1423.18 2295.71,1404.28 "/>
<path clip-path="url(#clip130)" d="M391.91 1454.1 Q388.299 1454.1 386.47 1457.66 Q384.665 1461.2 384.665 1468.33 Q384.665 1475.44 386.47 1479.01 Q388.299 1482.55 391.91 1482.55 Q395.544 1482.55 397.35 1479.01 Q399.178 1475.44 399.178 1468.33 Q399.178 1461.2 397.35 1457.66 Q395.544 1454.1 391.91 1454.1 M391.91 1450.39 Q397.72 1450.39 400.776 1455 Q403.854 1459.58 403.854 1468.33 Q403.854 1477.06 400.776 1481.67 Q397.72 1486.25 391.91 1486.25 Q386.1 1486.25 383.021 1481.67 Q379.966 1477.06 379.966 1468.33 Q379.966 1459.58 383.021 1455 Q386.1 1450.39 391.91 1450.39 Z" fill="#000000" fill-rule="nonzero" fill-opacity="1" /><path clip-path="url(#clip130)" d="M831.553 1481.64 L847.872 1481.64 L847.872 1485.58 L825.928 1485.58 L825.928 1481.64 Q828.59 1478.89 833.173 1474.26 Q837.78 1469.61 838.96 1468.27 Q841.206 1465.74 842.085 1464.01 Q842.988 1462.25 842.988 1460.56 Q842.988 1457.8 841.044 1456.07 Q839.122 1454.33 836.021 1454.33 Q833.822 1454.33 831.368 1455.09 Q828.937 1455.86 826.16 1457.41 L826.16 1452.69 Q828.984 1451.55 831.437 1450.97 Q833.891 1450.39 835.928 1450.39 Q841.298 1450.39 844.493 1453.08 Q847.687 1455.77 847.687 1460.26 Q847.687 1462.39 846.877 1464.31 Q846.09 1466.2 843.984 1468.8 Q843.405 1469.47 840.303 1472.69 Q837.201 1475.88 831.553 1481.64 Z" fill="#000000" fill-rule="nonzero" fill-opacity="1" /><path clip-path="url(#clip130)" d="M867.687 1454.1 Q864.076 1454.1 862.247 1457.66 Q860.442 1461.2 860.442 1468.33 Q860.442 1475.44 862.247 1479.01 Q864.076 1482.55 867.687 1482.55 Q871.321 1482.55 873.127 1479.01 Q874.956 1475.44 874.956 1468.33 Q874.956 1461.2 873.127 1457.66 Q871.321 1454.1 867.687 1454.1 M867.687 1450.39 Q873.497 1450.39 876.553 1455 Q879.632 1459.58 879.632 1468.33 Q879.632 1477.06 876.553 1481.67 Q873.497 1486.25 867.687 1486.25 Q861.877 1486.25 858.798 1481.67 Q855.743 1477.06 855.743 1468.33 Q855.743 1459.58 858.798 1455 Q861.877 1450.39 867.687 1450.39 Z" fill="#000000" fill-rule="nonzero" fill-opacity="1" /><path clip-path="url(#clip130)" d="M897.849 1454.1 Q894.238 1454.1 892.409 1457.66 Q890.604 1461.2 890.604 1468.33 Q890.604 1475.44 892.409 1479.01 Q894.238 1482.55 897.849 1482.55 Q901.483 1482.55 903.289 1479.01 Q905.118 1475.44 905.118 1468.33 Q905.118 1461.2 903.289 1457.66 Q901.483 1454.1 897.849 1454.1 M897.849 1450.39 Q903.659 1450.39 906.715 1455 Q909.793 1459.58 909.793 1468.33 Q909.793 1477.06 906.715 1481.67 Q903.659 1486.25 897.849 1486.25 Q892.039 1486.25 888.96 1481.67 Q885.905 1477.06 885.905 1468.33 Q885.905 1459.58 888.96 1455 Q892.039 1450.39 897.849 1450.39 Z" fill="#000000" fill-rule="nonzero" fill-opacity="1" /><path clip-path="url(#clip130)" d="M1316.9 1455.09 L1305.1 1473.54 L1316.9 1473.54 L1316.9 1455.09 M1315.68 1451.02 L1321.55 1451.02 L1321.55 1473.54 L1326.49 1473.54 L1326.49 1477.43 L1321.55 1477.43 L1321.55 1485.58 L1316.9 1485.58 L1316.9 1477.43 L1301.3 1477.43 L1301.3 1472.92 L1315.68 1451.02 Z" fill="#000000" fill-rule="nonzero" fill-opacity="1" /><path clip-path="url(#clip130)" d="M1344.22 1454.1 Q1340.61 1454.1 1338.78 1457.66 Q1336.97 1461.2 1336.97 1468.33 Q1336.97 1475.44 1338.78 1479.01 Q1340.61 1482.55 1344.22 1482.55 Q1347.85 1482.55 1349.66 1479.01 Q1351.49 1475.44 1351.49 1468.33 Q1351.49 1461.2 1349.66 1457.66 Q1347.85 1454.1 1344.22 1454.1 M1344.22 1450.39 Q1350.03 1450.39 1353.08 1455 Q1356.16 1459.58 1356.16 1468.33 Q1356.16 1477.06 1353.08 1481.67 Q1350.03 1486.25 1344.22 1486.25 Q1338.41 1486.25 1335.33 1481.67 Q1332.27 1477.06 1332.27 1468.33 Q1332.27 1459.58 1335.33 1455 Q1338.41 1450.39 1344.22 1450.39 Z" fill="#000000" fill-rule="nonzero" fill-opacity="1" /><path clip-path="url(#clip130)" d="M1374.38 1454.1 Q1370.77 1454.1 1368.94 1457.66 Q1367.13 1461.2 1367.13 1468.33 Q1367.13 1475.44 1368.94 1479.01 Q1370.77 1482.55 1374.38 1482.55 Q1378.01 1482.55 1379.82 1479.01 Q1381.65 1475.44 1381.65 1468.33 Q1381.65 1461.2 1379.82 1457.66 Q1378.01 1454.1 1374.38 1454.1 M1374.38 1450.39 Q1380.19 1450.39 1383.24 1455 Q1386.32 1459.58 1386.32 1468.33 Q1386.32 1477.06 1383.24 1481.67 Q1380.19 1486.25 1374.38 1486.25 Q1368.57 1486.25 1365.49 1481.67 Q1362.43 1477.06 1362.43 1468.33 Q1362.43 1459.58 1365.49 1455 Q1368.57 1450.39 1374.38 1450.39 Z" fill="#000000" fill-rule="nonzero" fill-opacity="1" /><path clip-path="url(#clip130)" d="M1790.09 1466.44 Q1786.94 1466.44 1785.09 1468.59 Q1783.26 1470.74 1783.26 1474.49 Q1783.26 1478.22 1785.09 1480.39 Q1786.94 1482.55 1790.09 1482.55 Q1793.23 1482.55 1795.06 1480.39 Q1796.92 1478.22 1796.92 1474.49 Q1796.92 1470.74 1795.06 1468.59 Q1793.23 1466.44 1790.09 1466.44 M1799.37 1451.78 L1799.37 1456.04 Q1797.61 1455.21 1795.8 1454.77 Q1794.02 1454.33 1792.26 1454.33 Q1787.63 1454.33 1785.18 1457.45 Q1782.75 1460.58 1782.4 1466.9 Q1783.77 1464.89 1785.83 1463.82 Q1787.89 1462.73 1790.36 1462.73 Q1795.57 1462.73 1798.58 1465.9 Q1801.61 1469.05 1801.61 1474.49 Q1801.61 1479.82 1798.47 1483.03 Q1795.32 1486.25 1790.09 1486.25 Q1784.09 1486.25 1780.92 1481.67 Q1777.75 1477.06 1777.75 1468.33 Q1777.75 1460.14 1781.64 1455.28 Q1785.53 1450.39 1792.08 1450.39 Q1793.84 1450.39 1795.62 1450.74 Q1797.42 1451.09 1799.37 1451.78 Z" fill="#000000" fill-rule="nonzero" fill-opacity="1" /><path clip-path="url(#clip130)" d="M1819.67 1454.1 Q1816.06 1454.1 1814.23 1457.66 Q1812.42 1461.2 1812.42 1468.33 Q1812.42 1475.44 1814.23 1479.01 Q1816.06 1482.55 1819.67 1482.55 Q1823.3 1482.55 1825.11 1479.01 Q1826.94 1475.44 1826.94 1468.33 Q1826.94 1461.2 1825.11 1457.66 Q1823.3 1454.1 1819.67 1454.1 M1819.67 1450.39 Q1825.48 1450.39 1828.54 1455 Q1831.61 1459.58 1831.61 1468.33 Q1831.61 1477.06 1828.54 1481.67 Q1825.48 1486.25 1819.67 1486.25 Q1813.86 1486.25 1810.78 1481.67 Q1807.73 1477.06 1807.73 1468.33 Q1807.73 1459.58 1810.78 1455 Q1813.86 1450.39 1819.67 1450.39 Z" fill="#000000" fill-rule="nonzero" fill-opacity="1" /><path clip-path="url(#clip130)" d="M1849.83 1454.1 Q1846.22 1454.1 1844.39 1457.66 Q1842.59 1461.2 1842.59 1468.33 Q1842.59 1475.44 1844.39 1479.01 Q1846.22 1482.55 1849.83 1482.55 Q1853.47 1482.55 1855.27 1479.01 Q1857.1 1475.44 1857.1 1468.33 Q1857.1 1461.2 1855.27 1457.66 Q1853.47 1454.1 1849.83 1454.1 M1849.83 1450.39 Q1855.64 1450.39 1858.7 1455 Q1861.78 1459.58 1861.78 1468.33 Q1861.78 1477.06 1858.7 1481.67 Q1855.64 1486.25 1849.83 1486.25 Q1844.02 1486.25 1840.94 1481.67 Q1837.89 1477.06 1837.89 1468.33 Q1837.89 1459.58 1840.94 1455 Q1844.02 1450.39 1849.83 1450.39 Z" fill="#000000" fill-rule="nonzero" fill-opacity="1" /><path clip-path="url(#clip130)" d="M2265.51 1469.17 Q2262.17 1469.17 2260.25 1470.95 Q2258.35 1472.73 2258.35 1475.86 Q2258.35 1478.98 2260.25 1480.77 Q2262.17 1482.55 2265.51 1482.55 Q2268.84 1482.55 2270.76 1480.77 Q2272.68 1478.96 2272.68 1475.86 Q2272.68 1472.73 2270.76 1470.95 Q2268.86 1469.17 2265.51 1469.17 M2260.83 1467.18 Q2257.82 1466.44 2256.13 1464.38 Q2254.46 1462.32 2254.46 1459.35 Q2254.46 1455.21 2257.4 1452.8 Q2260.37 1450.39 2265.51 1450.39 Q2270.67 1450.39 2273.61 1452.8 Q2276.55 1455.21 2276.55 1459.35 Q2276.55 1462.32 2274.86 1464.38 Q2273.19 1466.44 2270.2 1467.18 Q2273.58 1467.96 2275.46 1470.26 Q2277.36 1472.55 2277.36 1475.86 Q2277.36 1480.88 2274.28 1483.57 Q2271.22 1486.25 2265.51 1486.25 Q2259.79 1486.25 2256.71 1483.57 Q2253.65 1480.88 2253.65 1475.86 Q2253.65 1472.55 2255.55 1470.26 Q2257.45 1467.96 2260.83 1467.18 M2259.12 1459.79 Q2259.12 1462.48 2260.78 1463.98 Q2262.47 1465.49 2265.51 1465.49 Q2268.51 1465.49 2270.2 1463.98 Q2271.92 1462.48 2271.92 1459.79 Q2271.92 1457.11 2270.2 1455.6 Q2268.51 1454.1 2265.51 1454.1 Q2262.47 1454.1 2260.78 1455.6 Q2259.12 1457.11 2259.12 1459.79 Z" fill="#000000" fill-rule="nonzero" fill-opacity="1" /><path clip-path="url(#clip130)" d="M2295.67 1454.1 Q2292.06 1454.1 2290.23 1457.66 Q2288.42 1461.2 2288.42 1468.33 Q2288.42 1475.44 2290.23 1479.01 Q2292.06 1482.55 2295.67 1482.55 Q2299.3 1482.55 2301.11 1479.01 Q2302.94 1475.44 2302.94 1468.33 Q2302.94 1461.2 2301.11 1457.66 Q2299.3 1454.1 2295.67 1454.1 M2295.67 1450.39 Q2301.48 1450.39 2304.53 1455 Q2307.61 1459.58 2307.61 1468.33 Q2307.61 1477.06 2304.53 1481.67 Q2301.48 1486.25 2295.67 1486.25 Q2289.86 1486.25 2286.78 1481.67 Q2283.72 1477.06 2283.72 1468.33 Q2283.72 1459.58 2286.78 1455 Q2289.86 1450.39 2295.67 1450.39 Z" fill="#000000" fill-rule="nonzero" fill-opacity="1" /><path clip-path="url(#clip130)" d="M2325.83 1454.1 Q2322.22 1454.1 2320.39 1457.66 Q2318.58 1461.2 2318.58 1468.33 Q2318.58 1475.44 2320.39 1479.01 Q2322.22 1482.55 2325.83 1482.55 Q2329.46 1482.55 2331.27 1479.01 Q2333.1 1475.44 2333.1 1468.33 Q2333.1 1461.2 2331.27 1457.66 Q2329.46 1454.1 2325.83 1454.1 M2325.83 1450.39 Q2331.64 1450.39 2334.69 1455 Q2337.77 1459.58 2337.77 1468.33 Q2337.77 1477.06 2334.69 1481.67 Q2331.64 1486.25 2325.83 1486.25 Q2320.02 1486.25 2316.94 1481.67 Q2313.88 1477.06 2313.88 1468.33 Q2313.88 1459.58 2316.94 1455 Q2320.02 1450.39 2325.83 1450.39 Z" fill="#000000" fill-rule="nonzero" fill-opacity="1" /><path clip-path="url(#clip130)" d="M983.779 1520.52 L992.437 1520.52 L1013.51 1560.28 L1013.51 1520.52 L1019.75 1520.52 L1019.75 1568.04 L1011.09 1568.04 L990.018 1528.29 L990.018 1568.04 L983.779 1568.04 L983.779 1520.52 Z" fill="#000000" fill-rule="nonzero" fill-opacity="1" /><path clip-path="url(#clip130)" d="M1066.82 1536.5 Q1062.11 1536.5 1059.37 1540.19 Q1056.63 1543.85 1056.63 1550.25 Q1056.63 1556.65 1059.34 1560.34 Q1062.08 1564 1066.82 1564 Q1071.5 1564 1074.24 1560.31 Q1076.97 1556.62 1076.97 1550.25 Q1076.97 1543.92 1074.24 1540.23 Q1071.5 1536.5 1066.82 1536.5 M1066.82 1531.54 Q1074.46 1531.54 1078.82 1536.5 Q1083.18 1541.47 1083.18 1550.25 Q1083.18 1559 1078.82 1564 Q1074.46 1568.97 1066.82 1568.97 Q1059.15 1568.97 1054.79 1564 Q1050.46 1559 1050.46 1550.25 Q1050.46 1541.47 1054.79 1536.5 Q1059.15 1531.54 1066.82 1531.54 Z" fill="#000000" fill-rule="nonzero" fill-opacity="1" /><path clip-path="url(#clip130)" d="M1110.93 1518.52 L1110.93 1523.39 L1105.33 1523.39 Q1102.18 1523.39 1100.94 1524.66 Q1099.73 1525.93 1099.73 1529.24 L1099.73 1532.4 L1109.37 1532.4 L1109.37 1536.95 L1099.73 1536.95 L1099.73 1568.04 L1093.84 1568.04 L1093.84 1536.95 L1088.24 1536.95 L1088.24 1532.4 L1093.84 1532.4 L1093.84 1529.91 Q1093.84 1523.96 1096.61 1521.26 Q1099.38 1518.52 1105.4 1518.52 L1110.93 1518.52 Z" fill="#000000" fill-rule="nonzero" fill-opacity="1" /><path clip-path="url(#clip130)" d="M1136.56 1532.4 L1142.41 1532.4 L1142.41 1568.04 L1136.56 1568.04 L1136.56 1532.4 M1136.56 1518.52 L1142.41 1518.52 L1142.41 1525.93 L1136.56 1525.93 L1136.56 1518.52 Z" fill="#000000" fill-rule="nonzero" fill-opacity="1" /><path clip-path="url(#clip130)" d="M1160.46 1522.27 L1160.46 1532.4 L1172.52 1532.4 L1172.52 1536.95 L1160.46 1536.95 L1160.46 1556.3 Q1160.46 1560.66 1161.64 1561.9 Q1162.85 1563.14 1166.51 1563.14 L1172.52 1563.14 L1172.52 1568.04 L1166.51 1568.04 Q1159.73 1568.04 1157.15 1565.53 Q1154.57 1562.98 1154.57 1556.3 L1154.57 1536.95 L1150.27 1536.95 L1150.27 1532.4 L1154.57 1532.4 L1154.57 1522.27 L1160.46 1522.27 Z" fill="#000000" fill-rule="nonzero" fill-opacity="1" /><path clip-path="url(#clip130)" d="M1210.72 1548.76 L1210.72 1551.62 L1183.79 1551.62 Q1184.17 1557.67 1187.42 1560.85 Q1190.7 1564 1196.52 1564 Q1199.9 1564 1203.05 1563.17 Q1206.23 1562.35 1209.35 1560.69 L1209.35 1566.23 Q1206.2 1567.57 1202.89 1568.27 Q1199.58 1568.97 1196.17 1568.97 Q1187.64 1568.97 1182.64 1564 Q1177.68 1559.04 1177.68 1550.57 Q1177.68 1541.82 1182.39 1536.69 Q1187.13 1531.54 1195.15 1531.54 Q1202.35 1531.54 1206.52 1536.18 Q1210.72 1540.8 1210.72 1548.76 M1204.86 1547.04 Q1204.8 1542.23 1202.15 1539.37 Q1199.55 1536.5 1195.22 1536.5 Q1190.31 1536.5 1187.35 1539.27 Q1184.43 1542.04 1183.98 1547.07 L1204.86 1547.04 Z" fill="#000000" fill-rule="nonzero" fill-opacity="1" /><path clip-path="url(#clip130)" d="M1240.99 1537.87 Q1240 1537.3 1238.82 1537.04 Q1237.68 1536.76 1236.28 1536.76 Q1231.31 1536.76 1228.64 1540 Q1225.99 1543.22 1225.99 1549.27 L1225.99 1568.04 L1220.11 1568.04 L1220.11 1532.4 L1225.99 1532.4 L1225.99 1537.93 Q1227.84 1534.69 1230.8 1533.13 Q1233.76 1531.54 1237.99 1531.54 Q1238.6 1531.54 1239.33 1531.63 Q1240.06 1531.7 1240.95 1531.85 L1240.99 1537.87 Z" fill="#000000" fill-rule="nonzero" fill-opacity="1" /><path clip-path="url(#clip130)" d="M1263.33 1550.12 Q1256.23 1550.12 1253.49 1551.75 Q1250.76 1553.37 1250.76 1557.29 Q1250.76 1560.4 1252.79 1562.25 Q1254.86 1564.07 1258.4 1564.07 Q1263.27 1564.07 1266.19 1560.63 Q1269.15 1557.16 1269.15 1551.43 L1269.15 1550.12 L1263.33 1550.12 M1275.01 1547.71 L1275.01 1568.04 L1269.15 1568.04 L1269.15 1562.63 Q1267.15 1565.88 1264.16 1567.44 Q1261.17 1568.97 1256.84 1568.97 Q1251.36 1568.97 1248.12 1565.91 Q1244.9 1562.82 1244.9 1557.67 Q1244.9 1551.65 1248.91 1548.6 Q1252.95 1545.54 1260.94 1545.54 L1269.15 1545.54 L1269.15 1544.97 Q1269.15 1540.93 1266.48 1538.73 Q1263.84 1536.5 1259.03 1536.5 Q1255.98 1536.5 1253.08 1537.23 Q1250.18 1537.97 1247.51 1539.43 L1247.51 1534.02 Q1250.73 1532.78 1253.75 1532.17 Q1256.77 1531.54 1259.64 1531.54 Q1267.37 1531.54 1271.19 1535.55 Q1275.01 1539.56 1275.01 1547.71 Z" fill="#000000" fill-rule="nonzero" fill-opacity="1" /><path clip-path="url(#clip130)" d="M1292.87 1522.27 L1292.87 1532.4 L1304.93 1532.4 L1304.93 1536.95 L1292.87 1536.95 L1292.87 1556.3 Q1292.87 1560.66 1294.04 1561.9 Q1295.25 1563.14 1298.91 1563.14 L1304.93 1563.14 L1304.93 1568.04 L1298.91 1568.04 Q1292.13 1568.04 1289.56 1565.53 Q1286.98 1562.98 1286.98 1556.3 L1286.98 1536.95 L1282.68 1536.95 L1282.68 1532.4 L1286.98 1532.4 L1286.98 1522.27 L1292.87 1522.27 Z" fill="#000000" fill-rule="nonzero" fill-opacity="1" /><path clip-path="url(#clip130)" d="M1312.63 1532.4 L1318.49 1532.4 L1318.49 1568.04 L1312.63 1568.04 L1312.63 1532.4 M1312.63 1518.52 L1318.49 1518.52 L1318.49 1525.93 L1312.63 1525.93 L1312.63 1518.52 Z" fill="#000000" fill-rule="nonzero" fill-opacity="1" /><path clip-path="url(#clip130)" d="M1344.56 1536.5 Q1339.85 1536.5 1337.11 1540.19 Q1334.37 1543.85 1334.37 1550.25 Q1334.37 1556.65 1337.08 1560.34 Q1339.81 1564 1344.56 1564 Q1349.23 1564 1351.97 1560.31 Q1354.71 1556.62 1354.71 1550.25 Q1354.71 1543.92 1351.97 1540.23 Q1349.23 1536.5 1344.56 1536.5 M1344.56 1531.54 Q1352.19 1531.54 1356.56 1536.5 Q1360.92 1541.47 1360.92 1550.25 Q1360.92 1559 1356.56 1564 Q1352.19 1568.97 1344.56 1568.97 Q1336.89 1568.97 1332.52 1564 Q1328.2 1559 1328.2 1550.25 Q1328.2 1541.47 1332.52 1536.5 Q1336.89 1531.54 1344.56 1531.54 Z" fill="#000000" fill-rule="nonzero" fill-opacity="1" /><path clip-path="url(#clip130)" d="M1400.26 1546.53 L1400.26 1568.04 L1394.4 1568.04 L1394.4 1546.72 Q1394.4 1541.66 1392.43 1539.14 Q1390.45 1536.63 1386.51 1536.63 Q1381.76 1536.63 1379.03 1539.65 Q1376.29 1542.68 1376.29 1547.9 L1376.29 1568.04 L1370.4 1568.04 L1370.4 1532.4 L1376.29 1532.4 L1376.29 1537.93 Q1378.39 1534.72 1381.22 1533.13 Q1384.09 1531.54 1387.81 1531.54 Q1393.95 1531.54 1397.1 1535.36 Q1400.26 1539.14 1400.26 1546.53 Z" fill="#000000" fill-rule="nonzero" fill-opacity="1" /><path clip-path="url(#clip130)" d="M1434.66 1533.45 L1434.66 1538.98 Q1432.18 1537.71 1429.51 1537.07 Q1426.83 1536.44 1423.97 1536.44 Q1419.61 1536.44 1417.41 1537.77 Q1415.25 1539.11 1415.25 1541.79 Q1415.25 1543.82 1416.81 1545 Q1418.37 1546.15 1423.08 1547.2 L1425.08 1547.64 Q1431.32 1548.98 1433.93 1551.43 Q1436.57 1553.85 1436.57 1558.21 Q1436.57 1563.17 1432.63 1566.07 Q1428.71 1568.97 1421.84 1568.97 Q1418.97 1568.97 1415.85 1568.39 Q1412.76 1567.85 1409.33 1566.74 L1409.33 1560.69 Q1412.57 1562.38 1415.72 1563.24 Q1418.88 1564.07 1421.96 1564.07 Q1426.1 1564.07 1428.33 1562.66 Q1430.56 1561.23 1430.56 1558.65 Q1430.56 1556.27 1428.93 1554.99 Q1427.34 1553.72 1421.9 1552.54 L1419.86 1552.07 Q1414.42 1550.92 1412 1548.56 Q1409.58 1546.18 1409.58 1542.04 Q1409.58 1537.01 1413.15 1534.27 Q1416.71 1531.54 1423.27 1531.54 Q1426.51 1531.54 1429.38 1532.01 Q1432.24 1532.49 1434.66 1533.45 Z" fill="#000000" fill-rule="nonzero" fill-opacity="1" /><path clip-path="url(#clip130)" d="M1456.31 1520.52 L1461.72 1520.52 L1445.17 1574.09 L1439.75 1574.09 L1456.31 1520.52 Z" fill="#000000" fill-rule="nonzero" fill-opacity="1" /><path clip-path="url(#clip130)" d="M1469.8 1562.63 L1480.3 1562.63 L1480.3 1526.38 L1468.88 1528.67 L1468.88 1522.82 L1480.24 1520.52 L1486.67 1520.52 L1486.67 1562.63 L1497.17 1562.63 L1497.17 1568.04 L1469.8 1568.04 L1469.8 1562.63 Z" fill="#000000" fill-rule="nonzero" fill-opacity="1" /><path clip-path="url(#clip130)" d="M1523.91 1524.76 Q1518.94 1524.76 1516.43 1529.66 Q1513.95 1534.53 1513.95 1544.33 Q1513.95 1554.1 1516.43 1559 Q1518.94 1563.87 1523.91 1563.87 Q1528.91 1563.87 1531.39 1559 Q1533.9 1554.1 1533.9 1544.33 Q1533.9 1534.53 1531.39 1529.66 Q1528.91 1524.76 1523.91 1524.76 M1523.91 1519.66 Q1531.9 1519.66 1536.1 1526 Q1540.33 1532.3 1540.33 1544.33 Q1540.33 1556.33 1536.1 1562.66 Q1531.9 1568.97 1523.91 1568.97 Q1515.92 1568.97 1511.69 1562.66 Q1507.49 1556.33 1507.49 1544.33 Q1507.49 1532.3 1511.69 1526 Q1515.92 1519.66 1523.91 1519.66 Z" fill="#000000" fill-rule="nonzero" fill-opacity="1" /><path clip-path="url(#clip130)" d="M1565.38 1524.76 Q1560.42 1524.76 1557.9 1529.66 Q1555.42 1534.53 1555.42 1544.33 Q1555.42 1554.1 1557.9 1559 Q1560.42 1563.87 1565.38 1563.87 Q1570.38 1563.87 1572.86 1559 Q1575.38 1554.1 1575.38 1544.33 Q1575.38 1534.53 1572.86 1529.66 Q1570.38 1524.76 1565.38 1524.76 M1565.38 1519.66 Q1573.37 1519.66 1577.57 1526 Q1581.81 1532.3 1581.81 1544.33 Q1581.81 1556.33 1577.57 1562.66 Q1573.37 1568.97 1565.38 1568.97 Q1557.39 1568.97 1553.16 1562.66 Q1548.96 1556.33 1548.96 1544.33 Q1548.96 1532.3 1553.16 1526 Q1557.39 1519.66 1565.38 1519.66 Z" fill="#000000" fill-rule="nonzero" fill-opacity="1" /><path clip-path="url(#clip130)" d="M1606.85 1524.76 Q1601.89 1524.76 1599.38 1529.66 Q1596.89 1534.53 1596.89 1544.33 Q1596.89 1554.1 1599.38 1559 Q1601.89 1563.87 1606.85 1563.87 Q1611.85 1563.87 1614.33 1559 Q1616.85 1554.1 1616.85 1544.33 Q1616.85 1534.53 1614.33 1529.66 Q1611.85 1524.76 1606.85 1524.76 M1606.85 1519.66 Q1614.84 1519.66 1619.05 1526 Q1623.28 1532.3 1623.28 1544.33 Q1623.28 1556.33 1619.05 1562.66 Q1614.84 1568.97 1606.85 1568.97 Q1598.87 1568.97 1594.63 1562.66 Q1590.43 1556.33 1590.43 1544.33 Q1590.43 1532.3 1594.63 1526 Q1598.87 1519.66 1606.85 1519.66 Z" fill="#000000" fill-rule="nonzero" fill-opacity="1" /><path clip-path="url(#clip130)" d="M1648.33 1524.76 Q1643.36 1524.76 1640.85 1529.66 Q1638.37 1534.53 1638.37 1544.33 Q1638.37 1554.1 1640.85 1559 Q1643.36 1563.87 1648.33 1563.87 Q1653.32 1563.87 1655.81 1559 Q1658.32 1554.1 1658.32 1544.33 Q1658.32 1534.53 1655.81 1529.66 Q1653.32 1524.76 1648.33 1524.76 M1648.33 1519.66 Q1656.32 1519.66 1660.52 1526 Q1664.75 1532.3 1664.75 1544.33 Q1664.75 1556.33 1660.52 1562.66 Q1656.32 1568.97 1648.33 1568.97 Q1640.34 1568.97 1636.11 1562.66 Q1631.9 1556.33 1631.9 1544.33 Q1631.9 1532.3 1636.11 1526 Q1640.34 1519.66 1648.33 1519.66 Z" fill="#000000" fill-rule="nonzero" fill-opacity="1" /><path clip-path="url(#clip130)" d="M1689.8 1524.76 Q1684.83 1524.76 1682.32 1529.66 Q1679.84 1534.53 1679.84 1544.33 Q1679.84 1554.1 1682.32 1559 Q1684.83 1563.87 1689.8 1563.87 Q1694.8 1563.87 1697.28 1559 Q1699.79 1554.1 1699.79 1544.33 Q1699.79 1534.53 1697.28 1529.66 Q1694.8 1524.76 1689.8 1524.76 M1689.8 1519.66 Q1697.79 1519.66 1701.99 1526 Q1706.22 1532.3 1706.22 1544.33 Q1706.22 1556.33 1701.99 1562.66 Q1697.79 1568.97 1689.8 1568.97 Q1681.81 1568.97 1677.58 1562.66 Q1673.38 1556.33 1673.38 1544.33 Q1673.38 1532.3 1677.58 1526 Q1681.81 1519.66 1689.8 1519.66 Z" fill="#000000" fill-rule="nonzero" fill-opacity="1" /><polyline clip-path="url(#clip130)" style="stroke:#000000; stroke-linecap:round; stroke-linejoin:round; stroke-width:4; stroke-opacity:1; fill:none" points="337.247,1423.18 337.247,123.472 "/>
<polyline clip-path="url(#clip130)" style="stroke:#000000; stroke-linecap:round; stroke-linejoin:round; stroke-width:4; stroke-opacity:1; fill:none" points="337.247,1386.4 356.145,1386.4 "/>
<polyline clip-path="url(#clip130)" style="stroke:#000000; stroke-linecap:round; stroke-linejoin:round; stroke-width:4; stroke-opacity:1; fill:none" points="337.247,1045.84 356.145,1045.84 "/>
<polyline clip-path="url(#clip130)" style="stroke:#000000; stroke-linecap:round; stroke-linejoin:round; stroke-width:4; stroke-opacity:1; fill:none" points="337.247,705.275 356.145,705.275 "/>
<polyline clip-path="url(#clip130)" style="stroke:#000000; stroke-linecap:round; stroke-linejoin:round; stroke-width:4; stroke-opacity:1; fill:none" points="337.247,364.715 356.145,364.715 "/>
<path clip-path="url(#clip130)" d="M289.303 1372.19 Q285.692 1372.19 283.863 1375.76 Q282.057 1379.3 282.057 1386.43 Q282.057 1393.54 283.863 1397.1 Q285.692 1400.64 289.303 1400.64 Q292.937 1400.64 294.742 1397.1 Q296.571 1393.54 296.571 1386.43 Q296.571 1379.3 294.742 1375.76 Q292.937 1372.19 289.303 1372.19 M289.303 1368.49 Q295.113 1368.49 298.168 1373.1 Q301.247 1377.68 301.247 1386.43 Q301.247 1395.16 298.168 1399.76 Q295.113 1404.35 289.303 1404.35 Q283.492 1404.35 280.414 1399.76 Q277.358 1395.16 277.358 1386.43 Q277.358 1377.68 280.414 1373.1 Q283.492 1368.49 289.303 1368.49 Z" fill="#000000" fill-rule="nonzero" fill-opacity="1" /><path clip-path="url(#clip130)" d="M116.668 1065.63 L124.306 1065.63 L124.306 1039.26 L115.996 1040.93 L115.996 1036.67 L124.26 1035 L128.936 1035 L128.936 1065.63 L136.575 1065.63 L136.575 1069.56 L116.668 1069.56 L116.668 1065.63 Z" fill="#000000" fill-rule="nonzero" fill-opacity="1" /><path clip-path="url(#clip130)" d="M146.019 1063.68 L150.903 1063.68 L150.903 1069.56 L146.019 1069.56 L146.019 1063.68 Z" fill="#000000" fill-rule="nonzero" fill-opacity="1" /><path clip-path="url(#clip130)" d="M171.089 1038.08 Q167.477 1038.08 165.649 1041.65 Q163.843 1045.19 163.843 1052.32 Q163.843 1059.42 165.649 1062.99 Q167.477 1066.53 171.089 1066.53 Q174.723 1066.53 176.528 1062.99 Q178.357 1059.42 178.357 1052.32 Q178.357 1045.19 176.528 1041.65 Q174.723 1038.08 171.089 1038.08 M171.089 1034.38 Q176.899 1034.38 179.954 1038.98 Q183.033 1043.57 183.033 1052.32 Q183.033 1061.04 179.954 1065.65 Q176.899 1070.23 171.089 1070.23 Q165.278 1070.23 162.2 1065.65 Q159.144 1061.04 159.144 1052.32 Q159.144 1043.57 162.2 1038.98 Q165.278 1034.38 171.089 1034.38 Z" fill="#000000" fill-rule="nonzero" fill-opacity="1" /><path clip-path="url(#clip130)" d="M219.422 1044.1 L208.843 1054.73 L219.422 1065.3 L216.667 1068.1 L206.042 1057.48 L195.417 1068.1 L192.686 1065.3 L203.241 1054.73 L192.686 1044.1 L195.417 1041.3 L206.042 1051.92 L216.667 1041.3 L219.422 1044.1 Z" fill="#000000" fill-rule="nonzero" fill-opacity="1" /><path clip-path="url(#clip130)" d="M231.783 1065.63 L239.422 1065.63 L239.422 1039.26 L231.111 1040.93 L231.111 1036.67 L239.375 1035 L244.051 1035 L244.051 1065.63 L251.69 1065.63 L251.69 1069.56 L231.783 1069.56 L231.783 1065.63 Z" fill="#000000" fill-rule="nonzero" fill-opacity="1" /><path clip-path="url(#clip130)" d="M271.134 1038.08 Q267.523 1038.08 265.695 1041.65 Q263.889 1045.19 263.889 1052.32 Q263.889 1059.42 265.695 1062.99 Q267.523 1066.53 271.134 1066.53 Q274.769 1066.53 276.574 1062.99 Q278.403 1059.42 278.403 1052.32 Q278.403 1045.19 276.574 1041.65 Q274.769 1038.08 271.134 1038.08 M271.134 1034.38 Q276.944 1034.38 280 1038.98 Q283.079 1043.57 283.079 1052.32 Q283.079 1061.04 280 1065.65 Q276.944 1070.23 271.134 1070.23 Q265.324 1070.23 262.245 1065.65 Q259.19 1061.04 259.19 1052.32 Q259.19 1043.57 262.245 1038.98 Q265.324 1034.38 271.134 1034.38 Z" fill="#000000" fill-rule="nonzero" fill-opacity="1" /><path clip-path="url(#clip130)" d="M284.264 1014.07 L299.178 1014.07 L299.178 1017.27 L287.743 1017.27 L287.743 1024.15 Q288.571 1023.87 289.398 1023.74 Q290.226 1023.59 291.053 1023.59 Q295.755 1023.59 298.501 1026.17 Q301.247 1028.74 301.247 1033.14 Q301.247 1037.68 298.426 1040.2 Q295.605 1042.7 290.47 1042.7 Q288.702 1042.7 286.859 1042.4 Q285.035 1042.1 283.079 1041.49 L283.079 1037.68 Q284.771 1038.6 286.577 1039.05 Q288.382 1039.5 290.395 1039.5 Q293.649 1039.5 295.548 1037.79 Q297.448 1036.08 297.448 1033.14 Q297.448 1030.21 295.548 1028.5 Q293.649 1026.79 290.395 1026.79 Q288.871 1026.79 287.348 1027.13 Q285.843 1027.46 284.264 1028.18 L284.264 1014.07 Z" fill="#000000" fill-rule="nonzero" fill-opacity="1" /><path clip-path="url(#clip130)" d="M119.885 725.068 L136.204 725.068 L136.204 729.003 L114.26 729.003 L114.26 725.068 Q116.922 722.313 121.505 717.683 Q126.112 713.031 127.292 711.688 Q129.538 709.165 130.417 707.429 Q131.32 705.67 131.32 703.98 Q131.32 701.225 129.376 699.489 Q127.455 697.753 124.353 697.753 Q122.154 697.753 119.7 698.517 Q117.269 699.281 114.492 700.832 L114.492 696.11 Q117.316 694.975 119.769 694.397 Q122.223 693.818 124.26 693.818 Q129.63 693.818 132.825 696.503 Q136.019 699.188 136.019 703.679 Q136.019 705.809 135.209 707.73 Q134.422 709.628 132.316 712.221 Q131.737 712.892 128.635 716.109 Q125.533 719.304 119.885 725.068 Z" fill="#000000" fill-rule="nonzero" fill-opacity="1" /><path clip-path="url(#clip130)" d="M146.019 723.123 L150.903 723.123 L150.903 729.003 L146.019 729.003 L146.019 723.123 Z" fill="#000000" fill-rule="nonzero" fill-opacity="1" /><path clip-path="url(#clip130)" d="M171.089 697.522 Q167.477 697.522 165.649 701.086 Q163.843 704.628 163.843 711.758 Q163.843 718.864 165.649 722.429 Q167.477 725.97 171.089 725.97 Q174.723 725.97 176.528 722.429 Q178.357 718.864 178.357 711.758 Q178.357 704.628 176.528 701.086 Q174.723 697.522 171.089 697.522 M171.089 693.818 Q176.899 693.818 179.954 698.424 Q183.033 703.008 183.033 711.758 Q183.033 720.484 179.954 725.091 Q176.899 729.674 171.089 729.674 Q165.278 729.674 162.2 725.091 Q159.144 720.484 159.144 711.758 Q159.144 703.008 162.2 698.424 Q165.278 693.818 171.089 693.818 Z" fill="#000000" fill-rule="nonzero" fill-opacity="1" /><path clip-path="url(#clip130)" d="M219.422 703.54 L208.843 714.165 L219.422 724.744 L216.667 727.545 L206.042 716.92 L195.417 727.545 L192.686 724.744 L203.241 714.165 L192.686 703.54 L195.417 700.739 L206.042 711.364 L216.667 700.739 L219.422 703.54 Z" fill="#000000" fill-rule="nonzero" fill-opacity="1" /><path clip-path="url(#clip130)" d="M231.783 725.068 L239.422 725.068 L239.422 698.702 L231.111 700.369 L231.111 696.11 L239.375 694.443 L244.051 694.443 L244.051 725.068 L251.69 725.068 L251.69 729.003 L231.783 729.003 L231.783 725.068 Z" fill="#000000" fill-rule="nonzero" fill-opacity="1" /><path clip-path="url(#clip130)" d="M271.134 697.522 Q267.523 697.522 265.695 701.086 Q263.889 704.628 263.889 711.758 Q263.889 718.864 265.695 722.429 Q267.523 725.97 271.134 725.97 Q274.769 725.97 276.574 722.429 Q278.403 718.864 278.403 711.758 Q278.403 704.628 276.574 701.086 Q274.769 697.522 271.134 697.522 M271.134 693.818 Q276.944 693.818 280 698.424 Q283.079 703.008 283.079 711.758 Q283.079 720.484 280 725.091 Q276.944 729.674 271.134 729.674 Q265.324 729.674 262.245 725.091 Q259.19 720.484 259.19 711.758 Q259.19 703.008 262.245 698.424 Q265.324 693.818 271.134 693.818 Z" fill="#000000" fill-rule="nonzero" fill-opacity="1" /><path clip-path="url(#clip130)" d="M284.264 673.512 L299.178 673.512 L299.178 676.71 L287.743 676.71 L287.743 683.593 Q288.571 683.311 289.398 683.18 Q290.226 683.029 291.053 683.029 Q295.755 683.029 298.501 685.606 Q301.247 688.183 301.247 692.584 Q301.247 697.116 298.426 699.636 Q295.605 702.138 290.47 702.138 Q288.702 702.138 286.859 701.837 Q285.035 701.536 283.079 700.934 L283.079 697.116 Q284.771 698.038 286.577 698.489 Q288.382 698.941 290.395 698.941 Q293.649 698.941 295.548 697.229 Q297.448 695.518 297.448 692.584 Q297.448 689.65 295.548 687.938 Q293.649 686.227 290.395 686.227 Q288.871 686.227 287.348 686.565 Q285.843 686.904 284.264 687.618 L284.264 673.512 Z" fill="#000000" fill-rule="nonzero" fill-opacity="1" /><path clip-path="url(#clip130)" d="M130.024 369.808 Q133.38 370.526 135.255 372.795 Q137.154 375.063 137.154 378.396 Q137.154 383.512 133.635 386.313 Q130.117 389.114 123.635 389.114 Q121.459 389.114 119.144 388.674 Q116.853 388.257 114.399 387.401 L114.399 382.887 Q116.343 384.021 118.658 384.6 Q120.973 385.179 123.496 385.179 Q127.894 385.179 130.186 383.443 Q132.501 381.707 132.501 378.396 Q132.501 375.341 130.348 373.628 Q128.218 371.892 124.399 371.892 L120.371 371.892 L120.371 368.049 L124.584 368.049 Q128.033 368.049 129.862 366.684 Q131.691 365.295 131.691 362.702 Q131.691 360.04 129.792 358.628 Q127.917 357.193 124.399 357.193 Q122.478 357.193 120.279 357.609 Q118.08 358.026 115.441 358.906 L115.441 354.739 Q118.103 353.998 120.418 353.628 Q122.755 353.258 124.816 353.258 Q130.14 353.258 133.242 355.688 Q136.343 358.096 136.343 362.216 Q136.343 365.086 134.7 367.077 Q133.056 369.045 130.024 369.808 Z" fill="#000000" fill-rule="nonzero" fill-opacity="1" /><path clip-path="url(#clip130)" d="M146.019 382.563 L150.903 382.563 L150.903 388.443 L146.019 388.443 L146.019 382.563 Z" fill="#000000" fill-rule="nonzero" fill-opacity="1" /><path clip-path="url(#clip130)" d="M171.089 356.961 Q167.477 356.961 165.649 360.526 Q163.843 364.068 163.843 371.197 Q163.843 378.304 165.649 381.869 Q167.477 385.41 171.089 385.41 Q174.723 385.41 176.528 381.869 Q178.357 378.304 178.357 371.197 Q178.357 364.068 176.528 360.526 Q174.723 356.961 171.089 356.961 M171.089 353.258 Q176.899 353.258 179.954 357.864 Q183.033 362.447 183.033 371.197 Q183.033 379.924 179.954 384.531 Q176.899 389.114 171.089 389.114 Q165.278 389.114 162.2 384.531 Q159.144 379.924 159.144 371.197 Q159.144 362.447 162.2 357.864 Q165.278 353.258 171.089 353.258 Z" fill="#000000" fill-rule="nonzero" fill-opacity="1" /><path clip-path="url(#clip130)" d="M219.422 362.98 L208.843 373.605 L219.422 384.183 L216.667 386.984 L206.042 376.359 L195.417 386.984 L192.686 384.183 L203.241 373.605 L192.686 362.98 L195.417 360.179 L206.042 370.804 L216.667 360.179 L219.422 362.98 Z" fill="#000000" fill-rule="nonzero" fill-opacity="1" /><path clip-path="url(#clip130)" d="M231.783 384.507 L239.422 384.507 L239.422 358.142 L231.111 359.809 L231.111 355.549 L239.375 353.883 L244.051 353.883 L244.051 384.507 L251.69 384.507 L251.69 388.443 L231.783 388.443 L231.783 384.507 Z" fill="#000000" fill-rule="nonzero" fill-opacity="1" /><path clip-path="url(#clip130)" d="M271.134 356.961 Q267.523 356.961 265.695 360.526 Q263.889 364.068 263.889 371.197 Q263.889 378.304 265.695 381.869 Q267.523 385.41 271.134 385.41 Q274.769 385.41 276.574 381.869 Q278.403 378.304 278.403 371.197 Q278.403 364.068 276.574 360.526 Q274.769 356.961 271.134 356.961 M271.134 353.258 Q276.944 353.258 280 357.864 Q283.079 362.447 283.079 371.197 Q283.079 379.924 280 384.531 Q276.944 389.114 271.134 389.114 Q265.324 389.114 262.245 384.531 Q259.19 379.924 259.19 371.197 Q259.19 362.447 262.245 357.864 Q265.324 353.258 271.134 353.258 Z" fill="#000000" fill-rule="nonzero" fill-opacity="1" /><path clip-path="url(#clip130)" d="M284.264 332.952 L299.178 332.952 L299.178 336.15 L287.743 336.15 L287.743 343.033 Q288.571 342.751 289.398 342.619 Q290.226 342.469 291.053 342.469 Q295.755 342.469 298.501 345.046 Q301.247 347.622 301.247 352.023 Q301.247 356.556 298.426 359.076 Q295.605 361.578 290.47 361.578 Q288.702 361.578 286.859 361.277 Q285.035 360.976 283.079 360.374 L283.079 356.556 Q284.771 357.478 286.577 357.929 Q288.382 358.38 290.395 358.38 Q293.649 358.38 295.548 356.669 Q297.448 354.957 297.448 352.023 Q297.448 349.089 295.548 347.378 Q293.649 345.666 290.395 345.666 Q288.871 345.666 287.348 346.005 Q285.843 346.343 284.264 347.058 L284.264 332.952 Z" fill="#000000" fill-rule="nonzero" fill-opacity="1" /><path clip-path="url(#clip130)" d="M20.1444 844.431 L26.9239 844.431 Q23.9002 847.677 22.4043 851.37 Q20.9083 855.03 20.9083 859.168 Q20.9083 867.316 25.9054 871.644 Q30.8707 875.973 40.2919 875.973 Q49.6813 875.973 54.6784 871.644 Q59.6436 867.316 59.6436 859.168 Q59.6436 855.03 58.1477 851.37 Q56.6518 847.677 53.6281 844.431 L60.3439 844.431 Q62.6355 847.805 63.7814 851.592 Q64.9272 855.348 64.9272 859.549 Q64.9272 870.339 58.3387 876.546 Q51.7183 882.752 40.2919 882.752 Q28.8336 882.752 22.2451 876.546 Q15.6248 870.339 15.6248 859.549 Q15.6248 855.284 16.7706 851.529 Q17.8846 847.741 20.1444 844.431 Z" fill="#000000" fill-rule="nonzero" fill-opacity="1" /><path clip-path="url(#clip130)" d="M64.0042 822.246 L16.4842 840.389 L16.4842 833.673 L56.4926 818.618 L16.4842 803.531 L16.4842 796.847 L64.0042 814.958 L64.0042 822.246 Z" fill="#000000" fill-rule="nonzero" fill-opacity="1" /><path clip-path="url(#clip130)" d="M16.4842 779.755 L16.4842 774.344 L70.0516 790.895 L70.0516 796.306 L16.4842 779.755 Z" fill="#000000" fill-rule="nonzero" fill-opacity="1" /><path clip-path="url(#clip130)" d="M14.479 768.424 L14.479 762.536 L43.7294 762.536 L28.3562 745.062 L28.3562 737.583 L45.0344 756.489 L64.0042 736.787 L64.0042 744.426 L46.5939 762.536 L64.0042 762.536 L64.0042 768.424 L14.479 768.424 Z" fill="#000000" fill-rule="nonzero" fill-opacity="1" /><path clip-path="url(#clip130)" d="M74.8259 703.367 L79.3773 703.367 L79.3773 737.232 L74.8259 737.232 L74.8259 703.367 Z" fill="#000000" fill-rule="nonzero" fill-opacity="1" /><path clip-path="url(#clip130)" d="M41.3104 691.177 L58.7206 691.177 L58.7206 680.864 Q58.7206 675.676 56.5881 673.193 Q54.4238 670.679 49.9996 670.679 Q45.5436 670.679 43.4429 673.193 Q41.3104 675.676 41.3104 680.864 L41.3104 691.177 M21.7677 691.177 L36.0905 691.177 L36.0905 681.66 Q36.0905 676.949 34.34 674.658 Q32.5576 672.334 28.9291 672.334 Q25.3325 672.334 23.5501 674.658 Q21.7677 676.949 21.7677 681.66 L21.7677 691.177 M16.4842 697.606 L16.4842 681.182 Q16.4842 673.83 19.5397 669.851 Q22.5952 665.873 28.2289 665.873 Q32.5894 665.873 35.1675 667.91 Q37.7456 669.947 38.3822 673.894 Q39.4007 669.151 42.6472 666.541 Q45.8619 663.899 50.6998 663.899 Q57.0655 663.899 60.5348 668.228 Q64.0042 672.557 64.0042 680.546 L64.0042 697.606 L16.4842 697.606 Z" fill="#000000" fill-rule="nonzero" fill-opacity="1" /><path clip-path="url(#clip130)" d="M658.555 12.096 L666.738 12.096 L666.738 36.8875 L696.472 36.8875 L696.472 12.096 L704.655 12.096 L704.655 72.576 L696.472 72.576 L696.472 43.7741 L666.738 43.7741 L666.738 72.576 L658.555 72.576 L658.555 12.096 Z" fill="#000000" fill-rule="nonzero" fill-opacity="1" /><path clip-path="url(#clip130)" d="M759.423 48.0275 L759.423 51.6733 L725.152 51.6733 Q725.638 59.3701 729.77 63.421 Q733.943 67.4314 741.356 67.4314 Q745.65 67.4314 749.66 66.3781 Q753.711 65.3249 757.681 63.2184 L757.681 70.267 Q753.671 71.9684 749.458 72.8596 Q745.245 73.7508 740.91 73.7508 Q730.054 73.7508 723.694 67.4314 Q717.375 61.1119 717.375 50.3365 Q717.375 39.1965 723.37 32.6746 Q729.406 26.1121 739.614 26.1121 Q748.769 26.1121 754.076 32.0264 Q759.423 37.9003 759.423 48.0275 M751.969 45.84 Q751.888 39.7232 748.526 36.0774 Q745.204 32.4315 739.695 32.4315 Q733.457 32.4315 729.689 35.9558 Q725.963 39.4801 725.395 45.8805 L751.969 45.84 Z" fill="#000000" fill-rule="nonzero" fill-opacity="1" /><path clip-path="url(#clip130)" d="M792.276 49.7694 Q783.242 49.7694 779.759 51.8354 Q776.275 53.9013 776.275 58.8839 Q776.275 62.8538 778.867 65.2034 Q781.5 67.5124 785.997 67.5124 Q792.195 67.5124 795.922 63.1374 Q799.689 58.7219 799.689 51.4303 L799.689 49.7694 L792.276 49.7694 M807.143 46.6907 L807.143 72.576 L799.689 72.576 L799.689 65.6895 Q797.137 69.8214 793.329 71.8063 Q789.521 73.7508 784.012 73.7508 Q777.044 73.7508 772.913 69.8619 Q768.821 65.9325 768.821 59.3701 Q768.821 51.7138 773.925 47.825 Q779.07 43.9361 789.238 43.9361 L799.689 43.9361 L799.689 43.2069 Q799.689 38.0623 796.286 35.2672 Q792.924 32.4315 786.807 32.4315 Q782.918 32.4315 779.232 33.3632 Q775.546 34.295 772.143 36.1584 L772.143 29.2718 Q776.234 27.692 780.083 26.9223 Q783.931 26.1121 787.577 26.1121 Q797.42 26.1121 802.282 31.2163 Q807.143 36.3204 807.143 46.6907 Z" fill="#000000" fill-rule="nonzero" fill-opacity="1" /><path clip-path="url(#clip130)" d="M829.868 14.324 L829.868 27.2059 L845.221 27.2059 L845.221 32.9987 L829.868 32.9987 L829.868 57.6282 Q829.868 63.1779 831.367 64.7578 Q832.906 66.3376 837.565 66.3376 L845.221 66.3376 L845.221 72.576 L837.565 72.576 Q828.937 72.576 825.655 69.3758 Q822.374 66.1351 822.374 57.6282 L822.374 32.9987 L816.905 32.9987 L816.905 27.2059 L822.374 27.2059 L822.374 14.324 L829.868 14.324 Z" fill="#000000" fill-rule="nonzero" fill-opacity="1" /><path clip-path="url(#clip130)" d="M914.046 28.9478 L914.046 35.9153 Q910.886 34.1734 907.686 33.3227 Q904.526 32.4315 901.286 32.4315 Q894.035 32.4315 890.024 37.0496 Q886.014 41.6271 886.014 49.9314 Q886.014 58.2358 890.024 62.8538 Q894.035 67.4314 901.286 67.4314 Q904.526 67.4314 907.686 66.5807 Q910.886 65.6895 914.046 63.9476 L914.046 70.8341 Q910.927 72.2924 907.565 73.0216 Q904.243 73.7508 900.475 73.7508 Q890.227 73.7508 884.191 67.3098 Q878.155 60.8689 878.155 49.9314 Q878.155 38.832 884.231 32.472 Q890.348 26.1121 900.962 26.1121 Q904.405 26.1121 907.686 26.8413 Q910.967 27.5299 914.046 28.9478 Z" fill="#000000" fill-rule="nonzero" fill-opacity="1" /><path clip-path="url(#clip130)" d="M947.628 49.7694 Q938.594 49.7694 935.111 51.8354 Q931.627 53.9013 931.627 58.8839 Q931.627 62.8538 934.22 65.2034 Q936.853 67.5124 941.349 67.5124 Q947.547 67.5124 951.274 63.1374 Q955.041 58.7219 955.041 51.4303 L955.041 49.7694 L947.628 49.7694 M962.495 46.6907 L962.495 72.576 L955.041 72.576 L955.041 65.6895 Q952.489 69.8214 948.681 71.8063 Q944.873 73.7508 939.364 73.7508 Q932.397 73.7508 928.265 69.8619 Q924.173 65.9325 924.173 59.3701 Q924.173 51.7138 929.277 47.825 Q934.422 43.9361 944.59 43.9361 L955.041 43.9361 L955.041 43.2069 Q955.041 38.0623 951.638 35.2672 Q948.276 32.4315 942.159 32.4315 Q938.27 32.4315 934.584 33.3632 Q930.898 34.295 927.495 36.1584 L927.495 29.2718 Q931.586 27.692 935.435 26.9223 Q939.283 26.1121 942.929 26.1121 Q952.773 26.1121 957.634 31.2163 Q962.495 36.3204 962.495 46.6907 Z" fill="#000000" fill-rule="nonzero" fill-opacity="1" /><path clip-path="url(#clip130)" d="M985.058 65.7705 L985.058 89.8329 L977.564 89.8329 L977.564 27.2059 L985.058 27.2059 L985.058 34.0924 Q987.408 30.0415 990.973 28.0971 Q994.578 26.1121 999.561 26.1121 Q1007.82 26.1121 1012.97 32.6746 Q1018.15 39.2371 1018.15 49.9314 Q1018.15 60.6258 1012.97 67.1883 Q1007.82 73.7508 999.561 73.7508 Q994.578 73.7508 990.973 71.8063 Q987.408 69.8214 985.058 65.7705 M1010.42 49.9314 Q1010.42 41.7081 1007.01 37.0496 Q1003.65 32.3505 997.738 32.3505 Q991.823 32.3505 988.421 37.0496 Q985.058 41.7081 985.058 49.9314 Q985.058 58.1548 988.421 62.8538 Q991.823 67.5124 997.738 67.5124 Q1003.65 67.5124 1007.01 62.8538 Q1010.42 58.1548 1010.42 49.9314 Z" fill="#000000" fill-rule="nonzero" fill-opacity="1" /><path clip-path="url(#clip130)" d="M1051.13 49.7694 Q1042.1 49.7694 1038.61 51.8354 Q1035.13 53.9013 1035.13 58.8839 Q1035.13 62.8538 1037.72 65.2034 Q1040.35 67.5124 1044.85 67.5124 Q1051.05 67.5124 1054.77 63.1374 Q1058.54 58.7219 1058.54 51.4303 L1058.54 49.7694 L1051.13 49.7694 M1066 46.6907 L1066 72.576 L1058.54 72.576 L1058.54 65.6895 Q1055.99 69.8214 1052.18 71.8063 Q1048.37 73.7508 1042.86 73.7508 Q1035.9 73.7508 1031.77 69.8619 Q1027.67 65.9325 1027.67 59.3701 Q1027.67 51.7138 1032.78 47.825 Q1037.92 43.9361 1048.09 43.9361 L1058.54 43.9361 L1058.54 43.2069 Q1058.54 38.0623 1055.14 35.2672 Q1051.78 32.4315 1045.66 32.4315 Q1041.77 32.4315 1038.08 33.3632 Q1034.4 34.295 1031 36.1584 L1031 29.2718 Q1035.09 27.692 1038.94 26.9223 Q1042.78 26.1121 1046.43 26.1121 Q1056.27 26.1121 1061.13 31.2163 Q1066 36.3204 1066 46.6907 Z" fill="#000000" fill-rule="nonzero" fill-opacity="1" /><path clip-path="url(#clip130)" d="M1114 28.9478 L1114 35.9153 Q1110.84 34.1734 1107.64 33.3227 Q1104.48 32.4315 1101.24 32.4315 Q1093.99 32.4315 1089.98 37.0496 Q1085.97 41.6271 1085.97 49.9314 Q1085.97 58.2358 1089.98 62.8538 Q1093.99 67.4314 1101.24 67.4314 Q1104.48 67.4314 1107.64 66.5807 Q1110.84 65.6895 1114 63.9476 L1114 70.8341 Q1110.88 72.2924 1107.52 73.0216 Q1104.2 73.7508 1100.43 73.7508 Q1090.18 73.7508 1084.14 67.3098 Q1078.11 60.8689 1078.11 49.9314 Q1078.11 38.832 1084.18 32.472 Q1090.3 26.1121 1100.91 26.1121 Q1104.36 26.1121 1107.64 26.8413 Q1110.92 27.5299 1114 28.9478 Z" fill="#000000" fill-rule="nonzero" fill-opacity="1" /><path clip-path="url(#clip130)" d="M1126.96 27.2059 L1134.42 27.2059 L1134.42 72.576 L1126.96 72.576 L1126.96 27.2059 M1126.96 9.54393 L1134.42 9.54393 L1134.42 18.9825 L1126.96 18.9825 L1126.96 9.54393 Z" fill="#000000" fill-rule="nonzero" fill-opacity="1" /><path clip-path="url(#clip130)" d="M1157.38 14.324 L1157.38 27.2059 L1172.74 27.2059 L1172.74 32.9987 L1157.38 32.9987 L1157.38 57.6282 Q1157.38 63.1779 1158.88 64.7578 Q1160.42 66.3376 1165.08 66.3376 L1172.74 66.3376 L1172.74 72.576 L1165.08 72.576 Q1156.45 72.576 1153.17 69.3758 Q1149.89 66.1351 1149.89 57.6282 L1149.89 32.9987 L1144.42 32.9987 L1144.42 27.2059 L1149.89 27.2059 L1149.89 14.324 L1157.38 14.324 Z" fill="#000000" fill-rule="nonzero" fill-opacity="1" /><path clip-path="url(#clip130)" d="M1201.42 76.7889 Q1198.26 84.8907 1195.26 87.3618 Q1192.26 89.8329 1187.24 89.8329 L1181.28 89.8329 L1181.28 83.5945 L1185.66 83.5945 Q1188.74 83.5945 1190.44 82.1361 Q1192.14 80.6778 1194.21 75.2496 L1195.54 71.8468 L1177.19 27.2059 L1185.09 27.2059 L1199.27 62.6918 L1213.45 27.2059 L1221.35 27.2059 L1201.42 76.7889 Z" fill="#000000" fill-rule="nonzero" fill-opacity="1" /><path clip-path="url(#clip130)" d="M1275.59 32.4315 Q1269.59 32.4315 1266.11 37.1306 Q1262.63 41.7891 1262.63 49.9314 Q1262.63 58.0738 1266.07 62.7728 Q1269.55 67.4314 1275.59 67.4314 Q1281.54 67.4314 1285.03 62.7323 Q1288.51 58.0333 1288.51 49.9314 Q1288.51 41.8701 1285.03 37.1711 Q1281.54 32.4315 1275.59 32.4315 M1275.59 26.1121 Q1285.31 26.1121 1290.86 32.4315 Q1296.41 38.7509 1296.41 49.9314 Q1296.41 61.0714 1290.86 67.4314 Q1285.31 73.7508 1275.59 73.7508 Q1265.83 73.7508 1260.28 67.4314 Q1254.77 61.0714 1254.77 49.9314 Q1254.77 38.7509 1260.28 32.4315 Q1265.83 26.1121 1275.59 26.1121 Z" fill="#000000" fill-rule="nonzero" fill-opacity="1" /><path clip-path="url(#clip130)" d="M1303.42 27.2059 L1311.32 27.2059 L1325.5 65.2844 L1339.67 27.2059 L1347.57 27.2059 L1330.56 72.576 L1320.43 72.576 L1303.42 27.2059 Z" fill="#000000" fill-rule="nonzero" fill-opacity="1" /><path clip-path="url(#clip130)" d="M1396.67 48.0275 L1396.67 51.6733 L1362.4 51.6733 Q1362.89 59.3701 1367.02 63.421 Q1371.19 67.4314 1378.6 67.4314 Q1382.9 67.4314 1386.91 66.3781 Q1390.96 65.3249 1394.93 63.2184 L1394.93 70.267 Q1390.92 71.9684 1386.71 72.8596 Q1382.49 73.7508 1378.16 73.7508 Q1367.3 73.7508 1360.94 67.4314 Q1354.62 61.1119 1354.62 50.3365 Q1354.62 39.1965 1360.62 32.6746 Q1366.65 26.1121 1376.86 26.1121 Q1386.02 26.1121 1391.32 32.0264 Q1396.67 37.9003 1396.67 48.0275 M1389.22 45.84 Q1389.14 39.7232 1385.77 36.0774 Q1382.45 32.4315 1376.94 32.4315 Q1370.7 32.4315 1366.94 35.9558 Q1363.21 39.4801 1362.64 45.8805 L1389.22 45.84 Z" fill="#000000" fill-rule="nonzero" fill-opacity="1" /><path clip-path="url(#clip130)" d="M1435.19 34.1734 Q1433.94 33.4443 1432.44 33.1202 Q1430.98 32.7556 1429.2 32.7556 Q1422.88 32.7556 1419.48 36.8875 Q1416.12 40.9789 1416.12 48.6757 L1416.12 72.576 L1408.62 72.576 L1408.62 27.2059 L1416.12 27.2059 L1416.12 34.2544 Q1418.46 30.1225 1422.23 28.1376 Q1426 26.1121 1431.39 26.1121 Q1432.16 26.1121 1433.09 26.2337 Q1434.02 26.3147 1435.15 26.5172 L1435.19 34.1734 Z" fill="#000000" fill-rule="nonzero" fill-opacity="1" /><path clip-path="url(#clip130)" d="M1508.19 48.0275 L1508.19 51.6733 L1473.92 51.6733 Q1474.41 59.3701 1478.54 63.421 Q1482.71 67.4314 1490.13 67.4314 Q1494.42 67.4314 1498.43 66.3781 Q1502.48 65.3249 1506.45 63.2184 L1506.45 70.267 Q1502.44 71.9684 1498.23 72.8596 Q1494.01 73.7508 1489.68 73.7508 Q1478.82 73.7508 1472.46 67.4314 Q1466.14 61.1119 1466.14 50.3365 Q1466.14 39.1965 1472.14 32.6746 Q1478.17 26.1121 1488.38 26.1121 Q1497.54 26.1121 1502.84 32.0264 Q1508.19 37.9003 1508.19 48.0275 M1500.74 45.84 Q1500.66 39.7232 1497.3 36.0774 Q1493.97 32.4315 1488.46 32.4315 Q1482.23 32.4315 1478.46 35.9558 Q1474.73 39.4801 1474.16 45.8805 L1500.74 45.84 Z" fill="#000000" fill-rule="nonzero" fill-opacity="1" /><path clip-path="url(#clip130)" d="M1541.04 49.7694 Q1532.01 49.7694 1528.53 51.8354 Q1525.04 53.9013 1525.04 58.8839 Q1525.04 62.8538 1527.64 65.2034 Q1530.27 67.5124 1534.77 67.5124 Q1540.96 67.5124 1544.69 63.1374 Q1548.46 58.7219 1548.46 51.4303 L1548.46 49.7694 L1541.04 49.7694 M1555.91 46.6907 L1555.91 72.576 L1548.46 72.576 L1548.46 65.6895 Q1545.91 69.8214 1542.1 71.8063 Q1538.29 73.7508 1532.78 73.7508 Q1525.81 73.7508 1521.68 69.8619 Q1517.59 65.9325 1517.59 59.3701 Q1517.59 51.7138 1522.69 47.825 Q1527.84 43.9361 1538.01 43.9361 L1548.46 43.9361 L1548.46 43.2069 Q1548.46 38.0623 1545.06 35.2672 Q1541.69 32.4315 1535.58 32.4315 Q1531.69 32.4315 1528 33.3632 Q1524.31 34.295 1520.91 36.1584 L1520.91 29.2718 Q1525 27.692 1528.85 26.9223 Q1532.7 26.1121 1536.35 26.1121 Q1546.19 26.1121 1551.05 31.2163 Q1555.91 36.3204 1555.91 46.6907 Z" fill="#000000" fill-rule="nonzero" fill-opacity="1" /><path clip-path="url(#clip130)" d="M1603.91 28.9478 L1603.91 35.9153 Q1600.76 34.1734 1597.56 33.3227 Q1594.4 32.4315 1591.15 32.4315 Q1583.9 32.4315 1579.89 37.0496 Q1575.88 41.6271 1575.88 49.9314 Q1575.88 58.2358 1579.89 62.8538 Q1583.9 67.4314 1591.15 67.4314 Q1594.4 67.4314 1597.56 66.5807 Q1600.76 65.6895 1603.91 63.9476 L1603.91 70.8341 Q1600.8 72.2924 1597.43 73.0216 Q1594.11 73.7508 1590.34 73.7508 Q1580.1 73.7508 1574.06 67.3098 Q1568.02 60.8689 1568.02 49.9314 Q1568.02 38.832 1574.1 32.472 Q1580.22 26.1121 1590.83 26.1121 Q1594.27 26.1121 1597.56 26.8413 Q1600.84 27.5299 1603.91 28.9478 Z" fill="#000000" fill-rule="nonzero" fill-opacity="1" /><path clip-path="url(#clip130)" d="M1654.59 45.1919 L1654.59 72.576 L1647.14 72.576 L1647.14 45.4349 Q1647.14 38.994 1644.63 35.7938 Q1642.12 32.5936 1637.09 32.5936 Q1631.06 32.5936 1627.57 36.4419 Q1624.09 40.2903 1624.09 46.9338 L1624.09 72.576 L1616.59 72.576 L1616.59 9.54393 L1624.09 9.54393 L1624.09 34.2544 Q1626.76 30.163 1630.37 28.1376 Q1634.01 26.1121 1638.75 26.1121 Q1646.57 26.1121 1650.58 30.9732 Q1654.59 35.7938 1654.59 45.1919 Z" fill="#000000" fill-rule="nonzero" fill-opacity="1" /><path clip-path="url(#clip130)" d="M1695.83 27.2059 L1703.28 27.2059 L1703.28 72.576 L1695.83 72.576 L1695.83 27.2059 M1695.83 9.54393 L1703.28 9.54393 L1703.28 18.9825 L1695.83 18.9825 L1695.83 9.54393 Z" fill="#000000" fill-rule="nonzero" fill-opacity="1" /><path clip-path="url(#clip130)" d="M1726.25 14.324 L1726.25 27.2059 L1741.61 27.2059 L1741.61 32.9987 L1726.25 32.9987 L1726.25 57.6282 Q1726.25 63.1779 1727.75 64.7578 Q1729.29 66.3376 1733.95 66.3376 L1741.61 66.3376 L1741.61 72.576 L1733.95 72.576 Q1725.32 72.576 1722.04 69.3758 Q1718.76 66.1351 1718.76 57.6282 L1718.76 32.9987 L1713.29 32.9987 L1713.29 27.2059 L1718.76 27.2059 L1718.76 14.324 L1726.25 14.324 Z" fill="#000000" fill-rule="nonzero" fill-opacity="1" /><path clip-path="url(#clip130)" d="M1790.22 48.0275 L1790.22 51.6733 L1755.95 51.6733 Q1756.43 59.3701 1760.56 63.421 Q1764.74 67.4314 1772.15 67.4314 Q1776.44 67.4314 1780.45 66.3781 Q1784.5 65.3249 1788.47 63.2184 L1788.47 70.267 Q1784.46 71.9684 1780.25 72.8596 Q1776.04 73.7508 1771.7 73.7508 Q1760.85 73.7508 1754.49 67.4314 Q1748.17 61.1119 1748.17 50.3365 Q1748.17 39.1965 1754.16 32.6746 Q1760.2 26.1121 1770.41 26.1121 Q1779.56 26.1121 1784.87 32.0264 Q1790.22 37.9003 1790.22 48.0275 M1782.76 45.84 Q1782.68 39.7232 1779.32 36.0774 Q1776 32.4315 1770.49 32.4315 Q1764.25 32.4315 1760.48 35.9558 Q1756.76 39.4801 1756.19 45.8805 L1782.76 45.84 Z" fill="#000000" fill-rule="nonzero" fill-opacity="1" /><path clip-path="url(#clip130)" d="M1828.74 34.1734 Q1827.48 33.4443 1825.99 33.1202 Q1824.53 32.7556 1822.74 32.7556 Q1816.43 32.7556 1813.02 36.8875 Q1809.66 40.9789 1809.66 48.6757 L1809.66 72.576 L1802.17 72.576 L1802.17 27.2059 L1809.66 27.2059 L1809.66 34.2544 Q1812.01 30.1225 1815.78 28.1376 Q1819.54 26.1121 1824.93 26.1121 Q1825.7 26.1121 1826.63 26.2337 Q1827.57 26.3147 1828.7 26.5172 L1828.74 34.1734 Z" fill="#000000" fill-rule="nonzero" fill-opacity="1" /><path clip-path="url(#clip130)" d="M1857.18 49.7694 Q1848.14 49.7694 1844.66 51.8354 Q1841.18 53.9013 1841.18 58.8839 Q1841.18 62.8538 1843.77 65.2034 Q1846.4 67.5124 1850.9 67.5124 Q1857.1 67.5124 1860.82 63.1374 Q1864.59 58.7219 1864.59 51.4303 L1864.59 49.7694 L1857.18 49.7694 M1872.04 46.6907 L1872.04 72.576 L1864.59 72.576 L1864.59 65.6895 Q1862.04 69.8214 1858.23 71.8063 Q1854.42 73.7508 1848.91 73.7508 Q1841.95 73.7508 1837.81 69.8619 Q1833.72 65.9325 1833.72 59.3701 Q1833.72 51.7138 1838.83 47.825 Q1843.97 43.9361 1854.14 43.9361 L1864.59 43.9361 L1864.59 43.2069 Q1864.59 38.0623 1861.19 35.2672 Q1857.83 32.4315 1851.71 32.4315 Q1847.82 32.4315 1844.13 33.3632 Q1840.45 34.295 1837.04 36.1584 L1837.04 29.2718 Q1841.14 27.692 1844.98 26.9223 Q1848.83 26.1121 1852.48 26.1121 Q1862.32 26.1121 1867.18 31.2163 Q1872.04 36.3204 1872.04 46.6907 Z" fill="#000000" fill-rule="nonzero" fill-opacity="1" /><path clip-path="url(#clip130)" d="M1894.77 14.324 L1894.77 27.2059 L1910.12 27.2059 L1910.12 32.9987 L1894.77 32.9987 L1894.77 57.6282 Q1894.77 63.1779 1896.27 64.7578 Q1897.81 66.3376 1902.47 66.3376 L1910.12 66.3376 L1910.12 72.576 L1902.47 72.576 Q1893.84 72.576 1890.56 69.3758 Q1887.28 66.1351 1887.28 57.6282 L1887.28 32.9987 L1881.81 32.9987 L1881.81 27.2059 L1887.28 27.2059 L1887.28 14.324 L1894.77 14.324 Z" fill="#000000" fill-rule="nonzero" fill-opacity="1" /><path clip-path="url(#clip130)" d="M1919.93 27.2059 L1927.38 27.2059 L1927.38 72.576 L1919.93 72.576 L1919.93 27.2059 M1919.93 9.54393 L1927.38 9.54393 L1927.38 18.9825 L1919.93 18.9825 L1919.93 9.54393 Z" fill="#000000" fill-rule="nonzero" fill-opacity="1" /><path clip-path="url(#clip130)" d="M1960.56 32.4315 Q1954.56 32.4315 1951.08 37.1306 Q1947.59 41.7891 1947.59 49.9314 Q1947.59 58.0738 1951.04 62.7728 Q1954.52 67.4314 1960.56 67.4314 Q1966.51 67.4314 1970 62.7323 Q1973.48 58.0333 1973.48 49.9314 Q1973.48 41.8701 1970 37.1711 Q1966.51 32.4315 1960.56 32.4315 M1960.56 26.1121 Q1970.28 26.1121 1975.83 32.4315 Q1981.38 38.7509 1981.38 49.9314 Q1981.38 61.0714 1975.83 67.4314 Q1970.28 73.7508 1960.56 73.7508 Q1950.79 73.7508 1945.24 67.4314 Q1939.73 61.0714 1939.73 49.9314 Q1939.73 38.7509 1945.24 32.4315 Q1950.79 26.1121 1960.56 26.1121 Z" fill="#000000" fill-rule="nonzero" fill-opacity="1" /><path clip-path="url(#clip130)" d="M2031.45 45.1919 L2031.45 72.576 L2023.99 72.576 L2023.99 45.4349 Q2023.99 38.994 2021.48 35.7938 Q2018.97 32.5936 2013.95 32.5936 Q2007.91 32.5936 2004.43 36.4419 Q2000.94 40.2903 2000.94 46.9338 L2000.94 72.576 L1993.45 72.576 L1993.45 27.2059 L2000.94 27.2059 L2000.94 34.2544 Q2003.62 30.163 2007.22 28.1376 Q2010.87 26.1121 2015.61 26.1121 Q2023.43 26.1121 2027.44 30.9732 Q2031.45 35.7938 2031.45 45.1919 Z" fill="#000000" fill-rule="nonzero" fill-opacity="1" /><polyline clip-path="url(#clip132)" style="stroke:#009af9; stroke-linecap:round; stroke-linejoin:round; stroke-width:4; stroke-opacity:1; fill:none" points="394.29,160.654 396.669,160.555 399.049,160.818 401.429,160.777 403.809,160.861 406.188,160.525 408.568,160.787 410.948,160.365 413.328,160.405 415.707,160.292 418.087,160.269 420.467,160.262 422.847,160.262 425.227,160.256 427.606,160.47 429.986,160.399 432.366,160.266 434.746,160.287 437.125,160.26 439.505,160.256 441.885,160.267 444.265,160.662 446.644,160.828 449.024,160.54 451.404,160.708 453.784,161.935 456.163,162.083 458.543,162.806 460.923,163.346 463.303,163.273 465.682,163.129 468.062,162.739 470.442,162.218 472.822,162.784 475.201,162.419 477.581,163.129 479.961,164.296 482.341,165.597 484.72,168.991 487.1,172.715 489.48,175.147 491.86,177.445 494.239,180.787 496.619,183.337 498.999,189.335 501.379,191.567 503.758,197.038 506.138,206.976 508.518,213.713 510.898,222.551 513.277,231.236 515.657,237.381 518.037,245.455 520.417,249.377 522.796,260.129 525.176,272.678 527.556,285.499 529.936,296.222 532.315,310.458 534.695,324.864 537.075,338.805 539.455,357.617 541.834,366.37 544.214,381.103 546.594,403.718 548.974,418.581 551.353,432.726 553.733,442.288 556.113,452.493 558.493,461.906 560.872,476.928 563.252,493.592 565.632,518.063 568.012,524.45 570.392,535.492 572.771,550.286 575.151,565.649 577.531,579.012 579.911,596.093 582.29,599.022 584.67,615.008 587.05,635.24 589.43,650.936 591.809,655.601 594.189,678.619 596.569,704.771 598.949,712.644 601.328,722.564 603.708,745.037 606.088,759.692 608.468,774.529 610.847,790.953 613.227,806.881 615.607,826.619 617.987,840.794 620.366,855.119 622.746,865.124 625.126,886.857 627.506,904.328 629.885,906.622 632.265,921.234 634.645,944.985 637.025,948.914 639.404,971.893 641.784,999.254 644.164,1020.48 646.544,1044.06 648.923,1062.9 651.303,1079.38 653.683,1091.31 656.063,1118.86 658.442,1122.34 660.822,1141.99 663.202,1159.62 665.582,1162.28 667.961,1180.54 670.341,1196.26 672.721,1219.83 675.101,1242.75 677.48,1247.36 679.86,1256.62 682.24,1279.46 684.62,1294.98 686.999,1308.23 689.379,1329.2 691.759,1338.8 694.139,1353.27 696.518,1367.34 698.898,1379.05 701.278,1386.4 703.658,1386.4 706.037,1386.4 708.417,1386.4 710.797,1386.4 713.177,1386.4 715.557,1386.4 717.936,1386.4 720.316,1386.4 722.696,1386.4 725.076,1386.4 727.455,1386.4 729.835,1386.4 732.215,1386.4 734.595,1386.4 736.974,1386.4 739.354,1386.4 741.734,1386.4 744.114,1386.4 746.493,1386.4 748.873,1386.4 751.253,1386.4 753.633,1386.4 756.012,1386.4 758.392,1386.4 760.772,1386.4 763.152,1386.4 765.531,1386.4 767.911,1386.4 770.291,1386.4 772.671,1386.4 775.05,1386.4 777.43,1386.4 779.81,1386.4 782.19,1386.4 784.569,1386.4 786.949,1386.4 789.329,1386.4 791.709,1386.4 794.088,1386.4 796.468,1386.4 798.848,1386.4 801.228,1386.4 803.607,1386.4 805.987,1386.4 808.367,1386.4 810.747,1386.4 813.126,1386.4 815.506,1386.4 817.886,1386.4 820.266,1386.4 822.645,1386.4 825.025,1386.4 827.405,1386.4 829.785,1386.4 832.164,1386.4 834.544,1386.4 836.924,1386.4 839.304,1386.4 841.683,1386.4 844.063,1386.4 846.443,1386.4 848.823,1386.4 851.202,1386.4 853.582,1386.4 855.962,1386.4 858.342,1386.4 860.722,1386.4 863.101,1386.4 865.481,1386.4 867.861,1386.4 870.241,1386.4 872.62,1386.4 875,1386.4 877.38,1386.4 879.76,1386.4 882.139,1386.4 884.519,1386.4 886.899,1386.4 889.279,1386.4 891.658,1386.4 894.038,1386.4 896.418,1386.4 898.798,1386.4 901.177,1386.4 903.557,1386.4 905.937,1386.4 908.317,1386.4 910.696,1386.4 913.076,1386.4 915.456,1386.4 917.836,1386.4 920.215,1386.4 922.595,1386.4 924.975,1386.4 927.355,1386.4 929.734,1386.4 932.114,1386.4 934.494,1386.4 936.874,1386.4 939.253,1386.4 941.633,1386.4 944.013,1386.4 946.393,1386.4 948.772,1386.4 951.152,1386.4 953.532,1386.4 955.912,1386.4 958.291,1386.4 960.671,1386.4 963.051,1386.4 965.431,1386.4 967.81,1386.4 970.19,1386.4 972.57,1386.4 974.95,1386.4 977.329,1386.4 979.709,1386.4 982.089,1386.4 984.469,1386.4 986.848,1386.4 989.228,1386.4 991.608,1386.4 993.988,1386.4 996.367,1386.4 998.747,1386.4 1001.13,1386.4 1003.51,1386.4 1005.89,1386.4 1008.27,1386.4 1010.65,1386.4 1013.03,1386.4 1015.41,1386.4 1017.79,1386.4 1020.17,1386.4 1022.54,1386.4 1024.92,1386.4 1027.3,1386.4 1029.68,1386.4 1032.06,1386.4 1034.44,1386.4 1036.82,1386.4 1039.2,1386.4 1041.58,1386.4 1043.96,1386.4 1046.34,1386.4 1048.72,1386.4 1051.1,1386.4 1053.48,1386.4 1055.86,1386.4 1058.24,1386.4 1060.62,1386.4 1063,1386.4 1065.38,1386.4 1067.76,1386.4 1070.14,1386.4 1072.52,1386.4 1074.9,1386.4 1077.28,1386.4 1079.66,1386.4 1082.04,1386.4 1084.42,1386.4 1086.8,1386.4 1089.18,1386.4 1091.56,1386.4 1093.94,1386.4 1096.32,1386.4 1098.7,1386.4 1101.08,1386.4 1103.46,1386.4 1105.84,1386.4 1108.22,1386.4 1110.6,1386.4 1112.98,1386.4 1115.36,1386.4 1117.73,1386.4 1120.11,1386.4 1122.49,1386.4 1124.87,1386.4 1127.25,1386.4 1129.63,1386.4 1132.01,1386.4 1134.39,1386.4 1136.77,1386.4 1139.15,1386.4 1141.53,1386.4 1143.91,1386.4 1146.29,1386.4 1148.67,1386.4 1151.05,1386.4 1153.43,1386.4 1155.81,1386.4 1158.19,1386.4 1160.57,1386.4 1162.95,1386.4 1165.33,1386.4 1167.71,1386.4 1170.09,1386.4 1172.47,1386.4 1174.85,1386.4 1177.23,1386.4 1179.61,1386.4 1181.99,1386.4 1184.37,1386.4 1186.75,1386.4 1189.13,1386.4 1191.51,1386.4 1193.89,1386.4 1196.27,1386.4 1198.65,1386.4 1201.03,1386.4 1203.41,1386.4 1205.79,1386.4 1208.17,1386.4 1210.55,1386.4 1212.93,1386.4 1215.3,1386.4 1217.68,1386.4 1220.06,1386.4 1222.44,1386.4 1224.82,1386.4 1227.2,1386.4 1229.58,1386.4 1231.96,1386.4 1234.34,1386.4 1236.72,1386.4 1239.1,1386.4 1241.48,1386.4 1243.86,1386.4 1246.24,1386.4 1248.62,1386.4 1251,1386.4 1253.38,1386.4 1255.76,1386.4 1258.14,1386.4 1260.52,1386.4 1262.9,1386.4 1265.28,1386.4 1267.66,1386.4 1270.04,1386.4 1272.42,1386.4 1274.8,1386.4 1277.18,1386.4 1279.56,1386.4 1281.94,1386.4 1284.32,1386.4 1286.7,1386.4 1289.08,1386.4 1291.46,1386.4 1293.84,1386.4 1296.22,1386.4 1298.6,1386.4 1300.98,1386.4 1303.36,1386.4 1305.74,1386.4 1308.12,1386.4 1310.5,1386.4 1312.87,1386.4 1315.25,1386.4 1317.63,1386.4 1320.01,1386.4 1322.39,1386.4 1324.77,1386.4 1327.15,1386.4 1329.53,1386.4 1331.91,1386.4 1334.29,1386.4 1336.67,1386.4 1339.05,1386.4 1341.43,1386.4 1343.81,1386.4 1346.19,1386.4 1348.57,1386.4 1350.95,1386.4 1353.33,1386.4 1355.71,1386.4 1358.09,1386.4 1360.47,1386.4 1362.85,1386.4 1365.23,1386.4 1367.61,1386.4 1369.99,1386.4 1372.37,1386.4 1374.75,1386.4 1377.13,1386.4 1379.51,1386.4 1381.89,1386.4 1384.27,1386.4 1386.65,1386.4 1389.03,1386.4 1391.41,1386.4 1393.79,1386.4 1396.17,1386.4 1398.55,1386.4 1400.93,1386.4 1403.31,1386.4 1405.69,1386.4 1408.06,1386.4 1410.44,1386.4 1412.82,1386.4 1415.2,1386.4 1417.58,1386.4 1419.96,1386.4 1422.34,1386.4 1424.72,1386.4 1427.1,1386.4 1429.48,1386.4 1431.86,1386.4 1434.24,1386.4 1436.62,1386.4 1439,1386.4 1441.38,1386.4 1443.76,1386.4 1446.14,1386.4 1448.52,1386.4 1450.9,1386.4 1453.28,1386.4 1455.66,1386.4 1458.04,1386.4 1460.42,1386.4 1462.8,1386.4 1465.18,1386.4 1467.56,1386.4 1469.94,1386.4 1472.32,1386.4 1474.7,1386.4 1477.08,1386.4 1479.46,1386.4 1481.84,1386.4 1484.22,1386.4 1486.6,1386.4 1488.98,1386.4 1491.36,1386.4 1493.74,1386.4 1496.12,1386.4 1498.5,1386.4 1500.88,1386.4 1503.26,1386.4 1505.63,1386.4 1508.01,1386.4 1510.39,1386.4 1512.77,1386.4 1515.15,1386.4 1517.53,1386.4 1519.91,1386.4 1522.29,1386.4 1524.67,1386.4 1527.05,1386.4 1529.43,1386.4 1531.81,1386.4 1534.19,1386.4 1536.57,1386.4 1538.95,1386.4 1541.33,1386.4 1543.71,1386.4 1546.09,1386.4 1548.47,1386.4 1550.85,1386.4 1553.23,1386.4 1555.61,1386.4 1557.99,1386.4 1560.37,1386.4 1562.75,1386.4 1565.13,1386.4 1567.51,1386.4 1569.89,1386.4 1572.27,1386.4 1574.65,1386.4 1577.03,1386.4 1579.41,1386.4 1581.79,1386.4 1584.17,1386.4 1586.55,1386.4 1588.93,1386.4 1591.31,1386.4 1593.69,1386.4 1596.07,1386.4 1598.45,1386.4 1600.83,1386.4 1603.2,1386.4 1605.58,1386.4 1607.96,1386.4 1610.34,1386.4 1612.72,1386.4 1615.1,1386.4 1617.48,1386.4 1619.86,1386.4 1622.24,1386.4 1624.62,1386.4 1627,1386.4 1629.38,1386.4 1631.76,1386.4 1634.14,1386.4 1636.52,1386.4 1638.9,1386.4 1641.28,1386.4 1643.66,1386.4 1646.04,1386.4 1648.42,1386.4 1650.8,1386.4 1653.18,1386.4 1655.56,1386.4 1657.94,1386.4 1660.32,1386.4 1662.7,1386.4 1665.08,1386.4 1667.46,1386.4 1669.84,1386.4 1672.22,1386.4 1674.6,1386.4 1676.98,1386.4 1679.36,1386.4 1681.74,1386.4 1684.12,1386.4 1686.5,1386.4 1688.88,1386.4 1691.26,1386.4 1693.64,1386.4 1696.02,1386.4 1698.39,1386.4 1700.77,1386.4 1703.15,1386.4 1705.53,1386.4 1707.91,1386.4 1710.29,1386.4 1712.67,1386.4 1715.05,1386.4 1717.43,1386.4 1719.81,1386.4 1722.19,1386.4 1724.57,1386.4 1726.95,1386.4 1729.33,1386.4 1731.71,1386.4 1734.09,1386.4 1736.47,1386.4 1738.85,1386.4 1741.23,1386.4 1743.61,1386.4 1745.99,1386.4 1748.37,1386.4 1750.75,1386.4 1753.13,1386.4 1755.51,1386.4 1757.89,1386.4 1760.27,1386.4 1762.65,1386.4 1765.03,1386.4 1767.41,1386.4 1769.79,1386.4 1772.17,1386.4 1774.55,1386.4 1776.93,1386.4 1779.31,1386.4 1781.69,1386.4 1784.07,1386.4 1786.45,1386.4 1788.83,1386.4 1791.21,1386.4 1793.59,1386.4 1795.96,1386.4 1798.34,1386.4 1800.72,1386.4 1803.1,1386.4 1805.48,1386.4 1807.86,1386.4 1810.24,1386.4 1812.62,1386.4 1815,1386.4 1817.38,1386.4 1819.76,1386.4 1822.14,1386.4 1824.52,1386.4 1826.9,1386.4 1829.28,1386.4 1831.66,1386.4 1834.04,1386.4 1836.42,1386.4 1838.8,1386.4 1841.18,1386.4 1843.56,1386.4 1845.94,1386.4 1848.32,1386.4 1850.7,1386.4 1853.08,1386.4 1855.46,1386.4 1857.84,1386.4 1860.22,1386.4 1862.6,1386.4 1864.98,1386.4 1867.36,1386.4 1869.74,1386.4 1872.12,1386.4 1874.5,1386.4 1876.88,1386.4 1879.26,1386.4 1881.64,1386.4 1884.02,1386.4 1886.4,1386.4 1888.78,1386.4 1891.16,1386.4 1893.53,1386.4 1895.91,1386.4 1898.29,1386.4 1900.67,1386.4 1903.05,1386.4 1905.43,1386.4 1907.81,1386.4 1910.19,1386.4 1912.57,1386.4 1914.95,1386.4 1917.33,1386.4 1919.71,1386.4 1922.09,1386.4 1924.47,1386.4 1926.85,1386.4 1929.23,1386.4 1931.61,1386.4 1933.99,1386.4 1936.37,1386.4 1938.75,1386.4 1941.13,1386.4 1943.51,1386.4 1945.89,1386.4 1948.27,1386.4 1950.65,1386.4 1953.03,1386.4 1955.41,1386.4 1957.79,1386.4 1960.17,1386.4 1962.55,1386.4 1964.93,1386.4 1967.31,1386.4 1969.69,1386.4 1972.07,1386.4 1974.45,1386.4 1976.83,1386.4 1979.21,1386.4 1981.59,1386.4 1983.97,1386.4 1986.35,1386.4 1988.72,1386.4 1991.1,1386.4 1993.48,1386.4 1995.86,1386.4 1998.24,1386.4 2000.62,1386.4 2003,1386.4 2005.38,1386.4 2007.76,1386.4 2010.14,1386.4 2012.52,1386.4 2014.9,1386.4 2017.28,1386.4 2019.66,1386.4 2022.04,1386.4 2024.42,1386.4 2026.8,1386.4 2029.18,1386.4 2031.56,1386.4 2033.94,1386.4 2036.32,1386.4 2038.7,1386.4 2041.08,1386.4 2043.46,1386.4 2045.84,1386.4 2048.22,1386.4 2050.6,1386.4 2052.98,1386.4 2055.36,1386.4 2057.74,1386.4 2060.12,1386.4 2062.5,1386.4 2064.88,1386.4 2067.26,1386.4 2069.64,1386.4 2072.02,1386.4 2074.4,1386.4 2076.78,1386.4 2079.16,1386.4 2081.54,1386.4 2083.92,1386.4 2086.29,1386.4 2088.67,1386.4 2091.05,1386.4 2093.43,1386.4 2095.81,1386.4 2098.19,1386.4 2100.57,1386.4 2102.95,1386.4 2105.33,1386.4 2107.71,1386.4 2110.09,1386.4 2112.47,1386.4 2114.85,1386.4 2117.23,1386.4 2119.61,1386.4 2121.99,1386.4 2124.37,1386.4 2126.75,1386.4 2129.13,1386.4 2131.51,1386.4 2133.89,1386.4 2136.27,1386.4 2138.65,1386.4 2141.03,1386.4 2143.41,1386.4 2145.79,1386.4 2148.17,1386.4 2150.55,1386.4 2152.93,1386.4 2155.31,1386.4 2157.69,1386.4 2160.07,1386.4 2162.45,1386.4 2164.83,1386.4 2167.21,1386.4 2169.59,1386.4 2171.97,1386.4 2174.35,1386.4 2176.73,1386.4 2179.11,1386.4 2181.49,1386.4 2183.86,1386.4 2186.24,1386.4 2188.62,1386.4 2191,1386.4 2193.38,1386.4 2195.76,1386.4 2198.14,1386.4 2200.52,1386.4 2202.9,1386.4 2205.28,1386.4 2207.66,1386.4 2210.04,1386.4 2212.42,1386.4 2214.8,1386.4 2217.18,1386.4 2219.56,1386.4 2221.94,1386.4 2224.32,1386.4 2226.7,1386.4 2229.08,1386.4 2231.46,1386.4 2233.84,1386.4 2236.22,1386.4 2238.6,1386.4 2240.98,1386.4 2243.36,1386.4 2245.74,1386.4 2248.12,1386.4 2250.5,1386.4 2252.88,1386.4 2255.26,1386.4 2257.64,1386.4 2260.02,1386.4 2262.4,1386.4 2264.78,1386.4 2267.16,1386.4 2269.54,1386.4 2271.92,1386.4 2274.3,1386.4 2276.68,1386.4 2279.05,1386.4 2281.43,1386.4 2283.81,1386.4 2286.19,1386.4 2288.57,1386.4 2290.95,1386.4 2293.33,1386.4 2295.71,1386.4 "/>
</svg>
