<?xml version="1.0" encoding="utf-8"?>
<svg xmlns="http://www.w3.org/2000/svg" xmlns:xlink="http://www.w3.org/1999/xlink" width="600" height="400" viewBox="0 0 2400 1600">
<defs>
  <clipPath id="clip790">
    <rect x="0" y="0" width="2400" height="1600"/>
  </clipPath>
</defs>
<path clip-path="url(#clip790)" d="M0 1600 L2400 1600 L2400 0 L0 0  Z" fill="#ffffff" fill-rule="evenodd" fill-opacity="1"/>
<defs>
  <clipPath id="clip791">
    <rect x="480" y="0" width="1681" height="1600"/>
  </clipPath>
</defs>
<path clip-path="url(#clip790)" d="M249.542 1423.18 L2352.76 1423.18 L2352.76 123.472 L249.542 123.472  Z" fill="#ffffff" fill-rule="evenodd" fill-opacity="1"/>
<defs>
  <clipPath id="clip792">
    <rect x="249" y="123" width="2104" height="1301"/>
  </clipPath>
</defs>
<polyline clip-path="url(#clip792)" style="stroke:#000000; stroke-linecap:round; stroke-linejoin:round; stroke-width:2; stroke-opacity:0.1; fill:none" points="308.662,1423.18 308.662,123.472 "/>
<polyline clip-path="url(#clip792)" style="stroke:#000000; stroke-linecap:round; stroke-linejoin:round; stroke-width:2; stroke-opacity:0.1; fill:none" points="713.593,1423.18 713.593,123.472 "/>
<polyline clip-path="url(#clip792)" style="stroke:#000000; stroke-linecap:round; stroke-linejoin:round; stroke-width:2; stroke-opacity:0.1; fill:none" points="1118.52,1423.18 1118.52,123.472 "/>
<polyline clip-path="url(#clip792)" style="stroke:#000000; stroke-linecap:round; stroke-linejoin:round; stroke-width:2; stroke-opacity:0.1; fill:none" points="1523.46,1423.18 1523.46,123.472 "/>
<polyline clip-path="url(#clip792)" style="stroke:#000000; stroke-linecap:round; stroke-linejoin:round; stroke-width:2; stroke-opacity:0.1; fill:none" points="1928.39,1423.18 1928.39,123.472 "/>
<polyline clip-path="url(#clip792)" style="stroke:#000000; stroke-linecap:round; stroke-linejoin:round; stroke-width:2; stroke-opacity:0.1; fill:none" points="2333.32,1423.18 2333.32,123.472 "/>
<polyline clip-path="url(#clip792)" style="stroke:#000000; stroke-linecap:round; stroke-linejoin:round; stroke-width:2; stroke-opacity:0.1; fill:none" points="249.542,1386.99 2352.76,1386.99 "/>
<polyline clip-path="url(#clip792)" style="stroke:#000000; stroke-linecap:round; stroke-linejoin:round; stroke-width:2; stroke-opacity:0.1; fill:none" points="249.542,1080.31 2352.76,1080.31 "/>
<polyline clip-path="url(#clip792)" style="stroke:#000000; stroke-linecap:round; stroke-linejoin:round; stroke-width:2; stroke-opacity:0.1; fill:none" points="249.542,773.625 2352.76,773.625 "/>
<polyline clip-path="url(#clip792)" style="stroke:#000000; stroke-linecap:round; stroke-linejoin:round; stroke-width:2; stroke-opacity:0.1; fill:none" points="249.542,466.941 2352.76,466.941 "/>
<polyline clip-path="url(#clip792)" style="stroke:#000000; stroke-linecap:round; stroke-linejoin:round; stroke-width:2; stroke-opacity:0.1; fill:none" points="249.542,160.256 2352.76,160.256 "/>
<polyline clip-path="url(#clip790)" style="stroke:#000000; stroke-linecap:round; stroke-linejoin:round; stroke-width:4; stroke-opacity:1; fill:none" points="249.542,1423.18 2352.76,1423.18 "/>
<polyline clip-path="url(#clip790)" style="stroke:#000000; stroke-linecap:round; stroke-linejoin:round; stroke-width:4; stroke-opacity:1; fill:none" points="308.662,1423.18 308.662,1404.28 "/>
<polyline clip-path="url(#clip790)" style="stroke:#000000; stroke-linecap:round; stroke-linejoin:round; stroke-width:4; stroke-opacity:1; fill:none" points="713.593,1423.18 713.593,1404.28 "/>
<polyline clip-path="url(#clip790)" style="stroke:#000000; stroke-linecap:round; stroke-linejoin:round; stroke-width:4; stroke-opacity:1; fill:none" points="1118.52,1423.18 1118.52,1404.28 "/>
<polyline clip-path="url(#clip790)" style="stroke:#000000; stroke-linecap:round; stroke-linejoin:round; stroke-width:4; stroke-opacity:1; fill:none" points="1523.46,1423.18 1523.46,1404.28 "/>
<polyline clip-path="url(#clip790)" style="stroke:#000000; stroke-linecap:round; stroke-linejoin:round; stroke-width:4; stroke-opacity:1; fill:none" points="1928.39,1423.18 1928.39,1404.28 "/>
<polyline clip-path="url(#clip790)" style="stroke:#000000; stroke-linecap:round; stroke-linejoin:round; stroke-width:4; stroke-opacity:1; fill:none" points="2333.32,1423.18 2333.32,1404.28 "/>
<path clip-path="url(#clip790)" d="M308.662 1454.1 Q305.051 1454.1 303.222 1457.66 Q301.417 1461.2 301.417 1468.33 Q301.417 1475.44 303.222 1479.01 Q305.051 1482.55 308.662 1482.55 Q312.296 1482.55 314.102 1479.01 Q315.931 1475.44 315.931 1468.33 Q315.931 1461.2 314.102 1457.66 Q312.296 1454.1 308.662 1454.1 M308.662 1450.39 Q314.472 1450.39 317.528 1455 Q320.606 1459.58 320.606 1468.33 Q320.606 1477.06 317.528 1481.67 Q314.472 1486.25 308.662 1486.25 Q302.852 1486.25 299.773 1481.67 Q296.718 1477.06 296.718 1468.33 Q296.718 1459.58 299.773 1455 Q302.852 1450.39 308.662 1450.39 Z" fill="#000000" fill-rule="nonzero" fill-opacity="1" /><path clip-path="url(#clip790)" d="M703.975 1481.64 L711.614 1481.64 L711.614 1455.28 L703.304 1456.95 L703.304 1452.69 L711.568 1451.02 L716.244 1451.02 L716.244 1481.64 L723.883 1481.64 L723.883 1485.58 L703.975 1485.58 L703.975 1481.64 Z" fill="#000000" fill-rule="nonzero" fill-opacity="1" /><path clip-path="url(#clip790)" d="M1113.18 1481.64 L1129.5 1481.64 L1129.5 1485.58 L1107.55 1485.58 L1107.55 1481.64 Q1110.21 1478.89 1114.8 1474.26 Q1119.4 1469.61 1120.59 1468.27 Q1122.83 1465.74 1123.71 1464.01 Q1124.61 1462.25 1124.61 1460.56 Q1124.61 1457.8 1122.67 1456.07 Q1120.75 1454.33 1117.65 1454.33 Q1115.45 1454.33 1112.99 1455.09 Q1110.56 1455.86 1107.78 1457.41 L1107.78 1452.69 Q1110.61 1451.55 1113.06 1450.97 Q1115.52 1450.39 1117.55 1450.39 Q1122.92 1450.39 1126.12 1453.08 Q1129.31 1455.77 1129.31 1460.26 Q1129.31 1462.39 1128.5 1464.31 Q1127.71 1466.2 1125.61 1468.8 Q1125.03 1469.47 1121.93 1472.69 Q1118.83 1475.88 1113.18 1481.64 Z" fill="#000000" fill-rule="nonzero" fill-opacity="1" /><path clip-path="url(#clip790)" d="M1527.7 1466.95 Q1531.06 1467.66 1532.94 1469.93 Q1534.83 1472.2 1534.83 1475.53 Q1534.83 1480.65 1531.32 1483.45 Q1527.8 1486.25 1521.32 1486.25 Q1519.14 1486.25 1516.82 1485.81 Q1514.53 1485.39 1512.08 1484.54 L1512.08 1480.02 Q1514.02 1481.16 1516.34 1481.74 Q1518.65 1482.32 1521.18 1482.32 Q1525.57 1482.32 1527.87 1480.58 Q1530.18 1478.84 1530.18 1475.53 Q1530.18 1472.48 1528.03 1470.77 Q1525.9 1469.03 1522.08 1469.03 L1518.05 1469.03 L1518.05 1465.19 L1522.26 1465.19 Q1525.71 1465.19 1527.54 1463.82 Q1529.37 1462.43 1529.37 1459.84 Q1529.37 1457.18 1527.47 1455.77 Q1525.6 1454.33 1522.08 1454.33 Q1520.16 1454.33 1517.96 1454.75 Q1515.76 1455.16 1513.12 1456.04 L1513.12 1451.88 Q1515.78 1451.14 1518.1 1450.77 Q1520.44 1450.39 1522.5 1450.39 Q1527.82 1450.39 1530.92 1452.83 Q1534.02 1455.23 1534.02 1459.35 Q1534.02 1462.22 1532.38 1464.21 Q1530.74 1466.18 1527.7 1466.95 Z" fill="#000000" fill-rule="nonzero" fill-opacity="1" /><path clip-path="url(#clip790)" d="M1931.4 1455.09 L1919.59 1473.54 L1931.4 1473.54 L1931.4 1455.09 M1930.17 1451.02 L1936.05 1451.02 L1936.05 1473.54 L1940.98 1473.54 L1940.98 1477.43 L1936.05 1477.43 L1936.05 1485.58 L1931.4 1485.58 L1931.4 1477.43 L1915.8 1477.43 L1915.8 1472.92 L1930.17 1451.02 Z" fill="#000000" fill-rule="nonzero" fill-opacity="1" /><path clip-path="url(#clip790)" d="M2323.6 1451.02 L2341.95 1451.02 L2341.95 1454.96 L2327.88 1454.96 L2327.88 1463.43 Q2328.9 1463.08 2329.92 1462.92 Q2330.93 1462.73 2331.95 1462.73 Q2337.74 1462.73 2341.12 1465.9 Q2344.5 1469.08 2344.5 1474.49 Q2344.5 1480.07 2341.03 1483.17 Q2337.56 1486.25 2331.24 1486.25 Q2329.06 1486.25 2326.79 1485.88 Q2324.55 1485.51 2322.14 1484.77 L2322.14 1480.07 Q2324.22 1481.2 2326.44 1481.76 Q2328.67 1482.32 2331.14 1482.32 Q2335.15 1482.32 2337.49 1480.21 Q2339.82 1478.1 2339.82 1474.49 Q2339.82 1470.88 2337.49 1468.77 Q2335.15 1466.67 2331.14 1466.67 Q2329.27 1466.67 2327.39 1467.08 Q2325.54 1467.5 2323.6 1468.38 L2323.6 1451.02 Z" fill="#000000" fill-rule="nonzero" fill-opacity="1" /><path clip-path="url(#clip790)" d="M1180.39 1520.52 L1220.59 1520.52 L1220.59 1525.93 L1203.72 1525.93 L1203.72 1568.04 L1197.26 1568.04 L1197.26 1525.93 L1180.39 1525.93 L1180.39 1520.52 Z" fill="#000000" fill-rule="nonzero" fill-opacity="1" /><path clip-path="url(#clip790)" d="M1240.61 1518.58 Q1236.35 1525.9 1234.28 1533.06 Q1232.21 1540.23 1232.21 1547.58 Q1232.21 1554.93 1234.28 1562.16 Q1236.38 1569.35 1240.61 1576.64 L1235.52 1576.64 Q1230.74 1569.16 1228.36 1561.93 Q1226 1554.71 1226 1547.58 Q1226 1540.48 1228.36 1533.29 Q1230.71 1526.09 1235.52 1518.58 L1240.61 1518.58 Z" fill="#000000" fill-rule="nonzero" fill-opacity="1" /><path clip-path="url(#clip790)" d="M1252.23 1520.52 L1258.66 1520.52 L1258.66 1564.73 Q1258.66 1573.33 1255.38 1577.21 Q1252.13 1581.09 1244.91 1581.09 L1242.46 1581.09 L1242.46 1575.68 L1244.46 1575.68 Q1248.73 1575.68 1250.48 1573.3 Q1252.23 1570.91 1252.23 1564.73 L1252.23 1520.52 Z" fill="#000000" fill-rule="nonzero" fill-opacity="1" /><path clip-path="url(#clip790)" d="M1281.61 1520.52 L1287.02 1520.52 L1270.47 1574.09 L1265.06 1574.09 L1281.61 1520.52 Z" fill="#000000" fill-rule="nonzero" fill-opacity="1" /><path clip-path="url(#clip790)" d="M1292.94 1518.52 L1298.83 1518.52 L1298.83 1547.77 L1316.3 1532.4 L1323.78 1532.4 L1304.87 1549.07 L1324.57 1568.04 L1316.94 1568.04 L1298.83 1550.63 L1298.83 1568.04 L1292.94 1568.04 L1292.94 1518.52 Z" fill="#000000" fill-rule="nonzero" fill-opacity="1" /><path clip-path="url(#clip790)" d="M1357.99 1578.87 L1357.99 1583.42 L1324.13 1583.42 L1324.13 1578.87 L1357.99 1578.87 Z" fill="#000000" fill-rule="nonzero" fill-opacity="1" /><path clip-path="url(#clip790)" d="M1370.19 1545.35 L1370.19 1562.76 L1380.5 1562.76 Q1385.69 1562.76 1388.17 1560.63 Q1390.68 1558.46 1390.68 1554.04 Q1390.68 1549.58 1388.17 1547.48 Q1385.69 1545.35 1380.5 1545.35 L1370.19 1545.35 M1370.19 1525.81 L1370.19 1540.13 L1379.7 1540.13 Q1384.41 1540.13 1386.7 1538.38 Q1389.03 1536.6 1389.03 1532.97 Q1389.03 1529.37 1386.7 1527.59 Q1384.41 1525.81 1379.7 1525.81 L1370.19 1525.81 M1363.76 1520.52 L1380.18 1520.52 Q1387.53 1520.52 1391.51 1523.58 Q1395.49 1526.63 1395.49 1532.27 Q1395.49 1536.63 1393.45 1539.21 Q1391.41 1541.79 1387.47 1542.42 Q1392.21 1543.44 1394.82 1546.69 Q1397.46 1549.9 1397.46 1554.74 Q1397.46 1561.11 1393.13 1564.57 Q1388.8 1568.04 1380.82 1568.04 L1363.76 1568.04 L1363.76 1520.52 Z" fill="#000000" fill-rule="nonzero" fill-opacity="1" /><path clip-path="url(#clip790)" d="M1407.3 1518.58 L1412.39 1518.58 Q1417.16 1526.09 1419.52 1533.29 Q1421.91 1540.48 1421.91 1547.58 Q1421.91 1554.71 1419.52 1561.93 Q1417.16 1569.16 1412.39 1576.64 L1407.3 1576.64 Q1411.53 1569.35 1413.6 1562.16 Q1415.7 1554.93 1415.7 1547.58 Q1415.7 1540.23 1413.6 1533.06 Q1411.53 1525.9 1407.3 1518.58 Z" fill="#000000" fill-rule="nonzero" fill-opacity="1" /><polyline clip-path="url(#clip790)" style="stroke:#000000; stroke-linecap:round; stroke-linejoin:round; stroke-width:4; stroke-opacity:1; fill:none" points="249.542,1423.18 249.542,123.472 "/>
<polyline clip-path="url(#clip790)" style="stroke:#000000; stroke-linecap:round; stroke-linejoin:round; stroke-width:4; stroke-opacity:1; fill:none" points="249.542,1386.99 268.44,1386.99 "/>
<polyline clip-path="url(#clip790)" style="stroke:#000000; stroke-linecap:round; stroke-linejoin:round; stroke-width:4; stroke-opacity:1; fill:none" points="249.542,1080.31 268.44,1080.31 "/>
<polyline clip-path="url(#clip790)" style="stroke:#000000; stroke-linecap:round; stroke-linejoin:round; stroke-width:4; stroke-opacity:1; fill:none" points="249.542,773.625 268.44,773.625 "/>
<polyline clip-path="url(#clip790)" style="stroke:#000000; stroke-linecap:round; stroke-linejoin:round; stroke-width:4; stroke-opacity:1; fill:none" points="249.542,466.941 268.44,466.941 "/>
<polyline clip-path="url(#clip790)" style="stroke:#000000; stroke-linecap:round; stroke-linejoin:round; stroke-width:4; stroke-opacity:1; fill:none" points="249.542,160.256 268.44,160.256 "/>
<path clip-path="url(#clip790)" d="M126.205 1372.79 Q122.593 1372.79 120.765 1376.36 Q118.959 1379.9 118.959 1387.03 Q118.959 1394.13 120.765 1397.7 Q122.593 1401.24 126.205 1401.24 Q129.839 1401.24 131.644 1397.7 Q133.473 1394.13 133.473 1387.03 Q133.473 1379.9 131.644 1376.36 Q129.839 1372.79 126.205 1372.79 M126.205 1369.09 Q132.015 1369.09 135.07 1373.69 Q138.149 1378.28 138.149 1387.03 Q138.149 1395.75 135.07 1400.36 Q132.015 1404.94 126.205 1404.94 Q120.394 1404.94 117.316 1400.36 Q114.26 1395.75 114.26 1387.03 Q114.26 1378.28 117.316 1373.69 Q120.394 1369.09 126.205 1369.09 Z" fill="#000000" fill-rule="nonzero" fill-opacity="1" /><path clip-path="url(#clip790)" d="M146.366 1398.39 L151.251 1398.39 L151.251 1404.27 L146.366 1404.27 L146.366 1398.39 Z" fill="#000000" fill-rule="nonzero" fill-opacity="1" /><path clip-path="url(#clip790)" d="M171.436 1372.79 Q167.825 1372.79 165.996 1376.36 Q164.19 1379.9 164.19 1387.03 Q164.19 1394.13 165.996 1397.7 Q167.825 1401.24 171.436 1401.24 Q175.07 1401.24 176.876 1397.7 Q178.704 1394.13 178.704 1387.03 Q178.704 1379.9 176.876 1376.36 Q175.07 1372.79 171.436 1372.79 M171.436 1369.09 Q177.246 1369.09 180.301 1373.69 Q183.38 1378.28 183.38 1387.03 Q183.38 1395.75 180.301 1400.36 Q177.246 1404.94 171.436 1404.94 Q165.626 1404.94 162.547 1400.36 Q159.491 1395.75 159.491 1387.03 Q159.491 1378.28 162.547 1373.69 Q165.626 1369.09 171.436 1369.09 Z" fill="#000000" fill-rule="nonzero" fill-opacity="1" /><path clip-path="url(#clip790)" d="M201.598 1372.79 Q197.987 1372.79 196.158 1376.36 Q194.352 1379.9 194.352 1387.03 Q194.352 1394.13 196.158 1397.7 Q197.987 1401.24 201.598 1401.24 Q205.232 1401.24 207.037 1397.7 Q208.866 1394.13 208.866 1387.03 Q208.866 1379.9 207.037 1376.36 Q205.232 1372.79 201.598 1372.79 M201.598 1369.09 Q207.408 1369.09 210.463 1373.69 Q213.542 1378.28 213.542 1387.03 Q213.542 1395.75 210.463 1400.36 Q207.408 1404.94 201.598 1404.94 Q195.787 1404.94 192.709 1400.36 Q189.653 1395.75 189.653 1387.03 Q189.653 1378.28 192.709 1373.69 Q195.787 1369.09 201.598 1369.09 Z" fill="#000000" fill-rule="nonzero" fill-opacity="1" /><path clip-path="url(#clip790)" d="M127.2 1066.11 Q123.589 1066.11 121.76 1069.67 Q119.955 1073.21 119.955 1080.34 Q119.955 1087.45 121.76 1091.02 Q123.589 1094.56 127.2 1094.56 Q130.834 1094.56 132.64 1091.02 Q134.468 1087.45 134.468 1080.34 Q134.468 1073.21 132.64 1069.67 Q130.834 1066.11 127.2 1066.11 M127.2 1062.4 Q133.01 1062.4 136.066 1067.01 Q139.144 1071.59 139.144 1080.34 Q139.144 1089.07 136.066 1093.68 Q133.01 1098.26 127.2 1098.26 Q121.39 1098.26 118.311 1093.68 Q115.256 1089.07 115.256 1080.34 Q115.256 1071.59 118.311 1067.01 Q121.39 1062.4 127.2 1062.4 Z" fill="#000000" fill-rule="nonzero" fill-opacity="1" /><path clip-path="url(#clip790)" d="M147.362 1091.71 L152.246 1091.71 L152.246 1097.59 L147.362 1097.59 L147.362 1091.71 Z" fill="#000000" fill-rule="nonzero" fill-opacity="1" /><path clip-path="url(#clip790)" d="M166.459 1093.65 L182.778 1093.65 L182.778 1097.59 L160.834 1097.59 L160.834 1093.65 Q163.496 1090.9 168.079 1086.27 Q172.686 1081.62 173.866 1080.27 Q176.112 1077.75 176.991 1076.02 Q177.894 1074.26 177.894 1072.57 Q177.894 1069.81 175.95 1068.08 Q174.028 1066.34 170.927 1066.34 Q168.727 1066.34 166.274 1067.1 Q163.843 1067.87 161.065 1069.42 L161.065 1064.7 Q163.89 1063.56 166.343 1062.98 Q168.797 1062.4 170.834 1062.4 Q176.204 1062.4 179.399 1065.09 Q182.593 1067.77 182.593 1072.27 Q182.593 1074.39 181.783 1076.32 Q180.996 1078.21 178.889 1080.81 Q178.311 1081.48 175.209 1084.7 Q172.107 1087.89 166.459 1093.65 Z" fill="#000000" fill-rule="nonzero" fill-opacity="1" /><path clip-path="url(#clip790)" d="M192.639 1063.03 L210.996 1063.03 L210.996 1066.96 L196.922 1066.96 L196.922 1075.44 Q197.94 1075.09 198.959 1074.93 Q199.977 1074.74 200.996 1074.74 Q206.783 1074.74 210.162 1077.91 Q213.542 1081.08 213.542 1086.5 Q213.542 1092.08 210.07 1095.18 Q206.598 1098.26 200.278 1098.26 Q198.102 1098.26 195.834 1097.89 Q193.588 1097.52 191.181 1096.78 L191.181 1092.08 Q193.264 1093.21 195.487 1093.77 Q197.709 1094.33 200.186 1094.33 Q204.19 1094.33 206.528 1092.22 Q208.866 1090.11 208.866 1086.5 Q208.866 1082.89 206.528 1080.78 Q204.19 1078.68 200.186 1078.68 Q198.311 1078.68 196.436 1079.09 Q194.584 1079.51 192.639 1080.39 L192.639 1063.03 Z" fill="#000000" fill-rule="nonzero" fill-opacity="1" /><path clip-path="url(#clip790)" d="M126.205 759.424 Q122.593 759.424 120.765 762.988 Q118.959 766.53 118.959 773.66 Q118.959 780.766 120.765 784.331 Q122.593 787.872 126.205 787.872 Q129.839 787.872 131.644 784.331 Q133.473 780.766 133.473 773.66 Q133.473 766.53 131.644 762.988 Q129.839 759.424 126.205 759.424 M126.205 755.72 Q132.015 755.72 135.07 760.326 Q138.149 764.91 138.149 773.66 Q138.149 782.386 135.07 786.993 Q132.015 791.576 126.205 791.576 Q120.394 791.576 117.316 786.993 Q114.26 782.386 114.26 773.66 Q114.26 764.91 117.316 760.326 Q120.394 755.72 126.205 755.72 Z" fill="#000000" fill-rule="nonzero" fill-opacity="1" /><path clip-path="url(#clip790)" d="M146.366 785.025 L151.251 785.025 L151.251 790.905 L146.366 790.905 L146.366 785.025 Z" fill="#000000" fill-rule="nonzero" fill-opacity="1" /><path clip-path="url(#clip790)" d="M161.482 756.345 L179.839 756.345 L179.839 760.28 L165.765 760.28 L165.765 768.752 Q166.783 768.405 167.802 768.243 Q168.82 768.058 169.839 768.058 Q175.626 768.058 179.005 771.229 Q182.385 774.4 182.385 779.817 Q182.385 785.396 178.913 788.497 Q175.44 791.576 169.121 791.576 Q166.945 791.576 164.677 791.206 Q162.431 790.835 160.024 790.095 L160.024 785.396 Q162.107 786.53 164.329 787.085 Q166.552 787.641 169.028 787.641 Q173.033 787.641 175.371 785.534 Q177.709 783.428 177.709 779.817 Q177.709 776.206 175.371 774.099 Q173.033 771.993 169.028 771.993 Q167.153 771.993 165.278 772.41 Q163.427 772.826 161.482 773.706 L161.482 756.345 Z" fill="#000000" fill-rule="nonzero" fill-opacity="1" /><path clip-path="url(#clip790)" d="M201.598 759.424 Q197.987 759.424 196.158 762.988 Q194.352 766.53 194.352 773.66 Q194.352 780.766 196.158 784.331 Q197.987 787.872 201.598 787.872 Q205.232 787.872 207.037 784.331 Q208.866 780.766 208.866 773.66 Q208.866 766.53 207.037 762.988 Q205.232 759.424 201.598 759.424 M201.598 755.72 Q207.408 755.72 210.463 760.326 Q213.542 764.91 213.542 773.66 Q213.542 782.386 210.463 786.993 Q207.408 791.576 201.598 791.576 Q195.787 791.576 192.709 786.993 Q189.653 782.386 189.653 773.66 Q189.653 764.91 192.709 760.326 Q195.787 755.72 201.598 755.72 Z" fill="#000000" fill-rule="nonzero" fill-opacity="1" /><path clip-path="url(#clip790)" d="M127.2 452.739 Q123.589 452.739 121.76 456.304 Q119.955 459.846 119.955 466.975 Q119.955 474.082 121.76 477.647 Q123.589 481.188 127.2 481.188 Q130.834 481.188 132.64 477.647 Q134.468 474.082 134.468 466.975 Q134.468 459.846 132.64 456.304 Q130.834 452.739 127.2 452.739 M127.2 449.036 Q133.01 449.036 136.066 453.642 Q139.144 458.225 139.144 466.975 Q139.144 475.702 136.066 480.309 Q133.01 484.892 127.2 484.892 Q121.39 484.892 118.311 480.309 Q115.256 475.702 115.256 466.975 Q115.256 458.225 118.311 453.642 Q121.39 449.036 127.2 449.036 Z" fill="#000000" fill-rule="nonzero" fill-opacity="1" /><path clip-path="url(#clip790)" d="M147.362 478.341 L152.246 478.341 L152.246 484.221 L147.362 484.221 L147.362 478.341 Z" fill="#000000" fill-rule="nonzero" fill-opacity="1" /><path clip-path="url(#clip790)" d="M161.251 449.661 L183.473 449.661 L183.473 451.651 L170.927 484.221 L166.042 484.221 L177.848 453.596 L161.251 453.596 L161.251 449.661 Z" fill="#000000" fill-rule="nonzero" fill-opacity="1" /><path clip-path="url(#clip790)" d="M192.639 449.661 L210.996 449.661 L210.996 453.596 L196.922 453.596 L196.922 462.068 Q197.94 461.721 198.959 461.559 Q199.977 461.373 200.996 461.373 Q206.783 461.373 210.162 464.545 Q213.542 467.716 213.542 473.133 Q213.542 478.711 210.07 481.813 Q206.598 484.892 200.278 484.892 Q198.102 484.892 195.834 484.521 Q193.588 484.151 191.181 483.41 L191.181 478.711 Q193.264 479.846 195.487 480.401 Q197.709 480.957 200.186 480.957 Q204.19 480.957 206.528 478.85 Q208.866 476.744 208.866 473.133 Q208.866 469.522 206.528 467.415 Q204.19 465.309 200.186 465.309 Q198.311 465.309 196.436 465.725 Q194.584 466.142 192.639 467.022 L192.639 449.661 Z" fill="#000000" fill-rule="nonzero" fill-opacity="1" /><path clip-path="url(#clip790)" d="M117.015 173.601 L124.654 173.601 L124.654 147.236 L116.343 148.902 L116.343 144.643 L124.607 142.976 L129.283 142.976 L129.283 173.601 L136.922 173.601 L136.922 177.536 L117.015 177.536 L117.015 173.601 Z" fill="#000000" fill-rule="nonzero" fill-opacity="1" /><path clip-path="url(#clip790)" d="M146.366 171.657 L151.251 171.657 L151.251 177.536 L146.366 177.536 L146.366 171.657 Z" fill="#000000" fill-rule="nonzero" fill-opacity="1" /><path clip-path="url(#clip790)" d="M171.436 146.055 Q167.825 146.055 165.996 149.62 Q164.19 153.161 164.19 160.291 Q164.19 167.397 165.996 170.962 Q167.825 174.504 171.436 174.504 Q175.07 174.504 176.876 170.962 Q178.704 167.397 178.704 160.291 Q178.704 153.161 176.876 149.62 Q175.07 146.055 171.436 146.055 M171.436 142.351 Q177.246 142.351 180.301 146.958 Q183.38 151.541 183.38 160.291 Q183.38 169.018 180.301 173.624 Q177.246 178.208 171.436 178.208 Q165.626 178.208 162.547 173.624 Q159.491 169.018 159.491 160.291 Q159.491 151.541 162.547 146.958 Q165.626 142.351 171.436 142.351 Z" fill="#000000" fill-rule="nonzero" fill-opacity="1" /><path clip-path="url(#clip790)" d="M201.598 146.055 Q197.987 146.055 196.158 149.62 Q194.352 153.161 194.352 160.291 Q194.352 167.397 196.158 170.962 Q197.987 174.504 201.598 174.504 Q205.232 174.504 207.037 170.962 Q208.866 167.397 208.866 160.291 Q208.866 153.161 207.037 149.62 Q205.232 146.055 201.598 146.055 M201.598 142.351 Q207.408 142.351 210.463 146.958 Q213.542 151.541 213.542 160.291 Q213.542 169.018 210.463 173.624 Q207.408 178.208 201.598 178.208 Q195.787 178.208 192.709 173.624 Q189.653 169.018 189.653 160.291 Q189.653 151.541 192.709 146.958 Q195.787 142.351 201.598 142.351 Z" fill="#000000" fill-rule="nonzero" fill-opacity="1" /><path clip-path="url(#clip790)" d="M16.4842 885.904 L16.4842 876.323 L48.8219 864.196 L16.4842 852.006 L16.4842 842.426 L64.0042 842.426 L64.0042 848.696 L22.277 848.696 L54.8694 860.95 L54.8694 867.411 L22.277 879.665 L64.0042 879.665 L64.0042 885.904 L16.4842 885.904 Z" fill="#000000" fill-rule="nonzero" fill-opacity="1" /><path clip-path="url(#clip790)" d="M14.5426 815.849 Q21.8632 820.114 29.0246 822.183 Q36.186 824.252 43.5384 824.252 Q50.8908 824.252 58.1159 822.183 Q65.3091 820.082 72.5979 815.849 L72.5979 820.941 Q65.1182 825.716 57.8931 828.103 Q50.668 830.458 43.5384 830.458 Q36.4406 830.458 29.2474 828.103 Q22.0542 825.748 14.5426 820.941 L14.5426 815.849 Z" fill="#000000" fill-rule="nonzero" fill-opacity="1" /><path clip-path="url(#clip790)" d="M22.818 788.349 L46.4666 797.07 L46.4666 779.596 L22.818 788.349 M16.4842 791.978 L16.4842 784.689 L64.0042 766.578 L64.0042 773.262 L51.8138 777.591 L51.8138 799.012 L64.0042 803.34 L64.0042 810.12 L16.4842 791.978 Z" fill="#000000" fill-rule="nonzero" fill-opacity="1" /><path clip-path="url(#clip790)" d="M16.4842 749.486 L16.4842 744.076 L70.0516 760.626 L70.0516 766.037 L16.4842 749.486 Z" fill="#000000" fill-rule="nonzero" fill-opacity="1" /><path clip-path="url(#clip790)" d="M35.1993 710.178 Q31.2526 707.982 29.3747 704.926 Q27.4968 701.871 27.4968 697.733 Q27.4968 692.163 31.4117 689.14 Q35.2948 686.116 42.4881 686.116 L64.0042 686.116 L64.0042 692.004 L42.679 692.004 Q37.5546 692.004 35.072 693.818 Q32.5894 695.633 32.5894 699.356 Q32.5894 703.908 35.6131 706.55 Q38.6368 709.191 43.8567 709.191 L64.0042 709.191 L64.0042 715.08 L42.679 715.08 Q37.5228 715.08 35.072 716.894 Q32.5894 718.708 32.5894 722.496 Q32.5894 726.984 35.6449 729.625 Q38.6686 732.267 43.8567 732.267 L64.0042 732.267 L64.0042 738.155 L28.3562 738.155 L28.3562 732.267 L33.8944 732.267 Q30.616 730.262 29.0564 727.461 Q27.4968 724.66 27.4968 720.809 Q27.4968 716.926 29.4702 714.22 Q31.4436 711.483 35.1993 710.178 Z" fill="#000000" fill-rule="nonzero" fill-opacity="1" /><path clip-path="url(#clip790)" d="M14.5426 675.358 L14.5426 670.265 Q22.0542 665.491 29.2474 663.136 Q36.4406 660.748 43.5384 660.748 Q50.668 660.748 57.8931 663.136 Q65.1182 665.491 72.5979 670.265 L72.5979 675.358 Q65.3091 671.125 58.1159 669.056 Q50.8908 666.955 43.5384 666.955 Q36.186 666.955 29.0246 669.056 Q21.8632 671.125 14.5426 675.358 Z" fill="#000000" fill-rule="nonzero" fill-opacity="1" /><path clip-path="url(#clip790)" d="M231.406 12.096 L243.6 12.096 L259.034 53.2532 L274.549 12.096 L286.742 12.096 L286.742 72.576 L278.762 72.576 L278.762 19.4686 L263.166 60.9499 L254.942 60.9499 L239.346 19.4686 L239.346 72.576 L231.406 72.576 L231.406 12.096 Z" fill="#000000" fill-rule="nonzero" fill-opacity="1" /><path clip-path="url(#clip790)" d="M323.281 49.7694 Q314.247 49.7694 310.764 51.8354 Q307.28 53.9013 307.28 58.8839 Q307.28 62.8538 309.872 65.2034 Q312.506 67.5124 317.002 67.5124 Q323.2 67.5124 326.927 63.1374 Q330.694 58.7219 330.694 51.4303 L330.694 49.7694 L323.281 49.7694 M338.148 46.6907 L338.148 72.576 L330.694 72.576 L330.694 65.6895 Q328.142 69.8214 324.334 71.8063 Q320.526 73.7508 315.017 73.7508 Q308.05 73.7508 303.918 69.8619 Q299.826 65.9325 299.826 59.3701 Q299.826 51.7138 304.93 47.825 Q310.075 43.9361 320.243 43.9361 L330.694 43.9361 L330.694 43.2069 Q330.694 38.0623 327.291 35.2672 Q323.929 32.4315 317.812 32.4315 Q313.923 32.4315 310.237 33.3632 Q306.551 34.295 303.148 36.1584 L303.148 29.2718 Q307.239 27.692 311.088 26.9223 Q314.936 26.1121 318.582 26.1121 Q328.426 26.1121 333.287 31.2163 Q338.148 36.3204 338.148 46.6907 Z" fill="#000000" fill-rule="nonzero" fill-opacity="1" /><path clip-path="url(#clip790)" d="M383.356 49.3643 Q383.356 41.2625 379.994 36.8065 Q376.672 32.3505 370.636 32.3505 Q364.641 32.3505 361.278 36.8065 Q357.957 41.2625 357.957 49.3643 Q357.957 57.4256 361.278 61.8816 Q364.641 66.3376 370.636 66.3376 Q376.672 66.3376 379.994 61.8816 Q383.356 57.4256 383.356 49.3643 M390.81 66.9452 Q390.81 78.5308 385.665 84.1616 Q380.52 89.8329 369.907 89.8329 Q365.977 89.8329 362.494 89.2252 Q359.01 88.6581 355.729 87.4428 L355.729 80.1917 Q359.01 81.9741 362.21 82.8248 Q365.41 83.6755 368.732 83.6755 Q376.064 83.6755 379.71 79.8271 Q383.356 76.0193 383.356 68.282 L383.356 64.5957 Q381.047 68.6061 377.442 70.5911 Q373.836 72.576 368.813 72.576 Q360.468 72.576 355.364 66.2161 Q350.26 59.8562 350.26 49.3643 Q350.26 38.832 355.364 32.472 Q360.468 26.1121 368.813 26.1121 Q373.836 26.1121 377.442 28.0971 Q381.047 30.082 383.356 34.0924 L383.356 27.2059 L390.81 27.2059 L390.81 66.9452 Z" fill="#000000" fill-rule="nonzero" fill-opacity="1" /><path clip-path="url(#clip790)" d="M443.876 45.1919 L443.876 72.576 L436.423 72.576 L436.423 45.4349 Q436.423 38.994 433.911 35.7938 Q431.4 32.5936 426.376 32.5936 Q420.341 32.5936 416.857 36.4419 Q413.373 40.2903 413.373 46.9338 L413.373 72.576 L405.879 72.576 L405.879 27.2059 L413.373 27.2059 L413.373 34.2544 Q416.047 30.163 419.652 28.1376 Q423.298 26.1121 428.037 26.1121 Q435.856 26.1121 439.866 30.9732 Q443.876 35.7938 443.876 45.1919 Z" fill="#000000" fill-rule="nonzero" fill-opacity="1" /><path clip-path="url(#clip790)" d="M497.551 48.0275 L497.551 51.6733 L463.28 51.6733 Q463.766 59.3701 467.898 63.421 Q472.071 67.4314 479.484 67.4314 Q483.778 67.4314 487.788 66.3781 Q491.839 65.3249 495.809 63.2184 L495.809 70.267 Q491.799 71.9684 487.586 72.8596 Q483.373 73.7508 479.038 73.7508 Q468.182 73.7508 461.822 67.4314 Q455.502 61.1119 455.502 50.3365 Q455.502 39.1965 461.498 32.6746 Q467.534 26.1121 477.742 26.1121 Q486.897 26.1121 492.204 32.0264 Q497.551 37.9003 497.551 48.0275 M490.097 45.84 Q490.016 39.7232 486.654 36.0774 Q483.332 32.4315 477.823 32.4315 Q471.585 32.4315 467.817 35.9558 Q464.09 39.4801 463.523 45.8805 L490.097 45.84 Z" fill="#000000" fill-rule="nonzero" fill-opacity="1" /><path clip-path="url(#clip790)" d="M517.157 14.324 L517.157 27.2059 L532.51 27.2059 L532.51 32.9987 L517.157 32.9987 L517.157 57.6282 Q517.157 63.1779 518.656 64.7578 Q520.195 66.3376 524.854 66.3376 L532.51 66.3376 L532.51 72.576 L524.854 72.576 Q516.226 72.576 512.944 69.3758 Q509.663 66.1351 509.663 57.6282 L509.663 32.9987 L504.194 32.9987 L504.194 27.2059 L509.663 27.2059 L509.663 14.324 L517.157 14.324 Z" fill="#000000" fill-rule="nonzero" fill-opacity="1" /><path clip-path="url(#clip790)" d="M542.313 27.2059 L549.767 27.2059 L549.767 72.576 L542.313 72.576 L542.313 27.2059 M542.313 9.54393 L549.767 9.54393 L549.767 18.9825 L542.313 18.9825 L542.313 9.54393 Z" fill="#000000" fill-rule="nonzero" fill-opacity="1" /><path clip-path="url(#clip790)" d="M562.122 27.2059 L597.527 27.2059 L597.527 34.0114 L569.495 66.6212 L597.527 66.6212 L597.527 72.576 L561.11 72.576 L561.11 65.7705 L589.142 33.1607 L562.122 33.1607 L562.122 27.2059 Z" fill="#000000" fill-rule="nonzero" fill-opacity="1" /><path clip-path="url(#clip790)" d="M629.529 49.7694 Q620.496 49.7694 617.012 51.8354 Q613.528 53.9013 613.528 58.8839 Q613.528 62.8538 616.121 65.2034 Q618.754 67.5124 623.25 67.5124 Q629.448 67.5124 633.175 63.1374 Q636.942 58.7219 636.942 51.4303 L636.942 49.7694 L629.529 49.7694 M644.396 46.6907 L644.396 72.576 L636.942 72.576 L636.942 65.6895 Q634.39 69.8214 630.583 71.8063 Q626.775 73.7508 621.265 73.7508 Q614.298 73.7508 610.166 69.8619 Q606.075 65.9325 606.075 59.3701 Q606.075 51.7138 611.179 47.825 Q616.323 43.9361 626.491 43.9361 L636.942 43.9361 L636.942 43.2069 Q636.942 38.0623 633.54 35.2672 Q630.177 32.4315 624.061 32.4315 Q620.172 32.4315 616.485 33.3632 Q612.799 34.295 609.396 36.1584 L609.396 29.2718 Q613.488 27.692 617.336 26.9223 Q621.184 26.1121 624.83 26.1121 Q634.674 26.1121 639.535 31.2163 Q644.396 36.3204 644.396 46.6907 Z" fill="#000000" fill-rule="nonzero" fill-opacity="1" /><path clip-path="url(#clip790)" d="M667.122 14.324 L667.122 27.2059 L682.475 27.2059 L682.475 32.9987 L667.122 32.9987 L667.122 57.6282 Q667.122 63.1779 668.621 64.7578 Q670.16 66.3376 674.818 66.3376 L682.475 66.3376 L682.475 72.576 L674.818 72.576 Q666.19 72.576 662.909 69.3758 Q659.628 66.1351 659.628 57.6282 L659.628 32.9987 L654.159 32.9987 L654.159 27.2059 L659.628 27.2059 L659.628 14.324 L667.122 14.324 Z" fill="#000000" fill-rule="nonzero" fill-opacity="1" /><path clip-path="url(#clip790)" d="M692.278 27.2059 L699.731 27.2059 L699.731 72.576 L692.278 72.576 L692.278 27.2059 M692.278 9.54393 L699.731 9.54393 L699.731 18.9825 L692.278 18.9825 L692.278 9.54393 Z" fill="#000000" fill-rule="nonzero" fill-opacity="1" /><path clip-path="url(#clip790)" d="M732.908 32.4315 Q726.913 32.4315 723.429 37.1306 Q719.945 41.7891 719.945 49.9314 Q719.945 58.0738 723.389 62.7728 Q726.873 67.4314 732.908 67.4314 Q738.863 67.4314 742.347 62.7323 Q745.831 58.0333 745.831 49.9314 Q745.831 41.8701 742.347 37.1711 Q738.863 32.4315 732.908 32.4315 M732.908 26.1121 Q742.631 26.1121 748.18 32.4315 Q753.73 38.7509 753.73 49.9314 Q753.73 61.0714 748.18 67.4314 Q742.631 73.7508 732.908 73.7508 Q723.146 73.7508 717.596 67.4314 Q712.087 61.0714 712.087 49.9314 Q712.087 38.7509 717.596 32.4315 Q723.146 26.1121 732.908 26.1121 Z" fill="#000000" fill-rule="nonzero" fill-opacity="1" /><path clip-path="url(#clip790)" d="M803.799 45.1919 L803.799 72.576 L796.346 72.576 L796.346 45.4349 Q796.346 38.994 793.834 35.7938 Q791.322 32.5936 786.299 32.5936 Q780.263 32.5936 776.78 36.4419 Q773.296 40.2903 773.296 46.9338 L773.296 72.576 L765.802 72.576 L765.802 27.2059 L773.296 27.2059 L773.296 34.2544 Q775.969 30.163 779.575 28.1376 Q783.221 26.1121 787.96 26.1121 Q795.778 26.1121 799.789 30.9732 Q803.799 35.7938 803.799 45.1919 Z" fill="#000000" fill-rule="nonzero" fill-opacity="1" /><path clip-path="url(#clip790)" d="M839.69 27.2059 L847.589 27.2059 L861.768 65.2844 L875.946 27.2059 L883.845 27.2059 L866.831 72.576 L856.704 72.576 L839.69 27.2059 Z" fill="#000000" fill-rule="nonzero" fill-opacity="1" /><path clip-path="url(#clip790)" d="M923.058 28.5427 L923.058 35.5912 Q919.898 33.9709 916.495 33.1607 Q913.093 32.3505 909.447 32.3505 Q903.897 32.3505 901.102 34.0519 Q898.347 35.7533 898.347 39.156 Q898.347 41.7486 900.332 43.2475 Q902.317 44.7058 908.313 46.0426 L910.865 46.6097 Q918.804 48.3111 922.126 51.4303 Q925.488 54.509 925.488 60.0587 Q925.488 66.3781 920.465 70.0644 Q915.483 73.7508 906.733 73.7508 Q903.087 73.7508 899.117 73.0216 Q895.188 72.3329 890.813 70.9151 L890.813 63.2184 Q894.945 65.3654 898.955 66.4591 Q902.965 67.5124 906.895 67.5124 Q912.161 67.5124 914.997 65.73 Q917.832 63.9071 917.832 60.6258 Q917.832 57.5877 915.766 55.9673 Q913.741 54.3469 906.814 52.8481 L904.221 52.2405 Q897.294 50.7821 894.215 47.7845 Q891.137 44.7463 891.137 39.4801 Q891.137 33.0797 895.674 29.5959 Q900.211 26.1121 908.556 26.1121 Q912.688 26.1121 916.333 26.7198 Q919.979 27.3274 923.058 28.5427 Z" fill="#000000" fill-rule="nonzero" fill-opacity="1" /><path clip-path="url(#clip790)" d="M955.668 12.096 L1006.83 12.096 L1006.83 18.9825 L985.361 18.9825 L985.361 72.576 L977.137 72.576 L977.137 18.9825 L955.668 18.9825 L955.668 12.096 Z" fill="#000000" fill-rule="nonzero" fill-opacity="1" /><path clip-path="url(#clip790)" d="M1039.12 48.0275 L1039.12 51.6733 L1004.85 51.6733 Q1005.33 59.3701 1009.46 63.421 Q1013.64 67.4314 1021.05 67.4314 Q1025.34 67.4314 1029.35 66.3781 Q1033.4 65.3249 1037.37 63.2184 L1037.37 70.267 Q1033.36 71.9684 1029.15 72.8596 Q1024.94 73.7508 1020.6 73.7508 Q1009.75 73.7508 1003.39 67.4314 Q997.068 61.1119 997.068 50.3365 Q997.068 39.1965 1003.06 32.6746 Q1009.1 26.1121 1019.31 26.1121 Q1028.46 26.1121 1033.77 32.0264 Q1039.12 37.9003 1039.12 48.0275 M1031.66 45.84 Q1031.58 39.7232 1028.22 36.0774 Q1024.9 32.4315 1019.39 32.4315 Q1013.15 32.4315 1009.38 35.9558 Q1005.66 39.4801 1005.09 45.8805 L1031.66 45.84 Z" fill="#000000" fill-rule="nonzero" fill-opacity="1" /><path clip-path="url(#clip790)" d="M1086.67 35.9153 Q1089.47 30.8922 1093.36 28.5022 Q1097.25 26.1121 1102.51 26.1121 Q1109.6 26.1121 1113.45 31.0947 Q1117.3 36.0368 1117.3 45.1919 L1117.3 72.576 L1109.8 72.576 L1109.8 45.4349 Q1109.8 38.913 1107.5 35.7533 Q1105.19 32.5936 1100.45 32.5936 Q1094.65 32.5936 1091.29 36.4419 Q1087.93 40.2903 1087.93 46.9338 L1087.93 72.576 L1080.44 72.576 L1080.44 45.4349 Q1080.44 38.8725 1078.13 35.7533 Q1075.82 32.5936 1071 32.5936 Q1065.29 32.5936 1061.92 36.4824 Q1058.56 40.3308 1058.56 46.9338 L1058.56 72.576 L1051.07 72.576 L1051.07 27.2059 L1058.56 27.2059 L1058.56 34.2544 Q1061.11 30.082 1064.68 28.0971 Q1068.24 26.1121 1073.14 26.1121 Q1078.09 26.1121 1081.53 28.6237 Q1085.01 31.1352 1086.67 35.9153 Z" fill="#000000" fill-rule="nonzero" fill-opacity="1" /><path clip-path="url(#clip790)" d="M1139.38 65.7705 L1139.38 89.8329 L1131.88 89.8329 L1131.88 27.2059 L1139.38 27.2059 L1139.38 34.0924 Q1141.73 30.0415 1145.29 28.0971 Q1148.9 26.1121 1153.88 26.1121 Q1162.14 26.1121 1167.29 32.6746 Q1172.47 39.2371 1172.47 49.9314 Q1172.47 60.6258 1167.29 67.1883 Q1162.14 73.7508 1153.88 73.7508 Q1148.9 73.7508 1145.29 71.8063 Q1141.73 69.8214 1139.38 65.7705 M1164.73 49.9314 Q1164.73 41.7081 1161.33 37.0496 Q1157.97 32.3505 1152.06 32.3505 Q1146.14 32.3505 1142.74 37.0496 Q1139.38 41.7081 1139.38 49.9314 Q1139.38 58.1548 1142.74 62.8538 Q1146.14 67.5124 1152.06 67.5124 Q1157.97 67.5124 1161.33 62.8538 Q1164.73 58.1548 1164.73 49.9314 Z" fill="#000000" fill-rule="nonzero" fill-opacity="1" /><path clip-path="url(#clip790)" d="M1185.88 62.2867 L1194.43 62.2867 L1194.43 72.576 L1185.88 72.576 L1185.88 62.2867 Z" fill="#000000" fill-rule="nonzero" fill-opacity="1" /><path clip-path="url(#clip790)" d="M1258.19 49.7694 Q1249.16 49.7694 1245.67 51.8354 Q1242.19 53.9013 1242.19 58.8839 Q1242.19 62.8538 1244.78 65.2034 Q1247.41 67.5124 1251.91 67.5124 Q1258.11 67.5124 1261.83 63.1374 Q1265.6 58.7219 1265.6 51.4303 L1265.6 49.7694 L1258.19 49.7694 M1273.06 46.6907 L1273.06 72.576 L1265.6 72.576 L1265.6 65.6895 Q1263.05 69.8214 1259.24 71.8063 Q1255.43 73.7508 1249.93 73.7508 Q1242.96 73.7508 1238.83 69.8619 Q1234.73 65.9325 1234.73 59.3701 Q1234.73 51.7138 1239.84 47.825 Q1244.98 43.9361 1255.15 43.9361 L1265.6 43.9361 L1265.6 43.2069 Q1265.6 38.0623 1262.2 35.2672 Q1258.84 32.4315 1252.72 32.4315 Q1248.83 32.4315 1245.15 33.3632 Q1241.46 34.295 1238.06 36.1584 L1238.06 29.2718 Q1242.15 27.692 1246 26.9223 Q1249.84 26.1121 1253.49 26.1121 Q1263.33 26.1121 1268.19 31.2163 Q1273.06 36.3204 1273.06 46.6907 Z" fill="#000000" fill-rule="nonzero" fill-opacity="1" /><path clip-path="url(#clip790)" d="M1326.12 45.1919 L1326.12 72.576 L1318.67 72.576 L1318.67 45.4349 Q1318.67 38.994 1316.16 35.7938 Q1313.65 32.5936 1308.62 32.5936 Q1302.59 32.5936 1299.1 36.4419 Q1295.62 40.2903 1295.62 46.9338 L1295.62 72.576 L1288.13 72.576 L1288.13 27.2059 L1295.62 27.2059 L1295.62 34.2544 Q1298.29 30.163 1301.9 28.1376 Q1305.54 26.1121 1310.28 26.1121 Q1318.1 26.1121 1322.11 30.9732 Q1326.12 35.7938 1326.12 45.1919 Z" fill="#000000" fill-rule="nonzero" fill-opacity="1" /><path clip-path="url(#clip790)" d="M1370.84 34.0924 L1370.84 9.54393 L1378.3 9.54393 L1378.3 72.576 L1370.84 72.576 L1370.84 65.7705 Q1368.5 69.8214 1364.89 71.8063 Q1361.33 73.7508 1356.3 73.7508 Q1348.08 73.7508 1342.89 67.1883 Q1337.75 60.6258 1337.75 49.9314 Q1337.75 39.2371 1342.89 32.6746 Q1348.08 26.1121 1356.3 26.1121 Q1361.33 26.1121 1364.89 28.0971 Q1368.5 30.0415 1370.84 34.0924 M1345.45 49.9314 Q1345.45 58.1548 1348.81 62.8538 Q1352.21 67.5124 1358.12 67.5124 Q1364.04 67.5124 1367.44 62.8538 Q1370.84 58.1548 1370.84 49.9314 Q1370.84 41.7081 1367.44 37.0496 Q1364.04 32.3505 1358.12 32.3505 Q1352.21 32.3505 1348.81 37.0496 Q1345.45 41.7081 1345.45 49.9314 Z" fill="#000000" fill-rule="nonzero" fill-opacity="1" /><path clip-path="url(#clip790)" d="M1428.53 18.8205 L1428.53 65.8515 L1438.41 65.8515 Q1450.93 65.8515 1456.72 60.1802 Q1462.56 54.509 1462.56 42.2752 Q1462.56 30.1225 1456.72 24.4918 Q1450.93 18.8205 1438.41 18.8205 L1428.53 18.8205 M1420.35 12.096 L1437.16 12.096 Q1454.74 12.096 1462.96 19.4281 Q1471.19 26.7198 1471.19 42.2752 Q1471.19 57.9117 1462.92 65.2439 Q1454.66 72.576 1437.16 72.576 L1420.35 72.576 L1420.35 12.096 Z" fill="#000000" fill-rule="nonzero" fill-opacity="1" /><path clip-path="url(#clip790)" d="M1483.91 27.2059 L1491.36 27.2059 L1491.36 72.576 L1483.91 72.576 L1483.91 27.2059 M1483.91 9.54393 L1491.36 9.54393 L1491.36 18.9825 L1483.91 18.9825 L1483.91 9.54393 Z" fill="#000000" fill-rule="nonzero" fill-opacity="1" /><path clip-path="url(#clip790)" d="M1542.28 35.9153 Q1545.07 30.8922 1548.96 28.5022 Q1552.85 26.1121 1558.12 26.1121 Q1565.21 26.1121 1569.06 31.0947 Q1572.9 36.0368 1572.9 45.1919 L1572.9 72.576 L1565.41 72.576 L1565.41 45.4349 Q1565.41 38.913 1563.1 35.7533 Q1560.79 32.5936 1556.05 32.5936 Q1550.26 32.5936 1546.9 36.4419 Q1543.53 40.2903 1543.53 46.9338 L1543.53 72.576 L1536.04 72.576 L1536.04 45.4349 Q1536.04 38.8725 1533.73 35.7533 Q1531.42 32.5936 1526.6 32.5936 Q1520.89 32.5936 1517.53 36.4824 Q1514.17 40.3308 1514.17 46.9338 L1514.17 72.576 L1506.67 72.576 L1506.67 27.2059 L1514.17 27.2059 L1514.17 34.2544 Q1516.72 30.082 1520.28 28.0971 Q1523.85 26.1121 1528.75 26.1121 Q1533.69 26.1121 1537.13 28.6237 Q1540.62 31.1352 1542.28 35.9153 Z" fill="#000000" fill-rule="nonzero" fill-opacity="1" /><path clip-path="url(#clip790)" d="M1588.82 62.2867 L1597.37 62.2867 L1597.37 72.576 L1588.82 72.576 L1588.82 62.2867 Z" fill="#000000" fill-rule="nonzero" fill-opacity="1" /><path clip-path="url(#clip790)" d="M1658.09 32.4315 Q1652.1 32.4315 1648.62 37.1306 Q1645.13 41.7891 1645.13 49.9314 Q1645.13 58.0738 1648.57 62.7728 Q1652.06 67.4314 1658.09 67.4314 Q1664.05 67.4314 1667.53 62.7323 Q1671.02 58.0333 1671.02 49.9314 Q1671.02 41.8701 1667.53 37.1711 Q1664.05 32.4315 1658.09 32.4315 M1658.09 26.1121 Q1667.82 26.1121 1673.37 32.4315 Q1678.92 38.7509 1678.92 49.9314 Q1678.92 61.0714 1673.37 67.4314 Q1667.82 73.7508 1658.09 73.7508 Q1648.33 73.7508 1642.78 67.4314 Q1637.27 61.0714 1637.27 49.9314 Q1637.27 38.7509 1642.78 32.4315 Q1648.33 26.1121 1658.09 26.1121 Z" fill="#000000" fill-rule="nonzero" fill-opacity="1" /><path clip-path="url(#clip790)" d="M1714.24 9.54393 L1714.24 15.7418 L1707.11 15.7418 Q1703.1 15.7418 1701.52 17.3622 Q1699.98 18.9825 1699.98 23.1955 L1699.98 27.2059 L1712.25 27.2059 L1712.25 32.9987 L1699.98 32.9987 L1699.98 72.576 L1692.49 72.576 L1692.49 32.9987 L1685.36 32.9987 L1685.36 27.2059 L1692.49 27.2059 L1692.49 24.0462 Q1692.49 16.471 1696.01 13.0277 Q1699.54 9.54393 1707.19 9.54393 L1714.24 9.54393 Z" fill="#000000" fill-rule="nonzero" fill-opacity="1" /><path clip-path="url(#clip790)" d="M1783.43 14.0809 L1783.43 22.0612 Q1778.77 19.8332 1774.64 18.7395 Q1770.51 17.6457 1766.66 17.6457 Q1759.97 17.6457 1756.33 20.2383 Q1752.72 22.8309 1752.72 27.611 Q1752.72 31.6214 1755.11 33.6873 Q1757.54 35.7128 1764.27 36.9686 L1769.21 37.9813 Q1778.37 39.7232 1782.7 44.1387 Q1787.08 48.5136 1787.08 55.8863 Q1787.08 64.6767 1781.16 69.2137 Q1775.29 73.7508 1763.9 73.7508 Q1759.61 73.7508 1754.75 72.7785 Q1749.93 71.8063 1744.74 69.9024 L1744.74 61.4765 Q1749.73 64.2716 1754.51 65.6895 Q1759.29 67.1073 1763.9 67.1073 Q1770.91 67.1073 1774.72 64.3527 Q1778.53 61.598 1778.53 56.4939 Q1778.53 52.0379 1775.77 49.5264 Q1773.06 47.0148 1766.82 45.759 L1761.84 44.7868 Q1752.68 42.9639 1748.59 39.075 Q1744.5 35.1862 1744.5 28.2591 Q1744.5 20.2383 1750.13 15.6203 Q1755.8 11.0023 1765.73 11.0023 Q1769.98 11.0023 1774.4 11.7719 Q1778.81 12.5416 1783.43 14.0809 Z" fill="#000000" fill-rule="nonzero" fill-opacity="1" /><path clip-path="url(#clip790)" d="M1806.72 65.7705 L1806.72 89.8329 L1799.23 89.8329 L1799.23 27.2059 L1806.72 27.2059 L1806.72 34.0924 Q1809.07 30.0415 1812.64 28.0971 Q1816.24 26.1121 1821.22 26.1121 Q1829.49 26.1121 1834.63 32.6746 Q1839.82 39.2371 1839.82 49.9314 Q1839.82 60.6258 1834.63 67.1883 Q1829.49 73.7508 1821.22 73.7508 Q1816.24 73.7508 1812.64 71.8063 Q1809.07 69.8214 1806.72 65.7705 M1832.08 49.9314 Q1832.08 41.7081 1828.68 37.0496 Q1825.32 32.3505 1819.4 32.3505 Q1813.49 32.3505 1810.08 37.0496 Q1806.72 41.7081 1806.72 49.9314 Q1806.72 58.1548 1810.08 62.8538 Q1813.49 67.5124 1819.4 67.5124 Q1825.32 67.5124 1828.68 62.8538 Q1832.08 58.1548 1832.08 49.9314 Z" fill="#000000" fill-rule="nonzero" fill-opacity="1" /><path clip-path="url(#clip790)" d="M1852.17 27.2059 L1859.63 27.2059 L1859.63 72.576 L1852.17 72.576 L1852.17 27.2059 M1852.17 9.54393 L1859.63 9.54393 L1859.63 18.9825 L1852.17 18.9825 L1852.17 9.54393 Z" fill="#000000" fill-rule="nonzero" fill-opacity="1" /><path clip-path="url(#clip790)" d="M1912.94 45.1919 L1912.94 72.576 L1905.48 72.576 L1905.48 45.4349 Q1905.48 38.994 1902.97 35.7938 Q1900.46 32.5936 1895.44 32.5936 Q1889.4 32.5936 1885.92 36.4419 Q1882.43 40.2903 1882.43 46.9338 L1882.43 72.576 L1874.94 72.576 L1874.94 27.2059 L1882.43 27.2059 L1882.43 34.2544 Q1885.11 30.163 1888.71 28.1376 Q1892.36 26.1121 1897.1 26.1121 Q1904.92 26.1121 1908.93 30.9732 Q1912.94 35.7938 1912.94 45.1919 Z" fill="#000000" fill-rule="nonzero" fill-opacity="1" /><path clip-path="url(#clip790)" d="M1956.73 28.5427 L1956.73 35.5912 Q1953.57 33.9709 1950.16 33.1607 Q1946.76 32.3505 1943.12 32.3505 Q1937.57 32.3505 1934.77 34.0519 Q1932.02 35.7533 1932.02 39.156 Q1932.02 41.7486 1934 43.2475 Q1935.99 44.7058 1941.98 46.0426 L1944.53 46.6097 Q1952.47 48.3111 1955.8 51.4303 Q1959.16 54.509 1959.16 60.0587 Q1959.16 66.3781 1954.13 70.0644 Q1949.15 73.7508 1940.4 73.7508 Q1936.76 73.7508 1932.79 73.0216 Q1928.86 72.3329 1924.48 70.9151 L1924.48 63.2184 Q1928.61 65.3654 1932.62 66.4591 Q1936.63 67.5124 1940.56 67.5124 Q1945.83 67.5124 1948.67 65.73 Q1951.5 63.9071 1951.5 60.6258 Q1951.5 57.5877 1949.44 55.9673 Q1947.41 54.3469 1940.48 52.8481 L1937.89 52.2405 Q1930.96 50.7821 1927.88 47.7845 Q1924.81 44.7463 1924.81 39.4801 Q1924.81 33.0797 1929.34 29.5959 Q1933.88 26.1121 1942.22 26.1121 Q1946.36 26.1121 1950 26.7198 Q1953.65 27.3274 1956.73 28.5427 Z" fill="#000000" fill-rule="nonzero" fill-opacity="1" /><path clip-path="url(#clip790)" d="M2015.3 9.62495 Q2009.87 18.942 2007.24 28.0566 Q2004.61 37.1711 2004.61 46.5287 Q2004.61 55.8863 2007.24 65.0818 Q2009.92 74.2369 2015.3 83.5134 L2008.82 83.5134 Q2002.75 73.9938 1999.71 64.7983 Q1996.71 55.6027 1996.71 46.5287 Q1996.71 37.4952 1999.71 28.3401 Q2002.7 19.1851 2008.82 9.62495 L2015.3 9.62495 Z" fill="#000000" fill-rule="nonzero" fill-opacity="1" /><path clip-path="url(#clip790)" d="M2037.87 65.6895 L2066.43 65.6895 L2066.43 72.576 L2028.02 72.576 L2028.02 65.6895 Q2032.68 60.8689 2040.7 52.7671 Q2048.76 44.6248 2050.83 42.2752 Q2054.76 37.8598 2056.3 34.8216 Q2057.88 31.7429 2057.88 28.7857 Q2057.88 23.9651 2054.48 20.927 Q2051.11 17.8888 2045.68 17.8888 Q2041.84 17.8888 2037.54 19.2256 Q2033.29 20.5624 2028.43 23.2765 L2028.43 15.0127 Q2033.37 13.0277 2037.66 12.015 Q2041.96 11.0023 2045.52 11.0023 Q2054.92 11.0023 2060.51 15.7013 Q2066.1 20.4004 2066.1 28.2591 Q2066.1 31.9859 2064.68 35.3482 Q2063.31 38.6699 2059.62 43.2069 Q2058.61 44.3817 2053.18 50.0125 Q2047.75 55.6027 2037.87 65.6895 Z" fill="#000000" fill-rule="nonzero" fill-opacity="1" /><path clip-path="url(#clip790)" d="M2121.36 48.0275 L2121.36 51.6733 L2087.09 51.6733 Q2087.57 59.3701 2091.7 63.421 Q2095.88 67.4314 2103.29 67.4314 Q2107.58 67.4314 2111.59 66.3781 Q2115.64 65.3249 2119.61 63.2184 L2119.61 70.267 Q2115.6 71.9684 2111.39 72.8596 Q2107.18 73.7508 2102.84 73.7508 Q2091.99 73.7508 2085.63 67.4314 Q2079.31 61.1119 2079.31 50.3365 Q2079.31 39.1965 2085.3 32.6746 Q2091.34 26.1121 2101.55 26.1121 Q2110.7 26.1121 2116.01 32.0264 Q2121.36 37.9003 2121.36 48.0275 M2113.9 45.84 Q2113.82 39.7232 2110.46 36.0774 Q2107.14 32.4315 2101.63 32.4315 Q2095.39 32.4315 2091.62 35.9558 Q2087.9 39.4801 2087.33 45.8805 L2113.9 45.84 Z" fill="#000000" fill-rule="nonzero" fill-opacity="1" /><path clip-path="url(#clip790)" d="M2132.58 12.096 L2171.47 12.096 L2171.47 15.5798 L2149.51 72.576 L2140.96 72.576 L2161.62 18.9825 L2132.58 18.9825 L2132.58 12.096 Z" fill="#000000" fill-rule="nonzero" fill-opacity="1" /><path clip-path="url(#clip790)" d="M2212.74 27.2059 L2220.2 27.2059 L2220.2 72.576 L2212.74 72.576 L2212.74 27.2059 M2212.74 9.54393 L2220.2 9.54393 L2220.2 18.9825 L2212.74 18.9825 L2212.74 9.54393 Z" fill="#000000" fill-rule="nonzero" fill-opacity="1" /><path clip-path="url(#clip790)" d="M2243.17 14.324 L2243.17 27.2059 L2258.52 27.2059 L2258.52 32.9987 L2243.17 32.9987 L2243.17 57.6282 Q2243.17 63.1779 2244.67 64.7578 Q2246.2 66.3376 2250.86 66.3376 L2258.52 66.3376 L2258.52 72.576 L2250.86 72.576 Q2242.23 72.576 2238.95 69.3758 Q2235.67 66.1351 2235.67 57.6282 L2235.67 32.9987 L2230.2 32.9987 L2230.2 27.2059 L2235.67 27.2059 L2235.67 14.324 L2243.17 14.324 Z" fill="#000000" fill-rule="nonzero" fill-opacity="1" /><path clip-path="url(#clip790)" d="M2307.13 48.0275 L2307.13 51.6733 L2272.86 51.6733 Q2273.35 59.3701 2277.48 63.421 Q2281.65 67.4314 2289.06 67.4314 Q2293.36 67.4314 2297.37 66.3781 Q2301.42 65.3249 2305.39 63.2184 L2305.39 70.267 Q2301.38 71.9684 2297.17 72.8596 Q2292.95 73.7508 2288.62 73.7508 Q2277.76 73.7508 2271.4 67.4314 Q2265.08 61.1119 2265.08 50.3365 Q2265.08 39.1965 2271.08 32.6746 Q2277.11 26.1121 2287.32 26.1121 Q2296.48 26.1121 2301.78 32.0264 Q2307.13 37.9003 2307.13 48.0275 M2299.68 45.84 Q2299.6 39.7232 2296.23 36.0774 Q2292.91 32.4315 2287.4 32.4315 Q2281.16 32.4315 2277.4 35.9558 Q2273.67 39.4801 2273.1 45.8805 L2299.68 45.84 Z" fill="#000000" fill-rule="nonzero" fill-opacity="1" /><path clip-path="url(#clip790)" d="M2345.65 34.1734 Q2344.4 33.4443 2342.9 33.1202 Q2341.44 32.7556 2339.66 32.7556 Q2333.34 32.7556 2329.94 36.8875 Q2326.57 40.9789 2326.57 48.6757 L2326.57 72.576 L2319.08 72.576 L2319.08 27.2059 L2326.57 27.2059 L2326.57 34.2544 Q2328.92 30.1225 2332.69 28.1376 Q2336.46 26.1121 2341.85 26.1121 Q2342.62 26.1121 2343.55 26.2337 Q2344.48 26.3147 2345.61 26.5172 L2345.65 34.1734 Z" fill="#000000" fill-rule="nonzero" fill-opacity="1" /><path clip-path="url(#clip790)" d="M2352.3 9.62495 L2358.78 9.62495 Q2364.86 19.1851 2367.85 28.3401 Q2370.89 37.4952 2370.89 46.5287 Q2370.89 55.6027 2367.85 64.7983 Q2364.86 73.9938 2358.78 83.5134 L2352.3 83.5134 Q2357.69 74.2369 2360.32 65.0818 Q2362.99 55.8863 2362.99 46.5287 Q2362.99 37.1711 2360.32 28.0566 Q2357.69 18.942 2352.3 9.62495 Z" fill="#000000" fill-rule="nonzero" fill-opacity="1" /><circle clip-path="url(#clip792)" cx="309.067" cy="160.256" r="14.4" fill="#009af9" fill-rule="evenodd" fill-opacity="1" stroke="#000000" stroke-opacity="1" stroke-width="3.2"/>
<circle clip-path="url(#clip792)" cx="349.56" cy="160.256" r="14.4" fill="#009af9" fill-rule="evenodd" fill-opacity="1" stroke="#000000" stroke-opacity="1" stroke-width="3.2"/>
<circle clip-path="url(#clip792)" cx="390.053" cy="160.256" r="14.4" fill="#009af9" fill-rule="evenodd" fill-opacity="1" stroke="#000000" stroke-opacity="1" stroke-width="3.2"/>
<circle clip-path="url(#clip792)" cx="430.546" cy="160.256" r="14.4" fill="#009af9" fill-rule="evenodd" fill-opacity="1" stroke="#000000" stroke-opacity="1" stroke-width="3.2"/>
<circle clip-path="url(#clip792)" cx="471.04" cy="160.256" r="14.4" fill="#009af9" fill-rule="evenodd" fill-opacity="1" stroke="#000000" stroke-opacity="1" stroke-width="3.2"/>
<circle clip-path="url(#clip792)" cx="511.533" cy="160.256" r="14.4" fill="#009af9" fill-rule="evenodd" fill-opacity="1" stroke="#000000" stroke-opacity="1" stroke-width="3.2"/>
<circle clip-path="url(#clip792)" cx="552.026" cy="160.256" r="14.4" fill="#009af9" fill-rule="evenodd" fill-opacity="1" stroke="#000000" stroke-opacity="1" stroke-width="3.2"/>
<circle clip-path="url(#clip792)" cx="592.519" cy="160.256" r="14.4" fill="#009af9" fill-rule="evenodd" fill-opacity="1" stroke="#000000" stroke-opacity="1" stroke-width="3.2"/>
<circle clip-path="url(#clip792)" cx="633.012" cy="160.256" r="14.4" fill="#009af9" fill-rule="evenodd" fill-opacity="1" stroke="#000000" stroke-opacity="1" stroke-width="3.2"/>
<circle clip-path="url(#clip792)" cx="673.505" cy="160.256" r="14.4" fill="#009af9" fill-rule="evenodd" fill-opacity="1" stroke="#000000" stroke-opacity="1" stroke-width="3.2"/>
<circle clip-path="url(#clip792)" cx="713.998" cy="160.256" r="14.4" fill="#009af9" fill-rule="evenodd" fill-opacity="1" stroke="#000000" stroke-opacity="1" stroke-width="3.2"/>
<circle clip-path="url(#clip792)" cx="754.492" cy="160.256" r="14.4" fill="#009af9" fill-rule="evenodd" fill-opacity="1" stroke="#000000" stroke-opacity="1" stroke-width="3.2"/>
<circle clip-path="url(#clip792)" cx="794.985" cy="160.502" r="14.4" fill="#009af9" fill-rule="evenodd" fill-opacity="1" stroke="#000000" stroke-opacity="1" stroke-width="3.2"/>
<circle clip-path="url(#clip792)" cx="835.478" cy="160.502" r="14.4" fill="#009af9" fill-rule="evenodd" fill-opacity="1" stroke="#000000" stroke-opacity="1" stroke-width="3.2"/>
<circle clip-path="url(#clip792)" cx="875.971" cy="161.238" r="14.4" fill="#009af9" fill-rule="evenodd" fill-opacity="1" stroke="#000000" stroke-opacity="1" stroke-width="3.2"/>
<circle clip-path="url(#clip792)" cx="916.464" cy="160.992" r="14.4" fill="#009af9" fill-rule="evenodd" fill-opacity="1" stroke="#000000" stroke-opacity="1" stroke-width="3.2"/>
<circle clip-path="url(#clip792)" cx="956.957" cy="161.728" r="14.4" fill="#009af9" fill-rule="evenodd" fill-opacity="1" stroke="#000000" stroke-opacity="1" stroke-width="3.2"/>
<circle clip-path="url(#clip792)" cx="997.45" cy="162.955" r="14.4" fill="#009af9" fill-rule="evenodd" fill-opacity="1" stroke="#000000" stroke-opacity="1" stroke-width="3.2"/>
<circle clip-path="url(#clip792)" cx="1037.94" cy="162.464" r="14.4" fill="#009af9" fill-rule="evenodd" fill-opacity="1" stroke="#000000" stroke-opacity="1" stroke-width="3.2"/>
<circle clip-path="url(#clip792)" cx="1078.44" cy="164.427" r="14.4" fill="#009af9" fill-rule="evenodd" fill-opacity="1" stroke="#000000" stroke-opacity="1" stroke-width="3.2"/>
<circle clip-path="url(#clip792)" cx="1118.93" cy="164.918" r="14.4" fill="#009af9" fill-rule="evenodd" fill-opacity="1" stroke="#000000" stroke-opacity="1" stroke-width="3.2"/>
<circle clip-path="url(#clip792)" cx="1159.42" cy="170.316" r="14.4" fill="#009af9" fill-rule="evenodd" fill-opacity="1" stroke="#000000" stroke-opacity="1" stroke-width="3.2"/>
<circle clip-path="url(#clip792)" cx="1199.92" cy="171.542" r="14.4" fill="#009af9" fill-rule="evenodd" fill-opacity="1" stroke="#000000" stroke-opacity="1" stroke-width="3.2"/>
<circle clip-path="url(#clip792)" cx="1240.41" cy="176.695" r="14.4" fill="#009af9" fill-rule="evenodd" fill-opacity="1" stroke="#000000" stroke-opacity="1" stroke-width="3.2"/>
<circle clip-path="url(#clip792)" cx="1280.9" cy="180.62" r="14.4" fill="#009af9" fill-rule="evenodd" fill-opacity="1" stroke="#000000" stroke-opacity="1" stroke-width="3.2"/>
<circle clip-path="url(#clip792)" cx="1321.4" cy="181.847" r="14.4" fill="#009af9" fill-rule="evenodd" fill-opacity="1" stroke="#000000" stroke-opacity="1" stroke-width="3.2"/>
<circle clip-path="url(#clip792)" cx="1361.89" cy="190.679" r="14.4" fill="#009af9" fill-rule="evenodd" fill-opacity="1" stroke="#000000" stroke-opacity="1" stroke-width="3.2"/>
<circle clip-path="url(#clip792)" cx="1402.38" cy="205.4" r="14.4" fill="#009af9" fill-rule="evenodd" fill-opacity="1" stroke="#000000" stroke-opacity="1" stroke-width="3.2"/>
<circle clip-path="url(#clip792)" cx="1442.87" cy="216.441" r="14.4" fill="#009af9" fill-rule="evenodd" fill-opacity="1" stroke="#000000" stroke-opacity="1" stroke-width="3.2"/>
<circle clip-path="url(#clip792)" cx="1483.37" cy="230.426" r="14.4" fill="#009af9" fill-rule="evenodd" fill-opacity="1" stroke="#000000" stroke-opacity="1" stroke-width="3.2"/>
<circle clip-path="url(#clip792)" cx="1523.86" cy="232.388" r="14.4" fill="#009af9" fill-rule="evenodd" fill-opacity="1" stroke="#000000" stroke-opacity="1" stroke-width="3.2"/>
<circle clip-path="url(#clip792)" cx="1564.35" cy="265.265" r="14.4" fill="#009af9" fill-rule="evenodd" fill-opacity="1" stroke="#000000" stroke-opacity="1" stroke-width="3.2"/>
<circle clip-path="url(#clip792)" cx="1604.85" cy="273.607" r="14.4" fill="#009af9" fill-rule="evenodd" fill-opacity="1" stroke="#000000" stroke-opacity="1" stroke-width="3.2"/>
<circle clip-path="url(#clip792)" cx="1645.34" cy="300.84" r="14.4" fill="#009af9" fill-rule="evenodd" fill-opacity="1" stroke="#000000" stroke-opacity="1" stroke-width="3.2"/>
<circle clip-path="url(#clip792)" cx="1685.83" cy="363.159" r="14.4" fill="#009af9" fill-rule="evenodd" fill-opacity="1" stroke="#000000" stroke-opacity="1" stroke-width="3.2"/>
<circle clip-path="url(#clip792)" cx="1726.33" cy="389.165" r="14.4" fill="#009af9" fill-rule="evenodd" fill-opacity="1" stroke="#000000" stroke-opacity="1" stroke-width="3.2"/>
<circle clip-path="url(#clip792)" cx="1766.82" cy="523.861" r="14.4" fill="#009af9" fill-rule="evenodd" fill-opacity="1" stroke="#000000" stroke-opacity="1" stroke-width="3.2"/>
<circle clip-path="url(#clip792)" cx="1807.31" cy="504.479" r="14.4" fill="#009af9" fill-rule="evenodd" fill-opacity="1" stroke="#000000" stroke-opacity="1" stroke-width="3.2"/>
<circle clip-path="url(#clip792)" cx="1847.81" cy="852.627" r="14.4" fill="#009af9" fill-rule="evenodd" fill-opacity="1" stroke="#000000" stroke-opacity="1" stroke-width="3.2"/>
<circle clip-path="url(#clip792)" cx="1888.3" cy="1263.83" r="14.4" fill="#009af9" fill-rule="evenodd" fill-opacity="1" stroke="#000000" stroke-opacity="1" stroke-width="3.2"/>
<circle clip-path="url(#clip792)" cx="1928.79" cy="1239.54" r="14.4" fill="#009af9" fill-rule="evenodd" fill-opacity="1" stroke="#000000" stroke-opacity="1" stroke-width="3.2"/>
<circle clip-path="url(#clip792)" cx="1969.29" cy="1339.89" r="14.4" fill="#009af9" fill-rule="evenodd" fill-opacity="1" stroke="#000000" stroke-opacity="1" stroke-width="3.2"/>
<circle clip-path="url(#clip792)" cx="2009.78" cy="1349.21" r="14.4" fill="#009af9" fill-rule="evenodd" fill-opacity="1" stroke="#000000" stroke-opacity="1" stroke-width="3.2"/>
<circle clip-path="url(#clip792)" cx="2050.27" cy="1375.22" r="14.4" fill="#009af9" fill-rule="evenodd" fill-opacity="1" stroke="#000000" stroke-opacity="1" stroke-width="3.2"/>
<circle clip-path="url(#clip792)" cx="2090.77" cy="1290.08" r="14.4" fill="#009af9" fill-rule="evenodd" fill-opacity="1" stroke="#000000" stroke-opacity="1" stroke-width="3.2"/>
<circle clip-path="url(#clip792)" cx="2131.26" cy="1315.6" r="14.4" fill="#009af9" fill-rule="evenodd" fill-opacity="1" stroke="#000000" stroke-opacity="1" stroke-width="3.2"/>
<circle clip-path="url(#clip792)" cx="2171.75" cy="1361.48" r="14.4" fill="#009af9" fill-rule="evenodd" fill-opacity="1" stroke="#000000" stroke-opacity="1" stroke-width="3.2"/>
<circle clip-path="url(#clip792)" cx="2212.24" cy="1336.21" r="14.4" fill="#009af9" fill-rule="evenodd" fill-opacity="1" stroke="#000000" stroke-opacity="1" stroke-width="3.2"/>
<circle clip-path="url(#clip792)" cx="2252.74" cy="1379.14" r="14.4" fill="#009af9" fill-rule="evenodd" fill-opacity="1" stroke="#000000" stroke-opacity="1" stroke-width="3.2"/>
<circle clip-path="url(#clip792)" cx="2293.23" cy="1368.59" r="14.4" fill="#009af9" fill-rule="evenodd" fill-opacity="1" stroke="#000000" stroke-opacity="1" stroke-width="3.2"/>
<circle clip-path="url(#clip792)" cx="309.067" cy="160.406" r="14.4" fill="#e26f46" fill-rule="evenodd" fill-opacity="1" stroke="#000000" stroke-opacity="1" stroke-width="3.2"/>
<circle clip-path="url(#clip792)" cx="349.56" cy="171.437" r="14.4" fill="#e26f46" fill-rule="evenodd" fill-opacity="1" stroke="#000000" stroke-opacity="1" stroke-width="3.2"/>
<circle clip-path="url(#clip792)" cx="390.053" cy="183.228" r="14.4" fill="#e26f46" fill-rule="evenodd" fill-opacity="1" stroke="#000000" stroke-opacity="1" stroke-width="3.2"/>
<circle clip-path="url(#clip792)" cx="430.546" cy="195.431" r="14.4" fill="#e26f46" fill-rule="evenodd" fill-opacity="1" stroke="#000000" stroke-opacity="1" stroke-width="3.2"/>
<circle clip-path="url(#clip792)" cx="471.04" cy="206.042" r="14.4" fill="#e26f46" fill-rule="evenodd" fill-opacity="1" stroke="#000000" stroke-opacity="1" stroke-width="3.2"/>
<circle clip-path="url(#clip792)" cx="511.533" cy="216.629" r="14.4" fill="#e26f46" fill-rule="evenodd" fill-opacity="1" stroke="#000000" stroke-opacity="1" stroke-width="3.2"/>
<circle clip-path="url(#clip792)" cx="552.026" cy="228.978" r="14.4" fill="#e26f46" fill-rule="evenodd" fill-opacity="1" stroke="#000000" stroke-opacity="1" stroke-width="3.2"/>
<circle clip-path="url(#clip792)" cx="592.519" cy="244.837" r="14.4" fill="#e26f46" fill-rule="evenodd" fill-opacity="1" stroke="#000000" stroke-opacity="1" stroke-width="3.2"/>
<circle clip-path="url(#clip792)" cx="633.012" cy="256.041" r="14.4" fill="#e26f46" fill-rule="evenodd" fill-opacity="1" stroke="#000000" stroke-opacity="1" stroke-width="3.2"/>
<circle clip-path="url(#clip792)" cx="673.505" cy="278.612" r="14.4" fill="#e26f46" fill-rule="evenodd" fill-opacity="1" stroke="#000000" stroke-opacity="1" stroke-width="3.2"/>
<circle clip-path="url(#clip792)" cx="713.998" cy="297.625" r="14.4" fill="#e26f46" fill-rule="evenodd" fill-opacity="1" stroke="#000000" stroke-opacity="1" stroke-width="3.2"/>
<circle clip-path="url(#clip792)" cx="754.492" cy="315.818" r="14.4" fill="#e26f46" fill-rule="evenodd" fill-opacity="1" stroke="#000000" stroke-opacity="1" stroke-width="3.2"/>
<circle clip-path="url(#clip792)" cx="794.985" cy="340.589" r="14.4" fill="#e26f46" fill-rule="evenodd" fill-opacity="1" stroke="#000000" stroke-opacity="1" stroke-width="3.2"/>
<circle clip-path="url(#clip792)" cx="835.478" cy="386.101" r="14.4" fill="#e26f46" fill-rule="evenodd" fill-opacity="1" stroke="#000000" stroke-opacity="1" stroke-width="3.2"/>
<circle clip-path="url(#clip792)" cx="875.971" cy="418.374" r="14.4" fill="#e26f46" fill-rule="evenodd" fill-opacity="1" stroke="#000000" stroke-opacity="1" stroke-width="3.2"/>
<circle clip-path="url(#clip792)" cx="916.464" cy="524.781" r="14.4" fill="#e26f46" fill-rule="evenodd" fill-opacity="1" stroke="#000000" stroke-opacity="1" stroke-width="3.2"/>
<circle clip-path="url(#clip792)" cx="956.957" cy="544.103" r="14.4" fill="#e26f46" fill-rule="evenodd" fill-opacity="1" stroke="#000000" stroke-opacity="1" stroke-width="3.2"/>
<circle clip-path="url(#clip792)" cx="997.45" cy="920.939" r="14.4" fill="#e26f46" fill-rule="evenodd" fill-opacity="1" stroke="#000000" stroke-opacity="1" stroke-width="3.2"/>
<circle clip-path="url(#clip792)" cx="1037.94" cy="1298.91" r="14.4" fill="#e26f46" fill-rule="evenodd" fill-opacity="1" stroke="#000000" stroke-opacity="1" stroke-width="3.2"/>
<circle clip-path="url(#clip792)" cx="1078.44" cy="1368.68" r="14.4" fill="#e26f46" fill-rule="evenodd" fill-opacity="1" stroke="#000000" stroke-opacity="1" stroke-width="3.2"/>
<circle clip-path="url(#clip792)" cx="1118.93" cy="1364.82" r="14.4" fill="#e26f46" fill-rule="evenodd" fill-opacity="1" stroke="#000000" stroke-opacity="1" stroke-width="3.2"/>
<circle clip-path="url(#clip792)" cx="1159.42" cy="1371.73" r="14.4" fill="#e26f46" fill-rule="evenodd" fill-opacity="1" stroke="#000000" stroke-opacity="1" stroke-width="3.2"/>
<circle clip-path="url(#clip792)" cx="1199.92" cy="1306.13" r="14.4" fill="#e26f46" fill-rule="evenodd" fill-opacity="1" stroke="#000000" stroke-opacity="1" stroke-width="3.2"/>
<circle clip-path="url(#clip792)" cx="1240.41" cy="1336.88" r="14.4" fill="#e26f46" fill-rule="evenodd" fill-opacity="1" stroke="#000000" stroke-opacity="1" stroke-width="3.2"/>
<circle clip-path="url(#clip792)" cx="1280.9" cy="1362.88" r="14.4" fill="#e26f46" fill-rule="evenodd" fill-opacity="1" stroke="#000000" stroke-opacity="1" stroke-width="3.2"/>
<circle clip-path="url(#clip792)" cx="1321.4" cy="1373.58" r="14.4" fill="#e26f46" fill-rule="evenodd" fill-opacity="1" stroke="#000000" stroke-opacity="1" stroke-width="3.2"/>
<circle clip-path="url(#clip792)" cx="1361.89" cy="1348.03" r="14.4" fill="#e26f46" fill-rule="evenodd" fill-opacity="1" stroke="#000000" stroke-opacity="1" stroke-width="3.2"/>
<circle clip-path="url(#clip792)" cx="1402.38" cy="1376.6" r="14.4" fill="#e26f46" fill-rule="evenodd" fill-opacity="1" stroke="#000000" stroke-opacity="1" stroke-width="3.2"/>
<circle clip-path="url(#clip792)" cx="1442.87" cy="1353.01" r="14.4" fill="#e26f46" fill-rule="evenodd" fill-opacity="1" stroke="#000000" stroke-opacity="1" stroke-width="3.2"/>
<circle clip-path="url(#clip792)" cx="1483.37" cy="1358.46" r="14.4" fill="#e26f46" fill-rule="evenodd" fill-opacity="1" stroke="#000000" stroke-opacity="1" stroke-width="3.2"/>
<circle clip-path="url(#clip792)" cx="1523.86" cy="1359.4" r="14.4" fill="#e26f46" fill-rule="evenodd" fill-opacity="1" stroke="#000000" stroke-opacity="1" stroke-width="3.2"/>
<circle clip-path="url(#clip792)" cx="1564.35" cy="1386.4" r="14.4" fill="#e26f46" fill-rule="evenodd" fill-opacity="1" stroke="#000000" stroke-opacity="1" stroke-width="3.2"/>
<circle clip-path="url(#clip792)" cx="1604.85" cy="1375.62" r="14.4" fill="#e26f46" fill-rule="evenodd" fill-opacity="1" stroke="#000000" stroke-opacity="1" stroke-width="3.2"/>
<circle clip-path="url(#clip792)" cx="1645.34" cy="1371.24" r="14.4" fill="#e26f46" fill-rule="evenodd" fill-opacity="1" stroke="#000000" stroke-opacity="1" stroke-width="3.2"/>
<circle clip-path="url(#clip792)" cx="1685.83" cy="1373.68" r="14.4" fill="#e26f46" fill-rule="evenodd" fill-opacity="1" stroke="#000000" stroke-opacity="1" stroke-width="3.2"/>
<circle clip-path="url(#clip792)" cx="1726.33" cy="1375.01" r="14.4" fill="#e26f46" fill-rule="evenodd" fill-opacity="1" stroke="#000000" stroke-opacity="1" stroke-width="3.2"/>
<circle clip-path="url(#clip792)" cx="1766.82" cy="1370.58" r="14.4" fill="#e26f46" fill-rule="evenodd" fill-opacity="1" stroke="#000000" stroke-opacity="1" stroke-width="3.2"/>
<circle clip-path="url(#clip792)" cx="1807.31" cy="1366.07" r="14.4" fill="#e26f46" fill-rule="evenodd" fill-opacity="1" stroke="#000000" stroke-opacity="1" stroke-width="3.2"/>
<circle clip-path="url(#clip792)" cx="1847.81" cy="1365.09" r="14.4" fill="#e26f46" fill-rule="evenodd" fill-opacity="1" stroke="#000000" stroke-opacity="1" stroke-width="3.2"/>
<circle clip-path="url(#clip792)" cx="1888.3" cy="1350.68" r="14.4" fill="#e26f46" fill-rule="evenodd" fill-opacity="1" stroke="#000000" stroke-opacity="1" stroke-width="3.2"/>
<circle clip-path="url(#clip792)" cx="1928.79" cy="1367.6" r="14.4" fill="#e26f46" fill-rule="evenodd" fill-opacity="1" stroke="#000000" stroke-opacity="1" stroke-width="3.2"/>
<circle clip-path="url(#clip792)" cx="1969.29" cy="1360.45" r="14.4" fill="#e26f46" fill-rule="evenodd" fill-opacity="1" stroke="#000000" stroke-opacity="1" stroke-width="3.2"/>
<circle clip-path="url(#clip792)" cx="2009.78" cy="1344.03" r="14.4" fill="#e26f46" fill-rule="evenodd" fill-opacity="1" stroke="#000000" stroke-opacity="1" stroke-width="3.2"/>
<circle clip-path="url(#clip792)" cx="2050.27" cy="1373.45" r="14.4" fill="#e26f46" fill-rule="evenodd" fill-opacity="1" stroke="#000000" stroke-opacity="1" stroke-width="3.2"/>
<circle clip-path="url(#clip792)" cx="2090.77" cy="1361.81" r="14.4" fill="#e26f46" fill-rule="evenodd" fill-opacity="1" stroke="#000000" stroke-opacity="1" stroke-width="3.2"/>
<circle clip-path="url(#clip792)" cx="2131.26" cy="1367.07" r="14.4" fill="#e26f46" fill-rule="evenodd" fill-opacity="1" stroke="#000000" stroke-opacity="1" stroke-width="3.2"/>
<circle clip-path="url(#clip792)" cx="2171.75" cy="1367.58" r="14.4" fill="#e26f46" fill-rule="evenodd" fill-opacity="1" stroke="#000000" stroke-opacity="1" stroke-width="3.2"/>
<circle clip-path="url(#clip792)" cx="2212.24" cy="1374.95" r="14.4" fill="#e26f46" fill-rule="evenodd" fill-opacity="1" stroke="#000000" stroke-opacity="1" stroke-width="3.2"/>
<circle clip-path="url(#clip792)" cx="2252.74" cy="1361.43" r="14.4" fill="#e26f46" fill-rule="evenodd" fill-opacity="1" stroke="#000000" stroke-opacity="1" stroke-width="3.2"/>
<circle clip-path="url(#clip792)" cx="2293.23" cy="1369.98" r="14.4" fill="#e26f46" fill-rule="evenodd" fill-opacity="1" stroke="#000000" stroke-opacity="1" stroke-width="3.2"/>
<circle clip-path="url(#clip792)" cx="309.067" cy="161.41" r="14.4" fill="#3da44d" fill-rule="evenodd" fill-opacity="1" stroke="#000000" stroke-opacity="1" stroke-width="3.2"/>
<circle clip-path="url(#clip792)" cx="349.56" cy="183.124" r="14.4" fill="#3da44d" fill-rule="evenodd" fill-opacity="1" stroke="#000000" stroke-opacity="1" stroke-width="3.2"/>
<circle clip-path="url(#clip792)" cx="390.053" cy="203.859" r="14.4" fill="#3da44d" fill-rule="evenodd" fill-opacity="1" stroke="#000000" stroke-opacity="1" stroke-width="3.2"/>
<circle clip-path="url(#clip792)" cx="430.546" cy="225.611" r="14.4" fill="#3da44d" fill-rule="evenodd" fill-opacity="1" stroke="#000000" stroke-opacity="1" stroke-width="3.2"/>
<circle clip-path="url(#clip792)" cx="471.04" cy="250.278" r="14.4" fill="#3da44d" fill-rule="evenodd" fill-opacity="1" stroke="#000000" stroke-opacity="1" stroke-width="3.2"/>
<circle clip-path="url(#clip792)" cx="511.533" cy="280.225" r="14.4" fill="#3da44d" fill-rule="evenodd" fill-opacity="1" stroke="#000000" stroke-opacity="1" stroke-width="3.2"/>
<circle clip-path="url(#clip792)" cx="552.026" cy="312.889" r="14.4" fill="#3da44d" fill-rule="evenodd" fill-opacity="1" stroke="#000000" stroke-opacity="1" stroke-width="3.2"/>
<circle clip-path="url(#clip792)" cx="592.519" cy="351.499" r="14.4" fill="#3da44d" fill-rule="evenodd" fill-opacity="1" stroke="#000000" stroke-opacity="1" stroke-width="3.2"/>
<circle clip-path="url(#clip792)" cx="633.012" cy="410.653" r="14.4" fill="#3da44d" fill-rule="evenodd" fill-opacity="1" stroke="#000000" stroke-opacity="1" stroke-width="3.2"/>
<circle clip-path="url(#clip792)" cx="673.505" cy="486.407" r="14.4" fill="#3da44d" fill-rule="evenodd" fill-opacity="1" stroke="#000000" stroke-opacity="1" stroke-width="3.2"/>
<circle clip-path="url(#clip792)" cx="713.998" cy="1213.11" r="14.4" fill="#3da44d" fill-rule="evenodd" fill-opacity="1" stroke="#000000" stroke-opacity="1" stroke-width="3.2"/>
<circle clip-path="url(#clip792)" cx="754.492" cy="1319.01" r="14.4" fill="#3da44d" fill-rule="evenodd" fill-opacity="1" stroke="#000000" stroke-opacity="1" stroke-width="3.2"/>
<circle clip-path="url(#clip792)" cx="794.985" cy="1344.22" r="14.4" fill="#3da44d" fill-rule="evenodd" fill-opacity="1" stroke="#000000" stroke-opacity="1" stroke-width="3.2"/>
<circle clip-path="url(#clip792)" cx="835.478" cy="1343.55" r="14.4" fill="#3da44d" fill-rule="evenodd" fill-opacity="1" stroke="#000000" stroke-opacity="1" stroke-width="3.2"/>
<circle clip-path="url(#clip792)" cx="875.971" cy="1352.62" r="14.4" fill="#3da44d" fill-rule="evenodd" fill-opacity="1" stroke="#000000" stroke-opacity="1" stroke-width="3.2"/>
<circle clip-path="url(#clip792)" cx="916.464" cy="1368.82" r="14.4" fill="#3da44d" fill-rule="evenodd" fill-opacity="1" stroke="#000000" stroke-opacity="1" stroke-width="3.2"/>
<circle clip-path="url(#clip792)" cx="956.957" cy="1350.5" r="14.4" fill="#3da44d" fill-rule="evenodd" fill-opacity="1" stroke="#000000" stroke-opacity="1" stroke-width="3.2"/>
<circle clip-path="url(#clip792)" cx="997.45" cy="1353.89" r="14.4" fill="#3da44d" fill-rule="evenodd" fill-opacity="1" stroke="#000000" stroke-opacity="1" stroke-width="3.2"/>
<circle clip-path="url(#clip792)" cx="1037.94" cy="1369.22" r="14.4" fill="#3da44d" fill-rule="evenodd" fill-opacity="1" stroke="#000000" stroke-opacity="1" stroke-width="3.2"/>
<circle clip-path="url(#clip792)" cx="1078.44" cy="1373.82" r="14.4" fill="#3da44d" fill-rule="evenodd" fill-opacity="1" stroke="#000000" stroke-opacity="1" stroke-width="3.2"/>
<circle clip-path="url(#clip792)" cx="1118.93" cy="1354.7" r="14.4" fill="#3da44d" fill-rule="evenodd" fill-opacity="1" stroke="#000000" stroke-opacity="1" stroke-width="3.2"/>
<circle clip-path="url(#clip792)" cx="1159.42" cy="1365.31" r="14.4" fill="#3da44d" fill-rule="evenodd" fill-opacity="1" stroke="#000000" stroke-opacity="1" stroke-width="3.2"/>
<circle clip-path="url(#clip792)" cx="1199.92" cy="1365.5" r="14.4" fill="#3da44d" fill-rule="evenodd" fill-opacity="1" stroke="#000000" stroke-opacity="1" stroke-width="3.2"/>
<circle clip-path="url(#clip792)" cx="1240.41" cy="1356.57" r="14.4" fill="#3da44d" fill-rule="evenodd" fill-opacity="1" stroke="#000000" stroke-opacity="1" stroke-width="3.2"/>
<circle clip-path="url(#clip792)" cx="1280.9" cy="1368.14" r="14.4" fill="#3da44d" fill-rule="evenodd" fill-opacity="1" stroke="#000000" stroke-opacity="1" stroke-width="3.2"/>
<circle clip-path="url(#clip792)" cx="1321.4" cy="1363.32" r="14.4" fill="#3da44d" fill-rule="evenodd" fill-opacity="1" stroke="#000000" stroke-opacity="1" stroke-width="3.2"/>
<circle clip-path="url(#clip792)" cx="1361.89" cy="1356.9" r="14.4" fill="#3da44d" fill-rule="evenodd" fill-opacity="1" stroke="#000000" stroke-opacity="1" stroke-width="3.2"/>
<circle clip-path="url(#clip792)" cx="1402.38" cy="1374.05" r="14.4" fill="#3da44d" fill-rule="evenodd" fill-opacity="1" stroke="#000000" stroke-opacity="1" stroke-width="3.2"/>
<circle clip-path="url(#clip792)" cx="1442.87" cy="1372.32" r="14.4" fill="#3da44d" fill-rule="evenodd" fill-opacity="1" stroke="#000000" stroke-opacity="1" stroke-width="3.2"/>
<circle clip-path="url(#clip792)" cx="1483.37" cy="1365.51" r="14.4" fill="#3da44d" fill-rule="evenodd" fill-opacity="1" stroke="#000000" stroke-opacity="1" stroke-width="3.2"/>
<circle clip-path="url(#clip792)" cx="1523.86" cy="1363.5" r="14.4" fill="#3da44d" fill-rule="evenodd" fill-opacity="1" stroke="#000000" stroke-opacity="1" stroke-width="3.2"/>
<circle clip-path="url(#clip792)" cx="1564.35" cy="1374.22" r="14.4" fill="#3da44d" fill-rule="evenodd" fill-opacity="1" stroke="#000000" stroke-opacity="1" stroke-width="3.2"/>
<circle clip-path="url(#clip792)" cx="1604.85" cy="1372.01" r="14.4" fill="#3da44d" fill-rule="evenodd" fill-opacity="1" stroke="#000000" stroke-opacity="1" stroke-width="3.2"/>
<circle clip-path="url(#clip792)" cx="1645.34" cy="1371.56" r="14.4" fill="#3da44d" fill-rule="evenodd" fill-opacity="1" stroke="#000000" stroke-opacity="1" stroke-width="3.2"/>
<circle clip-path="url(#clip792)" cx="1685.83" cy="1374.83" r="14.4" fill="#3da44d" fill-rule="evenodd" fill-opacity="1" stroke="#000000" stroke-opacity="1" stroke-width="3.2"/>
<circle clip-path="url(#clip792)" cx="1726.33" cy="1368.96" r="14.4" fill="#3da44d" fill-rule="evenodd" fill-opacity="1" stroke="#000000" stroke-opacity="1" stroke-width="3.2"/>
<circle clip-path="url(#clip792)" cx="1766.82" cy="1370.96" r="14.4" fill="#3da44d" fill-rule="evenodd" fill-opacity="1" stroke="#000000" stroke-opacity="1" stroke-width="3.2"/>
<circle clip-path="url(#clip792)" cx="1807.31" cy="1374.86" r="14.4" fill="#3da44d" fill-rule="evenodd" fill-opacity="1" stroke="#000000" stroke-opacity="1" stroke-width="3.2"/>
<circle clip-path="url(#clip792)" cx="1847.81" cy="1372.41" r="14.4" fill="#3da44d" fill-rule="evenodd" fill-opacity="1" stroke="#000000" stroke-opacity="1" stroke-width="3.2"/>
<circle clip-path="url(#clip792)" cx="1888.3" cy="1363.88" r="14.4" fill="#3da44d" fill-rule="evenodd" fill-opacity="1" stroke="#000000" stroke-opacity="1" stroke-width="3.2"/>
<circle clip-path="url(#clip792)" cx="1928.79" cy="1373.7" r="14.4" fill="#3da44d" fill-rule="evenodd" fill-opacity="1" stroke="#000000" stroke-opacity="1" stroke-width="3.2"/>
<circle clip-path="url(#clip792)" cx="1969.29" cy="1377.13" r="14.4" fill="#3da44d" fill-rule="evenodd" fill-opacity="1" stroke="#000000" stroke-opacity="1" stroke-width="3.2"/>
<circle clip-path="url(#clip792)" cx="2009.78" cy="1381.78" r="14.4" fill="#3da44d" fill-rule="evenodd" fill-opacity="1" stroke="#000000" stroke-opacity="1" stroke-width="3.2"/>
<circle clip-path="url(#clip792)" cx="2050.27" cy="1380.39" r="14.4" fill="#3da44d" fill-rule="evenodd" fill-opacity="1" stroke="#000000" stroke-opacity="1" stroke-width="3.2"/>
<circle clip-path="url(#clip792)" cx="2090.77" cy="1379.84" r="14.4" fill="#3da44d" fill-rule="evenodd" fill-opacity="1" stroke="#000000" stroke-opacity="1" stroke-width="3.2"/>
<circle clip-path="url(#clip792)" cx="2131.26" cy="1380.52" r="14.4" fill="#3da44d" fill-rule="evenodd" fill-opacity="1" stroke="#000000" stroke-opacity="1" stroke-width="3.2"/>
<circle clip-path="url(#clip792)" cx="2171.75" cy="1357.44" r="14.4" fill="#3da44d" fill-rule="evenodd" fill-opacity="1" stroke="#000000" stroke-opacity="1" stroke-width="3.2"/>
<circle clip-path="url(#clip792)" cx="2212.24" cy="1378.27" r="14.4" fill="#3da44d" fill-rule="evenodd" fill-opacity="1" stroke="#000000" stroke-opacity="1" stroke-width="3.2"/>
<circle clip-path="url(#clip792)" cx="2252.74" cy="1371.14" r="14.4" fill="#3da44d" fill-rule="evenodd" fill-opacity="1" stroke="#000000" stroke-opacity="1" stroke-width="3.2"/>
<circle clip-path="url(#clip792)" cx="2293.23" cy="1377.32" r="14.4" fill="#3da44d" fill-rule="evenodd" fill-opacity="1" stroke="#000000" stroke-opacity="1" stroke-width="3.2"/>
<polyline clip-path="url(#clip792)" style="stroke:#c271d2; stroke-linecap:round; stroke-linejoin:round; stroke-width:4; stroke-opacity:1; fill:none" stroke-dasharray="16, 10" points="1782.61,2722.89 1782.61,-1176.24 "/>
<polyline clip-path="url(#clip792)" style="stroke:#c271d2; stroke-linecap:round; stroke-linejoin:round; stroke-width:4; stroke-opacity:1; fill:none" stroke-dasharray="16, 10" points="1045.64,2722.89 1045.64,-1176.24 "/>
<polyline clip-path="url(#clip792)" style="stroke:#c271d2; stroke-linecap:round; stroke-linejoin:round; stroke-width:4; stroke-opacity:1; fill:none" stroke-dasharray="16, 10" points="799.979,2722.89 799.979,-1176.24 "/>
<path clip-path="url(#clip790)" d="M1944.67 425.996 L2282.65 425.996 L2282.65 166.796 L1944.67 166.796  Z" fill="#ffffff" fill-rule="evenodd" fill-opacity="1"/>
<polyline clip-path="url(#clip790)" style="stroke:#000000; stroke-linecap:round; stroke-linejoin:round; stroke-width:4; stroke-opacity:1; fill:none" points="1944.67,425.996 2282.65,425.996 2282.65,166.796 1944.67,166.796 1944.67,425.996 "/>
<circle clip-path="url(#clip790)" cx="2038.14" cy="218.636" r="20.48" fill="#009af9" fill-rule="evenodd" fill-opacity="1" stroke="#000000" stroke-opacity="1" stroke-width="4.55111"/>
<path clip-path="url(#clip790)" d="M2150.53 213.925 L2150.53 199.897 L2154.79 199.897 L2154.79 235.916 L2150.53 235.916 L2150.53 232.027 Q2149.19 234.342 2147.13 235.476 Q2145.09 236.587 2142.22 236.587 Q2137.52 236.587 2134.56 232.837 Q2131.62 229.087 2131.62 222.976 Q2131.62 216.865 2134.56 213.115 Q2137.52 209.365 2142.22 209.365 Q2145.09 209.365 2147.13 210.499 Q2149.19 211.61 2150.53 213.925 M2136.02 222.976 Q2136.02 227.675 2137.94 230.36 Q2139.88 233.022 2143.26 233.022 Q2146.64 233.022 2148.59 230.36 Q2150.53 227.675 2150.53 222.976 Q2150.53 218.277 2148.59 215.615 Q2146.64 212.93 2143.26 212.93 Q2139.88 212.93 2137.94 215.615 Q2136.02 218.277 2136.02 222.976 Z" fill="#000000" fill-rule="nonzero" fill-opacity="1" /><path clip-path="url(#clip790)" d="M2164.12 214.388 L2193.79 214.388 L2193.79 218.277 L2164.12 218.277 L2164.12 214.388 M2164.12 223.832 L2193.79 223.832 L2193.79 227.768 L2164.12 227.768 L2164.12 223.832 Z" fill="#000000" fill-rule="nonzero" fill-opacity="1" /><path clip-path="url(#clip790)" d="M2204.7 231.981 L2212.34 231.981 L2212.34 205.615 L2204.03 207.282 L2204.03 203.022 L2212.29 201.356 L2216.97 201.356 L2216.97 231.981 L2224.6 231.981 L2224.6 235.916 L2204.7 235.916 L2204.7 231.981 Z" fill="#000000" fill-rule="nonzero" fill-opacity="1" /><circle clip-path="url(#clip790)" cx="2038.14" cy="270.476" r="20.48" fill="#e26f46" fill-rule="evenodd" fill-opacity="1" stroke="#000000" stroke-opacity="1" stroke-width="4.55111"/>
<path clip-path="url(#clip790)" d="M2150.53 265.765 L2150.53 251.737 L2154.79 251.737 L2154.79 287.756 L2150.53 287.756 L2150.53 283.867 Q2149.19 286.182 2147.13 287.316 Q2145.09 288.427 2142.22 288.427 Q2137.52 288.427 2134.56 284.677 Q2131.62 280.927 2131.62 274.816 Q2131.62 268.705 2134.56 264.955 Q2137.52 261.205 2142.22 261.205 Q2145.09 261.205 2147.13 262.339 Q2149.19 263.45 2150.53 265.765 M2136.02 274.816 Q2136.02 279.515 2137.94 282.2 Q2139.88 284.862 2143.26 284.862 Q2146.64 284.862 2148.59 282.2 Q2150.53 279.515 2150.53 274.816 Q2150.53 270.117 2148.59 267.455 Q2146.64 264.77 2143.26 264.77 Q2139.88 264.77 2137.94 267.455 Q2136.02 270.117 2136.02 274.816 Z" fill="#000000" fill-rule="nonzero" fill-opacity="1" /><path clip-path="url(#clip790)" d="M2164.12 266.228 L2193.79 266.228 L2193.79 270.117 L2164.12 270.117 L2164.12 266.228 M2164.12 275.672 L2193.79 275.672 L2193.79 279.608 L2164.12 279.608 L2164.12 275.672 Z" fill="#000000" fill-rule="nonzero" fill-opacity="1" /><path clip-path="url(#clip790)" d="M2207.91 283.821 L2224.23 283.821 L2224.23 287.756 L2202.29 287.756 L2202.29 283.821 Q2204.95 281.066 2209.53 276.436 Q2214.14 271.784 2215.32 270.441 Q2217.57 267.918 2218.45 266.182 Q2219.35 264.423 2219.35 262.733 Q2219.35 259.978 2217.4 258.242 Q2215.48 256.506 2212.38 256.506 Q2210.18 256.506 2207.73 257.27 Q2205.3 258.034 2202.52 259.585 L2202.52 254.862 Q2205.34 253.728 2207.8 253.149 Q2210.25 252.571 2212.29 252.571 Q2217.66 252.571 2220.85 255.256 Q2224.05 257.941 2224.05 262.432 Q2224.05 264.561 2223.24 266.483 Q2222.45 268.381 2220.34 270.973 Q2219.77 271.645 2216.66 274.862 Q2213.56 278.057 2207.91 283.821 Z" fill="#000000" fill-rule="nonzero" fill-opacity="1" /><circle clip-path="url(#clip790)" cx="2038.14" cy="322.316" r="20.48" fill="#3da44d" fill-rule="evenodd" fill-opacity="1" stroke="#000000" stroke-opacity="1" stroke-width="4.55111"/>
<path clip-path="url(#clip790)" d="M2150.53 317.605 L2150.53 303.577 L2154.79 303.577 L2154.79 339.596 L2150.53 339.596 L2150.53 335.707 Q2149.19 338.022 2147.13 339.156 Q2145.09 340.267 2142.22 340.267 Q2137.52 340.267 2134.56 336.517 Q2131.62 332.767 2131.62 326.656 Q2131.62 320.545 2134.56 316.795 Q2137.52 313.045 2142.22 313.045 Q2145.09 313.045 2147.13 314.179 Q2149.19 315.29 2150.53 317.605 M2136.02 326.656 Q2136.02 331.355 2137.94 334.04 Q2139.88 336.702 2143.26 336.702 Q2146.64 336.702 2148.59 334.04 Q2150.53 331.355 2150.53 326.656 Q2150.53 321.957 2148.59 319.295 Q2146.64 316.61 2143.26 316.61 Q2139.88 316.61 2137.94 319.295 Q2136.02 321.957 2136.02 326.656 Z" fill="#000000" fill-rule="nonzero" fill-opacity="1" /><path clip-path="url(#clip790)" d="M2164.12 318.068 L2193.79 318.068 L2193.79 321.957 L2164.12 321.957 L2164.12 318.068 M2164.12 327.512 L2193.79 327.512 L2193.79 331.448 L2164.12 331.448 L2164.12 327.512 Z" fill="#000000" fill-rule="nonzero" fill-opacity="1" /><path clip-path="url(#clip790)" d="M2218.05 320.962 Q2221.41 321.679 2223.28 323.948 Q2225.18 326.216 2225.18 329.549 Q2225.18 334.665 2221.66 337.466 Q2218.15 340.267 2211.66 340.267 Q2209.49 340.267 2207.17 339.827 Q2204.88 339.411 2202.43 338.554 L2202.43 334.04 Q2204.37 335.174 2206.69 335.753 Q2209 336.332 2211.53 336.332 Q2215.92 336.332 2218.22 334.596 Q2220.53 332.86 2220.53 329.549 Q2220.53 326.494 2218.38 324.781 Q2216.25 323.045 2212.43 323.045 L2208.4 323.045 L2208.4 319.202 L2212.61 319.202 Q2216.06 319.202 2217.89 317.837 Q2219.72 316.448 2219.72 313.855 Q2219.72 311.193 2217.82 309.781 Q2215.95 308.346 2212.43 308.346 Q2210.51 308.346 2208.31 308.763 Q2206.11 309.179 2203.47 310.059 L2203.47 305.892 Q2206.13 305.151 2208.45 304.781 Q2210.78 304.411 2212.84 304.411 Q2218.17 304.411 2221.27 306.841 Q2224.37 309.249 2224.37 313.369 Q2224.37 316.239 2222.73 318.23 Q2221.09 320.198 2218.05 320.962 Z" fill="#000000" fill-rule="nonzero" fill-opacity="1" /><polyline clip-path="url(#clip790)" style="stroke:#c271d2; stroke-linecap:round; stroke-linejoin:round; stroke-width:4; stroke-opacity:1; fill:none" stroke-dasharray="16, 10" points="1968.04,374.156 2108.25,374.156 "/>
<path clip-path="url(#clip790)" d="M2131.62 356.876 L2160.85 356.876 L2160.85 360.811 L2148.59 360.811 L2148.59 391.436 L2143.89 391.436 L2143.89 360.811 L2131.62 360.811 L2131.62 356.876 Z" fill="#000000" fill-rule="nonzero" fill-opacity="1" /><path clip-path="url(#clip790)" d="M2184.88 399.306 L2184.88 402.616 L2160.25 402.616 L2160.25 399.306 L2184.88 399.306 Z" fill="#000000" fill-rule="nonzero" fill-opacity="1" /><path clip-path="url(#clip790)" d="M2214.95 359.538 L2214.95 364.468 Q2212.59 362.269 2209.9 361.181 Q2207.24 360.093 2204.23 360.093 Q2198.31 360.093 2195.16 363.728 Q2192.01 367.339 2192.01 374.19 Q2192.01 381.019 2195.16 384.653 Q2198.31 388.264 2204.23 388.264 Q2207.24 388.264 2209.9 387.176 Q2212.59 386.089 2214.95 383.889 L2214.95 388.774 Q2212.5 390.44 2209.74 391.274 Q2207.01 392.107 2203.96 392.107 Q2196.11 392.107 2191.59 387.315 Q2187.08 382.501 2187.08 374.19 Q2187.08 365.857 2191.59 361.066 Q2196.11 356.251 2203.96 356.251 Q2207.06 356.251 2209.79 357.084 Q2212.54 357.894 2214.95 359.538 Z" fill="#000000" fill-rule="nonzero" fill-opacity="1" /><path clip-path="url(#clip790)" d="M2229.56 356.876 L2233.49 356.876 L2221.46 395.834 L2217.52 395.834 L2229.56 356.876 Z" fill="#000000" fill-rule="nonzero" fill-opacity="1" /><path clip-path="url(#clip790)" d="M2255.02 369.445 L2255.02 355.417 L2259.28 355.417 L2259.28 391.436 L2255.02 391.436 L2255.02 387.547 Q2253.68 389.862 2251.62 390.996 Q2249.58 392.107 2246.71 392.107 Q2242.01 392.107 2239.05 388.357 Q2236.11 384.607 2236.11 378.496 Q2236.11 372.385 2239.05 368.635 Q2242.01 364.885 2246.71 364.885 Q2249.58 364.885 2251.62 366.019 Q2253.68 367.13 2255.02 369.445 M2240.51 378.496 Q2240.51 383.195 2242.43 385.88 Q2244.37 388.542 2247.75 388.542 Q2251.13 388.542 2253.08 385.88 Q2255.02 383.195 2255.02 378.496 Q2255.02 373.797 2253.08 371.135 Q2251.13 368.45 2247.75 368.45 Q2244.37 368.45 2242.43 371.135 Q2240.51 373.797 2240.51 378.496 Z" fill="#000000" fill-rule="nonzero" fill-opacity="1" /></svg>
