<?xml version="1.0" encoding="utf-8"?>
<svg xmlns="http://www.w3.org/2000/svg" xmlns:xlink="http://www.w3.org/1999/xlink" width="600" height="400" viewBox="0 0 2400 1600">
<defs>
  <clipPath id="clip070">
    <rect x="0" y="0" width="2400" height="1600"/>
  </clipPath>
</defs>
<path clip-path="url(#clip070)" d="M0 1600 L2400 1600 L2400 0 L0 0  Z" fill="#ffffff" fill-rule="evenodd" fill-opacity="1"/>
<defs>
  <clipPath id="clip071">
    <rect x="480" y="0" width="1681" height="1600"/>
  </clipPath>
</defs>
<path clip-path="url(#clip070)" d="M264.287 1423.18 L2352.76 1423.18 L2352.76 123.472 L264.287 123.472  Z" fill="#ffffff" fill-rule="evenodd" fill-opacity="1"/>
<defs>
  <clipPath id="clip072">
    <rect x="264" y="123" width="2089" height="1301"/>
  </clipPath>
</defs>
<polyline clip-path="url(#clip072)" style="stroke:#000000; stroke-linecap:round; stroke-linejoin:round; stroke-width:2; stroke-opacity:0.1; fill:none" points="738.185,1423.18 738.185,123.472 "/>
<polyline clip-path="url(#clip072)" style="stroke:#000000; stroke-linecap:round; stroke-linejoin:round; stroke-width:2; stroke-opacity:0.1; fill:none" points="1256.67,1423.18 1256.67,123.472 "/>
<polyline clip-path="url(#clip072)" style="stroke:#000000; stroke-linecap:round; stroke-linejoin:round; stroke-width:2; stroke-opacity:0.1; fill:none" points="1775.16,1423.18 1775.16,123.472 "/>
<polyline clip-path="url(#clip072)" style="stroke:#000000; stroke-linecap:round; stroke-linejoin:round; stroke-width:2; stroke-opacity:0.1; fill:none" points="2293.65,1423.18 2293.65,123.472 "/>
<polyline clip-path="url(#clip072)" style="stroke:#000000; stroke-linecap:round; stroke-linejoin:round; stroke-width:2; stroke-opacity:0.1; fill:none" points="264.287,1386.4 2352.76,1386.4 "/>
<polyline clip-path="url(#clip072)" style="stroke:#000000; stroke-linecap:round; stroke-linejoin:round; stroke-width:2; stroke-opacity:0.1; fill:none" points="264.287,1158.31 2352.76,1158.31 "/>
<polyline clip-path="url(#clip072)" style="stroke:#000000; stroke-linecap:round; stroke-linejoin:round; stroke-width:2; stroke-opacity:0.1; fill:none" points="264.287,930.222 2352.76,930.222 "/>
<polyline clip-path="url(#clip072)" style="stroke:#000000; stroke-linecap:round; stroke-linejoin:round; stroke-width:2; stroke-opacity:0.1; fill:none" points="264.287,702.135 2352.76,702.135 "/>
<polyline clip-path="url(#clip072)" style="stroke:#000000; stroke-linecap:round; stroke-linejoin:round; stroke-width:2; stroke-opacity:0.1; fill:none" points="264.287,474.048 2352.76,474.048 "/>
<polyline clip-path="url(#clip072)" style="stroke:#000000; stroke-linecap:round; stroke-linejoin:round; stroke-width:2; stroke-opacity:0.1; fill:none" points="264.287,245.96 2352.76,245.96 "/>
<polyline clip-path="url(#clip070)" style="stroke:#000000; stroke-linecap:round; stroke-linejoin:round; stroke-width:4; stroke-opacity:1; fill:none" points="264.287,1423.18 2352.76,1423.18 "/>
<polyline clip-path="url(#clip070)" style="stroke:#000000; stroke-linecap:round; stroke-linejoin:round; stroke-width:4; stroke-opacity:1; fill:none" points="738.185,1423.18 738.185,1404.28 "/>
<polyline clip-path="url(#clip070)" style="stroke:#000000; stroke-linecap:round; stroke-linejoin:round; stroke-width:4; stroke-opacity:1; fill:none" points="1256.67,1423.18 1256.67,1404.28 "/>
<polyline clip-path="url(#clip070)" style="stroke:#000000; stroke-linecap:round; stroke-linejoin:round; stroke-width:4; stroke-opacity:1; fill:none" points="1775.16,1423.18 1775.16,1404.28 "/>
<polyline clip-path="url(#clip070)" style="stroke:#000000; stroke-linecap:round; stroke-linejoin:round; stroke-width:4; stroke-opacity:1; fill:none" points="2293.65,1423.18 2293.65,1404.28 "/>
<path clip-path="url(#clip070)" d="M728.463 1451.02 L746.819 1451.02 L746.819 1454.96 L732.745 1454.96 L732.745 1463.43 Q733.764 1463.08 734.782 1462.92 Q735.801 1462.73 736.819 1462.73 Q742.606 1462.73 745.986 1465.9 Q749.366 1469.08 749.366 1474.49 Q749.366 1480.07 745.893 1483.17 Q742.421 1486.25 736.102 1486.25 Q733.926 1486.25 731.657 1485.88 Q729.412 1485.51 727.005 1484.77 L727.005 1480.07 Q729.088 1481.2 731.31 1481.76 Q733.532 1482.32 736.009 1482.32 Q740.014 1482.32 742.352 1480.21 Q744.69 1478.1 744.69 1474.49 Q744.69 1470.88 742.352 1468.77 Q740.014 1466.67 736.009 1466.67 Q734.134 1466.67 732.259 1467.08 Q730.407 1467.5 728.463 1468.38 L728.463 1451.02 Z" fill="#000000" fill-rule="nonzero" fill-opacity="1" /><path clip-path="url(#clip070)" d="M1231.36 1481.64 L1239 1481.64 L1239 1455.28 L1230.69 1456.95 L1230.69 1452.69 L1238.95 1451.02 L1243.63 1451.02 L1243.63 1481.64 L1251.27 1481.64 L1251.27 1485.58 L1231.36 1485.58 L1231.36 1481.64 Z" fill="#000000" fill-rule="nonzero" fill-opacity="1" /><path clip-path="url(#clip070)" d="M1270.71 1454.1 Q1267.1 1454.1 1265.27 1457.66 Q1263.47 1461.2 1263.47 1468.33 Q1263.47 1475.44 1265.27 1479.01 Q1267.1 1482.55 1270.71 1482.55 Q1274.35 1482.55 1276.15 1479.01 Q1277.98 1475.44 1277.98 1468.33 Q1277.98 1461.2 1276.15 1457.66 Q1274.35 1454.1 1270.71 1454.1 M1270.71 1450.39 Q1276.52 1450.39 1279.58 1455 Q1282.66 1459.58 1282.66 1468.33 Q1282.66 1477.06 1279.58 1481.67 Q1276.52 1486.25 1270.71 1486.25 Q1264.9 1486.25 1261.82 1481.67 Q1258.77 1477.06 1258.77 1468.33 Q1258.77 1459.58 1261.82 1455 Q1264.9 1450.39 1270.71 1450.39 Z" fill="#000000" fill-rule="nonzero" fill-opacity="1" /><path clip-path="url(#clip070)" d="M1750.35 1481.64 L1757.98 1481.64 L1757.98 1455.28 L1749.67 1456.95 L1749.67 1452.69 L1757.94 1451.02 L1762.61 1451.02 L1762.61 1481.64 L1770.25 1481.64 L1770.25 1485.58 L1750.35 1485.58 L1750.35 1481.64 Z" fill="#000000" fill-rule="nonzero" fill-opacity="1" /><path clip-path="url(#clip070)" d="M1779.74 1451.02 L1798.1 1451.02 L1798.1 1454.96 L1784.03 1454.96 L1784.03 1463.43 Q1785.04 1463.08 1786.06 1462.92 Q1787.08 1462.73 1788.1 1462.73 Q1793.89 1462.73 1797.27 1465.9 Q1800.65 1469.08 1800.65 1474.49 Q1800.65 1480.07 1797.17 1483.17 Q1793.7 1486.25 1787.38 1486.25 Q1785.21 1486.25 1782.94 1485.88 Q1780.69 1485.51 1778.29 1484.77 L1778.29 1480.07 Q1780.37 1481.2 1782.59 1481.76 Q1784.81 1482.32 1787.29 1482.32 Q1791.29 1482.32 1793.63 1480.21 Q1795.97 1478.1 1795.97 1474.49 Q1795.97 1470.88 1793.63 1468.77 Q1791.29 1466.67 1787.29 1466.67 Q1785.42 1466.67 1783.54 1467.08 Q1781.69 1467.5 1779.74 1468.38 L1779.74 1451.02 Z" fill="#000000" fill-rule="nonzero" fill-opacity="1" /><path clip-path="url(#clip070)" d="M2272.42 1481.64 L2288.74 1481.64 L2288.74 1485.58 L2266.8 1485.58 L2266.8 1481.64 Q2269.46 1478.89 2274.04 1474.26 Q2278.65 1469.61 2279.83 1468.27 Q2282.07 1465.74 2282.95 1464.01 Q2283.86 1462.25 2283.86 1460.56 Q2283.86 1457.8 2281.91 1456.07 Q2279.99 1454.33 2276.89 1454.33 Q2274.69 1454.33 2272.24 1455.09 Q2269.81 1455.86 2267.03 1457.41 L2267.03 1452.69 Q2269.85 1451.55 2272.31 1450.97 Q2274.76 1450.39 2276.8 1450.39 Q2282.17 1450.39 2285.36 1453.08 Q2288.56 1455.77 2288.56 1460.26 Q2288.56 1462.39 2287.75 1464.31 Q2286.96 1466.2 2284.85 1468.8 Q2284.27 1469.47 2281.17 1472.69 Q2278.07 1475.88 2272.42 1481.64 Z" fill="#000000" fill-rule="nonzero" fill-opacity="1" /><path clip-path="url(#clip070)" d="M2308.56 1454.1 Q2304.94 1454.1 2303.12 1457.66 Q2301.31 1461.2 2301.31 1468.33 Q2301.31 1475.44 2303.12 1479.01 Q2304.94 1482.55 2308.56 1482.55 Q2312.19 1482.55 2314 1479.01 Q2315.82 1475.44 2315.82 1468.33 Q2315.82 1461.2 2314 1457.66 Q2312.19 1454.1 2308.56 1454.1 M2308.56 1450.39 Q2314.37 1450.39 2317.42 1455 Q2320.5 1459.58 2320.5 1468.33 Q2320.5 1477.06 2317.42 1481.67 Q2314.37 1486.25 2308.56 1486.25 Q2302.75 1486.25 2299.67 1481.67 Q2296.61 1477.06 2296.61 1468.33 Q2296.61 1459.58 2299.67 1455 Q2302.75 1450.39 2308.56 1450.39 Z" fill="#000000" fill-rule="nonzero" fill-opacity="1" /><path clip-path="url(#clip070)" d="M1129.52 1525.81 L1129.52 1562.76 L1137.28 1562.76 Q1147.12 1562.76 1151.67 1558.3 Q1156.25 1553.85 1156.25 1544.24 Q1156.25 1534.69 1151.67 1530.26 Q1147.12 1525.81 1137.28 1525.81 L1129.52 1525.81 M1123.09 1520.52 L1136.3 1520.52 Q1150.11 1520.52 1156.57 1526.28 Q1163.03 1532.01 1163.03 1544.24 Q1163.03 1556.52 1156.54 1562.28 Q1150.05 1568.04 1136.3 1568.04 L1123.09 1568.04 L1123.09 1520.52 Z" fill="#000000" fill-rule="nonzero" fill-opacity="1" /><path clip-path="url(#clip070)" d="M1173.03 1532.4 L1178.88 1532.4 L1178.88 1568.04 L1173.03 1568.04 L1173.03 1532.4 M1173.03 1518.52 L1178.88 1518.52 L1178.88 1525.93 L1173.03 1525.93 L1173.03 1518.52 Z" fill="#000000" fill-rule="nonzero" fill-opacity="1" /><path clip-path="url(#clip070)" d="M1218.89 1539.24 Q1221.09 1535.29 1224.14 1533.41 Q1227.2 1531.54 1231.34 1531.54 Q1236.91 1531.54 1239.93 1535.45 Q1242.95 1539.33 1242.95 1546.53 L1242.95 1568.04 L1237.07 1568.04 L1237.07 1546.72 Q1237.07 1541.59 1235.25 1539.11 Q1233.44 1536.63 1229.71 1536.63 Q1225.16 1536.63 1222.52 1539.65 Q1219.88 1542.68 1219.88 1547.9 L1219.88 1568.04 L1213.99 1568.04 L1213.99 1546.72 Q1213.99 1541.56 1212.18 1539.11 Q1210.36 1536.63 1206.57 1536.63 Q1202.09 1536.63 1199.45 1539.68 Q1196.8 1542.71 1196.8 1547.9 L1196.8 1568.04 L1190.92 1568.04 L1190.92 1532.4 L1196.8 1532.4 L1196.8 1537.93 Q1198.81 1534.66 1201.61 1533.1 Q1204.41 1531.54 1208.26 1531.54 Q1212.14 1531.54 1214.85 1533.51 Q1217.59 1535.48 1218.89 1539.24 Z" fill="#000000" fill-rule="nonzero" fill-opacity="1" /><path clip-path="url(#clip070)" d="M1285.13 1548.76 L1285.13 1551.62 L1258.2 1551.62 Q1258.58 1557.67 1261.83 1560.85 Q1265.11 1564 1270.93 1564 Q1274.31 1564 1277.46 1563.17 Q1280.64 1562.35 1283.76 1560.69 L1283.76 1566.23 Q1280.61 1567.57 1277.3 1568.27 Q1273.99 1568.97 1270.58 1568.97 Q1262.05 1568.97 1257.05 1564 Q1252.09 1559.04 1252.09 1550.57 Q1252.09 1541.82 1256.8 1536.69 Q1261.54 1531.54 1269.56 1531.54 Q1276.76 1531.54 1280.93 1536.18 Q1285.13 1540.8 1285.13 1548.76 M1279.27 1547.04 Q1279.21 1542.23 1276.57 1539.37 Q1273.96 1536.5 1269.63 1536.5 Q1264.73 1536.5 1261.77 1539.27 Q1258.84 1542.04 1258.39 1547.07 L1279.27 1547.04 Z" fill="#000000" fill-rule="nonzero" fill-opacity="1" /><path clip-path="url(#clip070)" d="M1324.37 1546.53 L1324.37 1568.04 L1318.52 1568.04 L1318.52 1546.72 Q1318.52 1541.66 1316.54 1539.14 Q1314.57 1536.63 1310.62 1536.63 Q1305.88 1536.63 1303.14 1539.65 Q1300.41 1542.68 1300.41 1547.9 L1300.41 1568.04 L1294.52 1568.04 L1294.52 1532.4 L1300.41 1532.4 L1300.41 1537.93 Q1302.51 1534.72 1305.34 1533.13 Q1308.2 1531.54 1311.93 1531.54 Q1318.07 1531.54 1321.22 1535.36 Q1324.37 1539.14 1324.37 1546.53 Z" fill="#000000" fill-rule="nonzero" fill-opacity="1" /><path clip-path="url(#clip070)" d="M1358.78 1533.45 L1358.78 1538.98 Q1356.3 1537.71 1353.62 1537.07 Q1350.95 1536.44 1348.08 1536.44 Q1343.72 1536.44 1341.53 1537.77 Q1339.36 1539.11 1339.36 1541.79 Q1339.36 1543.82 1340.92 1545 Q1342.48 1546.15 1347.19 1547.2 L1349.2 1547.64 Q1355.44 1548.98 1358.05 1551.43 Q1360.69 1553.85 1360.69 1558.21 Q1360.69 1563.17 1356.74 1566.07 Q1352.83 1568.97 1345.95 1568.97 Q1343.09 1568.97 1339.97 1568.39 Q1336.88 1567.85 1333.44 1566.74 L1333.44 1560.69 Q1336.69 1562.38 1339.84 1563.24 Q1342.99 1564.07 1346.08 1564.07 Q1350.22 1564.07 1352.44 1562.66 Q1354.67 1561.23 1354.67 1558.65 Q1354.67 1556.27 1353.05 1554.99 Q1351.46 1553.72 1346.02 1552.54 L1343.98 1552.07 Q1338.54 1550.92 1336.12 1548.56 Q1333.7 1546.18 1333.7 1542.04 Q1333.7 1537.01 1337.26 1534.27 Q1340.83 1531.54 1347.38 1531.54 Q1350.63 1531.54 1353.5 1532.01 Q1356.36 1532.49 1358.78 1533.45 Z" fill="#000000" fill-rule="nonzero" fill-opacity="1" /><path clip-path="url(#clip070)" d="M1370.01 1532.4 L1375.87 1532.4 L1375.87 1568.04 L1370.01 1568.04 L1370.01 1532.4 M1370.01 1518.52 L1375.87 1518.52 L1375.87 1525.93 L1370.01 1525.93 L1370.01 1518.52 Z" fill="#000000" fill-rule="nonzero" fill-opacity="1" /><path clip-path="url(#clip070)" d="M1401.94 1536.5 Q1397.23 1536.5 1394.49 1540.19 Q1391.75 1543.85 1391.75 1550.25 Q1391.75 1556.65 1394.46 1560.34 Q1397.2 1564 1401.94 1564 Q1406.62 1564 1409.35 1560.31 Q1412.09 1556.62 1412.09 1550.25 Q1412.09 1543.92 1409.35 1540.23 Q1406.62 1536.5 1401.94 1536.5 M1401.94 1531.54 Q1409.58 1531.54 1413.94 1536.5 Q1418.3 1541.47 1418.3 1550.25 Q1418.3 1559 1413.94 1564 Q1409.58 1568.97 1401.94 1568.97 Q1394.27 1568.97 1389.91 1564 Q1385.58 1559 1385.58 1550.25 Q1385.58 1541.47 1389.91 1536.5 Q1394.27 1531.54 1401.94 1531.54 Z" fill="#000000" fill-rule="nonzero" fill-opacity="1" /><path clip-path="url(#clip070)" d="M1457.64 1546.53 L1457.64 1568.04 L1451.78 1568.04 L1451.78 1546.72 Q1451.78 1541.66 1449.81 1539.14 Q1447.84 1536.63 1443.89 1536.63 Q1439.15 1536.63 1436.41 1539.65 Q1433.67 1542.68 1433.67 1547.9 L1433.67 1568.04 L1427.78 1568.04 L1427.78 1532.4 L1433.67 1532.4 L1433.67 1537.93 Q1435.77 1534.72 1438.6 1533.13 Q1441.47 1531.54 1445.19 1531.54 Q1451.34 1531.54 1454.49 1535.36 Q1457.64 1539.14 1457.64 1546.53 Z" fill="#000000" fill-rule="nonzero" fill-opacity="1" /><path clip-path="url(#clip070)" d="M1492.04 1533.45 L1492.04 1538.98 Q1489.56 1537.71 1486.89 1537.07 Q1484.22 1536.44 1481.35 1536.44 Q1476.99 1536.44 1474.79 1537.77 Q1472.63 1539.11 1472.63 1541.79 Q1472.63 1543.82 1474.19 1545 Q1475.75 1546.15 1480.46 1547.2 L1482.46 1547.64 Q1488.7 1548.98 1491.31 1551.43 Q1493.95 1553.85 1493.95 1558.21 Q1493.95 1563.17 1490.01 1566.07 Q1486.09 1568.97 1479.22 1568.97 Q1476.35 1568.97 1473.23 1568.39 Q1470.15 1567.85 1466.71 1566.74 L1466.71 1560.69 Q1469.96 1562.38 1473.11 1563.24 Q1476.26 1564.07 1479.35 1564.07 Q1483.48 1564.07 1485.71 1562.66 Q1487.94 1561.23 1487.94 1558.65 Q1487.94 1556.27 1486.32 1554.99 Q1484.72 1553.72 1479.28 1552.54 L1477.24 1552.07 Q1471.8 1550.92 1469.38 1548.56 Q1466.96 1546.18 1466.96 1542.04 Q1466.96 1537.01 1470.53 1534.27 Q1474.09 1531.54 1480.65 1531.54 Q1483.9 1531.54 1486.76 1532.01 Q1489.63 1532.49 1492.04 1533.45 Z" fill="#000000" fill-rule="nonzero" fill-opacity="1" /><polyline clip-path="url(#clip070)" style="stroke:#000000; stroke-linecap:round; stroke-linejoin:round; stroke-width:4; stroke-opacity:1; fill:none" points="264.287,1423.18 264.287,123.472 "/>
<polyline clip-path="url(#clip070)" style="stroke:#000000; stroke-linecap:round; stroke-linejoin:round; stroke-width:4; stroke-opacity:1; fill:none" points="264.287,1386.4 283.185,1386.4 "/>
<polyline clip-path="url(#clip070)" style="stroke:#000000; stroke-linecap:round; stroke-linejoin:round; stroke-width:4; stroke-opacity:1; fill:none" points="264.287,1158.31 283.185,1158.31 "/>
<polyline clip-path="url(#clip070)" style="stroke:#000000; stroke-linecap:round; stroke-linejoin:round; stroke-width:4; stroke-opacity:1; fill:none" points="264.287,930.222 283.185,930.222 "/>
<polyline clip-path="url(#clip070)" style="stroke:#000000; stroke-linecap:round; stroke-linejoin:round; stroke-width:4; stroke-opacity:1; fill:none" points="264.287,702.135 283.185,702.135 "/>
<polyline clip-path="url(#clip070)" style="stroke:#000000; stroke-linecap:round; stroke-linejoin:round; stroke-width:4; stroke-opacity:1; fill:none" points="264.287,474.048 283.185,474.048 "/>
<polyline clip-path="url(#clip070)" style="stroke:#000000; stroke-linecap:round; stroke-linejoin:round; stroke-width:4; stroke-opacity:1; fill:none" points="264.287,245.96 283.185,245.96 "/>
<path clip-path="url(#clip070)" d="M216.343 1372.19 Q212.732 1372.19 210.903 1375.76 Q209.098 1379.3 209.098 1386.43 Q209.098 1393.54 210.903 1397.1 Q212.732 1400.64 216.343 1400.64 Q219.977 1400.64 221.783 1397.1 Q223.611 1393.54 223.611 1386.43 Q223.611 1379.3 221.783 1375.76 Q219.977 1372.19 216.343 1372.19 M216.343 1368.49 Q222.153 1368.49 225.209 1373.1 Q228.287 1377.68 228.287 1386.43 Q228.287 1395.16 225.209 1399.76 Q222.153 1404.35 216.343 1404.35 Q210.533 1404.35 207.454 1399.76 Q204.399 1395.16 204.399 1386.43 Q204.399 1377.68 207.454 1373.1 Q210.533 1368.49 216.343 1368.49 Z" fill="#000000" fill-rule="nonzero" fill-opacity="1" /><path clip-path="url(#clip070)" d="M146.066 1141.03 L164.422 1141.03 L164.422 1144.96 L150.348 1144.96 L150.348 1153.44 Q151.366 1153.09 152.385 1152.93 Q153.403 1152.74 154.422 1152.74 Q160.209 1152.74 163.589 1155.91 Q166.968 1159.08 166.968 1164.5 Q166.968 1170.08 163.496 1173.18 Q160.024 1176.26 153.704 1176.26 Q151.528 1176.26 149.26 1175.89 Q147.015 1175.52 144.607 1174.78 L144.607 1170.08 Q146.691 1171.21 148.913 1171.77 Q151.135 1172.32 153.612 1172.32 Q157.616 1172.32 159.954 1170.22 Q162.292 1168.11 162.292 1164.5 Q162.292 1160.89 159.954 1158.78 Q157.616 1156.68 153.612 1156.68 Q151.737 1156.68 149.862 1157.09 Q148.01 1157.51 146.066 1158.39 L146.066 1141.03 Z" fill="#000000" fill-rule="nonzero" fill-opacity="1" /><path clip-path="url(#clip070)" d="M186.181 1144.11 Q182.57 1144.11 180.741 1147.67 Q178.936 1151.21 178.936 1158.34 Q178.936 1165.45 180.741 1169.01 Q182.57 1172.56 186.181 1172.56 Q189.815 1172.56 191.621 1169.01 Q193.45 1165.45 193.45 1158.34 Q193.45 1151.21 191.621 1147.67 Q189.815 1144.11 186.181 1144.11 M186.181 1140.4 Q191.991 1140.4 195.047 1145.01 Q198.125 1149.59 198.125 1158.34 Q198.125 1167.07 195.047 1171.68 Q191.991 1176.26 186.181 1176.26 Q180.371 1176.26 177.292 1171.68 Q174.237 1167.07 174.237 1158.34 Q174.237 1149.59 177.292 1145.01 Q180.371 1140.4 186.181 1140.4 Z" fill="#000000" fill-rule="nonzero" fill-opacity="1" /><path clip-path="url(#clip070)" d="M216.343 1144.11 Q212.732 1144.11 210.903 1147.67 Q209.098 1151.21 209.098 1158.34 Q209.098 1165.45 210.903 1169.01 Q212.732 1172.56 216.343 1172.56 Q219.977 1172.56 221.783 1169.01 Q223.611 1165.45 223.611 1158.34 Q223.611 1151.21 221.783 1147.67 Q219.977 1144.11 216.343 1144.11 M216.343 1140.4 Q222.153 1140.4 225.209 1145.01 Q228.287 1149.59 228.287 1158.34 Q228.287 1167.07 225.209 1171.68 Q222.153 1176.26 216.343 1176.26 Q210.533 1176.26 207.454 1171.68 Q204.399 1167.07 204.399 1158.34 Q204.399 1149.59 207.454 1145.01 Q210.533 1140.4 216.343 1140.4 Z" fill="#000000" fill-rule="nonzero" fill-opacity="1" /><path clip-path="url(#clip070)" d="M116.668 943.566 L124.306 943.566 L124.306 917.201 L115.996 918.867 L115.996 914.608 L124.26 912.942 L128.936 912.942 L128.936 943.566 L136.575 943.566 L136.575 947.502 L116.668 947.502 L116.668 943.566 Z" fill="#000000" fill-rule="nonzero" fill-opacity="1" /><path clip-path="url(#clip070)" d="M156.019 916.02 Q152.408 916.02 150.579 919.585 Q148.774 923.127 148.774 930.256 Q148.774 937.363 150.579 940.928 Q152.408 944.469 156.019 944.469 Q159.653 944.469 161.459 940.928 Q163.288 937.363 163.288 930.256 Q163.288 923.127 161.459 919.585 Q159.653 916.02 156.019 916.02 M156.019 912.317 Q161.829 912.317 164.885 916.923 Q167.964 921.506 167.964 930.256 Q167.964 938.983 164.885 943.59 Q161.829 948.173 156.019 948.173 Q150.209 948.173 147.13 943.59 Q144.075 938.983 144.075 930.256 Q144.075 921.506 147.13 916.923 Q150.209 912.317 156.019 912.317 Z" fill="#000000" fill-rule="nonzero" fill-opacity="1" /><path clip-path="url(#clip070)" d="M186.181 916.02 Q182.57 916.02 180.741 919.585 Q178.936 923.127 178.936 930.256 Q178.936 937.363 180.741 940.928 Q182.57 944.469 186.181 944.469 Q189.815 944.469 191.621 940.928 Q193.45 937.363 193.45 930.256 Q193.45 923.127 191.621 919.585 Q189.815 916.02 186.181 916.02 M186.181 912.317 Q191.991 912.317 195.047 916.923 Q198.125 921.506 198.125 930.256 Q198.125 938.983 195.047 943.59 Q191.991 948.173 186.181 948.173 Q180.371 948.173 177.292 943.59 Q174.237 938.983 174.237 930.256 Q174.237 921.506 177.292 916.923 Q180.371 912.317 186.181 912.317 Z" fill="#000000" fill-rule="nonzero" fill-opacity="1" /><path clip-path="url(#clip070)" d="M216.343 916.02 Q212.732 916.02 210.903 919.585 Q209.098 923.127 209.098 930.256 Q209.098 937.363 210.903 940.928 Q212.732 944.469 216.343 944.469 Q219.977 944.469 221.783 940.928 Q223.611 937.363 223.611 930.256 Q223.611 923.127 221.783 919.585 Q219.977 916.02 216.343 916.02 M216.343 912.317 Q222.153 912.317 225.209 916.923 Q228.287 921.506 228.287 930.256 Q228.287 938.983 225.209 943.59 Q222.153 948.173 216.343 948.173 Q210.533 948.173 207.454 943.59 Q204.399 938.983 204.399 930.256 Q204.399 921.506 207.454 916.923 Q210.533 912.317 216.343 912.317 Z" fill="#000000" fill-rule="nonzero" fill-opacity="1" /><path clip-path="url(#clip070)" d="M116.668 715.479 L124.306 715.479 L124.306 689.114 L115.996 690.78 L115.996 686.521 L124.26 684.855 L128.936 684.855 L128.936 715.479 L136.575 715.479 L136.575 719.415 L116.668 719.415 L116.668 715.479 Z" fill="#000000" fill-rule="nonzero" fill-opacity="1" /><path clip-path="url(#clip070)" d="M146.066 684.855 L164.422 684.855 L164.422 688.79 L150.348 688.79 L150.348 697.262 Q151.366 696.915 152.385 696.753 Q153.403 696.567 154.422 696.567 Q160.209 696.567 163.589 699.739 Q166.968 702.91 166.968 708.327 Q166.968 713.905 163.496 717.007 Q160.024 720.086 153.704 720.086 Q151.528 720.086 149.26 719.715 Q147.015 719.345 144.607 718.604 L144.607 713.905 Q146.691 715.04 148.913 715.595 Q151.135 716.151 153.612 716.151 Q157.616 716.151 159.954 714.044 Q162.292 711.938 162.292 708.327 Q162.292 704.716 159.954 702.609 Q157.616 700.503 153.612 700.503 Q151.737 700.503 149.862 700.919 Q148.01 701.336 146.066 702.216 L146.066 684.855 Z" fill="#000000" fill-rule="nonzero" fill-opacity="1" /><path clip-path="url(#clip070)" d="M186.181 687.933 Q182.57 687.933 180.741 691.498 Q178.936 695.04 178.936 702.169 Q178.936 709.276 180.741 712.841 Q182.57 716.382 186.181 716.382 Q189.815 716.382 191.621 712.841 Q193.45 709.276 193.45 702.169 Q193.45 695.04 191.621 691.498 Q189.815 687.933 186.181 687.933 M186.181 684.23 Q191.991 684.23 195.047 688.836 Q198.125 693.419 198.125 702.169 Q198.125 710.896 195.047 715.503 Q191.991 720.086 186.181 720.086 Q180.371 720.086 177.292 715.503 Q174.237 710.896 174.237 702.169 Q174.237 693.419 177.292 688.836 Q180.371 684.23 186.181 684.23 Z" fill="#000000" fill-rule="nonzero" fill-opacity="1" /><path clip-path="url(#clip070)" d="M216.343 687.933 Q212.732 687.933 210.903 691.498 Q209.098 695.04 209.098 702.169 Q209.098 709.276 210.903 712.841 Q212.732 716.382 216.343 716.382 Q219.977 716.382 221.783 712.841 Q223.611 709.276 223.611 702.169 Q223.611 695.04 221.783 691.498 Q219.977 687.933 216.343 687.933 M216.343 684.23 Q222.153 684.23 225.209 688.836 Q228.287 693.419 228.287 702.169 Q228.287 710.896 225.209 715.503 Q222.153 720.086 216.343 720.086 Q210.533 720.086 207.454 715.503 Q204.399 710.896 204.399 702.169 Q204.399 693.419 207.454 688.836 Q210.533 684.23 216.343 684.23 Z" fill="#000000" fill-rule="nonzero" fill-opacity="1" /><path clip-path="url(#clip070)" d="M119.885 487.392 L136.204 487.392 L136.204 491.328 L114.26 491.328 L114.26 487.392 Q116.922 484.638 121.505 480.008 Q126.112 475.355 127.292 474.013 Q129.538 471.49 130.417 469.754 Q131.32 467.994 131.32 466.304 Q131.32 463.55 129.376 461.814 Q127.455 460.078 124.353 460.078 Q122.154 460.078 119.7 460.842 Q117.269 461.605 114.492 463.156 L114.492 458.434 Q117.316 457.3 119.769 456.721 Q122.223 456.143 124.26 456.143 Q129.63 456.143 132.825 458.828 Q136.019 461.513 136.019 466.004 Q136.019 468.133 135.209 470.054 Q134.422 471.953 132.316 474.545 Q131.737 475.216 128.635 478.434 Q125.533 481.628 119.885 487.392 Z" fill="#000000" fill-rule="nonzero" fill-opacity="1" /><path clip-path="url(#clip070)" d="M156.019 459.846 Q152.408 459.846 150.579 463.411 Q148.774 466.953 148.774 474.082 Q148.774 481.189 150.579 484.753 Q152.408 488.295 156.019 488.295 Q159.653 488.295 161.459 484.753 Q163.288 481.189 163.288 474.082 Q163.288 466.953 161.459 463.411 Q159.653 459.846 156.019 459.846 M156.019 456.143 Q161.829 456.143 164.885 460.749 Q167.964 465.332 167.964 474.082 Q167.964 482.809 164.885 487.415 Q161.829 491.999 156.019 491.999 Q150.209 491.999 147.13 487.415 Q144.075 482.809 144.075 474.082 Q144.075 465.332 147.13 460.749 Q150.209 456.143 156.019 456.143 Z" fill="#000000" fill-rule="nonzero" fill-opacity="1" /><path clip-path="url(#clip070)" d="M186.181 459.846 Q182.57 459.846 180.741 463.411 Q178.936 466.953 178.936 474.082 Q178.936 481.189 180.741 484.753 Q182.57 488.295 186.181 488.295 Q189.815 488.295 191.621 484.753 Q193.45 481.189 193.45 474.082 Q193.45 466.953 191.621 463.411 Q189.815 459.846 186.181 459.846 M186.181 456.143 Q191.991 456.143 195.047 460.749 Q198.125 465.332 198.125 474.082 Q198.125 482.809 195.047 487.415 Q191.991 491.999 186.181 491.999 Q180.371 491.999 177.292 487.415 Q174.237 482.809 174.237 474.082 Q174.237 465.332 177.292 460.749 Q180.371 456.143 186.181 456.143 Z" fill="#000000" fill-rule="nonzero" fill-opacity="1" /><path clip-path="url(#clip070)" d="M216.343 459.846 Q212.732 459.846 210.903 463.411 Q209.098 466.953 209.098 474.082 Q209.098 481.189 210.903 484.753 Q212.732 488.295 216.343 488.295 Q219.977 488.295 221.783 484.753 Q223.611 481.189 223.611 474.082 Q223.611 466.953 221.783 463.411 Q219.977 459.846 216.343 459.846 M216.343 456.143 Q222.153 456.143 225.209 460.749 Q228.287 465.332 228.287 474.082 Q228.287 482.809 225.209 487.415 Q222.153 491.999 216.343 491.999 Q210.533 491.999 207.454 487.415 Q204.399 482.809 204.399 474.082 Q204.399 465.332 207.454 460.749 Q210.533 456.143 216.343 456.143 Z" fill="#000000" fill-rule="nonzero" fill-opacity="1" /><path clip-path="url(#clip070)" d="M119.885 259.305 L136.204 259.305 L136.204 263.24 L114.26 263.24 L114.26 259.305 Q116.922 256.551 121.505 251.921 Q126.112 247.268 127.292 245.926 Q129.538 243.403 130.417 241.667 Q131.32 239.907 131.32 238.217 Q131.32 235.463 129.376 233.727 Q127.455 231.991 124.353 231.991 Q122.154 231.991 119.7 232.755 Q117.269 233.518 114.492 235.069 L114.492 230.347 Q117.316 229.213 119.769 228.634 Q122.223 228.055 124.26 228.055 Q129.63 228.055 132.825 230.741 Q136.019 233.426 136.019 237.917 Q136.019 240.046 135.209 241.967 Q134.422 243.866 132.316 246.458 Q131.737 247.129 128.635 250.347 Q125.533 253.541 119.885 259.305 Z" fill="#000000" fill-rule="nonzero" fill-opacity="1" /><path clip-path="url(#clip070)" d="M146.066 228.68 L164.422 228.68 L164.422 232.616 L150.348 232.616 L150.348 241.088 Q151.366 240.741 152.385 240.579 Q153.403 240.393 154.422 240.393 Q160.209 240.393 163.589 243.565 Q166.968 246.736 166.968 252.153 Q166.968 257.731 163.496 260.833 Q160.024 263.912 153.704 263.912 Q151.528 263.912 149.26 263.541 Q147.015 263.171 144.607 262.43 L144.607 257.731 Q146.691 258.865 148.913 259.421 Q151.135 259.977 153.612 259.977 Q157.616 259.977 159.954 257.87 Q162.292 255.764 162.292 252.153 Q162.292 248.541 159.954 246.435 Q157.616 244.329 153.612 244.329 Q151.737 244.329 149.862 244.745 Q148.01 245.162 146.066 246.041 L146.066 228.68 Z" fill="#000000" fill-rule="nonzero" fill-opacity="1" /><path clip-path="url(#clip070)" d="M186.181 231.759 Q182.57 231.759 180.741 235.324 Q178.936 238.866 178.936 245.995 Q178.936 253.102 180.741 256.666 Q182.57 260.208 186.181 260.208 Q189.815 260.208 191.621 256.666 Q193.45 253.102 193.45 245.995 Q193.45 238.866 191.621 235.324 Q189.815 231.759 186.181 231.759 M186.181 228.055 Q191.991 228.055 195.047 232.662 Q198.125 237.245 198.125 245.995 Q198.125 254.722 195.047 259.328 Q191.991 263.912 186.181 263.912 Q180.371 263.912 177.292 259.328 Q174.237 254.722 174.237 245.995 Q174.237 237.245 177.292 232.662 Q180.371 228.055 186.181 228.055 Z" fill="#000000" fill-rule="nonzero" fill-opacity="1" /><path clip-path="url(#clip070)" d="M216.343 231.759 Q212.732 231.759 210.903 235.324 Q209.098 238.866 209.098 245.995 Q209.098 253.102 210.903 256.666 Q212.732 260.208 216.343 260.208 Q219.977 260.208 221.783 256.666 Q223.611 253.102 223.611 245.995 Q223.611 238.866 221.783 235.324 Q219.977 231.759 216.343 231.759 M216.343 228.055 Q222.153 228.055 225.209 232.662 Q228.287 237.245 228.287 245.995 Q228.287 254.722 225.209 259.328 Q222.153 263.912 216.343 263.912 Q210.533 263.912 207.454 259.328 Q204.399 254.722 204.399 245.995 Q204.399 237.245 207.454 232.662 Q210.533 228.055 216.343 228.055 Z" fill="#000000" fill-rule="nonzero" fill-opacity="1" /><path clip-path="url(#clip070)" d="M20.1444 844.431 L26.9239 844.431 Q23.9002 847.677 22.4043 851.37 Q20.9083 855.03 20.9083 859.168 Q20.9083 867.316 25.9054 871.644 Q30.8707 875.973 40.2919 875.973 Q49.6813 875.973 54.6784 871.644 Q59.6436 867.316 59.6436 859.168 Q59.6436 855.03 58.1477 851.37 Q56.6518 847.677 53.6281 844.431 L60.3439 844.431 Q62.6355 847.805 63.7814 851.592 Q64.9272 855.348 64.9272 859.549 Q64.9272 870.339 58.3387 876.546 Q51.7183 882.752 40.2919 882.752 Q28.8336 882.752 22.2451 876.546 Q15.6248 870.339 15.6248 859.549 Q15.6248 855.284 16.7706 851.529 Q17.8846 847.741 20.1444 844.431 Z" fill="#000000" fill-rule="nonzero" fill-opacity="1" /><path clip-path="url(#clip070)" d="M64.0042 822.246 L16.4842 840.389 L16.4842 833.673 L56.4926 818.618 L16.4842 803.531 L16.4842 796.847 L64.0042 814.958 L64.0042 822.246 Z" fill="#000000" fill-rule="nonzero" fill-opacity="1" /><path clip-path="url(#clip070)" d="M16.4842 779.755 L16.4842 774.344 L70.0516 790.895 L70.0516 796.306 L16.4842 779.755 Z" fill="#000000" fill-rule="nonzero" fill-opacity="1" /><path clip-path="url(#clip070)" d="M14.479 768.424 L14.479 762.536 L43.7294 762.536 L28.3562 745.062 L28.3562 737.583 L45.0344 756.489 L64.0042 736.787 L64.0042 744.426 L46.5939 762.536 L64.0042 762.536 L64.0042 768.424 L14.479 768.424 Z" fill="#000000" fill-rule="nonzero" fill-opacity="1" /><path clip-path="url(#clip070)" d="M74.8259 703.367 L79.3773 703.367 L79.3773 737.232 L74.8259 737.232 L74.8259 703.367 Z" fill="#000000" fill-rule="nonzero" fill-opacity="1" /><path clip-path="url(#clip070)" d="M41.3104 691.177 L58.7206 691.177 L58.7206 680.864 Q58.7206 675.676 56.5881 673.193 Q54.4238 670.679 49.9996 670.679 Q45.5436 670.679 43.4429 673.193 Q41.3104 675.676 41.3104 680.864 L41.3104 691.177 M21.7677 691.177 L36.0905 691.177 L36.0905 681.66 Q36.0905 676.949 34.34 674.658 Q32.5576 672.334 28.9291 672.334 Q25.3325 672.334 23.5501 674.658 Q21.7677 676.949 21.7677 681.66 L21.7677 691.177 M16.4842 697.606 L16.4842 681.182 Q16.4842 673.83 19.5397 669.851 Q22.5952 665.873 28.2289 665.873 Q32.5894 665.873 35.1675 667.91 Q37.7456 669.947 38.3822 673.894 Q39.4007 669.151 42.6472 666.541 Q45.8619 663.899 50.6998 663.899 Q57.0655 663.899 60.5348 668.228 Q64.0042 672.557 64.0042 680.546 L64.0042 697.606 L16.4842 697.606 Z" fill="#000000" fill-rule="nonzero" fill-opacity="1" /><path clip-path="url(#clip070)" d="M546.121 12.096 L554.304 12.096 L554.304 36.8875 L584.038 36.8875 L584.038 12.096 L592.22 12.096 L592.22 72.576 L584.038 72.576 L584.038 43.7741 L554.304 43.7741 L554.304 72.576 L546.121 72.576 L546.121 12.096 Z" fill="#000000" fill-rule="nonzero" fill-opacity="1" /><path clip-path="url(#clip070)" d="M646.989 48.0275 L646.989 51.6733 L612.718 51.6733 Q613.204 59.3701 617.336 63.421 Q621.509 67.4314 628.922 67.4314 Q633.216 67.4314 637.226 66.3781 Q641.277 65.3249 645.247 63.2184 L645.247 70.267 Q641.236 71.9684 637.023 72.8596 Q632.811 73.7508 628.476 73.7508 Q617.62 73.7508 611.26 67.4314 Q604.94 61.1119 604.94 50.3365 Q604.94 39.1965 610.936 32.6746 Q616.972 26.1121 627.18 26.1121 Q636.335 26.1121 641.642 32.0264 Q646.989 37.9003 646.989 48.0275 M639.535 45.84 Q639.454 39.7232 636.092 36.0774 Q632.77 32.4315 627.261 32.4315 Q621.022 32.4315 617.255 35.9558 Q613.528 39.4801 612.961 45.8805 L639.535 45.84 Z" fill="#000000" fill-rule="nonzero" fill-opacity="1" /><path clip-path="url(#clip070)" d="M679.842 49.7694 Q670.808 49.7694 667.324 51.8354 Q663.84 53.9013 663.84 58.8839 Q663.84 62.8538 666.433 65.2034 Q669.066 67.5124 673.563 67.5124 Q679.761 67.5124 683.487 63.1374 Q687.255 58.7219 687.255 51.4303 L687.255 49.7694 L679.842 49.7694 M694.708 46.6907 L694.708 72.576 L687.255 72.576 L687.255 65.6895 Q684.703 69.8214 680.895 71.8063 Q677.087 73.7508 671.578 73.7508 Q664.61 73.7508 660.478 69.8619 Q656.387 65.9325 656.387 59.3701 Q656.387 51.7138 661.491 47.825 Q666.636 43.9361 676.803 43.9361 L687.255 43.9361 L687.255 43.2069 Q687.255 38.0623 683.852 35.2672 Q680.49 32.4315 674.373 32.4315 Q670.484 32.4315 666.798 33.3632 Q663.111 34.295 659.709 36.1584 L659.709 29.2718 Q663.8 27.692 667.648 26.9223 Q671.497 26.1121 675.142 26.1121 Q684.986 26.1121 689.847 31.2163 Q694.708 36.3204 694.708 46.6907 Z" fill="#000000" fill-rule="nonzero" fill-opacity="1" /><path clip-path="url(#clip070)" d="M717.434 14.324 L717.434 27.2059 L732.787 27.2059 L732.787 32.9987 L717.434 32.9987 L717.434 57.6282 Q717.434 63.1779 718.933 64.7578 Q720.472 66.3376 725.131 66.3376 L732.787 66.3376 L732.787 72.576 L725.131 72.576 Q716.502 72.576 713.221 69.3758 Q709.94 66.1351 709.94 57.6282 L709.94 32.9987 L704.471 32.9987 L704.471 27.2059 L709.94 27.2059 L709.94 14.324 L717.434 14.324 Z" fill="#000000" fill-rule="nonzero" fill-opacity="1" /><path clip-path="url(#clip070)" d="M814.575 16.7545 L814.575 25.383 Q810.443 21.5346 805.744 19.6307 Q801.085 17.7268 795.819 17.7268 Q785.449 17.7268 779.939 24.0867 Q774.43 30.4061 774.43 42.3968 Q774.43 54.3469 779.939 60.7069 Q785.449 67.0263 795.819 67.0263 Q801.085 67.0263 805.744 65.1223 Q810.443 63.2184 814.575 59.3701 L814.575 67.9175 Q810.281 70.8341 805.46 72.2924 Q800.68 73.7508 795.333 73.7508 Q781.6 73.7508 773.701 65.3654 Q765.802 56.9395 765.802 42.3968 Q765.802 27.8135 773.701 19.4281 Q781.6 11.0023 795.333 11.0023 Q800.761 11.0023 805.541 12.4606 Q810.362 13.8784 814.575 16.7545 Z" fill="#000000" fill-rule="nonzero" fill-opacity="1" /><path clip-path="url(#clip070)" d="M847.508 49.7694 Q838.475 49.7694 834.991 51.8354 Q831.507 53.9013 831.507 58.8839 Q831.507 62.8538 834.1 65.2034 Q836.733 67.5124 841.23 67.5124 Q847.427 67.5124 851.154 63.1374 Q854.922 58.7219 854.922 51.4303 L854.922 49.7694 L847.508 49.7694 M862.375 46.6907 L862.375 72.576 L854.922 72.576 L854.922 65.6895 Q852.37 69.8214 848.562 71.8063 Q844.754 73.7508 839.245 73.7508 Q832.277 73.7508 828.145 69.8619 Q824.054 65.9325 824.054 59.3701 Q824.054 51.7138 829.158 47.825 Q834.303 43.9361 844.47 43.9361 L854.922 43.9361 L854.922 43.2069 Q854.922 38.0623 851.519 35.2672 Q848.157 32.4315 842.04 32.4315 Q838.151 32.4315 834.465 33.3632 Q830.778 34.295 827.375 36.1584 L827.375 29.2718 Q831.467 27.692 835.315 26.9223 Q839.164 26.1121 842.809 26.1121 Q852.653 26.1121 857.514 31.2163 Q862.375 36.3204 862.375 46.6907 Z" fill="#000000" fill-rule="nonzero" fill-opacity="1" /><path clip-path="url(#clip070)" d="M884.939 65.7705 L884.939 89.8329 L877.445 89.8329 L877.445 27.2059 L884.939 27.2059 L884.939 34.0924 Q887.288 30.0415 890.853 28.0971 Q894.458 26.1121 899.441 26.1121 Q907.705 26.1121 912.85 32.6746 Q918.035 39.2371 918.035 49.9314 Q918.035 60.6258 912.85 67.1883 Q907.705 73.7508 899.441 73.7508 Q894.458 73.7508 890.853 71.8063 Q887.288 69.8214 884.939 65.7705 M910.297 49.9314 Q910.297 41.7081 906.895 37.0496 Q903.532 32.3505 897.618 32.3505 Q891.704 32.3505 888.301 37.0496 Q884.939 41.7081 884.939 49.9314 Q884.939 58.1548 888.301 62.8538 Q891.704 67.5124 897.618 67.5124 Q903.532 67.5124 906.895 62.8538 Q910.297 58.1548 910.297 49.9314 Z" fill="#000000" fill-rule="nonzero" fill-opacity="1" /><path clip-path="url(#clip070)" d="M951.009 49.7694 Q941.976 49.7694 938.492 51.8354 Q935.008 53.9013 935.008 58.8839 Q935.008 62.8538 937.601 65.2034 Q940.234 67.5124 944.73 67.5124 Q950.928 67.5124 954.655 63.1374 Q958.422 58.7219 958.422 51.4303 L958.422 49.7694 L951.009 49.7694 M965.876 46.6907 L965.876 72.576 L958.422 72.576 L958.422 65.6895 Q955.87 69.8214 952.062 71.8063 Q948.254 73.7508 942.745 73.7508 Q935.778 73.7508 931.646 69.8619 Q927.554 65.9325 927.554 59.3701 Q927.554 51.7138 932.658 47.825 Q937.803 43.9361 947.971 43.9361 L958.422 43.9361 L958.422 43.2069 Q958.422 38.0623 955.019 35.2672 Q951.657 32.4315 945.54 32.4315 Q941.651 32.4315 937.965 33.3632 Q934.279 34.295 930.876 36.1584 L930.876 29.2718 Q934.967 27.692 938.816 26.9223 Q942.664 26.1121 946.31 26.1121 Q956.154 26.1121 961.015 31.2163 Q965.876 36.3204 965.876 46.6907 Z" fill="#000000" fill-rule="nonzero" fill-opacity="1" /><path clip-path="url(#clip070)" d="M1013.88 28.9478 L1013.88 35.9153 Q1010.72 34.1734 1007.52 33.3227 Q1004.36 32.4315 1001.12 32.4315 Q993.868 32.4315 989.857 37.0496 Q985.847 41.6271 985.847 49.9314 Q985.847 58.2358 989.857 62.8538 Q993.868 67.4314 1001.12 67.4314 Q1004.36 67.4314 1007.52 66.5807 Q1010.72 65.6895 1013.88 63.9476 L1013.88 70.8341 Q1010.76 72.2924 1007.4 73.0216 Q1004.08 73.7508 1000.31 73.7508 Q990.06 73.7508 984.024 67.3098 Q977.988 60.8689 977.988 49.9314 Q977.988 38.832 984.064 32.472 Q990.181 26.1121 1000.79 26.1121 Q1004.24 26.1121 1007.52 26.8413 Q1010.8 27.5299 1013.88 28.9478 Z" fill="#000000" fill-rule="nonzero" fill-opacity="1" /><path clip-path="url(#clip070)" d="M1026.84 27.2059 L1034.3 27.2059 L1034.3 72.576 L1026.84 72.576 L1026.84 27.2059 M1026.84 9.54393 L1034.3 9.54393 L1034.3 18.9825 L1026.84 18.9825 L1026.84 9.54393 Z" fill="#000000" fill-rule="nonzero" fill-opacity="1" /><path clip-path="url(#clip070)" d="M1057.26 14.324 L1057.26 27.2059 L1072.62 27.2059 L1072.62 32.9987 L1057.26 32.9987 L1057.26 57.6282 Q1057.26 63.1779 1058.76 64.7578 Q1060.3 66.3376 1064.96 66.3376 L1072.62 66.3376 L1072.62 72.576 L1064.96 72.576 Q1056.33 72.576 1053.05 69.3758 Q1049.77 66.1351 1049.77 57.6282 L1049.77 32.9987 L1044.3 32.9987 L1044.3 27.2059 L1049.77 27.2059 L1049.77 14.324 L1057.26 14.324 Z" fill="#000000" fill-rule="nonzero" fill-opacity="1" /><path clip-path="url(#clip070)" d="M1101.3 76.7889 Q1098.14 84.8907 1095.14 87.3618 Q1092.14 89.8329 1087.12 89.8329 L1081.16 89.8329 L1081.16 83.5945 L1085.54 83.5945 Q1088.62 83.5945 1090.32 82.1361 Q1092.02 80.6778 1094.09 75.2496 L1095.42 71.8468 L1077.07 27.2059 L1084.97 27.2059 L1099.15 62.6918 L1113.33 27.2059 L1121.23 27.2059 L1101.3 76.7889 Z" fill="#000000" fill-rule="nonzero" fill-opacity="1" /><path clip-path="url(#clip070)" d="M1175.47 32.4315 Q1169.47 32.4315 1165.99 37.1306 Q1162.51 41.7891 1162.51 49.9314 Q1162.51 58.0738 1165.95 62.7728 Q1169.43 67.4314 1175.47 67.4314 Q1181.42 67.4314 1184.91 62.7323 Q1188.39 58.0333 1188.39 49.9314 Q1188.39 41.8701 1184.91 37.1711 Q1181.42 32.4315 1175.47 32.4315 M1175.47 26.1121 Q1185.19 26.1121 1190.74 32.4315 Q1196.29 38.7509 1196.29 49.9314 Q1196.29 61.0714 1190.74 67.4314 Q1185.19 73.7508 1175.47 73.7508 Q1165.71 73.7508 1160.16 67.4314 Q1154.65 61.0714 1154.65 49.9314 Q1154.65 38.7509 1160.16 32.4315 Q1165.71 26.1121 1175.47 26.1121 Z" fill="#000000" fill-rule="nonzero" fill-opacity="1" /><path clip-path="url(#clip070)" d="M1203.3 27.2059 L1211.2 27.2059 L1225.38 65.2844 L1239.55 27.2059 L1247.45 27.2059 L1230.44 72.576 L1220.31 72.576 L1203.3 27.2059 Z" fill="#000000" fill-rule="nonzero" fill-opacity="1" /><path clip-path="url(#clip070)" d="M1296.55 48.0275 L1296.55 51.6733 L1262.28 51.6733 Q1262.77 59.3701 1266.9 63.421 Q1271.07 67.4314 1278.48 67.4314 Q1282.78 67.4314 1286.79 66.3781 Q1290.84 65.3249 1294.81 63.2184 L1294.81 70.267 Q1290.8 71.9684 1286.59 72.8596 Q1282.37 73.7508 1278.04 73.7508 Q1267.18 73.7508 1260.82 67.4314 Q1254.5 61.1119 1254.5 50.3365 Q1254.5 39.1965 1260.5 32.6746 Q1266.53 26.1121 1276.74 26.1121 Q1285.9 26.1121 1291.2 32.0264 Q1296.55 37.9003 1296.55 48.0275 M1289.1 45.84 Q1289.02 39.7232 1285.65 36.0774 Q1282.33 32.4315 1276.82 32.4315 Q1270.58 32.4315 1266.82 35.9558 Q1263.09 39.4801 1262.52 45.8805 L1289.1 45.84 Z" fill="#000000" fill-rule="nonzero" fill-opacity="1" /><path clip-path="url(#clip070)" d="M1335.08 34.1734 Q1333.82 33.4443 1332.32 33.1202 Q1330.86 32.7556 1329.08 32.7556 Q1322.76 32.7556 1319.36 36.8875 Q1316 40.9789 1316 48.6757 L1316 72.576 L1308.5 72.576 L1308.5 27.2059 L1316 27.2059 L1316 34.2544 Q1318.35 30.1225 1322.11 28.1376 Q1325.88 26.1121 1331.27 26.1121 Q1332.04 26.1121 1332.97 26.2337 Q1333.9 26.3147 1335.03 26.5172 L1335.08 34.1734 Z" fill="#000000" fill-rule="nonzero" fill-opacity="1" /><path clip-path="url(#clip070)" d="M1376.64 14.324 L1376.64 27.2059 L1391.99 27.2059 L1391.99 32.9987 L1376.64 32.9987 L1376.64 57.6282 Q1376.64 63.1779 1378.14 64.7578 Q1379.68 66.3376 1384.33 66.3376 L1391.99 66.3376 L1391.99 72.576 L1384.33 72.576 Q1375.71 72.576 1372.42 69.3758 Q1369.14 66.1351 1369.14 57.6282 L1369.14 32.9987 L1363.67 32.9987 L1363.67 27.2059 L1369.14 27.2059 L1369.14 14.324 L1376.64 14.324 Z" fill="#000000" fill-rule="nonzero" fill-opacity="1" /><path clip-path="url(#clip070)" d="M1439.51 45.1919 L1439.51 72.576 L1432.05 72.576 L1432.05 45.4349 Q1432.05 38.994 1429.54 35.7938 Q1427.03 32.5936 1422.01 32.5936 Q1415.97 32.5936 1412.49 36.4419 Q1409 40.2903 1409 46.9338 L1409 72.576 L1401.51 72.576 L1401.51 9.54393 L1409 9.54393 L1409 34.2544 Q1411.68 30.163 1415.28 28.1376 Q1418.93 26.1121 1423.67 26.1121 Q1431.49 26.1121 1435.5 30.9732 Q1439.51 35.7938 1439.51 45.1919 Z" fill="#000000" fill-rule="nonzero" fill-opacity="1" /><path clip-path="url(#clip070)" d="M1493.18 48.0275 L1493.18 51.6733 L1458.91 51.6733 Q1459.4 59.3701 1463.53 63.421 Q1467.7 67.4314 1475.12 67.4314 Q1479.41 67.4314 1483.42 66.3781 Q1487.47 65.3249 1491.44 63.2184 L1491.44 70.267 Q1487.43 71.9684 1483.22 72.8596 Q1479 73.7508 1474.67 73.7508 Q1463.81 73.7508 1457.45 67.4314 Q1451.13 61.1119 1451.13 50.3365 Q1451.13 39.1965 1457.13 32.6746 Q1463.16 26.1121 1473.37 26.1121 Q1482.53 26.1121 1487.83 32.0264 Q1493.18 37.9003 1493.18 48.0275 M1485.73 45.84 Q1485.65 39.7232 1482.29 36.0774 Q1478.96 32.4315 1473.45 32.4315 Q1467.22 32.4315 1463.45 35.9558 Q1459.72 39.4801 1459.15 45.8805 L1485.73 45.84 Z" fill="#000000" fill-rule="nonzero" fill-opacity="1" /><path clip-path="url(#clip070)" d="M1540.29 18.8205 L1540.29 65.8515 L1550.18 65.8515 Q1562.7 65.8515 1568.49 60.1802 Q1574.32 54.509 1574.32 42.2752 Q1574.32 30.1225 1568.49 24.4918 Q1562.7 18.8205 1550.18 18.8205 L1540.29 18.8205 M1532.11 12.096 L1548.92 12.096 Q1566.5 12.096 1574.73 19.4281 Q1582.95 26.7198 1582.95 42.2752 Q1582.95 57.9117 1574.69 65.2439 Q1566.42 72.576 1548.92 72.576 L1532.11 72.576 L1532.11 12.096 Z" fill="#000000" fill-rule="nonzero" fill-opacity="1" /><path clip-path="url(#clip070)" d="M1595.67 27.2059 L1603.12 27.2059 L1603.12 72.576 L1595.67 72.576 L1595.67 27.2059 M1595.67 9.54393 L1603.12 9.54393 L1603.12 18.9825 L1595.67 18.9825 L1595.67 9.54393 Z" fill="#000000" fill-rule="nonzero" fill-opacity="1" /><path clip-path="url(#clip070)" d="M1654.04 35.9153 Q1656.84 30.8922 1660.73 28.5022 Q1664.62 26.1121 1669.88 26.1121 Q1676.97 26.1121 1680.82 31.0947 Q1684.67 36.0368 1684.67 45.1919 L1684.67 72.576 L1677.17 72.576 L1677.17 45.4349 Q1677.17 38.913 1674.87 35.7533 Q1672.56 32.5936 1667.82 32.5936 Q1662.02 32.5936 1658.66 36.4419 Q1655.3 40.2903 1655.3 46.9338 L1655.3 72.576 L1647.81 72.576 L1647.81 45.4349 Q1647.81 38.8725 1645.5 35.7533 Q1643.19 32.5936 1638.37 32.5936 Q1632.65 32.5936 1629.29 36.4824 Q1625.93 40.3308 1625.93 46.9338 L1625.93 72.576 L1618.44 72.576 L1618.44 27.2059 L1625.93 27.2059 L1625.93 34.2544 Q1628.48 30.082 1632.05 28.0971 Q1635.61 26.1121 1640.51 26.1121 Q1645.46 26.1121 1648.9 28.6237 Q1652.38 31.1352 1654.04 35.9153 Z" fill="#000000" fill-rule="nonzero" fill-opacity="1" /><path clip-path="url(#clip070)" d="M1700.59 62.2867 L1709.14 62.2867 L1709.14 72.576 L1700.59 72.576 L1700.59 62.2867 Z" fill="#000000" fill-rule="nonzero" fill-opacity="1" /><path clip-path="url(#clip070)" d="M1769.86 32.4315 Q1763.86 32.4315 1760.38 37.1306 Q1756.9 41.7891 1756.9 49.9314 Q1756.9 58.0738 1760.34 62.7728 Q1763.82 67.4314 1769.86 67.4314 Q1775.81 67.4314 1779.3 62.7323 Q1782.78 58.0333 1782.78 49.9314 Q1782.78 41.8701 1779.3 37.1711 Q1775.81 32.4315 1769.86 32.4315 M1769.86 26.1121 Q1779.58 26.1121 1785.13 32.4315 Q1790.68 38.7509 1790.68 49.9314 Q1790.68 61.0714 1785.13 67.4314 Q1779.58 73.7508 1769.86 73.7508 Q1760.1 73.7508 1754.55 67.4314 Q1749.04 61.0714 1749.04 49.9314 Q1749.04 38.7509 1754.55 32.4315 Q1760.1 26.1121 1769.86 26.1121 Z" fill="#000000" fill-rule="nonzero" fill-opacity="1" /><path clip-path="url(#clip070)" d="M1826 9.54393 L1826 15.7418 L1818.87 15.7418 Q1814.86 15.7418 1813.28 17.3622 Q1811.75 18.9825 1811.75 23.1955 L1811.75 27.2059 L1824.02 27.2059 L1824.02 32.9987 L1811.75 32.9987 L1811.75 72.576 L1804.25 72.576 L1804.25 32.9987 L1797.12 32.9987 L1797.12 27.2059 L1804.25 27.2059 L1804.25 24.0462 Q1804.25 16.471 1807.78 13.0277 Q1811.3 9.54393 1818.96 9.54393 L1826 9.54393 Z" fill="#000000" fill-rule="nonzero" fill-opacity="1" /><path clip-path="url(#clip070)" d="M1895.19 14.0809 L1895.19 22.0612 Q1890.54 19.8332 1886.4 18.7395 Q1882.27 17.6457 1878.42 17.6457 Q1871.74 17.6457 1868.09 20.2383 Q1864.49 22.8309 1864.49 27.611 Q1864.49 31.6214 1866.88 33.6873 Q1869.31 35.7128 1876.03 36.9686 L1880.98 37.9813 Q1890.13 39.7232 1894.46 44.1387 Q1898.84 48.5136 1898.84 55.8863 Q1898.84 64.6767 1892.93 69.2137 Q1887.05 73.7508 1875.67 73.7508 Q1871.37 73.7508 1866.51 72.7785 Q1861.69 71.8063 1856.51 69.9024 L1856.51 61.4765 Q1861.49 64.2716 1866.27 65.6895 Q1871.05 67.1073 1875.67 67.1073 Q1882.68 67.1073 1886.48 64.3527 Q1890.29 61.598 1890.29 56.4939 Q1890.29 52.0379 1887.54 49.5264 Q1884.82 47.0148 1878.59 45.759 L1873.6 44.7868 Q1864.45 42.9639 1860.36 39.075 Q1856.26 35.1862 1856.26 28.2591 Q1856.26 20.2383 1861.9 15.6203 Q1867.57 11.0023 1877.49 11.0023 Q1881.74 11.0023 1886.16 11.7719 Q1890.58 12.5416 1895.19 14.0809 Z" fill="#000000" fill-rule="nonzero" fill-opacity="1" /><path clip-path="url(#clip070)" d="M1918.49 65.7705 L1918.49 89.8329 L1910.99 89.8329 L1910.99 27.2059 L1918.49 27.2059 L1918.49 34.0924 Q1920.84 30.0415 1924.4 28.0971 Q1928.01 26.1121 1932.99 26.1121 Q1941.25 26.1121 1946.4 32.6746 Q1951.58 39.2371 1951.58 49.9314 Q1951.58 60.6258 1946.4 67.1883 Q1941.25 73.7508 1932.99 73.7508 Q1928.01 73.7508 1924.4 71.8063 Q1920.84 69.8214 1918.49 65.7705 M1943.85 49.9314 Q1943.85 41.7081 1940.44 37.0496 Q1937.08 32.3505 1931.17 32.3505 Q1925.25 32.3505 1921.85 37.0496 Q1918.49 41.7081 1918.49 49.9314 Q1918.49 58.1548 1921.85 62.8538 Q1925.25 67.5124 1931.17 67.5124 Q1937.08 67.5124 1940.44 62.8538 Q1943.85 58.1548 1943.85 49.9314 Z" fill="#000000" fill-rule="nonzero" fill-opacity="1" /><path clip-path="url(#clip070)" d="M1963.94 27.2059 L1971.39 27.2059 L1971.39 72.576 L1963.94 72.576 L1963.94 27.2059 M1963.94 9.54393 L1971.39 9.54393 L1971.39 18.9825 L1963.94 18.9825 L1963.94 9.54393 Z" fill="#000000" fill-rule="nonzero" fill-opacity="1" /><path clip-path="url(#clip070)" d="M2024.7 45.1919 L2024.7 72.576 L2017.25 72.576 L2017.25 45.4349 Q2017.25 38.994 2014.74 35.7938 Q2012.22 32.5936 2007.2 32.5936 Q2001.17 32.5936 1997.68 36.4419 Q1994.2 40.2903 1994.2 46.9338 L1994.2 72.576 L1986.7 72.576 L1986.7 27.2059 L1994.2 27.2059 L1994.2 34.2544 Q1996.87 30.163 2000.48 28.1376 Q2004.12 26.1121 2008.86 26.1121 Q2016.68 26.1121 2020.69 30.9732 Q2024.7 35.7938 2024.7 45.1919 Z" fill="#000000" fill-rule="nonzero" fill-opacity="1" /><path clip-path="url(#clip070)" d="M2068.49 28.5427 L2068.49 35.5912 Q2065.33 33.9709 2061.93 33.1607 Q2058.53 32.3505 2054.88 32.3505 Q2049.33 32.3505 2046.54 34.0519 Q2043.78 35.7533 2043.78 39.156 Q2043.78 41.7486 2045.77 43.2475 Q2047.75 44.7058 2053.75 46.0426 L2056.3 46.6097 Q2064.24 48.3111 2067.56 51.4303 Q2070.92 54.509 2070.92 60.0587 Q2070.92 66.3781 2065.9 70.0644 Q2060.92 73.7508 2052.17 73.7508 Q2048.52 73.7508 2044.55 73.0216 Q2040.62 72.3329 2036.25 70.9151 L2036.25 63.2184 Q2040.38 65.3654 2044.39 66.4591 Q2048.4 67.5124 2052.33 67.5124 Q2057.59 67.5124 2060.43 65.73 Q2063.27 63.9071 2063.27 60.6258 Q2063.27 57.5877 2061.2 55.9673 Q2059.17 54.3469 2052.25 52.8481 L2049.65 52.2405 Q2042.73 50.7821 2039.65 47.7845 Q2036.57 44.7463 2036.57 39.4801 Q2036.57 33.0797 2041.11 29.5959 Q2045.64 26.1121 2053.99 26.1121 Q2058.12 26.1121 2061.77 26.7198 Q2065.41 27.3274 2068.49 28.5427 Z" fill="#000000" fill-rule="nonzero" fill-opacity="1" /><circle clip-path="url(#clip072)" cx="323.395" cy="1386.4" r="14.4" fill="#009af9" fill-rule="evenodd" fill-opacity="1" stroke="#000000" stroke-opacity="1" stroke-width="3.2"/>
<circle clip-path="url(#clip072)" cx="427.092" cy="1386.08" r="14.4" fill="#009af9" fill-rule="evenodd" fill-opacity="1" stroke="#000000" stroke-opacity="1" stroke-width="3.2"/>
<circle clip-path="url(#clip072)" cx="530.79" cy="1385.75" r="14.4" fill="#009af9" fill-rule="evenodd" fill-opacity="1" stroke="#000000" stroke-opacity="1" stroke-width="3.2"/>
<circle clip-path="url(#clip072)" cx="634.488" cy="1382.56" r="14.4" fill="#009af9" fill-rule="evenodd" fill-opacity="1" stroke="#000000" stroke-opacity="1" stroke-width="3.2"/>
<circle clip-path="url(#clip072)" cx="738.185" cy="1366.45" r="14.4" fill="#009af9" fill-rule="evenodd" fill-opacity="1" stroke="#000000" stroke-opacity="1" stroke-width="3.2"/>
<circle clip-path="url(#clip072)" cx="841.883" cy="362.974" r="14.4" fill="#009af9" fill-rule="evenodd" fill-opacity="1" stroke="#000000" stroke-opacity="1" stroke-width="3.2"/>
<circle clip-path="url(#clip072)" cx="945.58" cy="1044.37" r="14.4" fill="#009af9" fill-rule="evenodd" fill-opacity="1" stroke="#000000" stroke-opacity="1" stroke-width="3.2"/>
<circle clip-path="url(#clip072)" cx="1049.28" cy="600.84" r="14.4" fill="#009af9" fill-rule="evenodd" fill-opacity="1" stroke="#000000" stroke-opacity="1" stroke-width="3.2"/>
<circle clip-path="url(#clip072)" cx="1152.98" cy="604.4" r="14.4" fill="#009af9" fill-rule="evenodd" fill-opacity="1" stroke="#000000" stroke-opacity="1" stroke-width="3.2"/>
<circle clip-path="url(#clip072)" cx="1256.67" cy="433.293" r="14.4" fill="#009af9" fill-rule="evenodd" fill-opacity="1" stroke="#000000" stroke-opacity="1" stroke-width="3.2"/>
<circle clip-path="url(#clip072)" cx="1360.37" cy="160.256" r="14.4" fill="#009af9" fill-rule="evenodd" fill-opacity="1" stroke="#000000" stroke-opacity="1" stroke-width="3.2"/>
<circle clip-path="url(#clip072)" cx="1464.07" cy="881.911" r="14.4" fill="#009af9" fill-rule="evenodd" fill-opacity="1" stroke="#000000" stroke-opacity="1" stroke-width="3.2"/>
<circle clip-path="url(#clip072)" cx="1567.77" cy="910.964" r="14.4" fill="#009af9" fill-rule="evenodd" fill-opacity="1" stroke="#000000" stroke-opacity="1" stroke-width="3.2"/>
<circle clip-path="url(#clip072)" cx="1671.46" cy="931.141" r="14.4" fill="#009af9" fill-rule="evenodd" fill-opacity="1" stroke="#000000" stroke-opacity="1" stroke-width="3.2"/>
<circle clip-path="url(#clip072)" cx="1775.16" cy="971.199" r="14.4" fill="#009af9" fill-rule="evenodd" fill-opacity="1" stroke="#000000" stroke-opacity="1" stroke-width="3.2"/>
<circle clip-path="url(#clip072)" cx="1878.86" cy="995.599" r="14.4" fill="#009af9" fill-rule="evenodd" fill-opacity="1" stroke="#000000" stroke-opacity="1" stroke-width="3.2"/>
<circle clip-path="url(#clip072)" cx="1982.56" cy="913.127" r="14.4" fill="#009af9" fill-rule="evenodd" fill-opacity="1" stroke="#000000" stroke-opacity="1" stroke-width="3.2"/>
<circle clip-path="url(#clip072)" cx="2086.25" cy="973.83" r="14.4" fill="#009af9" fill-rule="evenodd" fill-opacity="1" stroke="#000000" stroke-opacity="1" stroke-width="3.2"/>
<circle clip-path="url(#clip072)" cx="2189.95" cy="1022.48" r="14.4" fill="#009af9" fill-rule="evenodd" fill-opacity="1" stroke="#000000" stroke-opacity="1" stroke-width="3.2"/>
<circle clip-path="url(#clip072)" cx="2293.65" cy="1030.83" r="14.4" fill="#009af9" fill-rule="evenodd" fill-opacity="1" stroke="#000000" stroke-opacity="1" stroke-width="3.2"/>
</svg>
