<?xml version="1.0" encoding="utf-8"?>
<svg xmlns="http://www.w3.org/2000/svg" xmlns:xlink="http://www.w3.org/1999/xlink" width="600" height="400" viewBox="0 0 2400 1600">
<defs>
  <clipPath id="clip830">
    <rect x="0" y="0" width="2400" height="1600"/>
  </clipPath>
</defs>
<path clip-path="url(#clip830)" d="M0 1600 L2400 1600 L2400 0 L0 0  Z" fill="#ffffff" fill-rule="evenodd" fill-opacity="1"/>
<defs>
  <clipPath id="clip831">
    <rect x="480" y="0" width="1681" height="1600"/>
  </clipPath>
</defs>
<path clip-path="url(#clip830)" d="M219.38 1423.18 L2352.76 1423.18 L2352.76 123.472 L219.38 123.472  Z" fill="#ffffff" fill-rule="evenodd" fill-opacity="1"/>
<defs>
  <clipPath id="clip832">
    <rect x="219" y="123" width="2134" height="1301"/>
  </clipPath>
</defs>
<polyline clip-path="url(#clip832)" style="stroke:#000000; stroke-linecap:round; stroke-linejoin:round; stroke-width:2; stroke-opacity:0.1; fill:none" points="279.348,1423.18 279.348,123.472 "/>
<polyline clip-path="url(#clip832)" style="stroke:#000000; stroke-linecap:round; stroke-linejoin:round; stroke-width:2; stroke-opacity:0.1; fill:none" points="690.086,1423.18 690.086,123.472 "/>
<polyline clip-path="url(#clip832)" style="stroke:#000000; stroke-linecap:round; stroke-linejoin:round; stroke-width:2; stroke-opacity:0.1; fill:none" points="1100.82,1423.18 1100.82,123.472 "/>
<polyline clip-path="url(#clip832)" style="stroke:#000000; stroke-linecap:round; stroke-linejoin:round; stroke-width:2; stroke-opacity:0.1; fill:none" points="1511.56,1423.18 1511.56,123.472 "/>
<polyline clip-path="url(#clip832)" style="stroke:#000000; stroke-linecap:round; stroke-linejoin:round; stroke-width:2; stroke-opacity:0.1; fill:none" points="1922.3,1423.18 1922.3,123.472 "/>
<polyline clip-path="url(#clip832)" style="stroke:#000000; stroke-linecap:round; stroke-linejoin:round; stroke-width:2; stroke-opacity:0.1; fill:none" points="2333.04,1423.18 2333.04,123.472 "/>
<polyline clip-path="url(#clip832)" style="stroke:#000000; stroke-linecap:round; stroke-linejoin:round; stroke-width:2; stroke-opacity:0.1; fill:none" points="219.38,1423.18 2352.76,1423.18 "/>
<polyline clip-path="url(#clip832)" style="stroke:#000000; stroke-linecap:round; stroke-linejoin:round; stroke-width:2; stroke-opacity:0.1; fill:none" points="219.38,1098.25 2352.76,1098.25 "/>
<polyline clip-path="url(#clip832)" style="stroke:#000000; stroke-linecap:round; stroke-linejoin:round; stroke-width:2; stroke-opacity:0.1; fill:none" points="219.38,773.326 2352.76,773.326 "/>
<polyline clip-path="url(#clip832)" style="stroke:#000000; stroke-linecap:round; stroke-linejoin:round; stroke-width:2; stroke-opacity:0.1; fill:none" points="219.38,448.399 2352.76,448.399 "/>
<polyline clip-path="url(#clip832)" style="stroke:#000000; stroke-linecap:round; stroke-linejoin:round; stroke-width:2; stroke-opacity:0.1; fill:none" points="219.38,123.472 2352.76,123.472 "/>
<polyline clip-path="url(#clip830)" style="stroke:#000000; stroke-linecap:round; stroke-linejoin:round; stroke-width:4; stroke-opacity:1; fill:none" points="219.38,1423.18 2352.76,1423.18 "/>
<polyline clip-path="url(#clip830)" style="stroke:#000000; stroke-linecap:round; stroke-linejoin:round; stroke-width:4; stroke-opacity:1; fill:none" points="279.348,1423.18 279.348,1404.28 "/>
<polyline clip-path="url(#clip830)" style="stroke:#000000; stroke-linecap:round; stroke-linejoin:round; stroke-width:4; stroke-opacity:1; fill:none" points="690.086,1423.18 690.086,1404.28 "/>
<polyline clip-path="url(#clip830)" style="stroke:#000000; stroke-linecap:round; stroke-linejoin:round; stroke-width:4; stroke-opacity:1; fill:none" points="1100.82,1423.18 1100.82,1404.28 "/>
<polyline clip-path="url(#clip830)" style="stroke:#000000; stroke-linecap:round; stroke-linejoin:round; stroke-width:4; stroke-opacity:1; fill:none" points="1511.56,1423.18 1511.56,1404.28 "/>
<polyline clip-path="url(#clip830)" style="stroke:#000000; stroke-linecap:round; stroke-linejoin:round; stroke-width:4; stroke-opacity:1; fill:none" points="1922.3,1423.18 1922.3,1404.28 "/>
<polyline clip-path="url(#clip830)" style="stroke:#000000; stroke-linecap:round; stroke-linejoin:round; stroke-width:4; stroke-opacity:1; fill:none" points="2333.04,1423.18 2333.04,1404.28 "/>
<path clip-path="url(#clip830)" d="M279.348 1454.1 Q275.737 1454.1 273.908 1457.66 Q272.103 1461.2 272.103 1468.33 Q272.103 1475.44 273.908 1479.01 Q275.737 1482.55 279.348 1482.55 Q282.982 1482.55 284.788 1479.01 Q286.616 1475.44 286.616 1468.33 Q286.616 1461.2 284.788 1457.66 Q282.982 1454.1 279.348 1454.1 M279.348 1450.39 Q285.158 1450.39 288.214 1455 Q291.292 1459.58 291.292 1468.33 Q291.292 1477.06 288.214 1481.67 Q285.158 1486.25 279.348 1486.25 Q273.538 1486.25 270.459 1481.67 Q267.404 1477.06 267.404 1468.33 Q267.404 1459.58 270.459 1455 Q273.538 1450.39 279.348 1450.39 Z" fill="#000000" fill-rule="nonzero" fill-opacity="1" /><path clip-path="url(#clip830)" d="M680.468 1481.64 L688.107 1481.64 L688.107 1455.28 L679.797 1456.95 L679.797 1452.69 L688.061 1451.02 L692.737 1451.02 L692.737 1481.64 L700.376 1481.64 L700.376 1485.58 L680.468 1485.58 L680.468 1481.64 Z" fill="#000000" fill-rule="nonzero" fill-opacity="1" /><path clip-path="url(#clip830)" d="M1095.48 1481.64 L1111.8 1481.64 L1111.8 1485.58 L1089.85 1485.58 L1089.85 1481.64 Q1092.51 1478.89 1097.1 1474.26 Q1101.7 1469.61 1102.89 1468.27 Q1105.13 1465.74 1106.01 1464.01 Q1106.91 1462.25 1106.91 1460.56 Q1106.91 1457.8 1104.97 1456.07 Q1103.05 1454.33 1099.95 1454.33 Q1097.75 1454.33 1095.29 1455.09 Q1092.86 1455.86 1090.08 1457.41 L1090.08 1452.69 Q1092.91 1451.55 1095.36 1450.97 Q1097.82 1450.39 1099.85 1450.39 Q1105.22 1450.39 1108.42 1453.08 Q1111.61 1455.77 1111.61 1460.26 Q1111.61 1462.39 1110.8 1464.31 Q1110.01 1466.2 1107.91 1468.8 Q1107.33 1469.47 1104.23 1472.69 Q1101.13 1475.88 1095.48 1481.64 Z" fill="#000000" fill-rule="nonzero" fill-opacity="1" /><path clip-path="url(#clip830)" d="M1515.81 1466.95 Q1519.17 1467.66 1521.04 1469.93 Q1522.94 1472.2 1522.94 1475.53 Q1522.94 1480.65 1519.42 1483.45 Q1515.9 1486.25 1509.42 1486.25 Q1507.25 1486.25 1504.93 1485.81 Q1502.64 1485.39 1500.19 1484.54 L1500.19 1480.02 Q1502.13 1481.16 1504.45 1481.74 Q1506.76 1482.32 1509.28 1482.32 Q1513.68 1482.32 1515.97 1480.58 Q1518.29 1478.84 1518.29 1475.53 Q1518.29 1472.48 1516.14 1470.77 Q1514.01 1469.03 1510.19 1469.03 L1506.16 1469.03 L1506.16 1465.19 L1510.37 1465.19 Q1513.82 1465.19 1515.65 1463.82 Q1517.48 1462.43 1517.48 1459.84 Q1517.48 1457.18 1515.58 1455.77 Q1513.7 1454.33 1510.19 1454.33 Q1508.26 1454.33 1506.07 1454.75 Q1503.87 1455.16 1501.23 1456.04 L1501.23 1451.88 Q1503.89 1451.14 1506.2 1450.77 Q1508.54 1450.39 1510.6 1450.39 Q1515.93 1450.39 1519.03 1452.83 Q1522.13 1455.23 1522.13 1459.35 Q1522.13 1462.22 1520.49 1464.21 Q1518.84 1466.18 1515.81 1466.95 Z" fill="#000000" fill-rule="nonzero" fill-opacity="1" /><path clip-path="url(#clip830)" d="M1925.31 1455.09 L1913.51 1473.54 L1925.31 1473.54 L1925.31 1455.09 M1924.08 1451.02 L1929.96 1451.02 L1929.96 1473.54 L1934.89 1473.54 L1934.89 1477.43 L1929.96 1477.43 L1929.96 1485.58 L1925.31 1485.58 L1925.31 1477.43 L1909.71 1477.43 L1909.71 1472.92 L1924.08 1451.02 Z" fill="#000000" fill-rule="nonzero" fill-opacity="1" /><path clip-path="url(#clip830)" d="M2323.32 1451.02 L2341.67 1451.02 L2341.67 1454.96 L2327.6 1454.96 L2327.6 1463.43 Q2328.62 1463.08 2329.64 1462.92 Q2330.66 1462.73 2331.67 1462.73 Q2337.46 1462.73 2340.84 1465.9 Q2344.22 1469.08 2344.22 1474.49 Q2344.22 1480.07 2340.75 1483.17 Q2337.28 1486.25 2330.96 1486.25 Q2328.78 1486.25 2326.51 1485.88 Q2324.27 1485.51 2321.86 1484.77 L2321.86 1480.07 Q2323.94 1481.2 2326.17 1481.76 Q2328.39 1482.32 2330.86 1482.32 Q2334.87 1482.32 2337.21 1480.21 Q2339.55 1478.1 2339.55 1474.49 Q2339.55 1470.88 2337.21 1468.77 Q2334.87 1466.67 2330.86 1466.67 Q2328.99 1466.67 2327.11 1467.08 Q2325.26 1467.5 2323.32 1468.38 L2323.32 1451.02 Z" fill="#000000" fill-rule="nonzero" fill-opacity="1" /><path clip-path="url(#clip830)" d="M1165.31 1520.52 L1205.51 1520.52 L1205.51 1525.93 L1188.64 1525.93 L1188.64 1568.04 L1182.18 1568.04 L1182.18 1525.93 L1165.31 1525.93 L1165.31 1520.52 Z" fill="#000000" fill-rule="nonzero" fill-opacity="1" /><path clip-path="url(#clip830)" d="M1225.53 1518.58 Q1221.27 1525.9 1219.2 1533.06 Q1217.13 1540.23 1217.13 1547.58 Q1217.13 1554.93 1219.2 1562.16 Q1221.3 1569.35 1225.53 1576.64 L1220.44 1576.64 Q1215.66 1569.16 1213.28 1561.93 Q1210.92 1554.71 1210.92 1547.58 Q1210.92 1540.48 1213.28 1533.29 Q1215.63 1526.09 1220.44 1518.58 L1225.53 1518.58 Z" fill="#000000" fill-rule="nonzero" fill-opacity="1" /><path clip-path="url(#clip830)" d="M1237.15 1520.52 L1243.58 1520.52 L1243.58 1564.73 Q1243.58 1573.33 1240.3 1577.21 Q1237.05 1581.09 1229.83 1581.09 L1227.38 1581.09 L1227.38 1575.68 L1229.38 1575.68 Q1233.65 1575.68 1235.4 1573.3 Q1237.15 1570.91 1237.15 1564.73 L1237.15 1520.52 Z" fill="#000000" fill-rule="nonzero" fill-opacity="1" /><path clip-path="url(#clip830)" d="M1266.53 1520.52 L1271.94 1520.52 L1255.39 1574.09 L1249.97 1574.09 L1266.53 1520.52 Z" fill="#000000" fill-rule="nonzero" fill-opacity="1" /><path clip-path="url(#clip830)" d="M1277.86 1518.52 L1283.74 1518.52 L1283.74 1547.77 L1301.22 1532.4 L1308.7 1532.4 L1289.79 1549.07 L1309.49 1568.04 L1301.85 1568.04 L1283.74 1550.63 L1283.74 1568.04 L1277.86 1568.04 L1277.86 1518.52 Z" fill="#000000" fill-rule="nonzero" fill-opacity="1" /><path clip-path="url(#clip830)" d="M1342.91 1578.87 L1342.91 1583.42 L1309.05 1583.42 L1309.05 1578.87 L1342.91 1578.87 Z" fill="#000000" fill-rule="nonzero" fill-opacity="1" /><path clip-path="url(#clip830)" d="M1355.1 1545.35 L1355.1 1562.76 L1365.42 1562.76 Q1370.6 1562.76 1373.09 1560.63 Q1375.6 1558.46 1375.6 1554.04 Q1375.6 1549.58 1373.09 1547.48 Q1370.6 1545.35 1365.42 1545.35 L1355.1 1545.35 M1355.1 1525.81 L1355.1 1540.13 L1364.62 1540.13 Q1369.33 1540.13 1371.62 1538.38 Q1373.95 1536.6 1373.95 1532.97 Q1373.95 1529.37 1371.62 1527.59 Q1369.33 1525.81 1364.62 1525.81 L1355.1 1525.81 M1348.67 1520.52 L1365.1 1520.52 Q1372.45 1520.52 1376.43 1523.58 Q1380.41 1526.63 1380.41 1532.27 Q1380.41 1536.63 1378.37 1539.21 Q1376.33 1541.79 1372.39 1542.42 Q1377.13 1543.44 1379.74 1546.69 Q1382.38 1549.9 1382.38 1554.74 Q1382.38 1561.11 1378.05 1564.57 Q1373.72 1568.04 1365.73 1568.04 L1348.67 1568.04 L1348.67 1520.52 Z" fill="#000000" fill-rule="nonzero" fill-opacity="1" /><path clip-path="url(#clip830)" d="M1392.22 1518.58 L1397.31 1518.58 Q1402.08 1526.09 1404.44 1533.29 Q1406.83 1540.48 1406.83 1547.58 Q1406.83 1554.71 1404.44 1561.93 Q1402.08 1569.16 1397.31 1576.64 L1392.22 1576.64 Q1396.45 1569.35 1398.52 1562.16 Q1400.62 1554.93 1400.62 1547.58 Q1400.62 1540.23 1398.52 1533.06 Q1396.45 1525.9 1392.22 1518.58 Z" fill="#000000" fill-rule="nonzero" fill-opacity="1" /><polyline clip-path="url(#clip830)" style="stroke:#000000; stroke-linecap:round; stroke-linejoin:round; stroke-width:4; stroke-opacity:1; fill:none" points="219.38,1423.18 219.38,123.472 "/>
<polyline clip-path="url(#clip830)" style="stroke:#000000; stroke-linecap:round; stroke-linejoin:round; stroke-width:4; stroke-opacity:1; fill:none" points="219.38,1423.18 238.278,1423.18 "/>
<polyline clip-path="url(#clip830)" style="stroke:#000000; stroke-linecap:round; stroke-linejoin:round; stroke-width:4; stroke-opacity:1; fill:none" points="219.38,1098.25 238.278,1098.25 "/>
<polyline clip-path="url(#clip830)" style="stroke:#000000; stroke-linecap:round; stroke-linejoin:round; stroke-width:4; stroke-opacity:1; fill:none" points="219.38,773.326 238.278,773.326 "/>
<polyline clip-path="url(#clip830)" style="stroke:#000000; stroke-linecap:round; stroke-linejoin:round; stroke-width:4; stroke-opacity:1; fill:none" points="219.38,448.399 238.278,448.399 "/>
<polyline clip-path="url(#clip830)" style="stroke:#000000; stroke-linecap:round; stroke-linejoin:round; stroke-width:4; stroke-opacity:1; fill:none" points="219.38,123.472 238.278,123.472 "/>
<path clip-path="url(#clip830)" d="M126.205 1408.98 Q122.593 1408.98 120.765 1412.54 Q118.959 1416.08 118.959 1423.21 Q118.959 1430.32 120.765 1433.89 Q122.593 1437.43 126.205 1437.43 Q129.839 1437.43 131.644 1433.89 Q133.473 1430.32 133.473 1423.21 Q133.473 1416.08 131.644 1412.54 Q129.839 1408.98 126.205 1408.98 M126.205 1405.27 Q132.015 1405.27 135.07 1409.88 Q138.149 1414.46 138.149 1423.21 Q138.149 1431.94 135.07 1436.55 Q132.015 1441.13 126.205 1441.13 Q120.394 1441.13 117.316 1436.55 Q114.26 1431.94 114.26 1423.21 Q114.26 1414.46 117.316 1409.88 Q120.394 1405.27 126.205 1405.27 Z" fill="#000000" fill-rule="nonzero" fill-opacity="1" /><path clip-path="url(#clip830)" d="M146.366 1434.58 L151.251 1434.58 L151.251 1440.46 L146.366 1440.46 L146.366 1434.58 Z" fill="#000000" fill-rule="nonzero" fill-opacity="1" /><path clip-path="url(#clip830)" d="M171.436 1408.98 Q167.825 1408.98 165.996 1412.54 Q164.19 1416.08 164.19 1423.21 Q164.19 1430.32 165.996 1433.89 Q167.825 1437.43 171.436 1437.43 Q175.07 1437.43 176.876 1433.89 Q178.704 1430.32 178.704 1423.21 Q178.704 1416.08 176.876 1412.54 Q175.07 1408.98 171.436 1408.98 M171.436 1405.27 Q177.246 1405.27 180.301 1409.88 Q183.38 1414.46 183.38 1423.21 Q183.38 1431.94 180.301 1436.55 Q177.246 1441.13 171.436 1441.13 Q165.626 1441.13 162.547 1436.55 Q159.491 1431.94 159.491 1423.21 Q159.491 1414.46 162.547 1409.88 Q165.626 1405.27 171.436 1405.27 Z" fill="#000000" fill-rule="nonzero" fill-opacity="1" /><path clip-path="url(#clip830)" d="M127.2 1084.05 Q123.589 1084.05 121.76 1087.62 Q119.955 1091.16 119.955 1098.29 Q119.955 1105.39 121.76 1108.96 Q123.589 1112.5 127.2 1112.5 Q130.834 1112.5 132.64 1108.96 Q134.468 1105.39 134.468 1098.29 Q134.468 1091.16 132.64 1087.62 Q130.834 1084.05 127.2 1084.05 M127.2 1080.35 Q133.01 1080.35 136.066 1084.95 Q139.144 1089.54 139.144 1098.29 Q139.144 1107.01 136.066 1111.62 Q133.01 1116.2 127.2 1116.2 Q121.39 1116.2 118.311 1111.62 Q115.256 1107.01 115.256 1098.29 Q115.256 1089.54 118.311 1084.95 Q121.39 1080.35 127.2 1080.35 Z" fill="#000000" fill-rule="nonzero" fill-opacity="1" /><path clip-path="url(#clip830)" d="M147.362 1109.65 L152.246 1109.65 L152.246 1115.53 L147.362 1115.53 L147.362 1109.65 Z" fill="#000000" fill-rule="nonzero" fill-opacity="1" /><path clip-path="url(#clip830)" d="M162.477 1080.97 L180.834 1080.97 L180.834 1084.91 L166.76 1084.91 L166.76 1093.38 Q167.778 1093.03 168.797 1092.87 Q169.815 1092.69 170.834 1092.69 Q176.621 1092.69 180.001 1095.86 Q183.38 1099.03 183.38 1104.45 Q183.38 1110.02 179.908 1113.13 Q176.436 1116.2 170.116 1116.2 Q167.94 1116.2 165.672 1115.83 Q163.427 1115.46 161.019 1114.72 L161.019 1110.02 Q163.102 1111.16 165.325 1111.71 Q167.547 1112.27 170.024 1112.27 Q174.028 1112.27 176.366 1110.16 Q178.704 1108.06 178.704 1104.45 Q178.704 1100.83 176.366 1098.73 Q174.028 1096.62 170.024 1096.62 Q168.149 1096.62 166.274 1097.04 Q164.422 1097.45 162.477 1098.33 L162.477 1080.97 Z" fill="#000000" fill-rule="nonzero" fill-opacity="1" /><path clip-path="url(#clip830)" d="M117.015 786.671 L124.654 786.671 L124.654 760.305 L116.343 761.972 L116.343 757.713 L124.607 756.046 L129.283 756.046 L129.283 786.671 L136.922 786.671 L136.922 790.606 L117.015 790.606 L117.015 786.671 Z" fill="#000000" fill-rule="nonzero" fill-opacity="1" /><path clip-path="url(#clip830)" d="M146.366 784.726 L151.251 784.726 L151.251 790.606 L146.366 790.606 L146.366 784.726 Z" fill="#000000" fill-rule="nonzero" fill-opacity="1" /><path clip-path="url(#clip830)" d="M171.436 759.125 Q167.825 759.125 165.996 762.689 Q164.19 766.231 164.19 773.361 Q164.19 780.467 165.996 784.032 Q167.825 787.574 171.436 787.574 Q175.07 787.574 176.876 784.032 Q178.704 780.467 178.704 773.361 Q178.704 766.231 176.876 762.689 Q175.07 759.125 171.436 759.125 M171.436 755.421 Q177.246 755.421 180.301 760.027 Q183.38 764.611 183.38 773.361 Q183.38 782.088 180.301 786.694 Q177.246 791.277 171.436 791.277 Q165.626 791.277 162.547 786.694 Q159.491 782.088 159.491 773.361 Q159.491 764.611 162.547 760.027 Q165.626 755.421 171.436 755.421 Z" fill="#000000" fill-rule="nonzero" fill-opacity="1" /><path clip-path="url(#clip830)" d="M118.01 461.744 L125.649 461.744 L125.649 435.378 L117.339 437.045 L117.339 432.786 L125.603 431.119 L130.279 431.119 L130.279 461.744 L137.917 461.744 L137.917 465.679 L118.01 465.679 L118.01 461.744 Z" fill="#000000" fill-rule="nonzero" fill-opacity="1" /><path clip-path="url(#clip830)" d="M147.362 459.799 L152.246 459.799 L152.246 465.679 L147.362 465.679 L147.362 459.799 Z" fill="#000000" fill-rule="nonzero" fill-opacity="1" /><path clip-path="url(#clip830)" d="M162.477 431.119 L180.834 431.119 L180.834 435.054 L166.76 435.054 L166.76 443.526 Q167.778 443.179 168.797 443.017 Q169.815 442.832 170.834 442.832 Q176.621 442.832 180.001 446.003 Q183.38 449.175 183.38 454.591 Q183.38 460.17 179.908 463.272 Q176.436 466.35 170.116 466.35 Q167.94 466.35 165.672 465.98 Q163.427 465.61 161.019 464.869 L161.019 460.17 Q163.102 461.304 165.325 461.86 Q167.547 462.415 170.024 462.415 Q174.028 462.415 176.366 460.309 Q178.704 458.202 178.704 454.591 Q178.704 450.98 176.366 448.874 Q174.028 446.767 170.024 446.767 Q168.149 446.767 166.274 447.184 Q164.422 447.6 162.477 448.48 L162.477 431.119 Z" fill="#000000" fill-rule="nonzero" fill-opacity="1" /><path clip-path="url(#clip830)" d="M120.232 136.817 L136.552 136.817 L136.552 140.752 L114.607 140.752 L114.607 136.817 Q117.269 134.062 121.853 129.433 Q126.459 124.78 127.64 123.437 Q129.885 120.914 130.765 119.178 Q131.667 117.419 131.667 115.729 Q131.667 112.974 129.723 111.238 Q127.802 109.502 124.7 109.502 Q122.501 109.502 120.047 110.266 Q117.617 111.03 114.839 112.581 L114.839 107.859 Q117.663 106.725 120.117 106.146 Q122.57 105.567 124.607 105.567 Q129.978 105.567 133.172 108.252 Q136.367 110.937 136.367 115.428 Q136.367 117.558 135.556 119.479 Q134.769 121.377 132.663 123.97 Q132.084 124.641 128.982 127.859 Q125.88 131.053 120.232 136.817 Z" fill="#000000" fill-rule="nonzero" fill-opacity="1" /><path clip-path="url(#clip830)" d="M146.366 134.873 L151.251 134.873 L151.251 140.752 L146.366 140.752 L146.366 134.873 Z" fill="#000000" fill-rule="nonzero" fill-opacity="1" /><path clip-path="url(#clip830)" d="M171.436 109.271 Q167.825 109.271 165.996 112.836 Q164.19 116.377 164.19 123.507 Q164.19 130.613 165.996 134.178 Q167.825 137.72 171.436 137.72 Q175.07 137.72 176.876 134.178 Q178.704 130.613 178.704 123.507 Q178.704 116.377 176.876 112.836 Q175.07 109.271 171.436 109.271 M171.436 105.567 Q177.246 105.567 180.301 110.174 Q183.38 114.757 183.38 123.507 Q183.38 132.234 180.301 136.84 Q177.246 141.423 171.436 141.423 Q165.626 141.423 162.547 136.84 Q159.491 132.234 159.491 123.507 Q159.491 114.757 162.547 110.174 Q165.626 105.567 171.436 105.567 Z" fill="#000000" fill-rule="nonzero" fill-opacity="1" /><path clip-path="url(#clip830)" d="M20.1444 846.929 L26.9239 846.929 Q23.9002 850.176 22.4043 853.868 Q20.9083 857.528 20.9083 861.666 Q20.9083 869.814 25.9054 874.143 Q30.8707 878.472 40.2919 878.472 Q49.6813 878.472 54.6784 874.143 Q59.6436 869.814 59.6436 861.666 Q59.6436 857.528 58.1477 853.868 Q56.6518 850.176 53.6281 846.929 L60.3439 846.929 Q62.6355 850.303 63.7814 854.091 Q64.9272 857.847 64.9272 862.048 Q64.9272 872.838 58.3387 879.044 Q51.7183 885.251 40.2919 885.251 Q28.8336 885.251 22.2451 879.044 Q15.6248 872.838 15.6248 862.048 Q15.6248 857.783 16.7706 854.027 Q17.8846 850.24 20.1444 846.929 Z" fill="#000000" fill-rule="nonzero" fill-opacity="1" /><path clip-path="url(#clip830)" d="M64.0042 824.745 L16.4842 842.887 L16.4842 836.171 L56.4926 821.117 L16.4842 806.03 L16.4842 799.346 L64.0042 817.456 L64.0042 824.745 Z" fill="#000000" fill-rule="nonzero" fill-opacity="1" /><path clip-path="url(#clip830)" d="M16.4842 782.254 L16.4842 776.843 L70.0516 793.394 L70.0516 798.805 L16.4842 782.254 Z" fill="#000000" fill-rule="nonzero" fill-opacity="1" /><path clip-path="url(#clip830)" d="M16.4842 770.446 L16.4842 764.016 L36.568 764.016 L16.4842 742.691 L16.4842 734.416 L38.6368 758.001 L64.0042 732.729 L64.0042 741.195 L41.1194 764.016 L64.0042 764.016 L64.0042 770.446 L16.4842 770.446 Z" fill="#000000" fill-rule="nonzero" fill-opacity="1" /><path clip-path="url(#clip830)" d="M74.8259 700.868 L79.3773 700.868 L79.3773 734.734 L74.8259 734.734 L74.8259 700.868 Z" fill="#000000" fill-rule="nonzero" fill-opacity="1" /><path clip-path="url(#clip830)" d="M41.3104 688.678 L58.7206 688.678 L58.7206 678.366 Q58.7206 673.178 56.5881 670.695 Q54.4238 668.18 49.9996 668.18 Q45.5436 668.18 43.4429 670.695 Q41.3104 673.178 41.3104 678.366 L41.3104 688.678 M21.7677 688.678 L36.0905 688.678 L36.0905 679.161 Q36.0905 674.451 34.34 672.159 Q32.5576 669.836 28.9291 669.836 Q25.3325 669.836 23.5501 672.159 Q21.7677 674.451 21.7677 679.161 L21.7677 688.678 M16.4842 695.107 L16.4842 678.684 Q16.4842 671.331 19.5397 667.353 Q22.5952 663.374 28.2289 663.374 Q32.5894 663.374 35.1675 665.411 Q37.7456 667.448 38.3822 671.395 Q39.4007 666.653 42.6472 664.043 Q45.8619 661.401 50.6998 661.401 Q57.0655 661.401 60.5348 665.73 Q64.0042 670.058 64.0042 678.047 L64.0042 695.107 L16.4842 695.107 Z" fill="#000000" fill-rule="nonzero" fill-opacity="1" /><path clip-path="url(#clip830)" d="M412.612 16.7545 L412.612 25.383 Q408.48 21.5346 403.781 19.6307 Q399.123 17.7268 393.856 17.7268 Q383.486 17.7268 377.977 24.0867 Q372.468 30.4061 372.468 42.3968 Q372.468 54.3469 377.977 60.7069 Q383.486 67.0263 393.856 67.0263 Q399.123 67.0263 403.781 65.1223 Q408.48 63.2184 412.612 59.3701 L412.612 67.9175 Q408.318 70.8341 403.498 72.2924 Q398.717 73.7508 393.37 73.7508 Q379.638 73.7508 371.738 65.3654 Q363.839 56.9395 363.839 42.3968 Q363.839 27.8135 371.738 19.4281 Q379.638 11.0023 393.37 11.0023 Q398.798 11.0023 403.579 12.4606 Q408.399 13.8784 412.612 16.7545 Z" fill="#000000" fill-rule="nonzero" fill-opacity="1" /><path clip-path="url(#clip830)" d="M440.847 72.576 L417.757 12.096 L426.304 12.096 L445.465 63.0159 L464.666 12.096 L473.173 12.096 L450.123 72.576 L440.847 72.576 Z" fill="#000000" fill-rule="nonzero" fill-opacity="1" /><path clip-path="url(#clip830)" d="M494.926 12.096 L501.813 12.096 L480.748 80.2727 L473.862 80.2727 L494.926 12.096 Z" fill="#000000" fill-rule="nonzero" fill-opacity="1" /><path clip-path="url(#clip830)" d="M509.348 9.54393 L516.842 9.54393 L516.842 46.7717 L539.081 27.2059 L548.601 27.2059 L524.539 48.4326 L549.614 72.576 L539.891 72.576 L516.842 50.4176 L516.842 72.576 L509.348 72.576 L509.348 9.54393 Z" fill="#000000" fill-rule="nonzero" fill-opacity="1" /><path clip-path="url(#clip830)" d="M592.148 86.3491 L592.148 92.1419 L549.047 92.1419 L549.047 86.3491 L592.148 86.3491 Z" fill="#000000" fill-rule="nonzero" fill-opacity="1" /><path clip-path="url(#clip830)" d="M607.663 43.6931 L607.663 65.8515 L620.788 65.8515 Q627.391 65.8515 630.551 63.1374 Q633.751 60.3828 633.751 54.752 Q633.751 49.0808 630.551 46.4072 Q627.391 43.6931 620.788 43.6931 L607.663 43.6931 M607.663 18.8205 L607.663 37.0496 L619.775 37.0496 Q625.771 37.0496 628.687 34.8216 Q631.644 32.5531 631.644 27.935 Q631.644 23.3575 628.687 21.089 Q625.771 18.8205 619.775 18.8205 L607.663 18.8205 M599.48 12.096 L620.383 12.096 Q629.741 12.096 634.804 15.9849 Q639.868 19.8737 639.868 27.0438 Q639.868 32.5936 637.275 35.8748 Q634.683 39.156 629.66 39.9662 Q635.695 41.2625 639.017 45.3944 Q642.379 49.4858 642.379 55.6432 Q642.379 63.745 636.87 68.1605 Q631.361 72.576 621.193 72.576 L599.48 72.576 L599.48 12.096 Z" fill="#000000" fill-rule="nonzero" fill-opacity="1" /><path clip-path="url(#clip830)" d="M677.096 27.2059 L684.995 27.2059 L699.173 65.2844 L713.351 27.2059 L721.25 27.2059 L704.237 72.576 L694.109 72.576 L677.096 27.2059 Z" fill="#000000" fill-rule="nonzero" fill-opacity="1" /><path clip-path="url(#clip830)" d="M760.463 28.5427 L760.463 35.5912 Q757.304 33.9709 753.901 33.1607 Q750.498 32.3505 746.852 32.3505 Q741.302 32.3505 738.507 34.0519 Q735.753 35.7533 735.753 39.156 Q735.753 41.7486 737.738 43.2475 Q739.723 44.7058 745.718 46.0426 L748.27 46.6097 Q756.21 48.3111 759.532 51.4303 Q762.894 54.509 762.894 60.0587 Q762.894 66.3781 757.871 70.0644 Q752.888 73.7508 744.138 73.7508 Q740.492 73.7508 736.522 73.0216 Q732.593 72.3329 728.218 70.9151 L728.218 63.2184 Q732.35 65.3654 736.36 66.4591 Q740.371 67.5124 744.3 67.5124 Q749.566 67.5124 752.402 65.73 Q755.238 63.9071 755.238 60.6258 Q755.238 57.5877 753.172 55.9673 Q751.146 54.3469 744.219 52.8481 L741.627 52.2405 Q734.699 50.7821 731.621 47.7845 Q728.542 44.7463 728.542 39.4801 Q728.542 33.0797 733.079 29.5959 Q737.616 26.1121 745.961 26.1121 Q750.093 26.1121 753.739 26.7198 Q757.385 27.3274 760.463 28.5427 Z" fill="#000000" fill-rule="nonzero" fill-opacity="1" /><path clip-path="url(#clip830)" d="M793.073 12.096 L844.236 12.096 L844.236 18.9825 L822.766 18.9825 L822.766 72.576 L814.543 72.576 L814.543 18.9825 L793.073 18.9825 L793.073 12.096 Z" fill="#000000" fill-rule="nonzero" fill-opacity="1" /><path clip-path="url(#clip830)" d="M876.522 48.0275 L876.522 51.6733 L842.251 51.6733 Q842.737 59.3701 846.869 63.421 Q851.041 67.4314 858.455 67.4314 Q862.749 67.4314 866.759 66.3781 Q870.81 65.3249 874.78 63.2184 L874.78 70.267 Q870.769 71.9684 866.556 72.8596 Q862.343 73.7508 858.009 73.7508 Q847.153 73.7508 840.793 67.4314 Q834.473 61.1119 834.473 50.3365 Q834.473 39.1965 840.469 32.6746 Q846.504 26.1121 856.713 26.1121 Q865.868 26.1121 871.174 32.0264 Q876.522 37.9003 876.522 48.0275 M869.068 45.84 Q868.987 39.7232 865.625 36.0774 Q862.303 32.4315 856.794 32.4315 Q850.555 32.4315 846.788 35.9558 Q843.061 39.4801 842.494 45.8805 L869.068 45.84 Z" fill="#000000" fill-rule="nonzero" fill-opacity="1" /><path clip-path="url(#clip830)" d="M924.079 35.9153 Q926.874 30.8922 930.763 28.5022 Q934.652 26.1121 939.918 26.1121 Q947.007 26.1121 950.856 31.0947 Q954.704 36.0368 954.704 45.1919 L954.704 72.576 L947.21 72.576 L947.21 45.4349 Q947.21 38.913 944.901 35.7533 Q942.592 32.5936 937.852 32.5936 Q932.06 32.5936 928.697 36.4419 Q925.335 40.2903 925.335 46.9338 L925.335 72.576 L917.841 72.576 L917.841 45.4349 Q917.841 38.8725 915.532 35.7533 Q913.223 32.5936 908.402 32.5936 Q902.69 32.5936 899.328 36.4824 Q895.966 40.3308 895.966 46.9338 L895.966 72.576 L888.472 72.576 L888.472 27.2059 L895.966 27.2059 L895.966 34.2544 Q898.518 30.082 902.083 28.0971 Q905.648 26.1121 910.549 26.1121 Q915.491 26.1121 918.935 28.6237 Q922.418 31.1352 924.079 35.9153 Z" fill="#000000" fill-rule="nonzero" fill-opacity="1" /><path clip-path="url(#clip830)" d="M976.781 65.7705 L976.781 89.8329 L969.287 89.8329 L969.287 27.2059 L976.781 27.2059 L976.781 34.0924 Q979.131 30.0415 982.696 28.0971 Q986.301 26.1121 991.284 26.1121 Q999.548 26.1121 1004.69 32.6746 Q1009.88 39.2371 1009.88 49.9314 Q1009.88 60.6258 1004.69 67.1883 Q999.548 73.7508 991.284 73.7508 Q986.301 73.7508 982.696 71.8063 Q979.131 69.8214 976.781 65.7705 M1002.14 49.9314 Q1002.14 41.7081 998.737 37.0496 Q995.375 32.3505 989.461 32.3505 Q983.547 32.3505 980.144 37.0496 Q976.781 41.7081 976.781 49.9314 Q976.781 58.1548 980.144 62.8538 Q983.547 67.5124 989.461 67.5124 Q995.375 67.5124 998.737 62.8538 Q1002.14 58.1548 1002.14 49.9314 Z" fill="#000000" fill-rule="nonzero" fill-opacity="1" /><path clip-path="url(#clip830)" d="M1023.29 62.2867 L1031.83 62.2867 L1031.83 72.576 L1023.29 72.576 L1023.29 62.2867 Z" fill="#000000" fill-rule="nonzero" fill-opacity="1" /><path clip-path="url(#clip830)" d="M1095.59 49.7694 Q1086.56 49.7694 1083.08 51.8354 Q1079.59 53.9013 1079.59 58.8839 Q1079.59 62.8538 1082.19 65.2034 Q1084.82 67.5124 1089.32 67.5124 Q1095.51 67.5124 1099.24 63.1374 Q1103.01 58.7219 1103.01 51.4303 L1103.01 49.7694 L1095.59 49.7694 M1110.46 46.6907 L1110.46 72.576 L1103.01 72.576 L1103.01 65.6895 Q1100.46 69.8214 1096.65 71.8063 Q1092.84 73.7508 1087.33 73.7508 Q1080.36 73.7508 1076.23 69.8619 Q1072.14 65.9325 1072.14 59.3701 Q1072.14 51.7138 1077.24 47.825 Q1082.39 43.9361 1092.56 43.9361 L1103.01 43.9361 L1103.01 43.2069 Q1103.01 38.0623 1099.6 35.2672 Q1096.24 32.4315 1090.13 32.4315 Q1086.24 32.4315 1082.55 33.3632 Q1078.86 34.295 1075.46 36.1584 L1075.46 29.2718 Q1079.55 27.692 1083.4 26.9223 Q1087.25 26.1121 1090.9 26.1121 Q1100.74 26.1121 1105.6 31.2163 Q1110.46 36.3204 1110.46 46.6907 Z" fill="#000000" fill-rule="nonzero" fill-opacity="1" /><path clip-path="url(#clip830)" d="M1163.53 45.1919 L1163.53 72.576 L1156.07 72.576 L1156.07 45.4349 Q1156.07 38.994 1153.56 35.7938 Q1151.05 32.5936 1146.03 32.5936 Q1139.99 32.5936 1136.51 36.4419 Q1133.02 40.2903 1133.02 46.9338 L1133.02 72.576 L1125.53 72.576 L1125.53 27.2059 L1133.02 27.2059 L1133.02 34.2544 Q1135.7 30.163 1139.3 28.1376 Q1142.95 26.1121 1147.69 26.1121 Q1155.51 26.1121 1159.52 30.9732 Q1163.53 35.7938 1163.53 45.1919 Z" fill="#000000" fill-rule="nonzero" fill-opacity="1" /><path clip-path="url(#clip830)" d="M1208.25 34.0924 L1208.25 9.54393 L1215.7 9.54393 L1215.7 72.576 L1208.25 72.576 L1208.25 65.7705 Q1205.9 69.8214 1202.3 71.8063 Q1198.73 73.7508 1193.71 73.7508 Q1185.48 73.7508 1180.3 67.1883 Q1175.15 60.6258 1175.15 49.9314 Q1175.15 39.2371 1180.3 32.6746 Q1185.48 26.1121 1193.71 26.1121 Q1198.73 26.1121 1202.3 28.0971 Q1205.9 30.0415 1208.25 34.0924 M1182.85 49.9314 Q1182.85 58.1548 1186.21 62.8538 Q1189.62 67.5124 1195.53 67.5124 Q1201.44 67.5124 1204.85 62.8538 Q1208.25 58.1548 1208.25 49.9314 Q1208.25 41.7081 1204.85 37.0496 Q1201.44 32.3505 1195.53 32.3505 Q1189.62 32.3505 1186.21 37.0496 Q1182.85 41.7081 1182.85 49.9314 Z" fill="#000000" fill-rule="nonzero" fill-opacity="1" /><path clip-path="url(#clip830)" d="M1265.94 18.8205 L1265.94 65.8515 L1275.82 65.8515 Q1288.34 65.8515 1294.13 60.1802 Q1299.96 54.509 1299.96 42.2752 Q1299.96 30.1225 1294.13 24.4918 Q1288.34 18.8205 1275.82 18.8205 L1265.94 18.8205 M1257.75 12.096 L1274.56 12.096 Q1292.14 12.096 1300.37 19.4281 Q1308.59 26.7198 1308.59 42.2752 Q1308.59 57.9117 1300.33 65.2439 Q1292.06 72.576 1274.56 72.576 L1257.75 72.576 L1257.75 12.096 Z" fill="#000000" fill-rule="nonzero" fill-opacity="1" /><path clip-path="url(#clip830)" d="M1321.31 27.2059 L1328.76 27.2059 L1328.76 72.576 L1321.31 72.576 L1321.31 27.2059 M1321.31 9.54393 L1328.76 9.54393 L1328.76 18.9825 L1321.31 18.9825 L1321.31 9.54393 Z" fill="#000000" fill-rule="nonzero" fill-opacity="1" /><path clip-path="url(#clip830)" d="M1379.68 35.9153 Q1382.48 30.8922 1386.37 28.5022 Q1390.26 26.1121 1395.52 26.1121 Q1402.61 26.1121 1406.46 31.0947 Q1410.31 36.0368 1410.31 45.1919 L1410.31 72.576 L1402.82 72.576 L1402.82 45.4349 Q1402.82 38.913 1400.51 35.7533 Q1398.2 32.5936 1393.46 32.5936 Q1387.66 32.5936 1384.3 36.4419 Q1380.94 40.2903 1380.94 46.9338 L1380.94 72.576 L1373.45 72.576 L1373.45 45.4349 Q1373.45 38.8725 1371.14 35.7533 Q1368.83 32.5936 1364.01 32.5936 Q1358.3 32.5936 1354.93 36.4824 Q1351.57 40.3308 1351.57 46.9338 L1351.57 72.576 L1344.08 72.576 L1344.08 27.2059 L1351.57 27.2059 L1351.57 34.2544 Q1354.12 30.082 1357.69 28.0971 Q1361.25 26.1121 1366.15 26.1121 Q1371.1 26.1121 1374.54 28.6237 Q1378.02 31.1352 1379.68 35.9153 Z" fill="#000000" fill-rule="nonzero" fill-opacity="1" /><path clip-path="url(#clip830)" d="M1426.23 62.2867 L1434.78 62.2867 L1434.78 72.576 L1426.23 72.576 L1426.23 62.2867 Z" fill="#000000" fill-rule="nonzero" fill-opacity="1" /><path clip-path="url(#clip830)" d="M1495.5 32.4315 Q1489.5 32.4315 1486.02 37.1306 Q1482.54 41.7891 1482.54 49.9314 Q1482.54 58.0738 1485.98 62.7728 Q1489.46 67.4314 1495.5 67.4314 Q1501.45 67.4314 1504.94 62.7323 Q1508.42 58.0333 1508.42 49.9314 Q1508.42 41.8701 1504.94 37.1711 Q1501.45 32.4315 1495.5 32.4315 M1495.5 26.1121 Q1505.22 26.1121 1510.77 32.4315 Q1516.32 38.7509 1516.32 49.9314 Q1516.32 61.0714 1510.77 67.4314 Q1505.22 73.7508 1495.5 73.7508 Q1485.74 73.7508 1480.19 67.4314 Q1474.68 61.0714 1474.68 49.9314 Q1474.68 38.7509 1480.19 32.4315 Q1485.74 26.1121 1495.5 26.1121 Z" fill="#000000" fill-rule="nonzero" fill-opacity="1" /><path clip-path="url(#clip830)" d="M1551.65 9.54393 L1551.65 15.7418 L1544.52 15.7418 Q1540.51 15.7418 1538.93 17.3622 Q1537.39 18.9825 1537.39 23.1955 L1537.39 27.2059 L1549.66 27.2059 L1549.66 32.9987 L1537.39 32.9987 L1537.39 72.576 L1529.89 72.576 L1529.89 32.9987 L1522.76 32.9987 L1522.76 27.2059 L1529.89 27.2059 L1529.89 24.0462 Q1529.89 16.471 1533.42 13.0277 Q1536.94 9.54393 1544.6 9.54393 L1551.65 9.54393 Z" fill="#000000" fill-rule="nonzero" fill-opacity="1" /><path clip-path="url(#clip830)" d="M1620.83 14.0809 L1620.83 22.0612 Q1616.18 19.8332 1612.04 18.7395 Q1607.91 17.6457 1604.06 17.6457 Q1597.38 17.6457 1593.73 20.2383 Q1590.13 22.8309 1590.13 27.611 Q1590.13 31.6214 1592.52 33.6873 Q1594.95 35.7128 1601.67 36.9686 L1606.62 37.9813 Q1615.77 39.7232 1620.11 44.1387 Q1624.48 48.5136 1624.48 55.8863 Q1624.48 64.6767 1618.57 69.2137 Q1612.69 73.7508 1601.31 73.7508 Q1597.02 73.7508 1592.15 72.7785 Q1587.33 71.8063 1582.15 69.9024 L1582.15 61.4765 Q1587.13 64.2716 1591.91 65.6895 Q1596.69 67.1073 1601.31 67.1073 Q1608.32 67.1073 1612.13 64.3527 Q1615.93 61.598 1615.93 56.4939 Q1615.93 52.0379 1613.18 49.5264 Q1610.46 47.0148 1604.23 45.759 L1599.24 44.7868 Q1590.09 42.9639 1586 39.075 Q1581.91 35.1862 1581.91 28.2591 Q1581.91 20.2383 1587.54 15.6203 Q1593.21 11.0023 1603.13 11.0023 Q1607.39 11.0023 1611.8 11.7719 Q1616.22 12.5416 1620.83 14.0809 Z" fill="#000000" fill-rule="nonzero" fill-opacity="1" /><path clip-path="url(#clip830)" d="M1644.13 65.7705 L1644.13 89.8329 L1636.63 89.8329 L1636.63 27.2059 L1644.13 27.2059 L1644.13 34.0924 Q1646.48 30.0415 1650.04 28.0971 Q1653.65 26.1121 1658.63 26.1121 Q1666.89 26.1121 1672.04 32.6746 Q1677.22 39.2371 1677.22 49.9314 Q1677.22 60.6258 1672.04 67.1883 Q1666.89 73.7508 1658.63 73.7508 Q1653.65 73.7508 1650.04 71.8063 Q1646.48 69.8214 1644.13 65.7705 M1669.49 49.9314 Q1669.49 41.7081 1666.08 37.0496 Q1662.72 32.3505 1656.81 32.3505 Q1650.89 32.3505 1647.49 37.0496 Q1644.13 41.7081 1644.13 49.9314 Q1644.13 58.1548 1647.49 62.8538 Q1650.89 67.5124 1656.81 67.5124 Q1662.72 67.5124 1666.08 62.8538 Q1669.49 58.1548 1669.49 49.9314 Z" fill="#000000" fill-rule="nonzero" fill-opacity="1" /><path clip-path="url(#clip830)" d="M1689.58 27.2059 L1697.03 27.2059 L1697.03 72.576 L1689.58 72.576 L1689.58 27.2059 M1689.58 9.54393 L1697.03 9.54393 L1697.03 18.9825 L1689.58 18.9825 L1689.58 9.54393 Z" fill="#000000" fill-rule="nonzero" fill-opacity="1" /><path clip-path="url(#clip830)" d="M1750.34 45.1919 L1750.34 72.576 L1742.89 72.576 L1742.89 45.4349 Q1742.89 38.994 1740.38 35.7938 Q1737.87 32.5936 1732.84 32.5936 Q1726.81 32.5936 1723.32 36.4419 Q1719.84 40.2903 1719.84 46.9338 L1719.84 72.576 L1712.34 72.576 L1712.34 27.2059 L1719.84 27.2059 L1719.84 34.2544 Q1722.51 30.163 1726.12 28.1376 Q1729.76 26.1121 1734.5 26.1121 Q1742.32 26.1121 1746.33 30.9732 Q1750.34 35.7938 1750.34 45.1919 Z" fill="#000000" fill-rule="nonzero" fill-opacity="1" /><path clip-path="url(#clip830)" d="M1794.13 28.5427 L1794.13 35.5912 Q1790.97 33.9709 1787.57 33.1607 Q1784.17 32.3505 1780.52 32.3505 Q1774.97 32.3505 1772.18 34.0519 Q1769.42 35.7533 1769.42 39.156 Q1769.42 41.7486 1771.41 43.2475 Q1773.39 44.7058 1779.39 46.0426 L1781.94 46.6097 Q1789.88 48.3111 1793.2 51.4303 Q1796.56 54.509 1796.56 60.0587 Q1796.56 66.3781 1791.54 70.0644 Q1786.56 73.7508 1777.81 73.7508 Q1774.16 73.7508 1770.19 73.0216 Q1766.26 72.3329 1761.89 70.9151 L1761.89 63.2184 Q1766.02 65.3654 1770.03 66.4591 Q1774.04 67.5124 1777.97 67.5124 Q1783.24 67.5124 1786.07 65.73 Q1788.91 63.9071 1788.91 60.6258 Q1788.91 57.5877 1786.84 55.9673 Q1784.82 54.3469 1777.89 52.8481 L1775.3 52.2405 Q1768.37 50.7821 1765.29 47.7845 Q1762.21 44.7463 1762.21 39.4801 Q1762.21 33.0797 1766.75 29.5959 Q1771.29 26.1121 1779.63 26.1121 Q1783.76 26.1121 1787.41 26.7198 Q1791.05 27.3274 1794.13 28.5427 Z" fill="#000000" fill-rule="nonzero" fill-opacity="1" /><path clip-path="url(#clip830)" d="M1852.71 9.62495 Q1847.28 18.942 1844.65 28.0566 Q1842.01 37.1711 1842.01 46.5287 Q1842.01 55.8863 1844.65 65.0818 Q1847.32 74.2369 1852.71 83.5134 L1846.23 83.5134 Q1840.15 73.9938 1837.11 64.7983 Q1834.11 55.6027 1834.11 46.5287 Q1834.11 37.4952 1837.11 28.3401 Q1840.11 19.1851 1846.23 9.62495 L1852.71 9.62495 Z" fill="#000000" fill-rule="nonzero" fill-opacity="1" /><path clip-path="url(#clip830)" d="M1875.27 65.6895 L1903.83 65.6895 L1903.83 72.576 L1865.43 72.576 L1865.43 65.6895 Q1870.09 60.8689 1878.11 52.7671 Q1886.17 44.6248 1888.23 42.2752 Q1892.16 37.8598 1893.7 34.8216 Q1895.28 31.7429 1895.28 28.7857 Q1895.28 23.9651 1891.88 20.927 Q1888.52 17.8888 1883.09 17.8888 Q1879.24 17.8888 1874.95 19.2256 Q1870.69 20.5624 1865.83 23.2765 L1865.83 15.0127 Q1870.78 13.0277 1875.07 12.015 Q1879.36 11.0023 1882.93 11.0023 Q1892.33 11.0023 1897.92 15.7013 Q1903.51 20.4004 1903.51 28.2591 Q1903.51 31.9859 1902.09 35.3482 Q1900.71 38.6699 1897.03 43.2069 Q1896.01 44.3817 1890.58 50.0125 Q1885.16 55.6027 1875.27 65.6895 Z" fill="#000000" fill-rule="nonzero" fill-opacity="1" /><path clip-path="url(#clip830)" d="M1958.76 48.0275 L1958.76 51.6733 L1924.49 51.6733 Q1924.98 59.3701 1929.11 63.421 Q1933.28 67.4314 1940.69 67.4314 Q1944.99 67.4314 1949 66.3781 Q1953.05 65.3249 1957.02 63.2184 L1957.02 70.267 Q1953.01 71.9684 1948.8 72.8596 Q1944.58 73.7508 1940.25 73.7508 Q1929.39 73.7508 1923.03 67.4314 Q1916.71 61.1119 1916.71 50.3365 Q1916.71 39.1965 1922.71 32.6746 Q1928.74 26.1121 1938.95 26.1121 Q1948.11 26.1121 1953.41 32.0264 Q1958.76 37.9003 1958.76 48.0275 M1951.31 45.84 Q1951.23 39.7232 1947.86 36.0774 Q1944.54 32.4315 1939.03 32.4315 Q1932.79 32.4315 1929.03 35.9558 Q1925.3 39.4801 1924.73 45.8805 L1951.31 45.84 Z" fill="#000000" fill-rule="nonzero" fill-opacity="1" /><path clip-path="url(#clip830)" d="M1969.98 12.096 L2008.87 12.096 L2008.87 15.5798 L1986.91 72.576 L1978.37 72.576 L1999.03 18.9825 L1969.98 18.9825 L1969.98 12.096 Z" fill="#000000" fill-rule="nonzero" fill-opacity="1" /><path clip-path="url(#clip830)" d="M2050.15 27.2059 L2057.6 27.2059 L2057.6 72.576 L2050.15 72.576 L2050.15 27.2059 M2050.15 9.54393 L2057.6 9.54393 L2057.6 18.9825 L2050.15 18.9825 L2050.15 9.54393 Z" fill="#000000" fill-rule="nonzero" fill-opacity="1" /><path clip-path="url(#clip830)" d="M2080.57 14.324 L2080.57 27.2059 L2095.92 27.2059 L2095.92 32.9987 L2080.57 32.9987 L2080.57 57.6282 Q2080.57 63.1779 2082.07 64.7578 Q2083.61 66.3376 2088.27 66.3376 L2095.92 66.3376 L2095.92 72.576 L2088.27 72.576 Q2079.64 72.576 2076.36 69.3758 Q2073.08 66.1351 2073.08 57.6282 L2073.08 32.9987 L2067.61 32.9987 L2067.61 27.2059 L2073.08 27.2059 L2073.08 14.324 L2080.57 14.324 Z" fill="#000000" fill-rule="nonzero" fill-opacity="1" /><path clip-path="url(#clip830)" d="M2144.54 48.0275 L2144.54 51.6733 L2110.27 51.6733 Q2110.75 59.3701 2114.88 63.421 Q2119.06 67.4314 2126.47 67.4314 Q2130.76 67.4314 2134.77 66.3781 Q2138.82 65.3249 2142.79 63.2184 L2142.79 70.267 Q2138.78 71.9684 2134.57 72.8596 Q2130.36 73.7508 2126.02 73.7508 Q2115.17 73.7508 2108.81 67.4314 Q2102.49 61.1119 2102.49 50.3365 Q2102.49 39.1965 2108.48 32.6746 Q2114.52 26.1121 2124.73 26.1121 Q2133.88 26.1121 2139.19 32.0264 Q2144.54 37.9003 2144.54 48.0275 M2137.08 45.84 Q2137 39.7232 2133.64 36.0774 Q2130.32 32.4315 2124.81 32.4315 Q2118.57 32.4315 2114.8 35.9558 Q2111.08 39.4801 2110.51 45.8805 L2137.08 45.84 Z" fill="#000000" fill-rule="nonzero" fill-opacity="1" /><path clip-path="url(#clip830)" d="M2183.06 34.1734 Q2181.8 33.4443 2180.31 33.1202 Q2178.85 32.7556 2177.06 32.7556 Q2170.75 32.7556 2167.34 36.8875 Q2163.98 40.9789 2163.98 48.6757 L2163.98 72.576 L2156.49 72.576 L2156.49 27.2059 L2163.98 27.2059 L2163.98 34.2544 Q2166.33 30.1225 2170.1 28.1376 Q2173.86 26.1121 2179.25 26.1121 Q2180.02 26.1121 2180.95 26.2337 Q2181.88 26.3147 2183.02 26.5172 L2183.06 34.1734 Z" fill="#000000" fill-rule="nonzero" fill-opacity="1" /><path clip-path="url(#clip830)" d="M2189.7 9.62495 L2196.18 9.62495 Q2202.26 19.1851 2205.26 28.3401 Q2208.3 37.4952 2208.3 46.5287 Q2208.3 55.6027 2205.26 64.7983 Q2202.26 73.9938 2196.18 83.5134 L2189.7 83.5134 Q2195.09 74.2369 2197.72 65.0818 Q2200.4 55.8863 2200.4 46.5287 Q2200.4 37.1711 2197.72 28.0566 Q2195.09 18.942 2189.7 9.62495 Z" fill="#000000" fill-rule="nonzero" fill-opacity="1" /><circle clip-path="url(#clip832)" cx="279.759" cy="1423.18" r="14.4" fill="#009af9" fill-rule="evenodd" fill-opacity="1" stroke="#000000" stroke-opacity="1" stroke-width="3.2"/>
<circle clip-path="url(#clip832)" cx="320.833" cy="1423.18" r="14.4" fill="#009af9" fill-rule="evenodd" fill-opacity="1" stroke="#000000" stroke-opacity="1" stroke-width="3.2"/>
<circle clip-path="url(#clip832)" cx="361.906" cy="1423.18" r="14.4" fill="#009af9" fill-rule="evenodd" fill-opacity="1" stroke="#000000" stroke-opacity="1" stroke-width="3.2"/>
<circle clip-path="url(#clip832)" cx="402.98" cy="1423.18" r="14.4" fill="#009af9" fill-rule="evenodd" fill-opacity="1" stroke="#000000" stroke-opacity="1" stroke-width="3.2"/>
<circle clip-path="url(#clip832)" cx="444.054" cy="1423.18" r="14.4" fill="#009af9" fill-rule="evenodd" fill-opacity="1" stroke="#000000" stroke-opacity="1" stroke-width="3.2"/>
<circle clip-path="url(#clip832)" cx="485.128" cy="1423.18" r="14.4" fill="#009af9" fill-rule="evenodd" fill-opacity="1" stroke="#000000" stroke-opacity="1" stroke-width="3.2"/>
<circle clip-path="url(#clip832)" cx="526.202" cy="1423.18" r="14.4" fill="#009af9" fill-rule="evenodd" fill-opacity="1" stroke="#000000" stroke-opacity="1" stroke-width="3.2"/>
<circle clip-path="url(#clip832)" cx="567.276" cy="1423.18" r="14.4" fill="#009af9" fill-rule="evenodd" fill-opacity="1" stroke="#000000" stroke-opacity="1" stroke-width="3.2"/>
<circle clip-path="url(#clip832)" cx="608.35" cy="1423.18" r="14.4" fill="#009af9" fill-rule="evenodd" fill-opacity="1" stroke="#000000" stroke-opacity="1" stroke-width="3.2"/>
<circle clip-path="url(#clip832)" cx="649.423" cy="1423.18" r="14.4" fill="#009af9" fill-rule="evenodd" fill-opacity="1" stroke="#000000" stroke-opacity="1" stroke-width="3.2"/>
<circle clip-path="url(#clip832)" cx="690.497" cy="1423.18" r="14.4" fill="#009af9" fill-rule="evenodd" fill-opacity="1" stroke="#000000" stroke-opacity="1" stroke-width="3.2"/>
<circle clip-path="url(#clip832)" cx="731.571" cy="1423.18" r="14.4" fill="#009af9" fill-rule="evenodd" fill-opacity="1" stroke="#000000" stroke-opacity="1" stroke-width="3.2"/>
<circle clip-path="url(#clip832)" cx="772.645" cy="1415.61" r="14.4" fill="#009af9" fill-rule="evenodd" fill-opacity="1" stroke="#000000" stroke-opacity="1" stroke-width="3.2"/>
<circle clip-path="url(#clip832)" cx="813.719" cy="1416.73" r="14.4" fill="#009af9" fill-rule="evenodd" fill-opacity="1" stroke="#000000" stroke-opacity="1" stroke-width="3.2"/>
<circle clip-path="url(#clip832)" cx="854.793" cy="1400.96" r="14.4" fill="#009af9" fill-rule="evenodd" fill-opacity="1" stroke="#000000" stroke-opacity="1" stroke-width="3.2"/>
<circle clip-path="url(#clip832)" cx="895.866" cy="1408.66" r="14.4" fill="#009af9" fill-rule="evenodd" fill-opacity="1" stroke="#000000" stroke-opacity="1" stroke-width="3.2"/>
<circle clip-path="url(#clip832)" cx="936.94" cy="1397.67" r="14.4" fill="#009af9" fill-rule="evenodd" fill-opacity="1" stroke="#000000" stroke-opacity="1" stroke-width="3.2"/>
<circle clip-path="url(#clip832)" cx="978.014" cy="1381.83" r="14.4" fill="#009af9" fill-rule="evenodd" fill-opacity="1" stroke="#000000" stroke-opacity="1" stroke-width="3.2"/>
<circle clip-path="url(#clip832)" cx="1019.09" cy="1392.98" r="14.4" fill="#009af9" fill-rule="evenodd" fill-opacity="1" stroke="#000000" stroke-opacity="1" stroke-width="3.2"/>
<circle clip-path="url(#clip832)" cx="1060.16" cy="1372.12" r="14.4" fill="#009af9" fill-rule="evenodd" fill-opacity="1" stroke="#000000" stroke-opacity="1" stroke-width="3.2"/>
<circle clip-path="url(#clip832)" cx="1101.24" cy="1372.99" r="14.4" fill="#009af9" fill-rule="evenodd" fill-opacity="1" stroke="#000000" stroke-opacity="1" stroke-width="3.2"/>
<circle clip-path="url(#clip832)" cx="1142.31" cy="1330.81" r="14.4" fill="#009af9" fill-rule="evenodd" fill-opacity="1" stroke="#000000" stroke-opacity="1" stroke-width="3.2"/>
<circle clip-path="url(#clip832)" cx="1183.38" cy="1323.44" r="14.4" fill="#009af9" fill-rule="evenodd" fill-opacity="1" stroke="#000000" stroke-opacity="1" stroke-width="3.2"/>
<circle clip-path="url(#clip832)" cx="1224.46" cy="1292.07" r="14.4" fill="#009af9" fill-rule="evenodd" fill-opacity="1" stroke="#000000" stroke-opacity="1" stroke-width="3.2"/>
<circle clip-path="url(#clip832)" cx="1265.53" cy="1279.32" r="14.4" fill="#009af9" fill-rule="evenodd" fill-opacity="1" stroke="#000000" stroke-opacity="1" stroke-width="3.2"/>
<circle clip-path="url(#clip832)" cx="1306.6" cy="1284.2" r="14.4" fill="#009af9" fill-rule="evenodd" fill-opacity="1" stroke="#000000" stroke-opacity="1" stroke-width="3.2"/>
<circle clip-path="url(#clip832)" cx="1347.68" cy="1243.02" r="14.4" fill="#009af9" fill-rule="evenodd" fill-opacity="1" stroke="#000000" stroke-opacity="1" stroke-width="3.2"/>
<circle clip-path="url(#clip832)" cx="1388.75" cy="1197.54" r="14.4" fill="#009af9" fill-rule="evenodd" fill-opacity="1" stroke="#000000" stroke-opacity="1" stroke-width="3.2"/>
<circle clip-path="url(#clip832)" cx="1429.83" cy="1175.61" r="14.4" fill="#009af9" fill-rule="evenodd" fill-opacity="1" stroke="#000000" stroke-opacity="1" stroke-width="3.2"/>
<circle clip-path="url(#clip832)" cx="1470.9" cy="1140.05" r="14.4" fill="#009af9" fill-rule="evenodd" fill-opacity="1" stroke="#000000" stroke-opacity="1" stroke-width="3.2"/>
<circle clip-path="url(#clip832)" cx="1511.97" cy="1160.57" r="14.4" fill="#009af9" fill-rule="evenodd" fill-opacity="1" stroke="#000000" stroke-opacity="1" stroke-width="3.2"/>
<circle clip-path="url(#clip832)" cx="1553.05" cy="1083.83" r="14.4" fill="#009af9" fill-rule="evenodd" fill-opacity="1" stroke="#000000" stroke-opacity="1" stroke-width="3.2"/>
<circle clip-path="url(#clip832)" cx="1594.12" cy="1104.31" r="14.4" fill="#009af9" fill-rule="evenodd" fill-opacity="1" stroke="#000000" stroke-opacity="1" stroke-width="3.2"/>
<circle clip-path="url(#clip832)" cx="1635.2" cy="1080.8" r="14.4" fill="#009af9" fill-rule="evenodd" fill-opacity="1" stroke="#000000" stroke-opacity="1" stroke-width="3.2"/>
<circle clip-path="url(#clip832)" cx="1676.27" cy="1009.74" r="14.4" fill="#009af9" fill-rule="evenodd" fill-opacity="1" stroke="#000000" stroke-opacity="1" stroke-width="3.2"/>
<circle clip-path="url(#clip832)" cx="1717.34" cy="1020.27" r="14.4" fill="#009af9" fill-rule="evenodd" fill-opacity="1" stroke="#000000" stroke-opacity="1" stroke-width="3.2"/>
<circle clip-path="url(#clip832)" cx="1758.42" cy="986.676" r="14.4" fill="#009af9" fill-rule="evenodd" fill-opacity="1" stroke="#000000" stroke-opacity="1" stroke-width="3.2"/>
<circle clip-path="url(#clip832)" cx="1799.49" cy="990.372" r="14.4" fill="#009af9" fill-rule="evenodd" fill-opacity="1" stroke="#000000" stroke-opacity="1" stroke-width="3.2"/>
<circle clip-path="url(#clip832)" cx="1840.57" cy="983.88" r="14.4" fill="#009af9" fill-rule="evenodd" fill-opacity="1" stroke="#000000" stroke-opacity="1" stroke-width="3.2"/>
<circle clip-path="url(#clip832)" cx="1881.64" cy="1005.18" r="14.4" fill="#009af9" fill-rule="evenodd" fill-opacity="1" stroke="#000000" stroke-opacity="1" stroke-width="3.2"/>
<circle clip-path="url(#clip832)" cx="1922.71" cy="1029.97" r="14.4" fill="#009af9" fill-rule="evenodd" fill-opacity="1" stroke="#000000" stroke-opacity="1" stroke-width="3.2"/>
<circle clip-path="url(#clip832)" cx="1963.79" cy="1057.92" r="14.4" fill="#009af9" fill-rule="evenodd" fill-opacity="1" stroke="#000000" stroke-opacity="1" stroke-width="3.2"/>
<circle clip-path="url(#clip832)" cx="2004.86" cy="1092.16" r="14.4" fill="#009af9" fill-rule="evenodd" fill-opacity="1" stroke="#000000" stroke-opacity="1" stroke-width="3.2"/>
<circle clip-path="url(#clip832)" cx="2045.93" cy="1083.11" r="14.4" fill="#009af9" fill-rule="evenodd" fill-opacity="1" stroke="#000000" stroke-opacity="1" stroke-width="3.2"/>
<circle clip-path="url(#clip832)" cx="2087.01" cy="1100.97" r="14.4" fill="#009af9" fill-rule="evenodd" fill-opacity="1" stroke="#000000" stroke-opacity="1" stroke-width="3.2"/>
<circle clip-path="url(#clip832)" cx="2128.08" cy="1129.22" r="14.4" fill="#009af9" fill-rule="evenodd" fill-opacity="1" stroke="#000000" stroke-opacity="1" stroke-width="3.2"/>
<circle clip-path="url(#clip832)" cx="2169.16" cy="1129.57" r="14.4" fill="#009af9" fill-rule="evenodd" fill-opacity="1" stroke="#000000" stroke-opacity="1" stroke-width="3.2"/>
<circle clip-path="url(#clip832)" cx="2210.23" cy="1147.24" r="14.4" fill="#009af9" fill-rule="evenodd" fill-opacity="1" stroke="#000000" stroke-opacity="1" stroke-width="3.2"/>
<circle clip-path="url(#clip832)" cx="2251.3" cy="1159.04" r="14.4" fill="#009af9" fill-rule="evenodd" fill-opacity="1" stroke="#000000" stroke-opacity="1" stroke-width="3.2"/>
<circle clip-path="url(#clip832)" cx="2292.38" cy="1186.46" r="14.4" fill="#009af9" fill-rule="evenodd" fill-opacity="1" stroke="#000000" stroke-opacity="1" stroke-width="3.2"/>
<circle clip-path="url(#clip832)" cx="279.759" cy="824.418" r="14.4" fill="#e26f46" fill-rule="evenodd" fill-opacity="1" stroke="#000000" stroke-opacity="1" stroke-width="3.2"/>
<circle clip-path="url(#clip832)" cx="320.833" cy="961.108" r="14.4" fill="#e26f46" fill-rule="evenodd" fill-opacity="1" stroke="#000000" stroke-opacity="1" stroke-width="3.2"/>
<circle clip-path="url(#clip832)" cx="361.906" cy="1094.62" r="14.4" fill="#e26f46" fill-rule="evenodd" fill-opacity="1" stroke="#000000" stroke-opacity="1" stroke-width="3.2"/>
<circle clip-path="url(#clip832)" cx="402.98" cy="1034.61" r="14.4" fill="#e26f46" fill-rule="evenodd" fill-opacity="1" stroke="#000000" stroke-opacity="1" stroke-width="3.2"/>
<circle clip-path="url(#clip832)" cx="444.054" cy="953.967" r="14.4" fill="#e26f46" fill-rule="evenodd" fill-opacity="1" stroke="#000000" stroke-opacity="1" stroke-width="3.2"/>
<circle clip-path="url(#clip832)" cx="485.128" cy="1024.36" r="14.4" fill="#e26f46" fill-rule="evenodd" fill-opacity="1" stroke="#000000" stroke-opacity="1" stroke-width="3.2"/>
<circle clip-path="url(#clip832)" cx="526.202" cy="1032.17" r="14.4" fill="#e26f46" fill-rule="evenodd" fill-opacity="1" stroke="#000000" stroke-opacity="1" stroke-width="3.2"/>
<circle clip-path="url(#clip832)" cx="567.276" cy="1023.13" r="14.4" fill="#e26f46" fill-rule="evenodd" fill-opacity="1" stroke="#000000" stroke-opacity="1" stroke-width="3.2"/>
<circle clip-path="url(#clip832)" cx="608.35" cy="982.558" r="14.4" fill="#e26f46" fill-rule="evenodd" fill-opacity="1" stroke="#000000" stroke-opacity="1" stroke-width="3.2"/>
<circle clip-path="url(#clip832)" cx="649.423" cy="964.967" r="14.4" fill="#e26f46" fill-rule="evenodd" fill-opacity="1" stroke="#000000" stroke-opacity="1" stroke-width="3.2"/>
<circle clip-path="url(#clip832)" cx="690.497" cy="910.108" r="14.4" fill="#e26f46" fill-rule="evenodd" fill-opacity="1" stroke="#000000" stroke-opacity="1" stroke-width="3.2"/>
<circle clip-path="url(#clip832)" cx="731.571" cy="838.193" r="14.4" fill="#e26f46" fill-rule="evenodd" fill-opacity="1" stroke="#000000" stroke-opacity="1" stroke-width="3.2"/>
<circle clip-path="url(#clip832)" cx="772.645" cy="866.208" r="14.4" fill="#e26f46" fill-rule="evenodd" fill-opacity="1" stroke="#000000" stroke-opacity="1" stroke-width="3.2"/>
<circle clip-path="url(#clip832)" cx="813.719" cy="767.598" r="14.4" fill="#e26f46" fill-rule="evenodd" fill-opacity="1" stroke="#000000" stroke-opacity="1" stroke-width="3.2"/>
<circle clip-path="url(#clip832)" cx="854.793" cy="735.764" r="14.4" fill="#e26f46" fill-rule="evenodd" fill-opacity="1" stroke="#000000" stroke-opacity="1" stroke-width="3.2"/>
<circle clip-path="url(#clip832)" cx="895.866" cy="690.685" r="14.4" fill="#e26f46" fill-rule="evenodd" fill-opacity="1" stroke="#000000" stroke-opacity="1" stroke-width="3.2"/>
<circle clip-path="url(#clip832)" cx="936.94" cy="715.212" r="14.4" fill="#e26f46" fill-rule="evenodd" fill-opacity="1" stroke="#000000" stroke-opacity="1" stroke-width="3.2"/>
<circle clip-path="url(#clip832)" cx="978.014" cy="512.91" r="14.4" fill="#e26f46" fill-rule="evenodd" fill-opacity="1" stroke="#000000" stroke-opacity="1" stroke-width="3.2"/>
<circle clip-path="url(#clip832)" cx="1019.09" cy="590.726" r="14.4" fill="#e26f46" fill-rule="evenodd" fill-opacity="1" stroke="#000000" stroke-opacity="1" stroke-width="3.2"/>
<circle clip-path="url(#clip832)" cx="1060.16" cy="680.583" r="14.4" fill="#e26f46" fill-rule="evenodd" fill-opacity="1" stroke="#000000" stroke-opacity="1" stroke-width="3.2"/>
<circle clip-path="url(#clip832)" cx="1101.24" cy="734.325" r="14.4" fill="#e26f46" fill-rule="evenodd" fill-opacity="1" stroke="#000000" stroke-opacity="1" stroke-width="3.2"/>
<circle clip-path="url(#clip832)" cx="1142.31" cy="799.26" r="14.4" fill="#e26f46" fill-rule="evenodd" fill-opacity="1" stroke="#000000" stroke-opacity="1" stroke-width="3.2"/>
<circle clip-path="url(#clip832)" cx="1183.38" cy="856.139" r="14.4" fill="#e26f46" fill-rule="evenodd" fill-opacity="1" stroke="#000000" stroke-opacity="1" stroke-width="3.2"/>
<circle clip-path="url(#clip832)" cx="1224.46" cy="904.985" r="14.4" fill="#e26f46" fill-rule="evenodd" fill-opacity="1" stroke="#000000" stroke-opacity="1" stroke-width="3.2"/>
<circle clip-path="url(#clip832)" cx="1265.53" cy="937.394" r="14.4" fill="#e26f46" fill-rule="evenodd" fill-opacity="1" stroke="#000000" stroke-opacity="1" stroke-width="3.2"/>
<circle clip-path="url(#clip832)" cx="1306.6" cy="961.8" r="14.4" fill="#e26f46" fill-rule="evenodd" fill-opacity="1" stroke="#000000" stroke-opacity="1" stroke-width="3.2"/>
<circle clip-path="url(#clip832)" cx="1347.68" cy="1021.14" r="14.4" fill="#e26f46" fill-rule="evenodd" fill-opacity="1" stroke="#000000" stroke-opacity="1" stroke-width="3.2"/>
<circle clip-path="url(#clip832)" cx="1388.75" cy="1045.03" r="14.4" fill="#e26f46" fill-rule="evenodd" fill-opacity="1" stroke="#000000" stroke-opacity="1" stroke-width="3.2"/>
<circle clip-path="url(#clip832)" cx="1429.83" cy="1067.8" r="14.4" fill="#e26f46" fill-rule="evenodd" fill-opacity="1" stroke="#000000" stroke-opacity="1" stroke-width="3.2"/>
<circle clip-path="url(#clip832)" cx="1470.9" cy="1106.82" r="14.4" fill="#e26f46" fill-rule="evenodd" fill-opacity="1" stroke="#000000" stroke-opacity="1" stroke-width="3.2"/>
<circle clip-path="url(#clip832)" cx="1511.97" cy="1126.75" r="14.4" fill="#e26f46" fill-rule="evenodd" fill-opacity="1" stroke="#000000" stroke-opacity="1" stroke-width="3.2"/>
<circle clip-path="url(#clip832)" cx="1553.05" cy="1153.49" r="14.4" fill="#e26f46" fill-rule="evenodd" fill-opacity="1" stroke="#000000" stroke-opacity="1" stroke-width="3.2"/>
<circle clip-path="url(#clip832)" cx="1594.12" cy="1167" r="14.4" fill="#e26f46" fill-rule="evenodd" fill-opacity="1" stroke="#000000" stroke-opacity="1" stroke-width="3.2"/>
<circle clip-path="url(#clip832)" cx="1635.2" cy="1180.1" r="14.4" fill="#e26f46" fill-rule="evenodd" fill-opacity="1" stroke="#000000" stroke-opacity="1" stroke-width="3.2"/>
<circle clip-path="url(#clip832)" cx="1676.27" cy="1200.78" r="14.4" fill="#e26f46" fill-rule="evenodd" fill-opacity="1" stroke="#000000" stroke-opacity="1" stroke-width="3.2"/>
<circle clip-path="url(#clip832)" cx="1717.34" cy="1212.41" r="14.4" fill="#e26f46" fill-rule="evenodd" fill-opacity="1" stroke="#000000" stroke-opacity="1" stroke-width="3.2"/>
<circle clip-path="url(#clip832)" cx="1758.42" cy="1229.74" r="14.4" fill="#e26f46" fill-rule="evenodd" fill-opacity="1" stroke="#000000" stroke-opacity="1" stroke-width="3.2"/>
<circle clip-path="url(#clip832)" cx="1799.49" cy="1237.95" r="14.4" fill="#e26f46" fill-rule="evenodd" fill-opacity="1" stroke="#000000" stroke-opacity="1" stroke-width="3.2"/>
<circle clip-path="url(#clip832)" cx="1840.57" cy="1251.35" r="14.4" fill="#e26f46" fill-rule="evenodd" fill-opacity="1" stroke="#000000" stroke-opacity="1" stroke-width="3.2"/>
<circle clip-path="url(#clip832)" cx="1881.64" cy="1269.28" r="14.4" fill="#e26f46" fill-rule="evenodd" fill-opacity="1" stroke="#000000" stroke-opacity="1" stroke-width="3.2"/>
<circle clip-path="url(#clip832)" cx="1922.71" cy="1271.85" r="14.4" fill="#e26f46" fill-rule="evenodd" fill-opacity="1" stroke="#000000" stroke-opacity="1" stroke-width="3.2"/>
<circle clip-path="url(#clip832)" cx="1963.79" cy="1276.15" r="14.4" fill="#e26f46" fill-rule="evenodd" fill-opacity="1" stroke="#000000" stroke-opacity="1" stroke-width="3.2"/>
<circle clip-path="url(#clip832)" cx="2004.86" cy="1280.3" r="14.4" fill="#e26f46" fill-rule="evenodd" fill-opacity="1" stroke="#000000" stroke-opacity="1" stroke-width="3.2"/>
<circle clip-path="url(#clip832)" cx="2045.93" cy="1292.12" r="14.4" fill="#e26f46" fill-rule="evenodd" fill-opacity="1" stroke="#000000" stroke-opacity="1" stroke-width="3.2"/>
<circle clip-path="url(#clip832)" cx="2087.01" cy="1298.62" r="14.4" fill="#e26f46" fill-rule="evenodd" fill-opacity="1" stroke="#000000" stroke-opacity="1" stroke-width="3.2"/>
<circle clip-path="url(#clip832)" cx="2128.08" cy="1301.7" r="14.4" fill="#e26f46" fill-rule="evenodd" fill-opacity="1" stroke="#000000" stroke-opacity="1" stroke-width="3.2"/>
<circle clip-path="url(#clip832)" cx="2169.16" cy="1307.75" r="14.4" fill="#e26f46" fill-rule="evenodd" fill-opacity="1" stroke="#000000" stroke-opacity="1" stroke-width="3.2"/>
<circle clip-path="url(#clip832)" cx="2210.23" cy="1312.08" r="14.4" fill="#e26f46" fill-rule="evenodd" fill-opacity="1" stroke="#000000" stroke-opacity="1" stroke-width="3.2"/>
<circle clip-path="url(#clip832)" cx="2251.3" cy="1318.24" r="14.4" fill="#e26f46" fill-rule="evenodd" fill-opacity="1" stroke="#000000" stroke-opacity="1" stroke-width="3.2"/>
<circle clip-path="url(#clip832)" cx="2292.38" cy="1328.72" r="14.4" fill="#e26f46" fill-rule="evenodd" fill-opacity="1" stroke="#000000" stroke-opacity="1" stroke-width="3.2"/>
<circle clip-path="url(#clip832)" cx="320.833" cy="543.025" r="14.4" fill="#3da44d" fill-rule="evenodd" fill-opacity="1" stroke="#000000" stroke-opacity="1" stroke-width="3.2"/>
<circle clip-path="url(#clip832)" cx="361.906" cy="746.125" r="14.4" fill="#3da44d" fill-rule="evenodd" fill-opacity="1" stroke="#000000" stroke-opacity="1" stroke-width="3.2"/>
<circle clip-path="url(#clip832)" cx="402.98" cy="715.589" r="14.4" fill="#3da44d" fill-rule="evenodd" fill-opacity="1" stroke="#000000" stroke-opacity="1" stroke-width="3.2"/>
<circle clip-path="url(#clip832)" cx="444.054" cy="593.561" r="14.4" fill="#3da44d" fill-rule="evenodd" fill-opacity="1" stroke="#000000" stroke-opacity="1" stroke-width="3.2"/>
<circle clip-path="url(#clip832)" cx="485.128" cy="535.925" r="14.4" fill="#3da44d" fill-rule="evenodd" fill-opacity="1" stroke="#000000" stroke-opacity="1" stroke-width="3.2"/>
<circle clip-path="url(#clip832)" cx="526.202" cy="231.27" r="14.4" fill="#3da44d" fill-rule="evenodd" fill-opacity="1" stroke="#000000" stroke-opacity="1" stroke-width="3.2"/>
<circle clip-path="url(#clip832)" cx="567.276" cy="242.346" r="14.4" fill="#3da44d" fill-rule="evenodd" fill-opacity="1" stroke="#000000" stroke-opacity="1" stroke-width="3.2"/>
<circle clip-path="url(#clip832)" cx="608.35" cy="400.99" r="14.4" fill="#3da44d" fill-rule="evenodd" fill-opacity="1" stroke="#000000" stroke-opacity="1" stroke-width="3.2"/>
<circle clip-path="url(#clip832)" cx="772.645" cy="283.971" r="14.4" fill="#3da44d" fill-rule="evenodd" fill-opacity="1" stroke="#000000" stroke-opacity="1" stroke-width="3.2"/>
<circle clip-path="url(#clip832)" cx="813.719" cy="419.837" r="14.4" fill="#3da44d" fill-rule="evenodd" fill-opacity="1" stroke="#000000" stroke-opacity="1" stroke-width="3.2"/>
<circle clip-path="url(#clip832)" cx="854.793" cy="579.027" r="14.4" fill="#3da44d" fill-rule="evenodd" fill-opacity="1" stroke="#000000" stroke-opacity="1" stroke-width="3.2"/>
<circle clip-path="url(#clip832)" cx="895.866" cy="633.93" r="14.4" fill="#3da44d" fill-rule="evenodd" fill-opacity="1" stroke="#000000" stroke-opacity="1" stroke-width="3.2"/>
<circle clip-path="url(#clip832)" cx="936.94" cy="726.89" r="14.4" fill="#3da44d" fill-rule="evenodd" fill-opacity="1" stroke="#000000" stroke-opacity="1" stroke-width="3.2"/>
<circle clip-path="url(#clip832)" cx="978.014" cy="813.528" r="14.4" fill="#3da44d" fill-rule="evenodd" fill-opacity="1" stroke="#000000" stroke-opacity="1" stroke-width="3.2"/>
<circle clip-path="url(#clip832)" cx="1019.09" cy="879.347" r="14.4" fill="#3da44d" fill-rule="evenodd" fill-opacity="1" stroke="#000000" stroke-opacity="1" stroke-width="3.2"/>
<circle clip-path="url(#clip832)" cx="1060.16" cy="930.814" r="14.4" fill="#3da44d" fill-rule="evenodd" fill-opacity="1" stroke="#000000" stroke-opacity="1" stroke-width="3.2"/>
<circle clip-path="url(#clip832)" cx="1101.24" cy="994.945" r="14.4" fill="#3da44d" fill-rule="evenodd" fill-opacity="1" stroke="#000000" stroke-opacity="1" stroke-width="3.2"/>
<circle clip-path="url(#clip832)" cx="1142.31" cy="1037.17" r="14.4" fill="#3da44d" fill-rule="evenodd" fill-opacity="1" stroke="#000000" stroke-opacity="1" stroke-width="3.2"/>
<circle clip-path="url(#clip832)" cx="1183.38" cy="1069.45" r="14.4" fill="#3da44d" fill-rule="evenodd" fill-opacity="1" stroke="#000000" stroke-opacity="1" stroke-width="3.2"/>
<circle clip-path="url(#clip832)" cx="1224.46" cy="1112.92" r="14.4" fill="#3da44d" fill-rule="evenodd" fill-opacity="1" stroke="#000000" stroke-opacity="1" stroke-width="3.2"/>
<circle clip-path="url(#clip832)" cx="1265.53" cy="1139.5" r="14.4" fill="#3da44d" fill-rule="evenodd" fill-opacity="1" stroke="#000000" stroke-opacity="1" stroke-width="3.2"/>
<circle clip-path="url(#clip832)" cx="1306.6" cy="1154.35" r="14.4" fill="#3da44d" fill-rule="evenodd" fill-opacity="1" stroke="#000000" stroke-opacity="1" stroke-width="3.2"/>
<circle clip-path="url(#clip832)" cx="1347.68" cy="1183.68" r="14.4" fill="#3da44d" fill-rule="evenodd" fill-opacity="1" stroke="#000000" stroke-opacity="1" stroke-width="3.2"/>
<circle clip-path="url(#clip832)" cx="1388.75" cy="1197.37" r="14.4" fill="#3da44d" fill-rule="evenodd" fill-opacity="1" stroke="#000000" stroke-opacity="1" stroke-width="3.2"/>
<circle clip-path="url(#clip832)" cx="1429.83" cy="1210.95" r="14.4" fill="#3da44d" fill-rule="evenodd" fill-opacity="1" stroke="#000000" stroke-opacity="1" stroke-width="3.2"/>
<circle clip-path="url(#clip832)" cx="1470.9" cy="1229.55" r="14.4" fill="#3da44d" fill-rule="evenodd" fill-opacity="1" stroke="#000000" stroke-opacity="1" stroke-width="3.2"/>
<circle clip-path="url(#clip832)" cx="1511.97" cy="1250.5" r="14.4" fill="#3da44d" fill-rule="evenodd" fill-opacity="1" stroke="#000000" stroke-opacity="1" stroke-width="3.2"/>
<circle clip-path="url(#clip832)" cx="1553.05" cy="1258.04" r="14.4" fill="#3da44d" fill-rule="evenodd" fill-opacity="1" stroke="#000000" stroke-opacity="1" stroke-width="3.2"/>
<circle clip-path="url(#clip832)" cx="1594.12" cy="1264.68" r="14.4" fill="#3da44d" fill-rule="evenodd" fill-opacity="1" stroke="#000000" stroke-opacity="1" stroke-width="3.2"/>
<circle clip-path="url(#clip832)" cx="1635.2" cy="1278.16" r="14.4" fill="#3da44d" fill-rule="evenodd" fill-opacity="1" stroke="#000000" stroke-opacity="1" stroke-width="3.2"/>
<circle clip-path="url(#clip832)" cx="1676.27" cy="1287.83" r="14.4" fill="#3da44d" fill-rule="evenodd" fill-opacity="1" stroke="#000000" stroke-opacity="1" stroke-width="3.2"/>
<circle clip-path="url(#clip832)" cx="1717.34" cy="1296.57" r="14.4" fill="#3da44d" fill-rule="evenodd" fill-opacity="1" stroke="#000000" stroke-opacity="1" stroke-width="3.2"/>
<circle clip-path="url(#clip832)" cx="1758.42" cy="1305.13" r="14.4" fill="#3da44d" fill-rule="evenodd" fill-opacity="1" stroke="#000000" stroke-opacity="1" stroke-width="3.2"/>
<circle clip-path="url(#clip832)" cx="1799.49" cy="1310.4" r="14.4" fill="#3da44d" fill-rule="evenodd" fill-opacity="1" stroke="#000000" stroke-opacity="1" stroke-width="3.2"/>
<circle clip-path="url(#clip832)" cx="1840.57" cy="1314.73" r="14.4" fill="#3da44d" fill-rule="evenodd" fill-opacity="1" stroke="#000000" stroke-opacity="1" stroke-width="3.2"/>
<circle clip-path="url(#clip832)" cx="1881.64" cy="1324.65" r="14.4" fill="#3da44d" fill-rule="evenodd" fill-opacity="1" stroke="#000000" stroke-opacity="1" stroke-width="3.2"/>
<circle clip-path="url(#clip832)" cx="1922.71" cy="1326.21" r="14.4" fill="#3da44d" fill-rule="evenodd" fill-opacity="1" stroke="#000000" stroke-opacity="1" stroke-width="3.2"/>
<circle clip-path="url(#clip832)" cx="1963.79" cy="1331.67" r="14.4" fill="#3da44d" fill-rule="evenodd" fill-opacity="1" stroke="#000000" stroke-opacity="1" stroke-width="3.2"/>
<circle clip-path="url(#clip832)" cx="2004.86" cy="1334.72" r="14.4" fill="#3da44d" fill-rule="evenodd" fill-opacity="1" stroke="#000000" stroke-opacity="1" stroke-width="3.2"/>
<circle clip-path="url(#clip832)" cx="2045.93" cy="1341.48" r="14.4" fill="#3da44d" fill-rule="evenodd" fill-opacity="1" stroke="#000000" stroke-opacity="1" stroke-width="3.2"/>
<circle clip-path="url(#clip832)" cx="2087.01" cy="1344.74" r="14.4" fill="#3da44d" fill-rule="evenodd" fill-opacity="1" stroke="#000000" stroke-opacity="1" stroke-width="3.2"/>
<circle clip-path="url(#clip832)" cx="2128.08" cy="1350.67" r="14.4" fill="#3da44d" fill-rule="evenodd" fill-opacity="1" stroke="#000000" stroke-opacity="1" stroke-width="3.2"/>
<circle clip-path="url(#clip832)" cx="2169.16" cy="1355.2" r="14.4" fill="#3da44d" fill-rule="evenodd" fill-opacity="1" stroke="#000000" stroke-opacity="1" stroke-width="3.2"/>
<circle clip-path="url(#clip832)" cx="2210.23" cy="1356.23" r="14.4" fill="#3da44d" fill-rule="evenodd" fill-opacity="1" stroke="#000000" stroke-opacity="1" stroke-width="3.2"/>
<circle clip-path="url(#clip832)" cx="2251.3" cy="1359.22" r="14.4" fill="#3da44d" fill-rule="evenodd" fill-opacity="1" stroke="#000000" stroke-opacity="1" stroke-width="3.2"/>
<circle clip-path="url(#clip832)" cx="2292.38" cy="1362.42" r="14.4" fill="#3da44d" fill-rule="evenodd" fill-opacity="1" stroke="#000000" stroke-opacity="1" stroke-width="3.2"/>
<polyline clip-path="url(#clip832)" style="stroke:#c271d2; stroke-linecap:round; stroke-linejoin:round; stroke-width:4; stroke-opacity:1; fill:none" stroke-dasharray="16, 10" points="1774.44,2722.89 1774.44,-1176.24 "/>
<polyline clip-path="url(#clip832)" style="stroke:#c271d2; stroke-linecap:round; stroke-linejoin:round; stroke-width:4; stroke-opacity:1; fill:none" stroke-dasharray="16, 10" points="1026.89,2722.89 1026.89,-1176.24 "/>
<polyline clip-path="url(#clip832)" style="stroke:#c271d2; stroke-linecap:round; stroke-linejoin:round; stroke-width:4; stroke-opacity:1; fill:none" stroke-dasharray="16, 10" points="777.711,2722.89 777.711,-1176.24 "/>
<path clip-path="url(#clip830)" d="M1940.64 425.996 L2281.64 425.996 L2281.64 166.796 L1940.64 166.796  Z" fill="#ffffff" fill-rule="evenodd" fill-opacity="1"/>
<polyline clip-path="url(#clip830)" style="stroke:#000000; stroke-linecap:round; stroke-linejoin:round; stroke-width:4; stroke-opacity:1; fill:none" points="1940.64,425.996 2281.64,425.996 2281.64,166.796 1940.64,166.796 1940.64,425.996 "/>
<circle clip-path="url(#clip830)" cx="2035.46" cy="218.636" r="20.48" fill="#009af9" fill-rule="evenodd" fill-opacity="1" stroke="#000000" stroke-opacity="1" stroke-width="4.55111"/>
<path clip-path="url(#clip830)" d="M2149.19 213.925 L2149.19 199.897 L2153.45 199.897 L2153.45 235.916 L2149.19 235.916 L2149.19 232.027 Q2147.85 234.342 2145.79 235.476 Q2143.75 236.587 2140.88 236.587 Q2136.18 236.587 2133.22 232.837 Q2130.28 229.087 2130.28 222.976 Q2130.28 216.865 2133.22 213.115 Q2136.18 209.365 2140.88 209.365 Q2143.75 209.365 2145.79 210.499 Q2147.85 211.61 2149.19 213.925 M2134.68 222.976 Q2134.68 227.675 2136.6 230.36 Q2138.54 233.022 2141.92 233.022 Q2145.3 233.022 2147.25 230.36 Q2149.19 227.675 2149.19 222.976 Q2149.19 218.277 2147.25 215.615 Q2145.3 212.93 2141.92 212.93 Q2138.54 212.93 2136.6 215.615 Q2134.68 218.277 2134.68 222.976 Z" fill="#000000" fill-rule="nonzero" fill-opacity="1" /><path clip-path="url(#clip830)" d="M2162.78 214.388 L2192.45 214.388 L2192.45 218.277 L2162.78 218.277 L2162.78 214.388 M2162.78 223.832 L2192.45 223.832 L2192.45 227.768 L2162.78 227.768 L2162.78 223.832 Z" fill="#000000" fill-rule="nonzero" fill-opacity="1" /><path clip-path="url(#clip830)" d="M2203.36 231.981 L2211 231.981 L2211 205.615 L2202.68 207.282 L2202.68 203.022 L2210.95 201.356 L2215.62 201.356 L2215.62 231.981 L2223.26 231.981 L2223.26 235.916 L2203.36 235.916 L2203.36 231.981 Z" fill="#000000" fill-rule="nonzero" fill-opacity="1" /><circle clip-path="url(#clip830)" cx="2035.46" cy="270.476" r="20.48" fill="#e26f46" fill-rule="evenodd" fill-opacity="1" stroke="#000000" stroke-opacity="1" stroke-width="4.55111"/>
<path clip-path="url(#clip830)" d="M2149.19 265.765 L2149.19 251.737 L2153.45 251.737 L2153.45 287.756 L2149.19 287.756 L2149.19 283.867 Q2147.85 286.182 2145.79 287.316 Q2143.75 288.427 2140.88 288.427 Q2136.18 288.427 2133.22 284.677 Q2130.28 280.927 2130.28 274.816 Q2130.28 268.705 2133.22 264.955 Q2136.18 261.205 2140.88 261.205 Q2143.75 261.205 2145.79 262.339 Q2147.85 263.45 2149.19 265.765 M2134.68 274.816 Q2134.68 279.515 2136.6 282.2 Q2138.54 284.862 2141.92 284.862 Q2145.3 284.862 2147.25 282.2 Q2149.19 279.515 2149.19 274.816 Q2149.19 270.117 2147.25 267.455 Q2145.3 264.77 2141.92 264.77 Q2138.54 264.77 2136.6 267.455 Q2134.68 270.117 2134.68 274.816 Z" fill="#000000" fill-rule="nonzero" fill-opacity="1" /><path clip-path="url(#clip830)" d="M2162.78 266.228 L2192.45 266.228 L2192.45 270.117 L2162.78 270.117 L2162.78 266.228 M2162.78 275.672 L2192.45 275.672 L2192.45 279.608 L2162.78 279.608 L2162.78 275.672 Z" fill="#000000" fill-rule="nonzero" fill-opacity="1" /><path clip-path="url(#clip830)" d="M2206.57 283.821 L2222.89 283.821 L2222.89 287.756 L2200.95 287.756 L2200.95 283.821 Q2203.61 281.066 2208.19 276.436 Q2212.8 271.784 2213.98 270.441 Q2216.23 267.918 2217.11 266.182 Q2218.01 264.423 2218.01 262.733 Q2218.01 259.978 2216.06 258.242 Q2214.14 256.506 2211.04 256.506 Q2208.84 256.506 2206.39 257.27 Q2203.96 258.034 2201.18 259.585 L2201.18 254.862 Q2204 253.728 2206.46 253.149 Q2208.91 252.571 2210.95 252.571 Q2216.32 252.571 2219.51 255.256 Q2222.71 257.941 2222.71 262.432 Q2222.71 264.561 2221.9 266.483 Q2221.11 268.381 2219 270.973 Q2218.43 271.645 2215.32 274.862 Q2212.22 278.057 2206.57 283.821 Z" fill="#000000" fill-rule="nonzero" fill-opacity="1" /><circle clip-path="url(#clip830)" cx="2035.46" cy="322.316" r="20.48" fill="#3da44d" fill-rule="evenodd" fill-opacity="1" stroke="#000000" stroke-opacity="1" stroke-width="4.55111"/>
<path clip-path="url(#clip830)" d="M2149.19 317.605 L2149.19 303.577 L2153.45 303.577 L2153.45 339.596 L2149.19 339.596 L2149.19 335.707 Q2147.85 338.022 2145.79 339.156 Q2143.75 340.267 2140.88 340.267 Q2136.18 340.267 2133.22 336.517 Q2130.28 332.767 2130.28 326.656 Q2130.28 320.545 2133.22 316.795 Q2136.18 313.045 2140.88 313.045 Q2143.75 313.045 2145.79 314.179 Q2147.85 315.29 2149.19 317.605 M2134.68 326.656 Q2134.68 331.355 2136.6 334.04 Q2138.54 336.702 2141.92 336.702 Q2145.3 336.702 2147.25 334.04 Q2149.19 331.355 2149.19 326.656 Q2149.19 321.957 2147.25 319.295 Q2145.3 316.61 2141.92 316.61 Q2138.54 316.61 2136.6 319.295 Q2134.68 321.957 2134.68 326.656 Z" fill="#000000" fill-rule="nonzero" fill-opacity="1" /><path clip-path="url(#clip830)" d="M2162.78 318.068 L2192.45 318.068 L2192.45 321.957 L2162.78 321.957 L2162.78 318.068 M2162.78 327.512 L2192.45 327.512 L2192.45 331.448 L2162.78 331.448 L2162.78 327.512 Z" fill="#000000" fill-rule="nonzero" fill-opacity="1" /><path clip-path="url(#clip830)" d="M2216.71 320.962 Q2220.07 321.679 2221.94 323.948 Q2223.84 326.216 2223.84 329.549 Q2223.84 334.665 2220.32 337.466 Q2216.81 340.267 2210.32 340.267 Q2208.15 340.267 2205.83 339.827 Q2203.54 339.411 2201.09 338.554 L2201.09 334.04 Q2203.03 335.174 2205.35 335.753 Q2207.66 336.332 2210.18 336.332 Q2214.58 336.332 2216.87 334.596 Q2219.19 332.86 2219.19 329.549 Q2219.19 326.494 2217.04 324.781 Q2214.91 323.045 2211.09 323.045 L2207.06 323.045 L2207.06 319.202 L2211.27 319.202 Q2214.72 319.202 2216.55 317.837 Q2218.38 316.448 2218.38 313.855 Q2218.38 311.193 2216.48 309.781 Q2214.61 308.346 2211.09 308.346 Q2209.17 308.346 2206.97 308.763 Q2204.77 309.179 2202.13 310.059 L2202.13 305.892 Q2204.79 305.151 2207.11 304.781 Q2209.44 304.411 2211.5 304.411 Q2216.83 304.411 2219.93 306.841 Q2223.03 309.249 2223.03 313.369 Q2223.03 316.239 2221.39 318.23 Q2219.74 320.198 2216.71 320.962 Z" fill="#000000" fill-rule="nonzero" fill-opacity="1" /><polyline clip-path="url(#clip830)" style="stroke:#c271d2; stroke-linecap:round; stroke-linejoin:round; stroke-width:4; stroke-opacity:1; fill:none" stroke-dasharray="16, 10" points="1964.35,374.156 2106.57,374.156 "/>
<path clip-path="url(#clip830)" d="M2130.28 356.876 L2159.51 356.876 L2159.51 360.811 L2147.25 360.811 L2147.25 391.436 L2142.55 391.436 L2142.55 360.811 L2130.28 360.811 L2130.28 356.876 Z" fill="#000000" fill-rule="nonzero" fill-opacity="1" /><path clip-path="url(#clip830)" d="M2183.54 399.306 L2183.54 402.616 L2158.91 402.616 L2158.91 399.306 L2183.54 399.306 Z" fill="#000000" fill-rule="nonzero" fill-opacity="1" /><path clip-path="url(#clip830)" d="M2213.61 359.538 L2213.61 364.468 Q2211.25 362.269 2208.56 361.181 Q2205.9 360.093 2202.89 360.093 Q2196.97 360.093 2193.82 363.728 Q2190.67 367.339 2190.67 374.19 Q2190.67 381.019 2193.82 384.653 Q2196.97 388.264 2202.89 388.264 Q2205.9 388.264 2208.56 387.176 Q2211.25 386.089 2213.61 383.889 L2213.61 388.774 Q2211.16 390.44 2208.4 391.274 Q2205.67 392.107 2202.62 392.107 Q2194.77 392.107 2190.25 387.315 Q2185.74 382.501 2185.74 374.19 Q2185.74 365.857 2190.25 361.066 Q2194.77 356.251 2202.62 356.251 Q2205.72 356.251 2208.45 357.084 Q2211.2 357.894 2213.61 359.538 Z" fill="#000000" fill-rule="nonzero" fill-opacity="1" /><path clip-path="url(#clip830)" d="M2228.22 356.876 L2232.15 356.876 L2220.12 395.834 L2216.18 395.834 L2228.22 356.876 Z" fill="#000000" fill-rule="nonzero" fill-opacity="1" /><path clip-path="url(#clip830)" d="M2253.68 369.445 L2253.68 355.417 L2257.94 355.417 L2257.94 391.436 L2253.68 391.436 L2253.68 387.547 Q2252.34 389.862 2250.28 390.996 Q2248.24 392.107 2245.37 392.107 Q2240.67 392.107 2237.71 388.357 Q2234.77 384.607 2234.77 378.496 Q2234.77 372.385 2237.71 368.635 Q2240.67 364.885 2245.37 364.885 Q2248.24 364.885 2250.28 366.019 Q2252.34 367.13 2253.68 369.445 M2239.17 378.496 Q2239.17 383.195 2241.09 385.88 Q2243.03 388.542 2246.41 388.542 Q2249.79 388.542 2251.74 385.88 Q2253.68 383.195 2253.68 378.496 Q2253.68 373.797 2251.74 371.135 Q2249.79 368.45 2246.41 368.45 Q2243.03 368.45 2241.09 371.135 Q2239.17 373.797 2239.17 378.496 Z" fill="#000000" fill-rule="nonzero" fill-opacity="1" /></svg>
