<?xml version="1.0" encoding="utf-8"?>
<svg xmlns="http://www.w3.org/2000/svg" xmlns:xlink="http://www.w3.org/1999/xlink" width="600" height="400" viewBox="0 0 2400 1600">
<defs>
  <clipPath id="clip050">
    <rect x="0" y="0" width="2400" height="1600"/>
  </clipPath>
</defs>
<path clip-path="url(#clip050)" d="M0 1600 L2400 1600 L2400 0 L0 0  Z" fill="#ffffff" fill-rule="evenodd" fill-opacity="1"/>
<defs>
  <clipPath id="clip051">
    <rect x="480" y="0" width="1681" height="1600"/>
  </clipPath>
</defs>
<path clip-path="url(#clip050)" d="M211.325 1423.18 L2352.76 1423.18 L2352.76 123.472 L211.325 123.472  Z" fill="#ffffff" fill-rule="evenodd" fill-opacity="1"/>
<defs>
  <clipPath id="clip052">
    <rect x="211" y="123" width="2142" height="1301"/>
  </clipPath>
</defs>
<polyline clip-path="url(#clip052)" style="stroke:#000000; stroke-linecap:round; stroke-linejoin:round; stroke-width:2; stroke-opacity:0.1; fill:none" points="269.403,1423.18 269.403,123.472 "/>
<polyline clip-path="url(#clip052)" style="stroke:#000000; stroke-linecap:round; stroke-linejoin:round; stroke-width:2; stroke-opacity:0.1; fill:none" points="775.089,1423.18 775.089,123.472 "/>
<polyline clip-path="url(#clip052)" style="stroke:#000000; stroke-linecap:round; stroke-linejoin:round; stroke-width:2; stroke-opacity:0.1; fill:none" points="1280.78,1423.18 1280.78,123.472 "/>
<polyline clip-path="url(#clip052)" style="stroke:#000000; stroke-linecap:round; stroke-linejoin:round; stroke-width:2; stroke-opacity:0.1; fill:none" points="1786.46,1423.18 1786.46,123.472 "/>
<polyline clip-path="url(#clip052)" style="stroke:#000000; stroke-linecap:round; stroke-linejoin:round; stroke-width:2; stroke-opacity:0.1; fill:none" points="2292.15,1423.18 2292.15,123.472 "/>
<polyline clip-path="url(#clip052)" style="stroke:#000000; stroke-linecap:round; stroke-linejoin:round; stroke-width:2; stroke-opacity:0.1; fill:none" points="211.325,1386.4 2352.76,1386.4 "/>
<polyline clip-path="url(#clip052)" style="stroke:#000000; stroke-linecap:round; stroke-linejoin:round; stroke-width:2; stroke-opacity:0.1; fill:none" points="211.325,983.007 2352.76,983.007 "/>
<polyline clip-path="url(#clip052)" style="stroke:#000000; stroke-linecap:round; stroke-linejoin:round; stroke-width:2; stroke-opacity:0.1; fill:none" points="211.325,579.619 2352.76,579.619 "/>
<polyline clip-path="url(#clip052)" style="stroke:#000000; stroke-linecap:round; stroke-linejoin:round; stroke-width:2; stroke-opacity:0.1; fill:none" points="211.325,176.23 2352.76,176.23 "/>
<polyline clip-path="url(#clip050)" style="stroke:#000000; stroke-linecap:round; stroke-linejoin:round; stroke-width:4; stroke-opacity:1; fill:none" points="211.325,1423.18 2352.76,1423.18 "/>
<polyline clip-path="url(#clip050)" style="stroke:#000000; stroke-linecap:round; stroke-linejoin:round; stroke-width:4; stroke-opacity:1; fill:none" points="269.403,1423.18 269.403,1404.28 "/>
<polyline clip-path="url(#clip050)" style="stroke:#000000; stroke-linecap:round; stroke-linejoin:round; stroke-width:4; stroke-opacity:1; fill:none" points="775.089,1423.18 775.089,1404.28 "/>
<polyline clip-path="url(#clip050)" style="stroke:#000000; stroke-linecap:round; stroke-linejoin:round; stroke-width:4; stroke-opacity:1; fill:none" points="1280.78,1423.18 1280.78,1404.28 "/>
<polyline clip-path="url(#clip050)" style="stroke:#000000; stroke-linecap:round; stroke-linejoin:round; stroke-width:4; stroke-opacity:1; fill:none" points="1786.46,1423.18 1786.46,1404.28 "/>
<polyline clip-path="url(#clip050)" style="stroke:#000000; stroke-linecap:round; stroke-linejoin:round; stroke-width:4; stroke-opacity:1; fill:none" points="2292.15,1423.18 2292.15,1404.28 "/>
<path clip-path="url(#clip050)" d="M269.403 1454.1 Q265.792 1454.1 263.963 1457.66 Q262.157 1461.2 262.157 1468.33 Q262.157 1475.44 263.963 1479.01 Q265.792 1482.55 269.403 1482.55 Q273.037 1482.55 274.843 1479.01 Q276.671 1475.44 276.671 1468.33 Q276.671 1461.2 274.843 1457.66 Q273.037 1454.1 269.403 1454.1 M269.403 1450.39 Q275.213 1450.39 278.268 1455 Q281.347 1459.58 281.347 1468.33 Q281.347 1477.06 278.268 1481.67 Q275.213 1486.25 269.403 1486.25 Q263.593 1486.25 260.514 1481.67 Q257.458 1477.06 257.458 1468.33 Q257.458 1459.58 260.514 1455 Q263.593 1450.39 269.403 1450.39 Z" fill="#000000" fill-rule="nonzero" fill-opacity="1" /><path clip-path="url(#clip050)" d="M738.782 1481.64 L755.101 1481.64 L755.101 1485.58 L733.157 1485.58 L733.157 1481.64 Q735.819 1478.89 740.402 1474.26 Q745.009 1469.61 746.189 1468.27 Q748.434 1465.74 749.314 1464.01 Q750.217 1462.25 750.217 1460.56 Q750.217 1457.8 748.272 1456.07 Q746.351 1454.33 743.249 1454.33 Q741.05 1454.33 738.597 1455.09 Q736.166 1455.86 733.388 1457.41 L733.388 1452.69 Q736.212 1451.55 738.666 1450.97 Q741.12 1450.39 743.157 1450.39 Q748.527 1450.39 751.721 1453.08 Q754.916 1455.77 754.916 1460.26 Q754.916 1462.39 754.106 1464.31 Q753.319 1466.2 751.212 1468.8 Q750.634 1469.47 747.532 1472.69 Q744.43 1475.88 738.782 1481.64 Z" fill="#000000" fill-rule="nonzero" fill-opacity="1" /><path clip-path="url(#clip050)" d="M774.916 1454.1 Q771.305 1454.1 769.476 1457.66 Q767.67 1461.2 767.67 1468.33 Q767.67 1475.44 769.476 1479.01 Q771.305 1482.55 774.916 1482.55 Q778.55 1482.55 780.356 1479.01 Q782.184 1475.44 782.184 1468.33 Q782.184 1461.2 780.356 1457.66 Q778.55 1454.1 774.916 1454.1 M774.916 1450.39 Q780.726 1450.39 783.781 1455 Q786.86 1459.58 786.86 1468.33 Q786.86 1477.06 783.781 1481.67 Q780.726 1486.25 774.916 1486.25 Q769.106 1486.25 766.027 1481.67 Q762.971 1477.06 762.971 1468.33 Q762.971 1459.58 766.027 1455 Q769.106 1450.39 774.916 1450.39 Z" fill="#000000" fill-rule="nonzero" fill-opacity="1" /><path clip-path="url(#clip050)" d="M805.078 1454.1 Q801.467 1454.1 799.638 1457.66 Q797.832 1461.2 797.832 1468.33 Q797.832 1475.44 799.638 1479.01 Q801.467 1482.55 805.078 1482.55 Q808.712 1482.55 810.517 1479.01 Q812.346 1475.44 812.346 1468.33 Q812.346 1461.2 810.517 1457.66 Q808.712 1454.1 805.078 1454.1 M805.078 1450.39 Q810.888 1450.39 813.943 1455 Q817.022 1459.58 817.022 1468.33 Q817.022 1477.06 813.943 1481.67 Q810.888 1486.25 805.078 1486.25 Q799.268 1486.25 796.189 1481.67 Q793.133 1477.06 793.133 1468.33 Q793.133 1459.58 796.189 1455 Q799.268 1450.39 805.078 1450.39 Z" fill="#000000" fill-rule="nonzero" fill-opacity="1" /><path clip-path="url(#clip050)" d="M1253.87 1455.09 L1242.06 1473.54 L1253.87 1473.54 L1253.87 1455.09 M1252.64 1451.02 L1258.52 1451.02 L1258.52 1473.54 L1263.45 1473.54 L1263.45 1477.43 L1258.52 1477.43 L1258.52 1485.58 L1253.87 1485.58 L1253.87 1477.43 L1238.26 1477.43 L1238.26 1472.92 L1252.64 1451.02 Z" fill="#000000" fill-rule="nonzero" fill-opacity="1" /><path clip-path="url(#clip050)" d="M1281.18 1454.1 Q1277.57 1454.1 1275.74 1457.66 Q1273.94 1461.2 1273.94 1468.33 Q1273.94 1475.44 1275.74 1479.01 Q1277.57 1482.55 1281.18 1482.55 Q1284.82 1482.55 1286.62 1479.01 Q1288.45 1475.44 1288.45 1468.33 Q1288.45 1461.2 1286.62 1457.66 Q1284.82 1454.1 1281.18 1454.1 M1281.18 1450.39 Q1286.99 1450.39 1290.05 1455 Q1293.13 1459.58 1293.13 1468.33 Q1293.13 1477.06 1290.05 1481.67 Q1286.99 1486.25 1281.18 1486.25 Q1275.37 1486.25 1272.29 1481.67 Q1269.24 1477.06 1269.24 1468.33 Q1269.24 1459.58 1272.29 1455 Q1275.37 1450.39 1281.18 1450.39 Z" fill="#000000" fill-rule="nonzero" fill-opacity="1" /><path clip-path="url(#clip050)" d="M1311.34 1454.1 Q1307.73 1454.1 1305.9 1457.66 Q1304.1 1461.2 1304.1 1468.33 Q1304.1 1475.44 1305.9 1479.01 Q1307.73 1482.55 1311.34 1482.55 Q1314.98 1482.55 1316.78 1479.01 Q1318.61 1475.44 1318.61 1468.33 Q1318.61 1461.2 1316.78 1457.66 Q1314.98 1454.1 1311.34 1454.1 M1311.34 1450.39 Q1317.15 1450.39 1320.21 1455 Q1323.29 1459.58 1323.29 1468.33 Q1323.29 1477.06 1320.21 1481.67 Q1317.15 1486.25 1311.34 1486.25 Q1305.53 1486.25 1302.45 1481.67 Q1299.4 1477.06 1299.4 1468.33 Q1299.4 1459.58 1302.45 1455 Q1305.53 1450.39 1311.34 1450.39 Z" fill="#000000" fill-rule="nonzero" fill-opacity="1" /><path clip-path="url(#clip050)" d="M1756.79 1466.44 Q1753.64 1466.44 1751.79 1468.59 Q1749.96 1470.74 1749.96 1474.49 Q1749.96 1478.22 1751.79 1480.39 Q1753.64 1482.55 1756.79 1482.55 Q1759.94 1482.55 1761.76 1480.39 Q1763.62 1478.22 1763.62 1474.49 Q1763.62 1470.74 1761.76 1468.59 Q1759.94 1466.44 1756.79 1466.44 M1766.07 1451.78 L1766.07 1456.04 Q1764.31 1455.21 1762.5 1454.77 Q1760.72 1454.33 1758.96 1454.33 Q1754.33 1454.33 1751.88 1457.45 Q1749.45 1460.58 1749.1 1466.9 Q1750.47 1464.89 1752.53 1463.82 Q1754.59 1462.73 1757.06 1462.73 Q1762.27 1462.73 1765.28 1465.9 Q1768.31 1469.05 1768.31 1474.49 Q1768.31 1479.82 1765.17 1483.03 Q1762.02 1486.25 1756.79 1486.25 Q1750.79 1486.25 1747.62 1481.67 Q1744.45 1477.06 1744.45 1468.33 Q1744.45 1460.14 1748.34 1455.28 Q1752.23 1450.39 1758.78 1450.39 Q1760.54 1450.39 1762.32 1450.74 Q1764.12 1451.09 1766.07 1451.78 Z" fill="#000000" fill-rule="nonzero" fill-opacity="1" /><path clip-path="url(#clip050)" d="M1786.37 1454.1 Q1782.76 1454.1 1780.93 1457.66 Q1779.12 1461.2 1779.12 1468.33 Q1779.12 1475.44 1780.93 1479.01 Q1782.76 1482.55 1786.37 1482.55 Q1790 1482.55 1791.81 1479.01 Q1793.64 1475.44 1793.64 1468.33 Q1793.64 1461.2 1791.81 1457.66 Q1790 1454.1 1786.37 1454.1 M1786.37 1450.39 Q1792.18 1450.39 1795.24 1455 Q1798.31 1459.58 1798.31 1468.33 Q1798.31 1477.06 1795.24 1481.67 Q1792.18 1486.25 1786.37 1486.25 Q1780.56 1486.25 1777.48 1481.67 Q1774.43 1477.06 1774.43 1468.33 Q1774.43 1459.58 1777.48 1455 Q1780.56 1450.39 1786.37 1450.39 Z" fill="#000000" fill-rule="nonzero" fill-opacity="1" /><path clip-path="url(#clip050)" d="M1816.53 1454.1 Q1812.92 1454.1 1811.09 1457.66 Q1809.29 1461.2 1809.29 1468.33 Q1809.29 1475.44 1811.09 1479.01 Q1812.92 1482.55 1816.53 1482.55 Q1820.17 1482.55 1821.97 1479.01 Q1823.8 1475.44 1823.8 1468.33 Q1823.8 1461.2 1821.97 1457.66 Q1820.17 1454.1 1816.53 1454.1 M1816.53 1450.39 Q1822.34 1450.39 1825.4 1455 Q1828.48 1459.58 1828.48 1468.33 Q1828.48 1477.06 1825.4 1481.67 Q1822.34 1486.25 1816.53 1486.25 Q1810.72 1486.25 1807.64 1481.67 Q1804.59 1477.06 1804.59 1468.33 Q1804.59 1459.58 1807.64 1455 Q1810.72 1450.39 1816.53 1450.39 Z" fill="#000000" fill-rule="nonzero" fill-opacity="1" /><path clip-path="url(#clip050)" d="M2261.94 1469.17 Q2258.61 1469.17 2256.69 1470.95 Q2254.79 1472.73 2254.79 1475.86 Q2254.79 1478.98 2256.69 1480.77 Q2258.61 1482.55 2261.94 1482.55 Q2265.27 1482.55 2267.2 1480.77 Q2269.12 1478.96 2269.12 1475.86 Q2269.12 1472.73 2267.2 1470.95 Q2265.3 1469.17 2261.94 1469.17 M2257.27 1467.18 Q2254.26 1466.44 2252.57 1464.38 Q2250.9 1462.32 2250.9 1459.35 Q2250.9 1455.21 2253.84 1452.8 Q2256.8 1450.39 2261.94 1450.39 Q2267.1 1450.39 2270.04 1452.8 Q2272.98 1455.21 2272.98 1459.35 Q2272.98 1462.32 2271.29 1464.38 Q2269.63 1466.44 2266.64 1467.18 Q2270.02 1467.96 2271.89 1470.26 Q2273.79 1472.55 2273.79 1475.86 Q2273.79 1480.88 2270.71 1483.57 Q2267.66 1486.25 2261.94 1486.25 Q2256.22 1486.25 2253.14 1483.57 Q2250.09 1480.88 2250.09 1475.86 Q2250.09 1472.55 2251.99 1470.26 Q2253.89 1467.96 2257.27 1467.18 M2255.55 1459.79 Q2255.55 1462.48 2257.22 1463.98 Q2258.91 1465.49 2261.94 1465.49 Q2264.95 1465.49 2266.64 1463.98 Q2268.35 1462.48 2268.35 1459.79 Q2268.35 1457.11 2266.64 1455.6 Q2264.95 1454.1 2261.94 1454.1 Q2258.91 1454.1 2257.22 1455.6 Q2255.55 1457.11 2255.55 1459.79 Z" fill="#000000" fill-rule="nonzero" fill-opacity="1" /><path clip-path="url(#clip050)" d="M2292.1 1454.1 Q2288.49 1454.1 2286.66 1457.66 Q2284.86 1461.2 2284.86 1468.33 Q2284.86 1475.44 2286.66 1479.01 Q2288.49 1482.55 2292.1 1482.55 Q2295.74 1482.55 2297.54 1479.01 Q2299.37 1475.44 2299.37 1468.33 Q2299.37 1461.2 2297.54 1457.66 Q2295.74 1454.1 2292.1 1454.1 M2292.1 1450.39 Q2297.91 1450.39 2300.97 1455 Q2304.05 1459.58 2304.05 1468.33 Q2304.05 1477.06 2300.97 1481.67 Q2297.91 1486.25 2292.1 1486.25 Q2286.29 1486.25 2283.21 1481.67 Q2280.16 1477.06 2280.16 1468.33 Q2280.16 1459.58 2283.21 1455 Q2286.29 1450.39 2292.1 1450.39 Z" fill="#000000" fill-rule="nonzero" fill-opacity="1" /><path clip-path="url(#clip050)" d="M2322.26 1454.1 Q2318.65 1454.1 2316.83 1457.66 Q2315.02 1461.2 2315.02 1468.33 Q2315.02 1475.44 2316.83 1479.01 Q2318.65 1482.55 2322.26 1482.55 Q2325.9 1482.55 2327.7 1479.01 Q2329.53 1475.44 2329.53 1468.33 Q2329.53 1461.2 2327.7 1457.66 Q2325.9 1454.1 2322.26 1454.1 M2322.26 1450.39 Q2328.08 1450.39 2331.13 1455 Q2334.21 1459.58 2334.21 1468.33 Q2334.21 1477.06 2331.13 1481.67 Q2328.08 1486.25 2322.26 1486.25 Q2316.45 1486.25 2313.38 1481.67 Q2310.32 1477.06 2310.32 1468.33 Q2310.32 1459.58 2313.38 1455 Q2316.45 1450.39 2322.26 1450.39 Z" fill="#000000" fill-rule="nonzero" fill-opacity="1" /><path clip-path="url(#clip050)" d="M900.098 1520.52 L908.755 1520.52 L929.826 1560.28 L929.826 1520.52 L936.064 1520.52 L936.064 1568.04 L927.407 1568.04 L906.336 1528.29 L906.336 1568.04 L900.098 1568.04 L900.098 1520.52 Z" fill="#000000" fill-rule="nonzero" fill-opacity="1" /><path clip-path="url(#clip050)" d="M983.139 1536.5 Q978.428 1536.5 975.691 1540.19 Q972.953 1543.85 972.953 1550.25 Q972.953 1556.65 975.659 1560.34 Q978.396 1564 983.139 1564 Q987.817 1564 990.555 1560.31 Q993.292 1556.62 993.292 1550.25 Q993.292 1543.92 990.555 1540.23 Q987.817 1536.5 983.139 1536.5 M983.139 1531.54 Q990.777 1531.54 995.138 1536.5 Q999.498 1541.47 999.498 1550.25 Q999.498 1559 995.138 1564 Q990.777 1568.97 983.139 1568.97 Q975.468 1568.97 971.107 1564 Q966.779 1559 966.779 1550.25 Q966.779 1541.47 971.107 1536.5 Q975.468 1531.54 983.139 1531.54 Z" fill="#000000" fill-rule="nonzero" fill-opacity="1" /><path clip-path="url(#clip050)" d="M1027.25 1518.52 L1027.25 1523.39 L1021.65 1523.39 Q1018.5 1523.39 1017.26 1524.66 Q1016.05 1525.93 1016.05 1529.24 L1016.05 1532.4 L1025.69 1532.4 L1025.69 1536.95 L1016.05 1536.95 L1016.05 1568.04 L1010.16 1568.04 L1010.16 1536.95 L1004.56 1536.95 L1004.56 1532.4 L1010.16 1532.4 L1010.16 1529.91 Q1010.16 1523.96 1012.93 1521.26 Q1015.7 1518.52 1021.71 1518.52 L1027.25 1518.52 Z" fill="#000000" fill-rule="nonzero" fill-opacity="1" /><path clip-path="url(#clip050)" d="M1052.87 1532.4 L1058.73 1532.4 L1058.73 1568.04 L1052.87 1568.04 L1052.87 1532.4 M1052.87 1518.52 L1058.73 1518.52 L1058.73 1525.93 L1052.87 1525.93 L1052.87 1518.52 Z" fill="#000000" fill-rule="nonzero" fill-opacity="1" /><path clip-path="url(#clip050)" d="M1076.78 1522.27 L1076.78 1532.4 L1088.84 1532.4 L1088.84 1536.95 L1076.78 1536.95 L1076.78 1556.3 Q1076.78 1560.66 1077.96 1561.9 Q1079.17 1563.14 1082.83 1563.14 L1088.84 1563.14 L1088.84 1568.04 L1082.83 1568.04 Q1076.05 1568.04 1073.47 1565.53 Q1070.89 1562.98 1070.89 1556.3 L1070.89 1536.95 L1066.59 1536.95 L1066.59 1532.4 L1070.89 1532.4 L1070.89 1522.27 L1076.78 1522.27 Z" fill="#000000" fill-rule="nonzero" fill-opacity="1" /><path clip-path="url(#clip050)" d="M1127.04 1548.76 L1127.04 1551.62 L1100.11 1551.62 Q1100.49 1557.67 1103.74 1560.85 Q1107.02 1564 1112.84 1564 Q1116.21 1564 1119.36 1563.17 Q1122.55 1562.35 1125.67 1560.69 L1125.67 1566.23 Q1122.52 1567.57 1119.21 1568.27 Q1115.9 1568.97 1112.49 1568.97 Q1103.96 1568.97 1098.96 1564 Q1094 1559.04 1094 1550.57 Q1094 1541.82 1098.71 1536.69 Q1103.45 1531.54 1111.47 1531.54 Q1118.66 1531.54 1122.83 1536.18 Q1127.04 1540.8 1127.04 1548.76 M1121.18 1547.04 Q1121.12 1542.23 1118.47 1539.37 Q1115.86 1536.5 1111.53 1536.5 Q1106.63 1536.5 1103.67 1539.27 Q1100.74 1542.04 1100.3 1547.07 L1121.18 1547.04 Z" fill="#000000" fill-rule="nonzero" fill-opacity="1" /><path clip-path="url(#clip050)" d="M1157.3 1537.87 Q1156.32 1537.3 1155.14 1537.04 Q1153.99 1536.76 1152.59 1536.76 Q1147.63 1536.76 1144.95 1540 Q1142.31 1543.22 1142.31 1549.27 L1142.31 1568.04 L1136.42 1568.04 L1136.42 1532.4 L1142.31 1532.4 L1142.31 1537.93 Q1144.16 1534.69 1147.12 1533.13 Q1150.08 1531.54 1154.31 1531.54 Q1154.92 1531.54 1155.65 1531.63 Q1156.38 1531.7 1157.27 1531.85 L1157.3 1537.87 Z" fill="#000000" fill-rule="nonzero" fill-opacity="1" /><path clip-path="url(#clip050)" d="M1179.65 1550.12 Q1172.55 1550.12 1169.81 1551.75 Q1167.08 1553.37 1167.08 1557.29 Q1167.08 1560.4 1169.11 1562.25 Q1171.18 1564.07 1174.71 1564.07 Q1179.58 1564.07 1182.51 1560.63 Q1185.47 1557.16 1185.47 1551.43 L1185.47 1550.12 L1179.65 1550.12 M1191.33 1547.71 L1191.33 1568.04 L1185.47 1568.04 L1185.47 1562.63 Q1183.47 1565.88 1180.48 1567.44 Q1177.48 1568.97 1173.15 1568.97 Q1167.68 1568.97 1164.43 1565.91 Q1161.22 1562.82 1161.22 1557.67 Q1161.22 1551.65 1165.23 1548.6 Q1169.27 1545.54 1177.26 1545.54 L1185.47 1545.54 L1185.47 1544.97 Q1185.47 1540.93 1182.8 1538.73 Q1180.16 1536.5 1175.35 1536.5 Q1172.3 1536.5 1169.4 1537.23 Q1166.5 1537.97 1163.83 1539.43 L1163.83 1534.02 Q1167.04 1532.78 1170.07 1532.17 Q1173.09 1531.54 1175.96 1531.54 Q1183.69 1531.54 1187.51 1535.55 Q1191.33 1539.56 1191.33 1547.71 Z" fill="#000000" fill-rule="nonzero" fill-opacity="1" /><path clip-path="url(#clip050)" d="M1209.18 1522.27 L1209.18 1532.4 L1221.25 1532.4 L1221.25 1536.95 L1209.18 1536.95 L1209.18 1556.3 Q1209.18 1560.66 1210.36 1561.9 Q1211.57 1563.14 1215.23 1563.14 L1221.25 1563.14 L1221.25 1568.04 L1215.23 1568.04 Q1208.45 1568.04 1205.87 1565.53 Q1203.3 1562.98 1203.3 1556.3 L1203.3 1536.95 L1199 1536.95 L1199 1532.4 L1203.3 1532.4 L1203.3 1522.27 L1209.18 1522.27 Z" fill="#000000" fill-rule="nonzero" fill-opacity="1" /><path clip-path="url(#clip050)" d="M1228.95 1532.4 L1234.81 1532.4 L1234.81 1568.04 L1228.95 1568.04 L1228.95 1532.4 M1228.95 1518.52 L1234.81 1518.52 L1234.81 1525.93 L1228.95 1525.93 L1228.95 1518.52 Z" fill="#000000" fill-rule="nonzero" fill-opacity="1" /><path clip-path="url(#clip050)" d="M1260.87 1536.5 Q1256.16 1536.5 1253.43 1540.19 Q1250.69 1543.85 1250.69 1550.25 Q1250.69 1556.65 1253.39 1560.34 Q1256.13 1564 1260.87 1564 Q1265.55 1564 1268.29 1560.31 Q1271.03 1556.62 1271.03 1550.25 Q1271.03 1543.92 1268.29 1540.23 Q1265.55 1536.5 1260.87 1536.5 M1260.87 1531.54 Q1268.51 1531.54 1272.87 1536.5 Q1277.23 1541.47 1277.23 1550.25 Q1277.23 1559 1272.87 1564 Q1268.51 1568.97 1260.87 1568.97 Q1253.2 1568.97 1248.84 1564 Q1244.51 1559 1244.51 1550.25 Q1244.51 1541.47 1248.84 1536.5 Q1253.2 1531.54 1260.87 1531.54 Z" fill="#000000" fill-rule="nonzero" fill-opacity="1" /><path clip-path="url(#clip050)" d="M1316.57 1546.53 L1316.57 1568.04 L1310.72 1568.04 L1310.72 1546.72 Q1310.72 1541.66 1308.74 1539.14 Q1306.77 1536.63 1302.82 1536.63 Q1298.08 1536.63 1295.34 1539.65 Q1292.61 1542.68 1292.61 1547.9 L1292.61 1568.04 L1286.72 1568.04 L1286.72 1532.4 L1292.61 1532.4 L1292.61 1537.93 Q1294.71 1534.72 1297.54 1533.13 Q1300.41 1531.54 1304.13 1531.54 Q1310.27 1531.54 1313.42 1535.36 Q1316.57 1539.14 1316.57 1546.53 Z" fill="#000000" fill-rule="nonzero" fill-opacity="1" /><path clip-path="url(#clip050)" d="M1350.98 1533.45 L1350.98 1538.98 Q1348.5 1537.71 1345.82 1537.07 Q1343.15 1536.44 1340.29 1536.44 Q1335.93 1536.44 1333.73 1537.77 Q1331.57 1539.11 1331.57 1541.79 Q1331.57 1543.82 1333.13 1545 Q1334.68 1546.15 1339.4 1547.2 L1341.4 1547.64 Q1347.64 1548.98 1350.25 1551.43 Q1352.89 1553.85 1352.89 1558.21 Q1352.89 1563.17 1348.94 1566.07 Q1345.03 1568.97 1338.15 1568.97 Q1335.29 1568.97 1332.17 1568.39 Q1329.08 1567.85 1325.65 1566.74 L1325.65 1560.69 Q1328.89 1562.38 1332.04 1563.24 Q1335.19 1564.07 1338.28 1564.07 Q1342.42 1564.07 1344.65 1562.66 Q1346.87 1561.23 1346.87 1558.65 Q1346.87 1556.27 1345.25 1554.99 Q1343.66 1553.72 1338.22 1552.54 L1336.18 1552.07 Q1330.74 1550.92 1328.32 1548.56 Q1325.9 1546.18 1325.9 1542.04 Q1325.9 1537.01 1329.46 1534.27 Q1333.03 1531.54 1339.59 1531.54 Q1342.83 1531.54 1345.7 1532.01 Q1348.56 1532.49 1350.98 1533.45 Z" fill="#000000" fill-rule="nonzero" fill-opacity="1" /><path clip-path="url(#clip050)" d="M1393.34 1520.52 L1398.76 1520.52 L1382.2 1574.09 L1376.79 1574.09 L1393.34 1520.52 Z" fill="#000000" fill-rule="nonzero" fill-opacity="1" /><path clip-path="url(#clip050)" d="M1427.56 1562.63 L1438.06 1562.63 L1438.06 1526.38 L1426.64 1528.67 L1426.64 1522.82 L1438 1520.52 L1444.43 1520.52 L1444.43 1562.63 L1454.93 1562.63 L1454.93 1568.04 L1427.56 1568.04 L1427.56 1562.63 Z" fill="#000000" fill-rule="nonzero" fill-opacity="1" /><path clip-path="url(#clip050)" d="M1481.67 1524.76 Q1476.7 1524.76 1474.19 1529.66 Q1471.71 1534.53 1471.71 1544.33 Q1471.71 1554.1 1474.19 1559 Q1476.7 1563.87 1481.67 1563.87 Q1486.67 1563.87 1489.15 1559 Q1491.66 1554.1 1491.66 1544.33 Q1491.66 1534.53 1489.15 1529.66 Q1486.67 1524.76 1481.67 1524.76 M1481.67 1519.66 Q1489.66 1519.66 1493.86 1526 Q1498.09 1532.3 1498.09 1544.33 Q1498.09 1556.33 1493.86 1562.66 Q1489.66 1568.97 1481.67 1568.97 Q1473.68 1568.97 1469.45 1562.66 Q1465.25 1556.33 1465.25 1544.33 Q1465.25 1532.3 1469.45 1526 Q1473.68 1519.66 1481.67 1519.66 Z" fill="#000000" fill-rule="nonzero" fill-opacity="1" /><path clip-path="url(#clip050)" d="M1523.14 1524.76 Q1518.18 1524.76 1515.66 1529.66 Q1513.18 1534.53 1513.18 1544.33 Q1513.18 1554.1 1515.66 1559 Q1518.18 1563.87 1523.14 1563.87 Q1528.14 1563.87 1530.62 1559 Q1533.14 1554.1 1533.14 1544.33 Q1533.14 1534.53 1530.62 1529.66 Q1528.14 1524.76 1523.14 1524.76 M1523.14 1519.66 Q1531.13 1519.66 1535.33 1526 Q1539.56 1532.3 1539.56 1544.33 Q1539.56 1556.33 1535.33 1562.66 Q1531.13 1568.97 1523.14 1568.97 Q1515.15 1568.97 1510.92 1562.66 Q1506.72 1556.33 1506.72 1544.33 Q1506.72 1532.3 1510.92 1526 Q1515.15 1519.66 1523.14 1519.66 Z" fill="#000000" fill-rule="nonzero" fill-opacity="1" /><path clip-path="url(#clip050)" d="M1564.61 1524.76 Q1559.65 1524.76 1557.13 1529.66 Q1554.65 1534.53 1554.65 1544.33 Q1554.65 1554.1 1557.13 1559 Q1559.65 1563.87 1564.61 1563.87 Q1569.61 1563.87 1572.09 1559 Q1574.61 1554.1 1574.61 1544.33 Q1574.61 1534.53 1572.09 1529.66 Q1569.61 1524.76 1564.61 1524.76 M1564.61 1519.66 Q1572.6 1519.66 1576.8 1526 Q1581.04 1532.3 1581.04 1544.33 Q1581.04 1556.33 1576.8 1562.66 Q1572.6 1568.97 1564.61 1568.97 Q1556.63 1568.97 1552.39 1562.66 Q1548.19 1556.33 1548.19 1544.33 Q1548.19 1532.3 1552.39 1526 Q1556.63 1519.66 1564.61 1519.66 Z" fill="#000000" fill-rule="nonzero" fill-opacity="1" /><path clip-path="url(#clip050)" d="M1606.09 1524.76 Q1601.12 1524.76 1598.61 1529.66 Q1596.12 1534.53 1596.12 1544.33 Q1596.12 1554.1 1598.61 1559 Q1601.12 1563.87 1606.09 1563.87 Q1611.08 1563.87 1613.57 1559 Q1616.08 1554.1 1616.08 1544.33 Q1616.08 1534.53 1613.57 1529.66 Q1611.08 1524.76 1606.09 1524.76 M1606.09 1519.66 Q1614.08 1519.66 1618.28 1526 Q1622.51 1532.3 1622.51 1544.33 Q1622.51 1556.33 1618.28 1562.66 Q1614.08 1568.97 1606.09 1568.97 Q1598.1 1568.97 1593.86 1562.66 Q1589.66 1556.33 1589.66 1544.33 Q1589.66 1532.3 1593.86 1526 Q1598.1 1519.66 1606.09 1519.66 Z" fill="#000000" fill-rule="nonzero" fill-opacity="1" /><path clip-path="url(#clip050)" d="M1647.56 1524.76 Q1642.59 1524.76 1640.08 1529.66 Q1637.6 1534.53 1637.6 1544.33 Q1637.6 1554.1 1640.08 1559 Q1642.59 1563.87 1647.56 1563.87 Q1652.56 1563.87 1655.04 1559 Q1657.55 1554.1 1657.55 1544.33 Q1657.55 1534.53 1655.04 1529.66 Q1652.56 1524.76 1647.56 1524.76 M1647.56 1519.66 Q1655.55 1519.66 1659.75 1526 Q1663.98 1532.3 1663.98 1544.33 Q1663.98 1556.33 1659.75 1562.66 Q1655.55 1568.97 1647.56 1568.97 Q1639.57 1568.97 1635.34 1562.66 Q1631.14 1556.33 1631.14 1544.33 Q1631.14 1532.3 1635.34 1526 Q1639.57 1519.66 1647.56 1519.66 Z" fill="#000000" fill-rule="nonzero" fill-opacity="1" /><polyline clip-path="url(#clip050)" style="stroke:#000000; stroke-linecap:round; stroke-linejoin:round; stroke-width:4; stroke-opacity:1; fill:none" points="211.325,1423.18 211.325,123.472 "/>
<polyline clip-path="url(#clip050)" style="stroke:#000000; stroke-linecap:round; stroke-linejoin:round; stroke-width:4; stroke-opacity:1; fill:none" points="211.325,1386.4 230.222,1386.4 "/>
<polyline clip-path="url(#clip050)" style="stroke:#000000; stroke-linecap:round; stroke-linejoin:round; stroke-width:4; stroke-opacity:1; fill:none" points="211.325,983.007 230.222,983.007 "/>
<polyline clip-path="url(#clip050)" style="stroke:#000000; stroke-linecap:round; stroke-linejoin:round; stroke-width:4; stroke-opacity:1; fill:none" points="211.325,579.619 230.222,579.619 "/>
<polyline clip-path="url(#clip050)" style="stroke:#000000; stroke-linecap:round; stroke-linejoin:round; stroke-width:4; stroke-opacity:1; fill:none" points="211.325,176.23 230.222,176.23 "/>
<path clip-path="url(#clip050)" d="M114.26 1386.85 L143.936 1386.85 L143.936 1390.78 L114.26 1390.78 L114.26 1386.85 Z" fill="#000000" fill-rule="nonzero" fill-opacity="1" /><path clip-path="url(#clip050)" d="M168.195 1385.04 Q171.552 1385.76 173.427 1388.03 Q175.325 1390.3 175.325 1393.63 Q175.325 1398.75 171.806 1401.55 Q168.288 1404.35 161.806 1404.35 Q159.63 1404.35 157.315 1403.91 Q155.024 1403.49 152.57 1402.63 L152.57 1398.12 Q154.515 1399.25 156.829 1399.83 Q159.144 1400.41 161.667 1400.41 Q166.065 1400.41 168.357 1398.68 Q170.672 1396.94 170.672 1393.63 Q170.672 1390.57 168.519 1388.86 Q166.39 1387.12 162.57 1387.12 L158.542 1387.12 L158.542 1383.28 L162.755 1383.28 Q166.204 1383.28 168.033 1381.92 Q169.862 1380.53 169.862 1377.94 Q169.862 1375.27 167.964 1373.86 Q166.089 1372.43 162.57 1372.43 Q160.649 1372.43 158.45 1372.84 Q156.251 1373.26 153.612 1374.14 L153.612 1369.97 Q156.274 1369.23 158.589 1368.86 Q160.927 1368.49 162.987 1368.49 Q168.311 1368.49 171.413 1370.92 Q174.514 1373.33 174.514 1377.45 Q174.514 1380.32 172.871 1382.31 Q171.227 1384.28 168.195 1385.04 Z" fill="#000000" fill-rule="nonzero" fill-opacity="1" /><path clip-path="url(#clip050)" d="M115.209 983.459 L144.885 983.459 L144.885 987.394 L115.209 987.394 L115.209 983.459 Z" fill="#000000" fill-rule="nonzero" fill-opacity="1" /><path clip-path="url(#clip050)" d="M159.005 996.352 L175.325 996.352 L175.325 1000.29 L153.38 1000.29 L153.38 996.352 Q156.042 993.597 160.626 988.968 Q165.232 984.315 166.413 982.973 Q168.658 980.449 169.538 978.713 Q170.44 976.954 170.44 975.264 Q170.44 972.51 168.496 970.774 Q166.575 969.037 163.473 969.037 Q161.274 969.037 158.82 969.801 Q156.39 970.565 153.612 972.116 L153.612 967.394 Q156.436 966.26 158.89 965.681 Q161.343 965.102 163.38 965.102 Q168.751 965.102 171.945 967.787 Q175.139 970.473 175.139 974.963 Q175.139 977.093 174.329 979.014 Q173.542 980.912 171.436 983.505 Q170.857 984.176 167.755 987.394 Q164.653 990.588 159.005 996.352 Z" fill="#000000" fill-rule="nonzero" fill-opacity="1" /><path clip-path="url(#clip050)" d="M114.839 580.07 L144.515 580.07 L144.515 584.005 L114.839 584.005 L114.839 580.07 Z" fill="#000000" fill-rule="nonzero" fill-opacity="1" /><path clip-path="url(#clip050)" d="M155.417 592.964 L163.056 592.964 L163.056 566.598 L154.746 568.265 L154.746 564.006 L163.01 562.339 L167.686 562.339 L167.686 592.964 L175.325 592.964 L175.325 596.899 L155.417 596.899 L155.417 592.964 Z" fill="#000000" fill-rule="nonzero" fill-opacity="1" /><path clip-path="url(#clip050)" d="M163.38 162.029 Q159.769 162.029 157.94 165.594 Q156.135 169.136 156.135 176.265 Q156.135 183.372 157.94 186.936 Q159.769 190.478 163.38 190.478 Q167.015 190.478 168.82 186.936 Q170.649 183.372 170.649 176.265 Q170.649 169.136 168.82 165.594 Q167.015 162.029 163.38 162.029 M163.38 158.325 Q169.19 158.325 172.246 162.932 Q175.325 167.515 175.325 176.265 Q175.325 184.992 172.246 189.598 Q169.19 194.182 163.38 194.182 Q157.57 194.182 154.491 189.598 Q151.436 184.992 151.436 176.265 Q151.436 167.515 154.491 162.932 Q157.57 158.325 163.38 158.325 Z" fill="#000000" fill-rule="nonzero" fill-opacity="1" /><path clip-path="url(#clip050)" d="M22.818 862 L46.4666 870.721 L46.4666 853.247 L22.818 862 M16.4842 865.629 L16.4842 858.34 L64.0042 840.23 L64.0042 846.914 L51.8138 851.242 L51.8138 872.663 L64.0042 876.992 L64.0042 883.771 L16.4842 865.629 Z" fill="#000000" fill-rule="nonzero" fill-opacity="1" /><path clip-path="url(#clip050)" d="M28.3562 841.566 L28.3562 835.36 L58.275 824.22 L28.3562 813.08 L28.3562 806.873 L64.0042 820.241 L64.0042 828.198 L28.3562 841.566 Z" fill="#000000" fill-rule="nonzero" fill-opacity="1" /><path clip-path="url(#clip050)" d="M55.9197 803.022 L55.9197 796.306 L64.0042 796.306 L64.0042 803.022 L55.9197 803.022 Z" fill="#000000" fill-rule="nonzero" fill-opacity="1" /><path clip-path="url(#clip050)" d="M16.4842 762.154 L16.4842 732.108 L21.895 732.108 L21.895 755.725 L35.9632 755.725 L35.9632 733.095 L41.3741 733.095 L41.3741 755.725 L58.5933 755.725 L58.5933 731.535 L64.0042 731.535 L64.0042 762.154 L16.4842 762.154 Z" fill="#000000" fill-rule="nonzero" fill-opacity="1" /><path clip-path="url(#clip050)" d="M14.5426 707.154 Q21.8632 711.419 29.0246 713.488 Q36.186 715.557 43.5384 715.557 Q50.8908 715.557 58.1159 713.488 Q65.3091 711.388 72.5979 707.154 L72.5979 712.247 Q65.1182 717.021 57.8931 719.408 Q50.668 721.764 43.5384 721.764 Q36.4406 721.764 29.2474 719.408 Q22.0542 717.053 14.5426 712.247 L14.5426 707.154 Z" fill="#000000" fill-rule="nonzero" fill-opacity="1" /><path clip-path="url(#clip050)" d="M16.4842 695.537 L16.4842 689.108 L60.694 689.108 Q69.2877 689.108 73.1708 692.386 Q77.0539 695.633 77.0539 702.858 L77.0539 705.308 L71.643 705.308 L71.643 703.303 Q71.643 699.038 69.2559 697.288 Q66.8687 695.537 60.694 695.537 L16.4842 695.537 Z" fill="#000000" fill-rule="nonzero" fill-opacity="1" /><path clip-path="url(#clip050)" d="M14.5426 677.49 L14.5426 672.398 Q22.0542 667.623 29.2474 665.268 Q36.4406 662.881 43.5384 662.881 Q50.668 662.881 57.8931 665.268 Q65.1182 667.623 72.5979 672.398 L72.5979 677.49 Q65.3091 673.257 58.1159 671.188 Q50.8908 669.088 43.5384 669.088 Q36.186 669.088 29.0246 671.188 Q21.8632 673.257 14.5426 677.49 Z" fill="#000000" fill-rule="nonzero" fill-opacity="1" /><path clip-path="url(#clip050)" d="M577.507 20.1573 L566.408 50.2555 L588.647 50.2555 L577.507 20.1573 M572.889 12.096 L582.166 12.096 L605.215 72.576 L596.708 72.576 L591.199 57.061 L563.936 57.061 L558.427 72.576 L549.799 72.576 L572.889 12.096 Z" fill="#000000" fill-rule="nonzero" fill-opacity="1" /><path clip-path="url(#clip050)" d="M603.514 27.2059 L611.413 27.2059 L625.591 65.2844 L639.769 27.2059 L647.669 27.2059 L630.655 72.576 L620.528 72.576 L603.514 27.2059 Z" fill="#000000" fill-rule="nonzero" fill-opacity="1" /><path clip-path="url(#clip050)" d="M696.766 48.0275 L696.766 51.6733 L662.495 51.6733 Q662.981 59.3701 667.113 63.421 Q671.285 67.4314 678.699 67.4314 Q682.993 67.4314 687.003 66.3781 Q691.054 65.3249 695.024 63.2184 L695.024 70.267 Q691.013 71.9684 686.8 72.8596 Q682.587 73.7508 678.253 73.7508 Q667.397 73.7508 661.037 67.4314 Q654.717 61.1119 654.717 50.3365 Q654.717 39.1965 660.713 32.6746 Q666.748 26.1121 676.957 26.1121 Q686.112 26.1121 691.418 32.0264 Q696.766 37.9003 696.766 48.0275 M689.312 45.84 Q689.231 39.7232 685.869 36.0774 Q682.547 32.4315 677.038 32.4315 Q670.799 32.4315 667.032 35.9558 Q663.305 39.4801 662.738 45.8805 L689.312 45.84 Z" fill="#000000" fill-rule="nonzero" fill-opacity="1" /><path clip-path="url(#clip050)" d="M735.29 34.1734 Q734.034 33.4443 732.535 33.1202 Q731.077 32.7556 729.294 32.7556 Q722.975 32.7556 719.572 36.8875 Q716.21 40.9789 716.21 48.6757 L716.21 72.576 L708.716 72.576 L708.716 27.2059 L716.21 27.2059 L716.21 34.2544 Q718.559 30.1225 722.327 28.1376 Q726.094 26.1121 731.482 26.1121 Q732.252 26.1121 733.183 26.2337 Q734.115 26.3147 735.249 26.5172 L735.29 34.1734 Z" fill="#000000" fill-rule="nonzero" fill-opacity="1" /><path clip-path="url(#clip050)" d="M763.727 49.7694 Q754.694 49.7694 751.21 51.8354 Q747.726 53.9013 747.726 58.8839 Q747.726 62.8538 750.319 65.2034 Q752.952 67.5124 757.448 67.5124 Q763.646 67.5124 767.373 63.1374 Q771.14 58.7219 771.14 51.4303 L771.14 49.7694 L763.727 49.7694 M778.594 46.6907 L778.594 72.576 L771.14 72.576 L771.14 65.6895 Q768.588 69.8214 764.78 71.8063 Q760.972 73.7508 755.463 73.7508 Q748.496 73.7508 744.364 69.8619 Q740.272 65.9325 740.272 59.3701 Q740.272 51.7138 745.376 47.825 Q750.521 43.9361 760.689 43.9361 L771.14 43.9361 L771.14 43.2069 Q771.14 38.0623 767.737 35.2672 Q764.375 32.4315 758.258 32.4315 Q754.369 32.4315 750.683 33.3632 Q746.997 34.295 743.594 36.1584 L743.594 29.2718 Q747.685 27.692 751.534 26.9223 Q755.382 26.1121 759.028 26.1121 Q768.872 26.1121 773.733 31.2163 Q778.594 36.3204 778.594 46.6907 Z" fill="#000000" fill-rule="nonzero" fill-opacity="1" /><path clip-path="url(#clip050)" d="M823.802 49.3643 Q823.802 41.2625 820.44 36.8065 Q817.118 32.3505 811.082 32.3505 Q805.087 32.3505 801.725 36.8065 Q798.403 41.2625 798.403 49.3643 Q798.403 57.4256 801.725 61.8816 Q805.087 66.3376 811.082 66.3376 Q817.118 66.3376 820.44 61.8816 Q823.802 57.4256 823.802 49.3643 M831.256 66.9452 Q831.256 78.5308 826.111 84.1616 Q820.966 89.8329 810.353 89.8329 Q806.424 89.8329 802.94 89.2252 Q799.456 88.6581 796.175 87.4428 L796.175 80.1917 Q799.456 81.9741 802.656 82.8248 Q805.856 83.6755 809.178 83.6755 Q816.51 83.6755 820.156 79.8271 Q823.802 76.0193 823.802 68.282 L823.802 64.5957 Q821.493 68.6061 817.888 70.5911 Q814.282 72.576 809.259 72.576 Q800.914 72.576 795.81 66.2161 Q790.706 59.8562 790.706 49.3643 Q790.706 38.832 795.81 32.472 Q800.914 26.1121 809.259 26.1121 Q814.282 26.1121 817.888 28.0971 Q821.493 30.082 823.802 34.0924 L823.802 27.2059 L831.256 27.2059 L831.256 66.9452 Z" fill="#000000" fill-rule="nonzero" fill-opacity="1" /><path clip-path="url(#clip050)" d="M885.416 48.0275 L885.416 51.6733 L851.146 51.6733 Q851.632 59.3701 855.764 63.421 Q859.936 67.4314 867.349 67.4314 Q871.643 67.4314 875.654 66.3781 Q879.704 65.3249 883.674 63.2184 L883.674 70.267 Q879.664 71.9684 875.451 72.8596 Q871.238 73.7508 866.904 73.7508 Q856.047 73.7508 849.687 67.4314 Q843.368 61.1119 843.368 50.3365 Q843.368 39.1965 849.363 32.6746 Q855.399 26.1121 865.607 26.1121 Q874.762 26.1121 880.069 32.0264 Q885.416 37.9003 885.416 48.0275 M877.963 45.84 Q877.882 39.7232 874.519 36.0774 Q871.198 32.4315 865.688 32.4315 Q859.45 32.4315 855.683 35.9558 Q851.956 39.4801 851.389 45.8805 L877.963 45.84 Z" fill="#000000" fill-rule="nonzero" fill-opacity="1" /><path clip-path="url(#clip050)" d="M924.345 12.096 L962.586 12.096 L962.586 18.9825 L932.528 18.9825 L932.528 36.8875 L961.33 36.8875 L961.33 43.7741 L932.528 43.7741 L932.528 65.6895 L963.315 65.6895 L963.315 72.576 L924.345 72.576 L924.345 12.096 Z" fill="#000000" fill-rule="nonzero" fill-opacity="1" /><path clip-path="url(#clip050)" d="M1014.15 45.1919 L1014.15 72.576 L1006.7 72.576 L1006.7 45.4349 Q1006.7 38.994 1004.19 35.7938 Q1001.68 32.5936 996.654 32.5936 Q990.618 32.5936 987.134 36.4419 Q983.651 40.2903 983.651 46.9338 L983.651 72.576 L976.156 72.576 L976.156 27.2059 L983.651 27.2059 L983.651 34.2544 Q986.324 30.163 989.93 28.1376 Q993.575 26.1121 998.315 26.1121 Q1006.13 26.1121 1010.14 30.9732 Q1014.15 35.7938 1014.15 45.1919 Z" fill="#000000" fill-rule="nonzero" fill-opacity="1" /><path clip-path="url(#clip050)" d="M1067.83 48.0275 L1067.83 51.6733 L1033.56 51.6733 Q1034.04 59.3701 1038.18 63.421 Q1042.35 67.4314 1049.76 67.4314 Q1054.06 67.4314 1058.07 66.3781 Q1062.12 65.3249 1066.09 63.2184 L1066.09 70.267 Q1062.08 71.9684 1057.86 72.8596 Q1053.65 73.7508 1049.32 73.7508 Q1038.46 73.7508 1032.1 67.4314 Q1025.78 61.1119 1025.78 50.3365 Q1025.78 39.1965 1031.78 32.6746 Q1037.81 26.1121 1048.02 26.1121 Q1057.17 26.1121 1062.48 32.0264 Q1067.83 37.9003 1067.83 48.0275 M1060.37 45.84 Q1060.29 39.7232 1056.93 36.0774 Q1053.61 32.4315 1048.1 32.4315 Q1041.86 32.4315 1038.09 35.9558 Q1034.37 39.4801 1033.8 45.8805 L1060.37 45.84 Z" fill="#000000" fill-rule="nonzero" fill-opacity="1" /><path clip-path="url(#clip050)" d="M1106.35 34.1734 Q1105.1 33.4443 1103.6 33.1202 Q1102.14 32.7556 1100.36 32.7556 Q1094.04 32.7556 1090.64 36.8875 Q1087.27 40.9789 1087.27 48.6757 L1087.27 72.576 L1079.78 72.576 L1079.78 27.2059 L1087.27 27.2059 L1087.27 34.2544 Q1089.62 30.1225 1093.39 28.1376 Q1097.16 26.1121 1102.54 26.1121 Q1103.31 26.1121 1104.25 26.2337 Q1105.18 26.3147 1106.31 26.5172 L1106.35 34.1734 Z" fill="#000000" fill-rule="nonzero" fill-opacity="1" /><path clip-path="url(#clip050)" d="M1142.57 49.3643 Q1142.57 41.2625 1139.21 36.8065 Q1135.88 32.3505 1129.85 32.3505 Q1123.85 32.3505 1120.49 36.8065 Q1117.17 41.2625 1117.17 49.3643 Q1117.17 57.4256 1120.49 61.8816 Q1123.85 66.3376 1129.85 66.3376 Q1135.88 66.3376 1139.21 61.8816 Q1142.57 57.4256 1142.57 49.3643 M1150.02 66.9452 Q1150.02 78.5308 1144.88 84.1616 Q1139.73 89.8329 1129.12 89.8329 Q1125.19 89.8329 1121.71 89.2252 Q1118.22 88.6581 1114.94 87.4428 L1114.94 80.1917 Q1118.22 81.9741 1121.42 82.8248 Q1124.62 83.6755 1127.94 83.6755 Q1135.28 83.6755 1138.92 79.8271 Q1142.57 76.0193 1142.57 68.282 L1142.57 64.5957 Q1140.26 68.6061 1136.65 70.5911 Q1133.05 72.576 1128.02 72.576 Q1119.68 72.576 1114.58 66.2161 Q1109.47 59.8562 1109.47 49.3643 Q1109.47 38.832 1114.58 32.472 Q1119.68 26.1121 1128.02 26.1121 Q1133.05 26.1121 1136.65 28.0971 Q1140.26 30.082 1142.57 34.0924 L1142.57 27.2059 L1150.02 27.2059 L1150.02 66.9452 Z" fill="#000000" fill-rule="nonzero" fill-opacity="1" /><path clip-path="url(#clip050)" d="M1184.25 76.7889 Q1181.09 84.8907 1178.09 87.3618 Q1175.1 89.8329 1170.07 89.8329 L1164.12 89.8329 L1164.12 83.5945 L1168.49 83.5945 Q1171.57 83.5945 1173.27 82.1361 Q1174.97 80.6778 1177.04 75.2496 L1178.38 71.8468 L1160.03 27.2059 L1167.93 27.2059 L1182.1 62.6918 L1196.28 27.2059 L1204.18 27.2059 L1184.25 76.7889 Z" fill="#000000" fill-rule="nonzero" fill-opacity="1" /><path clip-path="url(#clip050)" d="M1258.42 32.4315 Q1252.43 32.4315 1248.94 37.1306 Q1245.46 41.7891 1245.46 49.9314 Q1245.46 58.0738 1248.9 62.7728 Q1252.39 67.4314 1258.42 67.4314 Q1264.38 67.4314 1267.86 62.7323 Q1271.35 58.0333 1271.35 49.9314 Q1271.35 41.8701 1267.86 37.1711 Q1264.38 32.4315 1258.42 32.4315 M1258.42 26.1121 Q1268.15 26.1121 1273.7 32.4315 Q1279.25 38.7509 1279.25 49.9314 Q1279.25 61.0714 1273.7 67.4314 Q1268.15 73.7508 1258.42 73.7508 Q1248.66 73.7508 1243.11 67.4314 Q1237.6 61.0714 1237.6 49.9314 Q1237.6 38.7509 1243.11 32.4315 Q1248.66 26.1121 1258.42 26.1121 Z" fill="#000000" fill-rule="nonzero" fill-opacity="1" /><path clip-path="url(#clip050)" d="M1286.25 27.2059 L1294.15 27.2059 L1308.33 65.2844 L1322.51 27.2059 L1330.41 27.2059 L1313.39 72.576 L1303.27 72.576 L1286.25 27.2059 Z" fill="#000000" fill-rule="nonzero" fill-opacity="1" /><path clip-path="url(#clip050)" d="M1379.51 48.0275 L1379.51 51.6733 L1345.23 51.6733 Q1345.72 59.3701 1349.85 63.421 Q1354.02 67.4314 1361.44 67.4314 Q1365.73 67.4314 1369.74 66.3781 Q1373.79 65.3249 1377.76 63.2184 L1377.76 70.267 Q1373.75 71.9684 1369.54 72.8596 Q1365.33 73.7508 1360.99 73.7508 Q1350.14 73.7508 1343.78 67.4314 Q1337.46 61.1119 1337.46 50.3365 Q1337.46 39.1965 1343.45 32.6746 Q1349.49 26.1121 1359.7 26.1121 Q1368.85 26.1121 1374.16 32.0264 Q1379.51 37.9003 1379.51 48.0275 M1372.05 45.84 Q1371.97 39.7232 1368.61 36.0774 Q1365.29 32.4315 1359.78 32.4315 Q1353.54 32.4315 1349.77 35.9558 Q1346.04 39.4801 1345.48 45.8805 L1372.05 45.84 Z" fill="#000000" fill-rule="nonzero" fill-opacity="1" /><path clip-path="url(#clip050)" d="M1418.03 34.1734 Q1416.77 33.4443 1415.27 33.1202 Q1413.82 32.7556 1412.03 32.7556 Q1405.71 32.7556 1402.31 36.8875 Q1398.95 40.9789 1398.95 48.6757 L1398.95 72.576 L1391.46 72.576 L1391.46 27.2059 L1398.95 27.2059 L1398.95 34.2544 Q1401.3 30.1225 1405.07 28.1376 Q1408.83 26.1121 1414.22 26.1121 Q1414.99 26.1121 1415.92 26.2337 Q1416.85 26.3147 1417.99 26.5172 L1418.03 34.1734 Z" fill="#000000" fill-rule="nonzero" fill-opacity="1" /><path clip-path="url(#clip050)" d="M1491.03 48.0275 L1491.03 51.6733 L1456.76 51.6733 Q1457.24 59.3701 1461.37 63.421 Q1465.55 67.4314 1472.96 67.4314 Q1477.25 67.4314 1481.26 66.3781 Q1485.31 65.3249 1489.28 63.2184 L1489.28 70.267 Q1485.27 71.9684 1481.06 72.8596 Q1476.85 73.7508 1472.51 73.7508 Q1461.66 73.7508 1455.3 67.4314 Q1448.98 61.1119 1448.98 50.3365 Q1448.98 39.1965 1454.97 32.6746 Q1461.01 26.1121 1471.22 26.1121 Q1480.37 26.1121 1485.68 32.0264 Q1491.03 37.9003 1491.03 48.0275 M1483.57 45.84 Q1483.49 39.7232 1480.13 36.0774 Q1476.81 32.4315 1471.3 32.4315 Q1465.06 32.4315 1461.29 35.9558 Q1457.57 39.4801 1457 45.8805 L1483.57 45.84 Z" fill="#000000" fill-rule="nonzero" fill-opacity="1" /><path clip-path="url(#clip050)" d="M1523.88 49.7694 Q1514.85 49.7694 1511.36 51.8354 Q1507.88 53.9013 1507.88 58.8839 Q1507.88 62.8538 1510.47 65.2034 Q1513.1 67.5124 1517.6 67.5124 Q1523.8 67.5124 1527.53 63.1374 Q1531.29 58.7219 1531.29 51.4303 L1531.29 49.7694 L1523.88 49.7694 M1538.75 46.6907 L1538.75 72.576 L1531.29 72.576 L1531.29 65.6895 Q1528.74 69.8214 1524.93 71.8063 Q1521.12 73.7508 1515.62 73.7508 Q1508.65 73.7508 1504.52 69.8619 Q1500.42 65.9325 1500.42 59.3701 Q1500.42 51.7138 1505.53 47.825 Q1510.67 43.9361 1520.84 43.9361 L1531.29 43.9361 L1531.29 43.2069 Q1531.29 38.0623 1527.89 35.2672 Q1524.53 32.4315 1518.41 32.4315 Q1514.52 32.4315 1510.84 33.3632 Q1507.15 34.295 1503.75 36.1584 L1503.75 29.2718 Q1507.84 27.692 1511.69 26.9223 Q1515.53 26.1121 1519.18 26.1121 Q1529.02 26.1121 1533.88 31.2163 Q1538.75 36.3204 1538.75 46.6907 Z" fill="#000000" fill-rule="nonzero" fill-opacity="1" /><path clip-path="url(#clip050)" d="M1586.75 28.9478 L1586.75 35.9153 Q1583.59 34.1734 1580.39 33.3227 Q1577.23 32.4315 1573.99 32.4315 Q1566.74 32.4315 1562.73 37.0496 Q1558.72 41.6271 1558.72 49.9314 Q1558.72 58.2358 1562.73 62.8538 Q1566.74 67.4314 1573.99 67.4314 Q1577.23 67.4314 1580.39 66.5807 Q1583.59 65.6895 1586.75 63.9476 L1586.75 70.8341 Q1583.63 72.2924 1580.27 73.0216 Q1576.95 73.7508 1573.18 73.7508 Q1562.93 73.7508 1556.89 67.3098 Q1550.86 60.8689 1550.86 49.9314 Q1550.86 38.832 1556.93 32.472 Q1563.05 26.1121 1573.66 26.1121 Q1577.11 26.1121 1580.39 26.8413 Q1583.67 27.5299 1586.75 28.9478 Z" fill="#000000" fill-rule="nonzero" fill-opacity="1" /><path clip-path="url(#clip050)" d="M1637.43 45.1919 L1637.43 72.576 L1629.97 72.576 L1629.97 45.4349 Q1629.97 38.994 1627.46 35.7938 Q1624.95 32.5936 1619.93 32.5936 Q1613.89 32.5936 1610.41 36.4419 Q1606.92 40.2903 1606.92 46.9338 L1606.92 72.576 L1599.43 72.576 L1599.43 9.54393 L1606.92 9.54393 L1606.92 34.2544 Q1609.6 30.163 1613.2 28.1376 Q1616.85 26.1121 1621.59 26.1121 Q1629.41 26.1121 1633.42 30.9732 Q1637.43 35.7938 1637.43 45.1919 Z" fill="#000000" fill-rule="nonzero" fill-opacity="1" /><path clip-path="url(#clip050)" d="M1678.66 27.2059 L1686.12 27.2059 L1686.12 72.576 L1678.66 72.576 L1678.66 27.2059 M1678.66 9.54393 L1686.12 9.54393 L1686.12 18.9825 L1678.66 18.9825 L1678.66 9.54393 Z" fill="#000000" fill-rule="nonzero" fill-opacity="1" /><path clip-path="url(#clip050)" d="M1709.09 14.324 L1709.09 27.2059 L1724.44 27.2059 L1724.44 32.9987 L1709.09 32.9987 L1709.09 57.6282 Q1709.09 63.1779 1710.59 64.7578 Q1712.12 66.3376 1716.78 66.3376 L1724.44 66.3376 L1724.44 72.576 L1716.78 72.576 Q1708.15 72.576 1704.87 69.3758 Q1701.59 66.1351 1701.59 57.6282 L1701.59 32.9987 L1696.12 32.9987 L1696.12 27.2059 L1701.59 27.2059 L1701.59 14.324 L1709.09 14.324 Z" fill="#000000" fill-rule="nonzero" fill-opacity="1" /><path clip-path="url(#clip050)" d="M1773.05 48.0275 L1773.05 51.6733 L1738.78 51.6733 Q1739.27 59.3701 1743.4 63.421 Q1747.57 67.4314 1754.98 67.4314 Q1759.28 67.4314 1763.29 66.3781 Q1767.34 65.3249 1771.31 63.2184 L1771.31 70.267 Q1767.3 71.9684 1763.09 72.8596 Q1758.87 73.7508 1754.54 73.7508 Q1743.68 73.7508 1737.32 67.4314 Q1731 61.1119 1731 50.3365 Q1731 39.1965 1737 32.6746 Q1743.03 26.1121 1753.24 26.1121 Q1762.4 26.1121 1767.7 32.0264 Q1773.05 37.9003 1773.05 48.0275 M1765.6 45.84 Q1765.52 39.7232 1762.15 36.0774 Q1758.83 32.4315 1753.32 32.4315 Q1747.08 32.4315 1743.32 35.9558 Q1739.59 39.4801 1739.02 45.8805 L1765.6 45.84 Z" fill="#000000" fill-rule="nonzero" fill-opacity="1" /><path clip-path="url(#clip050)" d="M1811.57 34.1734 Q1810.32 33.4443 1808.82 33.1202 Q1807.36 32.7556 1805.58 32.7556 Q1799.26 32.7556 1795.86 36.8875 Q1792.49 40.9789 1792.49 48.6757 L1792.49 72.576 L1785 72.576 L1785 27.2059 L1792.49 27.2059 L1792.49 34.2544 Q1794.84 30.1225 1798.61 28.1376 Q1802.38 26.1121 1807.77 26.1121 Q1808.54 26.1121 1809.47 26.2337 Q1810.4 26.3147 1811.53 26.5172 L1811.57 34.1734 Z" fill="#000000" fill-rule="nonzero" fill-opacity="1" /><path clip-path="url(#clip050)" d="M1840.01 49.7694 Q1830.98 49.7694 1827.49 51.8354 Q1824.01 53.9013 1824.01 58.8839 Q1824.01 62.8538 1826.6 65.2034 Q1829.24 67.5124 1833.73 67.5124 Q1839.93 67.5124 1843.66 63.1374 Q1847.42 58.7219 1847.42 51.4303 L1847.42 49.7694 L1840.01 49.7694 M1854.88 46.6907 L1854.88 72.576 L1847.42 72.576 L1847.42 65.6895 Q1844.87 69.8214 1841.07 71.8063 Q1837.26 73.7508 1831.75 73.7508 Q1824.78 73.7508 1820.65 69.8619 Q1816.56 65.9325 1816.56 59.3701 Q1816.56 51.7138 1821.66 47.825 Q1826.81 43.9361 1836.97 43.9361 L1847.42 43.9361 L1847.42 43.2069 Q1847.42 38.0623 1844.02 35.2672 Q1840.66 32.4315 1834.54 32.4315 Q1830.65 32.4315 1826.97 33.3632 Q1823.28 34.295 1819.88 36.1584 L1819.88 29.2718 Q1823.97 27.692 1827.82 26.9223 Q1831.67 26.1121 1835.31 26.1121 Q1845.16 26.1121 1850.02 31.2163 Q1854.88 36.3204 1854.88 46.6907 Z" fill="#000000" fill-rule="nonzero" fill-opacity="1" /><path clip-path="url(#clip050)" d="M1877.6 14.324 L1877.6 27.2059 L1892.96 27.2059 L1892.96 32.9987 L1877.6 32.9987 L1877.6 57.6282 Q1877.6 63.1779 1879.1 64.7578 Q1880.64 66.3376 1885.3 66.3376 L1892.96 66.3376 L1892.96 72.576 L1885.3 72.576 Q1876.67 72.576 1873.39 69.3758 Q1870.11 66.1351 1870.11 57.6282 L1870.11 32.9987 L1864.64 32.9987 L1864.64 27.2059 L1870.11 27.2059 L1870.11 14.324 L1877.6 14.324 Z" fill="#000000" fill-rule="nonzero" fill-opacity="1" /><path clip-path="url(#clip050)" d="M1902.76 27.2059 L1910.21 27.2059 L1910.21 72.576 L1902.76 72.576 L1902.76 27.2059 M1902.76 9.54393 L1910.21 9.54393 L1910.21 18.9825 L1902.76 18.9825 L1902.76 9.54393 Z" fill="#000000" fill-rule="nonzero" fill-opacity="1" /><path clip-path="url(#clip050)" d="M1943.39 32.4315 Q1937.4 32.4315 1933.91 37.1306 Q1930.43 41.7891 1930.43 49.9314 Q1930.43 58.0738 1933.87 62.7728 Q1937.36 67.4314 1943.39 67.4314 Q1949.35 67.4314 1952.83 62.7323 Q1956.31 58.0333 1956.31 49.9314 Q1956.31 41.8701 1952.83 37.1711 Q1949.35 32.4315 1943.39 32.4315 M1943.39 26.1121 Q1953.11 26.1121 1958.66 32.4315 Q1964.21 38.7509 1964.21 49.9314 Q1964.21 61.0714 1958.66 67.4314 Q1953.11 73.7508 1943.39 73.7508 Q1933.63 73.7508 1928.08 67.4314 Q1922.57 61.0714 1922.57 49.9314 Q1922.57 38.7509 1928.08 32.4315 Q1933.63 26.1121 1943.39 26.1121 Z" fill="#000000" fill-rule="nonzero" fill-opacity="1" /><path clip-path="url(#clip050)" d="M2014.28 45.1919 L2014.28 72.576 L2006.83 72.576 L2006.83 45.4349 Q2006.83 38.994 2004.32 35.7938 Q2001.8 32.5936 1996.78 32.5936 Q1990.75 32.5936 1987.26 36.4419 Q1983.78 40.2903 1983.78 46.9338 L1983.78 72.576 L1976.28 72.576 L1976.28 27.2059 L1983.78 27.2059 L1983.78 34.2544 Q1986.45 30.163 1990.06 28.1376 Q1993.7 26.1121 1998.44 26.1121 Q2006.26 26.1121 2010.27 30.9732 Q2014.28 35.7938 2014.28 45.1919 Z" fill="#000000" fill-rule="nonzero" fill-opacity="1" /><polyline clip-path="url(#clip052)" style="stroke:#009af9; stroke-linecap:round; stroke-linejoin:round; stroke-width:4; stroke-opacity:1; fill:none" points="271.931,198.013 274.46,195.109 276.988,202.128 279.516,201.16 282.045,203.096 284.573,194.141 287.102,201.402 289.63,187.606 292.159,189.542 294.687,182.765 297.216,172.358 299.744,173.568 302.272,173.568 304.801,176.473 307.329,160.256 309.858,163.161 312.386,172.842 314.915,182.281 317.443,174.052 319.971,176.23 322.5,179.861 325.028,198.255 327.557,202.37 330.085,194.625 332.614,199.466 335.142,221.007 337.67,222.943 340.199,231.414 342.727,236.981 345.256,236.255 347.784,234.802 350.313,230.688 352.841,224.637 355.369,231.172 357.898,227.057 360.426,234.802 362.955,245.694 365.483,256.101 368.012,278.368 370.54,298.215 373.069,309.591 375.597,319.514 378.125,332.826 380.654,342.265 383.182,362.596 385.711,369.615 388.239,385.831 390.768,412.455 393.296,428.913 395.824,449.002 398.353,467.396 400.881,479.74 403.41,495.23 405.938,502.491 408.467,521.612 410.995,542.669 413.523,562.999 416.052,579.215 418.58,599.788 421.109,619.635 423.637,638.03 426.166,661.749 428.694,672.398 431.222,689.825 433.751,715.48 436.279,731.696 438.808,746.702 441.336,756.626 443.865,767.033 446.393,776.472 448.922,791.236 451.45,807.211 453.978,829.962 456.507,835.771 459.035,845.694 461.564,858.764 464.092,872.075 466.621,883.451 469.149,897.731 471.677,900.151 474.206,913.221 476.734,929.437 479.263,941.781 481.791,945.411 484.32,963.08 486.848,982.685 489.376,988.493 491.905,995.754 494.433,1011.97 496.962,1022.38 499.49,1032.79 502.019,1044.16 504.547,1055.05 507.075,1068.36 509.604,1077.8 512.132,1087.24 514.661,1093.78 517.189,1107.82 519.718,1118.95 522.246,1120.4 524.775,1129.6 527.303,1144.36 529.831,1146.78 532.36,1160.82 534.888,1177.28 537.417,1189.86 539.945,1203.66 542.474,1214.55 545.002,1223.99 547.53,1230.77 550.059,1246.26 552.587,1248.19 555.116,1259.09 557.644,1268.77 560.173,1270.22 562.701,1280.14 565.229,1288.61 567.758,1301.2 570.286,1313.3 572.815,1315.72 575.343,1320.56 577.872,1332.42 580.4,1340.41 582.928,1347.19 585.457,1357.84 587.985,1362.68 590.514,1369.94 593.042,1376.96 595.571,1382.77 598.099,1386.4 600.628,1386.4 603.156,1386.4 605.684,1386.4 608.213,1386.4 610.741,1386.4 613.27,1386.4 615.798,1386.4 618.327,1386.4 620.855,1386.4 623.383,1386.4 625.912,1386.4 628.44,1386.4 630.969,1386.4 633.497,1386.4 636.026,1386.4 638.554,1386.4 641.082,1386.4 643.611,1386.4 646.139,1386.4 648.668,1386.4 651.196,1386.4 653.725,1386.4 656.253,1386.4 658.781,1386.4 661.31,1386.4 663.838,1386.4 666.367,1386.4 668.895,1386.4 671.424,1386.4 673.952,1386.4 676.481,1386.4 679.009,1386.4 681.537,1386.4 684.066,1386.4 686.594,1386.4 689.123,1386.4 691.651,1386.4 694.18,1386.4 696.708,1386.4 699.236,1386.4 701.765,1386.4 704.293,1386.4 706.822,1386.4 709.35,1386.4 711.879,1386.4 714.407,1386.4 716.935,1386.4 719.464,1386.4 721.992,1386.4 724.521,1386.4 727.049,1386.4 729.578,1386.4 732.106,1386.4 734.634,1386.4 737.163,1386.4 739.691,1386.4 742.22,1386.4 744.748,1386.4 747.277,1386.4 749.805,1386.4 752.334,1386.4 754.862,1386.4 757.39,1386.4 759.919,1386.4 762.447,1386.4 764.976,1386.4 767.504,1386.4 770.033,1386.4 772.561,1386.4 775.089,1386.4 777.618,1386.4 780.146,1386.4 782.675,1386.4 785.203,1386.4 787.732,1386.4 790.26,1386.4 792.788,1386.4 795.317,1386.4 797.845,1386.4 800.374,1386.4 802.902,1386.4 805.431,1386.4 807.959,1386.4 810.487,1386.4 813.016,1386.4 815.544,1386.4 818.073,1386.4 820.601,1386.4 823.13,1386.4 825.658,1386.4 828.187,1386.4 830.715,1386.4 833.243,1386.4 835.772,1386.4 838.3,1386.4 840.829,1386.4 843.357,1386.4 845.886,1386.4 848.414,1386.4 850.942,1386.4 853.471,1386.4 855.999,1386.4 858.528,1386.4 861.056,1386.4 863.585,1386.4 866.113,1386.4 868.641,1386.4 871.17,1386.4 873.698,1386.4 876.227,1386.4 878.755,1386.4 881.284,1386.4 883.812,1386.4 886.34,1386.4 888.869,1386.4 891.397,1386.4 893.926,1386.4 896.454,1386.4 898.983,1386.4 901.511,1386.4 904.04,1386.4 906.568,1386.4 909.096,1386.4 911.625,1386.4 914.153,1386.4 916.682,1386.4 919.21,1386.4 921.739,1386.4 924.267,1386.4 926.795,1386.4 929.324,1386.4 931.852,1386.4 934.381,1386.4 936.909,1386.4 939.438,1386.4 941.966,1386.4 944.494,1386.4 947.023,1386.4 949.551,1386.4 952.08,1386.4 954.608,1386.4 957.137,1386.4 959.665,1386.4 962.193,1386.4 964.722,1386.4 967.25,1386.4 969.779,1386.4 972.307,1386.4 974.836,1386.4 977.364,1386.4 979.893,1386.4 982.421,1386.4 984.949,1386.4 987.478,1386.4 990.006,1386.4 992.535,1386.4 995.063,1386.4 997.592,1386.4 1000.12,1386.4 1002.65,1386.4 1005.18,1386.4 1007.71,1386.4 1010.23,1386.4 1012.76,1386.4 1015.29,1386.4 1017.82,1386.4 1020.35,1386.4 1022.88,1386.4 1025.4,1386.4 1027.93,1386.4 1030.46,1386.4 1032.99,1386.4 1035.52,1386.4 1038.05,1386.4 1040.57,1386.4 1043.1,1386.4 1045.63,1386.4 1048.16,1386.4 1050.69,1386.4 1053.22,1386.4 1055.75,1386.4 1058.27,1386.4 1060.8,1386.4 1063.33,1386.4 1065.86,1386.4 1068.39,1386.4 1070.92,1386.4 1073.44,1386.4 1075.97,1386.4 1078.5,1386.4 1081.03,1386.4 1083.56,1386.4 1086.09,1386.4 1088.62,1386.4 1091.14,1386.4 1093.67,1386.4 1096.2,1386.4 1098.73,1386.4 1101.26,1386.4 1103.79,1386.4 1106.31,1386.4 1108.84,1386.4 1111.37,1386.4 1113.9,1386.4 1116.43,1386.4 1118.96,1386.4 1121.48,1386.4 1124.01,1386.4 1126.54,1386.4 1129.07,1386.4 1131.6,1386.4 1134.13,1386.4 1136.66,1386.4 1139.18,1386.4 1141.71,1386.4 1144.24,1386.4 1146.77,1386.4 1149.3,1386.4 1151.83,1386.4 1154.35,1386.4 1156.88,1386.4 1159.41,1386.4 1161.94,1386.4 1164.47,1386.4 1167,1386.4 1169.52,1386.4 1172.05,1386.4 1174.58,1386.4 1177.11,1386.4 1179.64,1386.4 1182.17,1386.4 1184.7,1386.4 1187.22,1386.4 1189.75,1386.4 1192.28,1386.4 1194.81,1386.4 1197.34,1386.4 1199.87,1386.4 1202.39,1386.4 1204.92,1386.4 1207.45,1386.4 1209.98,1386.4 1212.51,1386.4 1215.04,1386.4 1217.57,1386.4 1220.09,1386.4 1222.62,1386.4 1225.15,1386.4 1227.68,1386.4 1230.21,1386.4 1232.74,1386.4 1235.26,1386.4 1237.79,1386.4 1240.32,1386.4 1242.85,1386.4 1245.38,1386.4 1247.91,1386.4 1250.43,1386.4 1252.96,1386.4 1255.49,1386.4 1258.02,1386.4 1260.55,1386.4 1263.08,1386.4 1265.61,1386.4 1268.13,1386.4 1270.66,1386.4 1273.19,1386.4 1275.72,1386.4 1278.25,1386.4 1280.78,1386.4 1283.3,1386.4 1285.83,1386.4 1288.36,1386.4 1290.89,1386.4 1293.42,1386.4 1295.95,1386.4 1298.48,1386.4 1301,1386.4 1303.53,1386.4 1306.06,1386.4 1308.59,1386.4 1311.12,1386.4 1313.65,1386.4 1316.17,1386.4 1318.7,1386.4 1321.23,1386.4 1323.76,1386.4 1326.29,1386.4 1328.82,1386.4 1331.34,1386.4 1333.87,1386.4 1336.4,1386.4 1338.93,1386.4 1341.46,1386.4 1343.99,1386.4 1346.52,1386.4 1349.04,1386.4 1351.57,1386.4 1354.1,1386.4 1356.63,1386.4 1359.16,1386.4 1361.69,1386.4 1364.21,1386.4 1366.74,1386.4 1369.27,1386.4 1371.8,1386.4 1374.33,1386.4 1376.86,1386.4 1379.38,1386.4 1381.91,1386.4 1384.44,1386.4 1386.97,1386.4 1389.5,1386.4 1392.03,1386.4 1394.56,1386.4 1397.08,1386.4 1399.61,1386.4 1402.14,1386.4 1404.67,1386.4 1407.2,1386.4 1409.73,1386.4 1412.25,1386.4 1414.78,1386.4 1417.31,1386.4 1419.84,1386.4 1422.37,1386.4 1424.9,1386.4 1427.43,1386.4 1429.95,1386.4 1432.48,1386.4 1435.01,1386.4 1437.54,1386.4 1440.07,1386.4 1442.6,1386.4 1445.12,1386.4 1447.65,1386.4 1450.18,1386.4 1452.71,1386.4 1455.24,1386.4 1457.77,1386.4 1460.29,1386.4 1462.82,1386.4 1465.35,1386.4 1467.88,1386.4 1470.41,1386.4 1472.94,1386.4 1475.47,1386.4 1477.99,1386.4 1480.52,1386.4 1483.05,1386.4 1485.58,1386.4 1488.11,1386.4 1490.64,1386.4 1493.16,1386.4 1495.69,1386.4 1498.22,1386.4 1500.75,1386.4 1503.28,1386.4 1505.81,1386.4 1508.34,1386.4 1510.86,1386.4 1513.39,1386.4 1515.92,1386.4 1518.45,1386.4 1520.98,1386.4 1523.51,1386.4 1526.03,1386.4 1528.56,1386.4 1531.09,1386.4 1533.62,1386.4 1536.15,1386.4 1538.68,1386.4 1541.2,1386.4 1543.73,1386.4 1546.26,1386.4 1548.79,1386.4 1551.32,1386.4 1553.85,1386.4 1556.38,1386.4 1558.9,1386.4 1561.43,1386.4 1563.96,1386.4 1566.49,1386.4 1569.02,1386.4 1571.55,1386.4 1574.07,1386.4 1576.6,1386.4 1579.13,1386.4 1581.66,1386.4 1584.19,1386.4 1586.72,1386.4 1589.24,1386.4 1591.77,1386.4 1594.3,1386.4 1596.83,1386.4 1599.36,1386.4 1601.89,1386.4 1604.42,1386.4 1606.94,1386.4 1609.47,1386.4 1612,1386.4 1614.53,1386.4 1617.06,1386.4 1619.59,1386.4 1622.11,1386.4 1624.64,1386.4 1627.17,1386.4 1629.7,1386.4 1632.23,1386.4 1634.76,1386.4 1637.29,1386.4 1639.81,1386.4 1642.34,1386.4 1644.87,1386.4 1647.4,1386.4 1649.93,1386.4 1652.46,1386.4 1654.98,1386.4 1657.51,1386.4 1660.04,1386.4 1662.57,1386.4 1665.1,1386.4 1667.63,1386.4 1670.15,1386.4 1672.68,1386.4 1675.21,1386.4 1677.74,1386.4 1680.27,1386.4 1682.8,1386.4 1685.33,1386.4 1687.85,1386.4 1690.38,1386.4 1692.91,1386.4 1695.44,1386.4 1697.97,1386.4 1700.5,1386.4 1703.02,1386.4 1705.55,1386.4 1708.08,1386.4 1710.61,1386.4 1713.14,1386.4 1715.67,1386.4 1718.2,1386.4 1720.72,1386.4 1723.25,1386.4 1725.78,1386.4 1728.31,1386.4 1730.84,1386.4 1733.37,1386.4 1735.89,1386.4 1738.42,1386.4 1740.95,1386.4 1743.48,1386.4 1746.01,1386.4 1748.54,1386.4 1751.06,1386.4 1753.59,1386.4 1756.12,1386.4 1758.65,1386.4 1761.18,1386.4 1763.71,1386.4 1766.24,1386.4 1768.76,1386.4 1771.29,1386.4 1773.82,1386.4 1776.35,1386.4 1778.88,1386.4 1781.41,1386.4 1783.93,1386.4 1786.46,1386.4 1788.99,1386.4 1791.52,1386.4 1794.05,1386.4 1796.58,1386.4 1799.1,1386.4 1801.63,1386.4 1804.16,1386.4 1806.69,1386.4 1809.22,1386.4 1811.75,1386.4 1814.28,1386.4 1816.8,1386.4 1819.33,1386.4 1821.86,1386.4 1824.39,1386.4 1826.92,1386.4 1829.45,1386.4 1831.97,1386.4 1834.5,1386.4 1837.03,1386.4 1839.56,1386.4 1842.09,1386.4 1844.62,1386.4 1847.15,1386.4 1849.67,1386.4 1852.2,1386.4 1854.73,1386.4 1857.26,1386.4 1859.79,1386.4 1862.32,1386.4 1864.84,1386.4 1867.37,1386.4 1869.9,1386.4 1872.43,1386.4 1874.96,1386.4 1877.49,1386.4 1880.01,1386.4 1882.54,1386.4 1885.07,1386.4 1887.6,1386.4 1890.13,1386.4 1892.66,1386.4 1895.19,1386.4 1897.71,1386.4 1900.24,1386.4 1902.77,1386.4 1905.3,1386.4 1907.83,1386.4 1910.36,1386.4 1912.88,1386.4 1915.41,1386.4 1917.94,1386.4 1920.47,1386.4 1923,1386.4 1925.53,1386.4 1928.05,1386.4 1930.58,1386.4 1933.11,1386.4 1935.64,1386.4 1938.17,1386.4 1940.7,1386.4 1943.23,1386.4 1945.75,1386.4 1948.28,1386.4 1950.81,1386.4 1953.34,1386.4 1955.87,1386.4 1958.4,1386.4 1960.92,1386.4 1963.45,1386.4 1965.98,1386.4 1968.51,1386.4 1971.04,1386.4 1973.57,1386.4 1976.1,1386.4 1978.62,1386.4 1981.15,1386.4 1983.68,1386.4 1986.21,1386.4 1988.74,1386.4 1991.27,1386.4 1993.79,1386.4 1996.32,1386.4 1998.85,1386.4 2001.38,1386.4 2003.91,1386.4 2006.44,1386.4 2008.96,1386.4 2011.49,1386.4 2014.02,1386.4 2016.55,1386.4 2019.08,1386.4 2021.61,1386.4 2024.14,1386.4 2026.66,1386.4 2029.19,1386.4 2031.72,1386.4 2034.25,1386.4 2036.78,1386.4 2039.31,1386.4 2041.83,1386.4 2044.36,1386.4 2046.89,1386.4 2049.42,1386.4 2051.95,1386.4 2054.48,1386.4 2057.01,1386.4 2059.53,1386.4 2062.06,1386.4 2064.59,1386.4 2067.12,1386.4 2069.65,1386.4 2072.18,1386.4 2074.7,1386.4 2077.23,1386.4 2079.76,1386.4 2082.29,1386.4 2084.82,1386.4 2087.35,1386.4 2089.87,1386.4 2092.4,1386.4 2094.93,1386.4 2097.46,1386.4 2099.99,1386.4 2102.52,1386.4 2105.05,1386.4 2107.57,1386.4 2110.1,1386.4 2112.63,1386.4 2115.16,1386.4 2117.69,1386.4 2120.22,1386.4 2122.74,1386.4 2125.27,1386.4 2127.8,1386.4 2130.33,1386.4 2132.86,1386.4 2135.39,1386.4 2137.91,1386.4 2140.44,1386.4 2142.97,1386.4 2145.5,1386.4 2148.03,1386.4 2150.56,1386.4 2153.09,1386.4 2155.61,1386.4 2158.14,1386.4 2160.67,1386.4 2163.2,1386.4 2165.73,1386.4 2168.26,1386.4 2170.78,1386.4 2173.31,1386.4 2175.84,1386.4 2178.37,1386.4 2180.9,1386.4 2183.43,1386.4 2185.96,1386.4 2188.48,1386.4 2191.01,1386.4 2193.54,1386.4 2196.07,1386.4 2198.6,1386.4 2201.13,1386.4 2203.65,1386.4 2206.18,1386.4 2208.71,1386.4 2211.24,1386.4 2213.77,1386.4 2216.3,1386.4 2218.82,1386.4 2221.35,1386.4 2223.88,1386.4 2226.41,1386.4 2228.94,1386.4 2231.47,1386.4 2234,1386.4 2236.52,1386.4 2239.05,1386.4 2241.58,1386.4 2244.11,1386.4 2246.64,1386.4 2249.17,1386.4 2251.69,1386.4 2254.22,1386.4 2256.75,1386.4 2259.28,1386.4 2261.81,1386.4 2264.34,1386.4 2266.87,1386.4 2269.39,1386.4 2271.92,1386.4 2274.45,1386.4 2276.98,1386.4 2279.51,1386.4 2282.04,1386.4 2284.56,1386.4 2287.09,1386.4 2289.62,1386.4 2292.15,1386.4 "/>
</svg>
