<?xml version="1.0" encoding="utf-8"?>
<svg xmlns="http://www.w3.org/2000/svg" xmlns:xlink="http://www.w3.org/1999/xlink" width="600" height="400" viewBox="0 0 2400 1600">
<defs>
  <clipPath id="clip110">
    <rect x="0" y="0" width="2400" height="1600"/>
  </clipPath>
</defs>
<path clip-path="url(#clip110)" d="M0 1600 L2400 1600 L2400 0 L0 0  Z" fill="#ffffff" fill-rule="evenodd" fill-opacity="1"/>
<defs>
  <clipPath id="clip111">
    <rect x="480" y="0" width="1681" height="1600"/>
  </clipPath>
</defs>
<path clip-path="url(#clip110)" d="M205.121 1423.18 L2352.76 1423.18 L2352.76 123.472 L205.121 123.472  Z" fill="#ffffff" fill-rule="evenodd" fill-opacity="1"/>
<defs>
  <clipPath id="clip112">
    <rect x="205" y="123" width="2149" height="1301"/>
  </clipPath>
</defs>
<polyline clip-path="url(#clip112)" style="stroke:#000000; stroke-linecap:round; stroke-linejoin:round; stroke-width:2; stroke-opacity:0.1; fill:none" points="692.444,1423.18 692.444,123.472 "/>
<polyline clip-path="url(#clip112)" style="stroke:#000000; stroke-linecap:round; stroke-linejoin:round; stroke-width:2; stroke-opacity:0.1; fill:none" points="1225.62,1423.18 1225.62,123.472 "/>
<polyline clip-path="url(#clip112)" style="stroke:#000000; stroke-linecap:round; stroke-linejoin:round; stroke-width:2; stroke-opacity:0.1; fill:none" points="1758.8,1423.18 1758.8,123.472 "/>
<polyline clip-path="url(#clip112)" style="stroke:#000000; stroke-linecap:round; stroke-linejoin:round; stroke-width:2; stroke-opacity:0.1; fill:none" points="2291.97,1423.18 2291.97,123.472 "/>
<polyline clip-path="url(#clip112)" style="stroke:#000000; stroke-linecap:round; stroke-linejoin:round; stroke-width:2; stroke-opacity:0.1; fill:none" points="205.121,1386.4 2352.76,1386.4 "/>
<polyline clip-path="url(#clip112)" style="stroke:#000000; stroke-linecap:round; stroke-linejoin:round; stroke-width:2; stroke-opacity:0.1; fill:none" points="205.121,1078.96 2352.76,1078.96 "/>
<polyline clip-path="url(#clip112)" style="stroke:#000000; stroke-linecap:round; stroke-linejoin:round; stroke-width:2; stroke-opacity:0.1; fill:none" points="205.121,771.531 2352.76,771.531 "/>
<polyline clip-path="url(#clip112)" style="stroke:#000000; stroke-linecap:round; stroke-linejoin:round; stroke-width:2; stroke-opacity:0.1; fill:none" points="205.121,464.098 2352.76,464.098 "/>
<polyline clip-path="url(#clip112)" style="stroke:#000000; stroke-linecap:round; stroke-linejoin:round; stroke-width:2; stroke-opacity:0.1; fill:none" points="205.121,156.666 2352.76,156.666 "/>
<polyline clip-path="url(#clip110)" style="stroke:#000000; stroke-linecap:round; stroke-linejoin:round; stroke-width:4; stroke-opacity:1; fill:none" points="205.121,1423.18 2352.76,1423.18 "/>
<polyline clip-path="url(#clip110)" style="stroke:#000000; stroke-linecap:round; stroke-linejoin:round; stroke-width:4; stroke-opacity:1; fill:none" points="692.444,1423.18 692.444,1404.28 "/>
<polyline clip-path="url(#clip110)" style="stroke:#000000; stroke-linecap:round; stroke-linejoin:round; stroke-width:4; stroke-opacity:1; fill:none" points="1225.62,1423.18 1225.62,1404.28 "/>
<polyline clip-path="url(#clip110)" style="stroke:#000000; stroke-linecap:round; stroke-linejoin:round; stroke-width:4; stroke-opacity:1; fill:none" points="1758.8,1423.18 1758.8,1404.28 "/>
<polyline clip-path="url(#clip110)" style="stroke:#000000; stroke-linecap:round; stroke-linejoin:round; stroke-width:4; stroke-opacity:1; fill:none" points="2291.97,1423.18 2291.97,1404.28 "/>
<path clip-path="url(#clip110)" d="M682.722 1451.02 L701.079 1451.02 L701.079 1454.96 L687.005 1454.96 L687.005 1463.43 Q688.023 1463.08 689.042 1462.92 Q690.06 1462.73 691.079 1462.73 Q696.866 1462.73 700.245 1465.9 Q703.625 1469.08 703.625 1474.49 Q703.625 1480.07 700.153 1483.17 Q696.68 1486.25 690.361 1486.25 Q688.185 1486.25 685.917 1485.88 Q683.671 1485.51 681.264 1484.77 L681.264 1480.07 Q683.347 1481.2 685.569 1481.76 Q687.792 1482.32 690.268 1482.32 Q694.273 1482.32 696.611 1480.21 Q698.949 1478.1 698.949 1474.49 Q698.949 1470.88 696.611 1468.77 Q694.273 1466.67 690.268 1466.67 Q688.393 1466.67 686.518 1467.08 Q684.667 1467.5 682.722 1468.38 L682.722 1451.02 Z" fill="#000000" fill-rule="nonzero" fill-opacity="1" /><path clip-path="url(#clip110)" d="M1200.31 1481.64 L1207.95 1481.64 L1207.95 1455.28 L1199.64 1456.95 L1199.64 1452.69 L1207.9 1451.02 L1212.58 1451.02 L1212.58 1481.64 L1220.22 1481.64 L1220.22 1485.58 L1200.31 1485.58 L1200.31 1481.64 Z" fill="#000000" fill-rule="nonzero" fill-opacity="1" /><path clip-path="url(#clip110)" d="M1239.66 1454.1 Q1236.05 1454.1 1234.22 1457.66 Q1232.41 1461.2 1232.41 1468.33 Q1232.41 1475.44 1234.22 1479.01 Q1236.05 1482.55 1239.66 1482.55 Q1243.29 1482.55 1245.1 1479.01 Q1246.93 1475.44 1246.93 1468.33 Q1246.93 1461.2 1245.1 1457.66 Q1243.29 1454.1 1239.66 1454.1 M1239.66 1450.39 Q1245.47 1450.39 1248.53 1455 Q1251.6 1459.58 1251.6 1468.33 Q1251.6 1477.06 1248.53 1481.67 Q1245.47 1486.25 1239.66 1486.25 Q1233.85 1486.25 1230.77 1481.67 Q1227.72 1477.06 1227.72 1468.33 Q1227.72 1459.58 1230.77 1455 Q1233.85 1450.39 1239.66 1450.39 Z" fill="#000000" fill-rule="nonzero" fill-opacity="1" /><path clip-path="url(#clip110)" d="M1733.98 1481.64 L1741.62 1481.64 L1741.62 1455.28 L1733.31 1456.95 L1733.31 1452.69 L1741.58 1451.02 L1746.25 1451.02 L1746.25 1481.64 L1753.89 1481.64 L1753.89 1485.58 L1733.98 1485.58 L1733.98 1481.64 Z" fill="#000000" fill-rule="nonzero" fill-opacity="1" /><path clip-path="url(#clip110)" d="M1763.38 1451.02 L1781.74 1451.02 L1781.74 1454.96 L1767.66 1454.96 L1767.66 1463.43 Q1768.68 1463.08 1769.7 1462.92 Q1770.72 1462.73 1771.74 1462.73 Q1777.52 1462.73 1780.9 1465.9 Q1784.28 1469.08 1784.28 1474.49 Q1784.28 1480.07 1780.81 1483.17 Q1777.34 1486.25 1771.02 1486.25 Q1768.84 1486.25 1766.58 1485.88 Q1764.33 1485.51 1761.92 1484.77 L1761.92 1480.07 Q1764.01 1481.2 1766.23 1481.76 Q1768.45 1482.32 1770.93 1482.32 Q1774.93 1482.32 1777.27 1480.21 Q1779.61 1478.1 1779.61 1474.49 Q1779.61 1470.88 1777.27 1468.77 Q1774.93 1466.67 1770.93 1466.67 Q1769.05 1466.67 1767.18 1467.08 Q1765.33 1467.5 1763.38 1468.38 L1763.38 1451.02 Z" fill="#000000" fill-rule="nonzero" fill-opacity="1" /><path clip-path="url(#clip110)" d="M2270.75 1481.64 L2287.07 1481.64 L2287.07 1485.58 L2265.12 1485.58 L2265.12 1481.64 Q2267.78 1478.89 2272.37 1474.26 Q2276.97 1469.61 2278.15 1468.27 Q2280.4 1465.74 2281.28 1464.01 Q2282.18 1462.25 2282.18 1460.56 Q2282.18 1457.8 2280.24 1456.07 Q2278.32 1454.33 2275.21 1454.33 Q2273.02 1454.33 2270.56 1455.09 Q2268.13 1455.86 2265.35 1457.41 L2265.35 1452.69 Q2268.18 1451.55 2270.63 1450.97 Q2273.08 1450.39 2275.12 1450.39 Q2280.49 1450.39 2283.69 1453.08 Q2286.88 1455.77 2286.88 1460.26 Q2286.88 1462.39 2286.07 1464.31 Q2285.28 1466.2 2283.18 1468.8 Q2282.6 1469.47 2279.5 1472.69 Q2276.4 1475.88 2270.75 1481.64 Z" fill="#000000" fill-rule="nonzero" fill-opacity="1" /><path clip-path="url(#clip110)" d="M2306.88 1454.1 Q2303.27 1454.1 2301.44 1457.66 Q2299.64 1461.2 2299.64 1468.33 Q2299.64 1475.44 2301.44 1479.01 Q2303.27 1482.55 2306.88 1482.55 Q2310.52 1482.55 2312.32 1479.01 Q2314.15 1475.44 2314.15 1468.33 Q2314.15 1461.2 2312.32 1457.66 Q2310.52 1454.1 2306.88 1454.1 M2306.88 1450.39 Q2312.69 1450.39 2315.75 1455 Q2318.83 1459.58 2318.83 1468.33 Q2318.83 1477.06 2315.75 1481.67 Q2312.69 1486.25 2306.88 1486.25 Q2301.07 1486.25 2297.99 1481.67 Q2294.94 1477.06 2294.94 1468.33 Q2294.94 1459.58 2297.99 1455 Q2301.07 1450.39 2306.88 1450.39 Z" fill="#000000" fill-rule="nonzero" fill-opacity="1" /><path clip-path="url(#clip110)" d="M1099.93 1525.81 L1099.93 1562.76 L1107.7 1562.76 Q1117.54 1562.76 1122.09 1558.3 Q1126.67 1553.85 1126.67 1544.24 Q1126.67 1534.69 1122.09 1530.26 Q1117.54 1525.81 1107.7 1525.81 L1099.93 1525.81 M1093.51 1520.52 L1106.71 1520.52 Q1120.53 1520.52 1126.99 1526.28 Q1133.45 1532.01 1133.45 1544.24 Q1133.45 1556.52 1126.96 1562.28 Q1120.46 1568.04 1106.71 1568.04 L1093.51 1568.04 L1093.51 1520.52 Z" fill="#000000" fill-rule="nonzero" fill-opacity="1" /><path clip-path="url(#clip110)" d="M1143.44 1532.4 L1149.3 1532.4 L1149.3 1568.04 L1143.44 1568.04 L1143.44 1532.4 M1143.44 1518.52 L1149.3 1518.52 L1149.3 1525.93 L1143.44 1525.93 L1143.44 1518.52 Z" fill="#000000" fill-rule="nonzero" fill-opacity="1" /><path clip-path="url(#clip110)" d="M1189.31 1539.24 Q1191.51 1535.29 1194.56 1533.41 Q1197.62 1531.54 1201.75 1531.54 Q1207.32 1531.54 1210.35 1535.45 Q1213.37 1539.33 1213.37 1546.53 L1213.37 1568.04 L1207.48 1568.04 L1207.48 1546.72 Q1207.48 1541.59 1205.67 1539.11 Q1203.85 1536.63 1200.13 1536.63 Q1195.58 1536.63 1192.94 1539.65 Q1190.3 1542.68 1190.3 1547.9 L1190.3 1568.04 L1184.41 1568.04 L1184.41 1546.72 Q1184.41 1541.56 1182.59 1539.11 Q1180.78 1536.63 1176.99 1536.63 Q1172.5 1536.63 1169.86 1539.68 Q1167.22 1542.71 1167.22 1547.9 L1167.22 1568.04 L1161.33 1568.04 L1161.33 1532.4 L1167.22 1532.4 L1167.22 1537.93 Q1169.23 1534.66 1172.03 1533.1 Q1174.83 1531.54 1178.68 1531.54 Q1182.56 1531.54 1185.27 1533.51 Q1188 1535.48 1189.31 1539.24 Z" fill="#000000" fill-rule="nonzero" fill-opacity="1" /><path clip-path="url(#clip110)" d="M1255.54 1548.76 L1255.54 1551.62 L1228.62 1551.62 Q1229 1557.67 1232.25 1560.85 Q1235.52 1564 1241.35 1564 Q1244.72 1564 1247.87 1563.17 Q1251.06 1562.35 1254.18 1560.69 L1254.18 1566.23 Q1251.02 1567.57 1247.71 1568.27 Q1244.4 1568.97 1241 1568.97 Q1232.47 1568.97 1227.47 1564 Q1222.51 1559.04 1222.51 1550.57 Q1222.51 1541.82 1227.22 1536.69 Q1231.96 1531.54 1239.98 1531.54 Q1247.17 1531.54 1251.34 1536.18 Q1255.54 1540.8 1255.54 1548.76 M1249.69 1547.04 Q1249.62 1542.23 1246.98 1539.37 Q1244.37 1536.5 1240.04 1536.5 Q1235.14 1536.5 1232.18 1539.27 Q1229.25 1542.04 1228.81 1547.07 L1249.69 1547.04 Z" fill="#000000" fill-rule="nonzero" fill-opacity="1" /><path clip-path="url(#clip110)" d="M1294.79 1546.53 L1294.79 1568.04 L1288.93 1568.04 L1288.93 1546.72 Q1288.93 1541.66 1286.96 1539.14 Q1284.99 1536.63 1281.04 1536.63 Q1276.3 1536.63 1273.56 1539.65 Q1270.82 1542.68 1270.82 1547.9 L1270.82 1568.04 L1264.93 1568.04 L1264.93 1532.4 L1270.82 1532.4 L1270.82 1537.93 Q1272.92 1534.72 1275.76 1533.13 Q1278.62 1531.54 1282.34 1531.54 Q1288.49 1531.54 1291.64 1535.36 Q1294.79 1539.14 1294.79 1546.53 Z" fill="#000000" fill-rule="nonzero" fill-opacity="1" /><path clip-path="url(#clip110)" d="M1329.2 1533.45 L1329.2 1538.98 Q1326.71 1537.71 1324.04 1537.07 Q1321.37 1536.44 1318.5 1536.44 Q1314.14 1536.44 1311.94 1537.77 Q1309.78 1539.11 1309.78 1541.79 Q1309.78 1543.82 1311.34 1545 Q1312.9 1546.15 1317.61 1547.2 L1319.62 1547.64 Q1325.85 1548.98 1328.46 1551.43 Q1331.11 1553.85 1331.11 1558.21 Q1331.11 1563.17 1327.16 1566.07 Q1323.24 1568.97 1316.37 1568.97 Q1313.5 1568.97 1310.39 1568.39 Q1307.3 1567.85 1303.86 1566.74 L1303.86 1560.69 Q1307.11 1562.38 1310.26 1563.24 Q1313.41 1564.07 1316.5 1564.07 Q1320.63 1564.07 1322.86 1562.66 Q1325.09 1561.23 1325.09 1558.65 Q1325.09 1556.27 1323.47 1554.99 Q1321.88 1553.72 1316.43 1552.54 L1314.4 1552.07 Q1308.95 1550.92 1306.53 1548.56 Q1304.11 1546.18 1304.11 1542.04 Q1304.11 1537.01 1307.68 1534.27 Q1311.24 1531.54 1317.8 1531.54 Q1321.05 1531.54 1323.91 1532.01 Q1326.78 1532.49 1329.2 1533.45 Z" fill="#000000" fill-rule="nonzero" fill-opacity="1" /><path clip-path="url(#clip110)" d="M1340.43 1532.4 L1346.29 1532.4 L1346.29 1568.04 L1340.43 1568.04 L1340.43 1532.4 M1340.43 1518.52 L1346.29 1518.52 L1346.29 1525.93 L1340.43 1525.93 L1340.43 1518.52 Z" fill="#000000" fill-rule="nonzero" fill-opacity="1" /><path clip-path="url(#clip110)" d="M1372.36 1536.5 Q1367.64 1536.5 1364.91 1540.19 Q1362.17 1543.85 1362.17 1550.25 Q1362.17 1556.65 1364.88 1560.34 Q1367.61 1564 1372.36 1564 Q1377.03 1564 1379.77 1560.31 Q1382.51 1556.62 1382.51 1550.25 Q1382.51 1543.92 1379.77 1540.23 Q1377.03 1536.5 1372.36 1536.5 M1372.36 1531.54 Q1379.99 1531.54 1384.35 1536.5 Q1388.72 1541.47 1388.72 1550.25 Q1388.72 1559 1384.35 1564 Q1379.99 1568.97 1372.36 1568.97 Q1364.68 1568.97 1360.32 1564 Q1356 1559 1356 1550.25 Q1356 1541.47 1360.32 1536.5 Q1364.68 1531.54 1372.36 1531.54 Z" fill="#000000" fill-rule="nonzero" fill-opacity="1" /><path clip-path="url(#clip110)" d="M1428.06 1546.53 L1428.06 1568.04 L1422.2 1568.04 L1422.2 1546.72 Q1422.2 1541.66 1420.23 1539.14 Q1418.25 1536.63 1414.31 1536.63 Q1409.56 1536.63 1406.83 1539.65 Q1404.09 1542.68 1404.09 1547.9 L1404.09 1568.04 L1398.2 1568.04 L1398.2 1532.4 L1404.09 1532.4 L1404.09 1537.93 Q1406.19 1534.72 1409.02 1533.13 Q1411.89 1531.54 1415.61 1531.54 Q1421.75 1531.54 1424.9 1535.36 Q1428.06 1539.14 1428.06 1546.53 Z" fill="#000000" fill-rule="nonzero" fill-opacity="1" /><path clip-path="url(#clip110)" d="M1462.46 1533.45 L1462.46 1538.98 Q1459.98 1537.71 1457.31 1537.07 Q1454.63 1536.44 1451.77 1536.44 Q1447.41 1536.44 1445.21 1537.77 Q1443.05 1539.11 1443.05 1541.79 Q1443.05 1543.82 1444.61 1545 Q1446.17 1546.15 1450.88 1547.2 L1452.88 1547.64 Q1459.12 1548.98 1461.73 1551.43 Q1464.37 1553.85 1464.37 1558.21 Q1464.37 1563.17 1460.42 1566.07 Q1456.51 1568.97 1449.63 1568.97 Q1446.77 1568.97 1443.65 1568.39 Q1440.56 1567.85 1437.13 1566.74 L1437.13 1560.69 Q1440.37 1562.38 1443.52 1563.24 Q1446.67 1564.07 1449.76 1564.07 Q1453.9 1564.07 1456.13 1562.66 Q1458.36 1561.23 1458.36 1558.65 Q1458.36 1556.27 1456.73 1554.99 Q1455.14 1553.72 1449.7 1552.54 L1447.66 1552.07 Q1442.22 1550.92 1439.8 1548.56 Q1437.38 1546.18 1437.38 1542.04 Q1437.38 1537.01 1440.95 1534.27 Q1444.51 1531.54 1451.07 1531.54 Q1454.31 1531.54 1457.18 1532.01 Q1460.04 1532.49 1462.46 1533.45 Z" fill="#000000" fill-rule="nonzero" fill-opacity="1" /><polyline clip-path="url(#clip110)" style="stroke:#000000; stroke-linecap:round; stroke-linejoin:round; stroke-width:4; stroke-opacity:1; fill:none" points="205.121,1423.18 205.121,123.472 "/>
<polyline clip-path="url(#clip110)" style="stroke:#000000; stroke-linecap:round; stroke-linejoin:round; stroke-width:4; stroke-opacity:1; fill:none" points="205.121,1386.4 224.019,1386.4 "/>
<polyline clip-path="url(#clip110)" style="stroke:#000000; stroke-linecap:round; stroke-linejoin:round; stroke-width:4; stroke-opacity:1; fill:none" points="205.121,1078.96 224.019,1078.96 "/>
<polyline clip-path="url(#clip110)" style="stroke:#000000; stroke-linecap:round; stroke-linejoin:round; stroke-width:4; stroke-opacity:1; fill:none" points="205.121,771.531 224.019,771.531 "/>
<polyline clip-path="url(#clip110)" style="stroke:#000000; stroke-linecap:round; stroke-linejoin:round; stroke-width:4; stroke-opacity:1; fill:none" points="205.121,464.098 224.019,464.098 "/>
<polyline clip-path="url(#clip110)" style="stroke:#000000; stroke-linecap:round; stroke-linejoin:round; stroke-width:4; stroke-opacity:1; fill:none" points="205.121,156.666 224.019,156.666 "/>
<path clip-path="url(#clip110)" d="M157.177 1372.19 Q153.566 1372.19 151.737 1375.76 Q149.931 1379.3 149.931 1386.43 Q149.931 1393.54 151.737 1397.1 Q153.566 1400.64 157.177 1400.64 Q160.811 1400.64 162.616 1397.1 Q164.445 1393.54 164.445 1386.43 Q164.445 1379.3 162.616 1375.76 Q160.811 1372.19 157.177 1372.19 M157.177 1368.49 Q162.987 1368.49 166.042 1373.1 Q169.121 1377.68 169.121 1386.43 Q169.121 1395.16 166.042 1399.76 Q162.987 1404.35 157.177 1404.35 Q151.366 1404.35 148.288 1399.76 Q145.232 1395.16 145.232 1386.43 Q145.232 1377.68 148.288 1373.1 Q151.366 1368.49 157.177 1368.49 Z" fill="#000000" fill-rule="nonzero" fill-opacity="1" /><path clip-path="url(#clip110)" d="M117.825 1092.31 L125.464 1092.31 L125.464 1065.94 L117.154 1067.61 L117.154 1063.35 L125.418 1061.68 L130.093 1061.68 L130.093 1092.31 L137.732 1092.31 L137.732 1096.24 L117.825 1096.24 L117.825 1092.31 Z" fill="#000000" fill-rule="nonzero" fill-opacity="1" /><path clip-path="url(#clip110)" d="M157.177 1064.76 Q153.566 1064.76 151.737 1068.33 Q149.931 1071.87 149.931 1079 Q149.931 1086.1 151.737 1089.67 Q153.566 1093.21 157.177 1093.21 Q160.811 1093.21 162.616 1089.67 Q164.445 1086.1 164.445 1079 Q164.445 1071.87 162.616 1068.33 Q160.811 1064.76 157.177 1064.76 M157.177 1061.06 Q162.987 1061.06 166.042 1065.66 Q169.121 1070.25 169.121 1079 Q169.121 1087.72 166.042 1092.33 Q162.987 1096.91 157.177 1096.91 Q151.366 1096.91 148.288 1092.33 Q145.232 1087.72 145.232 1079 Q145.232 1070.25 148.288 1065.66 Q151.366 1061.06 157.177 1061.06 Z" fill="#000000" fill-rule="nonzero" fill-opacity="1" /><path clip-path="url(#clip110)" d="M121.043 784.876 L137.362 784.876 L137.362 788.811 L115.418 788.811 L115.418 784.876 Q118.08 782.121 122.663 777.491 Q127.269 772.839 128.45 771.496 Q130.695 768.973 131.575 767.237 Q132.478 765.478 132.478 763.788 Q132.478 761.033 130.533 759.297 Q128.612 757.561 125.51 757.561 Q123.311 757.561 120.857 758.325 Q118.427 759.089 115.649 760.64 L115.649 755.917 Q118.473 754.783 120.927 754.204 Q123.38 753.626 125.418 753.626 Q130.788 753.626 133.982 756.311 Q137.177 758.996 137.177 763.487 Q137.177 765.616 136.367 767.538 Q135.579 769.436 133.473 772.028 Q132.894 772.7 129.792 775.917 Q126.691 779.112 121.043 784.876 Z" fill="#000000" fill-rule="nonzero" fill-opacity="1" /><path clip-path="url(#clip110)" d="M157.177 757.329 Q153.566 757.329 151.737 760.894 Q149.931 764.436 149.931 771.565 Q149.931 778.672 151.737 782.237 Q153.566 785.778 157.177 785.778 Q160.811 785.778 162.616 782.237 Q164.445 778.672 164.445 771.565 Q164.445 764.436 162.616 760.894 Q160.811 757.329 157.177 757.329 M157.177 753.626 Q162.987 753.626 166.042 758.232 Q169.121 762.816 169.121 771.565 Q169.121 780.292 166.042 784.899 Q162.987 789.482 157.177 789.482 Q151.366 789.482 148.288 784.899 Q145.232 780.292 145.232 771.565 Q145.232 762.816 148.288 758.232 Q151.366 753.626 157.177 753.626 Z" fill="#000000" fill-rule="nonzero" fill-opacity="1" /><path clip-path="url(#clip110)" d="M131.181 462.744 Q134.538 463.462 136.413 465.73 Q138.311 467.999 138.311 471.332 Q138.311 476.448 134.792 479.249 Q131.274 482.05 124.793 482.05 Q122.617 482.05 120.302 481.61 Q118.01 481.193 115.556 480.337 L115.556 475.823 Q117.501 476.957 119.816 477.536 Q122.13 478.114 124.654 478.114 Q129.052 478.114 131.343 476.378 Q133.658 474.642 133.658 471.332 Q133.658 468.277 131.505 466.564 Q129.376 464.827 125.556 464.827 L121.529 464.827 L121.529 460.985 L125.742 460.985 Q129.191 460.985 131.019 459.619 Q132.848 458.23 132.848 455.638 Q132.848 452.976 130.95 451.564 Q129.075 450.128 125.556 450.128 Q123.635 450.128 121.436 450.545 Q119.237 450.962 116.598 451.841 L116.598 447.675 Q119.26 446.934 121.575 446.564 Q123.913 446.193 125.973 446.193 Q131.297 446.193 134.399 448.624 Q137.501 451.031 137.501 455.152 Q137.501 458.022 135.857 460.013 Q134.214 461.98 131.181 462.744 Z" fill="#000000" fill-rule="nonzero" fill-opacity="1" /><path clip-path="url(#clip110)" d="M157.177 449.897 Q153.566 449.897 151.737 453.462 Q149.931 457.003 149.931 464.133 Q149.931 471.239 151.737 474.804 Q153.566 478.346 157.177 478.346 Q160.811 478.346 162.616 474.804 Q164.445 471.239 164.445 464.133 Q164.445 457.003 162.616 453.462 Q160.811 449.897 157.177 449.897 M157.177 446.193 Q162.987 446.193 166.042 450.8 Q169.121 455.383 169.121 464.133 Q169.121 472.86 166.042 477.466 Q162.987 482.05 157.177 482.05 Q151.366 482.05 148.288 477.466 Q145.232 472.86 145.232 464.133 Q145.232 455.383 148.288 450.8 Q151.366 446.193 157.177 446.193 Z" fill="#000000" fill-rule="nonzero" fill-opacity="1" /><path clip-path="url(#clip110)" d="M129.862 143.46 L118.056 161.909 L129.862 161.909 L129.862 143.46 M128.635 139.386 L134.515 139.386 L134.515 161.909 L139.445 161.909 L139.445 165.798 L134.515 165.798 L134.515 173.946 L129.862 173.946 L129.862 165.798 L114.26 165.798 L114.26 161.284 L128.635 139.386 Z" fill="#000000" fill-rule="nonzero" fill-opacity="1" /><path clip-path="url(#clip110)" d="M157.177 142.465 Q153.566 142.465 151.737 146.029 Q149.931 149.571 149.931 156.701 Q149.931 163.807 151.737 167.372 Q153.566 170.913 157.177 170.913 Q160.811 170.913 162.616 167.372 Q164.445 163.807 164.445 156.701 Q164.445 149.571 162.616 146.029 Q160.811 142.465 157.177 142.465 M157.177 138.761 Q162.987 138.761 166.042 143.367 Q169.121 147.951 169.121 156.701 Q169.121 165.427 166.042 170.034 Q162.987 174.617 157.177 174.617 Q151.366 174.617 148.288 170.034 Q145.232 165.427 145.232 156.701 Q145.232 147.951 148.288 143.367 Q151.366 138.761 157.177 138.761 Z" fill="#000000" fill-rule="nonzero" fill-opacity="1" /><path clip-path="url(#clip110)" d="M16.4842 791.5 L16.4842 784.593 L34.149 772.785 L16.4842 760.913 L16.4842 754.006 L39.3052 769.284 L64.0042 752.988 L64.0042 759.894 L43.793 773.262 L64.0042 786.726 L64.0042 793.664 L38.6368 776.7 L16.4842 791.5 Z" fill="#000000" fill-rule="nonzero" fill-opacity="1" /><path clip-path="url(#clip110)" d="M327.867 12.096 L340.06 12.096 L355.494 53.2532 L371.009 12.096 L383.202 12.096 L383.202 72.576 L375.222 72.576 L375.222 19.4686 L359.626 60.9499 L351.403 60.9499 L335.807 19.4686 L335.807 72.576 L327.867 72.576 L327.867 12.096 Z" fill="#000000" fill-rule="nonzero" fill-opacity="1" /><path clip-path="url(#clip110)" d="M419.742 49.7694 Q410.708 49.7694 407.224 51.8354 Q403.741 53.9013 403.741 58.8839 Q403.741 62.8538 406.333 65.2034 Q408.966 67.5124 413.463 67.5124 Q419.661 67.5124 423.387 63.1374 Q427.155 58.7219 427.155 51.4303 L427.155 49.7694 L419.742 49.7694 M434.608 46.6907 L434.608 72.576 L427.155 72.576 L427.155 65.6895 Q424.603 69.8214 420.795 71.8063 Q416.987 73.7508 411.478 73.7508 Q404.51 73.7508 400.378 69.8619 Q396.287 65.9325 396.287 59.3701 Q396.287 51.7138 401.391 47.825 Q406.536 43.9361 416.703 43.9361 L427.155 43.9361 L427.155 43.2069 Q427.155 38.0623 423.752 35.2672 Q420.39 32.4315 414.273 32.4315 Q410.384 32.4315 406.698 33.3632 Q403.011 34.295 399.609 36.1584 L399.609 29.2718 Q403.7 27.692 407.548 26.9223 Q411.397 26.1121 415.043 26.1121 Q424.886 26.1121 429.747 31.2163 Q434.608 36.3204 434.608 46.6907 Z" fill="#000000" fill-rule="nonzero" fill-opacity="1" /><path clip-path="url(#clip110)" d="M479.817 49.3643 Q479.817 41.2625 476.454 36.8065 Q473.133 32.3505 467.097 32.3505 Q461.101 32.3505 457.739 36.8065 Q454.417 41.2625 454.417 49.3643 Q454.417 57.4256 457.739 61.8816 Q461.101 66.3376 467.097 66.3376 Q473.133 66.3376 476.454 61.8816 Q479.817 57.4256 479.817 49.3643 M487.27 66.9452 Q487.27 78.5308 482.126 84.1616 Q476.981 89.8329 466.368 89.8329 Q462.438 89.8329 458.954 89.2252 Q455.471 88.6581 452.189 87.4428 L452.189 80.1917 Q455.471 81.9741 458.671 82.8248 Q461.871 83.6755 465.193 83.6755 Q472.525 83.6755 476.171 79.8271 Q479.817 76.0193 479.817 68.282 L479.817 64.5957 Q477.508 68.6061 473.902 70.5911 Q470.297 72.576 465.274 72.576 Q456.929 72.576 451.825 66.2161 Q446.721 59.8562 446.721 49.3643 Q446.721 38.832 451.825 32.472 Q456.929 26.1121 465.274 26.1121 Q470.297 26.1121 473.902 28.0971 Q477.508 30.082 479.817 34.0924 L479.817 27.2059 L487.27 27.2059 L487.27 66.9452 Z" fill="#000000" fill-rule="nonzero" fill-opacity="1" /><path clip-path="url(#clip110)" d="M540.337 45.1919 L540.337 72.576 L532.883 72.576 L532.883 45.4349 Q532.883 38.994 530.372 35.7938 Q527.86 32.5936 522.837 32.5936 Q516.801 32.5936 513.318 36.4419 Q509.834 40.2903 509.834 46.9338 L509.834 72.576 L502.34 72.576 L502.34 27.2059 L509.834 27.2059 L509.834 34.2544 Q512.507 30.163 516.113 28.1376 Q519.758 26.1121 524.498 26.1121 Q532.316 26.1121 536.327 30.9732 Q540.337 35.7938 540.337 45.1919 Z" fill="#000000" fill-rule="nonzero" fill-opacity="1" /><path clip-path="url(#clip110)" d="M594.012 48.0275 L594.012 51.6733 L559.741 51.6733 Q560.227 59.3701 564.359 63.421 Q568.531 67.4314 575.945 67.4314 Q580.238 67.4314 584.249 66.3781 Q588.3 65.3249 592.27 63.2184 L592.27 70.267 Q588.259 71.9684 584.046 72.8596 Q579.833 73.7508 575.499 73.7508 Q564.642 73.7508 558.283 67.4314 Q551.963 61.1119 551.963 50.3365 Q551.963 39.1965 557.959 32.6746 Q563.994 26.1121 574.203 26.1121 Q583.358 26.1121 588.664 32.0264 Q594.012 37.9003 594.012 48.0275 M586.558 45.84 Q586.477 39.7232 583.115 36.0774 Q579.793 32.4315 574.284 32.4315 Q568.045 32.4315 564.278 35.9558 Q560.551 39.4801 559.984 45.8805 L586.558 45.84 Z" fill="#000000" fill-rule="nonzero" fill-opacity="1" /><path clip-path="url(#clip110)" d="M613.618 14.324 L613.618 27.2059 L628.971 27.2059 L628.971 32.9987 L613.618 32.9987 L613.618 57.6282 Q613.618 63.1779 615.117 64.7578 Q616.656 66.3376 621.315 66.3376 L628.971 66.3376 L628.971 72.576 L621.315 72.576 Q612.686 72.576 609.405 69.3758 Q606.124 66.1351 606.124 57.6282 L606.124 32.9987 L600.655 32.9987 L600.655 27.2059 L606.124 27.2059 L606.124 14.324 L613.618 14.324 Z" fill="#000000" fill-rule="nonzero" fill-opacity="1" /><path clip-path="url(#clip110)" d="M638.774 27.2059 L646.228 27.2059 L646.228 72.576 L638.774 72.576 L638.774 27.2059 M638.774 9.54393 L646.228 9.54393 L646.228 18.9825 L638.774 18.9825 L638.774 9.54393 Z" fill="#000000" fill-rule="nonzero" fill-opacity="1" /><path clip-path="url(#clip110)" d="M694.474 28.9478 L694.474 35.9153 Q691.314 34.1734 688.114 33.3227 Q684.954 32.4315 681.714 32.4315 Q674.463 32.4315 670.452 37.0496 Q666.442 41.6271 666.442 49.9314 Q666.442 58.2358 670.452 62.8538 Q674.463 67.4314 681.714 67.4314 Q684.954 67.4314 688.114 66.5807 Q691.314 65.6895 694.474 63.9476 L694.474 70.8341 Q691.355 72.2924 687.993 73.0216 Q684.671 73.7508 680.903 73.7508 Q670.655 73.7508 664.619 67.3098 Q658.583 60.8689 658.583 49.9314 Q658.583 38.832 664.659 32.472 Q670.776 26.1121 681.39 26.1121 Q684.833 26.1121 688.114 26.8413 Q691.395 27.5299 694.474 28.9478 Z" fill="#000000" fill-rule="nonzero" fill-opacity="1" /><path clip-path="url(#clip110)" d="M770.388 14.0809 L770.388 22.0612 Q765.729 19.8332 761.597 18.7395 Q757.466 17.6457 753.617 17.6457 Q746.933 17.6457 743.287 20.2383 Q739.682 22.8309 739.682 27.611 Q739.682 31.6214 742.072 33.6873 Q744.503 35.7128 751.227 36.9686 L756.169 37.9813 Q765.324 39.7232 769.659 44.1387 Q774.034 48.5136 774.034 55.8863 Q774.034 64.6767 768.119 69.2137 Q762.246 73.7508 750.863 73.7508 Q746.569 73.7508 741.708 72.7785 Q736.887 71.8063 731.702 69.9024 L731.702 61.4765 Q736.684 64.2716 741.464 65.6895 Q746.245 67.1073 750.863 67.1073 Q757.871 67.1073 761.678 64.3527 Q765.486 61.598 765.486 56.4939 Q765.486 52.0379 762.732 49.5264 Q760.018 47.0148 753.779 45.759 L748.797 44.7868 Q739.642 42.9639 735.55 39.075 Q731.459 35.1862 731.459 28.2591 Q731.459 20.2383 737.089 15.6203 Q742.761 11.0023 752.685 11.0023 Q756.939 11.0023 761.354 11.7719 Q765.77 12.5416 770.388 14.0809 Z" fill="#000000" fill-rule="nonzero" fill-opacity="1" /><path clip-path="url(#clip110)" d="M785.7 54.671 L785.7 27.2059 L793.154 27.2059 L793.154 54.3874 Q793.154 60.8284 795.666 64.0691 Q798.177 67.2693 803.2 67.2693 Q809.236 67.2693 812.72 63.421 Q816.244 59.5726 816.244 52.9291 L816.244 27.2059 L823.698 27.2059 L823.698 72.576 L816.244 72.576 L816.244 65.6084 Q813.53 69.7404 809.925 71.7658 Q806.36 73.7508 801.62 73.7508 Q793.802 73.7508 789.751 68.8897 Q785.7 64.0286 785.7 54.671 M804.456 26.1121 L804.456 26.1121 Z" fill="#000000" fill-rule="nonzero" fill-opacity="1" /><path clip-path="url(#clip110)" d="M867.974 28.5427 L867.974 35.5912 Q864.815 33.9709 861.412 33.1607 Q858.009 32.3505 854.363 32.3505 Q848.813 32.3505 846.018 34.0519 Q843.264 35.7533 843.264 39.156 Q843.264 41.7486 845.249 43.2475 Q847.234 44.7058 853.229 46.0426 L855.781 46.6097 Q863.721 48.3111 867.042 51.4303 Q870.405 54.509 870.405 60.0587 Q870.405 66.3781 865.382 70.0644 Q860.399 73.7508 851.649 73.7508 Q848.003 73.7508 844.033 73.0216 Q840.104 72.3329 835.729 70.9151 L835.729 63.2184 Q839.861 65.3654 843.871 66.4591 Q847.882 67.5124 851.811 67.5124 Q857.077 67.5124 859.913 65.73 Q862.749 63.9071 862.749 60.6258 Q862.749 57.5877 860.683 55.9673 Q858.657 54.3469 851.73 52.8481 L849.138 52.2405 Q842.21 50.7821 839.132 47.7845 Q836.053 44.7463 836.053 39.4801 Q836.053 33.0797 840.59 29.5959 Q845.127 26.1121 853.472 26.1121 Q857.604 26.1121 861.25 26.7198 Q864.896 27.3274 867.974 28.5427 Z" fill="#000000" fill-rule="nonzero" fill-opacity="1" /><path clip-path="url(#clip110)" d="M914.924 28.9478 L914.924 35.9153 Q911.764 34.1734 908.564 33.3227 Q905.405 32.4315 902.164 32.4315 Q894.913 32.4315 890.902 37.0496 Q886.892 41.6271 886.892 49.9314 Q886.892 58.2358 890.902 62.8538 Q894.913 67.4314 902.164 67.4314 Q905.405 67.4314 908.564 66.5807 Q911.764 65.6895 914.924 63.9476 L914.924 70.8341 Q911.805 72.2924 908.443 73.0216 Q905.121 73.7508 901.354 73.7508 Q891.105 73.7508 885.069 67.3098 Q879.033 60.8689 879.033 49.9314 Q879.033 38.832 885.11 32.472 Q891.226 26.1121 901.84 26.1121 Q905.283 26.1121 908.564 26.8413 Q911.845 27.5299 914.924 28.9478 Z" fill="#000000" fill-rule="nonzero" fill-opacity="1" /><path clip-path="url(#clip110)" d="M966.695 48.0275 L966.695 51.6733 L932.424 51.6733 Q932.91 59.3701 937.042 63.421 Q941.215 67.4314 948.628 67.4314 Q952.922 67.4314 956.932 66.3781 Q960.983 65.3249 964.953 63.2184 L964.953 70.267 Q960.942 71.9684 956.73 72.8596 Q952.517 73.7508 948.182 73.7508 Q937.326 73.7508 930.966 67.4314 Q924.646 61.1119 924.646 50.3365 Q924.646 39.1965 930.642 32.6746 Q936.678 26.1121 946.886 26.1121 Q956.041 26.1121 961.348 32.0264 Q966.695 37.9003 966.695 48.0275 M959.241 45.84 Q959.16 39.7232 955.798 36.0774 Q952.476 32.4315 946.967 32.4315 Q940.728 32.4315 936.961 35.9558 Q933.234 39.4801 932.667 45.8805 L959.241 45.84 Z" fill="#000000" fill-rule="nonzero" fill-opacity="1" /><path clip-path="url(#clip110)" d="M986.139 65.7705 L986.139 89.8329 L978.645 89.8329 L978.645 27.2059 L986.139 27.2059 L986.139 34.0924 Q988.489 30.0415 992.053 28.0971 Q995.659 26.1121 1000.64 26.1121 Q1008.91 26.1121 1014.05 32.6746 Q1019.23 39.2371 1019.23 49.9314 Q1019.23 60.6258 1014.05 67.1883 Q1008.91 73.7508 1000.64 73.7508 Q995.659 73.7508 992.053 71.8063 Q988.489 69.8214 986.139 65.7705 M1011.5 49.9314 Q1011.5 41.7081 1008.09 37.0496 Q1004.73 32.3505 998.818 32.3505 Q992.904 32.3505 989.501 37.0496 Q986.139 41.7081 986.139 49.9314 Q986.139 58.1548 989.501 62.8538 Q992.904 67.5124 998.818 67.5124 Q1004.73 67.5124 1008.09 62.8538 Q1011.5 58.1548 1011.5 49.9314 Z" fill="#000000" fill-rule="nonzero" fill-opacity="1" /><path clip-path="url(#clip110)" d="M1038.96 14.324 L1038.96 27.2059 L1054.32 27.2059 L1054.32 32.9987 L1038.96 32.9987 L1038.96 57.6282 Q1038.96 63.1779 1040.46 64.7578 Q1042 66.3376 1046.66 66.3376 L1054.32 66.3376 L1054.32 72.576 L1046.66 72.576 Q1038.03 72.576 1034.75 69.3758 Q1031.47 66.1351 1031.47 57.6282 L1031.47 32.9987 L1026 32.9987 L1026 27.2059 L1031.47 27.2059 L1031.47 14.324 L1038.96 14.324 Z" fill="#000000" fill-rule="nonzero" fill-opacity="1" /><path clip-path="url(#clip110)" d="M1064.12 27.2059 L1071.57 27.2059 L1071.57 72.576 L1064.12 72.576 L1064.12 27.2059 M1064.12 9.54393 L1071.57 9.54393 L1071.57 18.9825 L1064.12 18.9825 L1064.12 9.54393 Z" fill="#000000" fill-rule="nonzero" fill-opacity="1" /><path clip-path="url(#clip110)" d="M1119.74 49.9314 Q1119.74 41.7081 1116.34 37.0496 Q1112.97 32.3505 1107.06 32.3505 Q1101.14 32.3505 1097.74 37.0496 Q1094.38 41.7081 1094.38 49.9314 Q1094.38 58.1548 1097.74 62.8538 Q1101.14 67.5124 1107.06 67.5124 Q1112.97 67.5124 1116.34 62.8538 Q1119.74 58.1548 1119.74 49.9314 M1094.38 34.0924 Q1096.73 30.0415 1100.29 28.0971 Q1103.9 26.1121 1108.88 26.1121 Q1117.15 26.1121 1122.29 32.6746 Q1127.48 39.2371 1127.48 49.9314 Q1127.48 60.6258 1122.29 67.1883 Q1117.15 73.7508 1108.88 73.7508 Q1103.9 73.7508 1100.29 71.8063 Q1096.73 69.8214 1094.38 65.7705 L1094.38 72.576 L1086.89 72.576 L1086.89 9.54393 L1094.38 9.54393 L1094.38 34.0924 Z" fill="#000000" fill-rule="nonzero" fill-opacity="1" /><path clip-path="url(#clip110)" d="M1139.83 27.2059 L1147.28 27.2059 L1147.28 72.576 L1139.83 72.576 L1139.83 27.2059 M1139.83 9.54393 L1147.28 9.54393 L1147.28 18.9825 L1139.83 18.9825 L1139.83 9.54393 Z" fill="#000000" fill-rule="nonzero" fill-opacity="1" /><path clip-path="url(#clip110)" d="M1162.88 9.54393 L1170.33 9.54393 L1170.33 72.576 L1162.88 72.576 L1162.88 9.54393 Z" fill="#000000" fill-rule="nonzero" fill-opacity="1" /><path clip-path="url(#clip110)" d="M1185.93 27.2059 L1193.38 27.2059 L1193.38 72.576 L1185.93 72.576 L1185.93 27.2059 M1185.93 9.54393 L1193.38 9.54393 L1193.38 18.9825 L1185.93 18.9825 L1185.93 9.54393 Z" fill="#000000" fill-rule="nonzero" fill-opacity="1" /><path clip-path="url(#clip110)" d="M1216.35 14.324 L1216.35 27.2059 L1231.7 27.2059 L1231.7 32.9987 L1216.35 32.9987 L1216.35 57.6282 Q1216.35 63.1779 1217.85 64.7578 Q1219.39 66.3376 1224.05 66.3376 L1231.7 66.3376 L1231.7 72.576 L1224.05 72.576 Q1215.42 72.576 1212.14 69.3758 Q1208.86 66.1351 1208.86 57.6282 L1208.86 32.9987 L1203.39 32.9987 L1203.39 27.2059 L1208.86 27.2059 L1208.86 14.324 L1216.35 14.324 Z" fill="#000000" fill-rule="nonzero" fill-opacity="1" /><path clip-path="url(#clip110)" d="M1260.39 76.7889 Q1257.23 84.8907 1254.23 87.3618 Q1251.23 89.8329 1246.21 89.8329 L1240.25 89.8329 L1240.25 83.5945 L1244.63 83.5945 Q1247.71 83.5945 1249.41 82.1361 Q1251.11 80.6778 1253.17 75.2496 L1254.51 71.8468 L1236.16 27.2059 L1244.06 27.2059 L1258.24 62.6918 L1272.42 27.2059 L1280.32 27.2059 L1260.39 76.7889 Z" fill="#000000" fill-rule="nonzero" fill-opacity="1" /><path clip-path="url(#clip110)" d="M1334.56 32.4315 Q1328.56 32.4315 1325.08 37.1306 Q1321.59 41.7891 1321.59 49.9314 Q1321.59 58.0738 1325.04 62.7728 Q1328.52 67.4314 1334.56 67.4314 Q1340.51 67.4314 1344 62.7323 Q1347.48 58.0333 1347.48 49.9314 Q1347.48 41.8701 1344 37.1711 Q1340.51 32.4315 1334.56 32.4315 M1334.56 26.1121 Q1344.28 26.1121 1349.83 32.4315 Q1355.38 38.7509 1355.38 49.9314 Q1355.38 61.0714 1349.83 67.4314 Q1344.28 73.7508 1334.56 73.7508 Q1324.79 73.7508 1319.24 67.4314 Q1313.74 61.0714 1313.74 49.9314 Q1313.74 38.7509 1319.24 32.4315 Q1324.79 26.1121 1334.56 26.1121 Z" fill="#000000" fill-rule="nonzero" fill-opacity="1" /><path clip-path="url(#clip110)" d="M1362.39 27.2059 L1370.29 27.2059 L1384.46 65.2844 L1398.64 27.2059 L1406.54 27.2059 L1389.53 72.576 L1379.4 72.576 L1362.39 27.2059 Z" fill="#000000" fill-rule="nonzero" fill-opacity="1" /><path clip-path="url(#clip110)" d="M1455.64 48.0275 L1455.64 51.6733 L1421.37 51.6733 Q1421.85 59.3701 1425.99 63.421 Q1430.16 67.4314 1437.57 67.4314 Q1441.87 67.4314 1445.88 66.3781 Q1449.93 65.3249 1453.9 63.2184 L1453.9 70.267 Q1449.89 71.9684 1445.67 72.8596 Q1441.46 73.7508 1437.13 73.7508 Q1426.27 73.7508 1419.91 67.4314 Q1413.59 61.1119 1413.59 50.3365 Q1413.59 39.1965 1419.59 32.6746 Q1425.62 26.1121 1435.83 26.1121 Q1444.99 26.1121 1450.29 32.0264 Q1455.64 37.9003 1455.64 48.0275 M1448.19 45.84 Q1448.1 39.7232 1444.74 36.0774 Q1441.42 32.4315 1435.91 32.4315 Q1429.67 32.4315 1425.91 35.9558 Q1422.18 39.4801 1421.61 45.8805 L1448.19 45.84 Z" fill="#000000" fill-rule="nonzero" fill-opacity="1" /><path clip-path="url(#clip110)" d="M1494.16 34.1734 Q1492.91 33.4443 1491.41 33.1202 Q1489.95 32.7556 1488.17 32.7556 Q1481.85 32.7556 1478.45 36.8875 Q1475.08 40.9789 1475.08 48.6757 L1475.08 72.576 L1467.59 72.576 L1467.59 27.2059 L1475.08 27.2059 L1475.08 34.2544 Q1477.43 30.1225 1481.2 28.1376 Q1484.97 26.1121 1490.36 26.1121 Q1491.12 26.1121 1492.06 26.2337 Q1492.99 26.3147 1494.12 26.5172 L1494.16 34.1734 Z" fill="#000000" fill-rule="nonzero" fill-opacity="1" /><path clip-path="url(#clip110)" d="M1535.73 14.324 L1535.73 27.2059 L1551.08 27.2059 L1551.08 32.9987 L1535.73 32.9987 L1535.73 57.6282 Q1535.73 63.1779 1537.22 64.7578 Q1538.76 66.3376 1543.42 66.3376 L1551.08 66.3376 L1551.08 72.576 L1543.42 72.576 Q1534.79 72.576 1531.51 69.3758 Q1528.23 66.1351 1528.23 57.6282 L1528.23 32.9987 L1522.76 32.9987 L1522.76 27.2059 L1528.23 27.2059 L1528.23 14.324 L1535.73 14.324 Z" fill="#000000" fill-rule="nonzero" fill-opacity="1" /><path clip-path="url(#clip110)" d="M1598.6 45.1919 L1598.6 72.576 L1591.14 72.576 L1591.14 45.4349 Q1591.14 38.994 1588.63 35.7938 Q1586.12 32.5936 1581.1 32.5936 Q1575.06 32.5936 1571.58 36.4419 Q1568.09 40.2903 1568.09 46.9338 L1568.09 72.576 L1560.6 72.576 L1560.6 9.54393 L1568.09 9.54393 L1568.09 34.2544 Q1570.77 30.163 1574.37 28.1376 Q1578.02 26.1121 1582.76 26.1121 Q1590.57 26.1121 1594.58 30.9732 Q1598.6 35.7938 1598.6 45.1919 Z" fill="#000000" fill-rule="nonzero" fill-opacity="1" /><path clip-path="url(#clip110)" d="M1652.27 48.0275 L1652.27 51.6733 L1618 51.6733 Q1618.49 59.3701 1622.62 63.421 Q1626.79 67.4314 1634.2 67.4314 Q1638.5 67.4314 1642.51 66.3781 Q1646.56 65.3249 1650.53 63.2184 L1650.53 70.267 Q1646.52 71.9684 1642.3 72.8596 Q1638.09 73.7508 1633.76 73.7508 Q1622.9 73.7508 1616.54 67.4314 Q1610.22 61.1119 1610.22 50.3365 Q1610.22 39.1965 1616.22 32.6746 Q1622.25 26.1121 1632.46 26.1121 Q1641.62 26.1121 1646.92 32.0264 Q1652.27 37.9003 1652.27 48.0275 M1644.82 45.84 Q1644.74 39.7232 1641.37 36.0774 Q1638.05 32.4315 1632.54 32.4315 Q1626.3 32.4315 1622.54 35.9558 Q1618.81 39.4801 1618.24 45.8805 L1644.82 45.84 Z" fill="#000000" fill-rule="nonzero" fill-opacity="1" /><path clip-path="url(#clip110)" d="M1699.38 18.8205 L1699.38 65.8515 L1709.27 65.8515 Q1721.78 65.8515 1727.58 60.1802 Q1733.41 54.509 1733.41 42.2752 Q1733.41 30.1225 1727.58 24.4918 Q1721.78 18.8205 1709.27 18.8205 L1699.38 18.8205 M1691.2 12.096 L1708.01 12.096 Q1725.59 12.096 1733.81 19.4281 Q1742.04 26.7198 1742.04 42.2752 Q1742.04 57.9117 1733.77 65.2439 Q1725.51 72.576 1708.01 72.576 L1691.2 72.576 L1691.2 12.096 Z" fill="#000000" fill-rule="nonzero" fill-opacity="1" /><path clip-path="url(#clip110)" d="M1754.76 27.2059 L1762.21 27.2059 L1762.21 72.576 L1754.76 72.576 L1754.76 27.2059 M1754.76 9.54393 L1762.21 9.54393 L1762.21 18.9825 L1754.76 18.9825 L1754.76 9.54393 Z" fill="#000000" fill-rule="nonzero" fill-opacity="1" /><path clip-path="url(#clip110)" d="M1813.13 35.9153 Q1815.93 30.8922 1819.82 28.5022 Q1823.7 26.1121 1828.97 26.1121 Q1836.06 26.1121 1839.91 31.0947 Q1843.76 36.0368 1843.76 45.1919 L1843.76 72.576 L1836.26 72.576 L1836.26 45.4349 Q1836.26 38.913 1833.95 35.7533 Q1831.64 32.5936 1826.9 32.5936 Q1821.11 32.5936 1817.75 36.4419 Q1814.39 40.2903 1814.39 46.9338 L1814.39 72.576 L1806.89 72.576 L1806.89 45.4349 Q1806.89 38.8725 1804.58 35.7533 Q1802.27 32.5936 1797.45 32.5936 Q1791.74 32.5936 1788.38 36.4824 Q1785.02 40.3308 1785.02 46.9338 L1785.02 72.576 L1777.52 72.576 L1777.52 27.2059 L1785.02 27.2059 L1785.02 34.2544 Q1787.57 30.082 1791.13 28.0971 Q1794.7 26.1121 1799.6 26.1121 Q1804.54 26.1121 1807.99 28.6237 Q1811.47 31.1352 1813.13 35.9153 Z" fill="#000000" fill-rule="nonzero" fill-opacity="1" /><path clip-path="url(#clip110)" d="M1859.68 62.2867 L1868.22 62.2867 L1868.22 72.576 L1859.68 72.576 L1859.68 62.2867 Z" fill="#000000" fill-rule="nonzero" fill-opacity="1" /><path clip-path="url(#clip110)" d="M1928.95 32.4315 Q1922.95 32.4315 1919.47 37.1306 Q1915.98 41.7891 1915.98 49.9314 Q1915.98 58.0738 1919.43 62.7728 Q1922.91 67.4314 1928.95 67.4314 Q1934.9 67.4314 1938.39 62.7323 Q1941.87 58.0333 1941.87 49.9314 Q1941.87 41.8701 1938.39 37.1711 Q1934.9 32.4315 1928.95 32.4315 M1928.95 26.1121 Q1938.67 26.1121 1944.22 32.4315 Q1949.77 38.7509 1949.77 49.9314 Q1949.77 61.0714 1944.22 67.4314 Q1938.67 73.7508 1928.95 73.7508 Q1919.18 73.7508 1913.63 67.4314 Q1908.12 61.0714 1908.12 49.9314 Q1908.12 38.7509 1913.63 32.4315 Q1919.18 26.1121 1928.95 26.1121 Z" fill="#000000" fill-rule="nonzero" fill-opacity="1" /><path clip-path="url(#clip110)" d="M1985.09 9.54393 L1985.09 15.7418 L1977.96 15.7418 Q1973.95 15.7418 1972.37 17.3622 Q1970.83 18.9825 1970.83 23.1955 L1970.83 27.2059 L1983.11 27.2059 L1983.11 32.9987 L1970.83 32.9987 L1970.83 72.576 L1963.34 72.576 L1963.34 32.9987 L1956.21 32.9987 L1956.21 27.2059 L1963.34 27.2059 L1963.34 24.0462 Q1963.34 16.471 1966.86 13.0277 Q1970.39 9.54393 1978.04 9.54393 L1985.09 9.54393 Z" fill="#000000" fill-rule="nonzero" fill-opacity="1" /><path clip-path="url(#clip110)" d="M2054.28 14.0809 L2054.28 22.0612 Q2049.62 19.8332 2045.49 18.7395 Q2041.36 17.6457 2037.51 17.6457 Q2030.83 17.6457 2027.18 20.2383 Q2023.58 22.8309 2023.58 27.611 Q2023.58 31.6214 2025.97 33.6873 Q2028.4 35.7128 2035.12 36.9686 L2040.06 37.9813 Q2049.22 39.7232 2053.55 44.1387 Q2057.93 48.5136 2057.93 55.8863 Q2057.93 64.6767 2052.01 69.2137 Q2046.14 73.7508 2034.76 73.7508 Q2030.46 73.7508 2025.6 72.7785 Q2020.78 71.8063 2015.6 69.9024 L2015.6 61.4765 Q2020.58 64.2716 2025.36 65.6895 Q2030.14 67.1073 2034.76 67.1073 Q2041.76 67.1073 2045.57 64.3527 Q2049.38 61.598 2049.38 56.4939 Q2049.38 52.0379 2046.63 49.5264 Q2043.91 47.0148 2037.67 45.759 L2032.69 44.7868 Q2023.54 42.9639 2019.44 39.075 Q2015.35 35.1862 2015.35 28.2591 Q2015.35 20.2383 2020.98 15.6203 Q2026.65 11.0023 2036.58 11.0023 Q2040.83 11.0023 2045.25 11.7719 Q2049.66 12.5416 2054.28 14.0809 Z" fill="#000000" fill-rule="nonzero" fill-opacity="1" /><path clip-path="url(#clip110)" d="M2077.57 65.7705 L2077.57 89.8329 L2070.08 89.8329 L2070.08 27.2059 L2077.57 27.2059 L2077.57 34.0924 Q2079.92 30.0415 2083.49 28.0971 Q2087.09 26.1121 2092.08 26.1121 Q2100.34 26.1121 2105.48 32.6746 Q2110.67 39.2371 2110.67 49.9314 Q2110.67 60.6258 2105.48 67.1883 Q2100.34 73.7508 2092.08 73.7508 Q2087.09 73.7508 2083.49 71.8063 Q2079.92 69.8214 2077.57 65.7705 M2102.93 49.9314 Q2102.93 41.7081 2099.53 37.0496 Q2096.17 32.3505 2090.25 32.3505 Q2084.34 32.3505 2080.94 37.0496 Q2077.57 41.7081 2077.57 49.9314 Q2077.57 58.1548 2080.94 62.8538 Q2084.34 67.5124 2090.25 67.5124 Q2096.17 67.5124 2099.53 62.8538 Q2102.93 58.1548 2102.93 49.9314 Z" fill="#000000" fill-rule="nonzero" fill-opacity="1" /><path clip-path="url(#clip110)" d="M2123.03 27.2059 L2130.48 27.2059 L2130.48 72.576 L2123.03 72.576 L2123.03 27.2059 M2123.03 9.54393 L2130.48 9.54393 L2130.48 18.9825 L2123.03 18.9825 L2123.03 9.54393 Z" fill="#000000" fill-rule="nonzero" fill-opacity="1" /><path clip-path="url(#clip110)" d="M2183.79 45.1919 L2183.79 72.576 L2176.34 72.576 L2176.34 45.4349 Q2176.34 38.994 2173.82 35.7938 Q2171.31 32.5936 2166.29 32.5936 Q2160.25 32.5936 2156.77 36.4419 Q2153.29 40.2903 2153.29 46.9338 L2153.29 72.576 L2145.79 72.576 L2145.79 27.2059 L2153.29 27.2059 L2153.29 34.2544 Q2155.96 30.163 2159.56 28.1376 Q2163.21 26.1121 2167.95 26.1121 Q2175.77 26.1121 2179.78 30.9732 Q2183.79 35.7938 2183.79 45.1919 Z" fill="#000000" fill-rule="nonzero" fill-opacity="1" /><path clip-path="url(#clip110)" d="M2227.58 28.5427 L2227.58 35.5912 Q2224.42 33.9709 2221.02 33.1607 Q2217.61 32.3505 2213.97 32.3505 Q2208.42 32.3505 2205.62 34.0519 Q2202.87 35.7533 2202.87 39.156 Q2202.87 41.7486 2204.85 43.2475 Q2206.84 44.7058 2212.83 46.0426 L2215.39 46.6097 Q2223.33 48.3111 2226.65 51.4303 Q2230.01 54.509 2230.01 60.0587 Q2230.01 66.3781 2224.99 70.0644 Q2220 73.7508 2211.25 73.7508 Q2207.61 73.7508 2203.64 73.0216 Q2199.71 72.3329 2195.33 70.9151 L2195.33 63.2184 Q2199.47 65.3654 2203.48 66.4591 Q2207.49 67.5124 2211.42 67.5124 Q2216.68 67.5124 2219.52 65.73 Q2222.35 63.9071 2222.35 60.6258 Q2222.35 57.5877 2220.29 55.9673 Q2218.26 54.3469 2211.34 52.8481 L2208.74 52.2405 Q2201.82 50.7821 2198.74 47.7845 Q2195.66 44.7463 2195.66 39.4801 Q2195.66 33.0797 2200.2 29.5959 Q2204.73 26.1121 2213.08 26.1121 Q2217.21 26.1121 2220.85 26.7198 Q2224.5 27.3274 2227.58 28.5427 Z" fill="#000000" fill-rule="nonzero" fill-opacity="1" /><circle clip-path="url(#clip112)" cx="265.903" cy="1386.4" r="14.4" fill="#009af9" fill-rule="evenodd" fill-opacity="1" stroke="#000000" stroke-opacity="1" stroke-width="3.2"/>
<circle clip-path="url(#clip112)" cx="372.538" cy="1373.94" r="14.4" fill="#009af9" fill-rule="evenodd" fill-opacity="1" stroke="#000000" stroke-opacity="1" stroke-width="3.2"/>
<circle clip-path="url(#clip112)" cx="479.174" cy="1370.66" r="14.4" fill="#009af9" fill-rule="evenodd" fill-opacity="1" stroke="#000000" stroke-opacity="1" stroke-width="3.2"/>
<circle clip-path="url(#clip112)" cx="585.809" cy="1362.71" r="14.4" fill="#009af9" fill-rule="evenodd" fill-opacity="1" stroke="#000000" stroke-opacity="1" stroke-width="3.2"/>
<circle clip-path="url(#clip112)" cx="692.444" cy="1277.34" r="14.4" fill="#009af9" fill-rule="evenodd" fill-opacity="1" stroke="#000000" stroke-opacity="1" stroke-width="3.2"/>
<circle clip-path="url(#clip112)" cx="799.08" cy="160.256" r="14.4" fill="#009af9" fill-rule="evenodd" fill-opacity="1" stroke="#000000" stroke-opacity="1" stroke-width="3.2"/>
<circle clip-path="url(#clip112)" cx="905.715" cy="1108.57" r="14.4" fill="#009af9" fill-rule="evenodd" fill-opacity="1" stroke="#000000" stroke-opacity="1" stroke-width="3.2"/>
<circle clip-path="url(#clip112)" cx="1012.35" cy="301.545" r="14.4" fill="#009af9" fill-rule="evenodd" fill-opacity="1" stroke="#000000" stroke-opacity="1" stroke-width="3.2"/>
<circle clip-path="url(#clip112)" cx="1118.99" cy="364.511" r="14.4" fill="#009af9" fill-rule="evenodd" fill-opacity="1" stroke="#000000" stroke-opacity="1" stroke-width="3.2"/>
<circle clip-path="url(#clip112)" cx="1225.62" cy="415.833" r="14.4" fill="#009af9" fill-rule="evenodd" fill-opacity="1" stroke="#000000" stroke-opacity="1" stroke-width="3.2"/>
<circle clip-path="url(#clip112)" cx="1332.26" cy="459.785" r="14.4" fill="#009af9" fill-rule="evenodd" fill-opacity="1" stroke="#000000" stroke-opacity="1" stroke-width="3.2"/>
<circle clip-path="url(#clip112)" cx="1438.89" cy="499.482" r="14.4" fill="#009af9" fill-rule="evenodd" fill-opacity="1" stroke="#000000" stroke-opacity="1" stroke-width="3.2"/>
<circle clip-path="url(#clip112)" cx="1545.53" cy="534.763" r="14.4" fill="#009af9" fill-rule="evenodd" fill-opacity="1" stroke="#000000" stroke-opacity="1" stroke-width="3.2"/>
<circle clip-path="url(#clip112)" cx="1652.16" cy="565.269" r="14.4" fill="#009af9" fill-rule="evenodd" fill-opacity="1" stroke="#000000" stroke-opacity="1" stroke-width="3.2"/>
<circle clip-path="url(#clip112)" cx="1758.8" cy="593.05" r="14.4" fill="#009af9" fill-rule="evenodd" fill-opacity="1" stroke="#000000" stroke-opacity="1" stroke-width="3.2"/>
<circle clip-path="url(#clip112)" cx="1865.43" cy="618.31" r="14.4" fill="#009af9" fill-rule="evenodd" fill-opacity="1" stroke="#000000" stroke-opacity="1" stroke-width="3.2"/>
<circle clip-path="url(#clip112)" cx="1972.07" cy="641.253" r="14.4" fill="#009af9" fill-rule="evenodd" fill-opacity="1" stroke="#000000" stroke-opacity="1" stroke-width="3.2"/>
<circle clip-path="url(#clip112)" cx="2078.7" cy="661.879" r="14.4" fill="#009af9" fill-rule="evenodd" fill-opacity="1" stroke="#000000" stroke-opacity="1" stroke-width="3.2"/>
<circle clip-path="url(#clip112)" cx="2185.34" cy="681.639" r="14.4" fill="#009af9" fill-rule="evenodd" fill-opacity="1" stroke="#000000" stroke-opacity="1" stroke-width="3.2"/>
<circle clip-path="url(#clip112)" cx="2291.97" cy="699.386" r="14.4" fill="#009af9" fill-rule="evenodd" fill-opacity="1" stroke="#000000" stroke-opacity="1" stroke-width="3.2"/>
</svg>
