<?xml version="1.0" encoding="utf-8"?>
<svg xmlns="http://www.w3.org/2000/svg" xmlns:xlink="http://www.w3.org/1999/xlink" width="600" height="400" viewBox="0 0 2400 1600">
<defs>
  <clipPath id="clip090">
    <rect x="0" y="0" width="2400" height="1600"/>
  </clipPath>
</defs>
<path clip-path="url(#clip090)" d="M0 1600 L2400 1600 L2400 0 L0 0  Z" fill="#ffffff" fill-rule="evenodd" fill-opacity="1"/>
<defs>
  <clipPath id="clip091">
    <rect x="480" y="0" width="1681" height="1600"/>
  </clipPath>
</defs>
<path clip-path="url(#clip090)" d="M249.542 1423.18 L2352.76 1423.18 L2352.76 123.472 L249.542 123.472  Z" fill="#ffffff" fill-rule="evenodd" fill-opacity="1"/>
<defs>
  <clipPath id="clip092">
    <rect x="249" y="123" width="2104" height="1301"/>
  </clipPath>
</defs>
<polyline clip-path="url(#clip092)" style="stroke:#000000; stroke-linecap:round; stroke-linejoin:round; stroke-width:2; stroke-opacity:0.1; fill:none" points="306.584,1423.18 306.584,123.472 "/>
<polyline clip-path="url(#clip092)" style="stroke:#000000; stroke-linecap:round; stroke-linejoin:round; stroke-width:2; stroke-opacity:0.1; fill:none" points="803.245,1423.18 803.245,123.472 "/>
<polyline clip-path="url(#clip092)" style="stroke:#000000; stroke-linecap:round; stroke-linejoin:round; stroke-width:2; stroke-opacity:0.1; fill:none" points="1299.91,1423.18 1299.91,123.472 "/>
<polyline clip-path="url(#clip092)" style="stroke:#000000; stroke-linecap:round; stroke-linejoin:round; stroke-width:2; stroke-opacity:0.1; fill:none" points="1796.57,1423.18 1796.57,123.472 "/>
<polyline clip-path="url(#clip092)" style="stroke:#000000; stroke-linecap:round; stroke-linejoin:round; stroke-width:2; stroke-opacity:0.1; fill:none" points="2293.23,1423.18 2293.23,123.472 "/>
<polyline clip-path="url(#clip092)" style="stroke:#000000; stroke-linecap:round; stroke-linejoin:round; stroke-width:2; stroke-opacity:0.1; fill:none" points="249.542,1386.4 2352.76,1386.4 "/>
<polyline clip-path="url(#clip092)" style="stroke:#000000; stroke-linecap:round; stroke-linejoin:round; stroke-width:2; stroke-opacity:0.1; fill:none" points="249.542,1079.86 2352.76,1079.86 "/>
<polyline clip-path="url(#clip092)" style="stroke:#000000; stroke-linecap:round; stroke-linejoin:round; stroke-width:2; stroke-opacity:0.1; fill:none" points="249.542,773.326 2352.76,773.326 "/>
<polyline clip-path="url(#clip092)" style="stroke:#000000; stroke-linecap:round; stroke-linejoin:round; stroke-width:2; stroke-opacity:0.1; fill:none" points="249.542,466.791 2352.76,466.791 "/>
<polyline clip-path="url(#clip092)" style="stroke:#000000; stroke-linecap:round; stroke-linejoin:round; stroke-width:2; stroke-opacity:0.1; fill:none" points="249.542,160.256 2352.76,160.256 "/>
<polyline clip-path="url(#clip090)" style="stroke:#000000; stroke-linecap:round; stroke-linejoin:round; stroke-width:4; stroke-opacity:1; fill:none" points="249.542,1423.18 2352.76,1423.18 "/>
<polyline clip-path="url(#clip090)" style="stroke:#000000; stroke-linecap:round; stroke-linejoin:round; stroke-width:4; stroke-opacity:1; fill:none" points="306.584,1423.18 306.584,1404.28 "/>
<polyline clip-path="url(#clip090)" style="stroke:#000000; stroke-linecap:round; stroke-linejoin:round; stroke-width:4; stroke-opacity:1; fill:none" points="803.245,1423.18 803.245,1404.28 "/>
<polyline clip-path="url(#clip090)" style="stroke:#000000; stroke-linecap:round; stroke-linejoin:round; stroke-width:4; stroke-opacity:1; fill:none" points="1299.91,1423.18 1299.91,1404.28 "/>
<polyline clip-path="url(#clip090)" style="stroke:#000000; stroke-linecap:round; stroke-linejoin:round; stroke-width:4; stroke-opacity:1; fill:none" points="1796.57,1423.18 1796.57,1404.28 "/>
<polyline clip-path="url(#clip090)" style="stroke:#000000; stroke-linecap:round; stroke-linejoin:round; stroke-width:4; stroke-opacity:1; fill:none" points="2293.23,1423.18 2293.23,1404.28 "/>
<path clip-path="url(#clip090)" d="M306.584 1454.1 Q302.973 1454.1 301.144 1457.66 Q299.338 1461.2 299.338 1468.33 Q299.338 1475.44 301.144 1479.01 Q302.973 1482.55 306.584 1482.55 Q310.218 1482.55 312.023 1479.01 Q313.852 1475.44 313.852 1468.33 Q313.852 1461.2 312.023 1457.66 Q310.218 1454.1 306.584 1454.1 M306.584 1450.39 Q312.394 1450.39 315.449 1455 Q318.528 1459.58 318.528 1468.33 Q318.528 1477.06 315.449 1481.67 Q312.394 1486.25 306.584 1486.25 Q300.773 1486.25 297.695 1481.67 Q294.639 1477.06 294.639 1468.33 Q294.639 1459.58 297.695 1455 Q300.773 1450.39 306.584 1450.39 Z" fill="#000000" fill-rule="nonzero" fill-opacity="1" /><path clip-path="url(#clip090)" d="M766.938 1481.64 L783.257 1481.64 L783.257 1485.58 L761.313 1485.58 L761.313 1481.64 Q763.975 1478.89 768.558 1474.26 Q773.165 1469.61 774.345 1468.27 Q776.591 1465.74 777.47 1464.01 Q778.373 1462.25 778.373 1460.56 Q778.373 1457.8 776.428 1456.07 Q774.507 1454.33 771.405 1454.33 Q769.206 1454.33 766.753 1455.09 Q764.322 1455.86 761.544 1457.41 L761.544 1452.69 Q764.368 1451.55 766.822 1450.97 Q769.276 1450.39 771.313 1450.39 Q776.683 1450.39 779.878 1453.08 Q783.072 1455.77 783.072 1460.26 Q783.072 1462.39 782.262 1464.31 Q781.475 1466.2 779.368 1468.8 Q778.79 1469.47 775.688 1472.69 Q772.586 1475.88 766.938 1481.64 Z" fill="#000000" fill-rule="nonzero" fill-opacity="1" /><path clip-path="url(#clip090)" d="M803.072 1454.1 Q799.461 1454.1 797.632 1457.66 Q795.827 1461.2 795.827 1468.33 Q795.827 1475.44 797.632 1479.01 Q799.461 1482.55 803.072 1482.55 Q806.706 1482.55 808.512 1479.01 Q810.34 1475.44 810.34 1468.33 Q810.34 1461.2 808.512 1457.66 Q806.706 1454.1 803.072 1454.1 M803.072 1450.39 Q808.882 1450.39 811.938 1455 Q815.016 1459.58 815.016 1468.33 Q815.016 1477.06 811.938 1481.67 Q808.882 1486.25 803.072 1486.25 Q797.262 1486.25 794.183 1481.67 Q791.127 1477.06 791.127 1468.33 Q791.127 1459.58 794.183 1455 Q797.262 1450.39 803.072 1450.39 Z" fill="#000000" fill-rule="nonzero" fill-opacity="1" /><path clip-path="url(#clip090)" d="M833.234 1454.1 Q829.623 1454.1 827.794 1457.66 Q825.988 1461.2 825.988 1468.33 Q825.988 1475.44 827.794 1479.01 Q829.623 1482.55 833.234 1482.55 Q836.868 1482.55 838.674 1479.01 Q840.502 1475.44 840.502 1468.33 Q840.502 1461.2 838.674 1457.66 Q836.868 1454.1 833.234 1454.1 M833.234 1450.39 Q839.044 1450.39 842.099 1455 Q845.178 1459.58 845.178 1468.33 Q845.178 1477.06 842.099 1481.67 Q839.044 1486.25 833.234 1486.25 Q827.424 1486.25 824.345 1481.67 Q821.289 1477.06 821.289 1468.33 Q821.289 1459.58 824.345 1455 Q827.424 1450.39 833.234 1450.39 Z" fill="#000000" fill-rule="nonzero" fill-opacity="1" /><path clip-path="url(#clip090)" d="M1273 1455.09 L1261.19 1473.54 L1273 1473.54 L1273 1455.09 M1271.77 1451.02 L1277.65 1451.02 L1277.65 1473.54 L1282.58 1473.54 L1282.58 1477.43 L1277.65 1477.43 L1277.65 1485.58 L1273 1485.58 L1273 1477.43 L1257.4 1477.43 L1257.4 1472.92 L1271.77 1451.02 Z" fill="#000000" fill-rule="nonzero" fill-opacity="1" /><path clip-path="url(#clip090)" d="M1300.31 1454.1 Q1296.7 1454.1 1294.87 1457.66 Q1293.07 1461.2 1293.07 1468.33 Q1293.07 1475.44 1294.87 1479.01 Q1296.7 1482.55 1300.31 1482.55 Q1303.95 1482.55 1305.75 1479.01 Q1307.58 1475.44 1307.58 1468.33 Q1307.58 1461.2 1305.75 1457.66 Q1303.95 1454.1 1300.31 1454.1 M1300.31 1450.39 Q1306.12 1450.39 1309.18 1455 Q1312.26 1459.58 1312.26 1468.33 Q1312.26 1477.06 1309.18 1481.67 Q1306.12 1486.25 1300.31 1486.25 Q1294.5 1486.25 1291.42 1481.67 Q1288.37 1477.06 1288.37 1468.33 Q1288.37 1459.58 1291.42 1455 Q1294.5 1450.39 1300.31 1450.39 Z" fill="#000000" fill-rule="nonzero" fill-opacity="1" /><path clip-path="url(#clip090)" d="M1330.47 1454.1 Q1326.86 1454.1 1325.03 1457.66 Q1323.23 1461.2 1323.23 1468.33 Q1323.23 1475.44 1325.03 1479.01 Q1326.86 1482.55 1330.47 1482.55 Q1334.11 1482.55 1335.91 1479.01 Q1337.74 1475.44 1337.74 1468.33 Q1337.74 1461.2 1335.91 1457.66 Q1334.11 1454.1 1330.47 1454.1 M1330.47 1450.39 Q1336.28 1450.39 1339.34 1455 Q1342.42 1459.58 1342.42 1468.33 Q1342.42 1477.06 1339.34 1481.67 Q1336.28 1486.25 1330.47 1486.25 Q1324.66 1486.25 1321.59 1481.67 Q1318.53 1477.06 1318.53 1468.33 Q1318.53 1459.58 1321.59 1455 Q1324.66 1450.39 1330.47 1450.39 Z" fill="#000000" fill-rule="nonzero" fill-opacity="1" /><path clip-path="url(#clip090)" d="M1766.89 1466.44 Q1763.75 1466.44 1761.89 1468.59 Q1760.06 1470.74 1760.06 1474.49 Q1760.06 1478.22 1761.89 1480.39 Q1763.75 1482.55 1766.89 1482.55 Q1770.04 1482.55 1771.87 1480.39 Q1773.72 1478.22 1773.72 1474.49 Q1773.72 1470.74 1771.87 1468.59 Q1770.04 1466.44 1766.89 1466.44 M1776.18 1451.78 L1776.18 1456.04 Q1774.42 1455.21 1772.61 1454.77 Q1770.83 1454.33 1769.07 1454.33 Q1764.44 1454.33 1761.99 1457.45 Q1759.56 1460.58 1759.21 1466.9 Q1760.57 1464.89 1762.63 1463.82 Q1764.69 1462.73 1767.17 1462.73 Q1772.38 1462.73 1775.39 1465.9 Q1778.42 1469.05 1778.42 1474.49 Q1778.42 1479.82 1775.27 1483.03 Q1772.12 1486.25 1766.89 1486.25 Q1760.9 1486.25 1757.73 1481.67 Q1754.56 1477.06 1754.56 1468.33 Q1754.56 1460.14 1758.44 1455.28 Q1762.33 1450.39 1768.88 1450.39 Q1770.64 1450.39 1772.43 1450.74 Q1774.23 1451.09 1776.18 1451.78 Z" fill="#000000" fill-rule="nonzero" fill-opacity="1" /><path clip-path="url(#clip090)" d="M1796.48 1454.1 Q1792.87 1454.1 1791.04 1457.66 Q1789.23 1461.2 1789.23 1468.33 Q1789.23 1475.44 1791.04 1479.01 Q1792.87 1482.55 1796.48 1482.55 Q1800.11 1482.55 1801.92 1479.01 Q1803.75 1475.44 1803.75 1468.33 Q1803.75 1461.2 1801.92 1457.66 Q1800.11 1454.1 1796.48 1454.1 M1796.48 1450.39 Q1802.29 1450.39 1805.34 1455 Q1808.42 1459.58 1808.42 1468.33 Q1808.42 1477.06 1805.34 1481.67 Q1802.29 1486.25 1796.48 1486.25 Q1790.67 1486.25 1787.59 1481.67 Q1784.53 1477.06 1784.53 1468.33 Q1784.53 1459.58 1787.59 1455 Q1790.67 1450.39 1796.48 1450.39 Z" fill="#000000" fill-rule="nonzero" fill-opacity="1" /><path clip-path="url(#clip090)" d="M1826.64 1454.1 Q1823.03 1454.1 1821.2 1457.66 Q1819.39 1461.2 1819.39 1468.33 Q1819.39 1475.44 1821.2 1479.01 Q1823.03 1482.55 1826.64 1482.55 Q1830.27 1482.55 1832.08 1479.01 Q1833.91 1475.44 1833.91 1468.33 Q1833.91 1461.2 1832.08 1457.66 Q1830.27 1454.1 1826.64 1454.1 M1826.64 1450.39 Q1832.45 1450.39 1835.5 1455 Q1838.58 1459.58 1838.58 1468.33 Q1838.58 1477.06 1835.5 1481.67 Q1832.45 1486.25 1826.64 1486.25 Q1820.83 1486.25 1817.75 1481.67 Q1814.69 1477.06 1814.69 1468.33 Q1814.69 1459.58 1817.75 1455 Q1820.83 1450.39 1826.64 1450.39 Z" fill="#000000" fill-rule="nonzero" fill-opacity="1" /><path clip-path="url(#clip090)" d="M2263.02 1469.17 Q2259.69 1469.17 2257.77 1470.95 Q2255.87 1472.73 2255.87 1475.86 Q2255.87 1478.98 2257.77 1480.77 Q2259.69 1482.55 2263.02 1482.55 Q2266.36 1482.55 2268.28 1480.77 Q2270.2 1478.96 2270.2 1475.86 Q2270.2 1472.73 2268.28 1470.95 Q2266.38 1469.17 2263.02 1469.17 M2258.35 1467.18 Q2255.34 1466.44 2253.65 1464.38 Q2251.98 1462.32 2251.98 1459.35 Q2251.98 1455.21 2254.92 1452.8 Q2257.88 1450.39 2263.02 1450.39 Q2268.18 1450.39 2271.12 1452.8 Q2274.06 1455.21 2274.06 1459.35 Q2274.06 1462.32 2272.37 1464.38 Q2270.71 1466.44 2267.72 1467.18 Q2271.1 1467.96 2272.98 1470.26 Q2274.87 1472.55 2274.87 1475.86 Q2274.87 1480.88 2271.8 1483.57 Q2268.74 1486.25 2263.02 1486.25 Q2257.31 1486.25 2254.23 1483.57 Q2251.17 1480.88 2251.17 1475.86 Q2251.17 1472.55 2253.07 1470.26 Q2254.97 1467.96 2258.35 1467.18 M2256.63 1459.79 Q2256.63 1462.48 2258.3 1463.98 Q2259.99 1465.49 2263.02 1465.49 Q2266.03 1465.49 2267.72 1463.98 Q2269.43 1462.48 2269.43 1459.79 Q2269.43 1457.11 2267.72 1455.6 Q2266.03 1454.1 2263.02 1454.1 Q2259.99 1454.1 2258.3 1455.6 Q2256.63 1457.11 2256.63 1459.79 Z" fill="#000000" fill-rule="nonzero" fill-opacity="1" /><path clip-path="url(#clip090)" d="M2293.18 1454.1 Q2289.57 1454.1 2287.74 1457.66 Q2285.94 1461.2 2285.94 1468.33 Q2285.94 1475.44 2287.74 1479.01 Q2289.57 1482.55 2293.18 1482.55 Q2296.82 1482.55 2298.62 1479.01 Q2300.45 1475.44 2300.45 1468.33 Q2300.45 1461.2 2298.62 1457.66 Q2296.82 1454.1 2293.18 1454.1 M2293.18 1450.39 Q2298.99 1450.39 2302.05 1455 Q2305.13 1459.58 2305.13 1468.33 Q2305.13 1477.06 2302.05 1481.67 Q2298.99 1486.25 2293.18 1486.25 Q2287.37 1486.25 2284.3 1481.67 Q2281.24 1477.06 2281.24 1468.33 Q2281.24 1459.58 2284.3 1455 Q2287.37 1450.39 2293.18 1450.39 Z" fill="#000000" fill-rule="nonzero" fill-opacity="1" /><path clip-path="url(#clip090)" d="M2323.35 1454.1 Q2319.74 1454.1 2317.91 1457.66 Q2316.1 1461.2 2316.1 1468.33 Q2316.1 1475.44 2317.91 1479.01 Q2319.74 1482.55 2323.35 1482.55 Q2326.98 1482.55 2328.79 1479.01 Q2330.62 1475.44 2330.62 1468.33 Q2330.62 1461.2 2328.79 1457.66 Q2326.98 1454.1 2323.35 1454.1 M2323.35 1450.39 Q2329.16 1450.39 2332.21 1455 Q2335.29 1459.58 2335.29 1468.33 Q2335.29 1477.06 2332.21 1481.67 Q2329.16 1486.25 2323.35 1486.25 Q2317.54 1486.25 2314.46 1481.67 Q2311.4 1477.06 2311.4 1468.33 Q2311.4 1459.58 2314.46 1455 Q2317.54 1450.39 2323.35 1450.39 Z" fill="#000000" fill-rule="nonzero" fill-opacity="1" /><path clip-path="url(#clip090)" d="M939.927 1520.52 L948.584 1520.52 L969.655 1560.28 L969.655 1520.52 L975.893 1520.52 L975.893 1568.04 L967.236 1568.04 L946.165 1528.29 L946.165 1568.04 L939.927 1568.04 L939.927 1520.52 Z" fill="#000000" fill-rule="nonzero" fill-opacity="1" /><path clip-path="url(#clip090)" d="M1022.97 1536.5 Q1018.26 1536.5 1015.52 1540.19 Q1012.78 1543.85 1012.78 1550.25 Q1012.78 1556.65 1015.49 1560.34 Q1018.23 1564 1022.97 1564 Q1027.65 1564 1030.38 1560.31 Q1033.12 1556.62 1033.12 1550.25 Q1033.12 1543.92 1030.38 1540.23 Q1027.65 1536.5 1022.97 1536.5 M1022.97 1531.54 Q1030.61 1531.54 1034.97 1536.5 Q1039.33 1541.47 1039.33 1550.25 Q1039.33 1559 1034.97 1564 Q1030.61 1568.97 1022.97 1568.97 Q1015.3 1568.97 1010.94 1564 Q1006.61 1559 1006.61 1550.25 Q1006.61 1541.47 1010.94 1536.5 Q1015.3 1531.54 1022.97 1531.54 Z" fill="#000000" fill-rule="nonzero" fill-opacity="1" /><path clip-path="url(#clip090)" d="M1067.08 1518.52 L1067.08 1523.39 L1061.48 1523.39 Q1058.33 1523.39 1057.09 1524.66 Q1055.88 1525.93 1055.88 1529.24 L1055.88 1532.4 L1065.52 1532.4 L1065.52 1536.95 L1055.88 1536.95 L1055.88 1568.04 L1049.99 1568.04 L1049.99 1536.95 L1044.39 1536.95 L1044.39 1532.4 L1049.99 1532.4 L1049.99 1529.91 Q1049.99 1523.96 1052.76 1521.26 Q1055.53 1518.52 1061.54 1518.52 L1067.08 1518.52 Z" fill="#000000" fill-rule="nonzero" fill-opacity="1" /><path clip-path="url(#clip090)" d="M1092.7 1532.4 L1098.56 1532.4 L1098.56 1568.04 L1092.7 1568.04 L1092.7 1532.4 M1092.7 1518.52 L1098.56 1518.52 L1098.56 1525.93 L1092.7 1525.93 L1092.7 1518.52 Z" fill="#000000" fill-rule="nonzero" fill-opacity="1" /><path clip-path="url(#clip090)" d="M1116.61 1522.27 L1116.61 1532.4 L1128.67 1532.4 L1128.67 1536.95 L1116.61 1536.95 L1116.61 1556.3 Q1116.61 1560.66 1117.78 1561.9 Q1118.99 1563.14 1122.65 1563.14 L1128.67 1563.14 L1128.67 1568.04 L1122.65 1568.04 Q1115.88 1568.04 1113.3 1565.53 Q1110.72 1562.98 1110.72 1556.3 L1110.72 1536.95 L1106.42 1536.95 L1106.42 1532.4 L1110.72 1532.4 L1110.72 1522.27 L1116.61 1522.27 Z" fill="#000000" fill-rule="nonzero" fill-opacity="1" /><path clip-path="url(#clip090)" d="M1166.86 1548.76 L1166.86 1551.62 L1139.94 1551.62 Q1140.32 1557.67 1143.57 1560.85 Q1146.84 1564 1152.67 1564 Q1156.04 1564 1159.19 1563.17 Q1162.38 1562.35 1165.5 1560.69 L1165.5 1566.23 Q1162.34 1567.57 1159.03 1568.27 Q1155.72 1568.97 1152.32 1568.97 Q1143.79 1568.97 1138.79 1564 Q1133.83 1559.04 1133.83 1550.57 Q1133.83 1541.82 1138.54 1536.69 Q1143.28 1531.54 1151.3 1531.54 Q1158.49 1531.54 1162.66 1536.18 Q1166.86 1540.8 1166.86 1548.76 M1161.01 1547.04 Q1160.94 1542.23 1158.3 1539.37 Q1155.69 1536.5 1151.36 1536.5 Q1146.46 1536.5 1143.5 1539.27 Q1140.57 1542.04 1140.13 1547.07 L1161.01 1547.04 Z" fill="#000000" fill-rule="nonzero" fill-opacity="1" /><path clip-path="url(#clip090)" d="M1197.13 1537.87 Q1196.15 1537.3 1194.97 1537.04 Q1193.82 1536.76 1192.42 1536.76 Q1187.46 1536.76 1184.78 1540 Q1182.14 1543.22 1182.14 1549.27 L1182.14 1568.04 L1176.25 1568.04 L1176.25 1532.4 L1182.14 1532.4 L1182.14 1537.93 Q1183.99 1534.69 1186.95 1533.13 Q1189.91 1531.54 1194.14 1531.54 Q1194.75 1531.54 1195.48 1531.63 Q1196.21 1531.7 1197.1 1531.85 L1197.13 1537.87 Z" fill="#000000" fill-rule="nonzero" fill-opacity="1" /><path clip-path="url(#clip090)" d="M1219.48 1550.12 Q1212.38 1550.12 1209.64 1551.75 Q1206.9 1553.37 1206.9 1557.29 Q1206.9 1560.4 1208.94 1562.25 Q1211.01 1564.07 1214.54 1564.07 Q1219.41 1564.07 1222.34 1560.63 Q1225.3 1557.16 1225.3 1551.43 L1225.3 1550.12 L1219.48 1550.12 M1231.16 1547.71 L1231.16 1568.04 L1225.3 1568.04 L1225.3 1562.63 Q1223.3 1565.88 1220.3 1567.44 Q1217.31 1568.97 1212.98 1568.97 Q1207.51 1568.97 1204.26 1565.91 Q1201.05 1562.82 1201.05 1557.67 Q1201.05 1551.65 1205.06 1548.6 Q1209.1 1545.54 1217.09 1545.54 L1225.3 1545.54 L1225.3 1544.97 Q1225.3 1540.93 1222.63 1538.73 Q1219.99 1536.5 1215.18 1536.5 Q1212.12 1536.5 1209.23 1537.23 Q1206.33 1537.97 1203.66 1539.43 L1203.66 1534.02 Q1206.87 1532.78 1209.9 1532.17 Q1212.92 1531.54 1215.78 1531.54 Q1223.52 1531.54 1227.34 1535.55 Q1231.16 1539.56 1231.16 1547.71 Z" fill="#000000" fill-rule="nonzero" fill-opacity="1" /><path clip-path="url(#clip090)" d="M1249.01 1522.27 L1249.01 1532.4 L1261.08 1532.4 L1261.08 1536.95 L1249.01 1536.95 L1249.01 1556.3 Q1249.01 1560.66 1250.19 1561.9 Q1251.4 1563.14 1255.06 1563.14 L1261.08 1563.14 L1261.08 1568.04 L1255.06 1568.04 Q1248.28 1568.04 1245.7 1565.53 Q1243.13 1562.98 1243.13 1556.3 L1243.13 1536.95 L1238.83 1536.95 L1238.83 1532.4 L1243.13 1532.4 L1243.13 1522.27 L1249.01 1522.27 Z" fill="#000000" fill-rule="nonzero" fill-opacity="1" /><path clip-path="url(#clip090)" d="M1268.78 1532.4 L1274.64 1532.4 L1274.64 1568.04 L1268.78 1568.04 L1268.78 1532.4 M1268.78 1518.52 L1274.64 1518.52 L1274.64 1525.93 L1268.78 1525.93 L1268.78 1518.52 Z" fill="#000000" fill-rule="nonzero" fill-opacity="1" /><path clip-path="url(#clip090)" d="M1300.7 1536.5 Q1295.99 1536.5 1293.26 1540.19 Q1290.52 1543.85 1290.52 1550.25 Q1290.52 1556.65 1293.22 1560.34 Q1295.96 1564 1300.7 1564 Q1305.38 1564 1308.12 1560.31 Q1310.86 1556.62 1310.86 1550.25 Q1310.86 1543.92 1308.12 1540.23 Q1305.38 1536.5 1300.7 1536.5 M1300.7 1531.54 Q1308.34 1531.54 1312.7 1536.5 Q1317.06 1541.47 1317.06 1550.25 Q1317.06 1559 1312.7 1564 Q1308.34 1568.97 1300.7 1568.97 Q1293.03 1568.97 1288.67 1564 Q1284.34 1559 1284.34 1550.25 Q1284.34 1541.47 1288.67 1536.5 Q1293.03 1531.54 1300.7 1531.54 Z" fill="#000000" fill-rule="nonzero" fill-opacity="1" /><path clip-path="url(#clip090)" d="M1356.4 1546.53 L1356.4 1568.04 L1350.55 1568.04 L1350.55 1546.72 Q1350.55 1541.66 1348.57 1539.14 Q1346.6 1536.63 1342.65 1536.63 Q1337.91 1536.63 1335.17 1539.65 Q1332.44 1542.68 1332.44 1547.9 L1332.44 1568.04 L1326.55 1568.04 L1326.55 1532.4 L1332.44 1532.4 L1332.44 1537.93 Q1334.54 1534.72 1337.37 1533.13 Q1340.23 1531.54 1343.96 1531.54 Q1350.1 1531.54 1353.25 1535.36 Q1356.4 1539.14 1356.4 1546.53 Z" fill="#000000" fill-rule="nonzero" fill-opacity="1" /><path clip-path="url(#clip090)" d="M1390.81 1533.45 L1390.81 1538.98 Q1388.33 1537.71 1385.65 1537.07 Q1382.98 1536.44 1380.12 1536.44 Q1375.76 1536.44 1373.56 1537.77 Q1371.39 1539.11 1371.39 1541.79 Q1371.39 1543.82 1372.95 1545 Q1374.51 1546.15 1379.22 1547.2 L1381.23 1547.64 Q1387.47 1548.98 1390.08 1551.43 Q1392.72 1553.85 1392.72 1558.21 Q1392.72 1563.17 1388.77 1566.07 Q1384.86 1568.97 1377.98 1568.97 Q1375.12 1568.97 1372 1568.39 Q1368.91 1567.85 1365.47 1566.74 L1365.47 1560.69 Q1368.72 1562.38 1371.87 1563.24 Q1375.02 1564.07 1378.11 1564.07 Q1382.25 1564.07 1384.48 1562.66 Q1386.7 1561.23 1386.7 1558.65 Q1386.7 1556.27 1385.08 1554.99 Q1383.49 1553.72 1378.05 1552.54 L1376.01 1552.07 Q1370.57 1550.92 1368.15 1548.56 Q1365.73 1546.18 1365.73 1542.04 Q1365.73 1537.01 1369.29 1534.27 Q1372.86 1531.54 1379.42 1531.54 Q1382.66 1531.54 1385.53 1532.01 Q1388.39 1532.49 1390.81 1533.45 Z" fill="#000000" fill-rule="nonzero" fill-opacity="1" /><path clip-path="url(#clip090)" d="M1412.45 1520.52 L1417.86 1520.52 L1401.31 1574.09 L1395.9 1574.09 L1412.45 1520.52 Z" fill="#000000" fill-rule="nonzero" fill-opacity="1" /><path clip-path="url(#clip090)" d="M1425.95 1562.63 L1436.45 1562.63 L1436.45 1526.38 L1425.03 1528.67 L1425.03 1522.82 L1436.39 1520.52 L1442.82 1520.52 L1442.82 1562.63 L1453.32 1562.63 L1453.32 1568.04 L1425.95 1568.04 L1425.95 1562.63 Z" fill="#000000" fill-rule="nonzero" fill-opacity="1" /><path clip-path="url(#clip090)" d="M1480.06 1524.76 Q1475.09 1524.76 1472.58 1529.66 Q1470.09 1534.53 1470.09 1544.33 Q1470.09 1554.1 1472.58 1559 Q1475.09 1563.87 1480.06 1563.87 Q1485.05 1563.87 1487.54 1559 Q1490.05 1554.1 1490.05 1544.33 Q1490.05 1534.53 1487.54 1529.66 Q1485.05 1524.76 1480.06 1524.76 M1480.06 1519.66 Q1488.05 1519.66 1492.25 1526 Q1496.48 1532.3 1496.48 1544.33 Q1496.48 1556.33 1492.25 1562.66 Q1488.05 1568.97 1480.06 1568.97 Q1472.07 1568.97 1467.83 1562.66 Q1463.63 1556.33 1463.63 1544.33 Q1463.63 1532.3 1467.83 1526 Q1472.07 1519.66 1480.06 1519.66 Z" fill="#000000" fill-rule="nonzero" fill-opacity="1" /><path clip-path="url(#clip090)" d="M1521.53 1524.76 Q1516.56 1524.76 1514.05 1529.66 Q1511.57 1534.53 1511.57 1544.33 Q1511.57 1554.1 1514.05 1559 Q1516.56 1563.87 1521.53 1563.87 Q1526.53 1563.87 1529.01 1559 Q1531.52 1554.1 1531.52 1544.33 Q1531.52 1534.53 1529.01 1529.66 Q1526.53 1524.76 1521.53 1524.76 M1521.53 1519.66 Q1529.52 1519.66 1533.72 1526 Q1537.95 1532.3 1537.95 1544.33 Q1537.95 1556.33 1533.72 1562.66 Q1529.52 1568.97 1521.53 1568.97 Q1513.54 1568.97 1509.31 1562.66 Q1505.11 1556.33 1505.11 1544.33 Q1505.11 1532.3 1509.31 1526 Q1513.54 1519.66 1521.53 1519.66 Z" fill="#000000" fill-rule="nonzero" fill-opacity="1" /><path clip-path="url(#clip090)" d="M1563 1524.76 Q1558.04 1524.76 1555.52 1529.66 Q1553.04 1534.53 1553.04 1544.33 Q1553.04 1554.1 1555.52 1559 Q1558.04 1563.87 1563 1563.87 Q1568 1563.87 1570.48 1559 Q1573 1554.1 1573 1544.33 Q1573 1534.53 1570.48 1529.66 Q1568 1524.76 1563 1524.76 M1563 1519.66 Q1570.99 1519.66 1575.19 1526 Q1579.43 1532.3 1579.43 1544.33 Q1579.43 1556.33 1575.19 1562.66 Q1570.99 1568.97 1563 1568.97 Q1555.01 1568.97 1550.78 1562.66 Q1546.58 1556.33 1546.58 1544.33 Q1546.58 1532.3 1550.78 1526 Q1555.01 1519.66 1563 1519.66 Z" fill="#000000" fill-rule="nonzero" fill-opacity="1" /><path clip-path="url(#clip090)" d="M1604.47 1524.76 Q1599.51 1524.76 1597 1529.66 Q1594.51 1534.53 1594.51 1544.33 Q1594.51 1554.1 1597 1559 Q1599.51 1563.87 1604.47 1563.87 Q1609.47 1563.87 1611.95 1559 Q1614.47 1554.1 1614.47 1544.33 Q1614.47 1534.53 1611.95 1529.66 Q1609.47 1524.76 1604.47 1524.76 M1604.47 1519.66 Q1612.46 1519.66 1616.67 1526 Q1620.9 1532.3 1620.9 1544.33 Q1620.9 1556.33 1616.67 1562.66 Q1612.46 1568.97 1604.47 1568.97 Q1596.49 1568.97 1592.25 1562.66 Q1588.05 1556.33 1588.05 1544.33 Q1588.05 1532.3 1592.25 1526 Q1596.49 1519.66 1604.47 1519.66 Z" fill="#000000" fill-rule="nonzero" fill-opacity="1" /><path clip-path="url(#clip090)" d="M1645.95 1524.76 Q1640.98 1524.76 1638.47 1529.66 Q1635.99 1534.53 1635.99 1544.33 Q1635.99 1554.1 1638.47 1559 Q1640.98 1563.87 1645.95 1563.87 Q1650.94 1563.87 1653.43 1559 Q1655.94 1554.1 1655.94 1544.33 Q1655.94 1534.53 1653.43 1529.66 Q1650.94 1524.76 1645.95 1524.76 M1645.95 1519.66 Q1653.94 1519.66 1658.14 1526 Q1662.37 1532.3 1662.37 1544.33 Q1662.37 1556.33 1658.14 1562.66 Q1653.94 1568.97 1645.95 1568.97 Q1637.96 1568.97 1633.73 1562.66 Q1629.52 1556.33 1629.52 1544.33 Q1629.52 1532.3 1633.73 1526 Q1637.96 1519.66 1645.95 1519.66 Z" fill="#000000" fill-rule="nonzero" fill-opacity="1" /><polyline clip-path="url(#clip090)" style="stroke:#000000; stroke-linecap:round; stroke-linejoin:round; stroke-width:4; stroke-opacity:1; fill:none" points="249.542,1423.18 249.542,123.472 "/>
<polyline clip-path="url(#clip090)" style="stroke:#000000; stroke-linecap:round; stroke-linejoin:round; stroke-width:4; stroke-opacity:1; fill:none" points="249.542,1386.4 268.44,1386.4 "/>
<polyline clip-path="url(#clip090)" style="stroke:#000000; stroke-linecap:round; stroke-linejoin:round; stroke-width:4; stroke-opacity:1; fill:none" points="249.542,1079.86 268.44,1079.86 "/>
<polyline clip-path="url(#clip090)" style="stroke:#000000; stroke-linecap:round; stroke-linejoin:round; stroke-width:4; stroke-opacity:1; fill:none" points="249.542,773.326 268.44,773.326 "/>
<polyline clip-path="url(#clip090)" style="stroke:#000000; stroke-linecap:round; stroke-linejoin:round; stroke-width:4; stroke-opacity:1; fill:none" points="249.542,466.791 268.44,466.791 "/>
<polyline clip-path="url(#clip090)" style="stroke:#000000; stroke-linecap:round; stroke-linejoin:round; stroke-width:4; stroke-opacity:1; fill:none" points="249.542,160.256 268.44,160.256 "/>
<path clip-path="url(#clip090)" d="M126.205 1372.19 Q122.593 1372.19 120.765 1375.76 Q118.959 1379.3 118.959 1386.43 Q118.959 1393.54 120.765 1397.1 Q122.593 1400.64 126.205 1400.64 Q129.839 1400.64 131.644 1397.1 Q133.473 1393.54 133.473 1386.43 Q133.473 1379.3 131.644 1375.76 Q129.839 1372.19 126.205 1372.19 M126.205 1368.49 Q132.015 1368.49 135.07 1373.1 Q138.149 1377.68 138.149 1386.43 Q138.149 1395.16 135.07 1399.76 Q132.015 1404.35 126.205 1404.35 Q120.394 1404.35 117.316 1399.76 Q114.26 1395.16 114.26 1386.43 Q114.26 1377.68 117.316 1373.1 Q120.394 1368.49 126.205 1368.49 Z" fill="#000000" fill-rule="nonzero" fill-opacity="1" /><path clip-path="url(#clip090)" d="M146.366 1397.8 L151.251 1397.8 L151.251 1403.68 L146.366 1403.68 L146.366 1397.8 Z" fill="#000000" fill-rule="nonzero" fill-opacity="1" /><path clip-path="url(#clip090)" d="M171.436 1372.19 Q167.825 1372.19 165.996 1375.76 Q164.19 1379.3 164.19 1386.43 Q164.19 1393.54 165.996 1397.1 Q167.825 1400.64 171.436 1400.64 Q175.07 1400.64 176.876 1397.1 Q178.704 1393.54 178.704 1386.43 Q178.704 1379.3 176.876 1375.76 Q175.07 1372.19 171.436 1372.19 M171.436 1368.49 Q177.246 1368.49 180.301 1373.1 Q183.38 1377.68 183.38 1386.43 Q183.38 1395.16 180.301 1399.76 Q177.246 1404.35 171.436 1404.35 Q165.626 1404.35 162.547 1399.76 Q159.491 1395.16 159.491 1386.43 Q159.491 1377.68 162.547 1373.1 Q165.626 1368.49 171.436 1368.49 Z" fill="#000000" fill-rule="nonzero" fill-opacity="1" /><path clip-path="url(#clip090)" d="M201.598 1372.19 Q197.987 1372.19 196.158 1375.76 Q194.352 1379.3 194.352 1386.43 Q194.352 1393.54 196.158 1397.1 Q197.987 1400.64 201.598 1400.64 Q205.232 1400.64 207.037 1397.1 Q208.866 1393.54 208.866 1386.43 Q208.866 1379.3 207.037 1375.76 Q205.232 1372.19 201.598 1372.19 M201.598 1368.49 Q207.408 1368.49 210.463 1373.1 Q213.542 1377.68 213.542 1386.43 Q213.542 1395.16 210.463 1399.76 Q207.408 1404.35 201.598 1404.35 Q195.787 1404.35 192.709 1399.76 Q189.653 1395.16 189.653 1386.43 Q189.653 1377.68 192.709 1373.1 Q195.787 1368.49 201.598 1368.49 Z" fill="#000000" fill-rule="nonzero" fill-opacity="1" /><path clip-path="url(#clip090)" d="M127.2 1065.66 Q123.589 1065.66 121.76 1069.22 Q119.955 1072.77 119.955 1079.9 Q119.955 1087 121.76 1090.57 Q123.589 1094.11 127.2 1094.11 Q130.834 1094.11 132.64 1090.57 Q134.468 1087 134.468 1079.9 Q134.468 1072.77 132.64 1069.22 Q130.834 1065.66 127.2 1065.66 M127.2 1061.96 Q133.01 1061.96 136.066 1066.56 Q139.144 1071.15 139.144 1079.9 Q139.144 1088.62 136.066 1093.23 Q133.01 1097.81 127.2 1097.81 Q121.39 1097.81 118.311 1093.23 Q115.256 1088.62 115.256 1079.9 Q115.256 1071.15 118.311 1066.56 Q121.39 1061.96 127.2 1061.96 Z" fill="#000000" fill-rule="nonzero" fill-opacity="1" /><path clip-path="url(#clip090)" d="M147.362 1091.26 L152.246 1091.26 L152.246 1097.14 L147.362 1097.14 L147.362 1091.26 Z" fill="#000000" fill-rule="nonzero" fill-opacity="1" /><path clip-path="url(#clip090)" d="M166.459 1093.21 L182.778 1093.21 L182.778 1097.14 L160.834 1097.14 L160.834 1093.21 Q163.496 1090.45 168.079 1085.82 Q172.686 1081.17 173.866 1079.83 Q176.112 1077.3 176.991 1075.57 Q177.894 1073.81 177.894 1072.12 Q177.894 1069.36 175.95 1067.63 Q174.028 1065.89 170.927 1065.89 Q168.727 1065.89 166.274 1066.65 Q163.843 1067.42 161.065 1068.97 L161.065 1064.25 Q163.89 1063.11 166.343 1062.53 Q168.797 1061.96 170.834 1061.96 Q176.204 1061.96 179.399 1064.64 Q182.593 1067.33 182.593 1071.82 Q182.593 1073.95 181.783 1075.87 Q180.996 1077.77 178.889 1080.36 Q178.311 1081.03 175.209 1084.25 Q172.107 1087.44 166.459 1093.21 Z" fill="#000000" fill-rule="nonzero" fill-opacity="1" /><path clip-path="url(#clip090)" d="M192.639 1062.58 L210.996 1062.58 L210.996 1066.52 L196.922 1066.52 L196.922 1074.99 Q197.94 1074.64 198.959 1074.48 Q199.977 1074.29 200.996 1074.29 Q206.783 1074.29 210.162 1077.47 Q213.542 1080.64 213.542 1086.05 Q213.542 1091.63 210.07 1094.73 Q206.598 1097.81 200.278 1097.81 Q198.102 1097.81 195.834 1097.44 Q193.588 1097.07 191.181 1096.33 L191.181 1091.63 Q193.264 1092.77 195.487 1093.32 Q197.709 1093.88 200.186 1093.88 Q204.19 1093.88 206.528 1091.77 Q208.866 1089.66 208.866 1086.05 Q208.866 1082.44 206.528 1080.34 Q204.19 1078.23 200.186 1078.23 Q198.311 1078.23 196.436 1078.65 Q194.584 1079.06 192.639 1079.94 L192.639 1062.58 Z" fill="#000000" fill-rule="nonzero" fill-opacity="1" /><path clip-path="url(#clip090)" d="M126.205 759.125 Q122.593 759.125 120.765 762.689 Q118.959 766.231 118.959 773.361 Q118.959 780.467 120.765 784.032 Q122.593 787.574 126.205 787.574 Q129.839 787.574 131.644 784.032 Q133.473 780.467 133.473 773.361 Q133.473 766.231 131.644 762.689 Q129.839 759.125 126.205 759.125 M126.205 755.421 Q132.015 755.421 135.07 760.027 Q138.149 764.611 138.149 773.361 Q138.149 782.088 135.07 786.694 Q132.015 791.277 126.205 791.277 Q120.394 791.277 117.316 786.694 Q114.26 782.088 114.26 773.361 Q114.26 764.611 117.316 760.027 Q120.394 755.421 126.205 755.421 Z" fill="#000000" fill-rule="nonzero" fill-opacity="1" /><path clip-path="url(#clip090)" d="M146.366 784.726 L151.251 784.726 L151.251 790.606 L146.366 790.606 L146.366 784.726 Z" fill="#000000" fill-rule="nonzero" fill-opacity="1" /><path clip-path="url(#clip090)" d="M161.482 756.046 L179.839 756.046 L179.839 759.981 L165.765 759.981 L165.765 768.453 Q166.783 768.106 167.802 767.944 Q168.82 767.759 169.839 767.759 Q175.626 767.759 179.005 770.93 Q182.385 774.101 182.385 779.518 Q182.385 785.097 178.913 788.199 Q175.44 791.277 169.121 791.277 Q166.945 791.277 164.677 790.907 Q162.431 790.537 160.024 789.796 L160.024 785.097 Q162.107 786.231 164.329 786.787 Q166.552 787.342 169.028 787.342 Q173.033 787.342 175.371 785.236 Q177.709 783.129 177.709 779.518 Q177.709 775.907 175.371 773.801 Q173.033 771.694 169.028 771.694 Q167.153 771.694 165.278 772.111 Q163.427 772.527 161.482 773.407 L161.482 756.046 Z" fill="#000000" fill-rule="nonzero" fill-opacity="1" /><path clip-path="url(#clip090)" d="M201.598 759.125 Q197.987 759.125 196.158 762.689 Q194.352 766.231 194.352 773.361 Q194.352 780.467 196.158 784.032 Q197.987 787.574 201.598 787.574 Q205.232 787.574 207.037 784.032 Q208.866 780.467 208.866 773.361 Q208.866 766.231 207.037 762.689 Q205.232 759.125 201.598 759.125 M201.598 755.421 Q207.408 755.421 210.463 760.027 Q213.542 764.611 213.542 773.361 Q213.542 782.088 210.463 786.694 Q207.408 791.277 201.598 791.277 Q195.787 791.277 192.709 786.694 Q189.653 782.088 189.653 773.361 Q189.653 764.611 192.709 760.027 Q195.787 755.421 201.598 755.421 Z" fill="#000000" fill-rule="nonzero" fill-opacity="1" /><path clip-path="url(#clip090)" d="M127.2 452.59 Q123.589 452.59 121.76 456.155 Q119.955 459.696 119.955 466.826 Q119.955 473.932 121.76 477.497 Q123.589 481.039 127.2 481.039 Q130.834 481.039 132.64 477.497 Q134.468 473.932 134.468 466.826 Q134.468 459.696 132.64 456.155 Q130.834 452.59 127.2 452.59 M127.2 448.886 Q133.01 448.886 136.066 453.493 Q139.144 458.076 139.144 466.826 Q139.144 475.553 136.066 480.159 Q133.01 484.742 127.2 484.742 Q121.39 484.742 118.311 480.159 Q115.256 475.553 115.256 466.826 Q115.256 458.076 118.311 453.493 Q121.39 448.886 127.2 448.886 Z" fill="#000000" fill-rule="nonzero" fill-opacity="1" /><path clip-path="url(#clip090)" d="M147.362 478.192 L152.246 478.192 L152.246 484.071 L147.362 484.071 L147.362 478.192 Z" fill="#000000" fill-rule="nonzero" fill-opacity="1" /><path clip-path="url(#clip090)" d="M161.251 449.511 L183.473 449.511 L183.473 451.502 L170.927 484.071 L166.042 484.071 L177.848 453.446 L161.251 453.446 L161.251 449.511 Z" fill="#000000" fill-rule="nonzero" fill-opacity="1" /><path clip-path="url(#clip090)" d="M192.639 449.511 L210.996 449.511 L210.996 453.446 L196.922 453.446 L196.922 461.918 Q197.94 461.571 198.959 461.409 Q199.977 461.224 200.996 461.224 Q206.783 461.224 210.162 464.395 Q213.542 467.567 213.542 472.983 Q213.542 478.562 210.07 481.664 Q206.598 484.742 200.278 484.742 Q198.102 484.742 195.834 484.372 Q193.588 484.002 191.181 483.261 L191.181 478.562 Q193.264 479.696 195.487 480.252 Q197.709 480.807 200.186 480.807 Q204.19 480.807 206.528 478.701 Q208.866 476.594 208.866 472.983 Q208.866 469.372 206.528 467.266 Q204.19 465.159 200.186 465.159 Q198.311 465.159 196.436 465.576 Q194.584 465.993 192.639 466.872 L192.639 449.511 Z" fill="#000000" fill-rule="nonzero" fill-opacity="1" /><path clip-path="url(#clip090)" d="M117.015 173.601 L124.654 173.601 L124.654 147.236 L116.343 148.902 L116.343 144.643 L124.607 142.976 L129.283 142.976 L129.283 173.601 L136.922 173.601 L136.922 177.536 L117.015 177.536 L117.015 173.601 Z" fill="#000000" fill-rule="nonzero" fill-opacity="1" /><path clip-path="url(#clip090)" d="M146.366 171.657 L151.251 171.657 L151.251 177.536 L146.366 177.536 L146.366 171.657 Z" fill="#000000" fill-rule="nonzero" fill-opacity="1" /><path clip-path="url(#clip090)" d="M171.436 146.055 Q167.825 146.055 165.996 149.62 Q164.19 153.161 164.19 160.291 Q164.19 167.397 165.996 170.962 Q167.825 174.504 171.436 174.504 Q175.07 174.504 176.876 170.962 Q178.704 167.397 178.704 160.291 Q178.704 153.161 176.876 149.62 Q175.07 146.055 171.436 146.055 M171.436 142.351 Q177.246 142.351 180.301 146.958 Q183.38 151.541 183.38 160.291 Q183.38 169.018 180.301 173.624 Q177.246 178.208 171.436 178.208 Q165.626 178.208 162.547 173.624 Q159.491 169.018 159.491 160.291 Q159.491 151.541 162.547 146.958 Q165.626 142.351 171.436 142.351 Z" fill="#000000" fill-rule="nonzero" fill-opacity="1" /><path clip-path="url(#clip090)" d="M201.598 146.055 Q197.987 146.055 196.158 149.62 Q194.352 153.161 194.352 160.291 Q194.352 167.397 196.158 170.962 Q197.987 174.504 201.598 174.504 Q205.232 174.504 207.037 170.962 Q208.866 167.397 208.866 160.291 Q208.866 153.161 207.037 149.62 Q205.232 146.055 201.598 146.055 M201.598 142.351 Q207.408 142.351 210.463 146.958 Q213.542 151.541 213.542 160.291 Q213.542 169.018 210.463 173.624 Q207.408 178.208 201.598 178.208 Q195.787 178.208 192.709 173.624 Q189.653 169.018 189.653 160.291 Q189.653 151.541 192.709 146.958 Q195.787 142.351 201.598 142.351 Z" fill="#000000" fill-rule="nonzero" fill-opacity="1" /><path clip-path="url(#clip090)" d="M22.818 946.903 L46.4666 955.624 L46.4666 938.15 L22.818 946.903 M16.4842 950.531 L16.4842 943.243 L64.0042 925.132 L64.0042 931.816 L51.8138 936.145 L51.8138 957.565 L64.0042 961.894 L64.0042 968.674 L16.4842 950.531 Z" fill="#000000" fill-rule="nonzero" fill-opacity="1" /><path clip-path="url(#clip090)" d="M28.3562 926.469 L28.3562 920.262 L58.275 909.122 L28.3562 897.982 L28.3562 891.776 L64.0042 905.144 L64.0042 913.101 L28.3562 926.469 Z" fill="#000000" fill-rule="nonzero" fill-opacity="1" /><path clip-path="url(#clip090)" d="M55.9197 887.925 L55.9197 881.209 L64.0042 881.209 L64.0042 887.925 L55.9197 887.925 Z" fill="#000000" fill-rule="nonzero" fill-opacity="1" /><path clip-path="url(#clip090)" d="M14.1925 839.768 L79.3773 839.768 L79.3773 845.179 L14.1925 845.179 L14.1925 839.768 Z" fill="#000000" fill-rule="nonzero" fill-opacity="1" /><path clip-path="url(#clip090)" d="M16.4842 825.095 L16.4842 815.515 L48.8219 803.388 L16.4842 791.198 L16.4842 781.617 L64.0042 781.617 L64.0042 787.888 L22.277 787.888 L54.8694 800.142 L54.8694 806.603 L22.277 818.857 L64.0042 818.857 L64.0042 825.095 L16.4842 825.095 Z" fill="#000000" fill-rule="nonzero" fill-opacity="1" /><path clip-path="url(#clip090)" d="M14.1925 761.565 L79.3773 761.565 L79.3773 766.976 L14.1925 766.976 L14.1925 761.565 Z" fill="#000000" fill-rule="nonzero" fill-opacity="1" /><path clip-path="url(#clip090)" d="M14.5426 733.079 Q21.8632 737.344 29.0246 739.413 Q36.186 741.482 43.5384 741.482 Q50.8908 741.482 58.1159 739.413 Q65.3091 737.312 72.5979 733.079 L72.5979 738.171 Q65.1182 742.946 57.8931 745.333 Q50.668 747.688 43.5384 747.688 Q36.4406 747.688 29.2474 745.333 Q22.0542 742.977 14.5426 738.171 L14.5426 733.079 Z" fill="#000000" fill-rule="nonzero" fill-opacity="1" /><path clip-path="url(#clip090)" d="M22.818 705.579 L46.4666 714.3 L46.4666 696.826 L22.818 705.579 M16.4842 709.207 L16.4842 701.919 L64.0042 683.808 L64.0042 690.492 L51.8138 694.821 L51.8138 716.242 L64.0042 720.57 L64.0042 727.35 L16.4842 709.207 Z" fill="#000000" fill-rule="nonzero" fill-opacity="1" /><path clip-path="url(#clip090)" d="M16.4842 666.716 L16.4842 661.305 L70.0516 677.856 L70.0516 683.267 L16.4842 666.716 Z" fill="#000000" fill-rule="nonzero" fill-opacity="1" /><path clip-path="url(#clip090)" d="M35.1993 627.408 Q31.2526 625.212 29.3747 622.156 Q27.4968 619.101 27.4968 614.963 Q27.4968 609.393 31.4117 606.369 Q35.2948 603.346 42.4881 603.346 L64.0042 603.346 L64.0042 609.234 L42.679 609.234 Q37.5546 609.234 35.072 611.048 Q32.5894 612.862 32.5894 616.586 Q32.5894 621.138 35.6131 623.78 Q38.6368 626.421 43.8567 626.421 L64.0042 626.421 L64.0042 632.31 L42.679 632.31 Q37.5228 632.31 35.072 634.124 Q32.5894 635.938 32.5894 639.726 Q32.5894 644.214 35.6449 646.855 Q38.6686 649.497 43.8567 649.497 L64.0042 649.497 L64.0042 655.385 L28.3562 655.385 L28.3562 649.497 L33.8944 649.497 Q30.616 647.492 29.0564 644.691 Q27.4968 641.89 27.4968 638.039 Q27.4968 634.156 29.4702 631.45 Q31.4436 628.713 35.1993 627.408 Z" fill="#000000" fill-rule="nonzero" fill-opacity="1" /><path clip-path="url(#clip090)" d="M14.5426 592.588 L14.5426 587.495 Q22.0542 582.721 29.2474 580.366 Q36.4406 577.978 43.5384 577.978 Q50.668 577.978 57.8931 580.366 Q65.1182 582.721 72.5979 587.495 L72.5979 592.588 Q65.3091 588.354 58.1159 586.286 Q50.8908 584.185 43.5384 584.185 Q36.186 584.185 29.0246 586.286 Q21.8632 588.354 14.5426 592.588 Z" fill="#000000" fill-rule="nonzero" fill-opacity="1" /><path clip-path="url(#clip090)" d="M448.211 20.1573 L437.111 50.2555 L459.351 50.2555 L448.211 20.1573 M443.593 12.096 L452.869 12.096 L475.919 72.576 L467.412 72.576 L461.903 57.061 L434.64 57.061 L429.131 72.576 L420.503 72.576 L443.593 12.096 Z" fill="#000000" fill-rule="nonzero" fill-opacity="1" /><path clip-path="url(#clip090)" d="M474.218 27.2059 L482.117 27.2059 L496.295 65.2844 L510.473 27.2059 L518.372 27.2059 L501.359 72.576 L491.231 72.576 L474.218 27.2059 Z" fill="#000000" fill-rule="nonzero" fill-opacity="1" /><path clip-path="url(#clip090)" d="M567.469 48.0275 L567.469 51.6733 L533.199 51.6733 Q533.685 59.3701 537.817 63.421 Q541.989 67.4314 549.402 67.4314 Q553.696 67.4314 557.707 66.3781 Q561.758 65.3249 565.728 63.2184 L565.728 70.267 Q561.717 71.9684 557.504 72.8596 Q553.291 73.7508 548.957 73.7508 Q538.1 73.7508 531.74 67.4314 Q525.421 61.1119 525.421 50.3365 Q525.421 39.1965 531.416 32.6746 Q537.452 26.1121 547.661 26.1121 Q556.816 26.1121 562.122 32.0264 Q567.469 37.9003 567.469 48.0275 M560.016 45.84 Q559.935 39.7232 556.573 36.0774 Q553.251 32.4315 547.742 32.4315 Q541.503 32.4315 537.736 35.9558 Q534.009 39.4801 533.442 45.8805 L560.016 45.84 Z" fill="#000000" fill-rule="nonzero" fill-opacity="1" /><path clip-path="url(#clip090)" d="M605.994 34.1734 Q604.738 33.4443 603.239 33.1202 Q601.781 32.7556 599.998 32.7556 Q593.679 32.7556 590.276 36.8875 Q586.914 40.9789 586.914 48.6757 L586.914 72.576 L579.42 72.576 L579.42 27.2059 L586.914 27.2059 L586.914 34.2544 Q589.263 30.1225 593.031 28.1376 Q596.798 26.1121 602.186 26.1121 Q602.955 26.1121 603.887 26.2337 Q604.819 26.3147 605.953 26.5172 L605.994 34.1734 Z" fill="#000000" fill-rule="nonzero" fill-opacity="1" /><path clip-path="url(#clip090)" d="M634.431 49.7694 Q625.397 49.7694 621.914 51.8354 Q618.43 53.9013 618.43 58.8839 Q618.43 62.8538 621.022 65.2034 Q623.655 67.5124 628.152 67.5124 Q634.35 67.5124 638.077 63.1374 Q641.844 58.7219 641.844 51.4303 L641.844 49.7694 L634.431 49.7694 M649.298 46.6907 L649.298 72.576 L641.844 72.576 L641.844 65.6895 Q639.292 69.8214 635.484 71.8063 Q631.676 73.7508 626.167 73.7508 Q619.199 73.7508 615.068 69.8619 Q610.976 65.9325 610.976 59.3701 Q610.976 51.7138 616.08 47.825 Q621.225 43.9361 631.393 43.9361 L641.844 43.9361 L641.844 43.2069 Q641.844 38.0623 638.441 35.2672 Q635.079 32.4315 628.962 32.4315 Q625.073 32.4315 621.387 33.3632 Q617.701 34.295 614.298 36.1584 L614.298 29.2718 Q618.389 27.692 622.238 26.9223 Q626.086 26.1121 629.732 26.1121 Q639.576 26.1121 644.437 31.2163 Q649.298 36.3204 649.298 46.6907 Z" fill="#000000" fill-rule="nonzero" fill-opacity="1" /><path clip-path="url(#clip090)" d="M694.506 49.3643 Q694.506 41.2625 691.144 36.8065 Q687.822 32.3505 681.786 32.3505 Q675.791 32.3505 672.428 36.8065 Q669.107 41.2625 669.107 49.3643 Q669.107 57.4256 672.428 61.8816 Q675.791 66.3376 681.786 66.3376 Q687.822 66.3376 691.144 61.8816 Q694.506 57.4256 694.506 49.3643 M701.959 66.9452 Q701.959 78.5308 696.815 84.1616 Q691.67 89.8329 681.057 89.8329 Q677.127 89.8329 673.644 89.2252 Q670.16 88.6581 666.879 87.4428 L666.879 80.1917 Q670.16 81.9741 673.36 82.8248 Q676.56 83.6755 679.882 83.6755 Q687.214 83.6755 690.86 79.8271 Q694.506 76.0193 694.506 68.282 L694.506 64.5957 Q692.197 68.6061 688.591 70.5911 Q684.986 72.576 679.963 72.576 Q671.618 72.576 666.514 66.2161 Q661.41 59.8562 661.41 49.3643 Q661.41 38.832 666.514 32.472 Q671.618 26.1121 679.963 26.1121 Q684.986 26.1121 688.591 28.0971 Q692.197 30.082 694.506 34.0924 L694.506 27.2059 L701.959 27.2059 L701.959 66.9452 Z" fill="#000000" fill-rule="nonzero" fill-opacity="1" /><path clip-path="url(#clip090)" d="M756.12 48.0275 L756.12 51.6733 L721.849 51.6733 Q722.336 59.3701 726.467 63.421 Q730.64 67.4314 738.053 67.4314 Q742.347 67.4314 746.357 66.3781 Q750.408 65.3249 754.378 63.2184 L754.378 70.267 Q750.368 71.9684 746.155 72.8596 Q741.942 73.7508 737.607 73.7508 Q726.751 73.7508 720.391 67.4314 Q714.072 61.1119 714.072 50.3365 Q714.072 39.1965 720.067 32.6746 Q726.103 26.1121 736.311 26.1121 Q745.466 26.1121 750.773 32.0264 Q756.12 37.9003 756.12 48.0275 M748.666 45.84 Q748.585 39.7232 745.223 36.0774 Q741.901 32.4315 736.392 32.4315 Q730.154 32.4315 726.386 35.9558 Q722.66 39.4801 722.092 45.8805 L748.666 45.84 Z" fill="#000000" fill-rule="nonzero" fill-opacity="1" /><path clip-path="url(#clip090)" d="M795.049 12.096 L807.242 12.096 L822.676 53.2532 L838.191 12.096 L850.385 12.096 L850.385 72.576 L842.404 72.576 L842.404 19.4686 L826.808 60.9499 L818.585 60.9499 L802.989 19.4686 L802.989 72.576 L795.049 72.576 L795.049 12.096 Z" fill="#000000" fill-rule="nonzero" fill-opacity="1" /><path clip-path="url(#clip090)" d="M886.924 49.7694 Q877.89 49.7694 874.406 51.8354 Q870.923 53.9013 870.923 58.8839 Q870.923 62.8538 873.515 65.2034 Q876.148 67.5124 880.645 67.5124 Q886.843 67.5124 890.57 63.1374 Q894.337 58.7219 894.337 51.4303 L894.337 49.7694 L886.924 49.7694 M901.791 46.6907 L901.791 72.576 L894.337 72.576 L894.337 65.6895 Q891.785 69.8214 887.977 71.8063 Q884.169 73.7508 878.66 73.7508 Q871.692 73.7508 867.56 69.8619 Q863.469 65.9325 863.469 59.3701 Q863.469 51.7138 868.573 47.825 Q873.718 43.9361 883.886 43.9361 L894.337 43.9361 L894.337 43.2069 Q894.337 38.0623 890.934 35.2672 Q887.572 32.4315 881.455 32.4315 Q877.566 32.4315 873.88 33.3632 Q870.194 34.295 866.791 36.1584 L866.791 29.2718 Q870.882 27.692 874.731 26.9223 Q878.579 26.1121 882.225 26.1121 Q892.068 26.1121 896.929 31.2163 Q901.791 36.3204 901.791 46.6907 Z" fill="#000000" fill-rule="nonzero" fill-opacity="1" /><path clip-path="url(#clip090)" d="M946.999 49.3643 Q946.999 41.2625 943.636 36.8065 Q940.315 32.3505 934.279 32.3505 Q928.283 32.3505 924.921 36.8065 Q921.599 41.2625 921.599 49.3643 Q921.599 57.4256 924.921 61.8816 Q928.283 66.3376 934.279 66.3376 Q940.315 66.3376 943.636 61.8816 Q946.999 57.4256 946.999 49.3643 M954.452 66.9452 Q954.452 78.5308 949.308 84.1616 Q944.163 89.8329 933.55 89.8329 Q929.62 89.8329 926.137 89.2252 Q922.653 88.6581 919.372 87.4428 L919.372 80.1917 Q922.653 81.9741 925.853 82.8248 Q929.053 83.6755 932.375 83.6755 Q939.707 83.6755 943.353 79.8271 Q946.999 76.0193 946.999 68.282 L946.999 64.5957 Q944.69 68.6061 941.084 70.5911 Q937.479 72.576 932.456 72.576 Q924.111 72.576 919.007 66.2161 Q913.903 59.8562 913.903 49.3643 Q913.903 38.832 919.007 32.472 Q924.111 26.1121 932.456 26.1121 Q937.479 26.1121 941.084 28.0971 Q944.69 30.082 946.999 34.0924 L946.999 27.2059 L954.452 27.2059 L954.452 66.9452 Z" fill="#000000" fill-rule="nonzero" fill-opacity="1" /><path clip-path="url(#clip090)" d="M1007.52 45.1919 L1007.52 72.576 L1000.07 72.576 L1000.07 45.4349 Q1000.07 38.994 997.554 35.7938 Q995.042 32.5936 990.019 32.5936 Q983.983 32.5936 980.5 36.4419 Q977.016 40.2903 977.016 46.9338 L977.016 72.576 L969.522 72.576 L969.522 27.2059 L977.016 27.2059 L977.016 34.2544 Q979.689 30.163 983.295 28.1376 Q986.941 26.1121 991.68 26.1121 Q999.498 26.1121 1003.51 30.9732 Q1007.52 35.7938 1007.52 45.1919 Z" fill="#000000" fill-rule="nonzero" fill-opacity="1" /><path clip-path="url(#clip090)" d="M1061.19 48.0275 L1061.19 51.6733 L1026.92 51.6733 Q1027.41 59.3701 1031.54 63.421 Q1035.71 67.4314 1043.13 67.4314 Q1047.42 67.4314 1051.43 66.3781 Q1055.48 65.3249 1059.45 63.2184 L1059.45 70.267 Q1055.44 71.9684 1051.23 72.8596 Q1047.02 73.7508 1042.68 73.7508 Q1031.82 73.7508 1025.46 67.4314 Q1019.15 61.1119 1019.15 50.3365 Q1019.15 39.1965 1025.14 32.6746 Q1031.18 26.1121 1041.38 26.1121 Q1050.54 26.1121 1055.85 32.0264 Q1061.19 37.9003 1061.19 48.0275 M1053.74 45.84 Q1053.66 39.7232 1050.3 36.0774 Q1046.97 32.4315 1041.47 32.4315 Q1035.23 32.4315 1031.46 35.9558 Q1027.73 39.4801 1027.17 45.8805 L1053.74 45.84 Z" fill="#000000" fill-rule="nonzero" fill-opacity="1" /><path clip-path="url(#clip090)" d="M1080.8 14.324 L1080.8 27.2059 L1096.15 27.2059 L1096.15 32.9987 L1080.8 32.9987 L1080.8 57.6282 Q1080.8 63.1779 1082.3 64.7578 Q1083.84 66.3376 1088.5 66.3376 L1096.15 66.3376 L1096.15 72.576 L1088.5 72.576 Q1079.87 72.576 1076.59 69.3758 Q1073.31 66.1351 1073.31 57.6282 L1073.31 32.9987 L1067.84 32.9987 L1067.84 27.2059 L1073.31 27.2059 L1073.31 14.324 L1080.8 14.324 Z" fill="#000000" fill-rule="nonzero" fill-opacity="1" /><path clip-path="url(#clip090)" d="M1105.96 27.2059 L1113.41 27.2059 L1113.41 72.576 L1105.96 72.576 L1105.96 27.2059 M1105.96 9.54393 L1113.41 9.54393 L1113.41 18.9825 L1105.96 18.9825 L1105.96 9.54393 Z" fill="#000000" fill-rule="nonzero" fill-opacity="1" /><path clip-path="url(#clip090)" d="M1157.93 28.5427 L1157.93 35.5912 Q1154.77 33.9709 1151.37 33.1607 Q1147.96 32.3505 1144.32 32.3505 Q1138.77 32.3505 1135.97 34.0519 Q1133.22 35.7533 1133.22 39.156 Q1133.22 41.7486 1135.2 43.2475 Q1137.19 44.7058 1143.18 46.0426 L1145.74 46.6097 Q1153.68 48.3111 1157 51.4303 Q1160.36 54.509 1160.36 60.0587 Q1160.36 66.3781 1155.34 70.0644 Q1150.35 73.7508 1141.6 73.7508 Q1137.96 73.7508 1133.99 73.0216 Q1130.06 72.3329 1125.68 70.9151 L1125.68 63.2184 Q1129.82 65.3654 1133.83 66.4591 Q1137.84 67.5124 1141.77 67.5124 Q1147.03 67.5124 1149.87 65.73 Q1152.7 63.9071 1152.7 60.6258 Q1152.7 57.5877 1150.64 55.9673 Q1148.61 54.3469 1141.69 52.8481 L1139.09 52.2405 Q1132.17 50.7821 1129.09 47.7845 Q1126.01 44.7463 1126.01 39.4801 Q1126.01 33.0797 1130.55 29.5959 Q1135.08 26.1121 1143.43 26.1121 Q1147.56 26.1121 1151.2 26.7198 Q1154.85 27.3274 1157.93 28.5427 Z" fill="#000000" fill-rule="nonzero" fill-opacity="1" /><path clip-path="url(#clip090)" d="M1192.85 49.7694 Q1183.81 49.7694 1180.33 51.8354 Q1176.85 53.9013 1176.85 58.8839 Q1176.85 62.8538 1179.44 65.2034 Q1182.07 67.5124 1186.57 67.5124 Q1192.77 67.5124 1196.49 63.1374 Q1200.26 58.7219 1200.26 51.4303 L1200.26 49.7694 L1192.85 49.7694 M1207.71 46.6907 L1207.71 72.576 L1200.26 72.576 L1200.26 65.6895 Q1197.71 69.8214 1193.9 71.8063 Q1190.09 73.7508 1184.58 73.7508 Q1177.62 73.7508 1173.48 69.8619 Q1169.39 65.9325 1169.39 59.3701 Q1169.39 51.7138 1174.5 47.825 Q1179.64 43.9361 1189.81 43.9361 L1200.26 43.9361 L1200.26 43.2069 Q1200.26 38.0623 1196.86 35.2672 Q1193.5 32.4315 1187.38 32.4315 Q1183.49 32.4315 1179.8 33.3632 Q1176.12 34.295 1172.72 36.1584 L1172.72 29.2718 Q1176.81 27.692 1180.65 26.9223 Q1184.5 26.1121 1188.15 26.1121 Q1197.99 26.1121 1202.85 31.2163 Q1207.71 36.3204 1207.71 46.6907 Z" fill="#000000" fill-rule="nonzero" fill-opacity="1" /><path clip-path="url(#clip090)" d="M1230.44 14.324 L1230.44 27.2059 L1245.79 27.2059 L1245.79 32.9987 L1230.44 32.9987 L1230.44 57.6282 Q1230.44 63.1779 1231.94 64.7578 Q1233.48 66.3376 1238.14 66.3376 L1245.79 66.3376 L1245.79 72.576 L1238.14 72.576 Q1229.51 72.576 1226.23 69.3758 Q1222.95 66.1351 1222.95 57.6282 L1222.95 32.9987 L1217.48 32.9987 L1217.48 27.2059 L1222.95 27.2059 L1222.95 14.324 L1230.44 14.324 Z" fill="#000000" fill-rule="nonzero" fill-opacity="1" /><path clip-path="url(#clip090)" d="M1255.6 27.2059 L1263.05 27.2059 L1263.05 72.576 L1255.6 72.576 L1255.6 27.2059 M1255.6 9.54393 L1263.05 9.54393 L1263.05 18.9825 L1255.6 18.9825 L1255.6 9.54393 Z" fill="#000000" fill-rule="nonzero" fill-opacity="1" /><path clip-path="url(#clip090)" d="M1296.23 32.4315 Q1290.23 32.4315 1286.75 37.1306 Q1283.26 41.7891 1283.26 49.9314 Q1283.26 58.0738 1286.71 62.7728 Q1290.19 67.4314 1296.23 67.4314 Q1302.18 67.4314 1305.67 62.7323 Q1309.15 58.0333 1309.15 49.9314 Q1309.15 41.8701 1305.67 37.1711 Q1302.18 32.4315 1296.23 32.4315 M1296.23 26.1121 Q1305.95 26.1121 1311.5 32.4315 Q1317.05 38.7509 1317.05 49.9314 Q1317.05 61.0714 1311.5 67.4314 Q1305.95 73.7508 1296.23 73.7508 Q1286.46 73.7508 1280.91 67.4314 Q1275.41 61.0714 1275.41 49.9314 Q1275.41 38.7509 1280.91 32.4315 Q1286.46 26.1121 1296.23 26.1121 Z" fill="#000000" fill-rule="nonzero" fill-opacity="1" /><path clip-path="url(#clip090)" d="M1367.12 45.1919 L1367.12 72.576 L1359.66 72.576 L1359.66 45.4349 Q1359.66 38.994 1357.15 35.7938 Q1354.64 32.5936 1349.62 32.5936 Q1343.58 32.5936 1340.1 36.4419 Q1336.61 40.2903 1336.61 46.9338 L1336.61 72.576 L1329.12 72.576 L1329.12 27.2059 L1336.61 27.2059 L1336.61 34.2544 Q1339.29 30.163 1342.89 28.1376 Q1346.54 26.1121 1351.28 26.1121 Q1359.1 26.1121 1363.11 30.9732 Q1367.12 35.7938 1367.12 45.1919 Z" fill="#000000" fill-rule="nonzero" fill-opacity="1" /><path clip-path="url(#clip090)" d="M1425.94 32.4315 Q1419.94 32.4315 1416.46 37.1306 Q1412.97 41.7891 1412.97 49.9314 Q1412.97 58.0738 1416.42 62.7728 Q1419.9 67.4314 1425.94 67.4314 Q1431.89 67.4314 1435.38 62.7323 Q1438.86 58.0333 1438.86 49.9314 Q1438.86 41.8701 1435.38 37.1711 Q1431.89 32.4315 1425.94 32.4315 M1425.94 26.1121 Q1435.66 26.1121 1441.21 32.4315 Q1446.76 38.7509 1446.76 49.9314 Q1446.76 61.0714 1441.21 67.4314 Q1435.66 73.7508 1425.94 73.7508 Q1416.17 73.7508 1410.62 67.4314 Q1405.12 61.0714 1405.12 49.9314 Q1405.12 38.7509 1410.62 32.4315 Q1416.17 26.1121 1425.94 26.1121 Z" fill="#000000" fill-rule="nonzero" fill-opacity="1" /><path clip-path="url(#clip090)" d="M1453.77 27.2059 L1461.67 27.2059 L1475.84 65.2844 L1490.02 27.2059 L1497.92 27.2059 L1480.91 72.576 L1470.78 72.576 L1453.77 27.2059 Z" fill="#000000" fill-rule="nonzero" fill-opacity="1" /><path clip-path="url(#clip090)" d="M1547.02 48.0275 L1547.02 51.6733 L1512.75 51.6733 Q1513.23 59.3701 1517.37 63.421 Q1521.54 67.4314 1528.95 67.4314 Q1533.25 67.4314 1537.26 66.3781 Q1541.31 65.3249 1545.28 63.2184 L1545.28 70.267 Q1541.27 71.9684 1537.05 72.8596 Q1532.84 73.7508 1528.51 73.7508 Q1517.65 73.7508 1511.29 67.4314 Q1504.97 61.1119 1504.97 50.3365 Q1504.97 39.1965 1510.97 32.6746 Q1517 26.1121 1527.21 26.1121 Q1536.36 26.1121 1541.67 32.0264 Q1547.02 37.9003 1547.02 48.0275 M1539.56 45.84 Q1539.48 39.7232 1536.12 36.0774 Q1532.8 32.4315 1527.29 32.4315 Q1521.05 32.4315 1517.28 35.9558 Q1513.56 39.4801 1512.99 45.8805 L1539.56 45.84 Z" fill="#000000" fill-rule="nonzero" fill-opacity="1" /><path clip-path="url(#clip090)" d="M1585.54 34.1734 Q1584.29 33.4443 1582.79 33.1202 Q1581.33 32.7556 1579.55 32.7556 Q1573.23 32.7556 1569.83 36.8875 Q1566.46 40.9789 1566.46 48.6757 L1566.46 72.576 L1558.97 72.576 L1558.97 27.2059 L1566.46 27.2059 L1566.46 34.2544 Q1568.81 30.1225 1572.58 28.1376 Q1576.35 26.1121 1581.73 26.1121 Q1582.5 26.1121 1583.44 26.2337 Q1584.37 26.3147 1585.5 26.5172 L1585.54 34.1734 Z" fill="#000000" fill-rule="nonzero" fill-opacity="1" /><path clip-path="url(#clip090)" d="M1658.54 48.0275 L1658.54 51.6733 L1624.27 51.6733 Q1624.76 59.3701 1628.89 63.421 Q1633.06 67.4314 1640.47 67.4314 Q1644.77 67.4314 1648.78 66.3781 Q1652.83 65.3249 1656.8 63.2184 L1656.8 70.267 Q1652.79 71.9684 1648.57 72.8596 Q1644.36 73.7508 1640.03 73.7508 Q1629.17 73.7508 1622.81 67.4314 Q1616.49 61.1119 1616.49 50.3365 Q1616.49 39.1965 1622.49 32.6746 Q1628.52 26.1121 1638.73 26.1121 Q1647.89 26.1121 1653.19 32.0264 Q1658.54 37.9003 1658.54 48.0275 M1651.09 45.84 Q1651.01 39.7232 1647.64 36.0774 Q1644.32 32.4315 1638.81 32.4315 Q1632.57 32.4315 1628.81 35.9558 Q1625.08 39.4801 1624.51 45.8805 L1651.09 45.84 Z" fill="#000000" fill-rule="nonzero" fill-opacity="1" /><path clip-path="url(#clip090)" d="M1691.39 49.7694 Q1682.36 49.7694 1678.88 51.8354 Q1675.39 53.9013 1675.39 58.8839 Q1675.39 62.8538 1677.98 65.2034 Q1680.62 67.5124 1685.11 67.5124 Q1691.31 67.5124 1695.04 63.1374 Q1698.81 58.7219 1698.81 51.4303 L1698.81 49.7694 L1691.39 49.7694 M1706.26 46.6907 L1706.26 72.576 L1698.81 72.576 L1698.81 65.6895 Q1696.25 69.8214 1692.45 71.8063 Q1688.64 73.7508 1683.13 73.7508 Q1676.16 73.7508 1672.03 69.8619 Q1667.94 65.9325 1667.94 59.3701 Q1667.94 51.7138 1673.04 47.825 Q1678.19 43.9361 1688.35 43.9361 L1698.81 43.9361 L1698.81 43.2069 Q1698.81 38.0623 1695.4 35.2672 Q1692.04 32.4315 1685.92 32.4315 Q1682.04 32.4315 1678.35 33.3632 Q1674.66 34.295 1671.26 36.1584 L1671.26 29.2718 Q1675.35 27.692 1679.2 26.9223 Q1683.05 26.1121 1686.69 26.1121 Q1696.54 26.1121 1701.4 31.2163 Q1706.26 36.3204 1706.26 46.6907 Z" fill="#000000" fill-rule="nonzero" fill-opacity="1" /><path clip-path="url(#clip090)" d="M1754.26 28.9478 L1754.26 35.9153 Q1751.1 34.1734 1747.9 33.3227 Q1744.74 32.4315 1741.5 32.4315 Q1734.25 32.4315 1730.24 37.0496 Q1726.23 41.6271 1726.23 49.9314 Q1726.23 58.2358 1730.24 62.8538 Q1734.25 67.4314 1741.5 67.4314 Q1744.74 67.4314 1747.9 66.5807 Q1751.1 65.6895 1754.26 63.9476 L1754.26 70.8341 Q1751.14 72.2924 1747.78 73.0216 Q1744.46 73.7508 1740.69 73.7508 Q1730.44 73.7508 1724.41 67.3098 Q1718.37 60.8689 1718.37 49.9314 Q1718.37 38.832 1724.45 32.472 Q1730.57 26.1121 1741.18 26.1121 Q1744.62 26.1121 1747.9 26.8413 Q1751.18 27.5299 1754.26 28.9478 Z" fill="#000000" fill-rule="nonzero" fill-opacity="1" /><path clip-path="url(#clip090)" d="M1804.94 45.1919 L1804.94 72.576 L1797.49 72.576 L1797.49 45.4349 Q1797.49 38.994 1794.97 35.7938 Q1792.46 32.5936 1787.44 32.5936 Q1781.4 32.5936 1777.92 36.4419 Q1774.44 40.2903 1774.44 46.9338 L1774.44 72.576 L1766.94 72.576 L1766.94 9.54393 L1774.44 9.54393 L1774.44 34.2544 Q1777.11 30.163 1780.72 28.1376 Q1784.36 26.1121 1789.1 26.1121 Q1796.92 26.1121 1800.93 30.9732 Q1804.94 35.7938 1804.94 45.1919 Z" fill="#000000" fill-rule="nonzero" fill-opacity="1" /><path clip-path="url(#clip090)" d="M1846.18 27.2059 L1853.63 27.2059 L1853.63 72.576 L1846.18 72.576 L1846.18 27.2059 M1846.18 9.54393 L1853.63 9.54393 L1853.63 18.9825 L1846.18 18.9825 L1846.18 9.54393 Z" fill="#000000" fill-rule="nonzero" fill-opacity="1" /><path clip-path="url(#clip090)" d="M1876.6 14.324 L1876.6 27.2059 L1891.95 27.2059 L1891.95 32.9987 L1876.6 32.9987 L1876.6 57.6282 Q1876.6 63.1779 1878.1 64.7578 Q1879.64 66.3376 1884.3 66.3376 L1891.95 66.3376 L1891.95 72.576 L1884.3 72.576 Q1875.67 72.576 1872.39 69.3758 Q1869.11 66.1351 1869.11 57.6282 L1869.11 32.9987 L1863.64 32.9987 L1863.64 27.2059 L1869.11 27.2059 L1869.11 14.324 L1876.6 14.324 Z" fill="#000000" fill-rule="nonzero" fill-opacity="1" /><path clip-path="url(#clip090)" d="M1940.56 48.0275 L1940.56 51.6733 L1906.29 51.6733 Q1906.78 59.3701 1910.91 63.421 Q1915.08 67.4314 1922.5 67.4314 Q1926.79 67.4314 1930.8 66.3781 Q1934.85 65.3249 1938.82 63.2184 L1938.82 70.267 Q1934.81 71.9684 1930.6 72.8596 Q1926.39 73.7508 1922.05 73.7508 Q1911.19 73.7508 1904.83 67.4314 Q1898.52 61.1119 1898.52 50.3365 Q1898.52 39.1965 1904.51 32.6746 Q1910.55 26.1121 1920.76 26.1121 Q1929.91 26.1121 1935.22 32.0264 Q1940.56 37.9003 1940.56 48.0275 M1933.11 45.84 Q1933.03 39.7232 1929.67 36.0774 Q1926.35 32.4315 1920.84 32.4315 Q1914.6 32.4315 1910.83 35.9558 Q1907.1 39.4801 1906.54 45.8805 L1933.11 45.84 Z" fill="#000000" fill-rule="nonzero" fill-opacity="1" /><path clip-path="url(#clip090)" d="M1979.09 34.1734 Q1977.83 33.4443 1976.33 33.1202 Q1974.88 32.7556 1973.09 32.7556 Q1966.77 32.7556 1963.37 36.8875 Q1960.01 40.9789 1960.01 48.6757 L1960.01 72.576 L1952.51 72.576 L1952.51 27.2059 L1960.01 27.2059 L1960.01 34.2544 Q1962.36 30.1225 1966.13 28.1376 Q1969.89 26.1121 1975.28 26.1121 Q1976.05 26.1121 1976.98 26.2337 Q1977.91 26.3147 1979.05 26.5172 L1979.09 34.1734 Z" fill="#000000" fill-rule="nonzero" fill-opacity="1" /><path clip-path="url(#clip090)" d="M2007.53 49.7694 Q1998.49 49.7694 1995.01 51.8354 Q1991.52 53.9013 1991.52 58.8839 Q1991.52 62.8538 1994.12 65.2034 Q1996.75 67.5124 2001.25 67.5124 Q2007.44 67.5124 2011.17 63.1374 Q2014.94 58.7219 2014.94 51.4303 L2014.94 49.7694 L2007.53 49.7694 M2022.39 46.6907 L2022.39 72.576 L2014.94 72.576 L2014.94 65.6895 Q2012.39 69.8214 2008.58 71.8063 Q2004.77 73.7508 1999.26 73.7508 Q1992.29 73.7508 1988.16 69.8619 Q1984.07 65.9325 1984.07 59.3701 Q1984.07 51.7138 1989.17 47.825 Q1994.32 43.9361 2004.49 43.9361 L2014.94 43.9361 L2014.94 43.2069 Q2014.94 38.0623 2011.54 35.2672 Q2008.17 32.4315 2002.06 32.4315 Q1998.17 32.4315 1994.48 33.3632 Q1990.8 34.295 1987.39 36.1584 L1987.39 29.2718 Q1991.48 27.692 1995.33 26.9223 Q1999.18 26.1121 2002.83 26.1121 Q2012.67 26.1121 2017.53 31.2163 Q2022.39 36.3204 2022.39 46.6907 Z" fill="#000000" fill-rule="nonzero" fill-opacity="1" /><path clip-path="url(#clip090)" d="M2045.12 14.324 L2045.12 27.2059 L2060.47 27.2059 L2060.47 32.9987 L2045.12 32.9987 L2045.12 57.6282 Q2045.12 63.1779 2046.62 64.7578 Q2048.16 66.3376 2052.81 66.3376 L2060.47 66.3376 L2060.47 72.576 L2052.81 72.576 Q2044.19 72.576 2040.9 69.3758 Q2037.62 66.1351 2037.62 57.6282 L2037.62 32.9987 L2032.15 32.9987 L2032.15 27.2059 L2037.62 27.2059 L2037.62 14.324 L2045.12 14.324 Z" fill="#000000" fill-rule="nonzero" fill-opacity="1" /><path clip-path="url(#clip090)" d="M2070.27 27.2059 L2077.73 27.2059 L2077.73 72.576 L2070.27 72.576 L2070.27 27.2059 M2070.27 9.54393 L2077.73 9.54393 L2077.73 18.9825 L2070.27 18.9825 L2070.27 9.54393 Z" fill="#000000" fill-rule="nonzero" fill-opacity="1" /><path clip-path="url(#clip090)" d="M2110.9 32.4315 Q2104.91 32.4315 2101.43 37.1306 Q2097.94 41.7891 2097.94 49.9314 Q2097.94 58.0738 2101.38 62.7728 Q2104.87 67.4314 2110.9 67.4314 Q2116.86 67.4314 2120.34 62.7323 Q2123.83 58.0333 2123.83 49.9314 Q2123.83 41.8701 2120.34 37.1711 Q2116.86 32.4315 2110.9 32.4315 M2110.9 26.1121 Q2120.63 26.1121 2126.18 32.4315 Q2131.73 38.7509 2131.73 49.9314 Q2131.73 61.0714 2126.18 67.4314 Q2120.63 73.7508 2110.9 73.7508 Q2101.14 73.7508 2095.59 67.4314 Q2090.08 61.0714 2090.08 49.9314 Q2090.08 38.7509 2095.59 32.4315 Q2101.14 26.1121 2110.9 26.1121 Z" fill="#000000" fill-rule="nonzero" fill-opacity="1" /><path clip-path="url(#clip090)" d="M2181.8 45.1919 L2181.8 72.576 L2174.34 72.576 L2174.34 45.4349 Q2174.34 38.994 2171.83 35.7938 Q2169.32 32.5936 2164.3 32.5936 Q2158.26 32.5936 2154.78 36.4419 Q2151.29 40.2903 2151.29 46.9338 L2151.29 72.576 L2143.8 72.576 L2143.8 27.2059 L2151.29 27.2059 L2151.29 34.2544 Q2153.97 30.163 2157.57 28.1376 Q2161.22 26.1121 2165.96 26.1121 Q2173.77 26.1121 2177.78 30.9732 Q2181.8 35.7938 2181.8 45.1919 Z" fill="#000000" fill-rule="nonzero" fill-opacity="1" /><polyline clip-path="url(#clip092)" style="stroke:#009af9; stroke-linecap:round; stroke-linejoin:round; stroke-width:4; stroke-opacity:1; fill:none" points="309.067,1364.33 311.55,1367.27 314.034,1360.16 316.517,1361.14 319,1359.18 321.483,1368.25 323.967,1360.89 326.45,1374.87 328.933,1372.91 331.417,1379.77 333.9,1382.47 336.383,1383.7 338.867,1383.7 341.35,1386.15 343.833,1370.21 346.317,1373.15 348.8,1382.96 351.283,1380.26 353.767,1384.19 356.25,1386.4 358.733,1382.72 361.216,1364.08 363.7,1359.91 366.183,1367.76 368.666,1362.85 371.15,1341.03 373.633,1339.07 376.116,1330.48 378.6,1324.84 381.083,1325.58 383.566,1327.05 386.05,1331.22 388.533,1337.35 391.016,1330.73 393.499,1334.9 395.983,1327.05 398.466,1316.02 400.949,1305.47 403.433,1282.91 405.916,1262.8 408.399,1251.28 410.883,1241.22 413.366,1227.73 415.849,1218.17 418.333,1197.57 420.816,1190.46 423.299,1174.03 425.782,1147.05 428.266,1130.38 430.749,1110.02 433.232,1091.39 435.716,1078.88 438.199,1063.19 440.682,1055.83 443.166,1036.46 445.649,1015.12 448.132,994.522 450.616,978.091 453.099,957.247 455.582,937.138 458.066,918.501 460.549,894.469 463.032,883.679 465.515,866.022 467.999,840.028 470.482,823.598 472.965,808.394 475.449,798.339 477.932,787.794 480.415,778.231 482.899,763.272 485.382,747.087 487.865,724.035 490.349,718.15 492.832,708.095 495.315,694.853 497.798,681.366 500.282,669.84 502.765,655.371 505.248,652.919 507.732,639.677 510.215,623.247 512.698,610.74 515.182,607.061 517.665,589.16 520.148,569.296 522.632,563.411 525.115,556.054 527.598,539.624 530.081,529.079 532.565,518.534 535.048,507.009 537.531,495.973 540.015,482.486 542.498,472.922 544.981,463.358 547.465,456.737 549.948,442.514 552.431,431.233 554.915,429.762 557.398,420.443 559.881,405.484 562.364,403.032 564.848,388.809 567.331,372.133 569.814,359.381 572.298,345.403 574.781,334.368 577.264,324.804 579.748,317.938 582.231,302.243 584.714,300.281 587.198,289.246 589.681,279.437 592.164,277.966 594.648,267.911 597.131,259.328 599.614,246.577 602.097,234.315 604.581,231.863 607.064,226.958 609.547,214.942 612.031,206.85 614.514,199.983 616.997,189.193 619.481,184.289 621.964,176.932 624.447,169.82 626.931,163.935 629.414,160.256 631.897,160.256 634.38,160.256 636.864,160.256 639.347,160.256 641.83,160.256 644.314,160.256 646.797,160.256 649.28,160.256 651.764,160.256 654.247,160.256 656.73,160.256 659.214,160.256 661.697,160.256 664.18,160.256 666.663,160.256 669.147,160.256 671.63,160.256 674.113,160.256 676.597,160.256 679.08,160.256 681.563,160.256 684.047,160.256 686.53,160.256 689.013,160.256 691.497,160.256 693.98,160.256 696.463,160.256 698.946,160.256 701.43,160.256 703.913,160.256 706.396,160.256 708.88,160.256 711.363,160.256 713.846,160.256 716.33,160.256 718.813,160.256 721.296,160.256 723.78,160.256 726.263,160.256 728.746,160.256 731.23,160.256 733.713,160.256 736.196,160.256 738.679,160.256 741.163,160.256 743.646,160.256 746.129,160.256 748.613,160.256 751.096,160.256 753.579,160.256 756.063,160.256 758.546,160.256 761.029,160.256 763.513,160.256 765.996,160.256 768.479,160.256 770.962,160.256 773.446,160.256 775.929,160.256 778.412,160.256 780.896,160.256 783.379,160.256 785.862,160.256 788.346,160.256 790.829,160.256 793.312,160.256 795.796,160.256 798.279,160.256 800.762,160.256 803.245,160.256 805.729,160.256 808.212,160.256 810.695,160.256 813.179,160.256 815.662,160.256 818.145,160.256 820.629,160.256 823.112,160.256 825.595,160.256 828.079,160.256 830.562,160.256 833.045,160.256 835.528,160.256 838.012,160.256 840.495,160.256 842.978,160.256 845.462,160.256 847.945,160.256 850.428,160.256 852.912,160.256 855.395,160.256 857.878,160.256 860.362,160.256 862.845,160.256 865.328,160.256 867.812,160.256 870.295,160.256 872.778,160.256 875.261,160.256 877.745,160.256 880.228,160.256 882.711,160.256 885.195,160.256 887.678,160.256 890.161,160.256 892.645,160.256 895.128,160.256 897.611,160.256 900.095,160.256 902.578,160.256 905.061,160.256 907.544,160.256 910.028,160.256 912.511,160.256 914.994,160.256 917.478,160.256 919.961,160.256 922.444,160.256 924.928,160.256 927.411,160.256 929.894,160.256 932.378,160.256 934.861,160.256 937.344,160.256 939.827,160.256 942.311,160.256 944.794,160.256 947.277,160.256 949.761,160.256 952.244,160.256 954.727,160.256 957.211,160.256 959.694,160.256 962.177,160.256 964.661,160.256 967.144,160.256 969.627,160.256 972.111,160.256 974.594,160.256 977.077,160.256 979.56,160.256 982.044,160.256 984.527,160.256 987.01,160.256 989.494,160.256 991.977,160.256 994.46,160.256 996.944,160.256 999.427,160.256 1001.91,160.256 1004.39,160.256 1006.88,160.256 1009.36,160.256 1011.84,160.256 1014.33,160.256 1016.81,160.256 1019.29,160.256 1021.78,160.256 1024.26,160.256 1026.74,160.256 1029.23,160.256 1031.71,160.256 1034.19,160.256 1036.68,160.256 1039.16,160.256 1041.64,160.256 1044.13,160.256 1046.61,160.256 1049.09,160.256 1051.58,160.256 1054.06,160.256 1056.54,160.256 1059.03,160.256 1061.51,160.256 1063.99,160.256 1066.48,160.256 1068.96,160.256 1071.44,160.256 1073.93,160.256 1076.41,160.256 1078.89,160.256 1081.38,160.256 1083.86,160.256 1086.34,160.256 1088.83,160.256 1091.31,160.256 1093.79,160.256 1096.28,160.256 1098.76,160.256 1101.24,160.256 1103.73,160.256 1106.21,160.256 1108.69,160.256 1111.18,160.256 1113.66,160.256 1116.14,160.256 1118.63,160.256 1121.11,160.256 1123.59,160.256 1126.08,160.256 1128.56,160.256 1131.04,160.256 1133.53,160.256 1136.01,160.256 1138.49,160.256 1140.98,160.256 1143.46,160.256 1145.94,160.256 1148.43,160.256 1150.91,160.256 1153.39,160.256 1155.88,160.256 1158.36,160.256 1160.84,160.256 1163.33,160.256 1165.81,160.256 1168.29,160.256 1170.78,160.256 1173.26,160.256 1175.74,160.256 1178.23,160.256 1180.71,160.256 1183.19,160.256 1185.68,160.256 1188.16,160.256 1190.64,160.256 1193.13,160.256 1195.61,160.256 1198.09,160.256 1200.57,160.256 1203.06,160.256 1205.54,160.256 1208.02,160.256 1210.51,160.256 1212.99,160.256 1215.47,160.256 1217.96,160.256 1220.44,160.256 1222.92,160.256 1225.41,160.256 1227.89,160.256 1230.37,160.256 1232.86,160.256 1235.34,160.256 1237.82,160.256 1240.31,160.256 1242.79,160.256 1245.27,160.256 1247.76,160.256 1250.24,160.256 1252.72,160.256 1255.21,160.256 1257.69,160.256 1260.17,160.256 1262.66,160.256 1265.14,160.256 1267.62,160.256 1270.11,160.256 1272.59,160.256 1275.07,160.256 1277.56,160.256 1280.04,160.256 1282.52,160.256 1285.01,160.256 1287.49,160.256 1289.97,160.256 1292.46,160.256 1294.94,160.256 1297.42,160.256 1299.91,160.256 1302.39,160.256 1304.87,160.256 1307.36,160.256 1309.84,160.256 1312.32,160.256 1314.81,160.256 1317.29,160.256 1319.77,160.256 1322.26,160.256 1324.74,160.256 1327.22,160.256 1329.71,160.256 1332.19,160.256 1334.67,160.256 1337.16,160.256 1339.64,160.256 1342.12,160.256 1344.61,160.256 1347.09,160.256 1349.57,160.256 1352.06,160.256 1354.54,160.256 1357.02,160.256 1359.51,160.256 1361.99,160.256 1364.47,160.256 1366.96,160.256 1369.44,160.256 1371.92,160.256 1374.41,160.256 1376.89,160.256 1379.37,160.256 1381.86,160.256 1384.34,160.256 1386.82,160.256 1389.31,160.256 1391.79,160.256 1394.27,160.256 1396.76,160.256 1399.24,160.256 1401.72,160.256 1404.21,160.256 1406.69,160.256 1409.17,160.256 1411.66,160.256 1414.14,160.256 1416.62,160.256 1419.11,160.256 1421.59,160.256 1424.07,160.256 1426.56,160.256 1429.04,160.256 1431.52,160.256 1434.01,160.256 1436.49,160.256 1438.97,160.256 1441.46,160.256 1443.94,160.256 1446.42,160.256 1448.91,160.256 1451.39,160.256 1453.87,160.256 1456.36,160.256 1458.84,160.256 1461.32,160.256 1463.81,160.256 1466.29,160.256 1468.77,160.256 1471.26,160.256 1473.74,160.256 1476.22,160.256 1478.71,160.256 1481.19,160.256 1483.67,160.256 1486.16,160.256 1488.64,160.256 1491.12,160.256 1493.61,160.256 1496.09,160.256 1498.57,160.256 1501.06,160.256 1503.54,160.256 1506.02,160.256 1508.51,160.256 1510.99,160.256 1513.47,160.256 1515.96,160.256 1518.44,160.256 1520.92,160.256 1523.41,160.256 1525.89,160.256 1528.37,160.256 1530.86,160.256 1533.34,160.256 1535.82,160.256 1538.3,160.256 1540.79,160.256 1543.27,160.256 1545.75,160.256 1548.24,160.256 1550.72,160.256 1553.2,160.256 1555.69,160.256 1558.17,160.256 1560.65,160.256 1563.14,160.256 1565.62,160.256 1568.1,160.256 1570.59,160.256 1573.07,160.256 1575.55,160.256 1578.04,160.256 1580.52,160.256 1583,160.256 1585.49,160.256 1587.97,160.256 1590.45,160.256 1592.94,160.256 1595.42,160.256 1597.9,160.256 1600.39,160.256 1602.87,160.256 1605.35,160.256 1607.84,160.256 1610.32,160.256 1612.8,160.256 1615.29,160.256 1617.77,160.256 1620.25,160.256 1622.74,160.256 1625.22,160.256 1627.7,160.256 1630.19,160.256 1632.67,160.256 1635.15,160.256 1637.64,160.256 1640.12,160.256 1642.6,160.256 1645.09,160.256 1647.57,160.256 1650.05,160.256 1652.54,160.256 1655.02,160.256 1657.5,160.256 1659.99,160.256 1662.47,160.256 1664.95,160.256 1667.44,160.256 1669.92,160.256 1672.4,160.256 1674.89,160.256 1677.37,160.256 1679.85,160.256 1682.34,160.256 1684.82,160.256 1687.3,160.256 1689.79,160.256 1692.27,160.256 1694.75,160.256 1697.24,160.256 1699.72,160.256 1702.2,160.256 1704.69,160.256 1707.17,160.256 1709.65,160.256 1712.14,160.256 1714.62,160.256 1717.1,160.256 1719.59,160.256 1722.07,160.256 1724.55,160.256 1727.04,160.256 1729.52,160.256 1732,160.256 1734.49,160.256 1736.97,160.256 1739.45,160.256 1741.94,160.256 1744.42,160.256 1746.9,160.256 1749.39,160.256 1751.87,160.256 1754.35,160.256 1756.84,160.256 1759.32,160.256 1761.8,160.256 1764.29,160.256 1766.77,160.256 1769.25,160.256 1771.74,160.256 1774.22,160.256 1776.7,160.256 1779.19,160.256 1781.67,160.256 1784.15,160.256 1786.64,160.256 1789.12,160.256 1791.6,160.256 1794.09,160.256 1796.57,160.256 1799.05,160.256 1801.54,160.256 1804.02,160.256 1806.5,160.256 1808.99,160.256 1811.47,160.256 1813.95,160.256 1816.44,160.256 1818.92,160.256 1821.4,160.256 1823.89,160.256 1826.37,160.256 1828.85,160.256 1831.34,160.256 1833.82,160.256 1836.3,160.256 1838.79,160.256 1841.27,160.256 1843.75,160.256 1846.24,160.256 1848.72,160.256 1851.2,160.256 1853.69,160.256 1856.17,160.256 1858.65,160.256 1861.14,160.256 1863.62,160.256 1866.1,160.256 1868.59,160.256 1871.07,160.256 1873.55,160.256 1876.04,160.256 1878.52,160.256 1881,160.256 1883.48,160.256 1885.97,160.256 1888.45,160.256 1890.93,160.256 1893.42,160.256 1895.9,160.256 1898.38,160.256 1900.87,160.256 1903.35,160.256 1905.83,160.256 1908.32,160.256 1910.8,160.256 1913.28,160.256 1915.77,160.256 1918.25,160.256 1920.73,160.256 1923.22,160.256 1925.7,160.256 1928.18,160.256 1930.67,160.256 1933.15,160.256 1935.63,160.256 1938.12,160.256 1940.6,160.256 1943.08,160.256 1945.57,160.256 1948.05,160.256 1950.53,160.256 1953.02,160.256 1955.5,160.256 1957.98,160.256 1960.47,160.256 1962.95,160.256 1965.43,160.256 1967.92,160.256 1970.4,160.256 1972.88,160.256 1975.37,160.256 1977.85,160.256 1980.33,160.256 1982.82,160.256 1985.3,160.256 1987.78,160.256 1990.27,160.256 1992.75,160.256 1995.23,160.256 1997.72,160.256 2000.2,160.256 2002.68,160.256 2005.17,160.256 2007.65,160.256 2010.13,160.256 2012.62,160.256 2015.1,160.256 2017.58,160.256 2020.07,160.256 2022.55,160.256 2025.03,160.256 2027.52,160.256 2030,160.256 2032.48,160.256 2034.97,160.256 2037.45,160.256 2039.93,160.256 2042.42,160.256 2044.9,160.256 2047.38,160.256 2049.87,160.256 2052.35,160.256 2054.83,160.256 2057.32,160.256 2059.8,160.256 2062.28,160.256 2064.77,160.256 2067.25,160.256 2069.73,160.256 2072.22,160.256 2074.7,160.256 2077.18,160.256 2079.67,160.256 2082.15,160.256 2084.63,160.256 2087.12,160.256 2089.6,160.256 2092.08,160.256 2094.57,160.256 2097.05,160.256 2099.53,160.256 2102.02,160.256 2104.5,160.256 2106.98,160.256 2109.47,160.256 2111.95,160.256 2114.43,160.256 2116.92,160.256 2119.4,160.256 2121.88,160.256 2124.37,160.256 2126.85,160.256 2129.33,160.256 2131.82,160.256 2134.3,160.256 2136.78,160.256 2139.27,160.256 2141.75,160.256 2144.23,160.256 2146.72,160.256 2149.2,160.256 2151.68,160.256 2154.17,160.256 2156.65,160.256 2159.13,160.256 2161.62,160.256 2164.1,160.256 2166.58,160.256 2169.07,160.256 2171.55,160.256 2174.03,160.256 2176.52,160.256 2179,160.256 2181.48,160.256 2183.97,160.256 2186.45,160.256 2188.93,160.256 2191.42,160.256 2193.9,160.256 2196.38,160.256 2198.87,160.256 2201.35,160.256 2203.83,160.256 2206.32,160.256 2208.8,160.256 2211.28,160.256 2213.77,160.256 2216.25,160.256 2218.73,160.256 2221.22,160.256 2223.7,160.256 2226.18,160.256 2228.66,160.256 2231.15,160.256 2233.63,160.256 2236.11,160.256 2238.6,160.256 2241.08,160.256 2243.56,160.256 2246.05,160.256 2248.53,160.256 2251.01,160.256 2253.5,160.256 2255.98,160.256 2258.46,160.256 2260.95,160.256 2263.43,160.256 2265.91,160.256 2268.4,160.256 2270.88,160.256 2273.36,160.256 2275.85,160.256 2278.33,160.256 2280.81,160.256 2283.3,160.256 2285.78,160.256 2288.26,160.256 2290.75,160.256 2293.23,160.256 "/>
</svg>
