<?xml version="1.0" encoding="utf-8"?>
<svg xmlns="http://www.w3.org/2000/svg" xmlns:xlink="http://www.w3.org/1999/xlink" width="600" height="400" viewBox="0 0 2400 1600">
<defs>
  <clipPath id="clip870">
    <rect x="0" y="0" width="2400" height="1600"/>
  </clipPath>
</defs>
<path clip-path="url(#clip870)" d="M0 1600 L2400 1600 L2400 0 L0 0  Z" fill="#ffffff" fill-rule="evenodd" fill-opacity="1"/>
<defs>
  <clipPath id="clip871">
    <rect x="480" y="0" width="1681" height="1600"/>
  </clipPath>
</defs>
<path clip-path="url(#clip870)" d="M249.542 1423.18 L2352.76 1423.18 L2352.76 123.472 L249.542 123.472  Z" fill="#ffffff" fill-rule="evenodd" fill-opacity="1"/>
<defs>
  <clipPath id="clip872">
    <rect x="249" y="123" width="2104" height="1301"/>
  </clipPath>
</defs>
<polyline clip-path="url(#clip872)" style="stroke:#000000; stroke-linecap:round; stroke-linejoin:round; stroke-width:2; stroke-opacity:0.1; fill:none" points="308.662,1423.18 308.662,123.472 "/>
<polyline clip-path="url(#clip872)" style="stroke:#000000; stroke-linecap:round; stroke-linejoin:round; stroke-width:2; stroke-opacity:0.1; fill:none" points="713.593,1423.18 713.593,123.472 "/>
<polyline clip-path="url(#clip872)" style="stroke:#000000; stroke-linecap:round; stroke-linejoin:round; stroke-width:2; stroke-opacity:0.1; fill:none" points="1118.52,1423.18 1118.52,123.472 "/>
<polyline clip-path="url(#clip872)" style="stroke:#000000; stroke-linecap:round; stroke-linejoin:round; stroke-width:2; stroke-opacity:0.1; fill:none" points="1523.46,1423.18 1523.46,123.472 "/>
<polyline clip-path="url(#clip872)" style="stroke:#000000; stroke-linecap:round; stroke-linejoin:round; stroke-width:2; stroke-opacity:0.1; fill:none" points="1928.39,1423.18 1928.39,123.472 "/>
<polyline clip-path="url(#clip872)" style="stroke:#000000; stroke-linecap:round; stroke-linejoin:round; stroke-width:2; stroke-opacity:0.1; fill:none" points="2333.32,1423.18 2333.32,123.472 "/>
<polyline clip-path="url(#clip872)" style="stroke:#000000; stroke-linecap:round; stroke-linejoin:round; stroke-width:2; stroke-opacity:0.1; fill:none" points="249.542,1386.4 2352.76,1386.4 "/>
<polyline clip-path="url(#clip872)" style="stroke:#000000; stroke-linecap:round; stroke-linejoin:round; stroke-width:2; stroke-opacity:0.1; fill:none" points="249.542,1104.88 2352.76,1104.88 "/>
<polyline clip-path="url(#clip872)" style="stroke:#000000; stroke-linecap:round; stroke-linejoin:round; stroke-width:2; stroke-opacity:0.1; fill:none" points="249.542,823.358 2352.76,823.358 "/>
<polyline clip-path="url(#clip872)" style="stroke:#000000; stroke-linecap:round; stroke-linejoin:round; stroke-width:2; stroke-opacity:0.1; fill:none" points="249.542,541.839 2352.76,541.839 "/>
<polyline clip-path="url(#clip872)" style="stroke:#000000; stroke-linecap:round; stroke-linejoin:round; stroke-width:2; stroke-opacity:0.1; fill:none" points="249.542,260.321 2352.76,260.321 "/>
<polyline clip-path="url(#clip870)" style="stroke:#000000; stroke-linecap:round; stroke-linejoin:round; stroke-width:4; stroke-opacity:1; fill:none" points="249.542,1423.18 2352.76,1423.18 "/>
<polyline clip-path="url(#clip870)" style="stroke:#000000; stroke-linecap:round; stroke-linejoin:round; stroke-width:4; stroke-opacity:1; fill:none" points="308.662,1423.18 308.662,1404.28 "/>
<polyline clip-path="url(#clip870)" style="stroke:#000000; stroke-linecap:round; stroke-linejoin:round; stroke-width:4; stroke-opacity:1; fill:none" points="713.593,1423.18 713.593,1404.28 "/>
<polyline clip-path="url(#clip870)" style="stroke:#000000; stroke-linecap:round; stroke-linejoin:round; stroke-width:4; stroke-opacity:1; fill:none" points="1118.52,1423.18 1118.52,1404.28 "/>
<polyline clip-path="url(#clip870)" style="stroke:#000000; stroke-linecap:round; stroke-linejoin:round; stroke-width:4; stroke-opacity:1; fill:none" points="1523.46,1423.18 1523.46,1404.28 "/>
<polyline clip-path="url(#clip870)" style="stroke:#000000; stroke-linecap:round; stroke-linejoin:round; stroke-width:4; stroke-opacity:1; fill:none" points="1928.39,1423.18 1928.39,1404.28 "/>
<polyline clip-path="url(#clip870)" style="stroke:#000000; stroke-linecap:round; stroke-linejoin:round; stroke-width:4; stroke-opacity:1; fill:none" points="2333.32,1423.18 2333.32,1404.28 "/>
<path clip-path="url(#clip870)" d="M308.662 1454.1 Q305.051 1454.1 303.222 1457.66 Q301.417 1461.2 301.417 1468.33 Q301.417 1475.44 303.222 1479.01 Q305.051 1482.55 308.662 1482.55 Q312.296 1482.55 314.102 1479.01 Q315.931 1475.44 315.931 1468.33 Q315.931 1461.2 314.102 1457.66 Q312.296 1454.1 308.662 1454.1 M308.662 1450.39 Q314.472 1450.39 317.528 1455 Q320.606 1459.58 320.606 1468.33 Q320.606 1477.06 317.528 1481.67 Q314.472 1486.25 308.662 1486.25 Q302.852 1486.25 299.773 1481.67 Q296.718 1477.06 296.718 1468.33 Q296.718 1459.58 299.773 1455 Q302.852 1450.39 308.662 1450.39 Z" fill="#000000" fill-rule="nonzero" fill-opacity="1" /><path clip-path="url(#clip870)" d="M703.975 1481.64 L711.614 1481.64 L711.614 1455.28 L703.304 1456.95 L703.304 1452.69 L711.568 1451.02 L716.244 1451.02 L716.244 1481.64 L723.883 1481.64 L723.883 1485.58 L703.975 1485.58 L703.975 1481.64 Z" fill="#000000" fill-rule="nonzero" fill-opacity="1" /><path clip-path="url(#clip870)" d="M1113.18 1481.64 L1129.5 1481.64 L1129.5 1485.58 L1107.55 1485.58 L1107.55 1481.64 Q1110.21 1478.89 1114.8 1474.26 Q1119.4 1469.61 1120.59 1468.27 Q1122.83 1465.74 1123.71 1464.01 Q1124.61 1462.25 1124.61 1460.56 Q1124.61 1457.8 1122.67 1456.07 Q1120.75 1454.33 1117.65 1454.33 Q1115.45 1454.33 1112.99 1455.09 Q1110.56 1455.86 1107.78 1457.41 L1107.78 1452.69 Q1110.61 1451.55 1113.06 1450.97 Q1115.52 1450.39 1117.55 1450.39 Q1122.92 1450.39 1126.12 1453.08 Q1129.31 1455.77 1129.31 1460.26 Q1129.31 1462.39 1128.5 1464.31 Q1127.71 1466.2 1125.61 1468.8 Q1125.03 1469.47 1121.93 1472.69 Q1118.83 1475.88 1113.18 1481.64 Z" fill="#000000" fill-rule="nonzero" fill-opacity="1" /><path clip-path="url(#clip870)" d="M1527.7 1466.95 Q1531.06 1467.66 1532.94 1469.93 Q1534.83 1472.2 1534.83 1475.53 Q1534.83 1480.65 1531.32 1483.45 Q1527.8 1486.25 1521.32 1486.25 Q1519.14 1486.25 1516.82 1485.81 Q1514.53 1485.39 1512.08 1484.54 L1512.08 1480.02 Q1514.02 1481.16 1516.34 1481.74 Q1518.65 1482.32 1521.18 1482.32 Q1525.57 1482.32 1527.87 1480.58 Q1530.18 1478.84 1530.18 1475.53 Q1530.18 1472.48 1528.03 1470.77 Q1525.9 1469.03 1522.08 1469.03 L1518.05 1469.03 L1518.05 1465.19 L1522.26 1465.19 Q1525.71 1465.19 1527.54 1463.82 Q1529.37 1462.43 1529.37 1459.84 Q1529.37 1457.18 1527.47 1455.77 Q1525.6 1454.33 1522.08 1454.33 Q1520.16 1454.33 1517.96 1454.75 Q1515.76 1455.16 1513.12 1456.04 L1513.12 1451.88 Q1515.78 1451.14 1518.1 1450.77 Q1520.44 1450.39 1522.5 1450.39 Q1527.82 1450.39 1530.92 1452.83 Q1534.02 1455.23 1534.02 1459.35 Q1534.02 1462.22 1532.38 1464.21 Q1530.74 1466.18 1527.7 1466.95 Z" fill="#000000" fill-rule="nonzero" fill-opacity="1" /><path clip-path="url(#clip870)" d="M1931.4 1455.09 L1919.59 1473.54 L1931.4 1473.54 L1931.4 1455.09 M1930.17 1451.02 L1936.05 1451.02 L1936.05 1473.54 L1940.98 1473.54 L1940.98 1477.43 L1936.05 1477.43 L1936.05 1485.58 L1931.4 1485.58 L1931.4 1477.43 L1915.8 1477.43 L1915.8 1472.92 L1930.17 1451.02 Z" fill="#000000" fill-rule="nonzero" fill-opacity="1" /><path clip-path="url(#clip870)" d="M2323.6 1451.02 L2341.95 1451.02 L2341.95 1454.96 L2327.88 1454.96 L2327.88 1463.43 Q2328.9 1463.08 2329.92 1462.92 Q2330.93 1462.73 2331.95 1462.73 Q2337.74 1462.73 2341.12 1465.9 Q2344.5 1469.08 2344.5 1474.49 Q2344.5 1480.07 2341.03 1483.17 Q2337.56 1486.25 2331.24 1486.25 Q2329.06 1486.25 2326.79 1485.88 Q2324.55 1485.51 2322.14 1484.77 L2322.14 1480.07 Q2324.22 1481.2 2326.44 1481.76 Q2328.67 1482.32 2331.14 1482.32 Q2335.15 1482.32 2337.49 1480.21 Q2339.82 1478.1 2339.82 1474.49 Q2339.82 1470.88 2337.49 1468.77 Q2335.15 1466.67 2331.14 1466.67 Q2329.27 1466.67 2327.39 1467.08 Q2325.54 1467.5 2323.6 1468.38 L2323.6 1451.02 Z" fill="#000000" fill-rule="nonzero" fill-opacity="1" /><path clip-path="url(#clip870)" d="M1180.39 1520.52 L1220.59 1520.52 L1220.59 1525.93 L1203.72 1525.93 L1203.72 1568.04 L1197.26 1568.04 L1197.26 1525.93 L1180.39 1525.93 L1180.39 1520.52 Z" fill="#000000" fill-rule="nonzero" fill-opacity="1" /><path clip-path="url(#clip870)" d="M1240.61 1518.58 Q1236.35 1525.9 1234.28 1533.06 Q1232.21 1540.23 1232.21 1547.58 Q1232.21 1554.93 1234.28 1562.16 Q1236.38 1569.35 1240.61 1576.64 L1235.52 1576.64 Q1230.74 1569.16 1228.36 1561.93 Q1226 1554.71 1226 1547.58 Q1226 1540.48 1228.36 1533.29 Q1230.71 1526.09 1235.52 1518.58 L1240.61 1518.58 Z" fill="#000000" fill-rule="nonzero" fill-opacity="1" /><path clip-path="url(#clip870)" d="M1252.23 1520.52 L1258.66 1520.52 L1258.66 1564.73 Q1258.66 1573.33 1255.38 1577.21 Q1252.13 1581.09 1244.91 1581.09 L1242.46 1581.09 L1242.46 1575.68 L1244.46 1575.68 Q1248.73 1575.68 1250.48 1573.3 Q1252.23 1570.91 1252.23 1564.73 L1252.23 1520.52 Z" fill="#000000" fill-rule="nonzero" fill-opacity="1" /><path clip-path="url(#clip870)" d="M1281.61 1520.52 L1287.02 1520.52 L1270.47 1574.09 L1265.06 1574.09 L1281.61 1520.52 Z" fill="#000000" fill-rule="nonzero" fill-opacity="1" /><path clip-path="url(#clip870)" d="M1292.94 1518.52 L1298.83 1518.52 L1298.83 1547.77 L1316.3 1532.4 L1323.78 1532.4 L1304.87 1549.07 L1324.57 1568.04 L1316.94 1568.04 L1298.83 1550.63 L1298.83 1568.04 L1292.94 1568.04 L1292.94 1518.52 Z" fill="#000000" fill-rule="nonzero" fill-opacity="1" /><path clip-path="url(#clip870)" d="M1357.99 1578.87 L1357.99 1583.42 L1324.13 1583.42 L1324.13 1578.87 L1357.99 1578.87 Z" fill="#000000" fill-rule="nonzero" fill-opacity="1" /><path clip-path="url(#clip870)" d="M1370.19 1545.35 L1370.19 1562.76 L1380.5 1562.76 Q1385.69 1562.76 1388.17 1560.63 Q1390.68 1558.46 1390.68 1554.04 Q1390.68 1549.58 1388.17 1547.48 Q1385.69 1545.35 1380.5 1545.35 L1370.19 1545.35 M1370.19 1525.81 L1370.19 1540.13 L1379.7 1540.13 Q1384.41 1540.13 1386.7 1538.38 Q1389.03 1536.6 1389.03 1532.97 Q1389.03 1529.37 1386.7 1527.59 Q1384.41 1525.81 1379.7 1525.81 L1370.19 1525.81 M1363.76 1520.52 L1380.18 1520.52 Q1387.53 1520.52 1391.51 1523.58 Q1395.49 1526.63 1395.49 1532.27 Q1395.49 1536.63 1393.45 1539.21 Q1391.41 1541.79 1387.47 1542.42 Q1392.21 1543.44 1394.82 1546.69 Q1397.46 1549.9 1397.46 1554.74 Q1397.46 1561.11 1393.13 1564.57 Q1388.8 1568.04 1380.82 1568.04 L1363.76 1568.04 L1363.76 1520.52 Z" fill="#000000" fill-rule="nonzero" fill-opacity="1" /><path clip-path="url(#clip870)" d="M1407.3 1518.58 L1412.39 1518.58 Q1417.16 1526.09 1419.52 1533.29 Q1421.91 1540.48 1421.91 1547.58 Q1421.91 1554.71 1419.52 1561.93 Q1417.16 1569.16 1412.39 1576.64 L1407.3 1576.64 Q1411.53 1569.35 1413.6 1562.16 Q1415.7 1554.93 1415.7 1547.58 Q1415.7 1540.23 1413.6 1533.06 Q1411.53 1525.9 1407.3 1518.58 Z" fill="#000000" fill-rule="nonzero" fill-opacity="1" /><polyline clip-path="url(#clip870)" style="stroke:#000000; stroke-linecap:round; stroke-linejoin:round; stroke-width:4; stroke-opacity:1; fill:none" points="249.542,1423.18 249.542,123.472 "/>
<polyline clip-path="url(#clip870)" style="stroke:#000000; stroke-linecap:round; stroke-linejoin:round; stroke-width:4; stroke-opacity:1; fill:none" points="249.542,1386.4 268.44,1386.4 "/>
<polyline clip-path="url(#clip870)" style="stroke:#000000; stroke-linecap:round; stroke-linejoin:round; stroke-width:4; stroke-opacity:1; fill:none" points="249.542,1104.88 268.44,1104.88 "/>
<polyline clip-path="url(#clip870)" style="stroke:#000000; stroke-linecap:round; stroke-linejoin:round; stroke-width:4; stroke-opacity:1; fill:none" points="249.542,823.358 268.44,823.358 "/>
<polyline clip-path="url(#clip870)" style="stroke:#000000; stroke-linecap:round; stroke-linejoin:round; stroke-width:4; stroke-opacity:1; fill:none" points="249.542,541.839 268.44,541.839 "/>
<polyline clip-path="url(#clip870)" style="stroke:#000000; stroke-linecap:round; stroke-linejoin:round; stroke-width:4; stroke-opacity:1; fill:none" points="249.542,260.321 268.44,260.321 "/>
<path clip-path="url(#clip870)" d="M126.205 1372.19 Q122.593 1372.19 120.765 1375.76 Q118.959 1379.3 118.959 1386.43 Q118.959 1393.54 120.765 1397.1 Q122.593 1400.64 126.205 1400.64 Q129.839 1400.64 131.644 1397.1 Q133.473 1393.54 133.473 1386.43 Q133.473 1379.3 131.644 1375.76 Q129.839 1372.19 126.205 1372.19 M126.205 1368.49 Q132.015 1368.49 135.07 1373.1 Q138.149 1377.68 138.149 1386.43 Q138.149 1395.16 135.07 1399.76 Q132.015 1404.35 126.205 1404.35 Q120.394 1404.35 117.316 1399.76 Q114.26 1395.16 114.26 1386.43 Q114.26 1377.68 117.316 1373.1 Q120.394 1368.49 126.205 1368.49 Z" fill="#000000" fill-rule="nonzero" fill-opacity="1" /><path clip-path="url(#clip870)" d="M146.366 1397.8 L151.251 1397.8 L151.251 1403.68 L146.366 1403.68 L146.366 1397.8 Z" fill="#000000" fill-rule="nonzero" fill-opacity="1" /><path clip-path="url(#clip870)" d="M171.436 1372.19 Q167.825 1372.19 165.996 1375.76 Q164.19 1379.3 164.19 1386.43 Q164.19 1393.54 165.996 1397.1 Q167.825 1400.64 171.436 1400.64 Q175.07 1400.64 176.876 1397.1 Q178.704 1393.54 178.704 1386.43 Q178.704 1379.3 176.876 1375.76 Q175.07 1372.19 171.436 1372.19 M171.436 1368.49 Q177.246 1368.49 180.301 1373.1 Q183.38 1377.68 183.38 1386.43 Q183.38 1395.16 180.301 1399.76 Q177.246 1404.35 171.436 1404.35 Q165.626 1404.35 162.547 1399.76 Q159.491 1395.16 159.491 1386.43 Q159.491 1377.68 162.547 1373.1 Q165.626 1368.49 171.436 1368.49 Z" fill="#000000" fill-rule="nonzero" fill-opacity="1" /><path clip-path="url(#clip870)" d="M201.598 1372.19 Q197.987 1372.19 196.158 1375.76 Q194.352 1379.3 194.352 1386.43 Q194.352 1393.54 196.158 1397.1 Q197.987 1400.64 201.598 1400.64 Q205.232 1400.64 207.037 1397.1 Q208.866 1393.54 208.866 1386.43 Q208.866 1379.3 207.037 1375.76 Q205.232 1372.19 201.598 1372.19 M201.598 1368.49 Q207.408 1368.49 210.463 1373.1 Q213.542 1377.68 213.542 1386.43 Q213.542 1395.16 210.463 1399.76 Q207.408 1404.35 201.598 1404.35 Q195.787 1404.35 192.709 1399.76 Q189.653 1395.16 189.653 1386.43 Q189.653 1377.68 192.709 1373.1 Q195.787 1368.49 201.598 1368.49 Z" fill="#000000" fill-rule="nonzero" fill-opacity="1" /><path clip-path="url(#clip870)" d="M127.2 1090.68 Q123.589 1090.68 121.76 1094.24 Q119.955 1097.78 119.955 1104.91 Q119.955 1112.02 121.76 1115.58 Q123.589 1119.12 127.2 1119.12 Q130.834 1119.12 132.64 1115.58 Q134.468 1112.02 134.468 1104.91 Q134.468 1097.78 132.64 1094.24 Q130.834 1090.68 127.2 1090.68 M127.2 1086.97 Q133.01 1086.97 136.066 1091.58 Q139.144 1096.16 139.144 1104.91 Q139.144 1113.64 136.066 1118.24 Q133.01 1122.83 127.2 1122.83 Q121.39 1122.83 118.311 1118.24 Q115.256 1113.64 115.256 1104.91 Q115.256 1096.16 118.311 1091.58 Q121.39 1086.97 127.2 1086.97 Z" fill="#000000" fill-rule="nonzero" fill-opacity="1" /><path clip-path="url(#clip870)" d="M147.362 1116.28 L152.246 1116.28 L152.246 1122.16 L147.362 1122.16 L147.362 1116.28 Z" fill="#000000" fill-rule="nonzero" fill-opacity="1" /><path clip-path="url(#clip870)" d="M166.459 1118.22 L182.778 1118.22 L182.778 1122.16 L160.834 1122.16 L160.834 1118.22 Q163.496 1115.47 168.079 1110.84 Q172.686 1106.18 173.866 1104.84 Q176.112 1102.32 176.991 1100.58 Q177.894 1098.82 177.894 1097.13 Q177.894 1094.38 175.95 1092.64 Q174.028 1090.91 170.927 1090.91 Q168.727 1090.91 166.274 1091.67 Q163.843 1092.43 161.065 1093.99 L161.065 1089.26 Q163.89 1088.13 166.343 1087.55 Q168.797 1086.97 170.834 1086.97 Q176.204 1086.97 179.399 1089.66 Q182.593 1092.34 182.593 1096.83 Q182.593 1098.96 181.783 1100.88 Q180.996 1102.78 178.889 1105.37 Q178.311 1106.05 175.209 1109.26 Q172.107 1112.46 166.459 1118.22 Z" fill="#000000" fill-rule="nonzero" fill-opacity="1" /><path clip-path="url(#clip870)" d="M192.639 1087.6 L210.996 1087.6 L210.996 1091.53 L196.922 1091.53 L196.922 1100 Q197.94 1099.66 198.959 1099.5 Q199.977 1099.31 200.996 1099.31 Q206.783 1099.31 210.162 1102.48 Q213.542 1105.65 213.542 1111.07 Q213.542 1116.65 210.07 1119.75 Q206.598 1122.83 200.278 1122.83 Q198.102 1122.83 195.834 1122.46 Q193.588 1122.09 191.181 1121.35 L191.181 1116.65 Q193.264 1117.78 195.487 1118.34 Q197.709 1118.89 200.186 1118.89 Q204.19 1118.89 206.528 1116.79 Q208.866 1114.68 208.866 1111.07 Q208.866 1107.46 206.528 1105.35 Q204.19 1103.24 200.186 1103.24 Q198.311 1103.24 196.436 1103.66 Q194.584 1104.08 192.639 1104.96 L192.639 1087.6 Z" fill="#000000" fill-rule="nonzero" fill-opacity="1" /><path clip-path="url(#clip870)" d="M126.205 809.157 Q122.593 809.157 120.765 812.722 Q118.959 816.263 118.959 823.393 Q118.959 830.499 120.765 834.064 Q122.593 837.606 126.205 837.606 Q129.839 837.606 131.644 834.064 Q133.473 830.499 133.473 823.393 Q133.473 816.263 131.644 812.722 Q129.839 809.157 126.205 809.157 M126.205 805.453 Q132.015 805.453 135.07 810.06 Q138.149 814.643 138.149 823.393 Q138.149 832.12 135.07 836.726 Q132.015 841.309 126.205 841.309 Q120.394 841.309 117.316 836.726 Q114.26 832.12 114.26 823.393 Q114.26 814.643 117.316 810.06 Q120.394 805.453 126.205 805.453 Z" fill="#000000" fill-rule="nonzero" fill-opacity="1" /><path clip-path="url(#clip870)" d="M146.366 834.759 L151.251 834.759 L151.251 840.638 L146.366 840.638 L146.366 834.759 Z" fill="#000000" fill-rule="nonzero" fill-opacity="1" /><path clip-path="url(#clip870)" d="M161.482 806.078 L179.839 806.078 L179.839 810.013 L165.765 810.013 L165.765 818.486 Q166.783 818.138 167.802 817.976 Q168.82 817.791 169.839 817.791 Q175.626 817.791 179.005 820.962 Q182.385 824.134 182.385 829.55 Q182.385 835.129 178.913 838.231 Q175.44 841.309 169.121 841.309 Q166.945 841.309 164.677 840.939 Q162.431 840.569 160.024 839.828 L160.024 835.129 Q162.107 836.263 164.329 836.819 Q166.552 837.374 169.028 837.374 Q173.033 837.374 175.371 835.268 Q177.709 833.161 177.709 829.55 Q177.709 825.939 175.371 823.833 Q173.033 821.726 169.028 821.726 Q167.153 821.726 165.278 822.143 Q163.427 822.56 161.482 823.439 L161.482 806.078 Z" fill="#000000" fill-rule="nonzero" fill-opacity="1" /><path clip-path="url(#clip870)" d="M201.598 809.157 Q197.987 809.157 196.158 812.722 Q194.352 816.263 194.352 823.393 Q194.352 830.499 196.158 834.064 Q197.987 837.606 201.598 837.606 Q205.232 837.606 207.037 834.064 Q208.866 830.499 208.866 823.393 Q208.866 816.263 207.037 812.722 Q205.232 809.157 201.598 809.157 M201.598 805.453 Q207.408 805.453 210.463 810.06 Q213.542 814.643 213.542 823.393 Q213.542 832.12 210.463 836.726 Q207.408 841.309 201.598 841.309 Q195.787 841.309 192.709 836.726 Q189.653 832.12 189.653 823.393 Q189.653 814.643 192.709 810.06 Q195.787 805.453 201.598 805.453 Z" fill="#000000" fill-rule="nonzero" fill-opacity="1" /><path clip-path="url(#clip870)" d="M127.2 527.638 Q123.589 527.638 121.76 531.203 Q119.955 534.745 119.955 541.874 Q119.955 548.981 121.76 552.545 Q123.589 556.087 127.2 556.087 Q130.834 556.087 132.64 552.545 Q134.468 548.981 134.468 541.874 Q134.468 534.745 132.64 531.203 Q130.834 527.638 127.2 527.638 M127.2 523.934 Q133.01 523.934 136.066 528.541 Q139.144 533.124 139.144 541.874 Q139.144 550.601 136.066 555.207 Q133.01 559.791 127.2 559.791 Q121.39 559.791 118.311 555.207 Q115.256 550.601 115.256 541.874 Q115.256 533.124 118.311 528.541 Q121.39 523.934 127.2 523.934 Z" fill="#000000" fill-rule="nonzero" fill-opacity="1" /><path clip-path="url(#clip870)" d="M147.362 553.24 L152.246 553.24 L152.246 559.119 L147.362 559.119 L147.362 553.24 Z" fill="#000000" fill-rule="nonzero" fill-opacity="1" /><path clip-path="url(#clip870)" d="M161.251 524.559 L183.473 524.559 L183.473 526.55 L170.927 559.119 L166.042 559.119 L177.848 528.495 L161.251 528.495 L161.251 524.559 Z" fill="#000000" fill-rule="nonzero" fill-opacity="1" /><path clip-path="url(#clip870)" d="M192.639 524.559 L210.996 524.559 L210.996 528.495 L196.922 528.495 L196.922 536.967 Q197.94 536.62 198.959 536.458 Q199.977 536.272 200.996 536.272 Q206.783 536.272 210.162 539.444 Q213.542 542.615 213.542 548.032 Q213.542 553.61 210.07 556.712 Q206.598 559.791 200.278 559.791 Q198.102 559.791 195.834 559.42 Q193.588 559.05 191.181 558.309 L191.181 553.61 Q193.264 554.744 195.487 555.3 Q197.709 555.856 200.186 555.856 Q204.19 555.856 206.528 553.749 Q208.866 551.643 208.866 548.032 Q208.866 544.42 206.528 542.314 Q204.19 540.208 200.186 540.208 Q198.311 540.208 196.436 540.624 Q194.584 541.041 192.639 541.92 L192.639 524.559 Z" fill="#000000" fill-rule="nonzero" fill-opacity="1" /><path clip-path="url(#clip870)" d="M117.015 273.666 L124.654 273.666 L124.654 247.3 L116.343 248.967 L116.343 244.707 L124.607 243.041 L129.283 243.041 L129.283 273.666 L136.922 273.666 L136.922 277.601 L117.015 277.601 L117.015 273.666 Z" fill="#000000" fill-rule="nonzero" fill-opacity="1" /><path clip-path="url(#clip870)" d="M146.366 271.721 L151.251 271.721 L151.251 277.601 L146.366 277.601 L146.366 271.721 Z" fill="#000000" fill-rule="nonzero" fill-opacity="1" /><path clip-path="url(#clip870)" d="M171.436 246.119 Q167.825 246.119 165.996 249.684 Q164.19 253.226 164.19 260.355 Q164.19 267.462 165.996 271.027 Q167.825 274.568 171.436 274.568 Q175.07 274.568 176.876 271.027 Q178.704 267.462 178.704 260.355 Q178.704 253.226 176.876 249.684 Q175.07 246.119 171.436 246.119 M171.436 242.416 Q177.246 242.416 180.301 247.022 Q183.38 251.606 183.38 260.355 Q183.38 269.082 180.301 273.689 Q177.246 278.272 171.436 278.272 Q165.626 278.272 162.547 273.689 Q159.491 269.082 159.491 260.355 Q159.491 251.606 162.547 247.022 Q165.626 242.416 171.436 242.416 Z" fill="#000000" fill-rule="nonzero" fill-opacity="1" /><path clip-path="url(#clip870)" d="M201.598 246.119 Q197.987 246.119 196.158 249.684 Q194.352 253.226 194.352 260.355 Q194.352 267.462 196.158 271.027 Q197.987 274.568 201.598 274.568 Q205.232 274.568 207.037 271.027 Q208.866 267.462 208.866 260.355 Q208.866 253.226 207.037 249.684 Q205.232 246.119 201.598 246.119 M201.598 242.416 Q207.408 242.416 210.463 247.022 Q213.542 251.606 213.542 260.355 Q213.542 269.082 210.463 273.689 Q207.408 278.272 201.598 278.272 Q195.787 278.272 192.709 273.689 Q189.653 269.082 189.653 260.355 Q189.653 251.606 192.709 247.022 Q195.787 242.416 201.598 242.416 Z" fill="#000000" fill-rule="nonzero" fill-opacity="1" /><path clip-path="url(#clip870)" d="M16.4842 791.5 L16.4842 784.593 L34.149 772.785 L16.4842 760.913 L16.4842 754.006 L39.3052 769.284 L64.0042 752.988 L64.0042 759.894 L43.793 773.262 L64.0042 786.726 L64.0042 793.664 L38.6368 776.7 L16.4842 791.5 Z" fill="#000000" fill-rule="nonzero" fill-opacity="1" /><path clip-path="url(#clip870)" d="M246.131 12.096 L258.325 12.096 L273.759 53.2532 L289.274 12.096 L301.467 12.096 L301.467 72.576 L293.487 72.576 L293.487 19.4686 L277.891 60.9499 L269.667 60.9499 L254.071 19.4686 L254.071 72.576 L246.131 72.576 L246.131 12.096 Z" fill="#000000" fill-rule="nonzero" fill-opacity="1" /><path clip-path="url(#clip870)" d="M338.006 49.7694 Q328.972 49.7694 325.489 51.8354 Q322.005 53.9013 322.005 58.8839 Q322.005 62.8538 324.597 65.2034 Q327.231 67.5124 331.727 67.5124 Q337.925 67.5124 341.652 63.1374 Q345.419 58.7219 345.419 51.4303 L345.419 49.7694 L338.006 49.7694 M352.873 46.6907 L352.873 72.576 L345.419 72.576 L345.419 65.6895 Q342.867 69.8214 339.059 71.8063 Q335.251 73.7508 329.742 73.7508 Q322.775 73.7508 318.643 69.8619 Q314.551 65.9325 314.551 59.3701 Q314.551 51.7138 319.655 47.825 Q324.8 43.9361 334.968 43.9361 L345.419 43.9361 L345.419 43.2069 Q345.419 38.0623 342.016 35.2672 Q338.654 32.4315 332.537 32.4315 Q328.648 32.4315 324.962 33.3632 Q321.276 34.295 317.873 36.1584 L317.873 29.2718 Q321.964 27.692 325.813 26.9223 Q329.661 26.1121 333.307 26.1121 Q343.151 26.1121 348.012 31.2163 Q352.873 36.3204 352.873 46.6907 Z" fill="#000000" fill-rule="nonzero" fill-opacity="1" /><path clip-path="url(#clip870)" d="M398.081 49.3643 Q398.081 41.2625 394.719 36.8065 Q391.397 32.3505 385.361 32.3505 Q379.366 32.3505 376.003 36.8065 Q372.682 41.2625 372.682 49.3643 Q372.682 57.4256 376.003 61.8816 Q379.366 66.3376 385.361 66.3376 Q391.397 66.3376 394.719 61.8816 Q398.081 57.4256 398.081 49.3643 M405.535 66.9452 Q405.535 78.5308 400.39 84.1616 Q395.245 89.8329 384.632 89.8329 Q380.703 89.8329 377.219 89.2252 Q373.735 88.6581 370.454 87.4428 L370.454 80.1917 Q373.735 81.9741 376.935 82.8248 Q380.135 83.6755 383.457 83.6755 Q390.789 83.6755 394.435 79.8271 Q398.081 76.0193 398.081 68.282 L398.081 64.5957 Q395.772 68.6061 392.167 70.5911 Q388.561 72.576 383.538 72.576 Q375.193 72.576 370.089 66.2161 Q364.985 59.8562 364.985 49.3643 Q364.985 38.832 370.089 32.472 Q375.193 26.1121 383.538 26.1121 Q388.561 26.1121 392.167 28.0971 Q395.772 30.082 398.081 34.0924 L398.081 27.2059 L405.535 27.2059 L405.535 66.9452 Z" fill="#000000" fill-rule="nonzero" fill-opacity="1" /><path clip-path="url(#clip870)" d="M483.839 14.0809 L483.839 22.0612 Q479.18 19.8332 475.048 18.7395 Q470.916 17.6457 467.068 17.6457 Q460.384 17.6457 456.738 20.2383 Q453.133 22.8309 453.133 27.611 Q453.133 31.6214 455.523 33.6873 Q457.953 35.7128 464.678 36.9686 L469.62 37.9813 Q478.775 39.7232 483.109 44.1387 Q487.484 48.5136 487.484 55.8863 Q487.484 64.6767 481.57 69.2137 Q475.696 73.7508 464.313 73.7508 Q460.019 73.7508 455.158 72.7785 Q450.338 71.8063 445.152 69.9024 L445.152 61.4765 Q450.135 64.2716 454.915 65.6895 Q459.695 67.1073 464.313 67.1073 Q471.321 67.1073 475.129 64.3527 Q478.937 61.598 478.937 56.4939 Q478.937 52.0379 476.182 49.5264 Q473.468 47.0148 467.23 45.759 L462.247 44.7868 Q453.092 42.9639 449.001 39.075 Q444.909 35.1862 444.909 28.2591 Q444.909 20.2383 450.54 15.6203 Q456.211 11.0023 466.136 11.0023 Q470.39 11.0023 474.805 11.7719 Q479.221 12.5416 483.839 14.0809 Z" fill="#000000" fill-rule="nonzero" fill-opacity="1" /><path clip-path="url(#clip870)" d="M499.151 54.671 L499.151 27.2059 L506.605 27.2059 L506.605 54.3874 Q506.605 60.8284 509.116 64.0691 Q511.628 67.2693 516.651 67.2693 Q522.687 67.2693 526.17 63.421 Q529.695 59.5726 529.695 52.9291 L529.695 27.2059 L537.148 27.2059 L537.148 72.576 L529.695 72.576 L529.695 65.6084 Q526.981 69.7404 523.375 71.7658 Q519.811 73.7508 515.071 73.7508 Q507.253 73.7508 503.202 68.8897 Q499.151 64.0286 499.151 54.671 M517.907 26.1121 L517.907 26.1121 Z" fill="#000000" fill-rule="nonzero" fill-opacity="1" /><path clip-path="url(#clip870)" d="M581.425 28.5427 L581.425 35.5912 Q578.265 33.9709 574.862 33.1607 Q571.46 32.3505 567.814 32.3505 Q562.264 32.3505 559.469 34.0519 Q556.714 35.7533 556.714 39.156 Q556.714 41.7486 558.699 43.2475 Q560.684 44.7058 566.68 46.0426 L569.232 46.6097 Q577.171 48.3111 580.493 51.4303 Q583.855 54.509 583.855 60.0587 Q583.855 66.3781 578.832 70.0644 Q573.85 73.7508 565.1 73.7508 Q561.454 73.7508 557.484 73.0216 Q553.555 72.3329 549.18 70.9151 L549.18 63.2184 Q553.312 65.3654 557.322 66.4591 Q561.332 67.5124 565.262 67.5124 Q570.528 67.5124 573.364 65.73 Q576.199 63.9071 576.199 60.6258 Q576.199 57.5877 574.133 55.9673 Q572.108 54.3469 565.181 52.8481 L562.588 52.2405 Q555.661 50.7821 552.582 47.7845 Q549.504 44.7463 549.504 39.4801 Q549.504 33.0797 554.041 29.5959 Q558.578 26.1121 566.923 26.1121 Q571.055 26.1121 574.7 26.7198 Q578.346 27.3274 581.425 28.5427 Z" fill="#000000" fill-rule="nonzero" fill-opacity="1" /><path clip-path="url(#clip870)" d="M628.375 28.9478 L628.375 35.9153 Q625.215 34.1734 622.015 33.3227 Q618.855 32.4315 615.614 32.4315 Q608.363 32.4315 604.353 37.0496 Q600.343 41.6271 600.343 49.9314 Q600.343 58.2358 604.353 62.8538 Q608.363 67.4314 615.614 67.4314 Q618.855 67.4314 622.015 66.5807 Q625.215 65.6895 628.375 63.9476 L628.375 70.8341 Q625.256 72.2924 621.893 73.0216 Q618.572 73.7508 614.804 73.7508 Q604.555 73.7508 598.52 67.3098 Q592.484 60.8689 592.484 49.9314 Q592.484 38.832 598.56 32.472 Q604.677 26.1121 615.29 26.1121 Q618.734 26.1121 622.015 26.8413 Q625.296 27.5299 628.375 28.9478 Z" fill="#000000" fill-rule="nonzero" fill-opacity="1" /><path clip-path="url(#clip870)" d="M680.145 48.0275 L680.145 51.6733 L645.875 51.6733 Q646.361 59.3701 650.493 63.421 Q654.665 67.4314 662.078 67.4314 Q666.372 67.4314 670.383 66.3781 Q674.434 65.3249 678.403 63.2184 L678.403 70.267 Q674.393 71.9684 670.18 72.8596 Q665.967 73.7508 661.633 73.7508 Q650.776 73.7508 644.416 67.4314 Q638.097 61.1119 638.097 50.3365 Q638.097 39.1965 644.092 32.6746 Q650.128 26.1121 660.336 26.1121 Q669.491 26.1121 674.798 32.0264 Q680.145 37.9003 680.145 48.0275 M672.692 45.84 Q672.611 39.7232 669.248 36.0774 Q665.927 32.4315 660.417 32.4315 Q654.179 32.4315 650.412 35.9558 Q646.685 39.4801 646.118 45.8805 L672.692 45.84 Z" fill="#000000" fill-rule="nonzero" fill-opacity="1" /><path clip-path="url(#clip870)" d="M699.59 65.7705 L699.59 89.8329 L692.096 89.8329 L692.096 27.2059 L699.59 27.2059 L699.59 34.0924 Q701.939 30.0415 705.504 28.0971 Q709.109 26.1121 714.092 26.1121 Q722.356 26.1121 727.5 32.6746 Q732.686 39.2371 732.686 49.9314 Q732.686 60.6258 727.5 67.1883 Q722.356 73.7508 714.092 73.7508 Q709.109 73.7508 705.504 71.8063 Q701.939 69.8214 699.59 65.7705 M724.948 49.9314 Q724.948 41.7081 721.546 37.0496 Q718.183 32.3505 712.269 32.3505 Q706.355 32.3505 702.952 37.0496 Q699.59 41.7081 699.59 49.9314 Q699.59 58.1548 702.952 62.8538 Q706.355 67.5124 712.269 67.5124 Q718.183 67.5124 721.546 62.8538 Q724.948 58.1548 724.948 49.9314 Z" fill="#000000" fill-rule="nonzero" fill-opacity="1" /><path clip-path="url(#clip870)" d="M752.413 14.324 L752.413 27.2059 L767.766 27.2059 L767.766 32.9987 L752.413 32.9987 L752.413 57.6282 Q752.413 63.1779 753.912 64.7578 Q755.452 66.3376 760.11 66.3376 L767.766 66.3376 L767.766 72.576 L760.11 72.576 Q751.482 72.576 748.201 69.3758 Q744.919 66.1351 744.919 57.6282 L744.919 32.9987 L739.451 32.9987 L739.451 27.2059 L744.919 27.2059 L744.919 14.324 L752.413 14.324 Z" fill="#000000" fill-rule="nonzero" fill-opacity="1" /><path clip-path="url(#clip870)" d="M778.623 62.2867 L787.17 62.2867 L787.17 72.576 L778.623 72.576 L778.623 62.2867 Z" fill="#000000" fill-rule="nonzero" fill-opacity="1" /><path clip-path="url(#clip870)" d="M824.965 27.2059 L832.864 27.2059 L847.043 65.2844 L861.221 27.2059 L869.12 27.2059 L852.106 72.576 L841.979 72.576 L824.965 27.2059 Z" fill="#000000" fill-rule="nonzero" fill-opacity="1" /><path clip-path="url(#clip870)" d="M908.333 28.5427 L908.333 35.5912 Q905.173 33.9709 901.77 33.1607 Q898.368 32.3505 894.722 32.3505 Q889.172 32.3505 886.377 34.0519 Q883.622 35.7533 883.622 39.156 Q883.622 41.7486 885.607 43.2475 Q887.592 44.7058 893.587 46.0426 L896.14 46.6097 Q904.079 48.3111 907.401 51.4303 Q910.763 54.509 910.763 60.0587 Q910.763 66.3781 905.74 70.0644 Q900.758 73.7508 892.008 73.7508 Q888.362 73.7508 884.392 73.0216 Q880.463 72.3329 876.088 70.9151 L876.088 63.2184 Q880.22 65.3654 884.23 66.4591 Q888.24 67.5124 892.17 67.5124 Q897.436 67.5124 900.271 65.73 Q903.107 63.9071 903.107 60.6258 Q903.107 57.5877 901.041 55.9673 Q899.016 54.3469 892.089 52.8481 L889.496 52.2405 Q882.569 50.7821 879.49 47.7845 Q876.412 44.7463 876.412 39.4801 Q876.412 33.0797 880.949 29.5959 Q885.486 26.1121 893.831 26.1121 Q897.962 26.1121 901.608 26.7198 Q905.254 27.3274 908.333 28.5427 Z" fill="#000000" fill-rule="nonzero" fill-opacity="1" /><path clip-path="url(#clip870)" d="M940.943 12.096 L992.105 12.096 L992.105 18.9825 L970.636 18.9825 L970.636 72.576 L962.412 72.576 L962.412 18.9825 L940.943 18.9825 L940.943 12.096 Z" fill="#000000" fill-rule="nonzero" fill-opacity="1" /><path clip-path="url(#clip870)" d="M1024.39 48.0275 L1024.39 51.6733 L990.121 51.6733 Q990.607 59.3701 994.739 63.421 Q998.911 67.4314 1006.32 67.4314 Q1010.62 67.4314 1014.63 66.3781 Q1018.68 65.3249 1022.65 63.2184 L1022.65 70.267 Q1018.64 71.9684 1014.43 72.8596 Q1010.21 73.7508 1005.88 73.7508 Q995.022 73.7508 988.662 67.4314 Q982.343 61.1119 982.343 50.3365 Q982.343 39.1965 988.338 32.6746 Q994.374 26.1121 1004.58 26.1121 Q1013.74 26.1121 1019.04 32.0264 Q1024.39 37.9003 1024.39 48.0275 M1016.94 45.84 Q1016.86 39.7232 1013.49 36.0774 Q1010.17 32.4315 1004.66 32.4315 Q998.425 32.4315 994.658 35.9558 Q990.931 39.4801 990.364 45.8805 L1016.94 45.84 Z" fill="#000000" fill-rule="nonzero" fill-opacity="1" /><path clip-path="url(#clip870)" d="M1071.95 35.9153 Q1074.74 30.8922 1078.63 28.5022 Q1082.52 26.1121 1087.79 26.1121 Q1094.88 26.1121 1098.73 31.0947 Q1102.57 36.0368 1102.57 45.1919 L1102.57 72.576 L1095.08 72.576 L1095.08 45.4349 Q1095.08 38.913 1092.77 35.7533 Q1090.46 32.5936 1085.72 32.5936 Q1079.93 32.5936 1076.57 36.4419 Q1073.2 40.2903 1073.2 46.9338 L1073.2 72.576 L1065.71 72.576 L1065.71 45.4349 Q1065.71 38.8725 1063.4 35.7533 Q1061.09 32.5936 1056.27 32.5936 Q1050.56 32.5936 1047.2 36.4824 Q1043.84 40.3308 1043.84 46.9338 L1043.84 72.576 L1036.34 72.576 L1036.34 27.2059 L1043.84 27.2059 L1043.84 34.2544 Q1046.39 30.082 1049.95 28.0971 Q1053.52 26.1121 1058.42 26.1121 Q1063.36 26.1121 1066.8 28.6237 Q1070.29 31.1352 1071.95 35.9153 Z" fill="#000000" fill-rule="nonzero" fill-opacity="1" /><path clip-path="url(#clip870)" d="M1124.65 65.7705 L1124.65 89.8329 L1117.16 89.8329 L1117.16 27.2059 L1124.65 27.2059 L1124.65 34.0924 Q1127 30.0415 1130.57 28.0971 Q1134.17 26.1121 1139.15 26.1121 Q1147.42 26.1121 1152.56 32.6746 Q1157.75 39.2371 1157.75 49.9314 Q1157.75 60.6258 1152.56 67.1883 Q1147.42 73.7508 1139.15 73.7508 Q1134.17 73.7508 1130.57 71.8063 Q1127 69.8214 1124.65 65.7705 M1150.01 49.9314 Q1150.01 41.7081 1146.61 37.0496 Q1143.24 32.3505 1137.33 32.3505 Q1131.42 32.3505 1128.01 37.0496 Q1124.65 41.7081 1124.65 49.9314 Q1124.65 58.1548 1128.01 62.8538 Q1131.42 67.5124 1137.33 67.5124 Q1143.24 67.5124 1146.61 62.8538 Q1150.01 58.1548 1150.01 49.9314 Z" fill="#000000" fill-rule="nonzero" fill-opacity="1" /><path clip-path="url(#clip870)" d="M1171.16 62.2867 L1179.7 62.2867 L1179.7 72.576 L1171.16 72.576 L1171.16 62.2867 Z" fill="#000000" fill-rule="nonzero" fill-opacity="1" /><path clip-path="url(#clip870)" d="M1243.46 49.7694 Q1234.43 49.7694 1230.95 51.8354 Q1227.46 53.9013 1227.46 58.8839 Q1227.46 62.8538 1230.06 65.2034 Q1232.69 67.5124 1237.19 67.5124 Q1243.38 67.5124 1247.11 63.1374 Q1250.88 58.7219 1250.88 51.4303 L1250.88 49.7694 L1243.46 49.7694 M1258.33 46.6907 L1258.33 72.576 L1250.88 72.576 L1250.88 65.6895 Q1248.33 69.8214 1244.52 71.8063 Q1240.71 73.7508 1235.2 73.7508 Q1228.23 73.7508 1224.1 69.8619 Q1220.01 65.9325 1220.01 59.3701 Q1220.01 51.7138 1225.11 47.825 Q1230.26 43.9361 1240.43 43.9361 L1250.88 43.9361 L1250.88 43.2069 Q1250.88 38.0623 1247.47 35.2672 Q1244.11 32.4315 1238 32.4315 Q1234.11 32.4315 1230.42 33.3632 Q1226.73 34.295 1223.33 36.1584 L1223.33 29.2718 Q1227.42 27.692 1231.27 26.9223 Q1235.12 26.1121 1238.77 26.1121 Q1248.61 26.1121 1253.47 31.2163 Q1258.33 36.3204 1258.33 46.6907 Z" fill="#000000" fill-rule="nonzero" fill-opacity="1" /><path clip-path="url(#clip870)" d="M1311.4 45.1919 L1311.4 72.576 L1303.94 72.576 L1303.94 45.4349 Q1303.94 38.994 1301.43 35.7938 Q1298.92 32.5936 1293.9 32.5936 Q1287.86 32.5936 1284.38 36.4419 Q1280.89 40.2903 1280.89 46.9338 L1280.89 72.576 L1273.4 72.576 L1273.4 27.2059 L1280.89 27.2059 L1280.89 34.2544 Q1283.57 30.163 1287.17 28.1376 Q1290.82 26.1121 1295.56 26.1121 Q1303.38 26.1121 1307.39 30.9732 Q1311.4 35.7938 1311.4 45.1919 Z" fill="#000000" fill-rule="nonzero" fill-opacity="1" /><path clip-path="url(#clip870)" d="M1356.12 34.0924 L1356.12 9.54393 L1363.57 9.54393 L1363.57 72.576 L1356.12 72.576 L1356.12 65.7705 Q1353.77 69.8214 1350.16 71.8063 Q1346.6 73.7508 1341.58 73.7508 Q1333.35 73.7508 1328.17 67.1883 Q1323.02 60.6258 1323.02 49.9314 Q1323.02 39.2371 1328.17 32.6746 Q1333.35 26.1121 1341.58 26.1121 Q1346.6 26.1121 1350.16 28.0971 Q1353.77 30.0415 1356.12 34.0924 M1330.72 49.9314 Q1330.72 58.1548 1334.08 62.8538 Q1337.49 67.5124 1343.4 67.5124 Q1349.31 67.5124 1352.72 62.8538 Q1356.12 58.1548 1356.12 49.9314 Q1356.12 41.7081 1352.72 37.0496 Q1349.31 32.3505 1343.4 32.3505 Q1337.49 32.3505 1334.08 37.0496 Q1330.72 41.7081 1330.72 49.9314 Z" fill="#000000" fill-rule="nonzero" fill-opacity="1" /><path clip-path="url(#clip870)" d="M1413.8 18.8205 L1413.8 65.8515 L1423.69 65.8515 Q1436.21 65.8515 1442 60.1802 Q1447.83 54.509 1447.83 42.2752 Q1447.83 30.1225 1442 24.4918 Q1436.21 18.8205 1423.69 18.8205 L1413.8 18.8205 M1405.62 12.096 L1422.43 12.096 Q1440.01 12.096 1448.24 19.4281 Q1456.46 26.7198 1456.46 42.2752 Q1456.46 57.9117 1448.2 65.2439 Q1439.93 72.576 1422.43 72.576 L1405.62 72.576 L1405.62 12.096 Z" fill="#000000" fill-rule="nonzero" fill-opacity="1" /><path clip-path="url(#clip870)" d="M1469.18 27.2059 L1476.63 27.2059 L1476.63 72.576 L1469.18 72.576 L1469.18 27.2059 M1469.18 9.54393 L1476.63 9.54393 L1476.63 18.9825 L1469.18 18.9825 L1469.18 9.54393 Z" fill="#000000" fill-rule="nonzero" fill-opacity="1" /><path clip-path="url(#clip870)" d="M1527.55 35.9153 Q1530.35 30.8922 1534.24 28.5022 Q1538.13 26.1121 1543.39 26.1121 Q1550.48 26.1121 1554.33 31.0947 Q1558.18 36.0368 1558.18 45.1919 L1558.18 72.576 L1550.68 72.576 L1550.68 45.4349 Q1550.68 38.913 1548.38 35.7533 Q1546.07 32.5936 1541.33 32.5936 Q1535.53 32.5936 1532.17 36.4419 Q1528.81 40.2903 1528.81 46.9338 L1528.81 72.576 L1521.32 72.576 L1521.32 45.4349 Q1521.32 38.8725 1519.01 35.7533 Q1516.7 32.5936 1511.88 32.5936 Q1506.17 32.5936 1502.8 36.4824 Q1499.44 40.3308 1499.44 46.9338 L1499.44 72.576 L1491.95 72.576 L1491.95 27.2059 L1499.44 27.2059 L1499.44 34.2544 Q1501.99 30.082 1505.56 28.0971 Q1509.12 26.1121 1514.02 26.1121 Q1518.97 26.1121 1522.41 28.6237 Q1525.89 31.1352 1527.55 35.9153 Z" fill="#000000" fill-rule="nonzero" fill-opacity="1" /><path clip-path="url(#clip870)" d="M1574.1 62.2867 L1582.65 62.2867 L1582.65 72.576 L1574.1 72.576 L1574.1 62.2867 Z" fill="#000000" fill-rule="nonzero" fill-opacity="1" /><path clip-path="url(#clip870)" d="M1643.37 32.4315 Q1637.37 32.4315 1633.89 37.1306 Q1630.41 41.7891 1630.41 49.9314 Q1630.41 58.0738 1633.85 62.7728 Q1637.33 67.4314 1643.37 67.4314 Q1649.32 67.4314 1652.81 62.7323 Q1656.29 58.0333 1656.29 49.9314 Q1656.29 41.8701 1652.81 37.1711 Q1649.32 32.4315 1643.37 32.4315 M1643.37 26.1121 Q1653.09 26.1121 1658.64 32.4315 Q1664.19 38.7509 1664.19 49.9314 Q1664.19 61.0714 1658.64 67.4314 Q1653.09 73.7508 1643.37 73.7508 Q1633.61 73.7508 1628.06 67.4314 Q1622.55 61.0714 1622.55 49.9314 Q1622.55 38.7509 1628.06 32.4315 Q1633.61 26.1121 1643.37 26.1121 Z" fill="#000000" fill-rule="nonzero" fill-opacity="1" /><path clip-path="url(#clip870)" d="M1699.51 9.54393 L1699.51 15.7418 L1692.39 15.7418 Q1688.37 15.7418 1686.8 17.3622 Q1685.26 18.9825 1685.26 23.1955 L1685.26 27.2059 L1697.53 27.2059 L1697.53 32.9987 L1685.26 32.9987 L1685.26 72.576 L1677.76 72.576 L1677.76 32.9987 L1670.63 32.9987 L1670.63 27.2059 L1677.76 27.2059 L1677.76 24.0462 Q1677.76 16.471 1681.29 13.0277 Q1684.81 9.54393 1692.47 9.54393 L1699.51 9.54393 Z" fill="#000000" fill-rule="nonzero" fill-opacity="1" /><path clip-path="url(#clip870)" d="M1768.7 14.0809 L1768.7 22.0612 Q1764.05 19.8332 1759.91 18.7395 Q1755.78 17.6457 1751.93 17.6457 Q1745.25 17.6457 1741.6 20.2383 Q1738 22.8309 1738 27.611 Q1738 31.6214 1740.39 33.6873 Q1742.82 35.7128 1749.54 36.9686 L1754.49 37.9813 Q1763.64 39.7232 1767.98 44.1387 Q1772.35 48.5136 1772.35 55.8863 Q1772.35 64.6767 1766.44 69.2137 Q1760.56 73.7508 1749.18 73.7508 Q1744.89 73.7508 1740.02 72.7785 Q1735.2 71.8063 1730.02 69.9024 L1730.02 61.4765 Q1735 64.2716 1739.78 65.6895 Q1744.56 67.1073 1749.18 67.1073 Q1756.19 67.1073 1759.99 64.3527 Q1763.8 61.598 1763.8 56.4939 Q1763.8 52.0379 1761.05 49.5264 Q1758.33 47.0148 1752.1 45.759 L1747.11 44.7868 Q1737.96 42.9639 1733.87 39.075 Q1729.78 35.1862 1729.78 28.2591 Q1729.78 20.2383 1735.41 15.6203 Q1741.08 11.0023 1751 11.0023 Q1755.26 11.0023 1759.67 11.7719 Q1764.09 12.5416 1768.7 14.0809 Z" fill="#000000" fill-rule="nonzero" fill-opacity="1" /><path clip-path="url(#clip870)" d="M1792 65.7705 L1792 89.8329 L1784.5 89.8329 L1784.5 27.2059 L1792 27.2059 L1792 34.0924 Q1794.35 30.0415 1797.91 28.0971 Q1801.52 26.1121 1806.5 26.1121 Q1814.76 26.1121 1819.91 32.6746 Q1825.09 39.2371 1825.09 49.9314 Q1825.09 60.6258 1819.91 67.1883 Q1814.76 73.7508 1806.5 73.7508 Q1801.52 73.7508 1797.91 71.8063 Q1794.35 69.8214 1792 65.7705 M1817.36 49.9314 Q1817.36 41.7081 1813.95 37.0496 Q1810.59 32.3505 1804.68 32.3505 Q1798.76 32.3505 1795.36 37.0496 Q1792 41.7081 1792 49.9314 Q1792 58.1548 1795.36 62.8538 Q1798.76 67.5124 1804.68 67.5124 Q1810.59 67.5124 1813.95 62.8538 Q1817.36 58.1548 1817.36 49.9314 Z" fill="#000000" fill-rule="nonzero" fill-opacity="1" /><path clip-path="url(#clip870)" d="M1837.45 27.2059 L1844.9 27.2059 L1844.9 72.576 L1837.45 72.576 L1837.45 27.2059 M1837.45 9.54393 L1844.9 9.54393 L1844.9 18.9825 L1837.45 18.9825 L1837.45 9.54393 Z" fill="#000000" fill-rule="nonzero" fill-opacity="1" /><path clip-path="url(#clip870)" d="M1898.21 45.1919 L1898.21 72.576 L1890.76 72.576 L1890.76 45.4349 Q1890.76 38.994 1888.25 35.7938 Q1885.73 32.5936 1880.71 32.5936 Q1874.68 32.5936 1871.19 36.4419 Q1867.71 40.2903 1867.71 46.9338 L1867.71 72.576 L1860.21 72.576 L1860.21 27.2059 L1867.71 27.2059 L1867.71 34.2544 Q1870.38 30.163 1873.99 28.1376 Q1877.63 26.1121 1882.37 26.1121 Q1890.19 26.1121 1894.2 30.9732 Q1898.21 35.7938 1898.21 45.1919 Z" fill="#000000" fill-rule="nonzero" fill-opacity="1" /><path clip-path="url(#clip870)" d="M1942 28.5427 L1942 35.5912 Q1938.84 33.9709 1935.44 33.1607 Q1932.04 32.3505 1928.39 32.3505 Q1922.84 32.3505 1920.05 34.0519 Q1917.29 35.7533 1917.29 39.156 Q1917.29 41.7486 1919.28 43.2475 Q1921.26 44.7058 1927.26 46.0426 L1929.81 46.6097 Q1937.75 48.3111 1941.07 51.4303 Q1944.43 54.509 1944.43 60.0587 Q1944.43 66.3781 1939.41 70.0644 Q1934.43 73.7508 1925.68 73.7508 Q1922.03 73.7508 1918.06 73.0216 Q1914.13 72.3329 1909.76 70.9151 L1909.76 63.2184 Q1913.89 65.3654 1917.9 66.4591 Q1921.91 67.5124 1925.84 67.5124 Q1931.11 67.5124 1933.94 65.73 Q1936.78 63.9071 1936.78 60.6258 Q1936.78 57.5877 1934.71 55.9673 Q1932.68 54.3469 1925.76 52.8481 L1923.17 52.2405 Q1916.24 50.7821 1913.16 47.7845 Q1910.08 44.7463 1910.08 39.4801 Q1910.08 33.0797 1914.62 29.5959 Q1919.15 26.1121 1927.5 26.1121 Q1931.63 26.1121 1935.28 26.7198 Q1938.92 27.3274 1942 28.5427 Z" fill="#000000" fill-rule="nonzero" fill-opacity="1" /><path clip-path="url(#clip870)" d="M2000.58 9.62495 Q1995.15 18.942 1992.52 28.0566 Q1989.88 37.1711 1989.88 46.5287 Q1989.88 55.8863 1992.52 65.0818 Q1995.19 74.2369 2000.58 83.5134 L1994.1 83.5134 Q1988.02 73.9938 1984.98 64.7983 Q1981.98 55.6027 1981.98 46.5287 Q1981.98 37.4952 1984.98 28.3401 Q1987.98 19.1851 1994.1 9.62495 L2000.58 9.62495 Z" fill="#000000" fill-rule="nonzero" fill-opacity="1" /><path clip-path="url(#clip870)" d="M2023.14 65.6895 L2051.7 65.6895 L2051.7 72.576 L2013.3 72.576 L2013.3 65.6895 Q2017.96 60.8689 2025.98 52.7671 Q2034.04 44.6248 2036.1 42.2752 Q2040.03 37.8598 2041.57 34.8216 Q2043.15 31.7429 2043.15 28.7857 Q2043.15 23.9651 2039.75 20.927 Q2036.39 17.8888 2030.96 17.8888 Q2027.11 17.8888 2022.82 19.2256 Q2018.56 20.5624 2013.7 23.2765 L2013.7 15.0127 Q2018.65 13.0277 2022.94 12.015 Q2027.23 11.0023 2030.8 11.0023 Q2040.2 11.0023 2045.79 15.7013 Q2051.38 20.4004 2051.38 28.2591 Q2051.38 31.9859 2049.96 35.3482 Q2048.58 38.6699 2044.89 43.2069 Q2043.88 44.3817 2038.45 50.0125 Q2033.03 55.6027 2023.14 65.6895 Z" fill="#000000" fill-rule="nonzero" fill-opacity="1" /><path clip-path="url(#clip870)" d="M2106.63 48.0275 L2106.63 51.6733 L2072.36 51.6733 Q2072.85 59.3701 2076.98 63.421 Q2081.15 67.4314 2088.56 67.4314 Q2092.86 67.4314 2096.87 66.3781 Q2100.92 65.3249 2104.89 63.2184 L2104.89 70.267 Q2100.88 71.9684 2096.67 72.8596 Q2092.45 73.7508 2088.12 73.7508 Q2077.26 73.7508 2070.9 67.4314 Q2064.58 61.1119 2064.58 50.3365 Q2064.58 39.1965 2070.58 32.6746 Q2076.61 26.1121 2086.82 26.1121 Q2095.98 26.1121 2101.28 32.0264 Q2106.63 37.9003 2106.63 48.0275 M2099.18 45.84 Q2099.1 39.7232 2095.73 36.0774 Q2092.41 32.4315 2086.9 32.4315 Q2080.66 32.4315 2076.9 35.9558 Q2073.17 39.4801 2072.6 45.8805 L2099.18 45.84 Z" fill="#000000" fill-rule="nonzero" fill-opacity="1" /><path clip-path="url(#clip870)" d="M2117.85 12.096 L2156.74 12.096 L2156.74 15.5798 L2134.78 72.576 L2126.24 72.576 L2146.9 18.9825 L2117.85 18.9825 L2117.85 12.096 Z" fill="#000000" fill-rule="nonzero" fill-opacity="1" /><path clip-path="url(#clip870)" d="M2198.02 27.2059 L2205.47 27.2059 L2205.47 72.576 L2198.02 72.576 L2198.02 27.2059 M2198.02 9.54393 L2205.47 9.54393 L2205.47 18.9825 L2198.02 18.9825 L2198.02 9.54393 Z" fill="#000000" fill-rule="nonzero" fill-opacity="1" /><path clip-path="url(#clip870)" d="M2228.44 14.324 L2228.44 27.2059 L2243.79 27.2059 L2243.79 32.9987 L2228.44 32.9987 L2228.44 57.6282 Q2228.44 63.1779 2229.94 64.7578 Q2231.48 66.3376 2236.14 66.3376 L2243.79 66.3376 L2243.79 72.576 L2236.14 72.576 Q2227.51 72.576 2224.23 69.3758 Q2220.95 66.1351 2220.95 57.6282 L2220.95 32.9987 L2215.48 32.9987 L2215.48 27.2059 L2220.95 27.2059 L2220.95 14.324 L2228.44 14.324 Z" fill="#000000" fill-rule="nonzero" fill-opacity="1" /><path clip-path="url(#clip870)" d="M2292.41 48.0275 L2292.41 51.6733 L2258.13 51.6733 Q2258.62 59.3701 2262.75 63.421 Q2266.93 67.4314 2274.34 67.4314 Q2278.63 67.4314 2282.64 66.3781 Q2286.69 65.3249 2290.66 63.2184 L2290.66 70.267 Q2286.65 71.9684 2282.44 72.8596 Q2278.23 73.7508 2273.89 73.7508 Q2263.04 73.7508 2256.68 67.4314 Q2250.36 61.1119 2250.36 50.3365 Q2250.36 39.1965 2256.35 32.6746 Q2262.39 26.1121 2272.6 26.1121 Q2281.75 26.1121 2287.06 32.0264 Q2292.41 37.9003 2292.41 48.0275 M2284.95 45.84 Q2284.87 39.7232 2281.51 36.0774 Q2278.19 32.4315 2272.68 32.4315 Q2266.44 32.4315 2262.67 35.9558 Q2258.94 39.4801 2258.38 45.8805 L2284.95 45.84 Z" fill="#000000" fill-rule="nonzero" fill-opacity="1" /><path clip-path="url(#clip870)" d="M2330.93 34.1734 Q2329.67 33.4443 2328.17 33.1202 Q2326.72 32.7556 2324.93 32.7556 Q2318.61 32.7556 2315.21 36.8875 Q2311.85 40.9789 2311.85 48.6757 L2311.85 72.576 L2304.36 72.576 L2304.36 27.2059 L2311.85 27.2059 L2311.85 34.2544 Q2314.2 30.1225 2317.97 28.1376 Q2321.73 26.1121 2327.12 26.1121 Q2327.89 26.1121 2328.82 26.2337 Q2329.75 26.3147 2330.89 26.5172 L2330.93 34.1734 Z" fill="#000000" fill-rule="nonzero" fill-opacity="1" /><path clip-path="url(#clip870)" d="M2337.57 9.62495 L2344.05 9.62495 Q2350.13 19.1851 2353.13 28.3401 Q2356.17 37.4952 2356.17 46.5287 Q2356.17 55.6027 2353.13 64.7983 Q2350.13 73.9938 2344.05 83.5134 L2337.57 83.5134 Q2342.96 74.2369 2345.59 65.0818 Q2348.27 55.8863 2348.27 46.5287 Q2348.27 37.1711 2345.59 28.0566 Q2342.96 18.942 2337.57 9.62495 Z" fill="#000000" fill-rule="nonzero" fill-opacity="1" /><circle clip-path="url(#clip872)" cx="309.067" cy="1386.4" r="14.4" fill="#009af9" fill-rule="evenodd" fill-opacity="1" stroke="#000000" stroke-opacity="1" stroke-width="3.2"/>
<circle clip-path="url(#clip872)" cx="349.56" cy="1386.4" r="14.4" fill="#009af9" fill-rule="evenodd" fill-opacity="1" stroke="#000000" stroke-opacity="1" stroke-width="3.2"/>
<circle clip-path="url(#clip872)" cx="390.053" cy="1386.4" r="14.4" fill="#009af9" fill-rule="evenodd" fill-opacity="1" stroke="#000000" stroke-opacity="1" stroke-width="3.2"/>
<circle clip-path="url(#clip872)" cx="430.546" cy="1386.4" r="14.4" fill="#009af9" fill-rule="evenodd" fill-opacity="1" stroke="#000000" stroke-opacity="1" stroke-width="3.2"/>
<circle clip-path="url(#clip872)" cx="471.04" cy="1386.4" r="14.4" fill="#009af9" fill-rule="evenodd" fill-opacity="1" stroke="#000000" stroke-opacity="1" stroke-width="3.2"/>
<circle clip-path="url(#clip872)" cx="511.533" cy="1386.4" r="14.4" fill="#009af9" fill-rule="evenodd" fill-opacity="1" stroke="#000000" stroke-opacity="1" stroke-width="3.2"/>
<circle clip-path="url(#clip872)" cx="552.026" cy="1386.4" r="14.4" fill="#009af9" fill-rule="evenodd" fill-opacity="1" stroke="#000000" stroke-opacity="1" stroke-width="3.2"/>
<circle clip-path="url(#clip872)" cx="592.519" cy="1386.4" r="14.4" fill="#009af9" fill-rule="evenodd" fill-opacity="1" stroke="#000000" stroke-opacity="1" stroke-width="3.2"/>
<circle clip-path="url(#clip872)" cx="633.012" cy="1386.4" r="14.4" fill="#009af9" fill-rule="evenodd" fill-opacity="1" stroke="#000000" stroke-opacity="1" stroke-width="3.2"/>
<circle clip-path="url(#clip872)" cx="673.505" cy="1386.4" r="14.4" fill="#009af9" fill-rule="evenodd" fill-opacity="1" stroke="#000000" stroke-opacity="1" stroke-width="3.2"/>
<circle clip-path="url(#clip872)" cx="713.998" cy="1386.4" r="14.4" fill="#009af9" fill-rule="evenodd" fill-opacity="1" stroke="#000000" stroke-opacity="1" stroke-width="3.2"/>
<circle clip-path="url(#clip872)" cx="754.492" cy="1386.4" r="14.4" fill="#009af9" fill-rule="evenodd" fill-opacity="1" stroke="#000000" stroke-opacity="1" stroke-width="3.2"/>
<circle clip-path="url(#clip872)" cx="794.985" cy="1386.02" r="14.4" fill="#009af9" fill-rule="evenodd" fill-opacity="1" stroke="#000000" stroke-opacity="1" stroke-width="3.2"/>
<circle clip-path="url(#clip872)" cx="835.478" cy="1386.05" r="14.4" fill="#009af9" fill-rule="evenodd" fill-opacity="1" stroke="#000000" stroke-opacity="1" stroke-width="3.2"/>
<circle clip-path="url(#clip872)" cx="875.971" cy="1385.11" r="14.4" fill="#009af9" fill-rule="evenodd" fill-opacity="1" stroke="#000000" stroke-opacity="1" stroke-width="3.2"/>
<circle clip-path="url(#clip872)" cx="916.464" cy="1385.5" r="14.4" fill="#009af9" fill-rule="evenodd" fill-opacity="1" stroke="#000000" stroke-opacity="1" stroke-width="3.2"/>
<circle clip-path="url(#clip872)" cx="956.957" cy="1384.71" r="14.4" fill="#009af9" fill-rule="evenodd" fill-opacity="1" stroke="#000000" stroke-opacity="1" stroke-width="3.2"/>
<circle clip-path="url(#clip872)" cx="997.45" cy="1383.49" r="14.4" fill="#009af9" fill-rule="evenodd" fill-opacity="1" stroke="#000000" stroke-opacity="1" stroke-width="3.2"/>
<circle clip-path="url(#clip872)" cx="1037.94" cy="1384.15" r="14.4" fill="#009af9" fill-rule="evenodd" fill-opacity="1" stroke="#000000" stroke-opacity="1" stroke-width="3.2"/>
<circle clip-path="url(#clip872)" cx="1078.44" cy="1382.37" r="14.4" fill="#009af9" fill-rule="evenodd" fill-opacity="1" stroke="#000000" stroke-opacity="1" stroke-width="3.2"/>
<circle clip-path="url(#clip872)" cx="1118.93" cy="1382.13" r="14.4" fill="#009af9" fill-rule="evenodd" fill-opacity="1" stroke="#000000" stroke-opacity="1" stroke-width="3.2"/>
<circle clip-path="url(#clip872)" cx="1159.42" cy="1377.64" r="14.4" fill="#009af9" fill-rule="evenodd" fill-opacity="1" stroke="#000000" stroke-opacity="1" stroke-width="3.2"/>
<circle clip-path="url(#clip872)" cx="1199.92" cy="1377.02" r="14.4" fill="#009af9" fill-rule="evenodd" fill-opacity="1" stroke="#000000" stroke-opacity="1" stroke-width="3.2"/>
<circle clip-path="url(#clip872)" cx="1240.41" cy="1373.37" r="14.4" fill="#009af9" fill-rule="evenodd" fill-opacity="1" stroke="#000000" stroke-opacity="1" stroke-width="3.2"/>
<circle clip-path="url(#clip872)" cx="1280.9" cy="1370.95" r="14.4" fill="#009af9" fill-rule="evenodd" fill-opacity="1" stroke="#000000" stroke-opacity="1" stroke-width="3.2"/>
<circle clip-path="url(#clip872)" cx="1321.4" cy="1370.68" r="14.4" fill="#009af9" fill-rule="evenodd" fill-opacity="1" stroke="#000000" stroke-opacity="1" stroke-width="3.2"/>
<circle clip-path="url(#clip872)" cx="1361.89" cy="1365.19" r="14.4" fill="#009af9" fill-rule="evenodd" fill-opacity="1" stroke="#000000" stroke-opacity="1" stroke-width="3.2"/>
<circle clip-path="url(#clip872)" cx="1402.38" cy="1356.27" r="14.4" fill="#009af9" fill-rule="evenodd" fill-opacity="1" stroke="#000000" stroke-opacity="1" stroke-width="3.2"/>
<circle clip-path="url(#clip872)" cx="1442.87" cy="1350.41" r="14.4" fill="#009af9" fill-rule="evenodd" fill-opacity="1" stroke="#000000" stroke-opacity="1" stroke-width="3.2"/>
<circle clip-path="url(#clip872)" cx="1483.37" cy="1343.25" r="14.4" fill="#009af9" fill-rule="evenodd" fill-opacity="1" stroke="#000000" stroke-opacity="1" stroke-width="3.2"/>
<circle clip-path="url(#clip872)" cx="1523.86" cy="1343.56" r="14.4" fill="#009af9" fill-rule="evenodd" fill-opacity="1" stroke="#000000" stroke-opacity="1" stroke-width="3.2"/>
<circle clip-path="url(#clip872)" cx="1564.35" cy="1326.88" r="14.4" fill="#009af9" fill-rule="evenodd" fill-opacity="1" stroke="#000000" stroke-opacity="1" stroke-width="3.2"/>
<circle clip-path="url(#clip872)" cx="1604.85" cy="1324.38" r="14.4" fill="#009af9" fill-rule="evenodd" fill-opacity="1" stroke="#000000" stroke-opacity="1" stroke-width="3.2"/>
<circle clip-path="url(#clip872)" cx="1645.34" cy="1312.68" r="14.4" fill="#009af9" fill-rule="evenodd" fill-opacity="1" stroke="#000000" stroke-opacity="1" stroke-width="3.2"/>
<circle clip-path="url(#clip872)" cx="1685.83" cy="1285.92" r="14.4" fill="#009af9" fill-rule="evenodd" fill-opacity="1" stroke="#000000" stroke-opacity="1" stroke-width="3.2"/>
<circle clip-path="url(#clip872)" cx="1726.33" cy="1277.55" r="14.4" fill="#009af9" fill-rule="evenodd" fill-opacity="1" stroke="#000000" stroke-opacity="1" stroke-width="3.2"/>
<circle clip-path="url(#clip872)" cx="1766.82" cy="1228.48" r="14.4" fill="#009af9" fill-rule="evenodd" fill-opacity="1" stroke="#000000" stroke-opacity="1" stroke-width="3.2"/>
<circle clip-path="url(#clip872)" cx="1807.31" cy="1239.59" r="14.4" fill="#009af9" fill-rule="evenodd" fill-opacity="1" stroke="#000000" stroke-opacity="1" stroke-width="3.2"/>
<circle clip-path="url(#clip872)" cx="1847.81" cy="1146.33" r="14.4" fill="#009af9" fill-rule="evenodd" fill-opacity="1" stroke="#000000" stroke-opacity="1" stroke-width="3.2"/>
<circle clip-path="url(#clip872)" cx="1888.3" cy="1100.61" r="14.4" fill="#009af9" fill-rule="evenodd" fill-opacity="1" stroke="#000000" stroke-opacity="1" stroke-width="3.2"/>
<circle clip-path="url(#clip872)" cx="1928.79" cy="1108.99" r="14.4" fill="#009af9" fill-rule="evenodd" fill-opacity="1" stroke="#000000" stroke-opacity="1" stroke-width="3.2"/>
<circle clip-path="url(#clip872)" cx="1969.29" cy="1112.19" r="14.4" fill="#009af9" fill-rule="evenodd" fill-opacity="1" stroke="#000000" stroke-opacity="1" stroke-width="3.2"/>
<circle clip-path="url(#clip872)" cx="2009.78" cy="1118.57" r="14.4" fill="#009af9" fill-rule="evenodd" fill-opacity="1" stroke="#000000" stroke-opacity="1" stroke-width="3.2"/>
<circle clip-path="url(#clip872)" cx="2050.27" cy="1124.58" r="14.4" fill="#009af9" fill-rule="evenodd" fill-opacity="1" stroke="#000000" stroke-opacity="1" stroke-width="3.2"/>
<circle clip-path="url(#clip872)" cx="2090.77" cy="1132.1" r="14.4" fill="#009af9" fill-rule="evenodd" fill-opacity="1" stroke="#000000" stroke-opacity="1" stroke-width="3.2"/>
<circle clip-path="url(#clip872)" cx="2131.26" cy="1137.03" r="14.4" fill="#009af9" fill-rule="evenodd" fill-opacity="1" stroke="#000000" stroke-opacity="1" stroke-width="3.2"/>
<circle clip-path="url(#clip872)" cx="2171.75" cy="1141.73" r="14.4" fill="#009af9" fill-rule="evenodd" fill-opacity="1" stroke="#000000" stroke-opacity="1" stroke-width="3.2"/>
<circle clip-path="url(#clip872)" cx="2212.24" cy="1147.24" r="14.4" fill="#009af9" fill-rule="evenodd" fill-opacity="1" stroke="#000000" stroke-opacity="1" stroke-width="3.2"/>
<circle clip-path="url(#clip872)" cx="2252.74" cy="1151.83" r="14.4" fill="#009af9" fill-rule="evenodd" fill-opacity="1" stroke="#000000" stroke-opacity="1" stroke-width="3.2"/>
<circle clip-path="url(#clip872)" cx="2293.23" cy="1156.66" r="14.4" fill="#009af9" fill-rule="evenodd" fill-opacity="1" stroke="#000000" stroke-opacity="1" stroke-width="3.2"/>
<circle clip-path="url(#clip872)" cx="309.067" cy="1177.21" r="14.4" fill="#e26f46" fill-rule="evenodd" fill-opacity="1" stroke="#000000" stroke-opacity="1" stroke-width="3.2"/>
<circle clip-path="url(#clip872)" cx="349.56" cy="1243.33" r="14.4" fill="#e26f46" fill-rule="evenodd" fill-opacity="1" stroke="#000000" stroke-opacity="1" stroke-width="3.2"/>
<circle clip-path="url(#clip872)" cx="390.053" cy="1239.4" r="14.4" fill="#e26f46" fill-rule="evenodd" fill-opacity="1" stroke="#000000" stroke-opacity="1" stroke-width="3.2"/>
<circle clip-path="url(#clip872)" cx="430.546" cy="1236.85" r="14.4" fill="#e26f46" fill-rule="evenodd" fill-opacity="1" stroke="#000000" stroke-opacity="1" stroke-width="3.2"/>
<circle clip-path="url(#clip872)" cx="471.04" cy="1240.92" r="14.4" fill="#e26f46" fill-rule="evenodd" fill-opacity="1" stroke="#000000" stroke-opacity="1" stroke-width="3.2"/>
<circle clip-path="url(#clip872)" cx="511.533" cy="1243.63" r="14.4" fill="#e26f46" fill-rule="evenodd" fill-opacity="1" stroke="#000000" stroke-opacity="1" stroke-width="3.2"/>
<circle clip-path="url(#clip872)" cx="552.026" cy="1242.1" r="14.4" fill="#e26f46" fill-rule="evenodd" fill-opacity="1" stroke="#000000" stroke-opacity="1" stroke-width="3.2"/>
<circle clip-path="url(#clip872)" cx="592.519" cy="1235.03" r="14.4" fill="#e26f46" fill-rule="evenodd" fill-opacity="1" stroke="#000000" stroke-opacity="1" stroke-width="3.2"/>
<circle clip-path="url(#clip872)" cx="633.012" cy="1237.2" r="14.4" fill="#e26f46" fill-rule="evenodd" fill-opacity="1" stroke="#000000" stroke-opacity="1" stroke-width="3.2"/>
<circle clip-path="url(#clip872)" cx="673.505" cy="1224.06" r="14.4" fill="#e26f46" fill-rule="evenodd" fill-opacity="1" stroke="#000000" stroke-opacity="1" stroke-width="3.2"/>
<circle clip-path="url(#clip872)" cx="713.998" cy="1218.13" r="14.4" fill="#e26f46" fill-rule="evenodd" fill-opacity="1" stroke="#000000" stroke-opacity="1" stroke-width="3.2"/>
<circle clip-path="url(#clip872)" cx="754.492" cy="1214.59" r="14.4" fill="#e26f46" fill-rule="evenodd" fill-opacity="1" stroke="#000000" stroke-opacity="1" stroke-width="3.2"/>
<circle clip-path="url(#clip872)" cx="794.985" cy="1205.61" r="14.4" fill="#e26f46" fill-rule="evenodd" fill-opacity="1" stroke="#000000" stroke-opacity="1" stroke-width="3.2"/>
<circle clip-path="url(#clip872)" cx="835.478" cy="1181.67" r="14.4" fill="#e26f46" fill-rule="evenodd" fill-opacity="1" stroke="#000000" stroke-opacity="1" stroke-width="3.2"/>
<circle clip-path="url(#clip872)" cx="875.971" cy="1172.32" r="14.4" fill="#e26f46" fill-rule="evenodd" fill-opacity="1" stroke="#000000" stroke-opacity="1" stroke-width="3.2"/>
<circle clip-path="url(#clip872)" cx="916.464" cy="1117.77" r="14.4" fill="#e26f46" fill-rule="evenodd" fill-opacity="1" stroke="#000000" stroke-opacity="1" stroke-width="3.2"/>
<circle clip-path="url(#clip872)" cx="956.957" cy="1123.81" r="14.4" fill="#e26f46" fill-rule="evenodd" fill-opacity="1" stroke="#000000" stroke-opacity="1" stroke-width="3.2"/>
<circle clip-path="url(#clip872)" cx="997.45" cy="983.685" r="14.4" fill="#e26f46" fill-rule="evenodd" fill-opacity="1" stroke="#000000" stroke-opacity="1" stroke-width="3.2"/>
<circle clip-path="url(#clip872)" cx="1037.94" cy="946.507" r="14.4" fill="#e26f46" fill-rule="evenodd" fill-opacity="1" stroke="#000000" stroke-opacity="1" stroke-width="3.2"/>
<circle clip-path="url(#clip872)" cx="1078.44" cy="967.582" r="14.4" fill="#e26f46" fill-rule="evenodd" fill-opacity="1" stroke="#000000" stroke-opacity="1" stroke-width="3.2"/>
<circle clip-path="url(#clip872)" cx="1118.93" cy="988.554" r="14.4" fill="#e26f46" fill-rule="evenodd" fill-opacity="1" stroke="#000000" stroke-opacity="1" stroke-width="3.2"/>
<circle clip-path="url(#clip872)" cx="1159.42" cy="1007.38" r="14.4" fill="#e26f46" fill-rule="evenodd" fill-opacity="1" stroke="#000000" stroke-opacity="1" stroke-width="3.2"/>
<circle clip-path="url(#clip872)" cx="1199.92" cy="1026.16" r="14.4" fill="#e26f46" fill-rule="evenodd" fill-opacity="1" stroke="#000000" stroke-opacity="1" stroke-width="3.2"/>
<circle clip-path="url(#clip872)" cx="1240.41" cy="1040.89" r="14.4" fill="#e26f46" fill-rule="evenodd" fill-opacity="1" stroke="#000000" stroke-opacity="1" stroke-width="3.2"/>
<circle clip-path="url(#clip872)" cx="1280.9" cy="1054.84" r="14.4" fill="#e26f46" fill-rule="evenodd" fill-opacity="1" stroke="#000000" stroke-opacity="1" stroke-width="3.2"/>
<circle clip-path="url(#clip872)" cx="1321.4" cy="1068.01" r="14.4" fill="#e26f46" fill-rule="evenodd" fill-opacity="1" stroke="#000000" stroke-opacity="1" stroke-width="3.2"/>
<circle clip-path="url(#clip872)" cx="1361.89" cy="1080.52" r="14.4" fill="#e26f46" fill-rule="evenodd" fill-opacity="1" stroke="#000000" stroke-opacity="1" stroke-width="3.2"/>
<circle clip-path="url(#clip872)" cx="1402.38" cy="1091.59" r="14.4" fill="#e26f46" fill-rule="evenodd" fill-opacity="1" stroke="#000000" stroke-opacity="1" stroke-width="3.2"/>
<circle clip-path="url(#clip872)" cx="1442.87" cy="1102.3" r="14.4" fill="#e26f46" fill-rule="evenodd" fill-opacity="1" stroke="#000000" stroke-opacity="1" stroke-width="3.2"/>
<circle clip-path="url(#clip872)" cx="1483.37" cy="1112.03" r="14.4" fill="#e26f46" fill-rule="evenodd" fill-opacity="1" stroke="#000000" stroke-opacity="1" stroke-width="3.2"/>
<circle clip-path="url(#clip872)" cx="1523.86" cy="1121.17" r="14.4" fill="#e26f46" fill-rule="evenodd" fill-opacity="1" stroke="#000000" stroke-opacity="1" stroke-width="3.2"/>
<circle clip-path="url(#clip872)" cx="1564.35" cy="1129.6" r="14.4" fill="#e26f46" fill-rule="evenodd" fill-opacity="1" stroke="#000000" stroke-opacity="1" stroke-width="3.2"/>
<circle clip-path="url(#clip872)" cx="1604.85" cy="1137.64" r="14.4" fill="#e26f46" fill-rule="evenodd" fill-opacity="1" stroke="#000000" stroke-opacity="1" stroke-width="3.2"/>
<circle clip-path="url(#clip872)" cx="1645.34" cy="1145.19" r="14.4" fill="#e26f46" fill-rule="evenodd" fill-opacity="1" stroke="#000000" stroke-opacity="1" stroke-width="3.2"/>
<circle clip-path="url(#clip872)" cx="1685.83" cy="1152.27" r="14.4" fill="#e26f46" fill-rule="evenodd" fill-opacity="1" stroke="#000000" stroke-opacity="1" stroke-width="3.2"/>
<circle clip-path="url(#clip872)" cx="1726.33" cy="1158.96" r="14.4" fill="#e26f46" fill-rule="evenodd" fill-opacity="1" stroke="#000000" stroke-opacity="1" stroke-width="3.2"/>
<circle clip-path="url(#clip872)" cx="1766.82" cy="1165.29" r="14.4" fill="#e26f46" fill-rule="evenodd" fill-opacity="1" stroke="#000000" stroke-opacity="1" stroke-width="3.2"/>
<circle clip-path="url(#clip872)" cx="1807.31" cy="1171.29" r="14.4" fill="#e26f46" fill-rule="evenodd" fill-opacity="1" stroke="#000000" stroke-opacity="1" stroke-width="3.2"/>
<circle clip-path="url(#clip872)" cx="1847.81" cy="1176.95" r="14.4" fill="#e26f46" fill-rule="evenodd" fill-opacity="1" stroke="#000000" stroke-opacity="1" stroke-width="3.2"/>
<circle clip-path="url(#clip872)" cx="1888.3" cy="1182.43" r="14.4" fill="#e26f46" fill-rule="evenodd" fill-opacity="1" stroke="#000000" stroke-opacity="1" stroke-width="3.2"/>
<circle clip-path="url(#clip872)" cx="1928.79" cy="1187.41" r="14.4" fill="#e26f46" fill-rule="evenodd" fill-opacity="1" stroke="#000000" stroke-opacity="1" stroke-width="3.2"/>
<circle clip-path="url(#clip872)" cx="1969.29" cy="1192.31" r="14.4" fill="#e26f46" fill-rule="evenodd" fill-opacity="1" stroke="#000000" stroke-opacity="1" stroke-width="3.2"/>
<circle clip-path="url(#clip872)" cx="2009.78" cy="1197.07" r="14.4" fill="#e26f46" fill-rule="evenodd" fill-opacity="1" stroke="#000000" stroke-opacity="1" stroke-width="3.2"/>
<circle clip-path="url(#clip872)" cx="2050.27" cy="1201.27" r="14.4" fill="#e26f46" fill-rule="evenodd" fill-opacity="1" stroke="#000000" stroke-opacity="1" stroke-width="3.2"/>
<circle clip-path="url(#clip872)" cx="2090.77" cy="1205.53" r="14.4" fill="#e26f46" fill-rule="evenodd" fill-opacity="1" stroke="#000000" stroke-opacity="1" stroke-width="3.2"/>
<circle clip-path="url(#clip872)" cx="2131.26" cy="1209.51" r="14.4" fill="#e26f46" fill-rule="evenodd" fill-opacity="1" stroke="#000000" stroke-opacity="1" stroke-width="3.2"/>
<circle clip-path="url(#clip872)" cx="2171.75" cy="1213.33" r="14.4" fill="#e26f46" fill-rule="evenodd" fill-opacity="1" stroke="#000000" stroke-opacity="1" stroke-width="3.2"/>
<circle clip-path="url(#clip872)" cx="2212.24" cy="1217.01" r="14.4" fill="#e26f46" fill-rule="evenodd" fill-opacity="1" stroke="#000000" stroke-opacity="1" stroke-width="3.2"/>
<circle clip-path="url(#clip872)" cx="2252.74" cy="1220.6" r="14.4" fill="#e26f46" fill-rule="evenodd" fill-opacity="1" stroke="#000000" stroke-opacity="1" stroke-width="3.2"/>
<circle clip-path="url(#clip872)" cx="2293.23" cy="1223.94" r="14.4" fill="#e26f46" fill-rule="evenodd" fill-opacity="1" stroke="#000000" stroke-opacity="1" stroke-width="3.2"/>
<circle clip-path="url(#clip872)" cx="309.067" cy="160.256" r="14.4" fill="#3da44d" fill-rule="evenodd" fill-opacity="1" stroke="#000000" stroke-opacity="1" stroke-width="3.2"/>
<circle clip-path="url(#clip872)" cx="349.56" cy="1148.61" r="14.4" fill="#3da44d" fill-rule="evenodd" fill-opacity="1" stroke="#000000" stroke-opacity="1" stroke-width="3.2"/>
<circle clip-path="url(#clip872)" cx="390.053" cy="1160.46" r="14.4" fill="#3da44d" fill-rule="evenodd" fill-opacity="1" stroke="#000000" stroke-opacity="1" stroke-width="3.2"/>
<circle clip-path="url(#clip872)" cx="430.546" cy="1162.3" r="14.4" fill="#3da44d" fill-rule="evenodd" fill-opacity="1" stroke="#000000" stroke-opacity="1" stroke-width="3.2"/>
<circle clip-path="url(#clip872)" cx="471.04" cy="1157.13" r="14.4" fill="#3da44d" fill-rule="evenodd" fill-opacity="1" stroke="#000000" stroke-opacity="1" stroke-width="3.2"/>
<circle clip-path="url(#clip872)" cx="511.533" cy="1144.89" r="14.4" fill="#3da44d" fill-rule="evenodd" fill-opacity="1" stroke="#000000" stroke-opacity="1" stroke-width="3.2"/>
<circle clip-path="url(#clip872)" cx="552.026" cy="1133.84" r="14.4" fill="#3da44d" fill-rule="evenodd" fill-opacity="1" stroke="#000000" stroke-opacity="1" stroke-width="3.2"/>
<circle clip-path="url(#clip872)" cx="592.519" cy="1119.72" r="14.4" fill="#3da44d" fill-rule="evenodd" fill-opacity="1" stroke="#000000" stroke-opacity="1" stroke-width="3.2"/>
<circle clip-path="url(#clip872)" cx="633.012" cy="1088.16" r="14.4" fill="#3da44d" fill-rule="evenodd" fill-opacity="1" stroke="#000000" stroke-opacity="1" stroke-width="3.2"/>
<circle clip-path="url(#clip872)" cx="673.505" cy="1053.63" r="14.4" fill="#3da44d" fill-rule="evenodd" fill-opacity="1" stroke="#000000" stroke-opacity="1" stroke-width="3.2"/>
<circle clip-path="url(#clip872)" cx="713.998" cy="749.823" r="14.4" fill="#3da44d" fill-rule="evenodd" fill-opacity="1" stroke="#000000" stroke-opacity="1" stroke-width="3.2"/>
<circle clip-path="url(#clip872)" cx="754.492" cy="797.649" r="14.4" fill="#3da44d" fill-rule="evenodd" fill-opacity="1" stroke="#000000" stroke-opacity="1" stroke-width="3.2"/>
<circle clip-path="url(#clip872)" cx="794.985" cy="845.665" r="14.4" fill="#3da44d" fill-rule="evenodd" fill-opacity="1" stroke="#000000" stroke-opacity="1" stroke-width="3.2"/>
<circle clip-path="url(#clip872)" cx="835.478" cy="887.242" r="14.4" fill="#3da44d" fill-rule="evenodd" fill-opacity="1" stroke="#000000" stroke-opacity="1" stroke-width="3.2"/>
<circle clip-path="url(#clip872)" cx="875.971" cy="922.628" r="14.4" fill="#3da44d" fill-rule="evenodd" fill-opacity="1" stroke="#000000" stroke-opacity="1" stroke-width="3.2"/>
<circle clip-path="url(#clip872)" cx="916.464" cy="953.304" r="14.4" fill="#3da44d" fill-rule="evenodd" fill-opacity="1" stroke="#000000" stroke-opacity="1" stroke-width="3.2"/>
<circle clip-path="url(#clip872)" cx="956.957" cy="980.624" r="14.4" fill="#3da44d" fill-rule="evenodd" fill-opacity="1" stroke="#000000" stroke-opacity="1" stroke-width="3.2"/>
<circle clip-path="url(#clip872)" cx="997.45" cy="1004.41" r="14.4" fill="#3da44d" fill-rule="evenodd" fill-opacity="1" stroke="#000000" stroke-opacity="1" stroke-width="3.2"/>
<circle clip-path="url(#clip872)" cx="1037.94" cy="1025.43" r="14.4" fill="#3da44d" fill-rule="evenodd" fill-opacity="1" stroke="#000000" stroke-opacity="1" stroke-width="3.2"/>
<circle clip-path="url(#clip872)" cx="1078.44" cy="1044.39" r="14.4" fill="#3da44d" fill-rule="evenodd" fill-opacity="1" stroke="#000000" stroke-opacity="1" stroke-width="3.2"/>
<circle clip-path="url(#clip872)" cx="1118.93" cy="1061.66" r="14.4" fill="#3da44d" fill-rule="evenodd" fill-opacity="1" stroke="#000000" stroke-opacity="1" stroke-width="3.2"/>
<circle clip-path="url(#clip872)" cx="1159.42" cy="1077" r="14.4" fill="#3da44d" fill-rule="evenodd" fill-opacity="1" stroke="#000000" stroke-opacity="1" stroke-width="3.2"/>
<circle clip-path="url(#clip872)" cx="1199.92" cy="1091.06" r="14.4" fill="#3da44d" fill-rule="evenodd" fill-opacity="1" stroke="#000000" stroke-opacity="1" stroke-width="3.2"/>
<circle clip-path="url(#clip872)" cx="1240.41" cy="1103.98" r="14.4" fill="#3da44d" fill-rule="evenodd" fill-opacity="1" stroke="#000000" stroke-opacity="1" stroke-width="3.2"/>
<circle clip-path="url(#clip872)" cx="1280.9" cy="1115.65" r="14.4" fill="#3da44d" fill-rule="evenodd" fill-opacity="1" stroke="#000000" stroke-opacity="1" stroke-width="3.2"/>
<circle clip-path="url(#clip872)" cx="1321.4" cy="1126.5" r="14.4" fill="#3da44d" fill-rule="evenodd" fill-opacity="1" stroke="#000000" stroke-opacity="1" stroke-width="3.2"/>
<circle clip-path="url(#clip872)" cx="1361.89" cy="1136.56" r="14.4" fill="#3da44d" fill-rule="evenodd" fill-opacity="1" stroke="#000000" stroke-opacity="1" stroke-width="3.2"/>
<circle clip-path="url(#clip872)" cx="1402.38" cy="1145.68" r="14.4" fill="#3da44d" fill-rule="evenodd" fill-opacity="1" stroke="#000000" stroke-opacity="1" stroke-width="3.2"/>
<circle clip-path="url(#clip872)" cx="1442.87" cy="1154.29" r="14.4" fill="#3da44d" fill-rule="evenodd" fill-opacity="1" stroke="#000000" stroke-opacity="1" stroke-width="3.2"/>
<circle clip-path="url(#clip872)" cx="1483.37" cy="1162.32" r="14.4" fill="#3da44d" fill-rule="evenodd" fill-opacity="1" stroke="#000000" stroke-opacity="1" stroke-width="3.2"/>
<circle clip-path="url(#clip872)" cx="1523.86" cy="1169.81" r="14.4" fill="#3da44d" fill-rule="evenodd" fill-opacity="1" stroke="#000000" stroke-opacity="1" stroke-width="3.2"/>
<circle clip-path="url(#clip872)" cx="1564.35" cy="1176.73" r="14.4" fill="#3da44d" fill-rule="evenodd" fill-opacity="1" stroke="#000000" stroke-opacity="1" stroke-width="3.2"/>
<circle clip-path="url(#clip872)" cx="1604.85" cy="1183.3" r="14.4" fill="#3da44d" fill-rule="evenodd" fill-opacity="1" stroke="#000000" stroke-opacity="1" stroke-width="3.2"/>
<circle clip-path="url(#clip872)" cx="1645.34" cy="1189.45" r="14.4" fill="#3da44d" fill-rule="evenodd" fill-opacity="1" stroke="#000000" stroke-opacity="1" stroke-width="3.2"/>
<circle clip-path="url(#clip872)" cx="1685.83" cy="1195.23" r="14.4" fill="#3da44d" fill-rule="evenodd" fill-opacity="1" stroke="#000000" stroke-opacity="1" stroke-width="3.2"/>
<circle clip-path="url(#clip872)" cx="1726.33" cy="1200.7" r="14.4" fill="#3da44d" fill-rule="evenodd" fill-opacity="1" stroke="#000000" stroke-opacity="1" stroke-width="3.2"/>
<circle clip-path="url(#clip872)" cx="1766.82" cy="1205.85" r="14.4" fill="#3da44d" fill-rule="evenodd" fill-opacity="1" stroke="#000000" stroke-opacity="1" stroke-width="3.2"/>
<circle clip-path="url(#clip872)" cx="1807.31" cy="1210.73" r="14.4" fill="#3da44d" fill-rule="evenodd" fill-opacity="1" stroke="#000000" stroke-opacity="1" stroke-width="3.2"/>
<circle clip-path="url(#clip872)" cx="1847.81" cy="1215.35" r="14.4" fill="#3da44d" fill-rule="evenodd" fill-opacity="1" stroke="#000000" stroke-opacity="1" stroke-width="3.2"/>
<circle clip-path="url(#clip872)" cx="1888.3" cy="1219.78" r="14.4" fill="#3da44d" fill-rule="evenodd" fill-opacity="1" stroke="#000000" stroke-opacity="1" stroke-width="3.2"/>
<circle clip-path="url(#clip872)" cx="1928.79" cy="1223.89" r="14.4" fill="#3da44d" fill-rule="evenodd" fill-opacity="1" stroke="#000000" stroke-opacity="1" stroke-width="3.2"/>
<circle clip-path="url(#clip872)" cx="1969.29" cy="1227.86" r="14.4" fill="#3da44d" fill-rule="evenodd" fill-opacity="1" stroke="#000000" stroke-opacity="1" stroke-width="3.2"/>
<circle clip-path="url(#clip872)" cx="2009.78" cy="1231.61" r="14.4" fill="#3da44d" fill-rule="evenodd" fill-opacity="1" stroke="#000000" stroke-opacity="1" stroke-width="3.2"/>
<circle clip-path="url(#clip872)" cx="2050.27" cy="1235.22" r="14.4" fill="#3da44d" fill-rule="evenodd" fill-opacity="1" stroke="#000000" stroke-opacity="1" stroke-width="3.2"/>
<circle clip-path="url(#clip872)" cx="2090.77" cy="1238.64" r="14.4" fill="#3da44d" fill-rule="evenodd" fill-opacity="1" stroke="#000000" stroke-opacity="1" stroke-width="3.2"/>
<circle clip-path="url(#clip872)" cx="2131.26" cy="1241.94" r="14.4" fill="#3da44d" fill-rule="evenodd" fill-opacity="1" stroke="#000000" stroke-opacity="1" stroke-width="3.2"/>
<circle clip-path="url(#clip872)" cx="2171.75" cy="1245.16" r="14.4" fill="#3da44d" fill-rule="evenodd" fill-opacity="1" stroke="#000000" stroke-opacity="1" stroke-width="3.2"/>
<circle clip-path="url(#clip872)" cx="2212.24" cy="1248.09" r="14.4" fill="#3da44d" fill-rule="evenodd" fill-opacity="1" stroke="#000000" stroke-opacity="1" stroke-width="3.2"/>
<circle clip-path="url(#clip872)" cx="2252.74" cy="1250.98" r="14.4" fill="#3da44d" fill-rule="evenodd" fill-opacity="1" stroke="#000000" stroke-opacity="1" stroke-width="3.2"/>
<circle clip-path="url(#clip872)" cx="2293.23" cy="1253.73" r="14.4" fill="#3da44d" fill-rule="evenodd" fill-opacity="1" stroke="#000000" stroke-opacity="1" stroke-width="3.2"/>
<polyline clip-path="url(#clip872)" style="stroke:#c271d2; stroke-linecap:round; stroke-linejoin:round; stroke-width:4; stroke-opacity:1; fill:none" stroke-dasharray="16, 10" points="1782.61,2722.89 1782.61,-1176.24 "/>
<polyline clip-path="url(#clip872)" style="stroke:#c271d2; stroke-linecap:round; stroke-linejoin:round; stroke-width:4; stroke-opacity:1; fill:none" stroke-dasharray="16, 10" points="1045.64,2722.89 1045.64,-1176.24 "/>
<polyline clip-path="url(#clip872)" style="stroke:#c271d2; stroke-linecap:round; stroke-linejoin:round; stroke-width:4; stroke-opacity:1; fill:none" stroke-dasharray="16, 10" points="799.979,2722.89 799.979,-1176.24 "/>
<path clip-path="url(#clip870)" d="M1944.67 425.996 L2282.65 425.996 L2282.65 166.796 L1944.67 166.796  Z" fill="#ffffff" fill-rule="evenodd" fill-opacity="1"/>
<polyline clip-path="url(#clip870)" style="stroke:#000000; stroke-linecap:round; stroke-linejoin:round; stroke-width:4; stroke-opacity:1; fill:none" points="1944.67,425.996 2282.65,425.996 2282.65,166.796 1944.67,166.796 1944.67,425.996 "/>
<circle clip-path="url(#clip870)" cx="2038.14" cy="218.636" r="20.48" fill="#009af9" fill-rule="evenodd" fill-opacity="1" stroke="#000000" stroke-opacity="1" stroke-width="4.55111"/>
<path clip-path="url(#clip870)" d="M2150.53 213.925 L2150.53 199.897 L2154.79 199.897 L2154.79 235.916 L2150.53 235.916 L2150.53 232.027 Q2149.19 234.342 2147.13 235.476 Q2145.09 236.587 2142.22 236.587 Q2137.52 236.587 2134.56 232.837 Q2131.62 229.087 2131.62 222.976 Q2131.62 216.865 2134.56 213.115 Q2137.52 209.365 2142.22 209.365 Q2145.09 209.365 2147.13 210.499 Q2149.19 211.61 2150.53 213.925 M2136.02 222.976 Q2136.02 227.675 2137.94 230.36 Q2139.88 233.022 2143.26 233.022 Q2146.64 233.022 2148.59 230.36 Q2150.53 227.675 2150.53 222.976 Q2150.53 218.277 2148.59 215.615 Q2146.64 212.93 2143.26 212.93 Q2139.88 212.93 2137.94 215.615 Q2136.02 218.277 2136.02 222.976 Z" fill="#000000" fill-rule="nonzero" fill-opacity="1" /><path clip-path="url(#clip870)" d="M2164.12 214.388 L2193.79 214.388 L2193.79 218.277 L2164.12 218.277 L2164.12 214.388 M2164.12 223.832 L2193.79 223.832 L2193.79 227.768 L2164.12 227.768 L2164.12 223.832 Z" fill="#000000" fill-rule="nonzero" fill-opacity="1" /><path clip-path="url(#clip870)" d="M2204.7 231.981 L2212.34 231.981 L2212.34 205.615 L2204.03 207.282 L2204.03 203.022 L2212.29 201.356 L2216.97 201.356 L2216.97 231.981 L2224.6 231.981 L2224.6 235.916 L2204.7 235.916 L2204.7 231.981 Z" fill="#000000" fill-rule="nonzero" fill-opacity="1" /><circle clip-path="url(#clip870)" cx="2038.14" cy="270.476" r="20.48" fill="#e26f46" fill-rule="evenodd" fill-opacity="1" stroke="#000000" stroke-opacity="1" stroke-width="4.55111"/>
<path clip-path="url(#clip870)" d="M2150.53 265.765 L2150.53 251.737 L2154.79 251.737 L2154.79 287.756 L2150.53 287.756 L2150.53 283.867 Q2149.19 286.182 2147.13 287.316 Q2145.09 288.427 2142.22 288.427 Q2137.52 288.427 2134.56 284.677 Q2131.62 280.927 2131.62 274.816 Q2131.62 268.705 2134.56 264.955 Q2137.52 261.205 2142.22 261.205 Q2145.09 261.205 2147.13 262.339 Q2149.19 263.45 2150.53 265.765 M2136.02 274.816 Q2136.02 279.515 2137.94 282.2 Q2139.88 284.862 2143.26 284.862 Q2146.64 284.862 2148.59 282.2 Q2150.53 279.515 2150.53 274.816 Q2150.53 270.117 2148.59 267.455 Q2146.64 264.77 2143.26 264.77 Q2139.88 264.77 2137.94 267.455 Q2136.02 270.117 2136.02 274.816 Z" fill="#000000" fill-rule="nonzero" fill-opacity="1" /><path clip-path="url(#clip870)" d="M2164.12 266.228 L2193.79 266.228 L2193.79 270.117 L2164.12 270.117 L2164.12 266.228 M2164.12 275.672 L2193.79 275.672 L2193.79 279.608 L2164.12 279.608 L2164.12 275.672 Z" fill="#000000" fill-rule="nonzero" fill-opacity="1" /><path clip-path="url(#clip870)" d="M2207.91 283.821 L2224.23 283.821 L2224.23 287.756 L2202.29 287.756 L2202.29 283.821 Q2204.95 281.066 2209.53 276.436 Q2214.14 271.784 2215.32 270.441 Q2217.57 267.918 2218.45 266.182 Q2219.35 264.423 2219.35 262.733 Q2219.35 259.978 2217.4 258.242 Q2215.48 256.506 2212.38 256.506 Q2210.18 256.506 2207.73 257.27 Q2205.3 258.034 2202.52 259.585 L2202.52 254.862 Q2205.34 253.728 2207.8 253.149 Q2210.25 252.571 2212.29 252.571 Q2217.66 252.571 2220.85 255.256 Q2224.05 257.941 2224.05 262.432 Q2224.05 264.561 2223.24 266.483 Q2222.45 268.381 2220.34 270.973 Q2219.77 271.645 2216.66 274.862 Q2213.56 278.057 2207.91 283.821 Z" fill="#000000" fill-rule="nonzero" fill-opacity="1" /><circle clip-path="url(#clip870)" cx="2038.14" cy="322.316" r="20.48" fill="#3da44d" fill-rule="evenodd" fill-opacity="1" stroke="#000000" stroke-opacity="1" stroke-width="4.55111"/>
<path clip-path="url(#clip870)" d="M2150.53 317.605 L2150.53 303.577 L2154.79 303.577 L2154.79 339.596 L2150.53 339.596 L2150.53 335.707 Q2149.19 338.022 2147.13 339.156 Q2145.09 340.267 2142.22 340.267 Q2137.52 340.267 2134.56 336.517 Q2131.62 332.767 2131.62 326.656 Q2131.62 320.545 2134.56 316.795 Q2137.52 313.045 2142.22 313.045 Q2145.09 313.045 2147.13 314.179 Q2149.19 315.29 2150.53 317.605 M2136.02 326.656 Q2136.02 331.355 2137.94 334.04 Q2139.88 336.702 2143.26 336.702 Q2146.64 336.702 2148.59 334.04 Q2150.53 331.355 2150.53 326.656 Q2150.53 321.957 2148.59 319.295 Q2146.64 316.61 2143.26 316.61 Q2139.88 316.61 2137.94 319.295 Q2136.02 321.957 2136.02 326.656 Z" fill="#000000" fill-rule="nonzero" fill-opacity="1" /><path clip-path="url(#clip870)" d="M2164.12 318.068 L2193.79 318.068 L2193.79 321.957 L2164.12 321.957 L2164.12 318.068 M2164.12 327.512 L2193.79 327.512 L2193.79 331.448 L2164.12 331.448 L2164.12 327.512 Z" fill="#000000" fill-rule="nonzero" fill-opacity="1" /><path clip-path="url(#clip870)" d="M2218.05 320.962 Q2221.41 321.679 2223.28 323.948 Q2225.18 326.216 2225.18 329.549 Q2225.18 334.665 2221.66 337.466 Q2218.15 340.267 2211.66 340.267 Q2209.49 340.267 2207.17 339.827 Q2204.88 339.411 2202.43 338.554 L2202.43 334.04 Q2204.37 335.174 2206.69 335.753 Q2209 336.332 2211.53 336.332 Q2215.92 336.332 2218.22 334.596 Q2220.53 332.86 2220.53 329.549 Q2220.53 326.494 2218.38 324.781 Q2216.25 323.045 2212.43 323.045 L2208.4 323.045 L2208.4 319.202 L2212.61 319.202 Q2216.06 319.202 2217.89 317.837 Q2219.72 316.448 2219.72 313.855 Q2219.72 311.193 2217.82 309.781 Q2215.95 308.346 2212.43 308.346 Q2210.51 308.346 2208.31 308.763 Q2206.11 309.179 2203.47 310.059 L2203.47 305.892 Q2206.13 305.151 2208.45 304.781 Q2210.78 304.411 2212.84 304.411 Q2218.17 304.411 2221.27 306.841 Q2224.37 309.249 2224.37 313.369 Q2224.37 316.239 2222.73 318.23 Q2221.09 320.198 2218.05 320.962 Z" fill="#000000" fill-rule="nonzero" fill-opacity="1" /><polyline clip-path="url(#clip870)" style="stroke:#c271d2; stroke-linecap:round; stroke-linejoin:round; stroke-width:4; stroke-opacity:1; fill:none" stroke-dasharray="16, 10" points="1968.04,374.156 2108.25,374.156 "/>
<path clip-path="url(#clip870)" d="M2131.62 356.876 L2160.85 356.876 L2160.85 360.811 L2148.59 360.811 L2148.59 391.436 L2143.89 391.436 L2143.89 360.811 L2131.62 360.811 L2131.62 356.876 Z" fill="#000000" fill-rule="nonzero" fill-opacity="1" /><path clip-path="url(#clip870)" d="M2184.88 399.306 L2184.88 402.616 L2160.25 402.616 L2160.25 399.306 L2184.88 399.306 Z" fill="#000000" fill-rule="nonzero" fill-opacity="1" /><path clip-path="url(#clip870)" d="M2214.95 359.538 L2214.95 364.468 Q2212.59 362.269 2209.9 361.181 Q2207.24 360.093 2204.23 360.093 Q2198.31 360.093 2195.16 363.728 Q2192.01 367.339 2192.01 374.19 Q2192.01 381.019 2195.16 384.653 Q2198.31 388.264 2204.23 388.264 Q2207.24 388.264 2209.9 387.176 Q2212.59 386.089 2214.95 383.889 L2214.95 388.774 Q2212.5 390.44 2209.74 391.274 Q2207.01 392.107 2203.96 392.107 Q2196.11 392.107 2191.59 387.315 Q2187.08 382.501 2187.08 374.19 Q2187.08 365.857 2191.59 361.066 Q2196.11 356.251 2203.96 356.251 Q2207.06 356.251 2209.79 357.084 Q2212.54 357.894 2214.95 359.538 Z" fill="#000000" fill-rule="nonzero" fill-opacity="1" /><path clip-path="url(#clip870)" d="M2229.56 356.876 L2233.49 356.876 L2221.46 395.834 L2217.52 395.834 L2229.56 356.876 Z" fill="#000000" fill-rule="nonzero" fill-opacity="1" /><path clip-path="url(#clip870)" d="M2255.02 369.445 L2255.02 355.417 L2259.28 355.417 L2259.28 391.436 L2255.02 391.436 L2255.02 387.547 Q2253.68 389.862 2251.62 390.996 Q2249.58 392.107 2246.71 392.107 Q2242.01 392.107 2239.05 388.357 Q2236.11 384.607 2236.11 378.496 Q2236.11 372.385 2239.05 368.635 Q2242.01 364.885 2246.71 364.885 Q2249.58 364.885 2251.62 366.019 Q2253.68 367.13 2255.02 369.445 M2240.51 378.496 Q2240.51 383.195 2242.43 385.88 Q2244.37 388.542 2247.75 388.542 Q2251.13 388.542 2253.08 385.88 Q2255.02 383.195 2255.02 378.496 Q2255.02 373.797 2253.08 371.135 Q2251.13 368.45 2247.75 368.45 Q2244.37 368.45 2242.43 371.135 Q2240.51 373.797 2240.51 378.496 Z" fill="#000000" fill-rule="nonzero" fill-opacity="1" /></svg>
