<?xml version="1.0" encoding="utf-8"?>
<svg xmlns="http://www.w3.org/2000/svg" xmlns:xlink="http://www.w3.org/1999/xlink" width="600" height="400" viewBox="0 0 2400 1600">
<defs>
  <clipPath id="clip910">
    <rect x="0" y="0" width="2400" height="1600"/>
  </clipPath>
</defs>
<path clip-path="url(#clip910)" d="M0 1600 L2400 1600 L2400 0 L0 0  Z" fill="#ffffff" fill-rule="evenodd" fill-opacity="1"/>
<defs>
  <clipPath id="clip911">
    <rect x="480" y="0" width="1681" height="1600"/>
  </clipPath>
</defs>
<path clip-path="url(#clip910)" d="M257.204 1423.18 L2352.76 1423.18 L2352.76 123.472 L257.204 123.472  Z" fill="#ffffff" fill-rule="evenodd" fill-opacity="1"/>
<defs>
  <clipPath id="clip912">
    <rect x="257" y="123" width="2097" height="1301"/>
  </clipPath>
</defs>
<polyline clip-path="url(#clip912)" style="stroke:#000000; stroke-linecap:round; stroke-linejoin:round; stroke-width:2; stroke-opacity:0.1; fill:none" points="732.709,1423.18 732.709,123.472 "/>
<polyline clip-path="url(#clip912)" style="stroke:#000000; stroke-linecap:round; stroke-linejoin:round; stroke-width:2; stroke-opacity:0.1; fill:none" points="1252.96,1423.18 1252.96,123.472 "/>
<polyline clip-path="url(#clip912)" style="stroke:#000000; stroke-linecap:round; stroke-linejoin:round; stroke-width:2; stroke-opacity:0.1; fill:none" points="1773.2,1423.18 1773.2,123.472 "/>
<polyline clip-path="url(#clip912)" style="stroke:#000000; stroke-linecap:round; stroke-linejoin:round; stroke-width:2; stroke-opacity:0.1; fill:none" points="2293.45,1423.18 2293.45,123.472 "/>
<polyline clip-path="url(#clip912)" style="stroke:#000000; stroke-linecap:round; stroke-linejoin:round; stroke-width:2; stroke-opacity:0.1; fill:none" points="257.204,1386.4 2352.76,1386.4 "/>
<polyline clip-path="url(#clip912)" style="stroke:#000000; stroke-linecap:round; stroke-linejoin:round; stroke-width:2; stroke-opacity:0.1; fill:none" points="257.204,1092.78 2352.76,1092.78 "/>
<polyline clip-path="url(#clip912)" style="stroke:#000000; stroke-linecap:round; stroke-linejoin:round; stroke-width:2; stroke-opacity:0.1; fill:none" points="257.204,799.169 2352.76,799.169 "/>
<polyline clip-path="url(#clip912)" style="stroke:#000000; stroke-linecap:round; stroke-linejoin:round; stroke-width:2; stroke-opacity:0.1; fill:none" points="257.204,505.556 2352.76,505.556 "/>
<polyline clip-path="url(#clip912)" style="stroke:#000000; stroke-linecap:round; stroke-linejoin:round; stroke-width:2; stroke-opacity:0.1; fill:none" points="257.204,211.942 2352.76,211.942 "/>
<polyline clip-path="url(#clip910)" style="stroke:#000000; stroke-linecap:round; stroke-linejoin:round; stroke-width:4; stroke-opacity:1; fill:none" points="257.204,1423.18 2352.76,1423.18 "/>
<polyline clip-path="url(#clip910)" style="stroke:#000000; stroke-linecap:round; stroke-linejoin:round; stroke-width:4; stroke-opacity:1; fill:none" points="732.709,1423.18 732.709,1404.28 "/>
<polyline clip-path="url(#clip910)" style="stroke:#000000; stroke-linecap:round; stroke-linejoin:round; stroke-width:4; stroke-opacity:1; fill:none" points="1252.96,1423.18 1252.96,1404.28 "/>
<polyline clip-path="url(#clip910)" style="stroke:#000000; stroke-linecap:round; stroke-linejoin:round; stroke-width:4; stroke-opacity:1; fill:none" points="1773.2,1423.18 1773.2,1404.28 "/>
<polyline clip-path="url(#clip910)" style="stroke:#000000; stroke-linecap:round; stroke-linejoin:round; stroke-width:4; stroke-opacity:1; fill:none" points="2293.45,1423.18 2293.45,1404.28 "/>
<path clip-path="url(#clip910)" d="M722.987 1451.02 L741.343 1451.02 L741.343 1454.96 L727.269 1454.96 L727.269 1463.43 Q728.288 1463.08 729.306 1462.92 Q730.325 1462.73 731.343 1462.73 Q737.13 1462.73 740.51 1465.9 Q743.89 1469.08 743.89 1474.49 Q743.89 1480.07 740.417 1483.17 Q736.945 1486.25 730.626 1486.25 Q728.45 1486.25 726.181 1485.88 Q723.936 1485.51 721.529 1484.77 L721.529 1480.07 Q723.612 1481.2 725.834 1481.76 Q728.056 1482.32 730.533 1482.32 Q734.538 1482.32 736.876 1480.21 Q739.214 1478.1 739.214 1474.49 Q739.214 1470.88 736.876 1468.77 Q734.538 1466.67 730.533 1466.67 Q728.658 1466.67 726.783 1467.08 Q724.931 1467.5 722.987 1468.38 L722.987 1451.02 Z" fill="#000000" fill-rule="nonzero" fill-opacity="1" /><path clip-path="url(#clip910)" d="M1227.64 1481.64 L1235.28 1481.64 L1235.28 1455.28 L1226.97 1456.95 L1226.97 1452.69 L1235.24 1451.02 L1239.91 1451.02 L1239.91 1481.64 L1247.55 1481.64 L1247.55 1485.58 L1227.64 1485.58 L1227.64 1481.64 Z" fill="#000000" fill-rule="nonzero" fill-opacity="1" /><path clip-path="url(#clip910)" d="M1266.99 1454.1 Q1263.38 1454.1 1261.55 1457.66 Q1259.75 1461.2 1259.75 1468.33 Q1259.75 1475.44 1261.55 1479.01 Q1263.38 1482.55 1266.99 1482.55 Q1270.63 1482.55 1272.43 1479.01 Q1274.26 1475.44 1274.26 1468.33 Q1274.26 1461.2 1272.43 1457.66 Q1270.63 1454.1 1266.99 1454.1 M1266.99 1450.39 Q1272.8 1450.39 1275.86 1455 Q1278.94 1459.58 1278.94 1468.33 Q1278.94 1477.06 1275.86 1481.67 Q1272.8 1486.25 1266.99 1486.25 Q1261.18 1486.25 1258.11 1481.67 Q1255.05 1477.06 1255.05 1468.33 Q1255.05 1459.58 1258.11 1455 Q1261.18 1450.39 1266.99 1450.39 Z" fill="#000000" fill-rule="nonzero" fill-opacity="1" /><path clip-path="url(#clip910)" d="M1748.39 1481.64 L1756.03 1481.64 L1756.03 1455.28 L1747.72 1456.95 L1747.72 1452.69 L1755.98 1451.02 L1760.66 1451.02 L1760.66 1481.64 L1768.29 1481.64 L1768.29 1485.58 L1748.39 1485.58 L1748.39 1481.64 Z" fill="#000000" fill-rule="nonzero" fill-opacity="1" /><path clip-path="url(#clip910)" d="M1777.78 1451.02 L1796.14 1451.02 L1796.14 1454.96 L1782.07 1454.96 L1782.07 1463.43 Q1783.09 1463.08 1784.1 1462.92 Q1785.12 1462.73 1786.14 1462.73 Q1791.93 1462.73 1795.31 1465.9 Q1798.69 1469.08 1798.69 1474.49 Q1798.69 1480.07 1795.22 1483.17 Q1791.74 1486.25 1785.42 1486.25 Q1783.25 1486.25 1780.98 1485.88 Q1778.73 1485.51 1776.33 1484.77 L1776.33 1480.07 Q1778.41 1481.2 1780.63 1481.76 Q1782.85 1482.32 1785.33 1482.32 Q1789.34 1482.32 1791.67 1480.21 Q1794.01 1478.1 1794.01 1474.49 Q1794.01 1470.88 1791.67 1468.77 Q1789.34 1466.67 1785.33 1466.67 Q1783.46 1466.67 1781.58 1467.08 Q1779.73 1467.5 1777.78 1468.38 L1777.78 1451.02 Z" fill="#000000" fill-rule="nonzero" fill-opacity="1" /><path clip-path="url(#clip910)" d="M2272.22 1481.64 L2288.54 1481.64 L2288.54 1485.58 L2266.6 1485.58 L2266.6 1481.64 Q2269.26 1478.89 2273.84 1474.26 Q2278.45 1469.61 2279.63 1468.27 Q2281.87 1465.74 2282.75 1464.01 Q2283.66 1462.25 2283.66 1460.56 Q2283.66 1457.8 2281.71 1456.07 Q2279.79 1454.33 2276.69 1454.33 Q2274.49 1454.33 2272.04 1455.09 Q2269.61 1455.86 2266.83 1457.41 L2266.83 1452.69 Q2269.65 1451.55 2272.11 1450.97 Q2274.56 1450.39 2276.6 1450.39 Q2281.97 1450.39 2285.16 1453.08 Q2288.36 1455.77 2288.36 1460.26 Q2288.36 1462.39 2287.55 1464.31 Q2286.76 1466.2 2284.65 1468.8 Q2284.07 1469.47 2280.97 1472.69 Q2277.87 1475.88 2272.22 1481.64 Z" fill="#000000" fill-rule="nonzero" fill-opacity="1" /><path clip-path="url(#clip910)" d="M2308.36 1454.1 Q2304.74 1454.1 2302.92 1457.66 Q2301.11 1461.2 2301.11 1468.33 Q2301.11 1475.44 2302.92 1479.01 Q2304.74 1482.55 2308.36 1482.55 Q2311.99 1482.55 2313.79 1479.01 Q2315.62 1475.44 2315.62 1468.33 Q2315.62 1461.2 2313.79 1457.66 Q2311.99 1454.1 2308.36 1454.1 M2308.36 1450.39 Q2314.17 1450.39 2317.22 1455 Q2320.3 1459.58 2320.3 1468.33 Q2320.3 1477.06 2317.22 1481.67 Q2314.17 1486.25 2308.36 1486.25 Q2302.55 1486.25 2299.47 1481.67 Q2296.41 1477.06 2296.41 1468.33 Q2296.41 1459.58 2299.47 1455 Q2302.55 1450.39 2308.36 1450.39 Z" fill="#000000" fill-rule="nonzero" fill-opacity="1" /><path clip-path="url(#clip910)" d="M1125.98 1525.81 L1125.98 1562.76 L1133.74 1562.76 Q1143.58 1562.76 1148.13 1558.3 Q1152.71 1553.85 1152.71 1544.24 Q1152.71 1534.69 1148.13 1530.26 Q1143.58 1525.81 1133.74 1525.81 L1125.98 1525.81 M1119.55 1520.52 L1132.76 1520.52 Q1146.57 1520.52 1153.03 1526.28 Q1159.49 1532.01 1159.49 1544.24 Q1159.49 1556.52 1153 1562.28 Q1146.51 1568.04 1132.76 1568.04 L1119.55 1568.04 L1119.55 1520.52 Z" fill="#000000" fill-rule="nonzero" fill-opacity="1" /><path clip-path="url(#clip910)" d="M1169.49 1532.4 L1175.34 1532.4 L1175.34 1568.04 L1169.49 1568.04 L1169.49 1532.4 M1169.49 1518.52 L1175.34 1518.52 L1175.34 1525.93 L1169.49 1525.93 L1169.49 1518.52 Z" fill="#000000" fill-rule="nonzero" fill-opacity="1" /><path clip-path="url(#clip910)" d="M1215.35 1539.24 Q1217.55 1535.29 1220.6 1533.41 Q1223.66 1531.54 1227.8 1531.54 Q1233.37 1531.54 1236.39 1535.45 Q1239.41 1539.33 1239.41 1546.53 L1239.41 1568.04 L1233.52 1568.04 L1233.52 1546.72 Q1233.52 1541.59 1231.71 1539.11 Q1229.9 1536.63 1226.17 1536.63 Q1221.62 1536.63 1218.98 1539.65 Q1216.34 1542.68 1216.34 1547.9 L1216.34 1568.04 L1210.45 1568.04 L1210.45 1546.72 Q1210.45 1541.56 1208.63 1539.11 Q1206.82 1536.63 1203.03 1536.63 Q1198.55 1536.63 1195.9 1539.68 Q1193.26 1542.71 1193.26 1547.9 L1193.26 1568.04 L1187.37 1568.04 L1187.37 1532.4 L1193.26 1532.4 L1193.26 1537.93 Q1195.27 1534.66 1198.07 1533.1 Q1200.87 1531.54 1204.72 1531.54 Q1208.6 1531.54 1211.31 1533.51 Q1214.05 1535.48 1215.35 1539.24 Z" fill="#000000" fill-rule="nonzero" fill-opacity="1" /><path clip-path="url(#clip910)" d="M1281.59 1548.76 L1281.59 1551.62 L1254.66 1551.62 Q1255.04 1557.67 1258.29 1560.85 Q1261.57 1564 1267.39 1564 Q1270.76 1564 1273.92 1563.17 Q1277.1 1562.35 1280.22 1560.69 L1280.22 1566.23 Q1277.07 1567.57 1273.76 1568.27 Q1270.45 1568.97 1267.04 1568.97 Q1258.51 1568.97 1253.51 1564 Q1248.55 1559.04 1248.55 1550.57 Q1248.55 1541.82 1253.26 1536.69 Q1258 1531.54 1266.02 1531.54 Q1273.22 1531.54 1277.38 1536.18 Q1281.59 1540.8 1281.59 1548.76 M1275.73 1547.04 Q1275.67 1542.23 1273.02 1539.37 Q1270.41 1536.5 1266.09 1536.5 Q1261.18 1536.5 1258.22 1539.27 Q1255.3 1542.04 1254.85 1547.07 L1275.73 1547.04 Z" fill="#000000" fill-rule="nonzero" fill-opacity="1" /><path clip-path="url(#clip910)" d="M1320.83 1546.53 L1320.83 1568.04 L1314.97 1568.04 L1314.97 1546.72 Q1314.97 1541.66 1313 1539.14 Q1311.03 1536.63 1307.08 1536.63 Q1302.34 1536.63 1299.6 1539.65 Q1296.86 1542.68 1296.86 1547.9 L1296.86 1568.04 L1290.98 1568.04 L1290.98 1532.4 L1296.86 1532.4 L1296.86 1537.93 Q1298.96 1534.72 1301.8 1533.13 Q1304.66 1531.54 1308.39 1531.54 Q1314.53 1531.54 1317.68 1535.36 Q1320.83 1539.14 1320.83 1546.53 Z" fill="#000000" fill-rule="nonzero" fill-opacity="1" /><path clip-path="url(#clip910)" d="M1355.24 1533.45 L1355.24 1538.98 Q1352.75 1537.71 1350.08 1537.07 Q1347.41 1536.44 1344.54 1536.44 Q1340.18 1536.44 1337.99 1537.77 Q1335.82 1539.11 1335.82 1541.79 Q1335.82 1543.82 1337.38 1545 Q1338.94 1546.15 1343.65 1547.2 L1345.66 1547.64 Q1351.9 1548.98 1354.51 1551.43 Q1357.15 1553.85 1357.15 1558.21 Q1357.15 1563.17 1353.2 1566.07 Q1349.29 1568.97 1342.41 1568.97 Q1339.55 1568.97 1336.43 1568.39 Q1333.34 1567.85 1329.9 1566.74 L1329.9 1560.69 Q1333.15 1562.38 1336.3 1563.24 Q1339.45 1564.07 1342.54 1564.07 Q1346.68 1564.07 1348.9 1562.66 Q1351.13 1561.23 1351.13 1558.65 Q1351.13 1556.27 1349.51 1554.99 Q1347.92 1553.72 1342.47 1552.54 L1340.44 1552.07 Q1334.99 1550.92 1332.58 1548.56 Q1330.16 1546.18 1330.16 1542.04 Q1330.16 1537.01 1333.72 1534.27 Q1337.29 1531.54 1343.84 1531.54 Q1347.09 1531.54 1349.95 1532.01 Q1352.82 1532.49 1355.24 1533.45 Z" fill="#000000" fill-rule="nonzero" fill-opacity="1" /><path clip-path="url(#clip910)" d="M1366.47 1532.4 L1372.33 1532.4 L1372.33 1568.04 L1366.47 1568.04 L1366.47 1532.4 M1366.47 1518.52 L1372.33 1518.52 L1372.33 1525.93 L1366.47 1525.93 L1366.47 1518.52 Z" fill="#000000" fill-rule="nonzero" fill-opacity="1" /><path clip-path="url(#clip910)" d="M1398.4 1536.5 Q1393.69 1536.5 1390.95 1540.19 Q1388.21 1543.85 1388.21 1550.25 Q1388.21 1556.65 1390.92 1560.34 Q1393.65 1564 1398.4 1564 Q1403.08 1564 1405.81 1560.31 Q1408.55 1556.62 1408.55 1550.25 Q1408.55 1543.92 1405.81 1540.23 Q1403.08 1536.5 1398.4 1536.5 M1398.4 1531.54 Q1406.04 1531.54 1410.4 1536.5 Q1414.76 1541.47 1414.76 1550.25 Q1414.76 1559 1410.4 1564 Q1406.04 1568.97 1398.4 1568.97 Q1390.73 1568.97 1386.37 1564 Q1382.04 1559 1382.04 1550.25 Q1382.04 1541.47 1386.37 1536.5 Q1390.73 1531.54 1398.4 1531.54 Z" fill="#000000" fill-rule="nonzero" fill-opacity="1" /><path clip-path="url(#clip910)" d="M1454.1 1546.53 L1454.1 1568.04 L1448.24 1568.04 L1448.24 1546.72 Q1448.24 1541.66 1446.27 1539.14 Q1444.29 1536.63 1440.35 1536.63 Q1435.6 1536.63 1432.87 1539.65 Q1430.13 1542.68 1430.13 1547.9 L1430.13 1568.04 L1424.24 1568.04 L1424.24 1532.4 L1430.13 1532.4 L1430.13 1537.93 Q1432.23 1534.72 1435.06 1533.13 Q1437.93 1531.54 1441.65 1531.54 Q1447.79 1531.54 1450.95 1535.36 Q1454.1 1539.14 1454.1 1546.53 Z" fill="#000000" fill-rule="nonzero" fill-opacity="1" /><path clip-path="url(#clip910)" d="M1488.5 1533.45 L1488.5 1538.98 Q1486.02 1537.71 1483.35 1537.07 Q1480.67 1536.44 1477.81 1536.44 Q1473.45 1536.44 1471.25 1537.77 Q1469.09 1539.11 1469.09 1541.79 Q1469.09 1543.82 1470.65 1545 Q1472.21 1546.15 1476.92 1547.2 L1478.92 1547.64 Q1485.16 1548.98 1487.77 1551.43 Q1490.41 1553.85 1490.41 1558.21 Q1490.41 1563.17 1486.47 1566.07 Q1482.55 1568.97 1475.68 1568.97 Q1472.81 1568.97 1469.69 1568.39 Q1466.61 1567.85 1463.17 1566.74 L1463.17 1560.69 Q1466.41 1562.38 1469.57 1563.24 Q1472.72 1564.07 1475.8 1564.07 Q1479.94 1564.07 1482.17 1562.66 Q1484.4 1561.23 1484.4 1558.65 Q1484.4 1556.27 1482.77 1554.99 Q1481.18 1553.72 1475.74 1552.54 L1473.7 1552.07 Q1468.26 1550.92 1465.84 1548.56 Q1463.42 1546.18 1463.42 1542.04 Q1463.42 1537.01 1466.99 1534.27 Q1470.55 1531.54 1477.11 1531.54 Q1480.36 1531.54 1483.22 1532.01 Q1486.08 1532.49 1488.5 1533.45 Z" fill="#000000" fill-rule="nonzero" fill-opacity="1" /><polyline clip-path="url(#clip910)" style="stroke:#000000; stroke-linecap:round; stroke-linejoin:round; stroke-width:4; stroke-opacity:1; fill:none" points="257.204,1423.18 257.204,123.472 "/>
<polyline clip-path="url(#clip910)" style="stroke:#000000; stroke-linecap:round; stroke-linejoin:round; stroke-width:4; stroke-opacity:1; fill:none" points="257.204,1386.4 276.102,1386.4 "/>
<polyline clip-path="url(#clip910)" style="stroke:#000000; stroke-linecap:round; stroke-linejoin:round; stroke-width:4; stroke-opacity:1; fill:none" points="257.204,1092.78 276.102,1092.78 "/>
<polyline clip-path="url(#clip910)" style="stroke:#000000; stroke-linecap:round; stroke-linejoin:round; stroke-width:4; stroke-opacity:1; fill:none" points="257.204,799.169 276.102,799.169 "/>
<polyline clip-path="url(#clip910)" style="stroke:#000000; stroke-linecap:round; stroke-linejoin:round; stroke-width:4; stroke-opacity:1; fill:none" points="257.204,505.556 276.102,505.556 "/>
<polyline clip-path="url(#clip910)" style="stroke:#000000; stroke-linecap:round; stroke-linejoin:round; stroke-width:4; stroke-opacity:1; fill:none" points="257.204,211.942 276.102,211.942 "/>
<path clip-path="url(#clip910)" d="M114.26 1386.85 L143.936 1386.85 L143.936 1390.78 L114.26 1390.78 L114.26 1386.85 Z" fill="#000000" fill-rule="nonzero" fill-opacity="1" /><path clip-path="url(#clip910)" d="M168.195 1385.04 Q171.552 1385.76 173.427 1388.03 Q175.325 1390.3 175.325 1393.63 Q175.325 1398.75 171.806 1401.55 Q168.288 1404.35 161.806 1404.35 Q159.63 1404.35 157.315 1403.91 Q155.024 1403.49 152.57 1402.63 L152.57 1398.12 Q154.515 1399.25 156.829 1399.83 Q159.144 1400.41 161.667 1400.41 Q166.065 1400.41 168.357 1398.68 Q170.672 1396.94 170.672 1393.63 Q170.672 1390.57 168.519 1388.86 Q166.39 1387.12 162.57 1387.12 L158.542 1387.12 L158.542 1383.28 L162.755 1383.28 Q166.204 1383.28 168.033 1381.92 Q169.862 1380.53 169.862 1377.94 Q169.862 1375.27 167.964 1373.86 Q166.089 1372.43 162.57 1372.43 Q160.649 1372.43 158.45 1372.84 Q156.251 1373.26 153.612 1374.14 L153.612 1369.97 Q156.274 1369.23 158.589 1368.86 Q160.927 1368.49 162.987 1368.49 Q168.311 1368.49 171.413 1370.92 Q174.514 1373.33 174.514 1377.45 Q174.514 1380.32 172.871 1382.31 Q171.227 1384.28 168.195 1385.04 Z" fill="#000000" fill-rule="nonzero" fill-opacity="1" /><path clip-path="url(#clip910)" d="M184.19 1397.8 L189.075 1397.8 L189.075 1403.68 L184.19 1403.68 L184.19 1397.8 Z" fill="#000000" fill-rule="nonzero" fill-opacity="1" /><path clip-path="url(#clip910)" d="M209.26 1372.19 Q205.649 1372.19 203.82 1375.76 Q202.014 1379.3 202.014 1386.43 Q202.014 1393.54 203.82 1397.1 Q205.649 1400.64 209.26 1400.64 Q212.894 1400.64 214.699 1397.1 Q216.528 1393.54 216.528 1386.43 Q216.528 1379.3 214.699 1375.76 Q212.894 1372.19 209.26 1372.19 M209.26 1368.49 Q215.07 1368.49 218.125 1373.1 Q221.204 1377.68 221.204 1386.43 Q221.204 1395.16 218.125 1399.76 Q215.07 1404.35 209.26 1404.35 Q203.449 1404.35 200.371 1399.76 Q197.315 1395.16 197.315 1386.43 Q197.315 1377.68 200.371 1373.1 Q203.449 1368.49 209.26 1368.49 Z" fill="#000000" fill-rule="nonzero" fill-opacity="1" /><path clip-path="url(#clip910)" d="M115.256 1093.23 L144.931 1093.23 L144.931 1097.17 L115.256 1097.17 L115.256 1093.23 Z" fill="#000000" fill-rule="nonzero" fill-opacity="1" /><path clip-path="url(#clip910)" d="M159.052 1106.13 L175.371 1106.13 L175.371 1110.06 L153.427 1110.06 L153.427 1106.13 Q156.089 1103.37 160.672 1098.74 Q165.278 1094.09 166.459 1092.75 Q168.704 1090.22 169.584 1088.49 Q170.487 1086.73 170.487 1085.04 Q170.487 1082.28 168.542 1080.55 Q166.621 1078.81 163.519 1078.81 Q161.32 1078.81 158.866 1079.58 Q156.436 1080.34 153.658 1081.89 L153.658 1077.17 Q156.482 1076.03 158.936 1075.46 Q161.39 1074.88 163.427 1074.88 Q168.797 1074.88 171.991 1077.56 Q175.186 1080.25 175.186 1084.74 Q175.186 1086.87 174.376 1088.79 Q173.589 1090.69 171.482 1093.28 Q170.903 1093.95 167.802 1097.17 Q164.7 1100.36 159.052 1106.13 Z" fill="#000000" fill-rule="nonzero" fill-opacity="1" /><path clip-path="url(#clip910)" d="M185.186 1104.18 L190.07 1104.18 L190.07 1110.06 L185.186 1110.06 L185.186 1104.18 Z" fill="#000000" fill-rule="nonzero" fill-opacity="1" /><path clip-path="url(#clip910)" d="M200.301 1075.5 L218.658 1075.5 L218.658 1079.44 L204.584 1079.44 L204.584 1087.91 Q205.602 1087.56 206.621 1087.4 Q207.639 1087.22 208.658 1087.22 Q214.445 1087.22 217.824 1090.39 Q221.204 1093.56 221.204 1098.97 Q221.204 1104.55 217.732 1107.65 Q214.26 1110.73 207.94 1110.73 Q205.764 1110.73 203.496 1110.36 Q201.25 1109.99 198.843 1109.25 L198.843 1104.55 Q200.926 1105.69 203.149 1106.24 Q205.371 1106.8 207.848 1106.8 Q211.852 1106.8 214.19 1104.69 Q216.528 1102.59 216.528 1098.97 Q216.528 1095.36 214.19 1093.26 Q211.852 1091.15 207.848 1091.15 Q205.973 1091.15 204.098 1091.57 Q202.246 1091.98 200.301 1092.86 L200.301 1075.5 Z" fill="#000000" fill-rule="nonzero" fill-opacity="1" /><path clip-path="url(#clip910)" d="M114.26 799.62 L143.936 799.62 L143.936 803.556 L114.26 803.556 L114.26 799.62 Z" fill="#000000" fill-rule="nonzero" fill-opacity="1" /><path clip-path="url(#clip910)" d="M158.056 812.514 L174.376 812.514 L174.376 816.449 L152.431 816.449 L152.431 812.514 Q155.093 809.759 159.677 805.13 Q164.283 800.477 165.464 799.134 Q167.709 796.611 168.589 794.875 Q169.491 793.116 169.491 791.426 Q169.491 788.671 167.547 786.935 Q165.626 785.199 162.524 785.199 Q160.325 785.199 157.871 785.963 Q155.44 786.727 152.663 788.278 L152.663 783.556 Q155.487 782.421 157.94 781.843 Q160.394 781.264 162.431 781.264 Q167.802 781.264 170.996 783.949 Q174.19 786.634 174.19 791.125 Q174.19 793.255 173.38 795.176 Q172.593 797.074 170.487 799.667 Q169.908 800.338 166.806 803.556 Q163.704 806.75 158.056 812.514 Z" fill="#000000" fill-rule="nonzero" fill-opacity="1" /><path clip-path="url(#clip910)" d="M184.19 810.569 L189.075 810.569 L189.075 816.449 L184.19 816.449 L184.19 810.569 Z" fill="#000000" fill-rule="nonzero" fill-opacity="1" /><path clip-path="url(#clip910)" d="M209.26 784.968 Q205.649 784.968 203.82 788.533 Q202.014 792.074 202.014 799.204 Q202.014 806.31 203.82 809.875 Q205.649 813.417 209.26 813.417 Q212.894 813.417 214.699 809.875 Q216.528 806.31 216.528 799.204 Q216.528 792.074 214.699 788.533 Q212.894 784.968 209.26 784.968 M209.26 781.264 Q215.07 781.264 218.125 785.87 Q221.204 790.454 221.204 799.204 Q221.204 807.931 218.125 812.537 Q215.07 817.12 209.26 817.12 Q203.449 817.12 200.371 812.537 Q197.315 807.931 197.315 799.204 Q197.315 790.454 200.371 785.87 Q203.449 781.264 209.26 781.264 Z" fill="#000000" fill-rule="nonzero" fill-opacity="1" /><path clip-path="url(#clip910)" d="M115.256 506.007 L144.931 506.007 L144.931 509.942 L115.256 509.942 L115.256 506.007 Z" fill="#000000" fill-rule="nonzero" fill-opacity="1" /><path clip-path="url(#clip910)" d="M155.834 518.901 L163.473 518.901 L163.473 492.535 L155.163 494.202 L155.163 489.942 L163.427 488.276 L168.102 488.276 L168.102 518.901 L175.741 518.901 L175.741 522.836 L155.834 522.836 L155.834 518.901 Z" fill="#000000" fill-rule="nonzero" fill-opacity="1" /><path clip-path="url(#clip910)" d="M185.186 516.956 L190.07 516.956 L190.07 522.836 L185.186 522.836 L185.186 516.956 Z" fill="#000000" fill-rule="nonzero" fill-opacity="1" /><path clip-path="url(#clip910)" d="M200.301 488.276 L218.658 488.276 L218.658 492.211 L204.584 492.211 L204.584 500.683 Q205.602 500.336 206.621 500.174 Q207.639 499.989 208.658 499.989 Q214.445 499.989 217.824 503.16 Q221.204 506.331 221.204 511.748 Q221.204 517.326 217.732 520.428 Q214.26 523.507 207.94 523.507 Q205.764 523.507 203.496 523.137 Q201.25 522.766 198.843 522.026 L198.843 517.326 Q200.926 518.461 203.149 519.016 Q205.371 519.572 207.848 519.572 Q211.852 519.572 214.19 517.465 Q216.528 515.359 216.528 511.748 Q216.528 508.137 214.19 506.03 Q211.852 503.924 207.848 503.924 Q205.973 503.924 204.098 504.34 Q202.246 504.757 200.301 505.637 L200.301 488.276 Z" fill="#000000" fill-rule="nonzero" fill-opacity="1" /><path clip-path="url(#clip910)" d="M114.26 212.394 L143.936 212.394 L143.936 216.329 L114.26 216.329 L114.26 212.394 Z" fill="#000000" fill-rule="nonzero" fill-opacity="1" /><path clip-path="url(#clip910)" d="M154.839 225.287 L162.477 225.287 L162.477 198.922 L154.167 200.588 L154.167 196.329 L162.431 194.662 L167.107 194.662 L167.107 225.287 L174.746 225.287 L174.746 229.222 L154.839 229.222 L154.839 225.287 Z" fill="#000000" fill-rule="nonzero" fill-opacity="1" /><path clip-path="url(#clip910)" d="M184.19 223.343 L189.075 223.343 L189.075 229.222 L184.19 229.222 L184.19 223.343 Z" fill="#000000" fill-rule="nonzero" fill-opacity="1" /><path clip-path="url(#clip910)" d="M209.26 197.741 Q205.649 197.741 203.82 201.306 Q202.014 204.848 202.014 211.977 Q202.014 219.084 203.82 222.648 Q205.649 226.19 209.26 226.19 Q212.894 226.19 214.699 222.648 Q216.528 219.084 216.528 211.977 Q216.528 204.848 214.699 201.306 Q212.894 197.741 209.26 197.741 M209.26 194.037 Q215.07 194.037 218.125 198.644 Q221.204 203.227 221.204 211.977 Q221.204 220.704 218.125 225.31 Q215.07 229.894 209.26 229.894 Q203.449 229.894 200.371 225.31 Q197.315 220.704 197.315 211.977 Q197.315 203.227 200.371 198.644 Q203.449 194.037 209.26 194.037 Z" fill="#000000" fill-rule="nonzero" fill-opacity="1" /><path clip-path="url(#clip910)" d="M16.4842 822.963 L16.4842 792.916 L21.895 792.916 L21.895 816.533 L35.9632 816.533 L35.9632 793.903 L41.3741 793.903 L41.3741 816.533 L58.5933 816.533 L58.5933 792.344 L64.0042 792.344 L64.0042 822.963 L16.4842 822.963 Z" fill="#000000" fill-rule="nonzero" fill-opacity="1" /><path clip-path="url(#clip910)" d="M14.5426 767.963 Q21.8632 772.228 29.0246 774.297 Q36.186 776.366 43.5384 776.366 Q50.8908 776.366 58.1159 774.297 Q65.3091 772.196 72.5979 767.963 L72.5979 773.055 Q65.1182 777.83 57.8931 780.217 Q50.668 782.572 43.5384 782.572 Q36.4406 782.572 29.2474 780.217 Q22.0542 777.862 14.5426 773.055 L14.5426 767.963 Z" fill="#000000" fill-rule="nonzero" fill-opacity="1" /><path clip-path="url(#clip910)" d="M16.4842 756.345 L16.4842 749.916 L60.694 749.916 Q69.2877 749.916 73.1708 753.194 Q77.0539 756.441 77.0539 763.666 L77.0539 766.117 L71.643 766.117 L71.643 764.112 Q71.643 759.847 69.2559 758.096 Q66.8687 756.345 60.694 756.345 L16.4842 756.345 Z" fill="#000000" fill-rule="nonzero" fill-opacity="1" /><path clip-path="url(#clip910)" d="M14.5426 738.299 L14.5426 733.206 Q22.0542 728.432 29.2474 726.077 Q36.4406 723.689 43.5384 723.689 Q50.668 723.689 57.8931 726.077 Q65.1182 728.432 72.5979 733.206 L72.5979 738.299 Q65.3091 734.065 58.1159 731.997 Q50.8908 729.896 43.5384 729.896 Q36.186 729.896 29.0246 731.997 Q21.8632 734.065 14.5426 738.299 Z" fill="#000000" fill-rule="nonzero" fill-opacity="1" /><path clip-path="url(#clip910)" d="M690.215 12.096 L728.455 12.096 L728.455 18.9825 L698.398 18.9825 L698.398 36.8875 L727.199 36.8875 L727.199 43.7741 L698.398 43.7741 L698.398 65.6895 L729.184 65.6895 L729.184 72.576 L690.215 72.576 L690.215 12.096 Z" fill="#000000" fill-rule="nonzero" fill-opacity="1" /><path clip-path="url(#clip910)" d="M780.023 45.1919 L780.023 72.576 L772.57 72.576 L772.57 45.4349 Q772.57 38.994 770.058 35.7938 Q767.547 32.5936 762.523 32.5936 Q756.488 32.5936 753.004 36.4419 Q749.52 40.2903 749.52 46.9338 L749.52 72.576 L742.026 72.576 L742.026 27.2059 L749.52 27.2059 L749.52 34.2544 Q752.194 30.163 755.799 28.1376 Q759.445 26.1121 764.184 26.1121 Q772.002 26.1121 776.013 30.9732 Q780.023 35.7938 780.023 45.1919 Z" fill="#000000" fill-rule="nonzero" fill-opacity="1" /><path clip-path="url(#clip910)" d="M833.698 48.0275 L833.698 51.6733 L799.427 51.6733 Q799.913 59.3701 804.045 63.421 Q808.218 67.4314 815.631 67.4314 Q819.925 67.4314 823.935 66.3781 Q827.986 65.3249 831.956 63.2184 L831.956 70.267 Q827.945 71.9684 823.733 72.8596 Q819.52 73.7508 815.185 73.7508 Q804.329 73.7508 797.969 67.4314 Q791.649 61.1119 791.649 50.3365 Q791.649 39.1965 797.645 32.6746 Q803.681 26.1121 813.889 26.1121 Q823.044 26.1121 828.351 32.0264 Q833.698 37.9003 833.698 48.0275 M826.244 45.84 Q826.163 39.7232 822.801 36.0774 Q819.479 32.4315 813.97 32.4315 Q807.731 32.4315 803.964 35.9558 Q800.237 39.4801 799.67 45.8805 L826.244 45.84 Z" fill="#000000" fill-rule="nonzero" fill-opacity="1" /><path clip-path="url(#clip910)" d="M872.222 34.1734 Q870.966 33.4443 869.467 33.1202 Q868.009 32.7556 866.227 32.7556 Q859.907 32.7556 856.504 36.8875 Q853.142 40.9789 853.142 48.6757 L853.142 72.576 L845.648 72.576 L845.648 27.2059 L853.142 27.2059 L853.142 34.2544 Q855.492 30.1225 859.259 28.1376 Q863.026 26.1121 868.414 26.1121 Q869.184 26.1121 870.115 26.2337 Q871.047 26.3147 872.181 26.5172 L872.222 34.1734 Z" fill="#000000" fill-rule="nonzero" fill-opacity="1" /><path clip-path="url(#clip910)" d="M908.437 49.3643 Q908.437 41.2625 905.075 36.8065 Q901.753 32.3505 895.717 32.3505 Q889.722 32.3505 886.36 36.8065 Q883.038 41.2625 883.038 49.3643 Q883.038 57.4256 886.36 61.8816 Q889.722 66.3376 895.717 66.3376 Q901.753 66.3376 905.075 61.8816 Q908.437 57.4256 908.437 49.3643 M915.891 66.9452 Q915.891 78.5308 910.746 84.1616 Q905.601 89.8329 894.988 89.8329 Q891.059 89.8329 887.575 89.2252 Q884.091 88.6581 880.81 87.4428 L880.81 80.1917 Q884.091 81.9741 887.291 82.8248 Q890.491 83.6755 893.813 83.6755 Q901.145 83.6755 904.791 79.8271 Q908.437 76.0193 908.437 68.282 L908.437 64.5957 Q906.128 68.6061 902.523 70.5911 Q898.917 72.576 893.894 72.576 Q885.549 72.576 880.445 66.2161 Q875.341 59.8562 875.341 49.3643 Q875.341 38.832 880.445 32.472 Q885.549 26.1121 893.894 26.1121 Q898.917 26.1121 902.523 28.0971 Q906.128 30.082 908.437 34.0924 L908.437 27.2059 L915.891 27.2059 L915.891 66.9452 Z" fill="#000000" fill-rule="nonzero" fill-opacity="1" /><path clip-path="url(#clip910)" d="M950.121 76.7889 Q946.961 84.8907 943.963 87.3618 Q940.966 89.8329 935.943 89.8329 L929.988 89.8329 L929.988 83.5945 L934.363 83.5945 Q937.441 83.5945 939.143 82.1361 Q940.844 80.6778 942.91 75.2496 L944.247 71.8468 L925.896 27.2059 L933.796 27.2059 L947.974 62.6918 L962.152 27.2059 L970.051 27.2059 L950.121 76.7889 Z" fill="#000000" fill-rule="nonzero" fill-opacity="1" /><path clip-path="url(#clip910)" d="M1024.29 32.4315 Q1018.3 32.4315 1014.81 37.1306 Q1011.33 41.7891 1011.33 49.9314 Q1011.33 58.0738 1014.77 62.7728 Q1018.26 67.4314 1024.29 67.4314 Q1030.25 67.4314 1033.73 62.7323 Q1037.22 58.0333 1037.22 49.9314 Q1037.22 41.8701 1033.73 37.1711 Q1030.25 32.4315 1024.29 32.4315 M1024.29 26.1121 Q1034.01 26.1121 1039.56 32.4315 Q1045.11 38.7509 1045.11 49.9314 Q1045.11 61.0714 1039.56 67.4314 Q1034.01 73.7508 1024.29 73.7508 Q1014.53 73.7508 1008.98 67.4314 Q1003.47 61.0714 1003.47 49.9314 Q1003.47 38.7509 1008.98 32.4315 Q1014.53 26.1121 1024.29 26.1121 Z" fill="#000000" fill-rule="nonzero" fill-opacity="1" /><path clip-path="url(#clip910)" d="M1052.12 27.2059 L1060.02 27.2059 L1074.2 65.2844 L1088.38 27.2059 L1096.28 27.2059 L1079.26 72.576 L1069.14 72.576 L1052.12 27.2059 Z" fill="#000000" fill-rule="nonzero" fill-opacity="1" /><path clip-path="url(#clip910)" d="M1145.37 48.0275 L1145.37 51.6733 L1111.1 51.6733 Q1111.59 59.3701 1115.72 63.421 Q1119.89 67.4314 1127.31 67.4314 Q1131.6 67.4314 1135.61 66.3781 Q1139.66 65.3249 1143.63 63.2184 L1143.63 70.267 Q1139.62 71.9684 1135.41 72.8596 Q1131.2 73.7508 1126.86 73.7508 Q1116.01 73.7508 1109.65 67.4314 Q1103.33 61.1119 1103.33 50.3365 Q1103.33 39.1965 1109.32 32.6746 Q1115.36 26.1121 1125.57 26.1121 Q1134.72 26.1121 1140.03 32.0264 Q1145.37 37.9003 1145.37 48.0275 M1137.92 45.84 Q1137.84 39.7232 1134.48 36.0774 Q1131.16 32.4315 1125.65 32.4315 Q1119.41 32.4315 1115.64 35.9558 Q1111.91 39.4801 1111.35 45.8805 L1137.92 45.84 Z" fill="#000000" fill-rule="nonzero" fill-opacity="1" /><path clip-path="url(#clip910)" d="M1183.9 34.1734 Q1182.64 33.4443 1181.14 33.1202 Q1179.69 32.7556 1177.9 32.7556 Q1171.58 32.7556 1168.18 36.8875 Q1164.82 40.9789 1164.82 48.6757 L1164.82 72.576 L1157.32 72.576 L1157.32 27.2059 L1164.82 27.2059 L1164.82 34.2544 Q1167.17 30.1225 1170.94 28.1376 Q1174.7 26.1121 1180.09 26.1121 Q1180.86 26.1121 1181.79 26.2337 Q1182.72 26.3147 1183.86 26.5172 L1183.9 34.1734 Z" fill="#000000" fill-rule="nonzero" fill-opacity="1" /><path clip-path="url(#clip910)" d="M1225.46 14.324 L1225.46 27.2059 L1240.81 27.2059 L1240.81 32.9987 L1225.46 32.9987 L1225.46 57.6282 Q1225.46 63.1779 1226.96 64.7578 Q1228.5 66.3376 1233.16 66.3376 L1240.81 66.3376 L1240.81 72.576 L1233.16 72.576 Q1224.53 72.576 1221.25 69.3758 Q1217.97 66.1351 1217.97 57.6282 L1217.97 32.9987 L1212.5 32.9987 L1212.5 27.2059 L1217.97 27.2059 L1217.97 14.324 L1225.46 14.324 Z" fill="#000000" fill-rule="nonzero" fill-opacity="1" /><path clip-path="url(#clip910)" d="M1288.33 45.1919 L1288.33 72.576 L1280.88 72.576 L1280.88 45.4349 Q1280.88 38.994 1278.37 35.7938 Q1275.85 32.5936 1270.83 32.5936 Q1264.79 32.5936 1261.31 36.4419 Q1257.83 40.2903 1257.83 46.9338 L1257.83 72.576 L1250.33 72.576 L1250.33 9.54393 L1257.83 9.54393 L1257.83 34.2544 Q1260.5 30.163 1264.11 28.1376 Q1267.75 26.1121 1272.49 26.1121 Q1280.31 26.1121 1284.32 30.9732 Q1288.33 35.7938 1288.33 45.1919 Z" fill="#000000" fill-rule="nonzero" fill-opacity="1" /><path clip-path="url(#clip910)" d="M1342.01 48.0275 L1342.01 51.6733 L1307.73 51.6733 Q1308.22 59.3701 1312.35 63.421 Q1316.53 67.4314 1323.94 67.4314 Q1328.23 67.4314 1332.24 66.3781 Q1336.29 65.3249 1340.26 63.2184 L1340.26 70.267 Q1336.25 71.9684 1332.04 72.8596 Q1327.83 73.7508 1323.49 73.7508 Q1312.64 73.7508 1306.28 67.4314 Q1299.96 61.1119 1299.96 50.3365 Q1299.96 39.1965 1305.95 32.6746 Q1311.99 26.1121 1322.2 26.1121 Q1331.35 26.1121 1336.66 32.0264 Q1342.01 37.9003 1342.01 48.0275 M1334.55 45.84 Q1334.47 39.7232 1331.11 36.0774 Q1327.79 32.4315 1322.28 32.4315 Q1316.04 32.4315 1312.27 35.9558 Q1308.54 39.4801 1307.98 45.8805 L1334.55 45.84 Z" fill="#000000" fill-rule="nonzero" fill-opacity="1" /><path clip-path="url(#clip910)" d="M1389.12 18.8205 L1389.12 65.8515 L1399 65.8515 Q1411.52 65.8515 1417.31 60.1802 Q1423.14 54.509 1423.14 42.2752 Q1423.14 30.1225 1417.31 24.4918 Q1411.52 18.8205 1399 18.8205 L1389.12 18.8205 M1380.93 12.096 L1397.75 12.096 Q1415.33 12.096 1423.55 19.4281 Q1431.77 26.7198 1431.77 42.2752 Q1431.77 57.9117 1423.51 65.2439 Q1415.25 72.576 1397.75 72.576 L1380.93 72.576 L1380.93 12.096 Z" fill="#000000" fill-rule="nonzero" fill-opacity="1" /><path clip-path="url(#clip910)" d="M1444.49 27.2059 L1451.95 27.2059 L1451.95 72.576 L1444.49 72.576 L1444.49 27.2059 M1444.49 9.54393 L1451.95 9.54393 L1451.95 18.9825 L1444.49 18.9825 L1444.49 9.54393 Z" fill="#000000" fill-rule="nonzero" fill-opacity="1" /><path clip-path="url(#clip910)" d="M1502.87 35.9153 Q1505.66 30.8922 1509.55 28.5022 Q1513.44 26.1121 1518.71 26.1121 Q1525.79 26.1121 1529.64 31.0947 Q1533.49 36.0368 1533.49 45.1919 L1533.49 72.576 L1526 72.576 L1526 45.4349 Q1526 38.913 1523.69 35.7533 Q1521.38 32.5936 1516.64 32.5936 Q1510.85 32.5936 1507.48 36.4419 Q1504.12 40.2903 1504.12 46.9338 L1504.12 72.576 L1496.63 72.576 L1496.63 45.4349 Q1496.63 38.8725 1494.32 35.7533 Q1492.01 32.5936 1487.19 32.5936 Q1481.48 32.5936 1478.12 36.4824 Q1474.75 40.3308 1474.75 46.9338 L1474.75 72.576 L1467.26 72.576 L1467.26 27.2059 L1474.75 27.2059 L1474.75 34.2544 Q1477.31 30.082 1480.87 28.0971 Q1484.44 26.1121 1489.34 26.1121 Q1494.28 26.1121 1497.72 28.6237 Q1501.21 31.1352 1502.87 35.9153 Z" fill="#000000" fill-rule="nonzero" fill-opacity="1" /><path clip-path="url(#clip910)" d="M1549.41 62.2867 L1557.96 62.2867 L1557.96 72.576 L1549.41 72.576 L1549.41 62.2867 Z" fill="#000000" fill-rule="nonzero" fill-opacity="1" /><path clip-path="url(#clip910)" d="M1618.68 32.4315 Q1612.69 32.4315 1609.2 37.1306 Q1605.72 41.7891 1605.72 49.9314 Q1605.72 58.0738 1609.16 62.7728 Q1612.65 67.4314 1618.68 67.4314 Q1624.64 67.4314 1628.12 62.7323 Q1631.6 58.0333 1631.6 49.9314 Q1631.6 41.8701 1628.12 37.1711 Q1624.64 32.4315 1618.68 32.4315 M1618.68 26.1121 Q1628.4 26.1121 1633.95 32.4315 Q1639.5 38.7509 1639.5 49.9314 Q1639.5 61.0714 1633.95 67.4314 Q1628.4 73.7508 1618.68 73.7508 Q1608.92 73.7508 1603.37 67.4314 Q1597.86 61.0714 1597.86 49.9314 Q1597.86 38.7509 1603.37 32.4315 Q1608.92 26.1121 1618.68 26.1121 Z" fill="#000000" fill-rule="nonzero" fill-opacity="1" /><path clip-path="url(#clip910)" d="M1674.83 9.54393 L1674.83 15.7418 L1667.7 15.7418 Q1663.69 15.7418 1662.11 17.3622 Q1660.57 18.9825 1660.57 23.1955 L1660.57 27.2059 L1672.84 27.2059 L1672.84 32.9987 L1660.57 32.9987 L1660.57 72.576 L1653.07 72.576 L1653.07 32.9987 L1645.94 32.9987 L1645.94 27.2059 L1653.07 27.2059 L1653.07 24.0462 Q1653.07 16.471 1656.6 13.0277 Q1660.12 9.54393 1667.78 9.54393 L1674.83 9.54393 Z" fill="#000000" fill-rule="nonzero" fill-opacity="1" /><path clip-path="url(#clip910)" d="M1744.02 14.0809 L1744.02 22.0612 Q1739.36 19.8332 1735.23 18.7395 Q1731.09 17.6457 1727.25 17.6457 Q1720.56 17.6457 1716.92 20.2383 Q1713.31 22.8309 1713.31 27.611 Q1713.31 31.6214 1715.7 33.6873 Q1718.13 35.7128 1724.86 36.9686 L1729.8 37.9813 Q1738.95 39.7232 1743.29 44.1387 Q1747.66 48.5136 1747.66 55.8863 Q1747.66 64.6767 1741.75 69.2137 Q1735.87 73.7508 1724.49 73.7508 Q1720.2 73.7508 1715.34 72.7785 Q1710.52 71.8063 1705.33 69.9024 L1705.33 61.4765 Q1710.31 64.2716 1715.09 65.6895 Q1719.87 67.1073 1724.49 67.1073 Q1731.5 67.1073 1735.31 64.3527 Q1739.12 61.598 1739.12 56.4939 Q1739.12 52.0379 1736.36 49.5264 Q1733.65 47.0148 1727.41 45.759 L1722.43 44.7868 Q1713.27 42.9639 1709.18 39.075 Q1705.09 35.1862 1705.09 28.2591 Q1705.09 20.2383 1710.72 15.6203 Q1716.39 11.0023 1726.31 11.0023 Q1730.57 11.0023 1734.98 11.7719 Q1739.4 12.5416 1744.02 14.0809 Z" fill="#000000" fill-rule="nonzero" fill-opacity="1" /><path clip-path="url(#clip910)" d="M1767.31 65.7705 L1767.31 89.8329 L1759.82 89.8329 L1759.82 27.2059 L1767.31 27.2059 L1767.31 34.0924 Q1769.66 30.0415 1773.22 28.0971 Q1776.83 26.1121 1781.81 26.1121 Q1790.08 26.1121 1795.22 32.6746 Q1800.41 39.2371 1800.41 49.9314 Q1800.41 60.6258 1795.22 67.1883 Q1790.08 73.7508 1781.81 73.7508 Q1776.83 73.7508 1773.22 71.8063 Q1769.66 69.8214 1767.31 65.7705 M1792.67 49.9314 Q1792.67 41.7081 1789.27 37.0496 Q1785.9 32.3505 1779.99 32.3505 Q1774.07 32.3505 1770.67 37.0496 Q1767.31 41.7081 1767.31 49.9314 Q1767.31 58.1548 1770.67 62.8538 Q1774.07 67.5124 1779.99 67.5124 Q1785.9 67.5124 1789.27 62.8538 Q1792.67 58.1548 1792.67 49.9314 Z" fill="#000000" fill-rule="nonzero" fill-opacity="1" /><path clip-path="url(#clip910)" d="M1812.76 27.2059 L1820.21 27.2059 L1820.21 72.576 L1812.76 72.576 L1812.76 27.2059 M1812.76 9.54393 L1820.21 9.54393 L1820.21 18.9825 L1812.76 18.9825 L1812.76 9.54393 Z" fill="#000000" fill-rule="nonzero" fill-opacity="1" /><path clip-path="url(#clip910)" d="M1873.52 45.1919 L1873.52 72.576 L1866.07 72.576 L1866.07 45.4349 Q1866.07 38.994 1863.56 35.7938 Q1861.05 32.5936 1856.02 32.5936 Q1849.99 32.5936 1846.5 36.4419 Q1843.02 40.2903 1843.02 46.9338 L1843.02 72.576 L1835.53 72.576 L1835.53 27.2059 L1843.02 27.2059 L1843.02 34.2544 Q1845.69 30.163 1849.3 28.1376 Q1852.95 26.1121 1857.69 26.1121 Q1865.5 26.1121 1869.51 30.9732 Q1873.52 35.7938 1873.52 45.1919 Z" fill="#000000" fill-rule="nonzero" fill-opacity="1" /><path clip-path="url(#clip910)" d="M1917.31 28.5427 L1917.31 35.5912 Q1914.15 33.9709 1910.75 33.1607 Q1907.35 32.3505 1903.7 32.3505 Q1898.15 32.3505 1895.36 34.0519 Q1892.6 35.7533 1892.6 39.156 Q1892.6 41.7486 1894.59 43.2475 Q1896.57 44.7058 1902.57 46.0426 L1905.12 46.6097 Q1913.06 48.3111 1916.38 51.4303 Q1919.75 54.509 1919.75 60.0587 Q1919.75 66.3781 1914.72 70.0644 Q1909.74 73.7508 1900.99 73.7508 Q1897.34 73.7508 1893.37 73.0216 Q1889.44 72.3329 1885.07 70.9151 L1885.07 63.2184 Q1889.2 65.3654 1893.21 66.4591 Q1897.22 67.5124 1901.15 67.5124 Q1906.42 67.5124 1909.25 65.73 Q1912.09 63.9071 1912.09 60.6258 Q1912.09 57.5877 1910.02 55.9673 Q1908 54.3469 1901.07 52.8481 L1898.48 52.2405 Q1891.55 50.7821 1888.47 47.7845 Q1885.39 44.7463 1885.39 39.4801 Q1885.39 33.0797 1889.93 29.5959 Q1894.47 26.1121 1902.81 26.1121 Q1906.94 26.1121 1910.59 26.7198 Q1914.24 27.3274 1917.31 28.5427 Z" fill="#000000" fill-rule="nonzero" fill-opacity="1" /><circle clip-path="url(#clip912)" cx="316.512" cy="1386.4" r="14.4" fill="#009af9" fill-rule="evenodd" fill-opacity="1" stroke="#000000" stroke-opacity="1" stroke-width="3.2"/>
<circle clip-path="url(#clip912)" cx="420.561" cy="1383.33" r="14.4" fill="#009af9" fill-rule="evenodd" fill-opacity="1" stroke="#000000" stroke-opacity="1" stroke-width="3.2"/>
<circle clip-path="url(#clip912)" cx="524.611" cy="1379.19" r="14.4" fill="#009af9" fill-rule="evenodd" fill-opacity="1" stroke="#000000" stroke-opacity="1" stroke-width="3.2"/>
<circle clip-path="url(#clip912)" cx="628.66" cy="1366.69" r="14.4" fill="#009af9" fill-rule="evenodd" fill-opacity="1" stroke="#000000" stroke-opacity="1" stroke-width="3.2"/>
<circle clip-path="url(#clip912)" cx="732.709" cy="1333.66" r="14.4" fill="#009af9" fill-rule="evenodd" fill-opacity="1" stroke="#000000" stroke-opacity="1" stroke-width="3.2"/>
<circle clip-path="url(#clip912)" cx="836.758" cy="1283.43" r="14.4" fill="#009af9" fill-rule="evenodd" fill-opacity="1" stroke="#000000" stroke-opacity="1" stroke-width="3.2"/>
<circle clip-path="url(#clip912)" cx="940.808" cy="1191.59" r="14.4" fill="#009af9" fill-rule="evenodd" fill-opacity="1" stroke="#000000" stroke-opacity="1" stroke-width="3.2"/>
<circle clip-path="url(#clip912)" cx="1044.86" cy="239.05" r="14.4" fill="#009af9" fill-rule="evenodd" fill-opacity="1" stroke="#000000" stroke-opacity="1" stroke-width="3.2"/>
<circle clip-path="url(#clip912)" cx="1148.91" cy="629.78" r="14.4" fill="#009af9" fill-rule="evenodd" fill-opacity="1" stroke="#000000" stroke-opacity="1" stroke-width="3.2"/>
<circle clip-path="url(#clip912)" cx="1252.96" cy="594.269" r="14.4" fill="#009af9" fill-rule="evenodd" fill-opacity="1" stroke="#000000" stroke-opacity="1" stroke-width="3.2"/>
<circle clip-path="url(#clip912)" cx="1357" cy="537.165" r="14.4" fill="#009af9" fill-rule="evenodd" fill-opacity="1" stroke="#000000" stroke-opacity="1" stroke-width="3.2"/>
<circle clip-path="url(#clip912)" cx="1461.05" cy="160.256" r="14.4" fill="#009af9" fill-rule="evenodd" fill-opacity="1" stroke="#000000" stroke-opacity="1" stroke-width="3.2"/>
<circle clip-path="url(#clip912)" cx="1565.1" cy="488.353" r="14.4" fill="#009af9" fill-rule="evenodd" fill-opacity="1" stroke="#000000" stroke-opacity="1" stroke-width="3.2"/>
<circle clip-path="url(#clip912)" cx="1669.15" cy="402.828" r="14.4" fill="#009af9" fill-rule="evenodd" fill-opacity="1" stroke="#000000" stroke-opacity="1" stroke-width="3.2"/>
<circle clip-path="url(#clip912)" cx="1773.2" cy="430.869" r="14.4" fill="#009af9" fill-rule="evenodd" fill-opacity="1" stroke="#000000" stroke-opacity="1" stroke-width="3.2"/>
<circle clip-path="url(#clip912)" cx="1877.25" cy="279.045" r="14.4" fill="#009af9" fill-rule="evenodd" fill-opacity="1" stroke="#000000" stroke-opacity="1" stroke-width="3.2"/>
<circle clip-path="url(#clip912)" cx="1981.3" cy="351.432" r="14.4" fill="#009af9" fill-rule="evenodd" fill-opacity="1" stroke="#000000" stroke-opacity="1" stroke-width="3.2"/>
<circle clip-path="url(#clip912)" cx="2085.35" cy="276.81" r="14.4" fill="#009af9" fill-rule="evenodd" fill-opacity="1" stroke="#000000" stroke-opacity="1" stroke-width="3.2"/>
<circle clip-path="url(#clip912)" cx="2189.4" cy="226.222" r="14.4" fill="#009af9" fill-rule="evenodd" fill-opacity="1" stroke="#000000" stroke-opacity="1" stroke-width="3.2"/>
<circle clip-path="url(#clip912)" cx="2293.45" cy="219.798" r="14.4" fill="#009af9" fill-rule="evenodd" fill-opacity="1" stroke="#000000" stroke-opacity="1" stroke-width="3.2"/>
</svg>
